G04 #@! TF.GenerationSoftware,KiCad,Pcbnew,9.0.4*
G04 #@! TF.CreationDate,2025-11-09T06:41:20+03:00*
G04 #@! TF.ProjectId,FlameSensorSender,466c616d-6553-4656-9e73-6f7253656e64,1*
G04 #@! TF.SameCoordinates,PX3abc02cPY73c9b94*
G04 #@! TF.FileFunction,Paste,Top*
G04 #@! TF.FilePolarity,Positive*
%FSLAX46Y46*%
G04 Gerber Fmt 4.6, Leading zero omitted, Abs format (unit mm)*
G04 Created by KiCad (PCBNEW 9.0.4) date 2025-11-09 06:41:20*
%MOMM*%
%LPD*%
G01*
G04 APERTURE LIST*
G04 Aperture macros list*
%AMRoundRect*
0 Rectangle with rounded corners*
0 $1 Rounding radius*
0 $2 $3 $4 $5 $6 $7 $8 $9 X,Y pos of 4 corners*
0 Add a 4 corners polygon primitive as box body*
4,1,4,$2,$3,$4,$5,$6,$7,$8,$9,$2,$3,0*
0 Add four circle primitives for the rounded corners*
1,1,$1+$1,$2,$3*
1,1,$1+$1,$4,$5*
1,1,$1+$1,$6,$7*
1,1,$1+$1,$8,$9*
0 Add four rect primitives between the rounded corners*
20,1,$1+$1,$2,$3,$4,$5,0*
20,1,$1+$1,$4,$5,$6,$7,0*
20,1,$1+$1,$6,$7,$8,$9,0*
20,1,$1+$1,$8,$9,$2,$3,0*%
G04 Aperture macros list end*
%ADD10RoundRect,0.237500X0.250000X0.237500X-0.250000X0.237500X-0.250000X-0.237500X0.250000X-0.237500X0*%
%ADD11RoundRect,0.237500X-0.237500X0.300000X-0.237500X-0.300000X0.237500X-0.300000X0.237500X0.300000X0*%
%ADD12RoundRect,0.237500X-0.300000X-0.237500X0.300000X-0.237500X0.300000X0.237500X-0.300000X0.237500X0*%
%ADD13RoundRect,0.500000X-0.500000X-0.500000X0.500000X-0.500000X0.500000X0.500000X-0.500000X0.500000X0*%
%ADD14R,2.625000X5.160000*%
%ADD15RoundRect,0.237500X-0.250000X-0.237500X0.250000X-0.237500X0.250000X0.237500X-0.250000X0.237500X0*%
%ADD16RoundRect,0.150000X-0.150000X0.512500X-0.150000X-0.512500X0.150000X-0.512500X0.150000X0.512500X0*%
%ADD17RoundRect,0.237500X0.237500X-0.250000X0.237500X0.250000X-0.237500X0.250000X-0.237500X-0.250000X0*%
%ADD18RoundRect,0.237500X-0.237500X0.250000X-0.237500X-0.250000X0.237500X-0.250000X0.237500X0.250000X0*%
%ADD19RoundRect,0.150000X-0.150000X0.587500X-0.150000X-0.587500X0.150000X-0.587500X0.150000X0.587500X0*%
%ADD20RoundRect,0.250001X-0.462499X-0.624999X0.462499X-0.624999X0.462499X0.624999X-0.462499X0.624999X0*%
%ADD21R,0.229400X0.806399*%
%ADD22RoundRect,0.237500X0.237500X-0.287500X0.237500X0.287500X-0.237500X0.287500X-0.237500X-0.287500X0*%
%ADD23R,1.500000X2.000000*%
%ADD24RoundRect,0.237500X0.300000X0.237500X-0.300000X0.237500X-0.300000X-0.237500X0.300000X-0.237500X0*%
%ADD25R,0.711200X3.403600*%
%ADD26R,1.600200X2.387600*%
%ADD27RoundRect,0.075000X0.662500X0.075000X-0.662500X0.075000X-0.662500X-0.075000X0.662500X-0.075000X0*%
%ADD28RoundRect,0.075000X0.075000X0.662500X-0.075000X0.662500X-0.075000X-0.662500X0.075000X-0.662500X0*%
%ADD29RoundRect,0.250000X-0.550000X1.500000X-0.550000X-1.500000X0.550000X-1.500000X0.550000X1.500000X0*%
%ADD30RoundRect,0.237500X0.237500X-0.300000X0.237500X0.300000X-0.237500X0.300000X-0.237500X-0.300000X0*%
%ADD31RoundRect,0.160000X0.245000X0.160000X-0.245000X0.160000X-0.245000X-0.160000X0.245000X-0.160000X0*%
%ADD32RoundRect,0.093750X0.093750X0.106250X-0.093750X0.106250X-0.093750X-0.106250X0.093750X-0.106250X0*%
G04 APERTURE END LIST*
D10*
G04 #@! TO.C,R2*
X67325000Y8412500D03*
X65500000Y8412500D03*
G04 #@! TD*
D11*
G04 #@! TO.C,C2*
X51412500Y16275000D03*
X51412500Y14550000D03*
G04 #@! TD*
D12*
G04 #@! TO.C,C7*
X23137500Y52000000D03*
X24862500Y52000000D03*
G04 #@! TD*
D13*
G04 #@! TO.C,SW2*
X61412500Y30412500D03*
X67412500Y30412500D03*
G04 #@! TD*
D14*
G04 #@! TO.C,P1*
X3800000Y12900000D03*
X3800000Y5100000D03*
X27000000Y12900000D03*
X27000000Y5100000D03*
G04 #@! TD*
D15*
G04 #@! TO.C,R9*
X30087500Y11000000D03*
X31912500Y11000000D03*
G04 #@! TD*
D16*
G04 #@! TO.C,Q1*
X67362500Y5550000D03*
X65462500Y5550000D03*
X66412500Y3275000D03*
G04 #@! TD*
G04 #@! TO.C,Q3*
X52000000Y7000000D03*
X50100000Y7000000D03*
X51050000Y4725000D03*
G04 #@! TD*
D17*
G04 #@! TO.C,R14*
X17000000Y56087500D03*
X17000000Y57912500D03*
G04 #@! TD*
D12*
G04 #@! TO.C,C5*
X57550000Y23412500D03*
X59275000Y23412500D03*
G04 #@! TD*
D18*
G04 #@! TO.C,R10*
X47000000Y5912500D03*
X47000000Y4087500D03*
G04 #@! TD*
D19*
G04 #@! TO.C,Q4*
X59900000Y5287500D03*
X58000000Y5287500D03*
X58950000Y3412500D03*
G04 #@! TD*
D20*
G04 #@! TO.C,D1*
X65512500Y24000000D03*
X68487500Y24000000D03*
G04 #@! TD*
D18*
G04 #@! TO.C,R11*
X21980931Y57620000D03*
X21980931Y55795000D03*
G04 #@! TD*
D19*
G04 #@! TO.C,Q5*
X13950000Y57800000D03*
X12050000Y57800000D03*
X13000000Y55925000D03*
G04 #@! TD*
D14*
G04 #@! TO.C,P2*
X3800000Y30412500D03*
X3800000Y22612500D03*
X27000000Y30412500D03*
X27000000Y22612500D03*
G04 #@! TD*
D18*
G04 #@! TO.C,R16*
X20000000Y68412500D03*
X20000000Y66587500D03*
G04 #@! TD*
D17*
G04 #@! TO.C,R15*
X8000000Y61087500D03*
X8000000Y62912500D03*
G04 #@! TD*
D21*
G04 #@! TO.C,IC1*
X16509811Y61717100D03*
X17009937Y61717100D03*
X17510063Y61717100D03*
X18010189Y61717100D03*
X18010189Y63412500D03*
X17510063Y63412500D03*
X17009937Y63412500D03*
X16509811Y63412500D03*
G04 #@! TD*
D18*
G04 #@! TO.C,R17*
X17000000Y68412500D03*
X17000000Y66587500D03*
G04 #@! TD*
D22*
G04 #@! TO.C,FB1*
X78412500Y5537500D03*
X78412500Y7287500D03*
G04 #@! TD*
D23*
G04 #@! TO.C,U2*
X73000000Y16000000D03*
X75000000Y16000000D03*
X77000000Y16000000D03*
X79000000Y16000000D03*
X81000000Y16000000D03*
X83000000Y16000000D03*
X85000000Y16000000D03*
X87000000Y16000000D03*
X87000000Y32000000D03*
X85000000Y32000000D03*
X83000000Y32000000D03*
X81000000Y32000000D03*
X79000000Y32000000D03*
X77000000Y32000000D03*
X75000000Y32000000D03*
X73000000Y32000000D03*
G04 #@! TD*
D15*
G04 #@! TO.C,R4*
X68087500Y19412500D03*
X69912500Y19412500D03*
G04 #@! TD*
D18*
G04 #@! TO.C,R3*
X76412500Y7325000D03*
X76412500Y5500000D03*
G04 #@! TD*
D24*
G04 #@! TO.C,C1*
X44000000Y19000000D03*
X42275000Y19000000D03*
G04 #@! TD*
D17*
G04 #@! TO.C,R6*
X52000000Y37500000D03*
X52000000Y39325000D03*
G04 #@! TD*
G04 #@! TO.C,R8*
X63000000Y3412500D03*
X63000000Y5237500D03*
G04 #@! TD*
D18*
G04 #@! TO.C,R13*
X27412500Y61325000D03*
X27412500Y59500000D03*
G04 #@! TD*
D17*
G04 #@! TO.C,R7*
X55000000Y5087500D03*
X55000000Y6912500D03*
G04 #@! TD*
D25*
G04 #@! TO.C,J3*
X20162500Y39412500D03*
X18662501Y39412500D03*
X17162501Y39412500D03*
X15662499Y39412500D03*
X14162499Y39412500D03*
X12662500Y39412500D03*
D26*
X22212501Y37462499D03*
X10612499Y37462499D03*
G04 #@! TD*
D27*
G04 #@! TO.C,U1*
X53000000Y20325000D03*
X53000000Y20825000D03*
X53000000Y21325000D03*
X53000000Y21825000D03*
X53000000Y22325000D03*
X53000000Y22825000D03*
X53000000Y23325000D03*
X53000000Y23825000D03*
X53000000Y24325000D03*
X53000000Y24825000D03*
X53000000Y25325000D03*
X53000000Y25825000D03*
D28*
X51587500Y27237500D03*
X51087500Y27237500D03*
X50587500Y27237500D03*
X50087500Y27237500D03*
X49587500Y27237500D03*
X49087500Y27237500D03*
X48587500Y27237500D03*
X48087500Y27237500D03*
X47587500Y27237500D03*
X47087500Y27237500D03*
X46587500Y27237500D03*
X46087500Y27237500D03*
D27*
X44675000Y25825000D03*
X44675000Y25325000D03*
X44675000Y24825000D03*
X44675000Y24325000D03*
X44675000Y23825000D03*
X44675000Y23325000D03*
X44675000Y22825000D03*
X44675000Y22325000D03*
X44675000Y21825000D03*
X44675000Y21325000D03*
X44675000Y20825000D03*
X44675000Y20325000D03*
D28*
X46087500Y18912500D03*
X46587500Y18912500D03*
X47087500Y18912500D03*
X47587500Y18912500D03*
X48087500Y18912500D03*
X48587500Y18912500D03*
X49087500Y18912500D03*
X49587500Y18912500D03*
X50087500Y18912500D03*
X50587500Y18912500D03*
X51087500Y18912500D03*
X51587500Y18912500D03*
G04 #@! TD*
D16*
G04 #@! TO.C,Q6*
X8950000Y58000000D03*
X7050000Y58000000D03*
X8000000Y55725000D03*
G04 #@! TD*
D12*
G04 #@! TO.C,C3*
X55000000Y18412500D03*
X56725000Y18412500D03*
G04 #@! TD*
D19*
G04 #@! TO.C,Q2*
X71950000Y6350000D03*
X70050000Y6350000D03*
X71000000Y4475000D03*
G04 #@! TD*
D29*
G04 #@! TO.C,C8*
X34000000Y8400000D03*
X34000000Y3000000D03*
G04 #@! TD*
D18*
G04 #@! TO.C,R12*
X24000000Y57620000D03*
X24000000Y55795000D03*
G04 #@! TD*
D30*
G04 #@! TO.C,C4*
X23000000Y46050000D03*
X23000000Y47775000D03*
G04 #@! TD*
D17*
G04 #@! TO.C,R5*
X49000000Y37587500D03*
X49000000Y39412500D03*
G04 #@! TD*
D18*
G04 #@! TO.C,R1*
X25000000Y47825000D03*
X25000000Y46000000D03*
G04 #@! TD*
D31*
G04 #@! TO.C,U3*
X12112500Y67450000D03*
X12112500Y68250000D03*
D32*
X13000000Y67200000D03*
X13000000Y67850000D03*
X13000000Y68500000D03*
X11225000Y68500000D03*
X11225000Y67850000D03*
X11225000Y67200000D03*
G04 #@! TD*
D30*
G04 #@! TO.C,C6*
X43412500Y29550000D03*
X43412500Y31275000D03*
G04 #@! TD*
M02*
