M48
; DRILL file {KiCad 9.0.4} date 2025-11-09T06:36:27+0300
; FORMAT={-:-/ absolute / metric / decimal}
; #@! TF.CreationDate,2025-11-09T06:36:27+03:00
; #@! TF.GenerationSoftware,Kicad,Pcbnew,9.0.4
; #@! TF.FileFunction,MixedPlating,1,2
FMAT,2
METRIC
; #@! TA.AperFunction,Plated,PTH,ComponentDrill
T1C0.750
; #@! TA.AperFunction,Plated,PTH,ViaDrill
T2C0.900
; #@! TA.AperFunction,Plated,PTH,ComponentDrill
T3C1.000
; #@! TA.AperFunction,Plated,PTH,ComponentDrill
T4C1.020
; #@! TA.AperFunction,Plated,PTH,ComponentDrill
T5C1.100
; #@! TA.AperFunction,NonPlated,NPTH,ComponentDrill
T6C3.300
; #@! TA.AperFunction,NonPlated,NPTH,ComponentDrill
T7C4.300
%
G90
G05
T1
X14.412Y73.412
X16.412Y73.412
X18.412Y73.412
X20.412Y73.412
X22.412Y73.412
X24.412Y73.412
T2
X3.718Y17.412
X5.412Y40.413
X5.412Y34.413
X10.412Y60.0
X11.225Y64.6
X11.412Y61.72
X12.412Y17.412
X13.412Y43.413
X14.412Y64.412
X14.717Y61.717
X16.412Y43.413
X18.412Y17.217
X19.412Y58.412
X20.412Y62.412
X22.412Y59.412
X22.85Y62.412
X23.412Y68.412
X24.412Y35.413
X25.412Y62.412
X25.412Y17.412
X26.412Y42.413
X27.412Y57.412
X27.412Y54.412
X30.412Y40.413
X30.914Y9.008
X32.413Y37.413
X36.913Y32.913
X38.0Y4.0
X39.413Y27.412
X39.413Y20.412
X39.413Y14.412
X41.413Y42.413
X41.413Y32.413
X41.413Y20.412
X42.413Y14.412
X42.75Y27.75
X44.413Y37.413
X45.476Y29.476
X47.737Y16.412
X48.412Y42.413
X48.412Y12.412
X49.737Y32.413
X50.412Y10.412
X51.412Y35.413
X52.236Y41.649
X54.412Y36.413
X55.393Y20.432
X55.4Y22.246
X57.412Y7.412
X57.5Y12.5
X58.412Y33.413
X58.412Y27.412
X58.412Y17.412
X58.487Y19.488
X59.412Y29.099
X60.412Y25.412
X61.412Y10.412
X63.0Y25.0
X63.0Y7.0
X67.412Y42.413
X68.488Y7.333
X69.412Y28.412
X69.587Y40.413
X72.787Y39.038
X74.162Y8.162
X75.0Y35.0
X77.0Y35.0
X79.0Y13.0
X80.412Y10.412
X87.0Y35.413
T3
X32.46Y28.54
X32.46Y26.0
X32.46Y18.54
X32.46Y16.0
X35.0Y28.54
X35.0Y26.0
X35.0Y18.54
X35.0Y16.0
T4
X31.835Y67.99
X31.835Y53.0
T5
X12.5Y51.5
X12.5Y47.0
X19.0Y51.5
X19.0Y47.0
T6
X59.0Y67.99
X59.0Y53.0
T7
X6.0Y78.412
X85.0Y5.412
M30
