G04 #@! TF.GenerationSoftware,KiCad,Pcbnew,9.0.4*
G04 #@! TF.CreationDate,2025-11-09T06:41:20+03:00*
G04 #@! TF.ProjectId,FlameSensorSender,466c616d-6553-4656-9e73-6f7253656e64,1*
G04 #@! TF.SameCoordinates,PX3abc02cPY73c9b94*
G04 #@! TF.FileFunction,Copper,L2,Bot*
G04 #@! TF.FilePolarity,Positive*
%FSLAX46Y46*%
G04 Gerber Fmt 4.6, Leading zero omitted, Abs format (unit mm)*
G04 Created by KiCad (PCBNEW 9.0.4) date 2025-11-09 06:41:20*
%MOMM*%
%LPD*%
G01*
G04 APERTURE LIST*
G04 Aperture macros list*
%AMRoundRect*
0 Rectangle with rounded corners*
0 $1 Rounding radius*
0 $2 $3 $4 $5 $6 $7 $8 $9 X,Y pos of 4 corners*
0 Add a 4 corners polygon primitive as box body*
4,1,4,$2,$3,$4,$5,$6,$7,$8,$9,$2,$3,0*
0 Add four circle primitives for the rounded corners*
1,1,$1+$1,$2,$3*
1,1,$1+$1,$4,$5*
1,1,$1+$1,$6,$7*
1,1,$1+$1,$8,$9*
0 Add four rect primitives between the rounded corners*
20,1,$1+$1,$2,$3,$4,$5,0*
20,1,$1+$1,$4,$5,$6,$7,0*
20,1,$1+$1,$6,$7,$8,$9,0*
20,1,$1+$1,$8,$9,$2,$3,0*%
G04 Aperture macros list end*
G04 #@! TA.AperFunction,ComponentPad*
%ADD10R,1.700000X1.700000*%
G04 #@! TD*
G04 #@! TA.AperFunction,ComponentPad*
%ADD11C,1.700000*%
G04 #@! TD*
G04 #@! TA.AperFunction,ComponentPad*
%ADD12RoundRect,0.250000X0.350000X0.625000X-0.350000X0.625000X-0.350000X-0.625000X0.350000X-0.625000X0*%
G04 #@! TD*
G04 #@! TA.AperFunction,ComponentPad*
%ADD13O,1.200000X1.750000*%
G04 #@! TD*
G04 #@! TA.AperFunction,ComponentPad*
%ADD14R,2.000000X2.000000*%
G04 #@! TD*
G04 #@! TA.AperFunction,ComponentPad*
%ADD15C,2.000000*%
G04 #@! TD*
G04 #@! TA.AperFunction,ViaPad*
%ADD16C,1.500000*%
G04 #@! TD*
G04 #@! TA.AperFunction,Conductor*
%ADD17C,0.300000*%
G04 #@! TD*
G04 APERTURE END LIST*
D10*
G04 #@! TO.P,J1,1,Pin_1*
G04 #@! TO.N,+3V3*
X32460000Y16000000D03*
D11*
G04 #@! TO.P,J1,2,Pin_2*
G04 #@! TO.N,/SWDIO*
X32460000Y18540000D03*
G04 #@! TO.P,J1,3,Pin_3*
G04 #@! TO.N,/SWCLK*
X35000000Y16000000D03*
G04 #@! TO.P,J1,4,Pin_4*
G04 #@! TO.N,GNDD*
X35000000Y18540000D03*
G04 #@! TD*
D12*
G04 #@! TO.P,J7,1,Pin_1*
G04 #@! TO.N,GNDD*
X24412500Y73412500D03*
D13*
G04 #@! TO.P,J7,2,Pin_2*
G04 #@! TO.N,unconnected-(J7-Pin_2-Pad2)*
X22412500Y73412500D03*
G04 #@! TO.P,J7,3,Pin_3*
G04 #@! TO.N,Net-(J7-Pin_3)*
X20412500Y73412500D03*
G04 #@! TO.P,J7,4,Pin_4*
G04 #@! TO.N,Net-(J7-Pin_4)*
X18412500Y73412500D03*
G04 #@! TO.P,J7,5,Pin_5*
G04 #@! TO.N,unconnected-(J7-Pin_5-Pad5)*
X16412500Y73412500D03*
G04 #@! TO.P,J7,6,Pin_6*
G04 #@! TO.N,Net-(IC1-VIN1)*
X14412500Y73412500D03*
G04 #@! TD*
D14*
G04 #@! TO.P,BT1,1,+*
G04 #@! TO.N,Net-(BT1-+)*
X31835000Y67990000D03*
D15*
G04 #@! TO.P,BT1,2,-*
G04 #@! TO.N,GNDD*
X31835000Y53000000D03*
G04 #@! TD*
D10*
G04 #@! TO.P,J2,1,Pin_1*
G04 #@! TO.N,GNDD*
X32460000Y28540000D03*
D11*
G04 #@! TO.P,J2,2,Pin_2*
G04 #@! TO.N,/USART1_TX*
X35000000Y28540000D03*
G04 #@! TO.P,J2,3,Pin_3*
G04 #@! TO.N,unconnected-(J2-Pin_3-Pad3)*
X32460000Y26000000D03*
G04 #@! TO.P,J2,4,Pin_4*
G04 #@! TO.N,/USART1_RX*
X35000000Y26000000D03*
G04 #@! TD*
D15*
G04 #@! TO.P,SW1,1,1*
G04 #@! TO.N,GNDD*
X12500000Y51500000D03*
X19000000Y51500000D03*
G04 #@! TO.P,SW1,2,2*
G04 #@! TO.N,/RESET_PIN*
X12500000Y47000000D03*
X19000000Y47000000D03*
G04 #@! TD*
D16*
G04 #@! TO.N,VCC_BAT*
X52236399Y41648899D03*
G04 #@! TO.N,/RESET_PIN*
X55400000Y22245538D03*
G04 #@! TO.N,GNDD*
X60412500Y25412500D03*
G04 #@! TO.N,/RESET_PIN*
X30412500Y40412500D03*
G04 #@! TO.N,GNDD*
X68487772Y7332867D03*
G04 #@! TO.N,/MOSFET_GATE_LORA*
X74162500Y8162500D03*
X45475673Y29475673D03*
G04 #@! TO.N,GNDD*
X23412500Y68412500D03*
X12412500Y17412500D03*
X41412500Y20412500D03*
X87000000Y35412500D03*
X57412500Y7412500D03*
X20412500Y62412500D03*
X16412500Y43412500D03*
X69412500Y28412500D03*
X58412500Y17412500D03*
X38000000Y4000000D03*
X3718000Y17412500D03*
X14717100Y61717100D03*
X10412500Y60000000D03*
X63000000Y25000000D03*
X22412500Y59412500D03*
X48412500Y42412500D03*
X50412500Y10412500D03*
X41412500Y32412500D03*
X13412500Y43412500D03*
X25412500Y17412500D03*
G04 #@! TO.N,+3V3*
X39412500Y20412500D03*
X39412500Y27412500D03*
G04 #@! TO.N,/SWCLK*
X42412500Y14412500D03*
X39412500Y14412500D03*
G04 #@! TO.N,/INFO_LED*
X55393077Y20431923D03*
X58487500Y19487500D03*
G04 #@! TO.N,/LORA_MOSI*
X69587500Y40412500D03*
X75000000Y35000000D03*
G04 #@! TO.N,/LORA_MISO*
X72787494Y39037506D03*
X77000000Y35000000D03*
G04 #@! TO.N,INFO_SUPPLY*
X44412500Y37412500D03*
X19412500Y58412500D03*
X27412500Y54412500D03*
X27412500Y57412500D03*
X47737500Y16412500D03*
X14412500Y64412500D03*
G04 #@! TO.N,/LORA_DIO1*
X49737500Y32412500D03*
X80412500Y10412500D03*
G04 #@! TO.N,/LORA_BUSY*
X58412500Y33412500D03*
X67412500Y42412500D03*
G04 #@! TO.N,/LORA_NRST*
X79000000Y13000000D03*
X51412500Y35412500D03*
G04 #@! TO.N,Net-(P2-VIN)*
X5412500Y34412500D03*
X5412500Y40412500D03*
G04 #@! TO.N,/V-LED*
X18412500Y17216951D03*
X30914474Y9007879D03*
G04 #@! TO.N,/BUZZER*
X61412500Y10412500D03*
X63000000Y7000000D03*
X48412500Y12412500D03*
X57500000Y12500000D03*
G04 #@! TO.N,VCC_BAT*
X59412500Y29099327D03*
G04 #@! TO.N,Net-(IC1-VIN1)*
X11225000Y64600000D03*
X11412500Y61719851D03*
X25412500Y62412500D03*
X22850000Y62411682D03*
G04 #@! TO.N,/SENSOR_LED*
X36912500Y32912500D03*
X32412500Y37412500D03*
X42750000Y27750000D03*
X24412500Y35412500D03*
G04 #@! TO.N,/SENSOR DATA Vo*
X54412500Y36412500D03*
X58412500Y27412500D03*
G04 #@! TO.N,/Vo*
X26412500Y42412500D03*
X41412500Y42412500D03*
G04 #@! TD*
D17*
G04 #@! TO.N,/LORA_NRST*
X52412500Y34412500D02*
X51412500Y35412500D01*
X71412500Y12412500D02*
X52412500Y31412500D01*
X52412500Y31412500D02*
X52412500Y34412500D01*
X78412500Y12412500D02*
X71412500Y12412500D01*
X79000000Y13000000D02*
X78412500Y12412500D01*
G04 #@! TO.N,Net-(P2-VIN)*
X5412500Y34412500D02*
X5412500Y40412500D01*
G04 #@! TO.N,/SENSOR DATA Vo*
X57412500Y28412500D02*
X58412500Y27412500D01*
X57412500Y29412500D02*
X57412500Y28412500D01*
X54412500Y32412500D02*
X57412500Y29412500D01*
X54412500Y36412500D02*
X54412500Y32412500D01*
G04 #@! TO.N,/V-LED*
X18412500Y12412500D02*
X18412500Y17216951D01*
X22825000Y8000000D02*
X18412500Y12412500D01*
X29906595Y8000000D02*
X22825000Y8000000D01*
X30914474Y9007879D02*
X29906595Y8000000D01*
G04 #@! TO.N,/INFO_LED*
X57562500Y20412500D02*
X55412500Y20412500D01*
X55412500Y20412500D02*
X55393077Y20431923D01*
X58487500Y19487500D02*
X57562500Y20412500D01*
G04 #@! TO.N,/LORA_DIO1*
X49737500Y32087500D02*
X49737500Y32412500D01*
X70849000Y10976000D02*
X49737500Y32087500D01*
X74849000Y10976000D02*
X70849000Y10976000D01*
X75412500Y10412500D02*
X74849000Y10976000D01*
X80412500Y10412500D02*
X75412500Y10412500D01*
G04 #@! TO.N,/MOSFET_GATE_LORA*
X73912500Y8412500D02*
X74162500Y8162500D01*
X47260740Y15261500D02*
X62563500Y15261500D01*
X46036799Y16485441D02*
X47260740Y15261500D01*
X62563500Y15261500D02*
X69412500Y8412500D01*
X69412500Y8412500D02*
X73912500Y8412500D01*
X46036799Y28914547D02*
X46036799Y16485441D01*
X45475673Y29475673D02*
X46036799Y28914547D01*
G04 #@! TO.N,/SENSOR_LED*
X42075000Y27750000D02*
X36912500Y32912500D01*
X42750000Y27750000D02*
X42075000Y27750000D01*
G04 #@! TO.N,/RESET_PIN*
X47913500Y32199926D02*
X49412500Y30700926D01*
X49412500Y28412500D02*
X55400000Y22425000D01*
X55400000Y22425000D02*
X55400000Y22245538D01*
X47913500Y37539260D02*
X47913500Y32199926D01*
X30412500Y40412500D02*
X45040260Y40412500D01*
X45040260Y40412500D02*
X47913500Y37539260D01*
X49412500Y30700926D02*
X49412500Y28412500D01*
G04 #@! TO.N,INFO_SUPPLY*
X47412500Y16737500D02*
X47737500Y16412500D01*
X46412500Y30412500D02*
X47412500Y29412500D01*
X44412500Y37412500D02*
X46412500Y35412500D01*
X46412500Y35412500D02*
X46412500Y30412500D01*
X47412500Y29412500D02*
X47412500Y16737500D01*
G04 #@! TO.N,+3V3*
X39412500Y27412500D02*
X39412500Y20412500D01*
G04 #@! TO.N,/SWCLK*
X42412500Y14412500D02*
X39412500Y14412500D01*
G04 #@! TO.N,/LORA_MOSI*
X69587500Y40412500D02*
X75000000Y35000000D01*
G04 #@! TO.N,/LORA_MISO*
X76825000Y35000000D02*
X77000000Y35000000D01*
X72787494Y39037506D02*
X76825000Y35000000D01*
G04 #@! TO.N,INFO_SUPPLY*
X19412500Y59412500D02*
X14412500Y64412500D01*
X19412500Y58412500D02*
X19412500Y59412500D01*
X27412500Y54412500D02*
X27412500Y57412500D01*
G04 #@! TO.N,/LORA_BUSY*
X58412500Y33412500D02*
X67412500Y42412500D01*
G04 #@! TO.N,/BUZZER*
X63000000Y7000000D02*
X61412500Y8587500D01*
X57412500Y12412500D02*
X48412500Y12412500D01*
X61412500Y8587500D02*
X61412500Y10412500D01*
X57500000Y12500000D02*
X57412500Y12412500D01*
G04 #@! TO.N,Net-(IC1-VIN1)*
X11412500Y61719851D02*
X11412500Y64412500D01*
X25412500Y62412500D02*
X25411682Y62411682D01*
X25411682Y62411682D02*
X22850000Y62411682D01*
X11412500Y64412500D02*
X11225000Y64600000D01*
G04 #@! TO.N,/SENSOR_LED*
X26412500Y37412500D02*
X32412500Y37412500D01*
X24412500Y35412500D02*
X26412500Y37412500D01*
G04 #@! TO.N,/Vo*
X26412500Y42412500D02*
X41412500Y42412500D01*
G04 #@! TO.N,VCC_BAT*
X59412500Y29099327D02*
X59412500Y30412500D01*
X59412500Y30412500D02*
X56412500Y33412500D01*
X56412500Y33412500D02*
X56412500Y35412500D01*
X56412500Y35412500D02*
X57412500Y36412500D01*
X57412500Y38502018D02*
X54265619Y41648899D01*
X54265619Y41648899D02*
X52236399Y41648899D01*
X57412500Y36412500D02*
X57412500Y38502018D01*
G04 #@! TD*
G04 #@! TA.AperFunction,Conductor*
G04 #@! TO.N,GNDD*
G36*
X34534075Y18347007D02*
G01*
X34599901Y18232993D01*
X34692993Y18139901D01*
X34807007Y18074075D01*
X34870590Y18057038D01*
X34238282Y17424731D01*
X34238282Y17424730D01*
X34292452Y17385374D01*
X34292451Y17385374D01*
X34301495Y17380766D01*
X34352292Y17332792D01*
X34369087Y17264971D01*
X34346550Y17198836D01*
X34301499Y17159798D01*
X34292182Y17155051D01*
X34120215Y17030111D01*
X34006673Y16916569D01*
X33945350Y16883085D01*
X33875658Y16888069D01*
X33819725Y16929941D01*
X33802810Y16960918D01*
X33753797Y17092329D01*
X33753793Y17092336D01*
X33667547Y17207545D01*
X33667544Y17207548D01*
X33552335Y17293794D01*
X33552328Y17293798D01*
X33420917Y17342811D01*
X33364983Y17384682D01*
X33340566Y17450147D01*
X33355418Y17518420D01*
X33376563Y17546668D01*
X33490104Y17660208D01*
X33615051Y17832184D01*
X33619793Y17841492D01*
X33667763Y17892289D01*
X33735583Y17909089D01*
X33801719Y17886555D01*
X33840763Y17841500D01*
X33845373Y17832453D01*
X33884728Y17778284D01*
X34517037Y18410592D01*
X34534075Y18347007D01*
G37*
G04 #@! TD.AperFunction*
G04 #@! TA.AperFunction,Conductor*
G36*
X90442539Y83479815D02*
G01*
X90488294Y83427011D01*
X90499500Y83375500D01*
X90499500Y624500D01*
X90479815Y557461D01*
X90427011Y511706D01*
X90375500Y500500D01*
X624500Y500500D01*
X557461Y520185D01*
X511706Y572989D01*
X500500Y624500D01*
X500500Y5547314D01*
X82599500Y5547314D01*
X82599500Y5277687D01*
X82629686Y5009781D01*
X82629688Y5009769D01*
X82689684Y4746906D01*
X82689687Y4746898D01*
X82778734Y4492418D01*
X82895714Y4249506D01*
X82895716Y4249503D01*
X83039162Y4021211D01*
X83207266Y3810415D01*
X83397915Y3619766D01*
X83608711Y3451662D01*
X83837003Y3308216D01*
X84079921Y3191233D01*
X84271049Y3124355D01*
X84334397Y3102188D01*
X84334405Y3102185D01*
X84334408Y3102185D01*
X84334409Y3102184D01*
X84597268Y3042188D01*
X84865187Y3012001D01*
X84865188Y3012000D01*
X84865191Y3012000D01*
X85134812Y3012000D01*
X85134812Y3012001D01*
X85402732Y3042188D01*
X85665591Y3102184D01*
X85920079Y3191233D01*
X86162997Y3308216D01*
X86391289Y3451662D01*
X86602085Y3619766D01*
X86792734Y3810415D01*
X86960838Y4021211D01*
X87104284Y4249503D01*
X87221267Y4492421D01*
X87310316Y4746909D01*
X87370312Y5009768D01*
X87400500Y5277691D01*
X87400500Y5547309D01*
X87370312Y5815232D01*
X87310316Y6078091D01*
X87221267Y6332579D01*
X87104284Y6575497D01*
X86960838Y6803789D01*
X86792734Y7014585D01*
X86602085Y7205234D01*
X86391289Y7373338D01*
X86162997Y7516784D01*
X86162994Y7516786D01*
X85920082Y7633766D01*
X85665602Y7722813D01*
X85665594Y7722816D01*
X85468446Y7767813D01*
X85402732Y7782812D01*
X85402728Y7782813D01*
X85402719Y7782814D01*
X85134813Y7813000D01*
X85134809Y7813000D01*
X84865191Y7813000D01*
X84865186Y7813000D01*
X84597280Y7782814D01*
X84597268Y7782812D01*
X84334405Y7722816D01*
X84334397Y7722813D01*
X84079917Y7633766D01*
X83837005Y7516786D01*
X83608712Y7373339D01*
X83397915Y7205235D01*
X83207265Y7014585D01*
X83039161Y6803788D01*
X82895714Y6575495D01*
X82778734Y6332583D01*
X82689687Y6078103D01*
X82689684Y6078095D01*
X82629688Y5815232D01*
X82629686Y5815220D01*
X82599500Y5547314D01*
X500500Y5547314D01*
X500500Y17315374D01*
X17162000Y17315374D01*
X17162000Y17118529D01*
X17192790Y16924125D01*
X17253617Y16736922D01*
X17302897Y16640205D01*
X17342976Y16561546D01*
X17458672Y16402305D01*
X17597854Y16263123D01*
X17597857Y16263121D01*
X17710885Y16181001D01*
X17753551Y16125671D01*
X17762000Y16080683D01*
X17762000Y12348430D01*
X17770626Y12305065D01*
X17779253Y12261698D01*
X17786999Y12222756D01*
X17836034Y12104375D01*
X17907226Y11997827D01*
X22410327Y7494726D01*
X22515882Y7424197D01*
X22515888Y7424193D01*
X22516869Y7423537D01*
X22516871Y7423536D01*
X22516873Y7423535D01*
X22635256Y7374499D01*
X22635260Y7374499D01*
X22635261Y7374498D01*
X22760928Y7349500D01*
X22760931Y7349500D01*
X29970666Y7349500D01*
X30090507Y7373339D01*
X30096339Y7374499D01*
X30214722Y7423535D01*
X30215707Y7424193D01*
X30215714Y7424197D01*
X30299274Y7480030D01*
X30321264Y7494723D01*
X30570985Y7744446D01*
X30632304Y7777928D01*
X30678061Y7779235D01*
X30816052Y7757379D01*
X30816057Y7757379D01*
X31012896Y7757379D01*
X31207300Y7788170D01*
X31283718Y7813000D01*
X31394499Y7848995D01*
X31569879Y7938355D01*
X31729120Y8054051D01*
X31868302Y8193233D01*
X31983998Y8352474D01*
X32073358Y8527854D01*
X32134183Y8715053D01*
X32150473Y8817905D01*
X32164974Y8909457D01*
X32164974Y9106302D01*
X32134183Y9300706D01*
X32097696Y9413000D01*
X32073358Y9487904D01*
X32073356Y9487907D01*
X32073356Y9487909D01*
X32017337Y9597852D01*
X31983998Y9663284D01*
X31868302Y9822525D01*
X31729120Y9961707D01*
X31569879Y10077403D01*
X31394503Y10166762D01*
X31207300Y10227589D01*
X31012896Y10258379D01*
X31012891Y10258379D01*
X30816057Y10258379D01*
X30816052Y10258379D01*
X30621647Y10227589D01*
X30434444Y10166762D01*
X30259068Y10077403D01*
X30168215Y10011394D01*
X30099828Y9961707D01*
X30099826Y9961705D01*
X30099825Y9961705D01*
X29960648Y9822528D01*
X29960648Y9822527D01*
X29960646Y9822525D01*
X29934835Y9786999D01*
X29844950Y9663285D01*
X29755591Y9487909D01*
X29694764Y9300706D01*
X29663974Y9106302D01*
X29663974Y8909457D01*
X29682277Y8793898D01*
X29673323Y8724605D01*
X29628326Y8671153D01*
X29561575Y8650513D01*
X29559804Y8650500D01*
X23145808Y8650500D01*
X23078769Y8670185D01*
X23058127Y8686819D01*
X21234023Y10510923D01*
X60162000Y10510923D01*
X60162000Y10314078D01*
X60192790Y10119674D01*
X60253617Y9932471D01*
X60309636Y9822528D01*
X60342976Y9757095D01*
X60458672Y9597854D01*
X60597854Y9458672D01*
X60703094Y9382210D01*
X60710885Y9376550D01*
X60753551Y9321220D01*
X60762000Y9276232D01*
X60762000Y8523430D01*
X60783634Y8414676D01*
X60783634Y8414673D01*
X60786999Y8397755D01*
X60836033Y8279375D01*
X60877037Y8218008D01*
X60893592Y8193231D01*
X60907226Y8172827D01*
X60907227Y8172826D01*
X61736563Y7343491D01*
X61770048Y7282168D01*
X61771355Y7236412D01*
X61749500Y7098423D01*
X61749500Y6901578D01*
X61780290Y6707174D01*
X61841117Y6519971D01*
X61930476Y6344595D01*
X62046172Y6185354D01*
X62185354Y6046172D01*
X62344595Y5930476D01*
X62427455Y5888257D01*
X62519970Y5841118D01*
X62519972Y5841118D01*
X62519975Y5841116D01*
X62599674Y5815220D01*
X62707173Y5780291D01*
X62901578Y5749500D01*
X62901583Y5749500D01*
X63098422Y5749500D01*
X63292826Y5780291D01*
X63480025Y5841116D01*
X63655405Y5930476D01*
X63814646Y6046172D01*
X63953828Y6185354D01*
X64069524Y6344595D01*
X64158884Y6519975D01*
X64219709Y6707174D01*
X64235011Y6803788D01*
X64250500Y6901578D01*
X64250500Y7098423D01*
X64219709Y7292827D01*
X64158882Y7480030D01*
X64111743Y7572545D01*
X64069524Y7655405D01*
X63953828Y7814646D01*
X63814646Y7953828D01*
X63655405Y8069524D01*
X63480029Y8158883D01*
X63292826Y8219710D01*
X63098422Y8250500D01*
X63098417Y8250500D01*
X62901583Y8250500D01*
X62901578Y8250500D01*
X62763588Y8228645D01*
X62694294Y8237600D01*
X62656509Y8263437D01*
X62099319Y8820627D01*
X62065834Y8881950D01*
X62063000Y8908308D01*
X62063000Y9276232D01*
X62082685Y9343271D01*
X62114115Y9376550D01*
X62121904Y9382209D01*
X62227146Y9458672D01*
X62366328Y9597854D01*
X62482024Y9757095D01*
X62571384Y9932475D01*
X62632209Y10119674D01*
X62649301Y10227589D01*
X62663000Y10314078D01*
X62663000Y10510923D01*
X62632209Y10705327D01*
X62571382Y10892530D01*
X62482023Y11067906D01*
X62479449Y11071449D01*
X62366328Y11227146D01*
X62227146Y11366328D01*
X62067905Y11482024D01*
X61892529Y11571383D01*
X61705326Y11632210D01*
X61510922Y11663000D01*
X61510917Y11663000D01*
X61314083Y11663000D01*
X61314078Y11663000D01*
X61119673Y11632210D01*
X60932470Y11571383D01*
X60757094Y11482024D01*
X60666241Y11416015D01*
X60597854Y11366328D01*
X60597852Y11366326D01*
X60597851Y11366326D01*
X60458674Y11227149D01*
X60458674Y11227148D01*
X60458672Y11227146D01*
X60411340Y11162000D01*
X60342976Y11067906D01*
X60253617Y10892530D01*
X60192790Y10705327D01*
X60162000Y10510923D01*
X21234023Y10510923D01*
X19234023Y12510923D01*
X47162000Y12510923D01*
X47162000Y12314078D01*
X47192790Y12119674D01*
X47253617Y11932471D01*
X47300164Y11841118D01*
X47342976Y11757095D01*
X47458672Y11597854D01*
X47597854Y11458672D01*
X47757095Y11342976D01*
X47839955Y11300757D01*
X47932470Y11253618D01*
X47932472Y11253618D01*
X47932475Y11253616D01*
X48013932Y11227149D01*
X48119673Y11192791D01*
X48314078Y11162000D01*
X48314083Y11162000D01*
X48510922Y11162000D01*
X48705326Y11192791D01*
X48892525Y11253616D01*
X49067905Y11342976D01*
X49227146Y11458672D01*
X49366328Y11597854D01*
X49448450Y11710886D01*
X49503780Y11753551D01*
X49548768Y11762000D01*
X56427304Y11762000D01*
X56494343Y11742315D01*
X56527621Y11710887D01*
X56527622Y11710885D01*
X56546172Y11685354D01*
X56685354Y11546172D01*
X56844595Y11430476D01*
X56927455Y11388257D01*
X57019970Y11341118D01*
X57019972Y11341118D01*
X57019975Y11341116D01*
X57120317Y11308513D01*
X57207173Y11280291D01*
X57401578Y11249500D01*
X57401583Y11249500D01*
X57598422Y11249500D01*
X57792826Y11280291D01*
X57980025Y11341116D01*
X57983676Y11342976D01*
X57986463Y11344397D01*
X58155405Y11430476D01*
X58314646Y11546172D01*
X58453828Y11685354D01*
X58569524Y11844595D01*
X58658884Y12019975D01*
X58719709Y12207174D01*
X58722177Y12222756D01*
X58750500Y12401578D01*
X58750500Y12598423D01*
X58719709Y12792827D01*
X58684373Y12901578D01*
X58658884Y12980025D01*
X58658882Y12980028D01*
X58658882Y12980030D01*
X58606576Y13082685D01*
X58569524Y13155405D01*
X58453828Y13314646D01*
X58314646Y13453828D01*
X58155405Y13569524D01*
X57980029Y13658883D01*
X57792826Y13719710D01*
X57598422Y13750500D01*
X57598417Y13750500D01*
X57401583Y13750500D01*
X57401578Y13750500D01*
X57207173Y13719710D01*
X57019970Y13658883D01*
X56844594Y13569524D01*
X56753741Y13503515D01*
X56685354Y13453828D01*
X56685352Y13453826D01*
X56685351Y13453826D01*
X56546174Y13314649D01*
X56546174Y13314648D01*
X56546172Y13314646D01*
X56530319Y13292826D01*
X56430478Y13155410D01*
X56430477Y13155408D01*
X56426323Y13147255D01*
X56417890Y13130705D01*
X56369919Y13079910D01*
X56307407Y13063000D01*
X49548768Y13063000D01*
X49481729Y13082685D01*
X49448450Y13114115D01*
X49418447Y13155410D01*
X49366328Y13227146D01*
X49227146Y13366328D01*
X49067905Y13482024D01*
X48892529Y13571383D01*
X48705326Y13632210D01*
X48510922Y13663000D01*
X48510917Y13663000D01*
X48314083Y13663000D01*
X48314078Y13663000D01*
X48119673Y13632210D01*
X47932470Y13571383D01*
X47757094Y13482024D01*
X47666241Y13416015D01*
X47597854Y13366328D01*
X47597852Y13366326D01*
X47597851Y13366326D01*
X47458674Y13227149D01*
X47458674Y13227148D01*
X47458672Y13227146D01*
X47415411Y13167602D01*
X47342976Y13067906D01*
X47253617Y12892530D01*
X47192790Y12705327D01*
X47162000Y12510923D01*
X19234023Y12510923D01*
X19099319Y12645627D01*
X19065834Y12706950D01*
X19063000Y12733308D01*
X19063000Y14510923D01*
X38162000Y14510923D01*
X38162000Y14314078D01*
X38192790Y14119674D01*
X38253617Y13932471D01*
X38313651Y13814649D01*
X38342976Y13757095D01*
X38458672Y13597854D01*
X38597854Y13458672D01*
X38757095Y13342976D01*
X38812696Y13314646D01*
X38932470Y13253618D01*
X38932472Y13253618D01*
X38932475Y13253616D01*
X39013932Y13227149D01*
X39119673Y13192791D01*
X39314078Y13162000D01*
X39314083Y13162000D01*
X39510922Y13162000D01*
X39705326Y13192791D01*
X39892525Y13253616D01*
X40067905Y13342976D01*
X40227146Y13458672D01*
X40366328Y13597854D01*
X40448450Y13710886D01*
X40503780Y13753551D01*
X40548768Y13762000D01*
X41276232Y13762000D01*
X41343271Y13742315D01*
X41376549Y13710886D01*
X41458672Y13597854D01*
X41597854Y13458672D01*
X41757095Y13342976D01*
X41812696Y13314646D01*
X41932470Y13253618D01*
X41932472Y13253618D01*
X41932475Y13253616D01*
X42013932Y13227149D01*
X42119673Y13192791D01*
X42314078Y13162000D01*
X42314083Y13162000D01*
X42510922Y13162000D01*
X42705326Y13192791D01*
X42892525Y13253616D01*
X43067905Y13342976D01*
X43227146Y13458672D01*
X43366328Y13597854D01*
X43482024Y13757095D01*
X43571384Y13932475D01*
X43632209Y14119674D01*
X43652930Y14250500D01*
X43663000Y14314078D01*
X43663000Y14510923D01*
X43632209Y14705327D01*
X43571382Y14892530D01*
X43496709Y15039083D01*
X43482024Y15067905D01*
X43366328Y15227146D01*
X43227146Y15366328D01*
X43067905Y15482024D01*
X42892529Y15571383D01*
X42705326Y15632210D01*
X42510922Y15663000D01*
X42510917Y15663000D01*
X42314083Y15663000D01*
X42314078Y15663000D01*
X42119673Y15632210D01*
X41932470Y15571383D01*
X41757094Y15482024D01*
X41666241Y15416015D01*
X41597854Y15366328D01*
X41597852Y15366326D01*
X41597851Y15366326D01*
X41458674Y15227149D01*
X41458669Y15227143D01*
X41376550Y15114115D01*
X41321220Y15071449D01*
X41276232Y15063000D01*
X40548768Y15063000D01*
X40481729Y15082685D01*
X40448450Y15114115D01*
X40366330Y15227143D01*
X40366325Y15227149D01*
X40227148Y15366326D01*
X40227146Y15366328D01*
X40067905Y15482024D01*
X39892529Y15571383D01*
X39705326Y15632210D01*
X39510922Y15663000D01*
X39510917Y15663000D01*
X39314083Y15663000D01*
X39314078Y15663000D01*
X39119673Y15632210D01*
X38932470Y15571383D01*
X38757094Y15482024D01*
X38666241Y15416015D01*
X38597854Y15366328D01*
X38597852Y15366326D01*
X38597851Y15366326D01*
X38458674Y15227149D01*
X38458674Y15227148D01*
X38458672Y15227146D01*
X38458670Y15227143D01*
X38342976Y15067906D01*
X38253617Y14892530D01*
X38192790Y14705327D01*
X38162000Y14510923D01*
X19063000Y14510923D01*
X19063000Y16080683D01*
X19082685Y16147722D01*
X19114115Y16181001D01*
X19227146Y16263123D01*
X19366328Y16402305D01*
X19482024Y16561546D01*
X19571384Y16736926D01*
X19632209Y16924125D01*
X19637492Y16957483D01*
X19663000Y17118529D01*
X19663000Y17315374D01*
X19632209Y17509778D01*
X19603987Y17596634D01*
X19571384Y17696976D01*
X19571382Y17696979D01*
X19571382Y17696981D01*
X19524243Y17789496D01*
X19482024Y17872356D01*
X19366328Y18031597D01*
X19227146Y18170779D01*
X19067905Y18286475D01*
X18892529Y18375834D01*
X18705326Y18436661D01*
X18510922Y18467451D01*
X18510917Y18467451D01*
X18314083Y18467451D01*
X18314078Y18467451D01*
X18119673Y18436661D01*
X17932470Y18375834D01*
X17757094Y18286475D01*
X17688999Y18237000D01*
X17597854Y18170779D01*
X17597852Y18170777D01*
X17597851Y18170777D01*
X17458674Y18031600D01*
X17458674Y18031599D01*
X17458672Y18031597D01*
X17451542Y18021783D01*
X17342976Y17872357D01*
X17253617Y17696981D01*
X17192790Y17509778D01*
X17162000Y17315374D01*
X500500Y17315374D01*
X500500Y18646287D01*
X31109500Y18646287D01*
X31109500Y18433714D01*
X31142735Y18223873D01*
X31142754Y18223757D01*
X31205190Y18031599D01*
X31208444Y18021586D01*
X31304951Y17832180D01*
X31429890Y17660214D01*
X31543430Y17546674D01*
X31576915Y17485351D01*
X31571931Y17415659D01*
X31530059Y17359726D01*
X31499083Y17342811D01*
X31367669Y17293797D01*
X31367664Y17293794D01*
X31252455Y17207548D01*
X31252452Y17207545D01*
X31166206Y17092336D01*
X31166202Y17092329D01*
X31115908Y16957483D01*
X31109501Y16897884D01*
X31109500Y16897865D01*
X31109500Y15102130D01*
X31109501Y15102124D01*
X31115908Y15042517D01*
X31166202Y14907672D01*
X31166206Y14907665D01*
X31252452Y14792456D01*
X31252455Y14792453D01*
X31367664Y14706207D01*
X31367671Y14706203D01*
X31502517Y14655909D01*
X31502516Y14655909D01*
X31509444Y14655165D01*
X31562127Y14649500D01*
X33357872Y14649501D01*
X33417483Y14655909D01*
X33552331Y14706204D01*
X33667546Y14792454D01*
X33753796Y14907669D01*
X33802810Y15039084D01*
X33844681Y15095016D01*
X33910145Y15119434D01*
X33978418Y15104583D01*
X34006673Y15083431D01*
X34120213Y14969891D01*
X34292179Y14844952D01*
X34292181Y14844951D01*
X34292184Y14844949D01*
X34481588Y14748443D01*
X34683757Y14682754D01*
X34893713Y14649500D01*
X34893714Y14649500D01*
X35106286Y14649500D01*
X35106287Y14649500D01*
X35316243Y14682754D01*
X35518412Y14748443D01*
X35707816Y14844949D01*
X35794138Y14907665D01*
X35879786Y14969891D01*
X35879788Y14969894D01*
X35879792Y14969896D01*
X36030104Y15120208D01*
X36030106Y15120212D01*
X36030109Y15120214D01*
X36155048Y15292180D01*
X36155047Y15292180D01*
X36155051Y15292184D01*
X36251557Y15481588D01*
X36317246Y15683757D01*
X36350500Y15893713D01*
X36350500Y16106287D01*
X36317246Y16316243D01*
X36251557Y16518412D01*
X36155051Y16707816D01*
X36155049Y16707819D01*
X36155048Y16707821D01*
X36030109Y16879787D01*
X35879786Y17030110D01*
X35707817Y17155051D01*
X35698504Y17159796D01*
X35647707Y17207770D01*
X35630912Y17275591D01*
X35653449Y17341726D01*
X35698507Y17380768D01*
X35707555Y17385378D01*
X35761716Y17424730D01*
X35761717Y17424730D01*
X35129408Y18057038D01*
X35192993Y18074075D01*
X35307007Y18139901D01*
X35400099Y18232993D01*
X35465925Y18347007D01*
X35482962Y18410592D01*
X36115270Y17778283D01*
X36115270Y17778284D01*
X36154622Y17832446D01*
X36251095Y18021783D01*
X36316757Y18223870D01*
X36316757Y18223873D01*
X36350000Y18433754D01*
X36350000Y18646247D01*
X36316757Y18856128D01*
X36316757Y18856131D01*
X36251095Y19058218D01*
X36154624Y19247551D01*
X36115270Y19301718D01*
X36115269Y19301718D01*
X35482962Y18669410D01*
X35465925Y18732993D01*
X35400099Y18847007D01*
X35307007Y18940099D01*
X35192993Y19005925D01*
X35129409Y19022963D01*
X35761716Y19655272D01*
X35707550Y19694625D01*
X35518217Y19791096D01*
X35316129Y19856758D01*
X35106246Y19890000D01*
X34893754Y19890000D01*
X34683872Y19856758D01*
X34683869Y19856758D01*
X34481782Y19791096D01*
X34292439Y19694620D01*
X34238282Y19655273D01*
X34238282Y19655272D01*
X34870591Y19022963D01*
X34807007Y19005925D01*
X34692993Y18940099D01*
X34599901Y18847007D01*
X34534075Y18732993D01*
X34517037Y18669409D01*
X33884728Y19301718D01*
X33884727Y19301718D01*
X33845380Y19247560D01*
X33845376Y19247554D01*
X33840760Y19238495D01*
X33792781Y19187703D01*
X33724959Y19170913D01*
X33658826Y19193457D01*
X33619794Y19238507D01*
X33615051Y19247816D01*
X33615049Y19247819D01*
X33615048Y19247821D01*
X33490109Y19419787D01*
X33339786Y19570110D01*
X33167820Y19695049D01*
X32978414Y19791556D01*
X32978413Y19791557D01*
X32978412Y19791557D01*
X32776243Y19857246D01*
X32776241Y19857247D01*
X32776240Y19857247D01*
X32614957Y19882792D01*
X32566287Y19890500D01*
X32353713Y19890500D01*
X32305042Y19882792D01*
X32143760Y19857247D01*
X31941585Y19791556D01*
X31752179Y19695049D01*
X31580213Y19570110D01*
X31429890Y19419787D01*
X31304951Y19247821D01*
X31208444Y19058415D01*
X31142753Y18856240D01*
X31109500Y18646287D01*
X500500Y18646287D01*
X500500Y26106287D01*
X31109500Y26106287D01*
X31109500Y25893714D01*
X31142753Y25683761D01*
X31208444Y25481586D01*
X31304951Y25292180D01*
X31429890Y25120214D01*
X31580213Y24969891D01*
X31752179Y24844952D01*
X31752181Y24844951D01*
X31752184Y24844949D01*
X31941588Y24748443D01*
X32143757Y24682754D01*
X32353713Y24649500D01*
X32353714Y24649500D01*
X32566286Y24649500D01*
X32566287Y24649500D01*
X32776243Y24682754D01*
X32978412Y24748443D01*
X33167816Y24844949D01*
X33189789Y24860914D01*
X33339786Y24969891D01*
X33339788Y24969894D01*
X33339792Y24969896D01*
X33490104Y25120208D01*
X33490106Y25120212D01*
X33490109Y25120214D01*
X33615048Y25292180D01*
X33615047Y25292180D01*
X33615051Y25292184D01*
X33619514Y25300946D01*
X33667488Y25351741D01*
X33735308Y25368537D01*
X33801444Y25346001D01*
X33840486Y25300944D01*
X33844951Y25292180D01*
X33969890Y25120214D01*
X34120213Y24969891D01*
X34292179Y24844952D01*
X34292181Y24844951D01*
X34292184Y24844949D01*
X34481588Y24748443D01*
X34683757Y24682754D01*
X34893713Y24649500D01*
X34893714Y24649500D01*
X35106286Y24649500D01*
X35106287Y24649500D01*
X35316243Y24682754D01*
X35518412Y24748443D01*
X35707816Y24844949D01*
X35729789Y24860914D01*
X35879786Y24969891D01*
X35879788Y24969894D01*
X35879792Y24969896D01*
X36030104Y25120208D01*
X36030106Y25120212D01*
X36030109Y25120214D01*
X36155048Y25292180D01*
X36155047Y25292180D01*
X36155051Y25292184D01*
X36251557Y25481588D01*
X36317246Y25683757D01*
X36350500Y25893713D01*
X36350500Y26106287D01*
X36317246Y26316243D01*
X36251557Y26518412D01*
X36155051Y26707816D01*
X36155049Y26707819D01*
X36155048Y26707821D01*
X36030109Y26879787D01*
X35879786Y27030110D01*
X35707820Y27155049D01*
X35707115Y27155409D01*
X35699054Y27159515D01*
X35648259Y27207488D01*
X35631463Y27275308D01*
X35653999Y27341444D01*
X35699054Y27380485D01*
X35707816Y27384949D01*
X35794471Y27447907D01*
X35879786Y27509891D01*
X35879788Y27509894D01*
X35879792Y27509896D01*
X36030104Y27660208D01*
X36030106Y27660212D01*
X36030109Y27660214D01*
X36155048Y27832180D01*
X36155047Y27832180D01*
X36155051Y27832184D01*
X36251557Y28021588D01*
X36317246Y28223757D01*
X36350500Y28433713D01*
X36350500Y28646287D01*
X36317246Y28856243D01*
X36251557Y29058412D01*
X36155051Y29247816D01*
X36155049Y29247819D01*
X36155048Y29247821D01*
X36030109Y29419787D01*
X35879786Y29570110D01*
X35707820Y29695049D01*
X35518414Y29791556D01*
X35518413Y29791557D01*
X35518412Y29791557D01*
X35316243Y29857246D01*
X35316241Y29857247D01*
X35316240Y29857247D01*
X35154957Y29882792D01*
X35106287Y29890500D01*
X34893713Y29890500D01*
X34845042Y29882792D01*
X34683760Y29857247D01*
X34481585Y29791556D01*
X34292179Y29695049D01*
X34120215Y29570111D01*
X34006285Y29456181D01*
X33944962Y29422697D01*
X33875270Y29427681D01*
X33819337Y29469553D01*
X33802422Y29500530D01*
X33753354Y29632087D01*
X33753350Y29632094D01*
X33667190Y29747188D01*
X33667187Y29747191D01*
X33552093Y29833351D01*
X33552086Y29833355D01*
X33417379Y29883597D01*
X33417372Y29883599D01*
X33357844Y29890000D01*
X32710000Y29890000D01*
X32710000Y28973012D01*
X32652993Y29005925D01*
X32525826Y29040000D01*
X32394174Y29040000D01*
X32267007Y29005925D01*
X32210000Y28973012D01*
X32210000Y29890000D01*
X31562155Y29890000D01*
X31502627Y29883599D01*
X31502620Y29883597D01*
X31367913Y29833355D01*
X31367906Y29833351D01*
X31252812Y29747191D01*
X31252809Y29747188D01*
X31166649Y29632094D01*
X31166645Y29632087D01*
X31116403Y29497380D01*
X31116401Y29497373D01*
X31110000Y29437845D01*
X31110000Y28790000D01*
X32026988Y28790000D01*
X31994075Y28732993D01*
X31960000Y28605826D01*
X31960000Y28474174D01*
X31994075Y28347007D01*
X32026988Y28290000D01*
X31110000Y28290000D01*
X31110000Y27642156D01*
X31116401Y27582628D01*
X31116403Y27582621D01*
X31166645Y27447914D01*
X31166649Y27447907D01*
X31252809Y27332813D01*
X31252812Y27332810D01*
X31367906Y27246650D01*
X31367913Y27246646D01*
X31499470Y27197578D01*
X31555404Y27155707D01*
X31579821Y27090242D01*
X31564969Y27021969D01*
X31543819Y26993715D01*
X31429889Y26879785D01*
X31304951Y26707821D01*
X31208444Y26518415D01*
X31142753Y26316240D01*
X31109500Y26106287D01*
X500500Y26106287D01*
X500500Y33010923D01*
X35662000Y33010923D01*
X35662000Y32814078D01*
X35692790Y32619674D01*
X35753617Y32432471D01*
X35813939Y32314083D01*
X35842976Y32257095D01*
X35958672Y32097854D01*
X36097854Y31958672D01*
X36257095Y31842976D01*
X36311197Y31815410D01*
X36432470Y31753618D01*
X36432472Y31753618D01*
X36432475Y31753616D01*
X36532817Y31721013D01*
X36619673Y31692791D01*
X36814078Y31662000D01*
X36814083Y31662000D01*
X37010921Y31662000D01*
X37103384Y31676646D01*
X37148911Y31683856D01*
X37218204Y31674902D01*
X37255990Y31649064D01*
X40252458Y28652596D01*
X40285943Y28591273D01*
X40280959Y28521581D01*
X40239087Y28465648D01*
X40173623Y28441231D01*
X40105350Y28456083D01*
X40091891Y28464597D01*
X40090444Y28465648D01*
X40067905Y28482024D01*
X39990270Y28521581D01*
X39892529Y28571383D01*
X39705326Y28632210D01*
X39510922Y28663000D01*
X39510917Y28663000D01*
X39314083Y28663000D01*
X39314078Y28663000D01*
X39119673Y28632210D01*
X38932470Y28571383D01*
X38757094Y28482024D01*
X38690602Y28433714D01*
X38597854Y28366328D01*
X38597852Y28366326D01*
X38597851Y28366326D01*
X38458674Y28227149D01*
X38458674Y28227148D01*
X38458672Y28227146D01*
X38446490Y28210379D01*
X38342976Y28067906D01*
X38253617Y27892530D01*
X38192790Y27705327D01*
X38162000Y27510923D01*
X38162000Y27314078D01*
X38192790Y27119674D01*
X38253617Y26932471D01*
X38323064Y26796175D01*
X38342976Y26757095D01*
X38458672Y26597854D01*
X38597854Y26458672D01*
X38597857Y26458670D01*
X38710885Y26376550D01*
X38753551Y26321220D01*
X38762000Y26276232D01*
X38762000Y21548769D01*
X38742315Y21481730D01*
X38710886Y21448451D01*
X38597852Y21366327D01*
X38458674Y21227149D01*
X38458674Y21227148D01*
X38458672Y21227146D01*
X38408985Y21158759D01*
X38342976Y21067906D01*
X38253617Y20892530D01*
X38192790Y20705327D01*
X38162000Y20510923D01*
X38162000Y20314078D01*
X38192790Y20119674D01*
X38253617Y19932471D01*
X38340477Y19762000D01*
X38342976Y19757095D01*
X38458672Y19597854D01*
X38597854Y19458672D01*
X38757095Y19342976D01*
X38838069Y19301718D01*
X38932470Y19253618D01*
X38932472Y19253618D01*
X38932475Y19253616D01*
X39032817Y19221013D01*
X39119673Y19192791D01*
X39314078Y19162000D01*
X39314083Y19162000D01*
X39510922Y19162000D01*
X39705326Y19192791D01*
X39765103Y19212214D01*
X39892525Y19253616D01*
X40067905Y19342976D01*
X40227146Y19458672D01*
X40366328Y19597854D01*
X40482024Y19757095D01*
X40571384Y19932475D01*
X40632209Y20119674D01*
X40635889Y20142906D01*
X40663000Y20314078D01*
X40663000Y20510923D01*
X40632209Y20705327D01*
X40571382Y20892530D01*
X40522245Y20988966D01*
X40482024Y21067905D01*
X40366328Y21227146D01*
X40227146Y21366328D01*
X40114113Y21448452D01*
X40071449Y21503782D01*
X40063000Y21548769D01*
X40063000Y26276232D01*
X40082685Y26343271D01*
X40114115Y26376550D01*
X40227146Y26458672D01*
X40366328Y26597854D01*
X40482024Y26757095D01*
X40571384Y26932475D01*
X40632209Y27119674D01*
X40644702Y27198553D01*
X40663000Y27314078D01*
X40663000Y27510923D01*
X40632209Y27705327D01*
X40590990Y27832184D01*
X40571384Y27892525D01*
X40571382Y27892528D01*
X40571382Y27892530D01*
X40517728Y27997831D01*
X40482024Y28067905D01*
X40482022Y28067908D01*
X40482021Y28067910D01*
X40464597Y28091892D01*
X40441116Y28157698D01*
X40456941Y28225752D01*
X40507046Y28274447D01*
X40575524Y28288323D01*
X40640633Y28262975D01*
X40652595Y28252459D01*
X41548905Y27356149D01*
X41579154Y27306788D01*
X41591115Y27269975D01*
X41667698Y27119674D01*
X41680476Y27094595D01*
X41796172Y26935354D01*
X41935354Y26796172D01*
X42094595Y26680476D01*
X42157827Y26648258D01*
X42269970Y26591118D01*
X42269972Y26591118D01*
X42269975Y26591116D01*
X42370317Y26558513D01*
X42457173Y26530291D01*
X42651578Y26499500D01*
X42651583Y26499500D01*
X42848422Y26499500D01*
X43042826Y26530291D01*
X43230025Y26591116D01*
X43405405Y26680476D01*
X43564646Y26796172D01*
X43703828Y26935354D01*
X43819524Y27094595D01*
X43908884Y27269975D01*
X43969709Y27457174D01*
X44000500Y27651578D01*
X44000500Y27848423D01*
X43969709Y28042827D01*
X43911245Y28222758D01*
X43908884Y28230025D01*
X43908882Y28230028D01*
X43908882Y28230030D01*
X43861743Y28322545D01*
X43819524Y28405405D01*
X43703828Y28564646D01*
X43564646Y28703828D01*
X43405405Y28819524D01*
X43398147Y28823222D01*
X43230029Y28908883D01*
X43042826Y28969710D01*
X42848422Y29000500D01*
X42848417Y29000500D01*
X42651583Y29000500D01*
X42651578Y29000500D01*
X42457173Y28969710D01*
X42269970Y28908883D01*
X42094593Y28819523D01*
X42094585Y28819518D01*
X42082289Y28810584D01*
X42016482Y28787105D01*
X41948428Y28802931D01*
X41921724Y28823222D01*
X38175936Y32569010D01*
X38142451Y32630333D01*
X38141144Y32676090D01*
X38163000Y32814079D01*
X38163000Y33010923D01*
X38132209Y33205327D01*
X38096873Y33314078D01*
X38071384Y33392525D01*
X38071382Y33392528D01*
X38071382Y33392530D01*
X38024243Y33485045D01*
X37982024Y33567905D01*
X37866328Y33727146D01*
X37727146Y33866328D01*
X37567905Y33982024D01*
X37555615Y33988286D01*
X37392529Y34071383D01*
X37205326Y34132210D01*
X37010922Y34163000D01*
X37010917Y34163000D01*
X36814083Y34163000D01*
X36814078Y34163000D01*
X36619673Y34132210D01*
X36432470Y34071383D01*
X36257094Y33982024D01*
X36182501Y33927828D01*
X36097854Y33866328D01*
X36097852Y33866326D01*
X36097851Y33866326D01*
X35958674Y33727149D01*
X35958674Y33727148D01*
X35958672Y33727146D01*
X35952177Y33718206D01*
X35842976Y33567906D01*
X35753617Y33392530D01*
X35692790Y33205327D01*
X35662000Y33010923D01*
X500500Y33010923D01*
X500500Y40510923D01*
X4162000Y40510923D01*
X4162000Y40314078D01*
X4192790Y40119674D01*
X4253617Y39932471D01*
X4294541Y39852154D01*
X4342976Y39757095D01*
X4458672Y39597854D01*
X4597854Y39458672D01*
X4606811Y39452164D01*
X4710885Y39376550D01*
X4753551Y39321220D01*
X4762000Y39276232D01*
X4762000Y35548769D01*
X4742315Y35481730D01*
X4710886Y35448451D01*
X4597852Y35366327D01*
X4458674Y35227149D01*
X4458674Y35227148D01*
X4458672Y35227146D01*
X4408985Y35158759D01*
X4342976Y35067906D01*
X4253617Y34892530D01*
X4192790Y34705327D01*
X4162000Y34510923D01*
X4162000Y34314078D01*
X4192790Y34119674D01*
X4253617Y33932471D01*
X4273971Y33892525D01*
X4342976Y33757095D01*
X4458672Y33597854D01*
X4597854Y33458672D01*
X4757095Y33342976D01*
X4813801Y33314083D01*
X4932470Y33253618D01*
X4932472Y33253618D01*
X4932475Y33253616D01*
X5023020Y33224196D01*
X5119673Y33192791D01*
X5314078Y33162000D01*
X5314083Y33162000D01*
X5510922Y33162000D01*
X5705326Y33192791D01*
X5892525Y33253616D01*
X6067905Y33342976D01*
X6227146Y33458672D01*
X6366328Y33597854D01*
X6482024Y33757095D01*
X6571384Y33932475D01*
X6632209Y34119674D01*
X6634194Y34132209D01*
X6663000Y34314078D01*
X6663000Y34510923D01*
X6632209Y34705327D01*
X6592620Y34827168D01*
X6571384Y34892525D01*
X6571382Y34892528D01*
X6571382Y34892530D01*
X6482023Y35067906D01*
X6481221Y35069010D01*
X6366328Y35227146D01*
X6227146Y35366328D01*
X6114113Y35448452D01*
X6071448Y35503782D01*
X6070107Y35510923D01*
X23162000Y35510923D01*
X23162000Y35314078D01*
X23192790Y35119674D01*
X23253617Y34932471D01*
X23307272Y34827168D01*
X23342976Y34757095D01*
X23458672Y34597854D01*
X23597854Y34458672D01*
X23757095Y34342976D01*
X23813801Y34314083D01*
X23932470Y34253618D01*
X23932472Y34253618D01*
X23932475Y34253616D01*
X24013932Y34227149D01*
X24119673Y34192791D01*
X24314078Y34162000D01*
X24314083Y34162000D01*
X24510922Y34162000D01*
X24705326Y34192791D01*
X24710564Y34194493D01*
X24892525Y34253616D01*
X25067905Y34342976D01*
X25227146Y34458672D01*
X25366328Y34597854D01*
X25482024Y34757095D01*
X25571384Y34932475D01*
X25632209Y35119674D01*
X25638395Y35158731D01*
X25663000Y35314078D01*
X25663000Y35510923D01*
X25641144Y35648914D01*
X25650098Y35718207D01*
X25675933Y35755990D01*
X26645626Y36725681D01*
X26706949Y36759166D01*
X26733307Y36762000D01*
X31276232Y36762000D01*
X31343271Y36742315D01*
X31376549Y36710886D01*
X31458672Y36597854D01*
X31597854Y36458672D01*
X31757095Y36342976D01*
X31813801Y36314083D01*
X31932470Y36253618D01*
X31932472Y36253618D01*
X31932475Y36253616D01*
X32008780Y36228823D01*
X32119673Y36192791D01*
X32314078Y36162000D01*
X32314083Y36162000D01*
X32510922Y36162000D01*
X32705326Y36192791D01*
X32723121Y36198573D01*
X32892525Y36253616D01*
X33067905Y36342976D01*
X33227146Y36458672D01*
X33366328Y36597854D01*
X33482024Y36757095D01*
X33571384Y36932475D01*
X33632209Y37119674D01*
X33649231Y37227148D01*
X33663000Y37314078D01*
X33663000Y37510923D01*
X33632209Y37705327D01*
X33586050Y37847387D01*
X33571384Y37892525D01*
X33571382Y37892528D01*
X33571382Y37892530D01*
X33522245Y37988967D01*
X33482024Y38067905D01*
X33366328Y38227146D01*
X33227146Y38366328D01*
X33067905Y38482024D01*
X32892529Y38571383D01*
X32705326Y38632210D01*
X32510922Y38663000D01*
X32510917Y38663000D01*
X32314083Y38663000D01*
X32314078Y38663000D01*
X32119673Y38632210D01*
X31932470Y38571383D01*
X31757094Y38482024D01*
X31666241Y38416015D01*
X31597854Y38366328D01*
X31597852Y38366326D01*
X31597851Y38366326D01*
X31458674Y38227149D01*
X31458669Y38227143D01*
X31376550Y38114115D01*
X31321220Y38071449D01*
X31276232Y38063000D01*
X26348429Y38063000D01*
X26222761Y38038003D01*
X26222755Y38038001D01*
X26104375Y37988967D01*
X26104366Y37988962D01*
X25997831Y37917777D01*
X25997827Y37917774D01*
X24755990Y36675937D01*
X24694667Y36642452D01*
X24648911Y36641145D01*
X24510922Y36663000D01*
X24510917Y36663000D01*
X24314083Y36663000D01*
X24314078Y36663000D01*
X24119673Y36632210D01*
X23932470Y36571383D01*
X23757094Y36482024D01*
X23666241Y36416015D01*
X23597854Y36366328D01*
X23597852Y36366326D01*
X23597851Y36366326D01*
X23458674Y36227149D01*
X23458674Y36227148D01*
X23458672Y36227146D01*
X23433711Y36192790D01*
X23342976Y36067906D01*
X23253617Y35892530D01*
X23192790Y35705327D01*
X23162000Y35510923D01*
X6070107Y35510923D01*
X6063000Y35548769D01*
X6063000Y39276232D01*
X6082685Y39343271D01*
X6114115Y39376550D01*
X6227146Y39458672D01*
X6366328Y39597854D01*
X6482024Y39757095D01*
X6571384Y39932475D01*
X6632209Y40119674D01*
X6633897Y40130333D01*
X6663000Y40314078D01*
X6663000Y40510923D01*
X6632209Y40705327D01*
X6590318Y40834253D01*
X6571384Y40892525D01*
X6571382Y40892528D01*
X6571382Y40892530D01*
X6517439Y40998399D01*
X6482024Y41067905D01*
X6366328Y41227146D01*
X6227146Y41366328D01*
X6067905Y41482024D01*
X5892529Y41571383D01*
X5705326Y41632210D01*
X5510922Y41663000D01*
X5510917Y41663000D01*
X5314083Y41663000D01*
X5314078Y41663000D01*
X5119673Y41632210D01*
X4932470Y41571383D01*
X4757094Y41482024D01*
X4666241Y41416015D01*
X4597854Y41366328D01*
X4597852Y41366326D01*
X4597851Y41366326D01*
X4458674Y41227149D01*
X4458674Y41227148D01*
X4458672Y41227146D01*
X4427220Y41183856D01*
X4342976Y41067906D01*
X4253617Y40892530D01*
X4192790Y40705327D01*
X4162000Y40510923D01*
X500500Y40510923D01*
X500500Y42510923D01*
X25162000Y42510923D01*
X25162000Y42314078D01*
X25192790Y42119674D01*
X25253617Y41932471D01*
X25340477Y41762000D01*
X25342976Y41757095D01*
X25458672Y41597854D01*
X25597854Y41458672D01*
X25757095Y41342976D01*
X25839955Y41300757D01*
X25932470Y41253618D01*
X25932472Y41253618D01*
X25932475Y41253616D01*
X26013932Y41227149D01*
X26119673Y41192791D01*
X26314078Y41162000D01*
X26314083Y41162000D01*
X26510922Y41162000D01*
X26705326Y41192791D01*
X26710564Y41194493D01*
X26892525Y41253616D01*
X27067905Y41342976D01*
X27227146Y41458672D01*
X27366328Y41597854D01*
X27448450Y41710886D01*
X27503780Y41753551D01*
X27548768Y41762000D01*
X29790082Y41762000D01*
X29857121Y41742315D01*
X29902876Y41689511D01*
X29912820Y41620353D01*
X29883795Y41556797D01*
X29846377Y41527515D01*
X29757094Y41482024D01*
X29666241Y41416015D01*
X29597854Y41366328D01*
X29597852Y41366326D01*
X29597851Y41366326D01*
X29458674Y41227149D01*
X29458674Y41227148D01*
X29458672Y41227146D01*
X29427220Y41183856D01*
X29342976Y41067906D01*
X29253617Y40892530D01*
X29192790Y40705327D01*
X29162000Y40510923D01*
X29162000Y40314078D01*
X29192790Y40119674D01*
X29253617Y39932471D01*
X29294541Y39852154D01*
X29342976Y39757095D01*
X29458672Y39597854D01*
X29597854Y39458672D01*
X29757095Y39342976D01*
X29799794Y39321220D01*
X29932470Y39253618D01*
X29932472Y39253618D01*
X29932475Y39253616D01*
X30032817Y39221013D01*
X30119673Y39192791D01*
X30314078Y39162000D01*
X30314083Y39162000D01*
X30510922Y39162000D01*
X30705326Y39192791D01*
X30710564Y39194493D01*
X30892525Y39253616D01*
X31067905Y39342976D01*
X31227146Y39458672D01*
X31366328Y39597854D01*
X31448450Y39710886D01*
X31503780Y39753551D01*
X31548768Y39762000D01*
X44719452Y39762000D01*
X44786491Y39742315D01*
X44807133Y39725681D01*
X47226681Y37306133D01*
X47260166Y37244810D01*
X47263000Y37218452D01*
X47263000Y35682439D01*
X47243315Y35615400D01*
X47190511Y35569645D01*
X47121353Y35559701D01*
X47057797Y35588726D01*
X47024439Y35634986D01*
X46995302Y35705327D01*
X46988965Y35720627D01*
X46988963Y35720630D01*
X46988961Y35720634D01*
X46917777Y35827168D01*
X46917770Y35827175D01*
X46827169Y35917776D01*
X46827168Y35917777D01*
X45675936Y37069009D01*
X45642451Y37130332D01*
X45641144Y37176088D01*
X45663000Y37314078D01*
X45663000Y37510923D01*
X45632209Y37705327D01*
X45586050Y37847387D01*
X45571384Y37892525D01*
X45571382Y37892528D01*
X45571382Y37892530D01*
X45522245Y37988967D01*
X45482024Y38067905D01*
X45366328Y38227146D01*
X45227146Y38366328D01*
X45067905Y38482024D01*
X44892529Y38571383D01*
X44705326Y38632210D01*
X44510922Y38663000D01*
X44510917Y38663000D01*
X44314083Y38663000D01*
X44314078Y38663000D01*
X44119673Y38632210D01*
X43932470Y38571383D01*
X43757094Y38482024D01*
X43666241Y38416015D01*
X43597854Y38366328D01*
X43597852Y38366326D01*
X43597851Y38366326D01*
X43458674Y38227149D01*
X43458674Y38227148D01*
X43458672Y38227146D01*
X43408985Y38158759D01*
X43342976Y38067906D01*
X43253617Y37892530D01*
X43192790Y37705327D01*
X43162000Y37510923D01*
X43162000Y37314078D01*
X43192790Y37119674D01*
X43253617Y36932471D01*
X43273971Y36892525D01*
X43342976Y36757095D01*
X43458672Y36597854D01*
X43597854Y36458672D01*
X43757095Y36342976D01*
X43813801Y36314083D01*
X43932470Y36253618D01*
X43932472Y36253618D01*
X43932475Y36253616D01*
X44008780Y36228823D01*
X44119673Y36192791D01*
X44314078Y36162000D01*
X44314083Y36162000D01*
X44510922Y36162000D01*
X44648912Y36183856D01*
X44718205Y36174902D01*
X44755991Y36149064D01*
X45725681Y35179374D01*
X45759166Y35118051D01*
X45762000Y35091693D01*
X45762000Y30841597D01*
X45742315Y30774558D01*
X45689511Y30728803D01*
X45620353Y30718859D01*
X45618603Y30719124D01*
X45574096Y30726173D01*
X45574090Y30726173D01*
X45377256Y30726173D01*
X45377251Y30726173D01*
X45182846Y30695383D01*
X44995643Y30634556D01*
X44820267Y30545197D01*
X44729414Y30479188D01*
X44661027Y30429501D01*
X44661025Y30429499D01*
X44661024Y30429499D01*
X44521847Y30290322D01*
X44521847Y30290321D01*
X44521845Y30290319D01*
X44501794Y30262721D01*
X44406149Y30131079D01*
X44316790Y29955703D01*
X44255963Y29768500D01*
X44225173Y29574096D01*
X44225173Y29377251D01*
X44255963Y29182847D01*
X44316790Y28995644D01*
X44387819Y28856243D01*
X44406149Y28820268D01*
X44521845Y28661027D01*
X44661027Y28521845D01*
X44820268Y28406149D01*
X44898422Y28366328D01*
X44995643Y28316791D01*
X44995645Y28316791D01*
X44995648Y28316789D01*
X45068512Y28293114D01*
X45182846Y28255964D01*
X45281696Y28240308D01*
X45344831Y28210379D01*
X45381763Y28151068D01*
X45386299Y28117835D01*
X45386299Y16421370D01*
X45405900Y16322834D01*
X45405900Y16322833D01*
X45411296Y16295704D01*
X45411297Y16295700D01*
X45411298Y16295697D01*
X45460334Y16177314D01*
X45507792Y16106287D01*
X45531525Y16070768D01*
X46846068Y14756225D01*
X46846071Y14756223D01*
X46920931Y14706204D01*
X46952613Y14685035D01*
X47070996Y14635999D01*
X47071000Y14635999D01*
X47071001Y14635998D01*
X47196668Y14611000D01*
X47196671Y14611000D01*
X62242692Y14611000D01*
X62309731Y14591315D01*
X62330373Y14574681D01*
X68997825Y7907228D01*
X68997832Y7907222D01*
X69084977Y7848994D01*
X69084978Y7848994D01*
X69104373Y7836035D01*
X69222756Y7786999D01*
X69222760Y7786999D01*
X69222761Y7786998D01*
X69348428Y7762000D01*
X69348431Y7762000D01*
X72887821Y7762000D01*
X72954860Y7742315D01*
X73000615Y7689511D01*
X73002382Y7685454D01*
X73003616Y7682474D01*
X73028434Y7633766D01*
X73092976Y7507095D01*
X73208672Y7347854D01*
X73347854Y7208672D01*
X73507095Y7092976D01*
X73589955Y7050757D01*
X73682470Y7003618D01*
X73682472Y7003618D01*
X73682475Y7003616D01*
X73782817Y6971013D01*
X73869673Y6942791D01*
X74064078Y6912000D01*
X74064083Y6912000D01*
X74260922Y6912000D01*
X74455326Y6942791D01*
X74642525Y7003616D01*
X74817905Y7092976D01*
X74977146Y7208672D01*
X75116328Y7347854D01*
X75232024Y7507095D01*
X75321384Y7682475D01*
X75382209Y7869674D01*
X75393087Y7938356D01*
X75413000Y8064078D01*
X75413000Y8260923D01*
X75382209Y8455327D01*
X75321382Y8642530D01*
X75232023Y8817906D01*
X75230046Y8820627D01*
X75116328Y8977146D01*
X74977146Y9116328D01*
X74817905Y9232024D01*
X74642529Y9321383D01*
X74455326Y9382210D01*
X74260922Y9413000D01*
X74260917Y9413000D01*
X74064083Y9413000D01*
X74064078Y9413000D01*
X73869673Y9382210D01*
X73682470Y9321383D01*
X73507094Y9232024D01*
X73416241Y9166015D01*
X73347854Y9116328D01*
X73347852Y9116326D01*
X73347851Y9116326D01*
X73330845Y9099319D01*
X73269522Y9065834D01*
X73243164Y9063000D01*
X69733308Y9063000D01*
X69666269Y9082685D01*
X69645627Y9099319D01*
X62978174Y15766773D01*
X62978173Y15766774D01*
X62978169Y15766777D01*
X62871627Y15837965D01*
X62753244Y15887001D01*
X62753238Y15887003D01*
X62627571Y15912000D01*
X62627569Y15912000D01*
X49060403Y15912000D01*
X48993364Y15931685D01*
X48947609Y15984489D01*
X48937665Y16053647D01*
X48942472Y16074319D01*
X48957209Y16119674D01*
X48988000Y16314078D01*
X48988000Y16510923D01*
X48957209Y16705327D01*
X48899451Y16883085D01*
X48896384Y16892525D01*
X48896382Y16892528D01*
X48896382Y16892530D01*
X48807023Y17067906D01*
X48691328Y17227146D01*
X48552146Y17366328D01*
X48392905Y17482024D01*
X48386375Y17485351D01*
X48217529Y17571383D01*
X48148681Y17593753D01*
X48091006Y17633191D01*
X48063808Y17697550D01*
X48063000Y17711684D01*
X48063000Y29476572D01*
X48038002Y29602239D01*
X48038001Y29602240D01*
X48038001Y29602244D01*
X47995341Y29705235D01*
X47988966Y29720626D01*
X47966177Y29754732D01*
X47917778Y29827168D01*
X47917772Y29827175D01*
X47099319Y30645628D01*
X47065834Y30706951D01*
X47063000Y30733309D01*
X47063000Y31929987D01*
X47082685Y31997026D01*
X47135489Y32042781D01*
X47204647Y32052725D01*
X47268203Y32023700D01*
X47301561Y31977440D01*
X47337033Y31891801D01*
X47408226Y31785253D01*
X47408227Y31785252D01*
X48725681Y30467800D01*
X48759166Y30406477D01*
X48762000Y30380119D01*
X48762000Y28348431D01*
X48762000Y28348429D01*
X48761999Y28348429D01*
X48780530Y28255276D01*
X48780530Y28255275D01*
X48786996Y28222763D01*
X48786998Y28222758D01*
X48812510Y28161168D01*
X48836035Y28104373D01*
X48891351Y28021586D01*
X48907226Y27997827D01*
X48907227Y27997826D01*
X54172271Y22732783D01*
X54205756Y22671460D01*
X54202521Y22606784D01*
X54180291Y22538369D01*
X54180291Y22538366D01*
X54149500Y22343961D01*
X54149500Y22147116D01*
X54180290Y21952712D01*
X54241117Y21765509D01*
X54330476Y21590133D01*
X54446172Y21430892D01*
X54446174Y21430890D01*
X54447191Y21429873D01*
X54447453Y21429392D01*
X54449336Y21427188D01*
X54448873Y21426793D01*
X54480676Y21368550D01*
X54475692Y21298858D01*
X54447191Y21254511D01*
X54439251Y21246572D01*
X54439251Y21246571D01*
X54439249Y21246569D01*
X54389562Y21178182D01*
X54323553Y21087329D01*
X54234194Y20911953D01*
X54173367Y20724750D01*
X54142577Y20530346D01*
X54142577Y20333501D01*
X54173367Y20139097D01*
X54234194Y19951894D01*
X54315890Y19791557D01*
X54323553Y19776518D01*
X54439249Y19617277D01*
X54578431Y19478095D01*
X54737672Y19362399D01*
X54820532Y19320180D01*
X54913047Y19273041D01*
X54913049Y19273041D01*
X54913052Y19273039D01*
X54991496Y19247551D01*
X55100250Y19212214D01*
X55294655Y19181423D01*
X55294660Y19181423D01*
X55491499Y19181423D01*
X55685903Y19212214D01*
X55873102Y19273039D01*
X56048482Y19362399D01*
X56207723Y19478095D01*
X56346905Y19617277D01*
X56414916Y19710887D01*
X56470246Y19753551D01*
X56515234Y19762000D01*
X57119703Y19762000D01*
X57186742Y19742315D01*
X57232497Y19689511D01*
X57242441Y19620353D01*
X57242176Y19618602D01*
X57237000Y19585922D01*
X57237000Y19389078D01*
X57267790Y19194674D01*
X57328617Y19007471D01*
X57405729Y18856131D01*
X57417976Y18832095D01*
X57533672Y18672854D01*
X57672854Y18533672D01*
X57832095Y18417976D01*
X57914802Y18375835D01*
X58007470Y18328618D01*
X58007472Y18328618D01*
X58007475Y18328616D01*
X58107817Y18296013D01*
X58194673Y18267791D01*
X58389078Y18237000D01*
X58389083Y18237000D01*
X58585922Y18237000D01*
X58780326Y18267791D01*
X58967525Y18328616D01*
X59142905Y18417976D01*
X59302146Y18533672D01*
X59441328Y18672854D01*
X59557024Y18832095D01*
X59646384Y19007475D01*
X59707209Y19194674D01*
X59709987Y19212214D01*
X59738000Y19389078D01*
X59738000Y19585923D01*
X59707209Y19780327D01*
X59678987Y19867183D01*
X59646384Y19967525D01*
X59646382Y19967528D01*
X59646382Y19967530D01*
X59599243Y20060045D01*
X59557024Y20142905D01*
X59441328Y20302146D01*
X59302146Y20441328D01*
X59142905Y20557024D01*
X58967529Y20646383D01*
X58780326Y20707210D01*
X58585922Y20738000D01*
X58585917Y20738000D01*
X58389083Y20738000D01*
X58389078Y20738000D01*
X58251088Y20716145D01*
X58181794Y20725100D01*
X58144009Y20750937D01*
X57977174Y20917773D01*
X57977173Y20917774D01*
X57977169Y20917777D01*
X57870627Y20988965D01*
X57752244Y21038001D01*
X57752238Y21038003D01*
X57626571Y21063000D01*
X57626569Y21063000D01*
X56543457Y21063000D01*
X56538782Y21064373D01*
X56534019Y21063360D01*
X56505582Y21074122D01*
X56476418Y21082685D01*
X56471978Y21086839D01*
X56468673Y21088089D01*
X56446685Y21110500D01*
X56443836Y21113165D01*
X56443491Y21113630D01*
X56346905Y21246569D01*
X56339403Y21254071D01*
X56333946Y21261434D01*
X56324928Y21285970D01*
X56312401Y21308911D01*
X56313068Y21318238D01*
X56309842Y21327015D01*
X56315520Y21352531D01*
X56317385Y21378603D01*
X56323408Y21387976D01*
X56325020Y21395216D01*
X56333389Y21403506D01*
X56345886Y21422950D01*
X56349729Y21426793D01*
X56353828Y21430892D01*
X56469524Y21590133D01*
X56558884Y21765513D01*
X56619709Y21952712D01*
X56650500Y22147116D01*
X56650500Y22343961D01*
X56619709Y22538365D01*
X56558882Y22725568D01*
X56469523Y22900944D01*
X56353828Y23060184D01*
X56214646Y23199366D01*
X56055405Y23315062D01*
X55880029Y23404421D01*
X55692826Y23465248D01*
X55498422Y23496038D01*
X55498417Y23496038D01*
X55301583Y23496038D01*
X55300270Y23496038D01*
X55233231Y23515723D01*
X55212589Y23532357D01*
X50099319Y28645627D01*
X50065834Y28706950D01*
X50063000Y28733308D01*
X50063000Y30542692D01*
X50082685Y30609731D01*
X50135489Y30655486D01*
X50204647Y30665430D01*
X50268203Y30636405D01*
X50274681Y30630373D01*
X70434325Y10470728D01*
X70434331Y10470723D01*
X70540874Y10399534D01*
X70610221Y10370811D01*
X70659256Y10350499D01*
X70659259Y10350499D01*
X70659260Y10350498D01*
X70784928Y10325500D01*
X70784931Y10325500D01*
X74528192Y10325500D01*
X74595231Y10305815D01*
X74615873Y10289181D01*
X74997824Y9907229D01*
X74997827Y9907226D01*
X74997830Y9907224D01*
X75083172Y9850201D01*
X75104373Y9836035D01*
X75222756Y9786999D01*
X75222760Y9786999D01*
X75222761Y9786998D01*
X75348428Y9762000D01*
X75348431Y9762000D01*
X79276232Y9762000D01*
X79343271Y9742315D01*
X79376549Y9710886D01*
X79458672Y9597854D01*
X79597854Y9458672D01*
X79757095Y9342976D01*
X79799472Y9321384D01*
X79932470Y9253618D01*
X79932472Y9253618D01*
X79932475Y9253616D01*
X79998928Y9232024D01*
X80119673Y9192791D01*
X80314078Y9162000D01*
X80314083Y9162000D01*
X80510922Y9162000D01*
X80705326Y9192791D01*
X80892525Y9253616D01*
X81067905Y9342976D01*
X81227146Y9458672D01*
X81366328Y9597854D01*
X81482024Y9757095D01*
X81571384Y9932475D01*
X81632209Y10119674D01*
X81649301Y10227589D01*
X81663000Y10314078D01*
X81663000Y10510923D01*
X81632209Y10705327D01*
X81571382Y10892530D01*
X81482023Y11067906D01*
X81479449Y11071449D01*
X81366328Y11227146D01*
X81227146Y11366328D01*
X81067905Y11482024D01*
X80892529Y11571383D01*
X80705326Y11632210D01*
X80510922Y11663000D01*
X80510917Y11663000D01*
X80314083Y11663000D01*
X80314078Y11663000D01*
X80119673Y11632210D01*
X79932470Y11571383D01*
X79757094Y11482024D01*
X79666241Y11416015D01*
X79597854Y11366328D01*
X79597852Y11366326D01*
X79597851Y11366326D01*
X79458674Y11227149D01*
X79458669Y11227143D01*
X79376550Y11114115D01*
X79321220Y11071449D01*
X79276232Y11063000D01*
X75733308Y11063000D01*
X75666269Y11082685D01*
X75645627Y11099319D01*
X75263674Y11481273D01*
X75263673Y11481274D01*
X75262551Y11482024D01*
X75183418Y11534899D01*
X75138613Y11588509D01*
X75129906Y11657834D01*
X75160060Y11720862D01*
X75219503Y11757582D01*
X75252309Y11762000D01*
X78476571Y11762000D01*
X78602239Y11786998D01*
X78602239Y11786999D01*
X78602244Y11786999D01*
X78602248Y11787001D01*
X78608076Y11788768D01*
X78608888Y11786091D01*
X78666372Y11792332D01*
X78682801Y11788211D01*
X78707174Y11780291D01*
X78780077Y11768745D01*
X78901578Y11749500D01*
X78901583Y11749500D01*
X79098422Y11749500D01*
X79292826Y11780291D01*
X79329884Y11792332D01*
X79480025Y11841116D01*
X79655405Y11930476D01*
X79814646Y12046172D01*
X79953828Y12185354D01*
X80069524Y12344595D01*
X80158884Y12519975D01*
X80219709Y12707174D01*
X80233275Y12792827D01*
X80250500Y12901578D01*
X80250500Y13098423D01*
X80219709Y13292827D01*
X80191487Y13379683D01*
X80158884Y13480025D01*
X80158882Y13480028D01*
X80158882Y13480030D01*
X80111743Y13572545D01*
X80069524Y13655405D01*
X79953828Y13814646D01*
X79814646Y13953828D01*
X79655405Y14069524D01*
X79480029Y14158883D01*
X79292826Y14219710D01*
X79098422Y14250500D01*
X79098417Y14250500D01*
X78901583Y14250500D01*
X78901578Y14250500D01*
X78707173Y14219710D01*
X78519970Y14158883D01*
X78344594Y14069524D01*
X78253741Y14003515D01*
X78185354Y13953828D01*
X78185352Y13953826D01*
X78185351Y13953826D01*
X78046174Y13814649D01*
X78046174Y13814648D01*
X78046172Y13814646D01*
X78007922Y13762000D01*
X77930476Y13655406D01*
X77841117Y13480030D01*
X77780290Y13292827D01*
X77760457Y13167602D01*
X77730528Y13104467D01*
X77671216Y13067536D01*
X77637984Y13063000D01*
X71733308Y13063000D01*
X71666269Y13082685D01*
X71645627Y13099319D01*
X58732800Y26012146D01*
X58699315Y26073469D01*
X58704299Y26143161D01*
X58746171Y26199094D01*
X58782157Y26217756D01*
X58892525Y26253616D01*
X59067905Y26342976D01*
X59227146Y26458672D01*
X59366328Y26597854D01*
X59482024Y26757095D01*
X59571384Y26932475D01*
X59632209Y27119674D01*
X59644702Y27198553D01*
X59663000Y27314078D01*
X59663000Y27510923D01*
X59639354Y27660214D01*
X59632209Y27705326D01*
X59626287Y27723552D01*
X59624290Y27793393D01*
X59660369Y27853227D01*
X59705898Y27879804D01*
X59892525Y27940443D01*
X60067905Y28029803D01*
X60227146Y28145499D01*
X60366328Y28284681D01*
X60482024Y28443922D01*
X60571384Y28619302D01*
X60632209Y28806501D01*
X60634271Y28819518D01*
X60663000Y29000905D01*
X60663000Y29197750D01*
X60632209Y29392154D01*
X60574387Y29570110D01*
X60571384Y29579352D01*
X60571382Y29579355D01*
X60571382Y29579357D01*
X60507243Y29705236D01*
X60482024Y29754732D01*
X60366328Y29913973D01*
X60227146Y30053155D01*
X60114113Y30135279D01*
X60071449Y30190609D01*
X60063000Y30235596D01*
X60063000Y30476572D01*
X60038002Y30602239D01*
X60038001Y30602240D01*
X60038001Y30602244D01*
X59988965Y30720627D01*
X59985259Y30726173D01*
X59917777Y30827169D01*
X59917775Y30827171D01*
X59917773Y30827174D01*
X58732801Y32012146D01*
X58699316Y32073469D01*
X58704300Y32143161D01*
X58746172Y32199094D01*
X58782160Y32217757D01*
X58892525Y32253616D01*
X59067905Y32342976D01*
X59227146Y32458672D01*
X59366328Y32597854D01*
X59482024Y32757095D01*
X59571384Y32932475D01*
X59632209Y33119674D01*
X59642925Y33187333D01*
X59663000Y33314078D01*
X59663000Y33510923D01*
X59641144Y33648913D01*
X59650098Y33718206D01*
X59675933Y33755989D01*
X66430867Y40510923D01*
X68337000Y40510923D01*
X68337000Y40314078D01*
X68367790Y40119674D01*
X68428617Y39932471D01*
X68469541Y39852154D01*
X68517976Y39757095D01*
X68633672Y39597854D01*
X68772854Y39458672D01*
X68932095Y39342976D01*
X68974794Y39321220D01*
X69107470Y39253618D01*
X69107472Y39253618D01*
X69107475Y39253616D01*
X69207817Y39221013D01*
X69294673Y39192791D01*
X69489078Y39162000D01*
X69489083Y39162000D01*
X69685921Y39162000D01*
X69778384Y39176646D01*
X69823911Y39183856D01*
X69893204Y39174902D01*
X69930990Y39149064D01*
X73736563Y35343491D01*
X73770048Y35282168D01*
X73771355Y35236412D01*
X73749500Y35098423D01*
X73749500Y34901578D01*
X73780290Y34707174D01*
X73841117Y34519971D01*
X73930476Y34344595D01*
X74046172Y34185354D01*
X74185354Y34046172D01*
X74344595Y33930476D01*
X74419079Y33892525D01*
X74519970Y33841118D01*
X74519972Y33841118D01*
X74519975Y33841116D01*
X74620317Y33808513D01*
X74707173Y33780291D01*
X74901578Y33749500D01*
X74901583Y33749500D01*
X75098422Y33749500D01*
X75292826Y33780291D01*
X75480025Y33841116D01*
X75655405Y33930476D01*
X75814646Y34046172D01*
X75912319Y34143845D01*
X75973642Y34177330D01*
X76043334Y34172346D01*
X76087681Y34143845D01*
X76185354Y34046172D01*
X76344595Y33930476D01*
X76419079Y33892525D01*
X76519970Y33841118D01*
X76519972Y33841118D01*
X76519975Y33841116D01*
X76620317Y33808513D01*
X76707173Y33780291D01*
X76901578Y33749500D01*
X76901583Y33749500D01*
X77098422Y33749500D01*
X77292826Y33780291D01*
X77480025Y33841116D01*
X77655405Y33930476D01*
X77814646Y34046172D01*
X77953828Y34185354D01*
X78069524Y34344595D01*
X78158884Y34519975D01*
X78219709Y34707174D01*
X78250500Y34901578D01*
X78250500Y35098423D01*
X78219709Y35292827D01*
X78169143Y35448451D01*
X78158884Y35480025D01*
X78158882Y35480028D01*
X78158882Y35480030D01*
X78103498Y35588726D01*
X78069524Y35655405D01*
X77953828Y35814646D01*
X77814646Y35953828D01*
X77655405Y36069524D01*
X77480029Y36158883D01*
X77292826Y36219710D01*
X77098422Y36250500D01*
X77098417Y36250500D01*
X76901583Y36250500D01*
X76901578Y36250500D01*
X76707172Y36219709D01*
X76642122Y36198573D01*
X76572280Y36196578D01*
X76516123Y36228823D01*
X74050930Y38694016D01*
X74017445Y38755339D01*
X74016138Y38801096D01*
X74017572Y38810145D01*
X74034447Y38916692D01*
X74037994Y38939085D01*
X74037994Y39135929D01*
X74007203Y39330333D01*
X73965503Y39458670D01*
X73946378Y39517531D01*
X73946376Y39517534D01*
X73946376Y39517536D01*
X73857017Y39692912D01*
X73833209Y39725681D01*
X73741322Y39852152D01*
X73602140Y39991334D01*
X73442899Y40107030D01*
X73418084Y40119674D01*
X73267523Y40196389D01*
X73080320Y40257216D01*
X72885916Y40288006D01*
X72885911Y40288006D01*
X72689077Y40288006D01*
X72689072Y40288006D01*
X72494667Y40257216D01*
X72307464Y40196389D01*
X72132088Y40107030D01*
X72079759Y40069010D01*
X71972848Y39991334D01*
X71972846Y39991332D01*
X71972845Y39991332D01*
X71833668Y39852155D01*
X71833668Y39852154D01*
X71833666Y39852152D01*
X71783979Y39783765D01*
X71717970Y39692912D01*
X71629743Y39519755D01*
X71581769Y39468959D01*
X71513948Y39452164D01*
X71447813Y39474701D01*
X71431577Y39488369D01*
X70850936Y40069010D01*
X70817451Y40130333D01*
X70816144Y40176090D01*
X70838000Y40314079D01*
X70838000Y40510923D01*
X70807209Y40705327D01*
X70765318Y40834253D01*
X70746384Y40892525D01*
X70746382Y40892528D01*
X70746382Y40892530D01*
X70692439Y40998399D01*
X70657024Y41067905D01*
X70541328Y41227146D01*
X70402146Y41366328D01*
X70242905Y41482024D01*
X70067529Y41571383D01*
X69880326Y41632210D01*
X69685922Y41663000D01*
X69685917Y41663000D01*
X69489083Y41663000D01*
X69489078Y41663000D01*
X69294673Y41632210D01*
X69107470Y41571383D01*
X68932094Y41482024D01*
X68841241Y41416015D01*
X68772854Y41366328D01*
X68772852Y41366326D01*
X68772851Y41366326D01*
X68633674Y41227149D01*
X68633674Y41227148D01*
X68633672Y41227146D01*
X68602220Y41183856D01*
X68517976Y41067906D01*
X68428617Y40892530D01*
X68367790Y40705327D01*
X68337000Y40510923D01*
X66430867Y40510923D01*
X67069010Y41149066D01*
X67130331Y41182549D01*
X67176087Y41183856D01*
X67314078Y41162000D01*
X67314083Y41162000D01*
X67510922Y41162000D01*
X67705326Y41192791D01*
X67710564Y41194493D01*
X67892525Y41253616D01*
X68067905Y41342976D01*
X68227146Y41458672D01*
X68366328Y41597854D01*
X68482024Y41757095D01*
X68571384Y41932475D01*
X68632209Y42119674D01*
X68637674Y42154176D01*
X68663000Y42314078D01*
X68663000Y42510923D01*
X68632209Y42705327D01*
X68598919Y42807782D01*
X68571384Y42892525D01*
X68571382Y42892528D01*
X68571382Y42892530D01*
X68482023Y43067906D01*
X68479449Y43071449D01*
X68366328Y43227146D01*
X68227146Y43366328D01*
X68067905Y43482024D01*
X67892529Y43571383D01*
X67705326Y43632210D01*
X67510922Y43663000D01*
X67510917Y43663000D01*
X67314083Y43663000D01*
X67314078Y43663000D01*
X67119673Y43632210D01*
X66932470Y43571383D01*
X66757094Y43482024D01*
X66666241Y43416015D01*
X66597854Y43366328D01*
X66597852Y43366326D01*
X66597851Y43366326D01*
X66458674Y43227149D01*
X66458674Y43227148D01*
X66458672Y43227146D01*
X66458670Y43227143D01*
X66342976Y43067906D01*
X66253617Y42892530D01*
X66192790Y42705327D01*
X66162000Y42510923D01*
X66162000Y42314078D01*
X66183855Y42176090D01*
X66174900Y42106796D01*
X66149063Y42069011D01*
X58755989Y34675937D01*
X58694666Y34642452D01*
X58648910Y34641145D01*
X58510922Y34663000D01*
X58510917Y34663000D01*
X58314083Y34663000D01*
X58314078Y34663000D01*
X58119673Y34632210D01*
X57932470Y34571383D01*
X57757094Y34482024D01*
X57666241Y34416015D01*
X57597854Y34366328D01*
X57597852Y34366326D01*
X57597851Y34366326D01*
X57458674Y34227149D01*
X57458674Y34227148D01*
X57458672Y34227146D01*
X57418857Y34172346D01*
X57342976Y34067906D01*
X57297485Y33978624D01*
X57249510Y33927828D01*
X57181689Y33911033D01*
X57115554Y33933570D01*
X57072103Y33988286D01*
X57063000Y34034919D01*
X57063000Y35091692D01*
X57082685Y35158731D01*
X57099319Y35179373D01*
X57917772Y35997826D01*
X57917777Y35997831D01*
X57988966Y36104374D01*
X58011544Y36158883D01*
X58025589Y36192790D01*
X58037999Y36222752D01*
X58038001Y36222756D01*
X58063000Y36348431D01*
X58063000Y38566087D01*
X58063000Y38566090D01*
X58038002Y38691757D01*
X58038001Y38691758D01*
X58038001Y38691762D01*
X57988965Y38810145D01*
X57917777Y38916687D01*
X57917775Y38916689D01*
X57917773Y38916692D01*
X54680292Y42154173D01*
X54680288Y42154176D01*
X54573746Y42225364D01*
X54455363Y42274400D01*
X54455357Y42274402D01*
X54329690Y42299399D01*
X54329688Y42299399D01*
X53372667Y42299399D01*
X53305628Y42319084D01*
X53272349Y42350514D01*
X53190229Y42463542D01*
X53190224Y42463548D01*
X53051047Y42602725D01*
X53051045Y42602727D01*
X52891804Y42718423D01*
X52716428Y42807782D01*
X52529225Y42868609D01*
X52334821Y42899399D01*
X52334816Y42899399D01*
X52137982Y42899399D01*
X52137977Y42899399D01*
X51943572Y42868609D01*
X51756369Y42807782D01*
X51580993Y42718423D01*
X51490140Y42652414D01*
X51421753Y42602727D01*
X51421751Y42602725D01*
X51421750Y42602725D01*
X51282573Y42463548D01*
X51282573Y42463547D01*
X51282571Y42463545D01*
X51282569Y42463542D01*
X51166875Y42304305D01*
X51077516Y42128929D01*
X51016689Y41941726D01*
X50985899Y41747322D01*
X50985899Y41550477D01*
X51016689Y41356073D01*
X51077516Y41168870D01*
X51164376Y40998399D01*
X51166875Y40993494D01*
X51282571Y40834253D01*
X51421753Y40695071D01*
X51580994Y40579375D01*
X51663854Y40537156D01*
X51756369Y40490017D01*
X51756371Y40490017D01*
X51756374Y40490015D01*
X51856716Y40457412D01*
X51943572Y40429190D01*
X52137977Y40398399D01*
X52137982Y40398399D01*
X52334821Y40398399D01*
X52529225Y40429190D01*
X52716424Y40490015D01*
X52891804Y40579375D01*
X53051045Y40695071D01*
X53190227Y40834253D01*
X53272349Y40947285D01*
X53327679Y40989950D01*
X53372667Y40998399D01*
X53944811Y40998399D01*
X54011850Y40978714D01*
X54032492Y40962080D01*
X56725681Y38268891D01*
X56759166Y38207568D01*
X56762000Y38181210D01*
X56762000Y36733309D01*
X56742315Y36666270D01*
X56725681Y36645628D01*
X55907227Y35827175D01*
X55907221Y35827168D01*
X55860401Y35757096D01*
X55860402Y35757095D01*
X55836034Y35720626D01*
X55786999Y35602245D01*
X55786997Y35602239D01*
X55762000Y35476572D01*
X55762000Y35476569D01*
X55762000Y33348431D01*
X55762000Y33348429D01*
X55761999Y33348429D01*
X55786124Y33227154D01*
X55786124Y33227153D01*
X55786998Y33222758D01*
X55786999Y33222756D01*
X55836035Y33104373D01*
X55907223Y32997831D01*
X55907226Y32997827D01*
X55907227Y32997826D01*
X58642333Y30262721D01*
X58675818Y30201398D01*
X58670834Y30131706D01*
X58628962Y30075773D01*
X58627539Y30074723D01*
X58597854Y30053156D01*
X58458674Y29913976D01*
X58458674Y29913975D01*
X58458672Y29913973D01*
X58417458Y29857247D01*
X58342976Y29754733D01*
X58262027Y29595862D01*
X58214052Y29545066D01*
X58146231Y29528271D01*
X58080096Y29550809D01*
X58036982Y29604704D01*
X57988965Y29720627D01*
X57966177Y29754732D01*
X57966177Y29754733D01*
X57917775Y29827172D01*
X55099319Y32645628D01*
X55065834Y32706951D01*
X55063000Y32733309D01*
X55063000Y35276232D01*
X55082685Y35343271D01*
X55114115Y35376550D01*
X55227146Y35458672D01*
X55366328Y35597854D01*
X55482024Y35757095D01*
X55571384Y35932475D01*
X55632209Y36119674D01*
X55640986Y36175092D01*
X55663000Y36314078D01*
X55663000Y36510923D01*
X55632209Y36705327D01*
X55571382Y36892530D01*
X55482023Y37067906D01*
X55481222Y37069009D01*
X55366328Y37227146D01*
X55227146Y37366328D01*
X55067905Y37482024D01*
X54892529Y37571383D01*
X54705326Y37632210D01*
X54510922Y37663000D01*
X54510917Y37663000D01*
X54314083Y37663000D01*
X54314078Y37663000D01*
X54119673Y37632210D01*
X53932470Y37571383D01*
X53757094Y37482024D01*
X53666241Y37416015D01*
X53597854Y37366328D01*
X53597852Y37366326D01*
X53597851Y37366326D01*
X53458674Y37227149D01*
X53458674Y37227148D01*
X53458672Y37227146D01*
X53421576Y37176088D01*
X53342976Y37067906D01*
X53253617Y36892530D01*
X53192790Y36705327D01*
X53162000Y36510923D01*
X53162000Y36314078D01*
X53192790Y36119674D01*
X53253617Y35932471D01*
X53307272Y35827168D01*
X53342976Y35757095D01*
X53458672Y35597854D01*
X53597854Y35458672D01*
X53657313Y35415472D01*
X53710885Y35376550D01*
X53753551Y35321220D01*
X53762000Y35276232D01*
X53762000Y32348431D01*
X53762000Y32348429D01*
X53761999Y32348429D01*
X53786997Y32222762D01*
X53786999Y32222756D01*
X53836035Y32104373D01*
X53907223Y31997831D01*
X53907226Y31997827D01*
X53907227Y31997826D01*
X56725681Y29179373D01*
X56759166Y29118050D01*
X56762000Y29091692D01*
X56762000Y28348431D01*
X56762000Y28348429D01*
X56761999Y28348429D01*
X56773003Y28293114D01*
X56766776Y28223522D01*
X56723913Y28168345D01*
X56658024Y28145100D01*
X56590026Y28161168D01*
X56563705Y28181241D01*
X53099319Y31645627D01*
X53065834Y31706950D01*
X53063000Y31733308D01*
X53063000Y34476572D01*
X53038002Y34602239D01*
X53038001Y34602240D01*
X53038001Y34602244D01*
X53008197Y34674198D01*
X52988966Y34720626D01*
X52964598Y34757095D01*
X52917778Y34827168D01*
X52917772Y34827175D01*
X52675936Y35069010D01*
X52642451Y35130333D01*
X52641144Y35176090D01*
X52663000Y35314079D01*
X52663000Y35510923D01*
X52632209Y35705327D01*
X52603987Y35792183D01*
X52571384Y35892525D01*
X52571382Y35892528D01*
X52571382Y35892530D01*
X52482023Y36067906D01*
X52366328Y36227146D01*
X52227146Y36366328D01*
X52067905Y36482024D01*
X51892529Y36571383D01*
X51705326Y36632210D01*
X51510922Y36663000D01*
X51510917Y36663000D01*
X51314083Y36663000D01*
X51314078Y36663000D01*
X51119673Y36632210D01*
X50932470Y36571383D01*
X50757094Y36482024D01*
X50666241Y36416015D01*
X50597854Y36366328D01*
X50597852Y36366326D01*
X50597851Y36366326D01*
X50458674Y36227149D01*
X50458674Y36227148D01*
X50458672Y36227146D01*
X50433711Y36192790D01*
X50342976Y36067906D01*
X50253617Y35892530D01*
X50192790Y35705327D01*
X50162000Y35510923D01*
X50162000Y35314078D01*
X50192790Y35119674D01*
X50253617Y34932471D01*
X50307272Y34827168D01*
X50342976Y34757095D01*
X50458672Y34597854D01*
X50597854Y34458672D01*
X50757095Y34342976D01*
X50813801Y34314083D01*
X50932470Y34253618D01*
X50932472Y34253618D01*
X50932475Y34253616D01*
X51013932Y34227149D01*
X51119673Y34192791D01*
X51314078Y34162000D01*
X51314083Y34162000D01*
X51510921Y34162000D01*
X51562072Y34170102D01*
X51618603Y34179056D01*
X51687894Y34170102D01*
X51741347Y34125106D01*
X51761987Y34058355D01*
X51762000Y34056583D01*
X51762000Y31348431D01*
X51762000Y31348429D01*
X51761999Y31348429D01*
X51773003Y31293114D01*
X51766776Y31223522D01*
X51723913Y31168345D01*
X51658024Y31145100D01*
X51590026Y31161168D01*
X51563705Y31181241D01*
X50929536Y31815410D01*
X50896051Y31876733D01*
X50899285Y31941406D01*
X50957209Y32119674D01*
X50965473Y32171849D01*
X50988000Y32314078D01*
X50988000Y32510923D01*
X50957209Y32705327D01*
X50921873Y32814079D01*
X50896384Y32892525D01*
X50896382Y32892528D01*
X50896382Y32892530D01*
X50842728Y32997831D01*
X50807024Y33067905D01*
X50691328Y33227146D01*
X50552146Y33366328D01*
X50392905Y33482024D01*
X50217529Y33571383D01*
X50030326Y33632210D01*
X49835922Y33663000D01*
X49835917Y33663000D01*
X49639083Y33663000D01*
X49639078Y33663000D01*
X49444673Y33632210D01*
X49257470Y33571383D01*
X49082094Y33482024D01*
X48991241Y33416015D01*
X48922854Y33366328D01*
X48922852Y33366326D01*
X48922851Y33366326D01*
X48783673Y33227148D01*
X48782285Y33225522D01*
X48781602Y33225077D01*
X48780227Y33223701D01*
X48779937Y33223991D01*
X48723776Y33187333D01*
X48653908Y33186839D01*
X48594864Y33224196D01*
X48565390Y33287545D01*
X48564000Y33306060D01*
X48564000Y37603332D01*
X48539002Y37728999D01*
X48539001Y37729000D01*
X48539001Y37729004D01*
X48489965Y37847387D01*
X48487207Y37851514D01*
X48487205Y37851520D01*
X48487205Y37851519D01*
X48418778Y37953928D01*
X48418772Y37953935D01*
X45454933Y40917774D01*
X45454929Y40917777D01*
X45348387Y40988965D01*
X45325611Y40998399D01*
X45230004Y41038001D01*
X45229998Y41038003D01*
X45104331Y41063000D01*
X45104329Y41063000D01*
X42034918Y41063000D01*
X41967879Y41082685D01*
X41922124Y41135489D01*
X41912180Y41204647D01*
X41941205Y41268203D01*
X41978623Y41297485D01*
X42067905Y41342976D01*
X42227146Y41458672D01*
X42366328Y41597854D01*
X42482024Y41757095D01*
X42571384Y41932475D01*
X42632209Y42119674D01*
X42637674Y42154176D01*
X42663000Y42314078D01*
X42663000Y42510923D01*
X42632209Y42705327D01*
X42598919Y42807782D01*
X42571384Y42892525D01*
X42571382Y42892528D01*
X42571382Y42892530D01*
X42482023Y43067906D01*
X42479449Y43071449D01*
X42366328Y43227146D01*
X42227146Y43366328D01*
X42067905Y43482024D01*
X41892529Y43571383D01*
X41705326Y43632210D01*
X41510922Y43663000D01*
X41510917Y43663000D01*
X41314083Y43663000D01*
X41314078Y43663000D01*
X41119673Y43632210D01*
X40932470Y43571383D01*
X40757094Y43482024D01*
X40666241Y43416015D01*
X40597854Y43366328D01*
X40597852Y43366326D01*
X40597851Y43366326D01*
X40458674Y43227149D01*
X40458669Y43227143D01*
X40376550Y43114115D01*
X40321220Y43071449D01*
X40276232Y43063000D01*
X27548768Y43063000D01*
X27481729Y43082685D01*
X27448450Y43114115D01*
X27366330Y43227143D01*
X27366325Y43227149D01*
X27227148Y43366326D01*
X27227146Y43366328D01*
X27067905Y43482024D01*
X26892529Y43571383D01*
X26705326Y43632210D01*
X26510922Y43663000D01*
X26510917Y43663000D01*
X26314083Y43663000D01*
X26314078Y43663000D01*
X26119673Y43632210D01*
X25932470Y43571383D01*
X25757094Y43482024D01*
X25666241Y43416015D01*
X25597854Y43366328D01*
X25597852Y43366326D01*
X25597851Y43366326D01*
X25458674Y43227149D01*
X25458674Y43227148D01*
X25458672Y43227146D01*
X25458670Y43227143D01*
X25342976Y43067906D01*
X25253617Y42892530D01*
X25192790Y42705327D01*
X25162000Y42510923D01*
X500500Y42510923D01*
X500500Y47118098D01*
X10999500Y47118098D01*
X10999500Y46881903D01*
X11036446Y46648632D01*
X11109433Y46424004D01*
X11216657Y46213567D01*
X11355483Y46022490D01*
X11522490Y45855483D01*
X11713567Y45716657D01*
X11812991Y45665998D01*
X11924003Y45609434D01*
X11924005Y45609434D01*
X11924008Y45609432D01*
X12044412Y45570311D01*
X12148631Y45536447D01*
X12381903Y45499500D01*
X12381908Y45499500D01*
X12618097Y45499500D01*
X12851368Y45536447D01*
X13075992Y45609432D01*
X13286433Y45716657D01*
X13477510Y45855483D01*
X13644517Y46022490D01*
X13783343Y46213567D01*
X13890568Y46424008D01*
X13963553Y46648632D01*
X14000500Y46881903D01*
X14000500Y47118098D01*
X17499500Y47118098D01*
X17499500Y46881903D01*
X17536446Y46648632D01*
X17609433Y46424004D01*
X17716657Y46213567D01*
X17855483Y46022490D01*
X18022490Y45855483D01*
X18213567Y45716657D01*
X18312991Y45665998D01*
X18424003Y45609434D01*
X18424005Y45609434D01*
X18424008Y45609432D01*
X18544412Y45570311D01*
X18648631Y45536447D01*
X18881903Y45499500D01*
X18881908Y45499500D01*
X19118097Y45499500D01*
X19351368Y45536447D01*
X19575992Y45609432D01*
X19786433Y45716657D01*
X19977510Y45855483D01*
X20144517Y46022490D01*
X20283343Y46213567D01*
X20390568Y46424008D01*
X20463553Y46648632D01*
X20500500Y46881903D01*
X20500500Y47118098D01*
X20463553Y47351369D01*
X20390566Y47575997D01*
X20283342Y47786434D01*
X20144517Y47977510D01*
X19977510Y48144517D01*
X19786433Y48283343D01*
X19575996Y48390567D01*
X19351368Y48463554D01*
X19118097Y48500500D01*
X19118092Y48500500D01*
X18881908Y48500500D01*
X18881903Y48500500D01*
X18648631Y48463554D01*
X18424003Y48390567D01*
X18213566Y48283343D01*
X18104550Y48204138D01*
X18022490Y48144517D01*
X18022488Y48144515D01*
X18022487Y48144515D01*
X17855485Y47977513D01*
X17855485Y47977512D01*
X17855483Y47977510D01*
X17795862Y47895450D01*
X17716657Y47786434D01*
X17609433Y47575997D01*
X17536446Y47351369D01*
X17499500Y47118098D01*
X14000500Y47118098D01*
X13963553Y47351369D01*
X13890566Y47575997D01*
X13783342Y47786434D01*
X13644517Y47977510D01*
X13477510Y48144517D01*
X13286433Y48283343D01*
X13075996Y48390567D01*
X12851368Y48463554D01*
X12618097Y48500500D01*
X12618092Y48500500D01*
X12381908Y48500500D01*
X12381903Y48500500D01*
X12148631Y48463554D01*
X11924003Y48390567D01*
X11713566Y48283343D01*
X11604550Y48204138D01*
X11522490Y48144517D01*
X11522488Y48144515D01*
X11522487Y48144515D01*
X11355485Y47977513D01*
X11355485Y47977512D01*
X11355483Y47977510D01*
X11295862Y47895450D01*
X11216657Y47786434D01*
X11109433Y47575997D01*
X11036446Y47351369D01*
X10999500Y47118098D01*
X500500Y47118098D01*
X500500Y51618053D01*
X11000000Y51618053D01*
X11000000Y51381948D01*
X11036934Y51148753D01*
X11109897Y50924198D01*
X11217087Y50713826D01*
X11277338Y50630896D01*
X11277340Y50630895D01*
X11976212Y51329767D01*
X11987482Y51287708D01*
X12059890Y51162292D01*
X12162292Y51059890D01*
X12287708Y50987482D01*
X12329765Y50976213D01*
X11630893Y50277342D01*
X11713828Y50217086D01*
X11924197Y50109898D01*
X12148752Y50036935D01*
X12148751Y50036935D01*
X12381948Y50000000D01*
X12618052Y50000000D01*
X12851247Y50036935D01*
X13075802Y50109898D01*
X13286163Y50217082D01*
X13286169Y50217086D01*
X13369104Y50277342D01*
X13369105Y50277342D01*
X12670233Y50976213D01*
X12712292Y50987482D01*
X12837708Y51059890D01*
X12940110Y51162292D01*
X13012518Y51287708D01*
X13023787Y51329766D01*
X13722658Y50630895D01*
X13722658Y50630896D01*
X13782914Y50713831D01*
X13782918Y50713837D01*
X13890102Y50924198D01*
X13963065Y51148753D01*
X14000000Y51381948D01*
X14000000Y51618053D01*
X17500000Y51618053D01*
X17500000Y51381948D01*
X17536934Y51148753D01*
X17609897Y50924198D01*
X17717087Y50713826D01*
X17777338Y50630896D01*
X17777340Y50630895D01*
X18476212Y51329767D01*
X18487482Y51287708D01*
X18559890Y51162292D01*
X18662292Y51059890D01*
X18787708Y50987482D01*
X18829765Y50976213D01*
X18130893Y50277342D01*
X18213828Y50217086D01*
X18424197Y50109898D01*
X18648752Y50036935D01*
X18648751Y50036935D01*
X18881948Y50000000D01*
X19118052Y50000000D01*
X19351247Y50036935D01*
X19575802Y50109898D01*
X19786163Y50217082D01*
X19786169Y50217086D01*
X19869104Y50277342D01*
X19869105Y50277342D01*
X19170233Y50976213D01*
X19212292Y50987482D01*
X19337708Y51059890D01*
X19440110Y51162292D01*
X19512518Y51287708D01*
X19523787Y51329766D01*
X20222658Y50630895D01*
X20222658Y50630896D01*
X20282914Y50713831D01*
X20282918Y50713837D01*
X20390102Y50924198D01*
X20463065Y51148753D01*
X20500000Y51381948D01*
X20500000Y51618053D01*
X20470358Y51805199D01*
X20470357Y51805204D01*
X20463063Y51851254D01*
X20390102Y52075803D01*
X20282914Y52286172D01*
X20222658Y52369106D01*
X20222658Y52369107D01*
X19523787Y51670235D01*
X19512518Y51712292D01*
X19440110Y51837708D01*
X19337708Y51940110D01*
X19212292Y52012518D01*
X19170234Y52023788D01*
X19869105Y52722660D01*
X19869104Y52722662D01*
X19786174Y52782913D01*
X19575802Y52890103D01*
X19351247Y52963066D01*
X19351248Y52963066D01*
X19118052Y53000000D01*
X18881948Y53000000D01*
X18648752Y52963066D01*
X18424197Y52890103D01*
X18213830Y52782916D01*
X18130894Y52722660D01*
X18829766Y52023788D01*
X18787708Y52012518D01*
X18662292Y51940110D01*
X18559890Y51837708D01*
X18487482Y51712292D01*
X18476212Y51670234D01*
X17777340Y52369106D01*
X17717084Y52286170D01*
X17609897Y52075803D01*
X17536934Y51851248D01*
X17500000Y51618053D01*
X14000000Y51618053D01*
X13963065Y51851248D01*
X13890102Y52075803D01*
X13782914Y52286172D01*
X13722658Y52369106D01*
X13722658Y52369107D01*
X13023787Y51670235D01*
X13012518Y51712292D01*
X12940110Y51837708D01*
X12837708Y51940110D01*
X12712292Y52012518D01*
X12670234Y52023788D01*
X13369105Y52722660D01*
X13369104Y52722661D01*
X13286174Y52782913D01*
X13075802Y52890103D01*
X12851247Y52963066D01*
X12851248Y52963066D01*
X12618052Y53000000D01*
X12381948Y53000000D01*
X12148752Y52963066D01*
X11924197Y52890103D01*
X11713830Y52782916D01*
X11630894Y52722660D01*
X12329766Y52023788D01*
X12287708Y52012518D01*
X12162292Y51940110D01*
X12059890Y51837708D01*
X11987482Y51712292D01*
X11976212Y51670234D01*
X11277340Y52369106D01*
X11217084Y52286170D01*
X11109897Y52075803D01*
X11036934Y51851248D01*
X11000000Y51618053D01*
X500500Y51618053D01*
X500500Y53118053D01*
X30335000Y53118053D01*
X30335000Y52881948D01*
X30371934Y52648753D01*
X30444897Y52424198D01*
X30552087Y52213826D01*
X30612338Y52130896D01*
X30612340Y52130895D01*
X31343871Y52862426D01*
X31359755Y52803147D01*
X31426898Y52686853D01*
X31521853Y52591898D01*
X31638147Y52524755D01*
X31697425Y52508872D01*
X30965893Y51777342D01*
X31048828Y51717086D01*
X31259197Y51609898D01*
X31483752Y51536935D01*
X31483751Y51536935D01*
X31716948Y51500000D01*
X31953052Y51500000D01*
X32186247Y51536935D01*
X32410802Y51609898D01*
X32621163Y51717082D01*
X32621169Y51717086D01*
X32704104Y51777342D01*
X32704105Y51777342D01*
X31972574Y52508872D01*
X32031853Y52524755D01*
X32148147Y52591898D01*
X32243102Y52686853D01*
X32310245Y52803147D01*
X32326128Y52862425D01*
X33057658Y52130895D01*
X33057658Y52130896D01*
X33117914Y52213831D01*
X33117918Y52213837D01*
X33225102Y52424198D01*
X33298065Y52648753D01*
X33335000Y52881948D01*
X33335000Y53118048D01*
X33334999Y53118057D01*
X33333969Y53124559D01*
X57099500Y53124559D01*
X57099500Y52875442D01*
X57099501Y52875425D01*
X57132017Y52628439D01*
X57196498Y52387793D01*
X57291830Y52157639D01*
X57291837Y52157624D01*
X57416400Y51941874D01*
X57568060Y51744226D01*
X57568066Y51744219D01*
X57744218Y51568067D01*
X57744225Y51568061D01*
X57941873Y51416401D01*
X58157623Y51291838D01*
X58157638Y51291831D01*
X58256825Y51250747D01*
X58387793Y51196498D01*
X58628435Y51132018D01*
X58875435Y51099500D01*
X58875442Y51099500D01*
X59124558Y51099500D01*
X59124565Y51099500D01*
X59371565Y51132018D01*
X59612207Y51196498D01*
X59842373Y51291836D01*
X60058127Y51416401D01*
X60255776Y51568062D01*
X60431938Y51744224D01*
X60583599Y51941873D01*
X60708164Y52157627D01*
X60803502Y52387793D01*
X60867982Y52628435D01*
X60900500Y52875435D01*
X60900500Y53124565D01*
X60867982Y53371565D01*
X60803502Y53612207D01*
X60708164Y53842373D01*
X60583599Y54058127D01*
X60431939Y54255775D01*
X60431933Y54255782D01*
X60255781Y54431934D01*
X60255774Y54431940D01*
X60058126Y54583600D01*
X59842376Y54708163D01*
X59842361Y54708170D01*
X59612207Y54803502D01*
X59371561Y54867983D01*
X59124575Y54900499D01*
X59124570Y54900500D01*
X59124565Y54900500D01*
X58875435Y54900500D01*
X58875429Y54900500D01*
X58875424Y54900499D01*
X58628438Y54867983D01*
X58387792Y54803502D01*
X58157638Y54708170D01*
X58157623Y54708163D01*
X57941873Y54583600D01*
X57744225Y54431940D01*
X57744218Y54431934D01*
X57568066Y54255782D01*
X57568060Y54255775D01*
X57416400Y54058127D01*
X57291837Y53842377D01*
X57291830Y53842362D01*
X57196498Y53612208D01*
X57132017Y53371562D01*
X57099501Y53124576D01*
X57099500Y53124559D01*
X33333969Y53124559D01*
X33298065Y53351248D01*
X33225102Y53575803D01*
X33117914Y53786172D01*
X33057658Y53869106D01*
X33057658Y53869107D01*
X32326128Y53137576D01*
X32310245Y53196853D01*
X32243102Y53313147D01*
X32148147Y53408102D01*
X32031853Y53475245D01*
X31972574Y53491129D01*
X32704105Y54222660D01*
X32704104Y54222662D01*
X32621174Y54282913D01*
X32410802Y54390103D01*
X32186247Y54463066D01*
X32186248Y54463066D01*
X31953052Y54500000D01*
X31716948Y54500000D01*
X31483752Y54463066D01*
X31259197Y54390103D01*
X31048830Y54282916D01*
X30965894Y54222660D01*
X31697425Y53491129D01*
X31638147Y53475245D01*
X31521853Y53408102D01*
X31426898Y53313147D01*
X31359755Y53196853D01*
X31343871Y53137575D01*
X30612340Y53869106D01*
X30552084Y53786170D01*
X30444897Y53575803D01*
X30371934Y53351248D01*
X30335000Y53118053D01*
X500500Y53118053D01*
X500500Y64698423D01*
X9974500Y64698423D01*
X9974500Y64501578D01*
X10005290Y64307174D01*
X10066117Y64119971D01*
X10155476Y63944595D01*
X10271172Y63785354D01*
X10410354Y63646172D01*
X10513290Y63571384D01*
X10569596Y63530475D01*
X10694294Y63466939D01*
X10745091Y63418965D01*
X10762000Y63356454D01*
X10762000Y62856120D01*
X10742315Y62789081D01*
X10710886Y62755802D01*
X10597852Y62673678D01*
X10458674Y62534500D01*
X10458674Y62534499D01*
X10458672Y62534497D01*
X10441540Y62510917D01*
X10342976Y62375257D01*
X10253617Y62199881D01*
X10192790Y62012678D01*
X10162000Y61818274D01*
X10162000Y61621429D01*
X10192790Y61427025D01*
X10253617Y61239822D01*
X10342976Y61064446D01*
X10458672Y60905205D01*
X10597854Y60766023D01*
X10757095Y60650327D01*
X10839955Y60608108D01*
X10932470Y60560969D01*
X10932472Y60560969D01*
X10932475Y60560967D01*
X11032817Y60528364D01*
X11119673Y60500142D01*
X11314078Y60469351D01*
X11314083Y60469351D01*
X11510922Y60469351D01*
X11705326Y60500142D01*
X11892525Y60560967D01*
X12067905Y60650327D01*
X12227146Y60766023D01*
X12366328Y60905205D01*
X12482024Y61064446D01*
X12571384Y61239826D01*
X12632209Y61427025D01*
X12637222Y61458675D01*
X12663000Y61621429D01*
X12663000Y61818274D01*
X12632209Y62012678D01*
X12571382Y62199881D01*
X12513610Y62313265D01*
X12482024Y62375256D01*
X12366328Y62534497D01*
X12227146Y62673679D01*
X12114113Y62755803D01*
X12071449Y62811133D01*
X12063000Y62856120D01*
X12063000Y63618164D01*
X12082685Y63685203D01*
X12099319Y63705845D01*
X12178828Y63785354D01*
X12294524Y63944595D01*
X12383884Y64119975D01*
X12444709Y64307174D01*
X12475500Y64501578D01*
X12475500Y64510923D01*
X13162000Y64510923D01*
X13162000Y64314078D01*
X13192790Y64119674D01*
X13253617Y63932471D01*
X13328577Y63785354D01*
X13342976Y63757095D01*
X13458672Y63597854D01*
X13597854Y63458672D01*
X13757095Y63342976D01*
X13839955Y63300757D01*
X13932470Y63253618D01*
X13932472Y63253618D01*
X13932475Y63253616D01*
X14016468Y63226325D01*
X14119673Y63192791D01*
X14314078Y63162000D01*
X14314083Y63162000D01*
X14510921Y63162000D01*
X14603384Y63176646D01*
X14648911Y63183856D01*
X14718204Y63174902D01*
X14755990Y63149064D01*
X18480609Y59424445D01*
X18514094Y59363122D01*
X18509110Y59293430D01*
X18480609Y59249083D01*
X18458674Y59227149D01*
X18458674Y59227148D01*
X18458672Y59227146D01*
X18408985Y59158759D01*
X18342976Y59067906D01*
X18253617Y58892530D01*
X18192790Y58705327D01*
X18162000Y58510923D01*
X18162000Y58314078D01*
X18192790Y58119674D01*
X18253617Y57932471D01*
X18273971Y57892525D01*
X18342976Y57757095D01*
X18458672Y57597854D01*
X18597854Y57458672D01*
X18757095Y57342976D01*
X18813801Y57314083D01*
X18932470Y57253618D01*
X18932472Y57253618D01*
X18932475Y57253616D01*
X19032817Y57221013D01*
X19119673Y57192791D01*
X19314078Y57162000D01*
X19314083Y57162000D01*
X19510922Y57162000D01*
X19705326Y57192791D01*
X19892525Y57253616D01*
X20067905Y57342976D01*
X20227146Y57458672D01*
X20279397Y57510923D01*
X26162000Y57510923D01*
X26162000Y57314078D01*
X26192790Y57119674D01*
X26253617Y56932471D01*
X26342976Y56757095D01*
X26458672Y56597854D01*
X26597854Y56458672D01*
X26597857Y56458670D01*
X26710885Y56376550D01*
X26753551Y56321220D01*
X26762000Y56276232D01*
X26762000Y55548769D01*
X26742315Y55481730D01*
X26710886Y55448451D01*
X26597852Y55366327D01*
X26458674Y55227149D01*
X26458674Y55227148D01*
X26458672Y55227146D01*
X26408985Y55158759D01*
X26342976Y55067906D01*
X26253617Y54892530D01*
X26192790Y54705327D01*
X26162000Y54510923D01*
X26162000Y54314078D01*
X26192790Y54119674D01*
X26253617Y53932471D01*
X26342976Y53757095D01*
X26458672Y53597854D01*
X26597854Y53458672D01*
X26757095Y53342976D01*
X26815638Y53313147D01*
X26932470Y53253618D01*
X26932472Y53253618D01*
X26932475Y53253616D01*
X27032817Y53221013D01*
X27119673Y53192791D01*
X27314078Y53162000D01*
X27314083Y53162000D01*
X27510922Y53162000D01*
X27705326Y53192791D01*
X27717827Y53196853D01*
X27892525Y53253616D01*
X28067905Y53342976D01*
X28227146Y53458672D01*
X28366328Y53597854D01*
X28482024Y53757095D01*
X28571384Y53932475D01*
X28632209Y54119674D01*
X28644108Y54194799D01*
X28663000Y54314078D01*
X28663000Y54510923D01*
X28632209Y54705327D01*
X28600309Y54803502D01*
X28571384Y54892525D01*
X28571382Y54892528D01*
X28571382Y54892530D01*
X28482023Y55067906D01*
X28366328Y55227146D01*
X28227146Y55366328D01*
X28114113Y55448452D01*
X28071449Y55503782D01*
X28063000Y55548769D01*
X28063000Y56276232D01*
X28082685Y56343271D01*
X28114115Y56376550D01*
X28227146Y56458672D01*
X28366328Y56597854D01*
X28482024Y56757095D01*
X28571384Y56932475D01*
X28632209Y57119674D01*
X28638913Y57162000D01*
X28663000Y57314078D01*
X28663000Y57510923D01*
X28632209Y57705327D01*
X28571382Y57892530D01*
X28482023Y58067906D01*
X28444411Y58119674D01*
X28366328Y58227146D01*
X28227146Y58366328D01*
X28067905Y58482024D01*
X27892529Y58571383D01*
X27705326Y58632210D01*
X27510922Y58663000D01*
X27510917Y58663000D01*
X27314083Y58663000D01*
X27314078Y58663000D01*
X27119673Y58632210D01*
X26932470Y58571383D01*
X26757094Y58482024D01*
X26666241Y58416015D01*
X26597854Y58366328D01*
X26597852Y58366326D01*
X26597851Y58366326D01*
X26458674Y58227149D01*
X26458674Y58227148D01*
X26458672Y58227146D01*
X26408985Y58158759D01*
X26342976Y58067906D01*
X26253617Y57892530D01*
X26192790Y57705327D01*
X26162000Y57510923D01*
X20279397Y57510923D01*
X20366328Y57597854D01*
X20482024Y57757095D01*
X20571384Y57932475D01*
X20632209Y58119674D01*
X20649231Y58227148D01*
X20663000Y58314078D01*
X20663000Y58510923D01*
X20632209Y58705327D01*
X20571382Y58892530D01*
X20482023Y59067906D01*
X20366328Y59227146D01*
X20227146Y59366328D01*
X20147155Y59424445D01*
X20100165Y59458586D01*
X20057500Y59513917D01*
X20051434Y59534713D01*
X20038002Y59602237D01*
X20038001Y59602244D01*
X19988965Y59720627D01*
X19917777Y59827169D01*
X19917775Y59827171D01*
X19917773Y59827174D01*
X19917772Y59827175D01*
X17317656Y62427290D01*
X17234841Y62510105D01*
X21599500Y62510105D01*
X21599500Y62313260D01*
X21630290Y62118856D01*
X21691117Y61931653D01*
X21748887Y61818274D01*
X21780476Y61756277D01*
X21896172Y61597036D01*
X22035354Y61457854D01*
X22194595Y61342158D01*
X22277455Y61299939D01*
X22369970Y61252800D01*
X22369972Y61252800D01*
X22369975Y61252798D01*
X22409911Y61239822D01*
X22557173Y61191973D01*
X22751578Y61161182D01*
X22751583Y61161182D01*
X22948422Y61161182D01*
X23142826Y61191973D01*
X23145344Y61192791D01*
X23330025Y61252798D01*
X23505405Y61342158D01*
X23664646Y61457854D01*
X23803828Y61597036D01*
X23885950Y61710068D01*
X23941280Y61752733D01*
X23986268Y61761182D01*
X24276826Y61761182D01*
X24343865Y61741497D01*
X24377141Y61710071D01*
X24458672Y61597854D01*
X24597854Y61458672D01*
X24757095Y61342976D01*
X24839955Y61300757D01*
X24932470Y61253618D01*
X24932472Y61253618D01*
X24932475Y61253616D01*
X25032817Y61221013D01*
X25119673Y61192791D01*
X25314078Y61162000D01*
X25314083Y61162000D01*
X25510922Y61162000D01*
X25705326Y61192791D01*
X25892525Y61253616D01*
X26067905Y61342976D01*
X26227146Y61458672D01*
X26366328Y61597854D01*
X26482024Y61757095D01*
X26571384Y61932475D01*
X26632209Y62119674D01*
X26644912Y62199876D01*
X26663000Y62314078D01*
X26663000Y62510923D01*
X26632209Y62705327D01*
X26583213Y62856120D01*
X26571384Y62892525D01*
X26571382Y62892528D01*
X26571382Y62892530D01*
X26484940Y63062182D01*
X26482024Y63067905D01*
X26366328Y63227146D01*
X26227146Y63366328D01*
X26067905Y63482024D01*
X25892529Y63571383D01*
X25705326Y63632210D01*
X25510922Y63663000D01*
X25510917Y63663000D01*
X25314083Y63663000D01*
X25314078Y63663000D01*
X25119673Y63632210D01*
X24932470Y63571383D01*
X24757094Y63482024D01*
X24670302Y63418965D01*
X24597854Y63366328D01*
X24597852Y63366326D01*
X24597851Y63366326D01*
X24458674Y63227149D01*
X24458674Y63227148D01*
X24458672Y63227146D01*
X24375955Y63113296D01*
X24320625Y63070631D01*
X24275637Y63062182D01*
X23986268Y63062182D01*
X23919229Y63081867D01*
X23885950Y63113297D01*
X23826957Y63194493D01*
X23803828Y63226328D01*
X23664646Y63365510D01*
X23505405Y63481206D01*
X23503800Y63482024D01*
X23330029Y63570565D01*
X23142826Y63631392D01*
X22948422Y63662182D01*
X22948417Y63662182D01*
X22751583Y63662182D01*
X22751578Y63662182D01*
X22557173Y63631392D01*
X22369970Y63570565D01*
X22194594Y63481206D01*
X22139416Y63441116D01*
X22035354Y63365510D01*
X22035352Y63365508D01*
X22035351Y63365508D01*
X21896174Y63226331D01*
X21896174Y63226330D01*
X21896172Y63226328D01*
X21871806Y63192791D01*
X21780476Y63067088D01*
X21691117Y62891712D01*
X21630290Y62704509D01*
X21599500Y62510105D01*
X17234841Y62510105D01*
X15675936Y64069010D01*
X15642451Y64130333D01*
X15641144Y64176090D01*
X15663000Y64314079D01*
X15663000Y64510923D01*
X15632209Y64705327D01*
X15571382Y64892530D01*
X15482023Y65067906D01*
X15473218Y65080025D01*
X15366328Y65227146D01*
X15227146Y65366328D01*
X15067905Y65482024D01*
X14892529Y65571383D01*
X14705326Y65632210D01*
X14510922Y65663000D01*
X14510917Y65663000D01*
X14314083Y65663000D01*
X14314078Y65663000D01*
X14119673Y65632210D01*
X13932470Y65571383D01*
X13757094Y65482024D01*
X13666241Y65416015D01*
X13597854Y65366328D01*
X13597852Y65366326D01*
X13597851Y65366326D01*
X13458674Y65227149D01*
X13458674Y65227148D01*
X13458672Y65227146D01*
X13408985Y65158759D01*
X13342976Y65067906D01*
X13253617Y64892530D01*
X13192790Y64705327D01*
X13162000Y64510923D01*
X12475500Y64510923D01*
X12475500Y64698423D01*
X12444709Y64892827D01*
X12387822Y65067905D01*
X12383884Y65080025D01*
X12383882Y65080028D01*
X12383882Y65080030D01*
X12336743Y65172545D01*
X12294524Y65255405D01*
X12178828Y65414646D01*
X12039646Y65553828D01*
X11880405Y65669524D01*
X11705029Y65758883D01*
X11517826Y65819710D01*
X11323422Y65850500D01*
X11323417Y65850500D01*
X11126583Y65850500D01*
X11126578Y65850500D01*
X10932173Y65819710D01*
X10744970Y65758883D01*
X10569594Y65669524D01*
X10478741Y65603515D01*
X10410354Y65553828D01*
X10410352Y65553826D01*
X10410351Y65553826D01*
X10271174Y65414649D01*
X10271174Y65414648D01*
X10271172Y65414646D01*
X10236067Y65366328D01*
X10155476Y65255406D01*
X10066117Y65080030D01*
X10005290Y64892827D01*
X9974500Y64698423D01*
X500500Y64698423D01*
X500500Y69037865D01*
X30334500Y69037865D01*
X30334500Y66942130D01*
X30334501Y66942124D01*
X30340908Y66882517D01*
X30391202Y66747672D01*
X30391206Y66747665D01*
X30477452Y66632456D01*
X30477455Y66632453D01*
X30592664Y66546207D01*
X30592671Y66546203D01*
X30727517Y66495909D01*
X30727516Y66495909D01*
X30734444Y66495165D01*
X30787127Y66489500D01*
X32882872Y66489501D01*
X32942483Y66495909D01*
X33077331Y66546204D01*
X33192546Y66632454D01*
X33278796Y66747669D01*
X33329091Y66882517D01*
X33335500Y66942127D01*
X33335499Y68114559D01*
X57099500Y68114559D01*
X57099500Y67865442D01*
X57099501Y67865425D01*
X57132017Y67618439D01*
X57196498Y67377793D01*
X57291830Y67147639D01*
X57291837Y67147624D01*
X57416400Y66931874D01*
X57568060Y66734226D01*
X57568066Y66734219D01*
X57744218Y66558067D01*
X57744225Y66558061D01*
X57941873Y66406401D01*
X58157623Y66281838D01*
X58157638Y66281831D01*
X58256825Y66240747D01*
X58387793Y66186498D01*
X58628435Y66122018D01*
X58875435Y66089500D01*
X58875442Y66089500D01*
X59124558Y66089500D01*
X59124565Y66089500D01*
X59371565Y66122018D01*
X59612207Y66186498D01*
X59842373Y66281836D01*
X60058127Y66406401D01*
X60255776Y66558062D01*
X60431938Y66734224D01*
X60583599Y66931873D01*
X60708164Y67147627D01*
X60803502Y67377793D01*
X60867982Y67618435D01*
X60900500Y67865435D01*
X60900500Y68114565D01*
X60867982Y68361565D01*
X60803502Y68602207D01*
X60708164Y68832373D01*
X60583599Y69048127D01*
X60431938Y69245776D01*
X60431933Y69245782D01*
X60255781Y69421934D01*
X60255774Y69421940D01*
X60058126Y69573600D01*
X59842376Y69698163D01*
X59842361Y69698170D01*
X59612207Y69793502D01*
X59371561Y69857983D01*
X59124575Y69890499D01*
X59124570Y69890500D01*
X59124565Y69890500D01*
X58875435Y69890500D01*
X58875429Y69890500D01*
X58875424Y69890499D01*
X58628438Y69857983D01*
X58387792Y69793502D01*
X58157638Y69698170D01*
X58157623Y69698163D01*
X57941873Y69573600D01*
X57744225Y69421940D01*
X57744218Y69421934D01*
X57568066Y69245782D01*
X57568060Y69245775D01*
X57416400Y69048127D01*
X57291837Y68832377D01*
X57291830Y68832362D01*
X57196498Y68602208D01*
X57132017Y68361562D01*
X57099501Y68114576D01*
X57099500Y68114559D01*
X33335499Y68114559D01*
X33335499Y69037872D01*
X33329091Y69097483D01*
X33278796Y69232331D01*
X33278795Y69232332D01*
X33278793Y69232336D01*
X33192547Y69347545D01*
X33192544Y69347548D01*
X33077335Y69433794D01*
X33077328Y69433798D01*
X32942482Y69484092D01*
X32942483Y69484092D01*
X32882883Y69490499D01*
X32882881Y69490500D01*
X32882873Y69490500D01*
X32882864Y69490500D01*
X30787129Y69490500D01*
X30787123Y69490499D01*
X30727516Y69484092D01*
X30592671Y69433798D01*
X30592664Y69433794D01*
X30477455Y69347548D01*
X30477452Y69347545D01*
X30391206Y69232336D01*
X30391202Y69232329D01*
X30340908Y69097483D01*
X30335602Y69048127D01*
X30334501Y69037877D01*
X30334500Y69037865D01*
X500500Y69037865D01*
X500500Y73774111D01*
X13312000Y73774111D01*
X13312000Y73050889D01*
X13339098Y72879799D01*
X13392627Y72715055D01*
X13471268Y72560712D01*
X13573086Y72420572D01*
X13695572Y72298086D01*
X13835712Y72196268D01*
X13990055Y72117627D01*
X14154799Y72064098D01*
X14325889Y72037000D01*
X14325890Y72037000D01*
X14499110Y72037000D01*
X14499111Y72037000D01*
X14670201Y72064098D01*
X14834945Y72117627D01*
X14989288Y72196268D01*
X15129428Y72298086D01*
X15251914Y72420572D01*
X15312182Y72503525D01*
X15367512Y72546189D01*
X15437126Y72552168D01*
X15498921Y72519562D01*
X15512815Y72503527D01*
X15573086Y72420572D01*
X15695572Y72298086D01*
X15835712Y72196268D01*
X15990055Y72117627D01*
X16154799Y72064098D01*
X16325889Y72037000D01*
X16325890Y72037000D01*
X16499110Y72037000D01*
X16499111Y72037000D01*
X16670201Y72064098D01*
X16834945Y72117627D01*
X16989288Y72196268D01*
X17129428Y72298086D01*
X17251914Y72420572D01*
X17312182Y72503525D01*
X17367512Y72546189D01*
X17437126Y72552168D01*
X17498921Y72519562D01*
X17512815Y72503527D01*
X17573086Y72420572D01*
X17695572Y72298086D01*
X17835712Y72196268D01*
X17990055Y72117627D01*
X18154799Y72064098D01*
X18325889Y72037000D01*
X18325890Y72037000D01*
X18499110Y72037000D01*
X18499111Y72037000D01*
X18670201Y72064098D01*
X18834945Y72117627D01*
X18989288Y72196268D01*
X19129428Y72298086D01*
X19251914Y72420572D01*
X19312182Y72503525D01*
X19367512Y72546189D01*
X19437126Y72552168D01*
X19498921Y72519562D01*
X19512815Y72503527D01*
X19573086Y72420572D01*
X19695572Y72298086D01*
X19835712Y72196268D01*
X19990055Y72117627D01*
X20154799Y72064098D01*
X20325889Y72037000D01*
X20325890Y72037000D01*
X20499110Y72037000D01*
X20499111Y72037000D01*
X20670201Y72064098D01*
X20834945Y72117627D01*
X20989288Y72196268D01*
X21129428Y72298086D01*
X21251914Y72420572D01*
X21312182Y72503525D01*
X21367512Y72546189D01*
X21437126Y72552168D01*
X21498921Y72519562D01*
X21512815Y72503527D01*
X21573086Y72420572D01*
X21695572Y72298086D01*
X21835712Y72196268D01*
X21990055Y72117627D01*
X22154799Y72064098D01*
X22325889Y72037000D01*
X22325890Y72037000D01*
X22499110Y72037000D01*
X22499111Y72037000D01*
X22670201Y72064098D01*
X22834945Y72117627D01*
X22989288Y72196268D01*
X23129428Y72298086D01*
X23237336Y72405995D01*
X23298655Y72439477D01*
X23368347Y72434493D01*
X23424281Y72392622D01*
X23430553Y72383407D01*
X23470182Y72319157D01*
X23594154Y72195185D01*
X23743375Y72103144D01*
X23743380Y72103142D01*
X23909802Y72047995D01*
X23909809Y72047994D01*
X24012519Y72037501D01*
X24162499Y72037501D01*
X24162500Y72037502D01*
X24162500Y73132170D01*
X24182245Y73112425D01*
X24267755Y73063056D01*
X24363130Y73037500D01*
X24461870Y73037500D01*
X24557245Y73063056D01*
X24642755Y73112425D01*
X24662500Y73132170D01*
X24662500Y72037501D01*
X24812472Y72037501D01*
X24812486Y72037502D01*
X24915197Y72047995D01*
X25081619Y72103142D01*
X25081624Y72103144D01*
X25230845Y72195185D01*
X25354815Y72319155D01*
X25446856Y72468376D01*
X25446858Y72468381D01*
X25502005Y72634803D01*
X25502006Y72634810D01*
X25512499Y72737514D01*
X25512500Y72737527D01*
X25512500Y73162500D01*
X24692830Y73162500D01*
X24712575Y73182245D01*
X24761944Y73267755D01*
X24787500Y73363130D01*
X24787500Y73461870D01*
X24761944Y73557245D01*
X24712575Y73642755D01*
X24692830Y73662500D01*
X25512499Y73662500D01*
X25512499Y74087472D01*
X25512498Y74087487D01*
X25502005Y74190198D01*
X25446858Y74356620D01*
X25446856Y74356625D01*
X25354815Y74505846D01*
X25230845Y74629816D01*
X25081624Y74721857D01*
X25081619Y74721859D01*
X24915197Y74777006D01*
X24915190Y74777007D01*
X24812486Y74787500D01*
X24662500Y74787500D01*
X24662500Y73692830D01*
X24642755Y73712575D01*
X24557245Y73761944D01*
X24461870Y73787500D01*
X24363130Y73787500D01*
X24267755Y73761944D01*
X24182245Y73712575D01*
X24162500Y73692830D01*
X24162500Y74787500D01*
X24012527Y74787500D01*
X24012512Y74787499D01*
X23909802Y74777006D01*
X23743380Y74721859D01*
X23743375Y74721857D01*
X23594154Y74629816D01*
X23470184Y74505846D01*
X23430553Y74441593D01*
X23378605Y74394869D01*
X23309642Y74383647D01*
X23245560Y74411490D01*
X23237333Y74419009D01*
X23129430Y74526912D01*
X23129428Y74526914D01*
X22989288Y74628732D01*
X22834945Y74707373D01*
X22670201Y74760902D01*
X22670199Y74760903D01*
X22670198Y74760903D01*
X22538771Y74781719D01*
X22499111Y74788000D01*
X22325889Y74788000D01*
X22286228Y74781719D01*
X22154802Y74760903D01*
X21990052Y74707372D01*
X21835711Y74628732D01*
X21755756Y74570641D01*
X21695572Y74526914D01*
X21695570Y74526912D01*
X21695569Y74526912D01*
X21573088Y74404431D01*
X21573081Y74404422D01*
X21512817Y74321477D01*
X21457487Y74278811D01*
X21387874Y74272833D01*
X21326079Y74305439D01*
X21312183Y74321477D01*
X21251918Y74404422D01*
X21251914Y74404428D01*
X21129428Y74526914D01*
X20989288Y74628732D01*
X20834945Y74707373D01*
X20670201Y74760902D01*
X20670199Y74760903D01*
X20670198Y74760903D01*
X20538771Y74781719D01*
X20499111Y74788000D01*
X20325889Y74788000D01*
X20286228Y74781719D01*
X20154802Y74760903D01*
X19990052Y74707372D01*
X19835711Y74628732D01*
X19755756Y74570641D01*
X19695572Y74526914D01*
X19695570Y74526912D01*
X19695569Y74526912D01*
X19573088Y74404431D01*
X19573081Y74404422D01*
X19512817Y74321477D01*
X19457487Y74278811D01*
X19387874Y74272833D01*
X19326079Y74305439D01*
X19312183Y74321477D01*
X19251918Y74404422D01*
X19251914Y74404428D01*
X19129428Y74526914D01*
X18989288Y74628732D01*
X18834945Y74707373D01*
X18670201Y74760902D01*
X18670199Y74760903D01*
X18670198Y74760903D01*
X18538771Y74781719D01*
X18499111Y74788000D01*
X18325889Y74788000D01*
X18286228Y74781719D01*
X18154802Y74760903D01*
X17990052Y74707372D01*
X17835711Y74628732D01*
X17755756Y74570641D01*
X17695572Y74526914D01*
X17695570Y74526912D01*
X17695569Y74526912D01*
X17573088Y74404431D01*
X17573081Y74404422D01*
X17512817Y74321477D01*
X17457487Y74278811D01*
X17387874Y74272833D01*
X17326079Y74305439D01*
X17312183Y74321477D01*
X17251918Y74404422D01*
X17251914Y74404428D01*
X17129428Y74526914D01*
X16989288Y74628732D01*
X16834945Y74707373D01*
X16670201Y74760902D01*
X16670199Y74760903D01*
X16670198Y74760903D01*
X16538771Y74781719D01*
X16499111Y74788000D01*
X16325889Y74788000D01*
X16286228Y74781719D01*
X16154802Y74760903D01*
X15990052Y74707372D01*
X15835711Y74628732D01*
X15755756Y74570641D01*
X15695572Y74526914D01*
X15695570Y74526912D01*
X15695569Y74526912D01*
X15573088Y74404431D01*
X15573081Y74404422D01*
X15512817Y74321477D01*
X15457487Y74278811D01*
X15387874Y74272833D01*
X15326079Y74305439D01*
X15312183Y74321477D01*
X15251918Y74404422D01*
X15251914Y74404428D01*
X15129428Y74526914D01*
X14989288Y74628732D01*
X14834945Y74707373D01*
X14670201Y74760902D01*
X14670199Y74760903D01*
X14670198Y74760903D01*
X14538771Y74781719D01*
X14499111Y74788000D01*
X14325889Y74788000D01*
X14286228Y74781719D01*
X14154802Y74760903D01*
X13990052Y74707372D01*
X13835711Y74628732D01*
X13755756Y74570641D01*
X13695572Y74526914D01*
X13695570Y74526912D01*
X13695569Y74526912D01*
X13573088Y74404431D01*
X13573088Y74404430D01*
X13573086Y74404428D01*
X13573082Y74404422D01*
X13471268Y74264289D01*
X13392628Y74109948D01*
X13339097Y73945198D01*
X13314121Y73787500D01*
X13312000Y73774111D01*
X500500Y73774111D01*
X500500Y78547314D01*
X3599500Y78547314D01*
X3599500Y78277687D01*
X3629686Y78009781D01*
X3629688Y78009769D01*
X3689684Y77746906D01*
X3689687Y77746898D01*
X3778734Y77492418D01*
X3895714Y77249506D01*
X3895716Y77249503D01*
X4039162Y77021211D01*
X4207266Y76810415D01*
X4397915Y76619766D01*
X4608711Y76451662D01*
X4837003Y76308216D01*
X5079921Y76191233D01*
X5271049Y76124355D01*
X5334397Y76102188D01*
X5334405Y76102185D01*
X5334408Y76102185D01*
X5334409Y76102184D01*
X5597268Y76042188D01*
X5865187Y76012001D01*
X5865188Y76012000D01*
X5865191Y76012000D01*
X6134812Y76012000D01*
X6134812Y76012001D01*
X6402732Y76042188D01*
X6665591Y76102184D01*
X6920079Y76191233D01*
X7162997Y76308216D01*
X7391289Y76451662D01*
X7602085Y76619766D01*
X7792734Y76810415D01*
X7960838Y77021211D01*
X8104284Y77249503D01*
X8221267Y77492421D01*
X8310316Y77746909D01*
X8370312Y78009768D01*
X8400500Y78277691D01*
X8400500Y78547309D01*
X8370312Y78815232D01*
X8310316Y79078091D01*
X8221267Y79332579D01*
X8104284Y79575497D01*
X7960838Y79803789D01*
X7792734Y80014585D01*
X7602085Y80205234D01*
X7391289Y80373338D01*
X7162997Y80516784D01*
X7162994Y80516786D01*
X6920082Y80633766D01*
X6665602Y80722813D01*
X6665594Y80722816D01*
X6468446Y80767813D01*
X6402732Y80782812D01*
X6402728Y80782813D01*
X6402719Y80782814D01*
X6134813Y80813000D01*
X6134809Y80813000D01*
X5865191Y80813000D01*
X5865186Y80813000D01*
X5597280Y80782814D01*
X5597268Y80782812D01*
X5334405Y80722816D01*
X5334397Y80722813D01*
X5079917Y80633766D01*
X4837005Y80516786D01*
X4608712Y80373339D01*
X4397915Y80205235D01*
X4207265Y80014585D01*
X4039161Y79803788D01*
X3895714Y79575495D01*
X3778734Y79332583D01*
X3689687Y79078103D01*
X3689684Y79078095D01*
X3629688Y78815232D01*
X3629686Y78815220D01*
X3599500Y78547314D01*
X500500Y78547314D01*
X500500Y83375500D01*
X520185Y83442539D01*
X572989Y83488294D01*
X624500Y83499500D01*
X90375500Y83499500D01*
X90442539Y83479815D01*
G37*
G04 #@! TD.AperFunction*
G04 #@! TD*
G04 #@! TA.AperFunction,NonConductor*
G36*
X33978030Y27644970D02*
G01*
X34006285Y27623819D01*
X34120213Y27509891D01*
X34292182Y27384950D01*
X34300946Y27380484D01*
X34351742Y27332509D01*
X34368536Y27264688D01*
X34345998Y27198553D01*
X34300946Y27159516D01*
X34292182Y27155051D01*
X34120213Y27030110D01*
X33969890Y26879787D01*
X33844949Y26707818D01*
X33840484Y26699054D01*
X33792509Y26648258D01*
X33724688Y26631464D01*
X33658553Y26654002D01*
X33619516Y26699054D01*
X33615050Y26707818D01*
X33490109Y26879787D01*
X33376181Y26993715D01*
X33342696Y27055038D01*
X33347680Y27124730D01*
X33389552Y27180663D01*
X33420529Y27197578D01*
X33552086Y27246646D01*
X33552093Y27246650D01*
X33667187Y27332810D01*
X33667190Y27332813D01*
X33753350Y27447907D01*
X33753354Y27447914D01*
X33802422Y27579471D01*
X33844293Y27635405D01*
X33909757Y27659822D01*
X33978030Y27644970D01*
G37*
G04 #@! TD.AperFunction*
G04 #@! TA.AperFunction,NonConductor*
G36*
X40343271Y41742315D02*
G01*
X40376549Y41710886D01*
X40458672Y41597854D01*
X40597854Y41458672D01*
X40757095Y41342976D01*
X40846377Y41297485D01*
X40897173Y41249511D01*
X40913968Y41181690D01*
X40891431Y41115555D01*
X40836716Y41072103D01*
X40790082Y41063000D01*
X31548768Y41063000D01*
X31481729Y41082685D01*
X31448450Y41114115D01*
X31413659Y41162000D01*
X31366328Y41227146D01*
X31227146Y41366328D01*
X31067905Y41482024D01*
X30978622Y41527516D01*
X30927827Y41575489D01*
X30911032Y41643310D01*
X30933569Y41709445D01*
X30988284Y41752897D01*
X31034918Y41762000D01*
X40276232Y41762000D01*
X40343271Y41742315D01*
G37*
G04 #@! TD.AperFunction*
M02*
