G04 #@! TF.GenerationSoftware,KiCad,Pcbnew,9.0.4*
G04 #@! TF.CreationDate,2025-11-09T06:41:20+03:00*
G04 #@! TF.ProjectId,FlameSensorSender,466c616d-6553-4656-9e73-6f7253656e64,1*
G04 #@! TF.SameCoordinates,PX3abc02cPY73c9b94*
G04 #@! TF.FileFunction,Copper,L1,Top*
G04 #@! TF.FilePolarity,Positive*
%FSLAX46Y46*%
G04 Gerber Fmt 4.6, Leading zero omitted, Abs format (unit mm)*
G04 Created by KiCad (PCBNEW 9.0.4) date 2025-11-09 06:41:20*
%MOMM*%
%LPD*%
G01*
G04 APERTURE LIST*
G04 Aperture macros list*
%AMRoundRect*
0 Rectangle with rounded corners*
0 $1 Rounding radius*
0 $2 $3 $4 $5 $6 $7 $8 $9 X,Y pos of 4 corners*
0 Add a 4 corners polygon primitive as box body*
4,1,4,$2,$3,$4,$5,$6,$7,$8,$9,$2,$3,0*
0 Add four circle primitives for the rounded corners*
1,1,$1+$1,$2,$3*
1,1,$1+$1,$4,$5*
1,1,$1+$1,$6,$7*
1,1,$1+$1,$8,$9*
0 Add four rect primitives between the rounded corners*
20,1,$1+$1,$2,$3,$4,$5,0*
20,1,$1+$1,$4,$5,$6,$7,0*
20,1,$1+$1,$6,$7,$8,$9,0*
20,1,$1+$1,$8,$9,$2,$3,0*%
G04 Aperture macros list end*
G04 #@! TA.AperFunction,SMDPad,CuDef*
%ADD10RoundRect,0.237500X0.250000X0.237500X-0.250000X0.237500X-0.250000X-0.237500X0.250000X-0.237500X0*%
G04 #@! TD*
G04 #@! TA.AperFunction,SMDPad,CuDef*
%ADD11RoundRect,0.237500X-0.237500X0.300000X-0.237500X-0.300000X0.237500X-0.300000X0.237500X0.300000X0*%
G04 #@! TD*
G04 #@! TA.AperFunction,SMDPad,CuDef*
%ADD12RoundRect,0.237500X-0.300000X-0.237500X0.300000X-0.237500X0.300000X0.237500X-0.300000X0.237500X0*%
G04 #@! TD*
G04 #@! TA.AperFunction,SMDPad,CuDef*
%ADD13RoundRect,0.500000X-0.500000X-0.500000X0.500000X-0.500000X0.500000X0.500000X-0.500000X0.500000X0*%
G04 #@! TD*
G04 #@! TA.AperFunction,SMDPad,CuDef*
%ADD14R,2.625000X5.160000*%
G04 #@! TD*
G04 #@! TA.AperFunction,SMDPad,CuDef*
%ADD15RoundRect,0.237500X-0.250000X-0.237500X0.250000X-0.237500X0.250000X0.237500X-0.250000X0.237500X0*%
G04 #@! TD*
G04 #@! TA.AperFunction,SMDPad,CuDef*
%ADD16RoundRect,0.150000X-0.150000X0.512500X-0.150000X-0.512500X0.150000X-0.512500X0.150000X0.512500X0*%
G04 #@! TD*
G04 #@! TA.AperFunction,SMDPad,CuDef*
%ADD17RoundRect,0.237500X0.237500X-0.250000X0.237500X0.250000X-0.237500X0.250000X-0.237500X-0.250000X0*%
G04 #@! TD*
G04 #@! TA.AperFunction,ComponentPad*
%ADD18R,1.700000X1.700000*%
G04 #@! TD*
G04 #@! TA.AperFunction,ComponentPad*
%ADD19C,1.700000*%
G04 #@! TD*
G04 #@! TA.AperFunction,SMDPad,CuDef*
%ADD20RoundRect,0.237500X-0.237500X0.250000X-0.237500X-0.250000X0.237500X-0.250000X0.237500X0.250000X0*%
G04 #@! TD*
G04 #@! TA.AperFunction,ComponentPad*
%ADD21RoundRect,0.250000X0.350000X0.625000X-0.350000X0.625000X-0.350000X-0.625000X0.350000X-0.625000X0*%
G04 #@! TD*
G04 #@! TA.AperFunction,ComponentPad*
%ADD22O,1.200000X1.750000*%
G04 #@! TD*
G04 #@! TA.AperFunction,SMDPad,CuDef*
%ADD23RoundRect,0.150000X-0.150000X0.587500X-0.150000X-0.587500X0.150000X-0.587500X0.150000X0.587500X0*%
G04 #@! TD*
G04 #@! TA.AperFunction,SMDPad,CuDef*
%ADD24RoundRect,0.250001X-0.462499X-0.624999X0.462499X-0.624999X0.462499X0.624999X-0.462499X0.624999X0*%
G04 #@! TD*
G04 #@! TA.AperFunction,SMDPad,CuDef*
%ADD25R,0.229400X0.806399*%
G04 #@! TD*
G04 #@! TA.AperFunction,ComponentPad*
%ADD26R,2.000000X2.000000*%
G04 #@! TD*
G04 #@! TA.AperFunction,ComponentPad*
%ADD27C,2.000000*%
G04 #@! TD*
G04 #@! TA.AperFunction,SMDPad,CuDef*
%ADD28RoundRect,0.237500X0.237500X-0.287500X0.237500X0.287500X-0.237500X0.287500X-0.237500X-0.287500X0*%
G04 #@! TD*
G04 #@! TA.AperFunction,SMDPad,CuDef*
%ADD29R,1.500000X2.000000*%
G04 #@! TD*
G04 #@! TA.AperFunction,SMDPad,CuDef*
%ADD30RoundRect,0.500000X-0.500000X-1.500000X0.500000X-1.500000X0.500000X1.500000X-0.500000X1.500000X0*%
G04 #@! TD*
G04 #@! TA.AperFunction,SMDPad,CuDef*
%ADD31RoundRect,0.237500X0.300000X0.237500X-0.300000X0.237500X-0.300000X-0.237500X0.300000X-0.237500X0*%
G04 #@! TD*
G04 #@! TA.AperFunction,SMDPad,CuDef*
%ADD32R,0.711200X3.403600*%
G04 #@! TD*
G04 #@! TA.AperFunction,SMDPad,CuDef*
%ADD33R,1.600200X2.387600*%
G04 #@! TD*
G04 #@! TA.AperFunction,SMDPad,CuDef*
%ADD34RoundRect,0.075000X0.662500X0.075000X-0.662500X0.075000X-0.662500X-0.075000X0.662500X-0.075000X0*%
G04 #@! TD*
G04 #@! TA.AperFunction,SMDPad,CuDef*
%ADD35RoundRect,0.075000X0.075000X0.662500X-0.075000X0.662500X-0.075000X-0.662500X0.075000X-0.662500X0*%
G04 #@! TD*
G04 #@! TA.AperFunction,SMDPad,CuDef*
%ADD36RoundRect,0.250000X-0.550000X1.500000X-0.550000X-1.500000X0.550000X-1.500000X0.550000X1.500000X0*%
G04 #@! TD*
G04 #@! TA.AperFunction,SMDPad,CuDef*
%ADD37RoundRect,0.237500X0.237500X-0.300000X0.237500X0.300000X-0.237500X0.300000X-0.237500X-0.300000X0*%
G04 #@! TD*
G04 #@! TA.AperFunction,SMDPad,CuDef*
%ADD38RoundRect,0.093750X0.093750X0.106250X-0.093750X0.106250X-0.093750X-0.106250X0.093750X-0.106250X0*%
G04 #@! TD*
G04 #@! TA.AperFunction,HeatsinkPad*
%ADD39R,1.000000X1.600000*%
G04 #@! TD*
G04 #@! TA.AperFunction,ViaPad*
%ADD40C,1.500000*%
G04 #@! TD*
G04 #@! TA.AperFunction,Conductor*
%ADD41C,0.300000*%
G04 #@! TD*
G04 APERTURE END LIST*
D10*
G04 #@! TO.P,R2,1*
G04 #@! TO.N,Net-(Q1-G)*
X67325000Y8412500D03*
G04 #@! TO.P,R2,2*
G04 #@! TO.N,+3V3*
X65500000Y8412500D03*
G04 #@! TD*
D11*
G04 #@! TO.P,C2,1*
G04 #@! TO.N,+3V3*
X51412500Y16275000D03*
G04 #@! TO.P,C2,2*
G04 #@! TO.N,GNDD*
X51412500Y14550000D03*
G04 #@! TD*
D12*
G04 #@! TO.P,C7,1*
G04 #@! TO.N,GNDD*
X23137500Y52000000D03*
G04 #@! TO.P,C7,2*
G04 #@! TO.N,+3V3*
X24862500Y52000000D03*
G04 #@! TD*
D13*
G04 #@! TO.P,SW2,1,1*
G04 #@! TO.N,/LINK_BUTTON*
X61412500Y30412500D03*
G04 #@! TO.P,SW2,2,2*
G04 #@! TO.N,GNDD*
X67412500Y30412500D03*
G04 #@! TD*
D14*
G04 #@! TO.P,P1,1,VIN*
G04 #@! TO.N,VRAW*
X3800000Y12900000D03*
G04 #@! TO.P,P1,2,GND*
G04 #@! TO.N,GNDD*
X3800000Y5100000D03*
G04 #@! TO.P,P1,3,VOUT*
G04 #@! TO.N,+3V3*
X27000000Y12900000D03*
G04 #@! TO.P,P1,4,GND*
G04 #@! TO.N,GNDD*
X27000000Y5100000D03*
G04 #@! TD*
D15*
G04 #@! TO.P,R9,1*
G04 #@! TO.N,+5V0*
X30087500Y11000000D03*
G04 #@! TO.P,R9,2*
G04 #@! TO.N,/V-LED*
X31912500Y11000000D03*
G04 #@! TD*
D16*
G04 #@! TO.P,Q1,1,G*
G04 #@! TO.N,Net-(Q1-G)*
X67362500Y5550000D03*
G04 #@! TO.P,Q1,2,S*
G04 #@! TO.N,+3V3*
X65462500Y5550000D03*
G04 #@! TO.P,Q1,3,D*
G04 #@! TO.N,Net-(Q1-D)*
X66412500Y3275000D03*
G04 #@! TD*
G04 #@! TO.P,Q3,1,G*
G04 #@! TO.N,Net-(Q3-G)*
X52000000Y7000000D03*
G04 #@! TO.P,Q3,2,S*
G04 #@! TO.N,+5V0*
X50100000Y7000000D03*
G04 #@! TO.P,Q3,3,D*
G04 #@! TO.N,Net-(Q3-D)*
X51050000Y4725000D03*
G04 #@! TD*
D17*
G04 #@! TO.P,R14,1*
G04 #@! TO.N,MOSFET_GATE_SENSOR*
X17000000Y56087500D03*
G04 #@! TO.P,R14,2*
G04 #@! TO.N,Net-(Q5-G)*
X17000000Y57912500D03*
G04 #@! TD*
D18*
G04 #@! TO.P,J1,1,Pin_1*
G04 #@! TO.N,+3V3*
X32460000Y16000000D03*
D19*
G04 #@! TO.P,J1,2,Pin_2*
G04 #@! TO.N,/SWDIO*
X32460000Y18540000D03*
G04 #@! TO.P,J1,3,Pin_3*
G04 #@! TO.N,/SWCLK*
X35000000Y16000000D03*
G04 #@! TO.P,J1,4,Pin_4*
G04 #@! TO.N,GNDD*
X35000000Y18540000D03*
G04 #@! TD*
D12*
G04 #@! TO.P,C5,1*
G04 #@! TO.N,+3V3*
X57550000Y23412500D03*
G04 #@! TO.P,C5,2*
G04 #@! TO.N,GNDD*
X59275000Y23412500D03*
G04 #@! TD*
D20*
G04 #@! TO.P,R10,1*
G04 #@! TO.N,Net-(Q3-D)*
X47000000Y5912500D03*
G04 #@! TO.P,R10,2*
G04 #@! TO.N,Net-(J5-Pin_1)*
X47000000Y4087500D03*
G04 #@! TD*
D21*
G04 #@! TO.P,J7,1,Pin_1*
G04 #@! TO.N,GNDD*
X24412500Y73412500D03*
D22*
G04 #@! TO.P,J7,2,Pin_2*
G04 #@! TO.N,unconnected-(J7-Pin_2-Pad2)*
X22412500Y73412500D03*
G04 #@! TO.P,J7,3,Pin_3*
G04 #@! TO.N,Net-(J7-Pin_3)*
X20412500Y73412500D03*
G04 #@! TO.P,J7,4,Pin_4*
G04 #@! TO.N,Net-(J7-Pin_4)*
X18412500Y73412500D03*
G04 #@! TO.P,J7,5,Pin_5*
G04 #@! TO.N,unconnected-(J7-Pin_5-Pad5)*
X16412500Y73412500D03*
G04 #@! TO.P,J7,6,Pin_6*
G04 #@! TO.N,Net-(IC1-VIN1)*
X14412500Y73412500D03*
G04 #@! TD*
D23*
G04 #@! TO.P,Q4,1,G*
G04 #@! TO.N,Net-(Q4-G)*
X59900000Y5287500D03*
G04 #@! TO.P,Q4,2,S*
G04 #@! TO.N,GNDD*
X58000000Y5287500D03*
G04 #@! TO.P,Q4,3,D*
G04 #@! TO.N,Net-(Q3-G)*
X58950000Y3412500D03*
G04 #@! TD*
D24*
G04 #@! TO.P,D1,1,K*
G04 #@! TO.N,GNDD*
X65512500Y24000000D03*
G04 #@! TO.P,D1,2,A*
G04 #@! TO.N,Net-(D1-A)*
X68487500Y24000000D03*
G04 #@! TD*
D20*
G04 #@! TO.P,R11,1*
G04 #@! TO.N,GNDD*
X21980931Y57620000D03*
G04 #@! TO.P,R11,2*
G04 #@! TO.N,VCC_BAT*
X21980931Y55795000D03*
G04 #@! TD*
D23*
G04 #@! TO.P,Q5,1,G*
G04 #@! TO.N,Net-(Q5-G)*
X13950000Y57800000D03*
G04 #@! TO.P,Q5,2,S*
G04 #@! TO.N,GNDD*
X12050000Y57800000D03*
G04 #@! TO.P,Q5,3,D*
G04 #@! TO.N,Net-(Q5-D)*
X13000000Y55925000D03*
G04 #@! TD*
D14*
G04 #@! TO.P,P2,1,VIN*
G04 #@! TO.N,Net-(P2-VIN)*
X3800000Y30412500D03*
G04 #@! TO.P,P2,2,GND*
G04 #@! TO.N,GNDD*
X3800000Y22612500D03*
G04 #@! TO.P,P2,3,VOUT*
G04 #@! TO.N,+5V0*
X27000000Y30412500D03*
G04 #@! TO.P,P2,4,GND*
G04 #@! TO.N,GNDD*
X27000000Y22612500D03*
G04 #@! TD*
D20*
G04 #@! TO.P,R16,1*
G04 #@! TO.N,Net-(J7-Pin_3)*
X20000000Y68412500D03*
G04 #@! TO.P,R16,2*
G04 #@! TO.N,GNDD*
X20000000Y66587500D03*
G04 #@! TD*
D17*
G04 #@! TO.P,R15,1*
G04 #@! TO.N,Net-(Q5-D)*
X8000000Y61087500D03*
G04 #@! TO.P,R15,2*
G04 #@! TO.N,VRAW*
X8000000Y62912500D03*
G04 #@! TD*
D25*
G04 #@! TO.P,IC1,1,GND@1*
G04 #@! TO.N,GNDD*
X16509811Y61717100D03*
G04 #@! TO.P,IC1,2,VOUT@1*
G04 #@! TO.N,VRAW*
X17009937Y61717100D03*
G04 #@! TO.P,IC1,3,VIN1*
G04 #@! TO.N,Net-(IC1-VIN1)*
X17510063Y61717100D03*
G04 #@! TO.P,IC1,4,ON*
G04 #@! TO.N,GNDD*
X18010189Y61717100D03*
G04 #@! TO.P,IC1,5,GND@2*
X18010189Y63412500D03*
G04 #@! TO.P,IC1,6,VIN2*
G04 #@! TO.N,Net-(BT1-+)*
X17510063Y63412500D03*
G04 #@! TO.P,IC1,7,VOUT@2*
G04 #@! TO.N,VRAW*
X17009937Y63412500D03*
G04 #@! TO.P,IC1,8,ST*
G04 #@! TO.N,INFO_SUPPLY*
X16509811Y63412500D03*
G04 #@! TD*
D26*
G04 #@! TO.P,BT1,1,+*
G04 #@! TO.N,Net-(BT1-+)*
X31835000Y67990000D03*
D27*
G04 #@! TO.P,BT1,2,-*
G04 #@! TO.N,GNDD*
X31835000Y53000000D03*
G04 #@! TD*
D20*
G04 #@! TO.P,R17,1*
G04 #@! TO.N,Net-(J7-Pin_4)*
X17000000Y68412500D03*
G04 #@! TO.P,R17,2*
G04 #@! TO.N,GNDD*
X17000000Y66587500D03*
G04 #@! TD*
D28*
G04 #@! TO.P,FB1,1*
G04 #@! TO.N,Net-(Q1-D)*
X78412500Y5537500D03*
G04 #@! TO.P,FB1,2*
G04 #@! TO.N,Net-(U2-VDD)*
X78412500Y7287500D03*
G04 #@! TD*
D29*
G04 #@! TO.P,U2,1,ANT*
G04 #@! TO.N,unconnected-(U2-ANT-Pad1)*
X73000000Y16000000D03*
G04 #@! TO.P,U2,2,GND*
G04 #@! TO.N,GNDD*
X75000000Y16000000D03*
G04 #@! TO.P,U2,3,VDD*
G04 #@! TO.N,Net-(U2-VDD)*
X77000000Y16000000D03*
G04 #@! TO.P,U2,4,~{RESET}*
G04 #@! TO.N,/LORA_NRST*
X79000000Y16000000D03*
G04 #@! TO.P,U2,5,VCCPA*
G04 #@! TO.N,unconnected-(U2-VCCPA-Pad5)*
X81000000Y16000000D03*
G04 #@! TO.P,U2,6,DIO1*
G04 #@! TO.N,/LORA_DIO1*
X83000000Y16000000D03*
G04 #@! TO.P,U2,7,DIO2*
G04 #@! TO.N,unconnected-(U2-DIO2-Pad7)*
X85000000Y16000000D03*
G04 #@! TO.P,U2,8,DIO3*
G04 #@! TO.N,unconnected-(U2-DIO3-Pad8)*
X87000000Y16000000D03*
G04 #@! TO.P,U2,9,GND*
G04 #@! TO.N,GNDD*
X87000000Y32000000D03*
G04 #@! TO.P,U2,10,BUSY*
G04 #@! TO.N,/LORA_BUSY*
X85000000Y32000000D03*
G04 #@! TO.P,U2,11,RF_EN*
G04 #@! TO.N,unconnected-(U2-RF_EN-Pad11)*
X83000000Y32000000D03*
G04 #@! TO.P,U2,12,SCK*
G04 #@! TO.N,/LORA_SCK*
X81000000Y32000000D03*
G04 #@! TO.P,U2,13,MISO*
G04 #@! TO.N,/LORA_MISO*
X79000000Y32000000D03*
G04 #@! TO.P,U2,14,MOSI*
G04 #@! TO.N,/LORA_MOSI*
X77000000Y32000000D03*
G04 #@! TO.P,U2,15,~{NSS}*
G04 #@! TO.N,/LORA_NSS*
X75000000Y32000000D03*
G04 #@! TO.P,U2,16,GND*
G04 #@! TO.N,GNDD*
X73000000Y32000000D03*
G04 #@! TD*
D15*
G04 #@! TO.P,R4,1*
G04 #@! TO.N,/INFO_LED*
X68087500Y19412500D03*
G04 #@! TO.P,R4,2*
G04 #@! TO.N,Net-(D1-A)*
X69912500Y19412500D03*
G04 #@! TD*
D20*
G04 #@! TO.P,R3,1*
G04 #@! TO.N,/MOSFET_GATE_LORA*
X76412500Y7325000D03*
G04 #@! TO.P,R3,2*
G04 #@! TO.N,Net-(Q2-G)*
X76412500Y5500000D03*
G04 #@! TD*
D18*
G04 #@! TO.P,J2,1,Pin_1*
G04 #@! TO.N,GNDD*
X32460000Y28540000D03*
D19*
G04 #@! TO.P,J2,2,Pin_2*
G04 #@! TO.N,/USART1_TX*
X35000000Y28540000D03*
G04 #@! TO.P,J2,3,Pin_3*
G04 #@! TO.N,unconnected-(J2-Pin_3-Pad3)*
X32460000Y26000000D03*
G04 #@! TO.P,J2,4,Pin_4*
G04 #@! TO.N,/USART1_RX*
X35000000Y26000000D03*
G04 #@! TD*
D30*
G04 #@! TO.P,J6,1,Pin_1*
G04 #@! TO.N,GNDD*
X40000000Y4000000D03*
G04 #@! TD*
D31*
G04 #@! TO.P,C1,1*
G04 #@! TO.N,+3V3*
X44000000Y19000000D03*
G04 #@! TO.P,C1,2*
G04 #@! TO.N,GNDD*
X42275000Y19000000D03*
G04 #@! TD*
D30*
G04 #@! TO.P,J5,1,Pin_1*
G04 #@! TO.N,Net-(J5-Pin_1)*
X43000000Y4000000D03*
G04 #@! TD*
D17*
G04 #@! TO.P,R6,1*
G04 #@! TO.N,/SENSOR DATA Vo*
X52000000Y37500000D03*
G04 #@! TO.P,R6,2*
G04 #@! TO.N,GNDD*
X52000000Y39325000D03*
G04 #@! TD*
G04 #@! TO.P,R8,1*
G04 #@! TO.N,Net-(Q4-G)*
X63000000Y3412500D03*
G04 #@! TO.P,R8,2*
G04 #@! TO.N,/BUZZER*
X63000000Y5237500D03*
G04 #@! TD*
D20*
G04 #@! TO.P,R13,1*
G04 #@! TO.N,Net-(IC1-VIN1)*
X27412500Y61325000D03*
G04 #@! TO.P,R13,2*
G04 #@! TO.N,INFO_SUPPLY*
X27412500Y59500000D03*
G04 #@! TD*
D17*
G04 #@! TO.P,R7,1*
G04 #@! TO.N,+5V0*
X55000000Y5087500D03*
G04 #@! TO.P,R7,2*
G04 #@! TO.N,Net-(Q3-G)*
X55000000Y6912500D03*
G04 #@! TD*
D32*
G04 #@! TO.P,J3,1,Pin_1*
G04 #@! TO.N,+5V0*
X20162500Y39412500D03*
G04 #@! TO.P,J3,2,Pin_2*
G04 #@! TO.N,/Vo*
X18662501Y39412500D03*
G04 #@! TO.P,J3,3,Pin_3*
G04 #@! TO.N,GNDD*
X17162501Y39412500D03*
G04 #@! TO.P,J3,4,Pin_4*
G04 #@! TO.N,/SENSOR_LED*
X15662499Y39412500D03*
G04 #@! TO.P,J3,5,Pin_5*
G04 #@! TO.N,GNDD*
X14162499Y39412500D03*
G04 #@! TO.P,J3,6,Pin_6*
G04 #@! TO.N,/V-LED*
X12662500Y39412500D03*
D33*
G04 #@! TO.P,J3,7*
G04 #@! TO.N,N/C*
X22212501Y37462499D03*
G04 #@! TO.P,J3,8*
X10612499Y37462499D03*
G04 #@! TD*
D34*
G04 #@! TO.P,U1,1,VBAT*
G04 #@! TO.N,+3V3*
X53000000Y20325000D03*
G04 #@! TO.P,U1,2,PC13*
G04 #@! TO.N,unconnected-(U1-PC13-Pad2)*
X53000000Y20825000D03*
G04 #@! TO.P,U1,3,PC14*
G04 #@! TO.N,/INFO_LED*
X53000000Y21325000D03*
G04 #@! TO.P,U1,4,PC15*
G04 #@! TO.N,unconnected-(U1-PC15-Pad4)*
X53000000Y21825000D03*
G04 #@! TO.P,U1,5,PD0*
G04 #@! TO.N,unconnected-(U1-PD0-Pad5)*
X53000000Y22325000D03*
G04 #@! TO.P,U1,6,PD1*
G04 #@! TO.N,unconnected-(U1-PD1-Pad6)*
X53000000Y22825000D03*
G04 #@! TO.P,U1,7,NRST*
G04 #@! TO.N,/RESET_PIN*
X53000000Y23325000D03*
G04 #@! TO.P,U1,8,VSSA*
G04 #@! TO.N,GNDD*
X53000000Y23825000D03*
G04 #@! TO.P,U1,9,VDDA*
G04 #@! TO.N,+3V3*
X53000000Y24325000D03*
G04 #@! TO.P,U1,10,PA0*
G04 #@! TO.N,/SENSOR DATA Vo*
X53000000Y24825000D03*
G04 #@! TO.P,U1,11,PA1*
G04 #@! TO.N,VCC_BAT*
X53000000Y25325000D03*
G04 #@! TO.P,U1,12,PA2*
G04 #@! TO.N,/LINK_BUTTON*
X53000000Y25825000D03*
D35*
G04 #@! TO.P,U1,13,PA3*
G04 #@! TO.N,/LORA_BUSY*
X51587500Y27237500D03*
G04 #@! TO.P,U1,14,PA4*
G04 #@! TO.N,/LORA_NSS*
X51087500Y27237500D03*
G04 #@! TO.P,U1,15,PA5*
G04 #@! TO.N,/LORA_SCK*
X50587500Y27237500D03*
G04 #@! TO.P,U1,16,PA6*
G04 #@! TO.N,/LORA_MISO*
X50087500Y27237500D03*
G04 #@! TO.P,U1,17,PA7*
G04 #@! TO.N,/LORA_MOSI*
X49587500Y27237500D03*
G04 #@! TO.P,U1,18,PB0*
G04 #@! TO.N,/LORA_DIO1*
X49087500Y27237500D03*
G04 #@! TO.P,U1,19,PB1*
G04 #@! TO.N,/LORA_NRST*
X48587500Y27237500D03*
G04 #@! TO.P,U1,20,PB2*
G04 #@! TO.N,unconnected-(U1-PB2-Pad20)*
X48087500Y27237500D03*
G04 #@! TO.P,U1,21,PB10*
G04 #@! TO.N,MOSFET_GATE_SENSOR*
X47587500Y27237500D03*
G04 #@! TO.P,U1,22,PB11*
G04 #@! TO.N,/MOSFET_GATE_LORA*
X47087500Y27237500D03*
G04 #@! TO.P,U1,23,VSS*
G04 #@! TO.N,GNDD*
X46587500Y27237500D03*
G04 #@! TO.P,U1,24,VDD*
G04 #@! TO.N,+3V3*
X46087500Y27237500D03*
D34*
G04 #@! TO.P,U1,25,PB12*
G04 #@! TO.N,/SENSOR_LED*
X44675000Y25825000D03*
G04 #@! TO.P,U1,26,PB13*
G04 #@! TO.N,unconnected-(U1-PB13-Pad26)*
X44675000Y25325000D03*
G04 #@! TO.P,U1,27,PB14*
G04 #@! TO.N,unconnected-(U1-PB14-Pad27)*
X44675000Y24825000D03*
G04 #@! TO.P,U1,28,PB15*
G04 #@! TO.N,unconnected-(U1-PB15-Pad28)*
X44675000Y24325000D03*
G04 #@! TO.P,U1,29,PA8*
G04 #@! TO.N,unconnected-(U1-PA8-Pad29)*
X44675000Y23825000D03*
G04 #@! TO.P,U1,30,PA9*
G04 #@! TO.N,/USART1_TX*
X44675000Y23325000D03*
G04 #@! TO.P,U1,31,PA10*
G04 #@! TO.N,/USART1_RX*
X44675000Y22825000D03*
G04 #@! TO.P,U1,32,PA11*
G04 #@! TO.N,unconnected-(U1-PA11-Pad32)*
X44675000Y22325000D03*
G04 #@! TO.P,U1,33,PA12*
G04 #@! TO.N,unconnected-(U1-PA12-Pad33)*
X44675000Y21825000D03*
G04 #@! TO.P,U1,34,PA13*
G04 #@! TO.N,/SWDIO*
X44675000Y21325000D03*
G04 #@! TO.P,U1,35,VSS*
G04 #@! TO.N,GNDD*
X44675000Y20825000D03*
G04 #@! TO.P,U1,36,VDD*
G04 #@! TO.N,+3V3*
X44675000Y20325000D03*
D35*
G04 #@! TO.P,U1,37,PA14*
G04 #@! TO.N,/SWCLK*
X46087500Y18912500D03*
G04 #@! TO.P,U1,38,PA15*
G04 #@! TO.N,/BUZZER*
X46587500Y18912500D03*
G04 #@! TO.P,U1,39,PB3*
G04 #@! TO.N,unconnected-(U1-PB3-Pad39)*
X47087500Y18912500D03*
G04 #@! TO.P,U1,40,PB4*
G04 #@! TO.N,unconnected-(U1-PB4-Pad40)*
X47587500Y18912500D03*
G04 #@! TO.P,U1,41,PB5*
G04 #@! TO.N,unconnected-(U1-PB5-Pad41)*
X48087500Y18912500D03*
G04 #@! TO.P,U1,42,PB6*
G04 #@! TO.N,INFO_SUPPLY*
X48587500Y18912500D03*
G04 #@! TO.P,U1,43,PB7*
G04 #@! TO.N,unconnected-(U1-PB7-Pad43)*
X49087500Y18912500D03*
G04 #@! TO.P,U1,44,BOOT0*
G04 #@! TO.N,unconnected-(U1-BOOT0-Pad44)*
X49587500Y18912500D03*
G04 #@! TO.P,U1,45,PB8*
G04 #@! TO.N,unconnected-(U1-PB8-Pad45)*
X50087500Y18912500D03*
G04 #@! TO.P,U1,46,PB9*
G04 #@! TO.N,unconnected-(U1-PB9-Pad46)*
X50587500Y18912500D03*
G04 #@! TO.P,U1,47,VSS*
G04 #@! TO.N,GNDD*
X51087500Y18912500D03*
G04 #@! TO.P,U1,48,VDD*
G04 #@! TO.N,+3V3*
X51587500Y18912500D03*
G04 #@! TD*
D16*
G04 #@! TO.P,Q6,1,G*
G04 #@! TO.N,Net-(Q5-D)*
X8950000Y58000000D03*
G04 #@! TO.P,Q6,2,S*
G04 #@! TO.N,VRAW*
X7050000Y58000000D03*
G04 #@! TO.P,Q6,3,D*
G04 #@! TO.N,Net-(P2-VIN)*
X8000000Y55725000D03*
G04 #@! TD*
D12*
G04 #@! TO.P,C3,1*
G04 #@! TO.N,+3V3*
X55000000Y18412500D03*
G04 #@! TO.P,C3,2*
G04 #@! TO.N,GNDD*
X56725000Y18412500D03*
G04 #@! TD*
D27*
G04 #@! TO.P,SW1,1,1*
G04 #@! TO.N,GNDD*
X12500000Y51500000D03*
X19000000Y51500000D03*
G04 #@! TO.P,SW1,2,2*
G04 #@! TO.N,/RESET_PIN*
X12500000Y47000000D03*
X19000000Y47000000D03*
G04 #@! TD*
D23*
G04 #@! TO.P,Q2,1,G*
G04 #@! TO.N,Net-(Q2-G)*
X71950000Y6350000D03*
G04 #@! TO.P,Q2,2,S*
G04 #@! TO.N,GNDD*
X70050000Y6350000D03*
G04 #@! TO.P,Q2,3,D*
G04 #@! TO.N,Net-(Q1-G)*
X71000000Y4475000D03*
G04 #@! TD*
D36*
G04 #@! TO.P,C8,1*
G04 #@! TO.N,/V-LED*
X34000000Y8400000D03*
G04 #@! TO.P,C8,2*
G04 #@! TO.N,GNDD*
X34000000Y3000000D03*
G04 #@! TD*
D20*
G04 #@! TO.P,R12,1*
G04 #@! TO.N,Net-(BT1-+)*
X24000000Y57620000D03*
G04 #@! TO.P,R12,2*
G04 #@! TO.N,VCC_BAT*
X24000000Y55795000D03*
G04 #@! TD*
D37*
G04 #@! TO.P,C4,1*
G04 #@! TO.N,/RESET_PIN*
X23000000Y46050000D03*
G04 #@! TO.P,C4,2*
G04 #@! TO.N,GNDD*
X23000000Y47775000D03*
G04 #@! TD*
D17*
G04 #@! TO.P,R5,1*
G04 #@! TO.N,/SENSOR DATA Vo*
X49000000Y37587500D03*
G04 #@! TO.P,R5,2*
G04 #@! TO.N,/Vo*
X49000000Y39412500D03*
G04 #@! TD*
D20*
G04 #@! TO.P,R1,1*
G04 #@! TO.N,+3V3*
X25000000Y47825000D03*
G04 #@! TO.P,R1,2*
G04 #@! TO.N,/RESET_PIN*
X25000000Y46000000D03*
G04 #@! TD*
D38*
G04 #@! TO.P,U3,1,GND*
G04 #@! TO.N,GNDD*
X13000000Y67200000D03*
G04 #@! TO.P,U3,2,GND*
X13000000Y67850000D03*
G04 #@! TO.P,U3,3,GND*
X13000000Y68500000D03*
G04 #@! TO.P,U3,4,IN*
G04 #@! TO.N,Net-(IC1-VIN1)*
X11225000Y68500000D03*
G04 #@! TO.P,U3,5,IN*
X11225000Y67850000D03*
G04 #@! TO.P,U3,6,IN*
X11225000Y67200000D03*
D39*
G04 #@! TO.P,U3,7,GND*
G04 #@! TO.N,GNDD*
X12112500Y67850000D03*
G04 #@! TD*
D37*
G04 #@! TO.P,C6,1*
G04 #@! TO.N,+3V3*
X43412500Y29550000D03*
G04 #@! TO.P,C6,2*
G04 #@! TO.N,GNDD*
X43412500Y31275000D03*
G04 #@! TD*
D40*
G04 #@! TO.N,VCC_BAT*
X52236399Y41648899D03*
G04 #@! TO.N,/RESET_PIN*
X55400000Y22245538D03*
G04 #@! TO.N,GNDD*
X60412500Y25412500D03*
G04 #@! TO.N,/RESET_PIN*
X30412500Y40412500D03*
G04 #@! TO.N,GNDD*
X68487772Y7332867D03*
G04 #@! TO.N,/MOSFET_GATE_LORA*
X74162500Y8162500D03*
X45475673Y29475673D03*
G04 #@! TO.N,GNDD*
X23412500Y68412500D03*
X12412500Y17412500D03*
X41412500Y20412500D03*
X87000000Y35412500D03*
X57412500Y7412500D03*
X20412500Y62412500D03*
X16412500Y43412500D03*
X69412500Y28412500D03*
X58412500Y17412500D03*
X38000000Y4000000D03*
X3718000Y17412500D03*
X14717100Y61717100D03*
X10412500Y60000000D03*
X63000000Y25000000D03*
X22412500Y59412500D03*
X48412500Y42412500D03*
X50412500Y10412500D03*
X41412500Y32412500D03*
X13412500Y43412500D03*
X25412500Y17412500D03*
G04 #@! TO.N,+3V3*
X39412500Y20412500D03*
X39412500Y27412500D03*
G04 #@! TO.N,/SWCLK*
X42412500Y14412500D03*
X39412500Y14412500D03*
G04 #@! TO.N,/INFO_LED*
X55393077Y20431923D03*
X58487500Y19487500D03*
G04 #@! TO.N,/LORA_MOSI*
X69587500Y40412500D03*
X75000000Y35000000D03*
G04 #@! TO.N,/LORA_MISO*
X72787494Y39037506D03*
X77000000Y35000000D03*
G04 #@! TO.N,INFO_SUPPLY*
X44412500Y37412500D03*
X19412500Y58412500D03*
X27412500Y54412500D03*
X27412500Y57412500D03*
X47737500Y16412500D03*
X14412500Y64412500D03*
G04 #@! TO.N,/LORA_DIO1*
X49737500Y32412500D03*
X80412500Y10412500D03*
G04 #@! TO.N,/LORA_BUSY*
X58412500Y33412500D03*
X67412500Y42412500D03*
G04 #@! TO.N,/LORA_NRST*
X79000000Y13000000D03*
X51412500Y35412500D03*
G04 #@! TO.N,Net-(P2-VIN)*
X5412500Y34412500D03*
X5412500Y40412500D03*
G04 #@! TO.N,/V-LED*
X18412500Y17216951D03*
X30914474Y9007879D03*
G04 #@! TO.N,/BUZZER*
X61412500Y10412500D03*
X63000000Y7000000D03*
X48412500Y12412500D03*
X57500000Y12500000D03*
G04 #@! TO.N,VCC_BAT*
X59412500Y29099327D03*
G04 #@! TO.N,Net-(IC1-VIN1)*
X11225000Y64600000D03*
X11412500Y61719851D03*
X25412500Y62412500D03*
X22850000Y62411682D03*
G04 #@! TO.N,/SENSOR_LED*
X36912500Y32912500D03*
X32412500Y37412500D03*
X42750000Y27750000D03*
X24412500Y35412500D03*
G04 #@! TO.N,/SENSOR DATA Vo*
X54412500Y36412500D03*
X58412500Y27412500D03*
G04 #@! TO.N,/Vo*
X26412500Y42412500D03*
X41412500Y42412500D03*
G04 #@! TD*
D41*
G04 #@! TO.N,/LORA_SCK*
X81000000Y33825000D02*
X81000000Y32627760D01*
X77563500Y37261500D02*
X81000000Y33825000D01*
X59261500Y37261500D02*
X77563500Y37261500D01*
X50587500Y28587500D02*
X59261500Y37261500D01*
X50587500Y27237500D02*
X50587500Y28587500D01*
G04 #@! TO.N,/LORA_NSS*
X72825000Y35000000D02*
X72250000Y35000000D01*
X75000000Y32000000D02*
X75000000Y32825000D01*
X75000000Y32825000D02*
X72825000Y35000000D01*
G04 #@! TO.N,/LORA_NRST*
X79000000Y13000000D02*
X79000000Y16000000D01*
G04 #@! TO.N,Net-(P2-VIN)*
X5412500Y32025000D02*
X3800000Y30412500D01*
X5412500Y34412500D02*
X5412500Y32025000D01*
G04 #@! TO.N,GNDD*
X22412500Y59412500D02*
X22311053Y59311053D01*
X22311053Y57950122D02*
X21980931Y57620000D01*
X22311053Y59311053D02*
X22311053Y57950122D01*
G04 #@! TO.N,/V-LED*
X31912500Y10005905D02*
X31912500Y11000000D01*
X30914474Y9007879D02*
X31912500Y10005905D01*
X30914474Y9007879D02*
X31922353Y8000000D01*
X31922353Y8000000D02*
X33600000Y8000000D01*
G04 #@! TO.N,GNDD*
X59412500Y24412500D02*
X60412500Y25412500D01*
X59412500Y23550000D02*
X59412500Y24412500D01*
G04 #@! TO.N,+3V3*
X57550000Y20962500D02*
X57550000Y23412500D01*
X56325000Y24325000D02*
X57237500Y23412500D01*
X53000000Y24325000D02*
X56325000Y24325000D01*
X55000000Y18412500D02*
X57550000Y20962500D01*
G04 #@! TO.N,/LORA_NRST*
X50412500Y35412500D02*
X48587500Y33587500D01*
X48587500Y33587500D02*
X48587500Y27237500D01*
X51412500Y35412500D02*
X50412500Y35412500D01*
G04 #@! TO.N,GNDD*
X57412500Y18412500D02*
X56725000Y18412500D01*
X58412500Y17412500D02*
X57412500Y18412500D01*
G04 #@! TO.N,/INFO_LED*
X58487500Y19487500D02*
X58562500Y19412500D01*
X58562500Y19412500D02*
X68087500Y19412500D01*
G04 #@! TO.N,GNDD*
X69067133Y7332867D02*
X70050000Y6350000D01*
X68487772Y7332867D02*
X69067133Y7332867D01*
G04 #@! TO.N,+3V3*
X51412500Y16275000D02*
X52862500Y16275000D01*
X52862500Y16275000D02*
X55000000Y18412500D01*
G04 #@! TO.N,GNDD*
X87000000Y35412500D02*
X87000000Y32000000D01*
G04 #@! TO.N,/SENSOR_LED*
X42750000Y27750000D02*
X44675000Y25825000D01*
G04 #@! TO.N,+3V3*
X41550000Y29550000D02*
X43412500Y29550000D01*
X40137500Y28137500D02*
X41550000Y29550000D01*
G04 #@! TO.N,INFO_SUPPLY*
X44412500Y37412500D02*
X27412500Y54412500D01*
G04 #@! TO.N,/MOSFET_GATE_LORA*
X47087500Y28136098D02*
X47087500Y27237500D01*
X45747925Y29475673D02*
X47087500Y28136098D01*
X45475673Y29475673D02*
X45747925Y29475673D01*
G04 #@! TO.N,+3V3*
X43775000Y29550000D02*
X46087500Y27237500D01*
X43412500Y29550000D02*
X43775000Y29550000D01*
G04 #@! TO.N,GNDD*
X42137500Y32412500D02*
X43275000Y31275000D01*
X41412500Y32412500D02*
X42137500Y32412500D01*
G04 #@! TO.N,/RESET_PIN*
X25000000Y45825000D02*
X30412500Y40412500D01*
X54320538Y23325000D02*
X55400000Y22245538D01*
X53000000Y23325000D02*
X54320538Y23325000D01*
G04 #@! TO.N,/INFO_LED*
X54500000Y21325000D02*
X55393077Y20431923D01*
X53000000Y21325000D02*
X54500000Y21325000D01*
G04 #@! TO.N,+3V3*
X53162500Y19662500D02*
X54412500Y18412500D01*
X54412500Y18412500D02*
X55000000Y18412500D01*
X53000000Y19662500D02*
X53162500Y19662500D01*
G04 #@! TO.N,MOSFET_GATE_SENSOR*
X19675000Y53412500D02*
X17000000Y56087500D01*
X26412500Y53412500D02*
X19675000Y53412500D01*
X47587500Y32237500D02*
X26412500Y53412500D01*
X47587500Y27237500D02*
X47587500Y32237500D01*
G04 #@! TO.N,Net-(Q1-G)*
X68437500Y4475000D02*
X67362500Y5550000D01*
X71000000Y4475000D02*
X68437500Y4475000D01*
G04 #@! TO.N,Net-(Q2-G)*
X73800000Y5500000D02*
X72950000Y6350000D01*
X76412500Y5500000D02*
X73800000Y5500000D01*
X72950000Y6350000D02*
X71950000Y6350000D01*
G04 #@! TO.N,/MOSFET_GATE_LORA*
X75000000Y7325000D02*
X76412500Y7325000D01*
X74162500Y8162500D02*
X75000000Y7325000D01*
G04 #@! TO.N,Net-(U2-VDD)*
X77000000Y8700000D02*
X77000000Y16000000D01*
X78412500Y7287500D02*
X77000000Y8700000D01*
G04 #@! TO.N,Net-(Q1-D)*
X69587500Y2412500D02*
X75412500Y2412500D01*
X77000000Y4125000D02*
X78412500Y5537500D01*
X68725000Y3275000D02*
X69587500Y2412500D01*
X66412500Y3275000D02*
X68725000Y3275000D01*
X75412500Y2412500D02*
X77000000Y4000000D01*
X77000000Y4000000D02*
X77000000Y4125000D01*
G04 #@! TO.N,+3V3*
X65500000Y7400000D02*
X65500000Y8412500D01*
X65462500Y7362500D02*
X65500000Y7400000D01*
X65462500Y6362500D02*
X65462500Y7362500D01*
G04 #@! TO.N,Net-(Q1-G)*
X67325000Y8412500D02*
X67325000Y5587500D01*
G04 #@! TO.N,+3V3*
X44000000Y9000000D02*
X41000000Y12000000D01*
X62825000Y9000000D02*
X44000000Y9000000D01*
X65462500Y6362500D02*
X62825000Y9000000D01*
X65462500Y5550000D02*
X65462500Y6362500D01*
X39412500Y28862500D02*
X39412500Y29412500D01*
X40137500Y28137500D02*
X39412500Y28862500D01*
X39412500Y29412500D02*
X39412500Y33412500D01*
G04 #@! TO.N,/SWDIO*
X43024000Y21801000D02*
X35721000Y21801000D01*
X43500000Y21325000D02*
X43024000Y21801000D01*
X35721000Y21801000D02*
X32460000Y18540000D01*
X44675000Y21325000D02*
X43500000Y21325000D01*
G04 #@! TO.N,GNDD*
X41412500Y20412500D02*
X41825000Y20825000D01*
X41412500Y19862500D02*
X42275000Y19000000D01*
X41825000Y20825000D02*
X44675000Y20825000D01*
X41412500Y20412500D02*
X41412500Y19862500D01*
G04 #@! TO.N,+3V3*
X39412500Y27412500D02*
X40137500Y28137500D01*
G04 #@! TO.N,Net-(BT1-+)*
X17510063Y63412500D02*
X17510063Y64082273D01*
X26690000Y67990000D02*
X23050000Y64350000D01*
X24000000Y63400000D02*
X24000000Y57620000D01*
X31835000Y67990000D02*
X26690000Y67990000D01*
X23050000Y64350000D02*
X24000000Y63400000D01*
X17777790Y64350000D02*
X23050000Y64350000D01*
X17510063Y64082273D02*
X17777790Y64350000D01*
G04 #@! TO.N,GNDD*
X58000000Y6825000D02*
X57412500Y7412500D01*
X87000000Y30000000D02*
X86000000Y29000000D01*
X12412500Y17412500D02*
X12412500Y14412500D01*
X21725000Y5100000D02*
X27000000Y5100000D01*
X14162499Y42662501D02*
X13412500Y43412500D01*
X70412500Y27412500D02*
X74412500Y27412500D01*
X11503750Y60000000D02*
X12050000Y59453750D01*
X1412500Y15107000D02*
X1412500Y7487500D01*
X50412500Y10412500D02*
X50412500Y13550000D01*
X13000000Y68500000D02*
X13000000Y67200000D01*
X35000000Y4000000D02*
X38000000Y4000000D01*
X75000000Y16000000D02*
X75000000Y19000000D01*
X34000000Y3000000D02*
X35000000Y4000000D01*
X40000000Y4000000D02*
X38000000Y4000000D01*
X69412500Y28412500D02*
X70412500Y27412500D01*
X58000000Y5287500D02*
X58000000Y6825000D01*
X20000000Y66587500D02*
X17000000Y66587500D01*
X65512500Y24000000D02*
X64000000Y24000000D01*
X73000000Y30000000D02*
X74000000Y29000000D01*
X10412500Y60000000D02*
X11503750Y60000000D01*
X12112500Y67850000D02*
X13000000Y67850000D01*
X87000000Y32000000D02*
X87000000Y30000000D01*
X14162499Y42662501D02*
X14162499Y39412500D01*
X48412500Y42412500D02*
X51500000Y39325000D01*
X19412500Y63412500D02*
X20412500Y62412500D01*
X22725000Y47775000D02*
X19000000Y51500000D01*
X73000000Y32000000D02*
X73000000Y30000000D01*
X17000000Y66587500D02*
X13612500Y66587500D01*
X18010189Y63412500D02*
X19412500Y63412500D01*
X27000000Y19000000D02*
X27000000Y20200000D01*
X25412500Y17412500D02*
X27000000Y19000000D01*
X12412500Y14412500D02*
X21725000Y5100000D01*
X13612500Y66587500D02*
X13000000Y67200000D01*
X50412500Y13550000D02*
X51412500Y14550000D01*
X23412500Y68412500D02*
X21412500Y66412500D01*
X1412500Y7487500D02*
X3800000Y5100000D01*
X21412500Y66412500D02*
X20262500Y66412500D01*
X18010189Y63412500D02*
X18010189Y61717100D01*
X23137500Y52000000D02*
X19500000Y52000000D01*
X14717100Y61717100D02*
X16509811Y61717100D01*
X69412500Y28412500D02*
X67412500Y30412500D01*
X12050000Y59453750D02*
X12050000Y57800000D01*
X3718000Y17412500D02*
X1412500Y15107000D01*
X64000000Y24000000D02*
X63000000Y25000000D01*
X3718000Y17412500D02*
X3800000Y17494500D01*
X17162501Y42662499D02*
X17162501Y39412500D01*
X51500000Y39325000D02*
X52000000Y39325000D01*
X17162501Y42662499D02*
X16412500Y43412500D01*
X3800000Y17494500D02*
X3800000Y22612500D01*
G04 #@! TO.N,+3V3*
X52250000Y18912500D02*
X51587500Y18912500D01*
X53000000Y19662500D02*
X52250000Y18912500D01*
X39412500Y27412500D02*
X39412500Y29412500D01*
X41000000Y12000000D02*
X41000000Y15412500D01*
X42412500Y16412500D02*
X41000000Y16412500D01*
X44000000Y18000000D02*
X42412500Y16412500D01*
X38100000Y12900000D02*
X31000000Y12900000D01*
X41000000Y15412500D02*
X41000000Y18825000D01*
X44000000Y19000000D02*
X44000000Y18000000D01*
X41000000Y18825000D02*
X39412500Y20412500D01*
X39000000Y12000000D02*
X38100000Y12900000D01*
X41000000Y16412500D02*
X41000000Y15412500D01*
X53412500Y11412500D02*
X51000000Y9000000D01*
X31000000Y12900000D02*
X27600000Y12900000D01*
X51550000Y16275000D02*
X53412500Y14412500D01*
X53000000Y20325000D02*
X53000000Y19662500D01*
X24862500Y52000000D02*
X24862500Y47962500D01*
X39412500Y33412500D02*
X25000000Y47825000D01*
X44675000Y19675000D02*
X44000000Y19000000D01*
X51587500Y18912500D02*
X51587500Y16450000D01*
X32460000Y16000000D02*
X32460000Y14360000D01*
X53412500Y14412500D02*
X53412500Y11412500D01*
X41000000Y12000000D02*
X39000000Y12000000D01*
X32460000Y14360000D02*
X31000000Y12900000D01*
X44675000Y20325000D02*
X44675000Y19675000D01*
G04 #@! TO.N,/RESET_PIN*
X21100000Y47000000D02*
X19000000Y47000000D01*
X19000000Y47000000D02*
X12500000Y47000000D01*
X22050000Y46050000D02*
X21100000Y47000000D01*
X25000000Y46000000D02*
X23050000Y46000000D01*
X23000000Y46050000D02*
X22050000Y46050000D01*
G04 #@! TO.N,VRAW*
X8000000Y62912500D02*
X6000000Y62912500D01*
X9412500Y33175645D02*
X9412500Y18512500D01*
X16925511Y62471299D02*
X17009937Y62386873D01*
X9412500Y18512500D02*
X3800000Y12900000D01*
X6000000Y60912500D02*
X6000000Y59050000D01*
X8000000Y62912500D02*
X6000000Y60912500D01*
X15183301Y62912500D02*
X15624502Y62471299D01*
X6000000Y59050000D02*
X7050000Y58000000D01*
X3412500Y39175645D02*
X9412500Y33175645D01*
X17009937Y63412500D02*
X17009937Y61717100D01*
X17009937Y62386873D02*
X17009937Y61717100D01*
X6000000Y62912500D02*
X3412500Y60325000D01*
X3412500Y60325000D02*
X3412500Y39175645D01*
X17009937Y63412500D02*
X17009937Y62742727D01*
X8000000Y62912500D02*
X15183301Y62912500D01*
X15624502Y62471299D02*
X16925511Y62471299D01*
G04 #@! TO.N,+5V0*
X27000000Y35370900D02*
X27000000Y30412500D01*
X29280486Y9000000D02*
X32280486Y6000000D01*
X36719514Y7000000D02*
X50100000Y7000000D01*
X20162500Y39412500D02*
X22958400Y39412500D01*
X23000000Y11610862D02*
X25610862Y9000000D01*
X55000000Y5087500D02*
X54374000Y5713500D01*
X35719514Y6000000D02*
X36719514Y7000000D01*
X32280486Y6000000D02*
X35719514Y6000000D01*
X22958400Y39412500D02*
X27000000Y35370900D01*
X25610862Y9000000D02*
X29280486Y9000000D01*
X30087500Y9807014D02*
X29280486Y9000000D01*
X27000000Y30412500D02*
X23000000Y26412500D01*
X54374000Y5713500D02*
X51386500Y5713500D01*
X30087500Y11000000D02*
X30087500Y9807014D01*
X51386500Y5713500D02*
X50100000Y7000000D01*
X23000000Y26412500D02*
X23000000Y11610862D01*
G04 #@! TO.N,/SWCLK*
X39412500Y14412500D02*
X37825000Y16000000D01*
X46087500Y18087500D02*
X46087500Y18912500D01*
X37825000Y16000000D02*
X35000000Y16000000D01*
X42412500Y14412500D02*
X46087500Y18087500D01*
G04 #@! TO.N,Net-(D1-A)*
X69912500Y22575000D02*
X69912500Y19412500D01*
X69912500Y22575000D02*
X68487500Y24000000D01*
G04 #@! TO.N,/LORA_MOSI*
X60412500Y40412500D02*
X49587500Y29587500D01*
X69587500Y40412500D02*
X60412500Y40412500D01*
X49587500Y29587500D02*
X49587500Y27237500D01*
X77000000Y33000000D02*
X77000000Y32000000D01*
X75000000Y35000000D02*
X77000000Y33000000D01*
G04 #@! TO.N,/LORA_NSS*
X58000000Y35000000D02*
X51087500Y28087500D01*
X68170000Y34000000D02*
X68050000Y34000000D01*
X70570000Y34000000D02*
X70450000Y34000000D01*
X71770000Y34000000D02*
X71650000Y34000000D01*
X67810000Y34240000D02*
X67810000Y34760000D01*
X71410000Y34240000D02*
X71410000Y35360000D01*
X69010000Y34240000D02*
X69010000Y35360000D01*
X70810000Y35360000D02*
X70810000Y34240000D01*
X69370000Y34000000D02*
X69250000Y34000000D01*
X70210000Y34240000D02*
X70210000Y35360000D01*
X68770000Y35600000D02*
X68650000Y35600000D01*
X71170000Y35600000D02*
X71050000Y35600000D01*
X68410000Y35360000D02*
X68410000Y34240000D01*
X69610000Y35360000D02*
X69610000Y34240000D01*
X72010000Y34760000D02*
X72010000Y34240000D01*
X69970000Y35600000D02*
X69850000Y35600000D01*
X51087500Y28087500D02*
X51087500Y27237500D01*
X67570000Y35000000D02*
X58000000Y35000000D01*
X72010000Y34240000D02*
G75*
G02*
X71770000Y34000000I-240000J0D01*
G01*
X70210000Y35360000D02*
G75*
G03*
X69970000Y35600000I-240000J0D01*
G01*
X68410000Y34240000D02*
G75*
G02*
X68170000Y34000000I-240000J0D01*
G01*
X69250000Y34000000D02*
G75*
G02*
X69010000Y34240000I0J240000D01*
G01*
X68650000Y35600000D02*
G75*
G03*
X68410000Y35360000I0J-240000D01*
G01*
X68050000Y34000000D02*
G75*
G02*
X67810000Y34240000I0J240000D01*
G01*
X70810000Y34240000D02*
G75*
G02*
X70570000Y34000000I-240000J0D01*
G01*
X69850000Y35600000D02*
G75*
G03*
X69610000Y35360000I0J-240000D01*
G01*
X69010000Y35360000D02*
G75*
G03*
X68770000Y35600000I-240000J0D01*
G01*
X72250000Y35000000D02*
G75*
G03*
X72010000Y34760000I0J-240000D01*
G01*
X71050000Y35600000D02*
G75*
G03*
X70810000Y35360000I0J-240000D01*
G01*
X71410000Y35360000D02*
G75*
G03*
X71170000Y35600000I-240000J0D01*
G01*
X67810000Y34760000D02*
G75*
G03*
X67570000Y35000000I-240000J0D01*
G01*
X71650000Y34000000D02*
G75*
G02*
X71410000Y34240000I0J240000D01*
G01*
X69610000Y34240000D02*
G75*
G02*
X69370000Y34000000I-240000J0D01*
G01*
X70450000Y34000000D02*
G75*
G02*
X70210000Y34240000I0J240000D01*
G01*
G04 #@! TO.N,/LORA_MISO*
X60037506Y39037506D02*
X50087500Y29087500D01*
X77000000Y35000000D02*
X79000000Y33000000D01*
X50087500Y29087500D02*
X50087500Y27237500D01*
X79000000Y33000000D02*
X79000000Y32000000D01*
X72787494Y39037506D02*
X60037506Y39037506D01*
G04 #@! TO.N,Net-(Q3-G)*
X55000000Y6912500D02*
X52087500Y6912500D01*
X58424822Y3412500D02*
X55000000Y6837322D01*
X58950000Y3412500D02*
X58424822Y3412500D01*
G04 #@! TO.N,/LINK_BUTTON*
X53000000Y25825000D02*
X53000000Y27000000D01*
X56412500Y30412500D02*
X61412500Y30412500D01*
X53000000Y27000000D02*
X56412500Y30412500D01*
G04 #@! TO.N,INFO_SUPPLY*
X19412500Y55489500D02*
X19412500Y58412500D01*
X27412500Y57412500D02*
X27412500Y59500000D01*
X47737500Y16412500D02*
X48587500Y17262500D01*
X14412500Y64412500D02*
X15412500Y65412500D01*
X16509811Y64989189D02*
X16509811Y63412500D01*
X48587500Y17262500D02*
X48587500Y18912500D01*
X19412500Y55412500D02*
X20399000Y54426000D01*
X19412500Y58412500D02*
X19412500Y55412500D01*
X15412500Y65412500D02*
X16086500Y65412500D01*
X16086500Y65412500D02*
X16509811Y64989189D01*
X27399000Y54426000D02*
X27412500Y54412500D01*
X20399000Y54426000D02*
X27399000Y54426000D01*
G04 #@! TO.N,/LORA_DIO1*
X80412500Y10412500D02*
X83000000Y13000000D01*
X83000000Y13000000D02*
X83000000Y16000000D01*
X49087500Y32087500D02*
X49087500Y27237500D01*
X49412500Y32412500D02*
X49087500Y32087500D01*
X49737500Y32412500D02*
X49412500Y32412500D01*
G04 #@! TO.N,/LORA_BUSY*
X58412500Y33412500D02*
X57412500Y33412500D01*
X52412500Y28062500D02*
X51587500Y27237500D01*
X57412500Y33412500D02*
X52412500Y28412500D01*
X52412500Y28412500D02*
X52412500Y28062500D01*
X67412500Y42412500D02*
X76587500Y42412500D01*
X85000000Y34000000D02*
X85000000Y32000000D01*
X76587500Y42412500D02*
X85000000Y34000000D01*
G04 #@! TO.N,Net-(P2-VIN)*
X5412500Y53137500D02*
X8000000Y55725000D01*
X5412500Y40412500D02*
X5412500Y53137500D01*
G04 #@! TO.N,Net-(J5-Pin_1)*
X46912500Y4000000D02*
X43000000Y4000000D01*
G04 #@! TO.N,/V-LED*
X12662500Y33687500D02*
X12662500Y39412500D01*
X18412500Y27937500D02*
X12662500Y33687500D01*
X18412500Y17216951D02*
X18412500Y27937500D01*
G04 #@! TO.N,/BUZZER*
X57500000Y12500000D02*
X59325000Y12500000D01*
X46587500Y18912500D02*
X46587500Y14237500D01*
X46587500Y14237500D02*
X48412500Y12412500D01*
X63000000Y7000000D02*
X63000000Y5237500D01*
X59325000Y12500000D02*
X61412500Y10412500D01*
G04 #@! TO.N,VCC_BAT*
X54325000Y25325000D02*
X53000000Y25325000D01*
X24000000Y55795000D02*
X21980931Y55795000D01*
X59412500Y29099327D02*
X58099327Y29099327D01*
X58099327Y29099327D02*
X54325000Y25325000D01*
G04 #@! TO.N,Net-(IC1-VIN1)*
X16987901Y60412500D02*
X17510063Y60934662D01*
X11225000Y68500000D02*
X11225000Y70225000D01*
X18032225Y60412500D02*
X17510063Y60934662D01*
X12719851Y60412500D02*
X16987901Y60412500D01*
X22850000Y62411682D02*
X20850818Y60412500D01*
X17510063Y60934662D02*
X17510063Y61717100D01*
X11412500Y61719851D02*
X12719851Y60412500D01*
X11225000Y64600000D02*
X11225000Y67200000D01*
X26500000Y61325000D02*
X27412500Y61325000D01*
X11225000Y70225000D02*
X14412500Y73412500D01*
X11225000Y68500000D02*
X11225000Y67200000D01*
X25412500Y62412500D02*
X26500000Y61325000D01*
X20850818Y60412500D02*
X18032225Y60412500D01*
G04 #@! TO.N,/USART1_RX*
X38175000Y22825000D02*
X35000000Y26000000D01*
X44675000Y22825000D02*
X38175000Y22825000D01*
G04 #@! TO.N,/USART1_TX*
X40215000Y23325000D02*
X35000000Y28540000D01*
X44675000Y23325000D02*
X40215000Y23325000D01*
G04 #@! TO.N,Net-(Q3-D)*
X51050000Y4725000D02*
X49275000Y4725000D01*
X48087500Y5912500D02*
X47000000Y5912500D01*
X49275000Y4725000D02*
X48087500Y5912500D01*
G04 #@! TO.N,Net-(Q4-G)*
X61775000Y3412500D02*
X59900000Y5287500D01*
X63000000Y3412500D02*
X61775000Y3412500D01*
G04 #@! TO.N,Net-(Q5-D)*
X11025000Y55925000D02*
X13000000Y55925000D01*
X8000000Y58950000D02*
X8950000Y58000000D01*
X8000000Y61087500D02*
X8000000Y58950000D01*
X8950000Y58000000D02*
X11025000Y55925000D01*
G04 #@! TO.N,Net-(Q5-G)*
X17000000Y57912500D02*
X14000000Y57912500D01*
G04 #@! TO.N,/SENSOR_LED*
X19316299Y34412500D02*
X15662499Y38066300D01*
X23412500Y34412500D02*
X19316299Y34412500D01*
X32412500Y37412500D02*
X36912500Y32912500D01*
X24412500Y35412500D02*
X23412500Y34412500D01*
G04 #@! TO.N,/SENSOR DATA Vo*
X54412500Y36412500D02*
X53325000Y37500000D01*
X55825000Y24825000D02*
X53000000Y24825000D01*
X49000000Y37587500D02*
X51912500Y37587500D01*
X58412500Y27412500D02*
X55825000Y24825000D01*
X53325000Y37500000D02*
X52000000Y37500000D01*
G04 #@! TO.N,/Vo*
X41412500Y42412500D02*
X44412500Y39412500D01*
X44412500Y39412500D02*
X49000000Y39412500D01*
X20316301Y42412500D02*
X18662501Y40758700D01*
X26412500Y42412500D02*
X20316301Y42412500D01*
G04 #@! TO.N,Net-(J7-Pin_4)*
X17000000Y72000000D02*
X18412500Y73412500D01*
X17000000Y68412500D02*
X17000000Y72000000D01*
G04 #@! TO.N,Net-(J7-Pin_3)*
X20000000Y68412500D02*
X20000000Y73000000D01*
G04 #@! TO.N,GNDD*
X51087500Y18912500D02*
X51087500Y20737500D01*
X44675000Y20825000D02*
X45825000Y20825000D01*
X45825000Y20825000D02*
X47000000Y22000000D01*
X46587500Y27237500D02*
X46587500Y24412500D01*
X46587500Y24412500D02*
X47000000Y24000000D01*
X53000000Y23825000D02*
X50825000Y23825000D01*
G04 #@! TO.N,VCC_BAT*
X38090298Y55795000D02*
X24000000Y55795000D01*
X52236399Y41648899D02*
X38090298Y55795000D01*
G04 #@! TD*
G04 #@! TA.AperFunction,Conductor*
G04 #@! TO.N,GNDD*
G36*
X86943039Y29980315D02*
G01*
X86988794Y29927511D01*
X87000000Y29876000D01*
X87000000Y18124000D01*
X86980315Y18056961D01*
X86927511Y18011206D01*
X86876000Y18000000D01*
X73124000Y18000000D01*
X73056961Y18019685D01*
X73011206Y18072489D01*
X73000000Y18124000D01*
X73000000Y29876000D01*
X73019685Y29943039D01*
X73072489Y29988794D01*
X73124000Y30000000D01*
X86876000Y30000000D01*
X86943039Y29980315D01*
G37*
G04 #@! TD.AperFunction*
G04 #@! TD*
G04 #@! TA.AperFunction,Conductor*
G04 #@! TO.N,GNDD*
G36*
X46758953Y26057106D02*
G01*
X46862264Y26014313D01*
X46969086Y26000250D01*
X46974764Y25999502D01*
X46974780Y25999500D01*
X46974787Y25999500D01*
X47200213Y25999500D01*
X47200220Y25999500D01*
X47312736Y26014313D01*
X47312736Y26014314D01*
X47320795Y26015374D01*
X47321198Y26012311D01*
X47353802Y26012311D01*
X47354205Y26015374D01*
X47362263Y26014314D01*
X47362264Y26014313D01*
X47474780Y25999500D01*
X47474787Y25999500D01*
X47700213Y25999500D01*
X47700220Y25999500D01*
X47812736Y26014313D01*
X47812736Y26014314D01*
X47820795Y26015374D01*
X47821198Y26012311D01*
X47853802Y26012311D01*
X47854205Y26015374D01*
X47862263Y26014314D01*
X47862264Y26014313D01*
X47974780Y25999500D01*
X47974787Y25999500D01*
X48200213Y25999500D01*
X48200220Y25999500D01*
X48312736Y26014313D01*
X48312736Y26014314D01*
X48320795Y26015374D01*
X48321198Y26012311D01*
X48353802Y26012311D01*
X48354205Y26015374D01*
X48362263Y26014314D01*
X48362264Y26014313D01*
X48474780Y25999500D01*
X48474787Y25999500D01*
X48700213Y25999500D01*
X48700220Y25999500D01*
X48812736Y26014313D01*
X48812736Y26014314D01*
X48820795Y26015374D01*
X48821198Y26012311D01*
X48853802Y26012311D01*
X48854205Y26015374D01*
X48862263Y26014314D01*
X48862264Y26014313D01*
X48974780Y25999500D01*
X48974787Y25999500D01*
X49200213Y25999500D01*
X49200220Y25999500D01*
X49312736Y26014313D01*
X49312736Y26014314D01*
X49320795Y26015374D01*
X49321198Y26012311D01*
X49353802Y26012311D01*
X49354205Y26015374D01*
X49362263Y26014314D01*
X49362264Y26014313D01*
X49474780Y25999500D01*
X49474787Y25999500D01*
X49700213Y25999500D01*
X49700220Y25999500D01*
X49812736Y26014313D01*
X49812736Y26014314D01*
X49820795Y26015374D01*
X49821198Y26012311D01*
X49853802Y26012311D01*
X49854205Y26015374D01*
X49862263Y26014314D01*
X49862264Y26014313D01*
X49974780Y25999500D01*
X49974787Y25999500D01*
X50200213Y25999500D01*
X50200220Y25999500D01*
X50312736Y26014313D01*
X50312736Y26014314D01*
X50320795Y26015374D01*
X50321198Y26012311D01*
X50353802Y26012311D01*
X50354205Y26015374D01*
X50362263Y26014314D01*
X50362264Y26014313D01*
X50474780Y25999500D01*
X50474787Y25999500D01*
X50700213Y25999500D01*
X50700220Y25999500D01*
X50812736Y26014313D01*
X50812736Y26014314D01*
X50820795Y26015374D01*
X50821198Y26012311D01*
X50853802Y26012311D01*
X50854205Y26015374D01*
X50862263Y26014314D01*
X50862264Y26014313D01*
X50974780Y25999500D01*
X50974787Y25999500D01*
X51200213Y25999500D01*
X51200220Y25999500D01*
X51312736Y26014313D01*
X51312738Y26014315D01*
X51318298Y26015046D01*
X51318406Y26015096D01*
X51318602Y26015086D01*
X51320795Y26015374D01*
X51320849Y26014964D01*
X51334325Y26014233D01*
X51353698Y26015513D01*
X51362011Y26014418D01*
X51362264Y26014313D01*
X51474780Y25999500D01*
X51475235Y25999500D01*
X51479698Y25998912D01*
X51508041Y25986370D01*
X51537135Y25975743D01*
X51539704Y25972359D01*
X51543591Y25970639D01*
X51560647Y25944776D01*
X51579385Y25920096D01*
X51580337Y25914918D01*
X51582057Y25912310D01*
X51582141Y25905107D01*
X51587500Y25875974D01*
X51587500Y20274027D01*
X51567815Y20206988D01*
X51515011Y20161233D01*
X51478668Y20152067D01*
X51478805Y20151030D01*
X51362264Y20135687D01*
X51362263Y20135687D01*
X51244576Y20086939D01*
X51236398Y20085313D01*
X51232058Y20082523D01*
X51197123Y20077500D01*
X50977877Y20077500D01*
X50930424Y20086939D01*
X50837498Y20125430D01*
X50812736Y20135687D01*
X50798198Y20137601D01*
X50700227Y20150500D01*
X50700220Y20150500D01*
X50474780Y20150500D01*
X50474772Y20150500D01*
X50387893Y20139062D01*
X50362264Y20135687D01*
X50362262Y20135687D01*
X50354208Y20134626D01*
X50353816Y20137601D01*
X50321184Y20137601D01*
X50320792Y20134626D01*
X50312737Y20135687D01*
X50312736Y20135687D01*
X50283771Y20139501D01*
X50200227Y20150500D01*
X50200220Y20150500D01*
X49974780Y20150500D01*
X49974772Y20150500D01*
X49887893Y20139062D01*
X49862264Y20135687D01*
X49862262Y20135687D01*
X49854208Y20134626D01*
X49853816Y20137601D01*
X49821184Y20137601D01*
X49820792Y20134626D01*
X49812737Y20135687D01*
X49812736Y20135687D01*
X49783771Y20139501D01*
X49700227Y20150500D01*
X49700220Y20150500D01*
X49474780Y20150500D01*
X49474772Y20150500D01*
X49387893Y20139062D01*
X49362264Y20135687D01*
X49362262Y20135687D01*
X49354208Y20134626D01*
X49353816Y20137601D01*
X49321184Y20137601D01*
X49320792Y20134626D01*
X49312737Y20135687D01*
X49312736Y20135687D01*
X49283771Y20139501D01*
X49200227Y20150500D01*
X49200220Y20150500D01*
X48974780Y20150500D01*
X48974772Y20150500D01*
X48887893Y20139062D01*
X48862264Y20135687D01*
X48862262Y20135687D01*
X48854208Y20134626D01*
X48853816Y20137601D01*
X48821184Y20137601D01*
X48820792Y20134626D01*
X48812737Y20135687D01*
X48812736Y20135687D01*
X48783771Y20139501D01*
X48700227Y20150500D01*
X48700220Y20150500D01*
X48474780Y20150500D01*
X48474772Y20150500D01*
X48387893Y20139062D01*
X48362264Y20135687D01*
X48362262Y20135687D01*
X48354208Y20134626D01*
X48353816Y20137601D01*
X48321184Y20137601D01*
X48320792Y20134626D01*
X48312737Y20135687D01*
X48312736Y20135687D01*
X48283771Y20139501D01*
X48200227Y20150500D01*
X48200220Y20150500D01*
X47974780Y20150500D01*
X47974772Y20150500D01*
X47887893Y20139062D01*
X47862264Y20135687D01*
X47862262Y20135687D01*
X47854208Y20134626D01*
X47853816Y20137601D01*
X47821184Y20137601D01*
X47820792Y20134626D01*
X47812737Y20135687D01*
X47812736Y20135687D01*
X47783771Y20139501D01*
X47700227Y20150500D01*
X47700220Y20150500D01*
X47474780Y20150500D01*
X47474772Y20150500D01*
X47387893Y20139062D01*
X47362264Y20135687D01*
X47362262Y20135687D01*
X47354208Y20134626D01*
X47353816Y20137601D01*
X47321184Y20137601D01*
X47320792Y20134626D01*
X47312737Y20135687D01*
X47312736Y20135687D01*
X47283771Y20139501D01*
X47200227Y20150500D01*
X47200220Y20150500D01*
X46974780Y20150500D01*
X46974772Y20150500D01*
X46856697Y20134954D01*
X46856594Y20134905D01*
X46856403Y20134916D01*
X46854208Y20134626D01*
X46854154Y20135034D01*
X46840716Y20135745D01*
X46821302Y20134488D01*
X46812985Y20135584D01*
X46812736Y20135687D01*
X46700220Y20150500D01*
X46699772Y20150500D01*
X46695302Y20151089D01*
X46666898Y20163658D01*
X46637753Y20174341D01*
X46635230Y20177671D01*
X46631409Y20179362D01*
X46614312Y20205288D01*
X46595565Y20230037D01*
X46594631Y20235132D01*
X46592943Y20237691D01*
X46592859Y20244796D01*
X46587500Y20274027D01*
X46587500Y25942545D01*
X46607185Y26009584D01*
X46659989Y26055339D01*
X46729147Y26065283D01*
X46758953Y26057106D01*
G37*
G04 #@! TD.AperFunction*
G04 #@! TD*
M02*
