%TF.GenerationSoftware,KiCad,Pcbnew,9.0.1*%
%TF.CreationDate,2025-05-30T23:53:01+03:00*%
%TF.ProjectId,FlameSensorSender,466c616d-6553-4656-9e73-6f7253656e64,1*%
%TF.SameCoordinates,Original*%
%TF.FileFunction,Copper,L1,Top*%
%TF.FilePolarity,Positive*%
%FSLAX46Y46*%
G04 Gerber Fmt 4.6, Leading zero omitted, Abs format (unit mm)*
G04 Created by KiCad (PCBNEW 9.0.1) date 2025-05-30 23:53:01*
%MOMM*%
%LPD*%
G01*
G04 APERTURE LIST*
G04 Aperture macros list*
%AMRoundRect*
0 Rectangle with rounded corners*
0 $1 Rounding radius*
0 $2 $3 $4 $5 $6 $7 $8 $9 X,Y pos of 4 corners*
0 Add a 4 corners polygon primitive as box body*
4,1,4,$2,$3,$4,$5,$6,$7,$8,$9,$2,$3,0*
0 Add four circle primitives for the rounded corners*
1,1,$1+$1,$2,$3*
1,1,$1+$1,$4,$5*
1,1,$1+$1,$6,$7*
1,1,$1+$1,$8,$9*
0 Add four rect primitives between the rounded corners*
20,1,$1+$1,$2,$3,$4,$5,0*
20,1,$1+$1,$4,$5,$6,$7,0*
20,1,$1+$1,$6,$7,$8,$9,0*
20,1,$1+$1,$8,$9,$2,$3,0*%
G04 Aperture macros list end*
%TA.AperFunction,SMDPad,CuDef*%
%ADD10RoundRect,0.237500X-0.237500X0.250000X-0.237500X-0.250000X0.237500X-0.250000X0.237500X0.250000X0*%
%TD*%
%TA.AperFunction,SMDPad,CuDef*%
%ADD11RoundRect,0.150000X-0.150000X0.512500X-0.150000X-0.512500X0.150000X-0.512500X0.150000X0.512500X0*%
%TD*%
%TA.AperFunction,SMDPad,CuDef*%
%ADD12RoundRect,0.237500X-0.237500X0.300000X-0.237500X-0.300000X0.237500X-0.300000X0.237500X0.300000X0*%
%TD*%
%TA.AperFunction,SMDPad,CuDef*%
%ADD13RoundRect,0.050000X-0.075000X0.250000X-0.075000X-0.250000X0.075000X-0.250000X0.075000X0.250000X0*%
%TD*%
%TA.AperFunction,SMDPad,CuDef*%
%ADD14RoundRect,0.050000X-0.075000X0.400000X-0.075000X-0.400000X0.075000X-0.400000X0.075000X0.400000X0*%
%TD*%
%TA.AperFunction,SMDPad,CuDef*%
%ADD15RoundRect,0.050000X-0.075000X0.600000X-0.075000X-0.600000X0.075000X-0.600000X0.075000X0.600000X0*%
%TD*%
%TA.AperFunction,SMDPad,CuDef*%
%ADD16RoundRect,0.237500X0.237500X-0.250000X0.237500X0.250000X-0.237500X0.250000X-0.237500X-0.250000X0*%
%TD*%
%TA.AperFunction,SMDPad,CuDef*%
%ADD17RoundRect,0.237500X-0.300000X-0.237500X0.300000X-0.237500X0.300000X0.237500X-0.300000X0.237500X0*%
%TD*%
%TA.AperFunction,SMDPad,CuDef*%
%ADD18R,0.980000X3.400000*%
%TD*%
%TA.AperFunction,SMDPad,CuDef*%
%ADD19RoundRect,0.050000X0.075000X-0.250000X0.075000X0.250000X-0.075000X0.250000X-0.075000X-0.250000X0*%
%TD*%
%TA.AperFunction,SMDPad,CuDef*%
%ADD20RoundRect,0.050000X0.075000X-0.400000X0.075000X0.400000X-0.075000X0.400000X-0.075000X-0.400000X0*%
%TD*%
%TA.AperFunction,SMDPad,CuDef*%
%ADD21RoundRect,0.050000X0.075000X-0.600000X0.075000X0.600000X-0.075000X0.600000X-0.075000X-0.600000X0*%
%TD*%
%TA.AperFunction,SMDPad,CuDef*%
%ADD22RoundRect,0.237500X0.250000X0.237500X-0.250000X0.237500X-0.250000X-0.237500X0.250000X-0.237500X0*%
%TD*%
%TA.AperFunction,SMDPad,CuDef*%
%ADD23R,1.500000X2.000000*%
%TD*%
%TA.AperFunction,ComponentPad*%
%ADD24RoundRect,0.250000X0.350000X0.625000X-0.350000X0.625000X-0.350000X-0.625000X0.350000X-0.625000X0*%
%TD*%
%TA.AperFunction,ComponentPad*%
%ADD25O,1.200000X1.750000*%
%TD*%
%TA.AperFunction,SMDPad,CuDef*%
%ADD26RoundRect,0.237500X0.300000X0.237500X-0.300000X0.237500X-0.300000X-0.237500X0.300000X-0.237500X0*%
%TD*%
%TA.AperFunction,SMDPad,CuDef*%
%ADD27RoundRect,0.075000X0.662500X0.075000X-0.662500X0.075000X-0.662500X-0.075000X0.662500X-0.075000X0*%
%TD*%
%TA.AperFunction,SMDPad,CuDef*%
%ADD28RoundRect,0.075000X0.075000X0.662500X-0.075000X0.662500X-0.075000X-0.662500X0.075000X-0.662500X0*%
%TD*%
%TA.AperFunction,SMDPad,CuDef*%
%ADD29RoundRect,0.237500X0.237500X-0.300000X0.237500X0.300000X-0.237500X0.300000X-0.237500X-0.300000X0*%
%TD*%
%TA.AperFunction,ComponentPad*%
%ADD30R,1.700000X1.700000*%
%TD*%
%TA.AperFunction,ComponentPad*%
%ADD31C,1.700000*%
%TD*%
%TA.AperFunction,ComponentPad*%
%ADD32R,2.000000X2.000000*%
%TD*%
%TA.AperFunction,ComponentPad*%
%ADD33C,2.000000*%
%TD*%
%TA.AperFunction,ComponentPad*%
%ADD34RoundRect,0.250000X0.625000X-0.350000X0.625000X0.350000X-0.625000X0.350000X-0.625000X-0.350000X0*%
%TD*%
%TA.AperFunction,ComponentPad*%
%ADD35O,1.750000X1.200000*%
%TD*%
%TA.AperFunction,ViaPad*%
%ADD36C,0.600000*%
%TD*%
%TA.AperFunction,ViaPad*%
%ADD37C,0.800000*%
%TD*%
%TA.AperFunction,ViaPad*%
%ADD38C,1.000000*%
%TD*%
%TA.AperFunction,Conductor*%
%ADD39C,0.250000*%
%TD*%
%TA.AperFunction,Conductor*%
%ADD40C,1.000000*%
%TD*%
%TA.AperFunction,Conductor*%
%ADD41C,0.200000*%
%TD*%
%TA.AperFunction,Conductor*%
%ADD42C,0.500000*%
%TD*%
G04 APERTURE END LIST*
D10*
%TO.P,R18,1*%
%TO.N,+5V0*%
X14000000Y29000000D03*
%TO.P,R18,2*%
%TO.N,Net-(U4-FB)*%
X14000000Y27175000D03*
%TD*%
D11*
%TO.P,Q2,1,G*%
%TO.N,Net-(Q2-G)*%
X25900000Y37087500D03*
%TO.P,Q2,2,S*%
%TO.N,VRAW*%
X24000000Y37087500D03*
%TO.P,Q2,3,D*%
%TO.N,Net-(Q2-D)*%
X24950000Y34812500D03*
%TD*%
D10*
%TO.P,R10,1*%
%TO.N,+3V3*%
X21000000Y5000000D03*
%TO.P,R10,2*%
%TO.N,Net-(U3-PG)*%
X21000000Y3175000D03*
%TD*%
D12*
%TO.P,C2,1*%
%TO.N,+3V3*%
X40000000Y15000000D03*
%TO.P,C2,2*%
%TO.N,GNDD*%
X40000000Y13275000D03*
%TD*%
D13*
%TO.P,U4,1,EN*%
%TO.N,Net-(Q2-D)*%
X26000000Y31650000D03*
%TO.P,U4,2,MODE*%
%TO.N,GNDD*%
X25500000Y31650000D03*
%TO.P,U4,3,AGND*%
X25000000Y31650000D03*
%TO.P,U4,4,FB*%
%TO.N,Net-(U4-FB)*%
X24500000Y31650000D03*
%TO.P,U4,5,PG*%
%TO.N,Net-(U4-PG)*%
X24000000Y31650000D03*
D14*
%TO.P,U4,6,VOUT*%
%TO.N,+5V0*%
X24000000Y30000000D03*
%TO.P,U4,7,L2*%
%TO.N,Net-(U4-L2)*%
X24500000Y30000000D03*
D15*
%TO.P,U4,8,GND*%
%TO.N,GNDD*%
X25000000Y30200000D03*
D14*
%TO.P,U4,9,L1*%
%TO.N,Net-(U4-L1)*%
X25500000Y30000000D03*
%TO.P,U4,10,VIN*%
%TO.N,Net-(Q2-D)*%
X26000000Y30000000D03*
%TD*%
D12*
%TO.P,C7,1*%
%TO.N,GNDD*%
X17000000Y36862500D03*
%TO.P,C7,2*%
%TO.N,+3V3*%
X17000000Y35137500D03*
%TD*%
%TO.P,C13,1*%
%TO.N,+5V0*%
X10000000Y29000000D03*
%TO.P,C13,2*%
%TO.N,GNDD*%
X10000000Y27275000D03*
%TD*%
D16*
%TO.P,R9,1*%
%TO.N,Net-(J6-Pin_1)*%
X4000000Y28175000D03*
%TO.P,R9,2*%
%TO.N,+5V0*%
X4000000Y30000000D03*
%TD*%
D11*
%TO.P,Q1,1,G*%
%TO.N,Net-(Q1-G)*%
X59950000Y7200000D03*
%TO.P,Q1,2,S*%
%TO.N,+3V3*%
X58050000Y7200000D03*
%TO.P,Q1,3,D*%
%TO.N,Net-(Q1-D)*%
X59000000Y4925000D03*
%TD*%
D17*
%TO.P,C5,1*%
%TO.N,+3V3*%
X44137500Y23000000D03*
%TO.P,C5,2*%
%TO.N,GNDD*%
X45862500Y23000000D03*
%TD*%
D10*
%TO.P,R6,1*%
%TO.N,/INFO_BUZZER*%
X38000000Y3912500D03*
%TO.P,R6,2*%
%TO.N,Net-(J5-Pin_1)*%
X38000000Y2087500D03*
%TD*%
D18*
%TO.P,L1,1,1*%
%TO.N,Net-(U3-L2)*%
X19185000Y11000000D03*
%TO.P,L1,2,2*%
%TO.N,Net-(U3-L1)*%
X16815000Y11000000D03*
%TD*%
D10*
%TO.P,R17,1*%
%TO.N,+5V0*%
X16000000Y29000000D03*
%TO.P,R17,2*%
%TO.N,Net-(U4-PG)*%
X16000000Y27175000D03*
%TD*%
D19*
%TO.P,U3,1,EN*%
%TO.N,VRAW*%
X17087500Y4350000D03*
%TO.P,U3,2,MODE*%
%TO.N,GNDD*%
X17587500Y4350000D03*
%TO.P,U3,3,AGND*%
X18087500Y4350000D03*
%TO.P,U3,4,FB*%
%TO.N,Net-(U3-FB)*%
X18587500Y4350000D03*
%TO.P,U3,5,PG*%
%TO.N,Net-(U3-PG)*%
X19087500Y4350000D03*
D20*
%TO.P,U3,6,VOUT*%
%TO.N,+3V3*%
X19087500Y6000000D03*
%TO.P,U3,7,L2*%
%TO.N,Net-(U3-L2)*%
X18587500Y6000000D03*
D21*
%TO.P,U3,8,GND*%
%TO.N,GNDD*%
X18087500Y5800000D03*
D20*
%TO.P,U3,9,L1*%
%TO.N,Net-(U3-L1)*%
X17587500Y6000000D03*
%TO.P,U3,10,VIN*%
%TO.N,VRAW*%
X17087500Y6000000D03*
%TD*%
D22*
%TO.P,R13,1*%
%TO.N,Net-(J7-CC2)*%
X3912500Y11242500D03*
%TO.P,R13,2*%
%TO.N,GNDD*%
X2087500Y11242500D03*
%TD*%
D10*
%TO.P,R16,1*%
%TO.N,Net-(Q2-G)*%
X29000000Y36000000D03*
%TO.P,R16,2*%
%TO.N,VRAW*%
X29000000Y34175000D03*
%TD*%
D22*
%TO.P,R14,1*%
%TO.N,Net-(J7-CC1)*%
X3912500Y8622500D03*
%TO.P,R14,2*%
%TO.N,GNDD*%
X2087500Y8622500D03*
%TD*%
D16*
%TO.P,R5,1*%
%TO.N,Net-(Q1-G)*%
X62000000Y8175000D03*
%TO.P,R5,2*%
%TO.N,+3V3*%
X62000000Y10000000D03*
%TD*%
D23*
%TO.P,U2,1,GND*%
%TO.N,GNDD*%
X62000000Y14000000D03*
%TO.P,U2,2,GND*%
X64000000Y14000000D03*
%TO.P,U2,3,VDD*%
%TO.N,Net-(Q1-D)*%
X66000000Y14000000D03*
%TO.P,U2,4,~{RESET}*%
%TO.N,Net-(U2-~{RESET})*%
X68000000Y14000000D03*
%TO.P,U2,5,DIO0*%
%TO.N,/PB0*%
X70000000Y14000000D03*
%TO.P,U2,6,DIO1*%
%TO.N,unconnected-(U2-DIO1-Pad6)*%
X72000000Y14000000D03*
%TO.P,U2,7,DIO2*%
%TO.N,unconnected-(U2-DIO2-Pad7)*%
X74000000Y14000000D03*
%TO.P,U2,8,DIO3*%
%TO.N,unconnected-(U2-DIO3-Pad8)*%
X76000000Y14000000D03*
%TO.P,U2,9,GND*%
%TO.N,GNDD*%
X76000000Y30000000D03*
%TO.P,U2,10,DIO4*%
%TO.N,unconnected-(U2-DIO4-Pad10)*%
X74000000Y30000000D03*
%TO.P,U2,11,DIO5*%
%TO.N,unconnected-(U2-DIO5-Pad11)*%
X72000000Y30000000D03*
%TO.P,U2,12,SCK*%
%TO.N,/LORA_SCK*%
X70000000Y30000000D03*
%TO.P,U2,13,MISO*%
%TO.N,/LORA_MISO*%
X68000000Y30000000D03*
%TO.P,U2,14,MOSI*%
%TO.N,/LORA_MOSI*%
X66000000Y30000000D03*
%TO.P,U2,15,~{NSS}*%
%TO.N,/LORA_NSS*%
X64000000Y30000000D03*
%TO.P,U2,16,GND*%
%TO.N,GNDD*%
X62000000Y30000000D03*
%TD*%
D10*
%TO.P,R2,1*%
%TO.N,Net-(U2-~{RESET})*%
X68000000Y11480000D03*
%TO.P,R2,2*%
%TO.N,+3V3*%
X68000000Y9655000D03*
%TD*%
%TO.P,R3,1*%
%TO.N,/INFO_LED*%
X2000000Y24912500D03*
%TO.P,R3,2*%
%TO.N,Net-(J3-Pin_1)*%
X2000000Y23087500D03*
%TD*%
D12*
%TO.P,C11,1*%
%TO.N,+3V3*%
X25000000Y5000000D03*
%TO.P,C11,2*%
%TO.N,GNDD*%
X25000000Y3275000D03*
%TD*%
D10*
%TO.P,R4,1*%
%TO.N,/LORA EN*%
X64000000Y10000000D03*
%TO.P,R4,2*%
%TO.N,Net-(Q1-G)*%
X64000000Y8175000D03*
%TD*%
D24*
%TO.P,J5,1,Pin_1*%
%TO.N,Net-(J5-Pin_1)*%
X33000000Y3000000D03*
D25*
%TO.P,J5,2,Pin_2*%
%TO.N,GNDD*%
X31000000Y3000000D03*
%TD*%
D10*
%TO.P,R15,1*%
%TO.N,Net-(Q2-G)*%
X31000000Y36000000D03*
%TO.P,R15,2*%
%TO.N,SENSOR EN*%
X31000000Y34175000D03*
%TD*%
D26*
%TO.P,C1,1*%
%TO.N,+3V3*%
X33000000Y17000000D03*
%TO.P,C1,2*%
%TO.N,GNDD*%
X31275000Y17000000D03*
%TD*%
D16*
%TO.P,R8,1*%
%TO.N,/SENSOR DATA*%
X39000000Y34175000D03*
%TO.P,R8,2*%
%TO.N,GNDD*%
X39000000Y36000000D03*
%TD*%
D18*
%TO.P,L2,1,1*%
%TO.N,Net-(U4-L2)*%
X25815000Y25000000D03*
%TO.P,L2,2,2*%
%TO.N,Net-(U4-L1)*%
X28185000Y25000000D03*
%TD*%
D10*
%TO.P,R11,1*%
%TO.N,+3V3*%
X23000000Y5000000D03*
%TO.P,R11,2*%
%TO.N,Net-(U3-FB)*%
X23000000Y3175000D03*
%TD*%
D22*
%TO.P,R12,1*%
%TO.N,Net-(U3-FB)*%
X16912500Y2000000D03*
%TO.P,R12,2*%
%TO.N,GNDD*%
X15087500Y2000000D03*
%TD*%
D27*
%TO.P,U1,1,VBAT*%
%TO.N,+3V3*%
X42000000Y18325000D03*
%TO.P,U1,2,PC13*%
%TO.N,unconnected-(U1-PC13-Pad2)*%
X42000000Y18825000D03*
%TO.P,U1,3,PC14*%
%TO.N,unconnected-(U1-PC14-Pad3)*%
X42000000Y19325000D03*
%TO.P,U1,4,PC15*%
%TO.N,unconnected-(U1-PC15-Pad4)*%
X42000000Y19825000D03*
%TO.P,U1,5,PD0*%
%TO.N,unconnected-(U1-PD0-Pad5)*%
X42000000Y20325000D03*
%TO.P,U1,6,PD1*%
%TO.N,unconnected-(U1-PD1-Pad6)*%
X42000000Y20825000D03*
%TO.P,U1,7,NRST*%
%TO.N,/RESET_PIN*%
X42000000Y21325000D03*
%TO.P,U1,8,VSSA*%
%TO.N,GNDD*%
X42000000Y21825000D03*
%TO.P,U1,9,VDDA*%
%TO.N,+3V3*%
X42000000Y22325000D03*
%TO.P,U1,10,PA0*%
%TO.N,/SENSOR DATA*%
X42000000Y22825000D03*
%TO.P,U1,11,PA1*%
%TO.N,unconnected-(U1-PA1-Pad11)*%
X42000000Y23325000D03*
%TO.P,U1,12,PA2*%
%TO.N,unconnected-(U1-PA2-Pad12)*%
X42000000Y23825000D03*
D28*
%TO.P,U1,13,PA3*%
%TO.N,unconnected-(U1-PA3-Pad13)*%
X40587500Y25237500D03*
%TO.P,U1,14,PA4*%
%TO.N,/LORA_NSS*%
X40087500Y25237500D03*
%TO.P,U1,15,PA5*%
%TO.N,/LORA_SCK*%
X39587500Y25237500D03*
%TO.P,U1,16,PA6*%
%TO.N,/LORA_MISO*%
X39087500Y25237500D03*
%TO.P,U1,17,PA7*%
%TO.N,/LORA_MOSI*%
X38587500Y25237500D03*
%TO.P,U1,18,PB0*%
%TO.N,/PB0*%
X38087500Y25237500D03*
%TO.P,U1,19,PB1*%
%TO.N,unconnected-(U1-PB1-Pad19)*%
X37587500Y25237500D03*
%TO.P,U1,20,PB2*%
%TO.N,unconnected-(U1-PB2-Pad20)*%
X37087500Y25237500D03*
%TO.P,U1,21,PB10*%
%TO.N,SENSOR EN*%
X36587500Y25237500D03*
%TO.P,U1,22,PB11*%
%TO.N,/LORA EN*%
X36087500Y25237500D03*
%TO.P,U1,23,VSS*%
%TO.N,GNDD*%
X35587500Y25237500D03*
%TO.P,U1,24,VDD*%
%TO.N,+3V3*%
X35087500Y25237500D03*
D27*
%TO.P,U1,25,PB12*%
%TO.N,/PB12*%
X33675000Y23825000D03*
%TO.P,U1,26,PB13*%
%TO.N,unconnected-(U1-PB13-Pad26)*%
X33675000Y23325000D03*
%TO.P,U1,27,PB14*%
%TO.N,unconnected-(U1-PB14-Pad27)*%
X33675000Y22825000D03*
%TO.P,U1,28,PB15*%
%TO.N,/INFO_LED*%
X33675000Y22325000D03*
%TO.P,U1,29,PA8*%
%TO.N,unconnected-(U1-PA8-Pad29)*%
X33675000Y21825000D03*
%TO.P,U1,30,PA9*%
%TO.N,unconnected-(U1-PA9-Pad30)*%
X33675000Y21325000D03*
%TO.P,U1,31,PA10*%
%TO.N,unconnected-(U1-PA10-Pad31)*%
X33675000Y20825000D03*
%TO.P,U1,32,PA11*%
%TO.N,unconnected-(U1-PA11-Pad32)*%
X33675000Y20325000D03*
%TO.P,U1,33,PA12*%
%TO.N,unconnected-(U1-PA12-Pad33)*%
X33675000Y19825000D03*
%TO.P,U1,34,PA13*%
%TO.N,/SWDIO*%
X33675000Y19325000D03*
%TO.P,U1,35,VSS*%
%TO.N,GNDD*%
X33675000Y18825000D03*
%TO.P,U1,36,VDD*%
%TO.N,+3V3*%
X33675000Y18325000D03*
D28*
%TO.P,U1,37,PA14*%
%TO.N,/SWCLK*%
X35087500Y16912500D03*
%TO.P,U1,38,PA15*%
%TO.N,/INFO_BUZZER*%
X35587500Y16912500D03*
%TO.P,U1,39,PB3*%
%TO.N,unconnected-(U1-PB3-Pad39)*%
X36087500Y16912500D03*
%TO.P,U1,40,PB4*%
%TO.N,unconnected-(U1-PB4-Pad40)*%
X36587500Y16912500D03*
%TO.P,U1,41,PB5*%
%TO.N,unconnected-(U1-PB5-Pad41)*%
X37087500Y16912500D03*
%TO.P,U1,42,PB6*%
%TO.N,unconnected-(U1-PB6-Pad42)*%
X37587500Y16912500D03*
%TO.P,U1,43,PB7*%
%TO.N,unconnected-(U1-PB7-Pad43)*%
X38087500Y16912500D03*
%TO.P,U1,44,BOOT0*%
%TO.N,unconnected-(U1-BOOT0-Pad44)*%
X38587500Y16912500D03*
%TO.P,U1,45,PB8*%
%TO.N,unconnected-(U1-PB8-Pad45)*%
X39087500Y16912500D03*
%TO.P,U1,46,PB9*%
%TO.N,unconnected-(U1-PB9-Pad46)*%
X39587500Y16912500D03*
%TO.P,U1,47,VSS*%
%TO.N,GNDD*%
X40087500Y16912500D03*
%TO.P,U1,48,VDD*%
%TO.N,+3V3*%
X40587500Y16912500D03*
%TD*%
D12*
%TO.P,C12,1*%
%TO.N,Net-(Q2-D)*%
X22000000Y33862500D03*
%TO.P,C12,2*%
%TO.N,GNDD*%
X22000000Y32137500D03*
%TD*%
D17*
%TO.P,C3,1*%
%TO.N,+3V3*%
X44137500Y18000000D03*
%TO.P,C3,2*%
%TO.N,GNDD*%
X45862500Y18000000D03*
%TD*%
D29*
%TO.P,C9,1*%
%TO.N,VRAW*%
X15000000Y6137500D03*
%TO.P,C9,2*%
%TO.N,GNDD*%
X15000000Y7862500D03*
%TD*%
%TO.P,C8,1*%
%TO.N,Net-(J6-Pin_1)*%
X2000000Y28275000D03*
%TO.P,C8,2*%
%TO.N,GNDD*%
X2000000Y30000000D03*
%TD*%
D26*
%TO.P,C4,1*%
%TO.N,/RESET_PIN*%
X12112500Y16325000D03*
%TO.P,C4,2*%
%TO.N,GNDD*%
X10387500Y16325000D03*
%TD*%
D16*
%TO.P,R19,1*%
%TO.N,Net-(U4-FB)*%
X12000000Y27175000D03*
%TO.P,R19,2*%
%TO.N,GNDD*%
X12000000Y29000000D03*
%TD*%
%TO.P,R7,1*%
%TO.N,/SENSOR DATA*%
X37000000Y34175000D03*
%TO.P,R7,2*%
%TO.N,Net-(J6-Pin_5)*%
X37000000Y36000000D03*
%TD*%
D22*
%TO.P,R1,1*%
%TO.N,+3V3*%
X17250000Y16325000D03*
%TO.P,R1,2*%
%TO.N,/RESET_PIN*%
X15425000Y16325000D03*
%TD*%
D29*
%TO.P,C6,1*%
%TO.N,+3V3*%
X33000000Y26137500D03*
%TO.P,C6,2*%
%TO.N,GNDD*%
X33000000Y27862500D03*
%TD*%
D30*
%TO.P,J1,1,Pin_1*%
%TO.N,+3V3*%
X14000000Y34460000D03*
D31*
%TO.P,J1,2,Pin_2*%
%TO.N,/SWDIO*%
X14000000Y37000000D03*
%TO.P,J1,3,Pin_3*%
%TO.N,/SWCLK*%
X11460000Y34460000D03*
%TO.P,J1,4,Pin_4*%
%TO.N,GNDD*%
X11460000Y37000000D03*
%TD*%
D32*
%TO.P,BT1,1,+*%
%TO.N,Net-(BT1-+)*%
X21835000Y13000000D03*
D33*
%TO.P,BT1,2,-*%
%TO.N,GNDD*%
X21835000Y27990000D03*
%TD*%
D34*
%TO.P,J6,1,Pin_1*%
%TO.N,Net-(J6-Pin_1)*%
X6835000Y26000000D03*
D35*
%TO.P,J6,2,Pin_2*%
%TO.N,GNDD*%
X6835000Y28000000D03*
%TO.P,J6,3,Pin_3*%
%TO.N,/PB12*%
X6835000Y30000000D03*
%TO.P,J6,4,Pin_4*%
%TO.N,GNDD*%
X6835000Y32000000D03*
%TO.P,J6,5,Pin_5*%
%TO.N,Net-(J6-Pin_5)*%
X6835000Y34000000D03*
%TO.P,J6,6,Pin_6*%
%TO.N,+5V0*%
X6835000Y36000000D03*
%TD*%
D24*
%TO.P,J3,1,Pin_1*%
%TO.N,Net-(J3-Pin_1)*%
X6000000Y20000000D03*
D25*
%TO.P,J3,2,Pin_2*%
%TO.N,GNDD*%
X4000000Y20000000D03*
%TD*%
D33*
%TO.P,SW1,1,1*%
%TO.N,GNDD*%
X17250000Y24325000D03*
X10750000Y24325000D03*
%TO.P,SW1,2,2*%
%TO.N,/RESET_PIN*%
X17250000Y19825000D03*
X10750000Y19825000D03*
%TD*%
D36*
%TO.N,GNDD*%
X25000000Y2000000D03*
X14000000Y9000000D03*
D37*
X37000000Y19000000D03*
D38*
X69000000Y26000000D03*
D37*
X38000000Y19000000D03*
D36*
X41000000Y36000000D03*
D37*
X40000000Y22000000D03*
D38*
X74000000Y18000000D03*
X74000000Y26000000D03*
D37*
X39000000Y21000000D03*
D36*
X31216892Y19000000D03*
X18000000Y36862500D03*
D38*
X66000000Y24000000D03*
D36*
X12000000Y30000000D03*
D38*
X74000000Y22000000D03*
D36*
X39000000Y11000000D03*
D37*
X40000000Y20000000D03*
D36*
X13000000Y2000000D03*
D38*
X64000000Y26000000D03*
X66000000Y20000000D03*
X69000000Y22000000D03*
X72000000Y20000000D03*
D36*
X2000000Y32000000D03*
D37*
X37000000Y20000000D03*
D36*
X45862500Y20000000D03*
X34862500Y27862500D03*
D38*
X64000000Y22000000D03*
X72000000Y24000000D03*
D36*
X45862500Y21000000D03*
X9000000Y17000000D03*
D38*
X64000000Y18000000D03*
D36*
X3000000Y7000000D03*
D37*
X39000000Y22000000D03*
D36*
X25100000Y28000000D03*
X18000000Y8000000D03*
X3000000Y13000000D03*
D38*
X69000000Y18000000D03*
D37*
X38000000Y22000000D03*
D36*
%TO.N,+3V3*%
X28000000Y31000000D03*
X18000000Y35000000D03*
%TO.N,/PB12*%
X31000000Y24000000D03*
X20000000Y22000000D03*
%TO.N,/LORA EN*%
X36237500Y24000000D03*
X45000000Y13000000D03*
%TO.N,/PB0*%
X60000000Y12000000D03*
X48000000Y23000000D03*
X39000000Y23000000D03*
X70000000Y12000000D03*
%TO.N,/RESET_PIN*%
X24000000Y18000000D03*
X38000000Y12399000D03*
X32000000Y12399000D03*
X40762500Y20878617D03*
D38*
%TO.N,VRAW*%
X26000000Y10000000D03*
X15000000Y4000000D03*
D36*
%TO.N,/SENSOR DATA*%
X40000000Y24000000D03*
X37011765Y29011765D03*
%TO.N,/SWDIO*%
X32000000Y20000000D03*
%TO.N,+5V0*%
X17000000Y31000000D03*
X22000000Y30000000D03*
%TO.N,/SWCLK*%
X35087500Y18168261D03*
%TO.N,Net-(U4-PG)*%
X17000000Y28000000D03*
X20000000Y30000000D03*
%TO.N,Net-(U4-FB)*%
X15000000Y26000000D03*
X21000000Y30000000D03*
%TO.N,/INFO_LED*%
X22000000Y21399000D03*
X31000000Y22000000D03*
%TO.N,/LORA_MOSI*%
X61000000Y36000000D03*
X64000000Y33000000D03*
%TO.N,/LORA_MISO*%
X64000000Y35000000D03*
X66000000Y33000000D03*
%TO.N,Net-(J6-Pin_5)*%
X33000000Y34000000D03*
%TO.N,Net-(J7-CC1)*%
X5000000Y9000000D03*
%TO.N,Net-(J7-CC2)*%
X5000000Y11000000D03*
%TO.N,/INFO_BUZZER*%
X38000000Y5000000D03*
X35587500Y15412500D03*
%TD*%
D39*
%TO.N,GNDD*%
X25000000Y32008130D02*
X25000000Y31650000D01*
X40087500Y16912500D02*
X40087500Y18912500D01*
X34825000Y18825000D02*
X36000000Y20000000D01*
X2087500Y7912500D02*
X3000000Y7000000D01*
X35587500Y25237500D02*
X35587500Y22412500D01*
X22138500Y32276000D02*
X24732130Y32276000D01*
X40000000Y13275000D02*
X40000000Y12000000D01*
X12000000Y29000000D02*
X12000000Y30000000D01*
D40*
X64000000Y14000000D02*
X64000000Y17000000D01*
D39*
X24732130Y32276000D02*
X25000000Y32008130D01*
X2087500Y11242500D02*
X2087500Y12087500D01*
X35587500Y22412500D02*
X36000000Y22000000D01*
X15000000Y8000000D02*
X14000000Y9000000D01*
X31275000Y18941892D02*
X31275000Y17000000D01*
X45862500Y20000000D02*
X45862500Y18000000D01*
X42000000Y21825000D02*
X40825000Y21825000D01*
D40*
X62000000Y28000000D02*
X63000000Y27000000D01*
D39*
X31216892Y19000000D02*
X31275000Y18941892D01*
X10387500Y16325000D02*
X9675000Y16325000D01*
X18000000Y36862500D02*
X17000000Y36862500D01*
D40*
X62000000Y16000000D02*
X63000000Y17000000D01*
D39*
X2087500Y12087500D02*
X3000000Y13000000D01*
D40*
X76000000Y28000000D02*
X75000000Y27000000D01*
X76000000Y30000000D02*
X76000000Y28000000D01*
D39*
X9675000Y16325000D02*
X9000000Y17000000D01*
X34862500Y27862500D02*
X33000000Y27862500D01*
X18000000Y8000000D02*
X18087500Y7912500D01*
X15087500Y2000000D02*
X13000000Y2000000D01*
X11725000Y29000000D02*
X12000000Y29000000D01*
X25000000Y31650000D02*
X25000000Y30200000D01*
X18087500Y7912500D02*
X18087500Y5800000D01*
D40*
X62000000Y30000000D02*
X62000000Y28000000D01*
D39*
X25000000Y2000000D02*
X25000000Y3275000D01*
X15000000Y7862500D02*
X15000000Y8000000D01*
X33675000Y18825000D02*
X34825000Y18825000D01*
X39000000Y36000000D02*
X41000000Y36000000D01*
X18087500Y5800000D02*
X18087500Y4350000D01*
X2000000Y30000000D02*
X2000000Y32000000D01*
X25500000Y31650000D02*
X25000000Y31650000D01*
X25000000Y28100000D02*
X25000000Y30200000D01*
X22000000Y32137500D02*
X22138500Y32276000D01*
X10000000Y27275000D02*
X11725000Y29000000D01*
X18087500Y4350000D02*
X17587500Y4350000D01*
D40*
X62000000Y14000000D02*
X62000000Y16000000D01*
D39*
X25100000Y28000000D02*
X25000000Y28100000D01*
X2087500Y8622500D02*
X2087500Y7912500D01*
X40000000Y12000000D02*
X39000000Y11000000D01*
X40825000Y21825000D02*
X40000000Y21000000D01*
X45862500Y23000000D02*
X45862500Y21000000D01*
D40*
%TO.N,+3V3*%
X20087500Y7000000D02*
X22000000Y7000000D01*
D39*
X41250000Y16912500D02*
X40587500Y16912500D01*
X42000000Y17662500D02*
X41250000Y16912500D01*
X19087500Y6000000D02*
X20087500Y7000000D01*
X30000000Y19650000D02*
X30000000Y22000000D01*
D40*
X43000000Y10000000D02*
X43000000Y15000000D01*
D39*
X68000000Y6000000D02*
X65000000Y3000000D01*
X65000000Y3000000D02*
X58677545Y3000000D01*
X42000000Y18325000D02*
X43812500Y18325000D01*
X42000000Y22325000D02*
X43462500Y22325000D01*
X43812500Y18325000D02*
X44137500Y18000000D01*
X23675000Y16325000D02*
X17250000Y16325000D01*
D40*
X24000000Y7000000D02*
X27000000Y7000000D01*
D39*
X33000000Y26137500D02*
X34187500Y26137500D01*
X58050000Y3627545D02*
X58050000Y7000000D01*
X58677545Y3000000D02*
X58050000Y3627545D01*
D40*
X30000000Y10000000D02*
X27000000Y7000000D01*
X40000000Y7000000D02*
X43000000Y10000000D01*
D39*
X21000000Y6087500D02*
X20087500Y7000000D01*
X25000000Y6000000D02*
X24000000Y7000000D01*
X15460000Y34460000D02*
X14000000Y34460000D01*
X25000000Y5000000D02*
X25000000Y6000000D01*
X43462500Y22325000D02*
X44137500Y23000000D01*
X61050000Y10000000D02*
X58050000Y7000000D01*
X17000000Y35137500D02*
X16137500Y35137500D01*
X40587500Y15587500D02*
X40000000Y15000000D01*
X23000000Y6000000D02*
X22000000Y7000000D01*
X30000000Y29000000D02*
X28000000Y31000000D01*
X30000000Y28000000D02*
X30000000Y27000000D01*
X40587500Y16912500D02*
X40587500Y15587500D01*
D40*
X30000000Y10000000D02*
X30000000Y22000000D01*
X58050000Y7000000D02*
X27000000Y7000000D01*
D39*
X42000000Y18325000D02*
X42000000Y17662500D01*
D40*
X30000000Y22000000D02*
X30000000Y28000000D01*
D39*
X62000000Y10000000D02*
X61050000Y10000000D01*
X22000000Y7000000D02*
X25000000Y10000000D01*
D40*
X22000000Y7000000D02*
X24000000Y7000000D01*
D39*
X18000000Y35000000D02*
X17137500Y35000000D01*
X25000000Y15000000D02*
X23675000Y16325000D01*
X17137500Y35000000D02*
X17000000Y35137500D01*
X33675000Y17675000D02*
X33000000Y17000000D01*
X34187500Y26137500D02*
X35087500Y25237500D01*
X25000000Y10000000D02*
X25000000Y15000000D01*
D40*
X30000000Y28000000D02*
X30000000Y29000000D01*
D39*
X68000000Y9655000D02*
X68000000Y6000000D01*
X21000000Y5000000D02*
X21000000Y6087500D01*
X33675000Y18325000D02*
X33675000Y17675000D01*
X16137500Y35137500D02*
X15460000Y34460000D01*
X23000000Y5000000D02*
X23000000Y6000000D01*
%TO.N,Net-(J6-Pin_1)*%
X2000000Y28275000D02*
X2000000Y27000000D01*
X2000000Y27000000D02*
X3000000Y26000000D01*
X4000000Y27175000D02*
X5175000Y26000000D01*
X6835000Y26000000D02*
X5175000Y26000000D01*
X3000000Y26000000D02*
X6835000Y26000000D01*
X4000000Y28175000D02*
X4000000Y27175000D01*
D41*
%TO.N,/PB12*%
X32000000Y24000000D02*
X32175000Y23825000D01*
X20000000Y22000000D02*
X10000000Y22000000D01*
X31000000Y24000000D02*
X32000000Y24000000D01*
X10000000Y22000000D02*
X9000000Y23000000D01*
X9000000Y27835000D02*
X6835000Y30000000D01*
X32175000Y23825000D02*
X33675000Y23825000D01*
X9000000Y23000000D02*
X9000000Y27835000D01*
%TO.N,Net-(Q1-G)*%
X64000000Y8175000D02*
X62000000Y8175000D01*
X62000000Y8175000D02*
X61125000Y8175000D01*
X61125000Y8175000D02*
X59950000Y7000000D01*
%TO.N,Net-(Q2-G)*%
X29000000Y36000000D02*
X26987500Y36000000D01*
X31000000Y36000000D02*
X29000000Y36000000D01*
X26987500Y36000000D02*
X25900000Y37087500D01*
D39*
%TO.N,Net-(U2-~{RESET})*%
X68000000Y14000000D02*
X68000000Y10975000D01*
D41*
%TO.N,/LORA EN*%
X63000000Y11000000D02*
X64000000Y10000000D01*
X45000000Y10000000D02*
X46000000Y9000000D01*
X36087500Y24150000D02*
X36087500Y25237500D01*
X36237500Y24000000D02*
X36087500Y24150000D01*
X60000000Y11000000D02*
X63000000Y11000000D01*
X46000000Y9000000D02*
X58000000Y9000000D01*
X58000000Y9000000D02*
X60000000Y11000000D01*
X45000000Y13000000D02*
X45000000Y10000000D01*
%TO.N,/PB0*%
X70000000Y12000000D02*
X70000000Y14000000D01*
X49000000Y23000000D02*
X48000000Y23000000D01*
X60000000Y12000000D02*
X49000000Y23000000D01*
X38087500Y23912500D02*
X39000000Y23000000D01*
X38087500Y25237500D02*
X38087500Y23912500D01*
%TO.N,/RESET_PIN*%
X38000000Y12399000D02*
X32000000Y12399000D01*
X15425000Y16325000D02*
X15425000Y18000000D01*
X41208883Y21325000D02*
X40762500Y20878617D01*
X19075000Y18000000D02*
X17250000Y19825000D01*
X10750000Y19825000D02*
X17250000Y19825000D01*
X12112500Y18462500D02*
X10750000Y19825000D01*
X42000000Y21325000D02*
X41208883Y21325000D01*
X12112500Y16325000D02*
X15425000Y16325000D01*
X15425000Y18000000D02*
X17250000Y19825000D01*
X24000000Y18000000D02*
X19075000Y18000000D01*
X12112500Y16325000D02*
X12112500Y18462500D01*
D39*
%TO.N,VRAW*%
X24014822Y37087500D02*
X24000000Y37087500D01*
D40*
X26000000Y20000000D02*
X19000000Y27000000D01*
D39*
X29000000Y34175000D02*
X26927322Y34175000D01*
X17087500Y4350000D02*
X15350000Y4350000D01*
D40*
X21000000Y36000000D02*
X22912500Y36000000D01*
X19000000Y27000000D02*
X19000000Y34000000D01*
D39*
X15137500Y6000000D02*
X15000000Y6137500D01*
X15350000Y4350000D02*
X15000000Y4000000D01*
D40*
X26000000Y10000000D02*
X26000000Y20000000D01*
D39*
X17087500Y6000000D02*
X15137500Y6000000D01*
X26927322Y34175000D02*
X24014822Y37087500D01*
D40*
X22912500Y36000000D02*
X24000000Y37087500D01*
X19000000Y34000000D02*
X21000000Y36000000D01*
D39*
X15000000Y6137500D02*
X15000000Y4000000D01*
%TO.N,Net-(Q2-D)*%
X22000000Y33862500D02*
X24000000Y33862500D01*
X26000000Y33762500D02*
X24950000Y34812500D01*
X24000000Y33862500D02*
X24950000Y34812500D01*
X26000000Y31650000D02*
X26000000Y33762500D01*
X26000000Y31650000D02*
X26000000Y30000000D01*
D41*
%TO.N,/SENSOR DATA*%
X42000000Y22825000D02*
X41175000Y22825000D01*
X37011765Y29011765D02*
X37000000Y34175000D01*
X39000000Y34175000D02*
X37000000Y34175000D01*
X41175000Y22825000D02*
X40000000Y24000000D01*
%TO.N,/SWDIO*%
X32000000Y20000000D02*
X32675000Y19325000D01*
X32675000Y19325000D02*
X33675000Y19325000D01*
D39*
%TO.N,+5V0*%
X14000000Y29000000D02*
X14000000Y30000000D01*
X9000000Y32000000D02*
X9000000Y35042431D01*
X4000000Y35000000D02*
X4000000Y30000000D01*
X10000000Y29000000D02*
X10000000Y31000000D01*
X9000000Y35042431D02*
X8042431Y36000000D01*
X5000000Y36000000D02*
X4000000Y35000000D01*
X16000000Y30000000D02*
X15000000Y31000000D01*
X17000000Y31000000D02*
X15000000Y31000000D01*
X10000000Y31000000D02*
X9000000Y32000000D01*
X22000000Y30000000D02*
X24000000Y30000000D01*
X6835000Y36000000D02*
X5000000Y36000000D01*
X15000000Y31000000D02*
X13000000Y31000000D01*
X13000000Y31000000D02*
X10000000Y31000000D01*
X14000000Y30000000D02*
X13000000Y31000000D01*
X16000000Y29000000D02*
X16000000Y30000000D01*
X8042431Y36000000D02*
X6835000Y36000000D01*
D41*
%TO.N,/SWCLK*%
X35087500Y18168261D02*
X35087500Y16912500D01*
D39*
%TO.N,Net-(U3-L1)*%
X16815000Y7280630D02*
X17613500Y6482130D01*
X17613500Y6482130D02*
X17613500Y6000000D01*
X16815000Y11000000D02*
X16815000Y7280630D01*
D41*
%TO.N,Net-(U3-L2)*%
X19185000Y11000000D02*
X19185000Y7070274D01*
X18587500Y6472774D02*
X18587500Y6000000D01*
X19185000Y7070274D02*
X18587500Y6472774D01*
D39*
%TO.N,Net-(U4-L1)*%
X25500000Y28500000D02*
X28185000Y25815000D01*
X28185000Y25815000D02*
X28185000Y25000000D01*
X25500000Y30000000D02*
X25500000Y28500000D01*
D41*
%TO.N,Net-(U4-L2)*%
X25815000Y26185000D02*
X25815000Y25000000D01*
X24500000Y27500000D02*
X25815000Y26185000D01*
X24500000Y30000000D02*
X24500000Y27500000D01*
D39*
%TO.N,Net-(U3-PG)*%
X21000000Y3175000D02*
X20262500Y3175000D01*
X20262500Y3175000D02*
X19087500Y4350000D01*
%TO.N,Net-(U3-FB)*%
X21825000Y2000000D02*
X20262500Y2000000D01*
X20262500Y2000000D02*
X18587500Y3675000D01*
X18587500Y3675000D02*
X18587500Y4350000D01*
X23000000Y3175000D02*
X21825000Y2000000D01*
X16912500Y2000000D02*
X18587500Y3675000D01*
%TO.N,Net-(U4-PG)*%
X23624000Y31274000D02*
X24000000Y31650000D01*
X20000000Y30000000D02*
X21274000Y31274000D01*
X16175000Y27175000D02*
X17000000Y28000000D01*
X16000000Y27175000D02*
X16175000Y27175000D01*
X21274000Y31274000D02*
X23624000Y31274000D01*
%TO.N,Net-(U4-FB)*%
X14000000Y27000000D02*
X15000000Y26000000D01*
X24500000Y31291870D02*
X24500000Y31650000D01*
X12000000Y27175000D02*
X14000000Y27175000D01*
X24031130Y30823000D02*
X24500000Y31291870D01*
X21000000Y30000000D02*
X21823000Y30823000D01*
X21823000Y30823000D02*
X24031130Y30823000D01*
X14000000Y27175000D02*
X14000000Y27000000D01*
D42*
%TO.N,Net-(Q1-D)*%
X66000000Y7000000D02*
X66000000Y14000000D01*
X63925000Y4925000D02*
X59000000Y4925000D01*
X66000000Y7000000D02*
X63925000Y4925000D01*
D41*
%TO.N,Net-(J3-Pin_1)*%
X2912500Y23087500D02*
X6000000Y20000000D01*
X2000000Y23087500D02*
X2912500Y23087500D01*
%TO.N,SENSOR EN*%
X36587500Y25237500D02*
X36587500Y28587500D01*
X36587500Y28587500D02*
X31000000Y34175000D01*
%TO.N,/INFO_LED*%
X31000000Y22000000D02*
X31325000Y22325000D01*
X2000000Y24912500D02*
X3087500Y24912500D01*
X31325000Y22325000D02*
X33675000Y22325000D01*
X3087500Y24912500D02*
X6601000Y21399000D01*
X6601000Y21399000D02*
X22000000Y21399000D01*
%TO.N,/LORA_MOSI*%
X61000000Y36000000D02*
X45000000Y36000000D01*
X66000000Y31000000D02*
X66000000Y30000000D01*
X38587500Y29587500D02*
X38587500Y25237500D01*
X64000000Y33000000D02*
X66000000Y31000000D01*
X45000000Y36000000D02*
X38587500Y29587500D01*
%TO.N,/LORA_NSS*%
X56450000Y33000000D02*
X55785075Y33000000D01*
X64000000Y30352000D02*
X64000000Y30000000D01*
X40087500Y28000000D02*
X40087500Y25237500D01*
X57170000Y32000000D02*
X57050000Y32000000D01*
X59570000Y32000000D02*
X59450000Y32000000D01*
X60770000Y32000000D02*
X60650000Y32000000D01*
X56810000Y32240000D02*
X56810000Y32760000D01*
X60410000Y32760000D02*
X60410000Y33000000D01*
X58010000Y32240000D02*
X58010000Y33000000D01*
X58610000Y33000000D02*
X58610000Y32240000D01*
X59810000Y33360000D02*
X59810000Y33000000D01*
X58370000Y32000000D02*
X58250000Y32000000D01*
X59210000Y32240000D02*
X59210000Y33000000D01*
X57770000Y33600000D02*
X57650000Y33600000D01*
X60170000Y33600000D02*
X60050000Y33600000D01*
X60410000Y33000000D02*
X60410000Y33360000D01*
X45087500Y33000000D02*
X40087500Y28000000D01*
X57410000Y33360000D02*
X57410000Y33000000D01*
X55785075Y33000000D02*
X45087500Y33000000D01*
X58010000Y33000000D02*
X58010000Y33360000D01*
X56570000Y33000000D02*
X56450000Y33000000D01*
X64000000Y30000000D02*
X64000000Y30250000D01*
X58610000Y33360000D02*
X58610000Y33000000D01*
X57410000Y32760000D02*
X57410000Y32240000D01*
X60410000Y32240000D02*
X60410000Y32760000D01*
X59810000Y33000000D02*
X59810000Y32240000D01*
X61010000Y32760000D02*
X61010000Y32240000D01*
X58970000Y33600000D02*
X58850000Y33600000D01*
X57410000Y33000000D02*
X57410000Y32760000D01*
X64000000Y30250000D02*
X61250000Y33000000D01*
X59210000Y33000000D02*
X59210000Y33360000D01*
X61010000Y32240000D02*
G75*
G02*
X60770000Y32000000I-240000J0D01*
G01*
X59210000Y33360000D02*
G75*
G03*
X58970000Y33600000I-240000J0D01*
G01*
X57410000Y32240000D02*
G75*
G02*
X57170000Y32000000I-240000J0D01*
G01*
X58250000Y32000000D02*
G75*
G02*
X58010000Y32240000I0J240000D01*
G01*
X57650000Y33600000D02*
G75*
G03*
X57410000Y33360000I0J-240000D01*
G01*
X57050000Y32000000D02*
G75*
G02*
X56810000Y32240000I0J240000D01*
G01*
X59810000Y32240000D02*
G75*
G02*
X59570000Y32000000I-240000J0D01*
G01*
X58850000Y33600000D02*
G75*
G03*
X58610000Y33360000I0J-240000D01*
G01*
X58010000Y33360000D02*
G75*
G03*
X57770000Y33600000I-240000J0D01*
G01*
X61250000Y33000000D02*
G75*
G03*
X61010000Y32760000I0J-240000D01*
G01*
X60050000Y33600000D02*
G75*
G03*
X59810000Y33360000I0J-240000D01*
G01*
X60410000Y33360000D02*
G75*
G03*
X60170000Y33600000I-240000J0D01*
G01*
X56810000Y32760000D02*
G75*
G03*
X56570000Y33000000I-240000J0D01*
G01*
X60650000Y32000000D02*
G75*
G02*
X60410000Y32240000I0J240000D01*
G01*
X58610000Y32240000D02*
G75*
G02*
X58370000Y32000000I-240000J0D01*
G01*
X59450000Y32000000D02*
G75*
G02*
X59210000Y32240000I0J240000D01*
G01*
%TO.N,/LORA_SCK*%
X45000000Y34000000D02*
X39587500Y28587500D01*
X53702032Y34360000D02*
X53702032Y34000000D01*
X53462032Y33400000D02*
X53342032Y33400000D01*
X53702032Y33760000D02*
X53702032Y33640000D01*
X70000000Y30000000D02*
X70000000Y30250000D01*
X54302032Y33640000D02*
X54302032Y33760000D01*
X54902032Y33760000D02*
X54902032Y33640000D01*
X54662032Y33400000D02*
X54542032Y33400000D01*
X53102032Y33640000D02*
X53102032Y33760000D01*
X54302032Y34000000D02*
X54302032Y34360000D01*
X52862032Y34000000D02*
X52742032Y34000000D01*
X70000000Y30250000D02*
X66250000Y34000000D01*
X53702032Y34000000D02*
X53702032Y33760000D01*
X52391238Y34000000D02*
X45000000Y34000000D01*
X54062032Y34600000D02*
X53942032Y34600000D01*
X66250000Y34000000D02*
X55142032Y34000000D01*
X39587500Y28587500D02*
X39587500Y25237500D01*
X52742032Y34000000D02*
X52391238Y34000000D01*
X54302032Y33760000D02*
X54302032Y34000000D01*
X55142032Y34000000D02*
G75*
G03*
X54902000Y33760000I-32J-240000D01*
G01*
X53342032Y33400000D02*
G75*
G02*
X53102000Y33640000I-32J240000D01*
G01*
X54302032Y34360000D02*
G75*
G03*
X54062032Y34600032I-240032J0D01*
G01*
X54902032Y33640000D02*
G75*
G02*
X54662032Y33399968I-240032J0D01*
G01*
X54542032Y33400000D02*
G75*
G02*
X54302000Y33640000I-32J240000D01*
G01*
X53102032Y33760000D02*
G75*
G03*
X52862032Y34000032I-240032J0D01*
G01*
X53942032Y34600000D02*
G75*
G03*
X53702000Y34360000I-32J-240000D01*
G01*
X53702032Y33640000D02*
G75*
G02*
X53462032Y33399968I-240032J0D01*
G01*
%TO.N,/LORA_MISO*%
X39087500Y29087500D02*
X45000000Y35000000D01*
X66000000Y33000000D02*
X68000000Y31000000D01*
X45000000Y35000000D02*
X64000000Y35000000D01*
X68000000Y31000000D02*
X68000000Y30000000D01*
X39087500Y25237500D02*
X39087500Y29087500D01*
%TO.N,Net-(J5-Pin_1)*%
X33912500Y2087500D02*
X33000000Y3000000D01*
X38000000Y2087500D02*
X33912500Y2087500D01*
%TO.N,Net-(J6-Pin_5)*%
X37000000Y36000000D02*
X35000000Y36000000D01*
X35000000Y36000000D02*
X33000000Y34000000D01*
D39*
%TO.N,Net-(J7-CC1)*%
X3912500Y8622500D02*
X4622500Y8622500D01*
X4622500Y8622500D02*
X5000000Y9000000D01*
%TO.N,Net-(J7-CC2)*%
X4757500Y11242500D02*
X5000000Y11000000D01*
X3912500Y11242500D02*
X4757500Y11242500D01*
D41*
%TO.N,/INFO_BUZZER*%
X38000000Y5000000D02*
X38000000Y3912500D01*
X35587500Y15412500D02*
X35587500Y16912500D01*
%TD*%
%TA.AperFunction,Conductor*%
%TO.N,GNDD*%
G36*
X38088942Y23057815D02*
G01*
X38109584Y23041181D01*
X38165425Y22985340D01*
X38198910Y22924017D01*
X38199361Y22921851D01*
X38230261Y22766509D01*
X38230264Y22766499D01*
X38290602Y22620828D01*
X38290609Y22620815D01*
X38378210Y22489712D01*
X38378213Y22489708D01*
X38489707Y22378214D01*
X38489711Y22378211D01*
X38620814Y22290610D01*
X38620827Y22290603D01*
X38766498Y22230265D01*
X38766503Y22230263D01*
X38921153Y22199501D01*
X38921156Y22199500D01*
X38921158Y22199500D01*
X39078844Y22199500D01*
X39078845Y22199501D01*
X39233497Y22230263D01*
X39379179Y22290606D01*
X39510289Y22378211D01*
X39621789Y22489711D01*
X39709394Y22620821D01*
X39769737Y22766503D01*
X39800500Y22921158D01*
X39800500Y22953500D01*
X39803050Y22962186D01*
X39801762Y22971147D01*
X39812740Y22995188D01*
X39820185Y23020539D01*
X39827025Y23026467D01*
X39830787Y23034703D01*
X39853021Y23048993D01*
X39872989Y23066294D01*
X39883503Y23068582D01*
X39889565Y23072477D01*
X39924500Y23077500D01*
X40021903Y23077500D01*
X40088942Y23057815D01*
X40109584Y23041181D01*
X40551181Y22599584D01*
X40584666Y22538261D01*
X40587500Y22511903D01*
X40587500Y21755439D01*
X40567815Y21688400D01*
X40515011Y21642645D01*
X40510953Y21640878D01*
X40383323Y21588013D01*
X40383314Y21588008D01*
X40252211Y21500407D01*
X40252207Y21500404D01*
X40140713Y21388910D01*
X40140710Y21388906D01*
X40053109Y21257803D01*
X40053102Y21257790D01*
X39992764Y21112119D01*
X39992761Y21112107D01*
X39962000Y20957464D01*
X39962000Y20799771D01*
X39992761Y20645128D01*
X39992764Y20645116D01*
X40053102Y20499445D01*
X40053109Y20499432D01*
X40140710Y20368329D01*
X40140713Y20368325D01*
X40252207Y20256831D01*
X40252211Y20256828D01*
X40383314Y20169227D01*
X40383327Y20169220D01*
X40510952Y20116357D01*
X40565356Y20072517D01*
X40587421Y20006223D01*
X40587500Y20001796D01*
X40587500Y18274027D01*
X40567815Y18206988D01*
X40515011Y18161233D01*
X40478668Y18152067D01*
X40478805Y18151030D01*
X40362264Y18135687D01*
X40362263Y18135687D01*
X40244576Y18086939D01*
X40236398Y18085313D01*
X40232058Y18082523D01*
X40197123Y18077500D01*
X39977877Y18077500D01*
X39930424Y18086939D01*
X39815297Y18134626D01*
X39812736Y18135687D01*
X39798198Y18137601D01*
X39700227Y18150500D01*
X39700220Y18150500D01*
X39474780Y18150500D01*
X39474772Y18150500D01*
X39388006Y18139076D01*
X39362264Y18135687D01*
X39362262Y18135687D01*
X39354208Y18134626D01*
X39353816Y18137601D01*
X39321184Y18137601D01*
X39320792Y18134626D01*
X39312737Y18135687D01*
X39312736Y18135687D01*
X39283771Y18139501D01*
X39200227Y18150500D01*
X39200220Y18150500D01*
X38974780Y18150500D01*
X38974772Y18150500D01*
X38888006Y18139076D01*
X38862264Y18135687D01*
X38862262Y18135687D01*
X38854208Y18134626D01*
X38853816Y18137601D01*
X38821184Y18137601D01*
X38820792Y18134626D01*
X38812737Y18135687D01*
X38812736Y18135687D01*
X38783771Y18139501D01*
X38700227Y18150500D01*
X38700220Y18150500D01*
X38474780Y18150500D01*
X38474772Y18150500D01*
X38388006Y18139076D01*
X38362264Y18135687D01*
X38362262Y18135687D01*
X38354208Y18134626D01*
X38353816Y18137601D01*
X38321184Y18137601D01*
X38320792Y18134626D01*
X38312737Y18135687D01*
X38312736Y18135687D01*
X38283771Y18139501D01*
X38200227Y18150500D01*
X38200220Y18150500D01*
X37974780Y18150500D01*
X37974772Y18150500D01*
X37888006Y18139076D01*
X37862264Y18135687D01*
X37862262Y18135687D01*
X37854208Y18134626D01*
X37853816Y18137601D01*
X37821184Y18137601D01*
X37820792Y18134626D01*
X37812737Y18135687D01*
X37812736Y18135687D01*
X37783771Y18139501D01*
X37700227Y18150500D01*
X37700220Y18150500D01*
X37474780Y18150500D01*
X37474772Y18150500D01*
X37388006Y18139076D01*
X37362264Y18135687D01*
X37362262Y18135687D01*
X37354208Y18134626D01*
X37353816Y18137601D01*
X37321184Y18137601D01*
X37320792Y18134626D01*
X37312737Y18135687D01*
X37312736Y18135687D01*
X37283771Y18139501D01*
X37200227Y18150500D01*
X37200220Y18150500D01*
X36974780Y18150500D01*
X36974772Y18150500D01*
X36888006Y18139076D01*
X36862264Y18135687D01*
X36862262Y18135687D01*
X36854208Y18134626D01*
X36853816Y18137601D01*
X36821184Y18137601D01*
X36820792Y18134626D01*
X36812737Y18135687D01*
X36812736Y18135687D01*
X36783771Y18139501D01*
X36700227Y18150500D01*
X36700220Y18150500D01*
X36474780Y18150500D01*
X36474772Y18150500D01*
X36388006Y18139076D01*
X36362264Y18135687D01*
X36362262Y18135687D01*
X36354208Y18134626D01*
X36353816Y18137601D01*
X36321184Y18137601D01*
X36320792Y18134626D01*
X36312737Y18135687D01*
X36312736Y18135687D01*
X36283771Y18139501D01*
X36200227Y18150500D01*
X36200220Y18150500D01*
X36008980Y18150500D01*
X35941941Y18170185D01*
X35896186Y18222989D01*
X35887363Y18250308D01*
X35857238Y18401753D01*
X35857237Y18401754D01*
X35857237Y18401758D01*
X35857235Y18401763D01*
X35796897Y18547434D01*
X35796890Y18547447D01*
X35709289Y18678550D01*
X35709286Y18678554D01*
X35623819Y18764021D01*
X35590334Y18825344D01*
X35587500Y18851702D01*
X35587500Y22953500D01*
X35607185Y23020539D01*
X35659989Y23066294D01*
X35711500Y23077500D01*
X38021903Y23077500D01*
X38088942Y23057815D01*
G37*
%TD.AperFunction*%
%TD*%
%TA.AperFunction,Conductor*%
%TO.N,GNDD*%
G36*
X75943039Y27980315D02*
G01*
X75988794Y27927511D01*
X76000000Y27876000D01*
X76000000Y16124000D01*
X75980315Y16056961D01*
X75927511Y16011206D01*
X75876000Y16000000D01*
X62124000Y16000000D01*
X62056961Y16019685D01*
X62011206Y16072489D01*
X62000000Y16124000D01*
X62000000Y27876000D01*
X62019685Y27943039D01*
X62072489Y27988794D01*
X62124000Y28000000D01*
X75876000Y28000000D01*
X75943039Y27980315D01*
G37*
%TD.AperFunction*%
%TD*%
%TA.AperFunction,Conductor*%
%TO.N,+3V3*%
G36*
X44943039Y26980315D02*
G01*
X44988794Y26927511D01*
X45000000Y26876000D01*
X45000000Y23979230D01*
X44980315Y23912191D01*
X44927511Y23866436D01*
X44858353Y23856492D01*
X44810903Y23873691D01*
X44751305Y23910452D01*
X44751300Y23910454D01*
X44587652Y23964681D01*
X44486654Y23975000D01*
X44387500Y23975000D01*
X44387500Y22025001D01*
X44486640Y22025001D01*
X44486654Y22025002D01*
X44587652Y22035320D01*
X44751300Y22089547D01*
X44751307Y22089550D01*
X44810902Y22126309D01*
X44878294Y22144750D01*
X44944958Y22123828D01*
X44989728Y22070187D01*
X45000000Y22020771D01*
X45000000Y18979230D01*
X44980315Y18912191D01*
X44927511Y18866436D01*
X44858353Y18856492D01*
X44810903Y18873691D01*
X44751305Y18910452D01*
X44751300Y18910454D01*
X44587652Y18964681D01*
X44486654Y18975000D01*
X44387500Y18975000D01*
X44387500Y17025001D01*
X44486640Y17025001D01*
X44486654Y17025002D01*
X44587652Y17035320D01*
X44751300Y17089547D01*
X44751307Y17089550D01*
X44810902Y17126309D01*
X44878294Y17144750D01*
X44944958Y17123828D01*
X44989728Y17070187D01*
X45000000Y17020771D01*
X45000000Y14124000D01*
X44980315Y14056961D01*
X44927511Y14011206D01*
X44876000Y14000000D01*
X40907552Y14000000D01*
X40878111Y14008645D01*
X40848125Y14015168D01*
X40843109Y14018923D01*
X40840513Y14019685D01*
X40819871Y14036319D01*
X40806017Y14050173D01*
X40772532Y14111496D01*
X40777516Y14181188D01*
X40806021Y14225540D01*
X40819947Y14239465D01*
X40910448Y14386189D01*
X40910453Y14386200D01*
X40964680Y14549848D01*
X40974999Y14650846D01*
X40975000Y14650859D01*
X40975000Y14750000D01*
X39025001Y14750000D01*
X39025001Y14650846D01*
X39035319Y14549848D01*
X39089546Y14386200D01*
X39089551Y14386189D01*
X39180052Y14239466D01*
X39180055Y14239462D01*
X39193981Y14225536D01*
X39198316Y14217596D01*
X39205562Y14212173D01*
X39214800Y14187408D01*
X39227466Y14164213D01*
X39226820Y14155188D01*
X39229983Y14146710D01*
X39224367Y14120888D01*
X39222482Y14094521D01*
X39216665Y14085470D01*
X39215136Y14078436D01*
X39193988Y14050180D01*
X39180135Y14036325D01*
X39118814Y14002836D01*
X39092447Y14000000D01*
X30124000Y14000000D01*
X30056961Y14019685D01*
X30011206Y14072489D01*
X30000000Y14124000D01*
X30000000Y16599333D01*
X30019685Y16666372D01*
X30072489Y16712127D01*
X30141647Y16722071D01*
X30205203Y16693046D01*
X30242977Y16634268D01*
X30246973Y16613894D01*
X30247325Y16612248D01*
X30251605Y16599333D01*
X30301592Y16448484D01*
X30392160Y16301650D01*
X30514150Y16179660D01*
X30660984Y16089092D01*
X30824747Y16034826D01*
X30925823Y16024500D01*
X31624176Y16024501D01*
X31624184Y16024502D01*
X31624187Y16024502D01*
X31679530Y16030156D01*
X31725253Y16034826D01*
X31889016Y16089092D01*
X32035850Y16179660D01*
X32050171Y16193982D01*
X32111489Y16227467D01*
X32181181Y16222486D01*
X32225534Y16193983D01*
X32239461Y16180056D01*
X32239465Y16180053D01*
X32386188Y16089552D01*
X32386199Y16089547D01*
X32549847Y16035320D01*
X32650851Y16025001D01*
X33250000Y16025001D01*
X33349140Y16025001D01*
X33349154Y16025002D01*
X33450152Y16035320D01*
X33613800Y16089547D01*
X33613811Y16089552D01*
X33760534Y16180053D01*
X33760538Y16180056D01*
X33882444Y16301962D01*
X33882447Y16301966D01*
X33972948Y16448689D01*
X33972953Y16448700D01*
X34027180Y16612348D01*
X34037499Y16713346D01*
X34037500Y16713359D01*
X34037500Y16750000D01*
X33250000Y16750000D01*
X33250000Y16025001D01*
X32650851Y16025001D01*
X32750000Y16025002D01*
X32750000Y16876000D01*
X32769685Y16943039D01*
X32822489Y16988794D01*
X32874000Y17000000D01*
X33000000Y17000000D01*
X33000000Y17126000D01*
X33019685Y17193039D01*
X33072489Y17238794D01*
X33124000Y17250000D01*
X34037499Y17250000D01*
X34037499Y17286640D01*
X34037498Y17286655D01*
X34027180Y17387654D01*
X33985978Y17511997D01*
X33983576Y17581825D01*
X34019308Y17641867D01*
X34081829Y17673059D01*
X34103684Y17675000D01*
X34313000Y17675000D01*
X34380039Y17655315D01*
X34425794Y17602511D01*
X34437000Y17551000D01*
X34437000Y16212273D01*
X34451813Y16099765D01*
X34451813Y16099764D01*
X34482988Y16024500D01*
X34509802Y15959767D01*
X34602049Y15839549D01*
X34722267Y15747302D01*
X34722268Y15747302D01*
X34722269Y15747301D01*
X34735091Y15741990D01*
X34789495Y15698150D01*
X34811560Y15631856D01*
X34809257Y15603239D01*
X34787000Y15491342D01*
X34787000Y15333654D01*
X34817761Y15179011D01*
X34817764Y15178999D01*
X34878102Y15033328D01*
X34878109Y15033315D01*
X34965710Y14902212D01*
X34965713Y14902208D01*
X35077207Y14790714D01*
X35077211Y14790711D01*
X35208314Y14703110D01*
X35208327Y14703103D01*
X35353998Y14642765D01*
X35354003Y14642763D01*
X35508653Y14612001D01*
X35508656Y14612000D01*
X35508658Y14612000D01*
X35666344Y14612000D01*
X35666345Y14612001D01*
X35820997Y14642763D01*
X35966679Y14703106D01*
X36097789Y14790711D01*
X36209289Y14902211D01*
X36296894Y15033321D01*
X36357237Y15179003D01*
X36388000Y15333658D01*
X36388000Y15491342D01*
X36388000Y15491345D01*
X36381045Y15526308D01*
X36387272Y15595899D01*
X36430134Y15651077D01*
X36496024Y15674322D01*
X36502662Y15674500D01*
X36700213Y15674500D01*
X36700220Y15674500D01*
X36812736Y15689313D01*
X36812736Y15689314D01*
X36820795Y15690374D01*
X36821198Y15687311D01*
X36853802Y15687311D01*
X36854205Y15690374D01*
X36862263Y15689314D01*
X36862264Y15689313D01*
X36974780Y15674500D01*
X36974787Y15674500D01*
X37200213Y15674500D01*
X37200220Y15674500D01*
X37312736Y15689313D01*
X37312736Y15689314D01*
X37320795Y15690374D01*
X37321198Y15687311D01*
X37353802Y15687311D01*
X37354205Y15690374D01*
X37362263Y15689314D01*
X37362264Y15689313D01*
X37474780Y15674500D01*
X37474787Y15674500D01*
X37700213Y15674500D01*
X37700220Y15674500D01*
X37812736Y15689313D01*
X37812736Y15689314D01*
X37820795Y15690374D01*
X37821198Y15687311D01*
X37853802Y15687311D01*
X37854205Y15690374D01*
X37862263Y15689314D01*
X37862264Y15689313D01*
X37974780Y15674500D01*
X37974787Y15674500D01*
X38200213Y15674500D01*
X38200220Y15674500D01*
X38312736Y15689313D01*
X38312736Y15689314D01*
X38320795Y15690374D01*
X38321198Y15687311D01*
X38353802Y15687311D01*
X38354205Y15690374D01*
X38362263Y15689314D01*
X38362264Y15689313D01*
X38474780Y15674500D01*
X38474787Y15674500D01*
X38700213Y15674500D01*
X38700220Y15674500D01*
X38812736Y15689313D01*
X38812739Y15689315D01*
X38818365Y15690055D01*
X38818478Y15690107D01*
X38818682Y15690096D01*
X38820795Y15690374D01*
X38820847Y15689978D01*
X38834484Y15689234D01*
X38853769Y15690503D01*
X38862030Y15689410D01*
X38862264Y15689313D01*
X38955411Y15677050D01*
X38987834Y15662681D01*
X39019221Y15648796D01*
X39019245Y15648760D01*
X39019287Y15648741D01*
X39038708Y15619253D01*
X39057693Y15590472D01*
X39057693Y15590428D01*
X39057718Y15590390D01*
X39058101Y15556137D01*
X39058525Y15520607D01*
X39058500Y15520529D01*
X39058501Y15520525D01*
X39058498Y15520522D01*
X39056846Y15515121D01*
X39035320Y15450158D01*
X39035319Y15450154D01*
X39025000Y15349155D01*
X39025000Y15250000D01*
X40974999Y15250000D01*
X40974999Y15349140D01*
X40974998Y15349155D01*
X40964680Y15450153D01*
X40911323Y15611174D01*
X40908921Y15681002D01*
X40944653Y15741044D01*
X40953543Y15748554D01*
X41072593Y15839904D01*
X41164763Y15960022D01*
X41222698Y16099892D01*
X41222699Y16099896D01*
X41237499Y16212303D01*
X41237500Y16212317D01*
X41237500Y16762500D01*
X40862000Y16762500D01*
X40853314Y16765051D01*
X40844353Y16763762D01*
X40820312Y16774741D01*
X40794961Y16782185D01*
X40789033Y16789026D01*
X40780797Y16792787D01*
X40766507Y16815022D01*
X40749206Y16834989D01*
X40746918Y16845504D01*
X40743023Y16851565D01*
X40738000Y16886500D01*
X40738000Y16938500D01*
X40757685Y17005539D01*
X40810489Y17051294D01*
X40862000Y17062500D01*
X41237500Y17062500D01*
X41237500Y17551000D01*
X41257185Y17618039D01*
X41309989Y17663794D01*
X41361500Y17675000D01*
X41850000Y17675000D01*
X41850000Y18050500D01*
X41852550Y18059186D01*
X41851262Y18068147D01*
X41862240Y18092188D01*
X41869685Y18117539D01*
X41876525Y18123467D01*
X41880287Y18131703D01*
X41902521Y18145993D01*
X41922489Y18163294D01*
X41933003Y18165582D01*
X41939065Y18169477D01*
X41974000Y18174500D01*
X42026000Y18174500D01*
X42093039Y18154815D01*
X42138794Y18102011D01*
X42150000Y18050500D01*
X42150000Y17675000D01*
X42700183Y17675000D01*
X42700197Y17675001D01*
X42812604Y17689801D01*
X42812605Y17689801D01*
X42936758Y17741226D01*
X43006228Y17748695D01*
X43068707Y17717420D01*
X43104359Y17657331D01*
X43107569Y17639267D01*
X43110319Y17612348D01*
X43164546Y17448700D01*
X43164551Y17448689D01*
X43255052Y17301966D01*
X43255055Y17301962D01*
X43376961Y17180056D01*
X43376965Y17180053D01*
X43523688Y17089552D01*
X43523699Y17089547D01*
X43687347Y17035320D01*
X43788351Y17025001D01*
X43887500Y17025002D01*
X43887500Y18975001D01*
X43788360Y18975000D01*
X43788344Y18974999D01*
X43687347Y18964681D01*
X43523699Y18910454D01*
X43523694Y18910452D01*
X43425811Y18850076D01*
X43392490Y18840959D01*
X43359312Y18831623D01*
X43358867Y18831759D01*
X43358418Y18831636D01*
X43325519Y18841962D01*
X43292499Y18852064D01*
X43292197Y18852421D01*
X43291755Y18852559D01*
X43269674Y18879016D01*
X43247344Y18905383D01*
X43247179Y18905968D01*
X43246985Y18906201D01*
X43237784Y18939357D01*
X43223187Y19050236D01*
X43223088Y19050474D01*
X43221995Y19058742D01*
X43225189Y19079304D01*
X43225189Y19091302D01*
X43222126Y19091705D01*
X43229394Y19146914D01*
X43238000Y19212280D01*
X43238000Y19437720D01*
X43223187Y19550236D01*
X43223186Y19550237D01*
X43222126Y19558295D01*
X43225189Y19558699D01*
X43225189Y19591302D01*
X43222126Y19591705D01*
X43226086Y19621787D01*
X43238000Y19712280D01*
X43238000Y19937720D01*
X43223187Y20050236D01*
X43223186Y20050237D01*
X43222126Y20058295D01*
X43225189Y20058699D01*
X43225189Y20091302D01*
X43222126Y20091705D01*
X43223187Y20099764D01*
X43238000Y20212280D01*
X43238000Y20437720D01*
X43223187Y20550236D01*
X43223186Y20550237D01*
X43222126Y20558295D01*
X43225189Y20558699D01*
X43225189Y20591302D01*
X43222126Y20591705D01*
X43226086Y20621787D01*
X43238000Y20712280D01*
X43238000Y20937720D01*
X43223187Y21050236D01*
X43223186Y21050237D01*
X43222126Y21058295D01*
X43225189Y21058699D01*
X43225189Y21091302D01*
X43222126Y21091705D01*
X43236317Y21199500D01*
X43238000Y21212280D01*
X43238000Y21437720D01*
X43223187Y21550236D01*
X43223186Y21550237D01*
X43222126Y21558295D01*
X43225189Y21558699D01*
X43225189Y21591302D01*
X43222126Y21591705D01*
X43225960Y21620828D01*
X43238000Y21712280D01*
X43238000Y21937720D01*
X43225055Y22036047D01*
X43235820Y22105082D01*
X43282200Y22157338D01*
X43349469Y22176223D01*
X43413092Y22157770D01*
X43523692Y22089550D01*
X43523699Y22089547D01*
X43687347Y22035320D01*
X43788351Y22025001D01*
X43887500Y22025002D01*
X43887500Y23975001D01*
X43788360Y23975000D01*
X43788344Y23974999D01*
X43687347Y23964681D01*
X43523699Y23910454D01*
X43523694Y23910452D01*
X43425811Y23850076D01*
X43358418Y23831636D01*
X43291755Y23852559D01*
X43246985Y23906201D01*
X43237775Y23939429D01*
X43234736Y23962512D01*
X43223187Y24050236D01*
X43165198Y24190233D01*
X43072951Y24310451D01*
X42952733Y24402698D01*
X42952729Y24402700D01*
X42874897Y24434939D01*
X42812736Y24460687D01*
X42798671Y24462539D01*
X42700227Y24475500D01*
X42700220Y24475500D01*
X41362000Y24475500D01*
X41294961Y24495185D01*
X41249206Y24547989D01*
X41238000Y24599500D01*
X41238000Y25937714D01*
X41237999Y25937728D01*
X41237250Y25943414D01*
X41223187Y26050236D01*
X41165198Y26190233D01*
X41072951Y26310451D01*
X40952733Y26402698D01*
X40952729Y26402700D01*
X40837498Y26450430D01*
X40812736Y26460687D01*
X40795813Y26462915D01*
X40731916Y26491183D01*
X40693446Y26549508D01*
X40688000Y26585854D01*
X40688000Y26876000D01*
X40707685Y26943039D01*
X40760489Y26988794D01*
X40812000Y27000000D01*
X44876000Y27000000D01*
X44943039Y26980315D01*
G37*
%TD.AperFunction*%
%TA.AperFunction,Conductor*%
G36*
X30205203Y21792730D02*
G01*
X30238561Y21746469D01*
X30290602Y21620828D01*
X30290609Y21620815D01*
X30378210Y21489712D01*
X30378213Y21489708D01*
X30489707Y21378214D01*
X30489711Y21378211D01*
X30620814Y21290610D01*
X30620827Y21290603D01*
X30766498Y21230265D01*
X30766503Y21230263D01*
X30921153Y21199501D01*
X30921156Y21199500D01*
X30921158Y21199500D01*
X31078844Y21199500D01*
X31078845Y21199501D01*
X31233497Y21230263D01*
X31379179Y21290606D01*
X31510289Y21378211D01*
X31621789Y21489711D01*
X31709394Y21620821D01*
X31720633Y21647954D01*
X31764475Y21702357D01*
X31830769Y21724421D01*
X31835194Y21724500D01*
X32326646Y21724500D01*
X32327213Y21724334D01*
X32327783Y21724495D01*
X32360709Y21714498D01*
X32393685Y21704815D01*
X32394072Y21704369D01*
X32394639Y21704196D01*
X32416951Y21677965D01*
X32439440Y21652011D01*
X32439652Y21651276D01*
X32439908Y21650975D01*
X32447302Y21624774D01*
X32449541Y21617021D01*
X32451813Y21599764D01*
X32451883Y21599593D01*
X32452969Y21591521D01*
X32449899Y21571477D01*
X32449899Y21558684D01*
X32452874Y21558292D01*
X32437000Y21437728D01*
X32437000Y21212273D01*
X32452874Y21091708D01*
X32451264Y21091497D01*
X32453642Y21064657D01*
X32452592Y21052118D01*
X32451813Y21050236D01*
X32437000Y20937720D01*
X32437000Y20865841D01*
X32436568Y20860680D01*
X32425755Y20832730D01*
X32417315Y20803984D01*
X32413284Y20800492D01*
X32411360Y20795516D01*
X32387152Y20777848D01*
X32364511Y20758229D01*
X32359231Y20757470D01*
X32354923Y20754325D01*
X32325011Y20752550D01*
X32295353Y20748285D01*
X32287848Y20750344D01*
X32285176Y20750185D01*
X32282074Y20751928D01*
X32265549Y20756461D01*
X32233497Y20769737D01*
X32233489Y20769739D01*
X32078845Y20800500D01*
X32078842Y20800500D01*
X31921158Y20800500D01*
X31921155Y20800500D01*
X31766510Y20769739D01*
X31766498Y20769736D01*
X31620827Y20709398D01*
X31620814Y20709391D01*
X31489711Y20621790D01*
X31489707Y20621787D01*
X31378213Y20510293D01*
X31378210Y20510289D01*
X31290609Y20379186D01*
X31290602Y20379173D01*
X31230264Y20233502D01*
X31230261Y20233490D01*
X31199500Y20078847D01*
X31199500Y19915066D01*
X31196796Y19915066D01*
X31185856Y19857844D01*
X31137716Y19807205D01*
X31099747Y19792882D01*
X30983400Y19769739D01*
X30983390Y19769736D01*
X30837719Y19709398D01*
X30837706Y19709391D01*
X30706603Y19621790D01*
X30706599Y19621787D01*
X30595105Y19510293D01*
X30595102Y19510289D01*
X30507501Y19379186D01*
X30507494Y19379173D01*
X30447156Y19233502D01*
X30447153Y19233490D01*
X30416392Y19078847D01*
X30416392Y18921154D01*
X30447153Y18766511D01*
X30447156Y18766499D01*
X30507494Y18620828D01*
X30507501Y18620815D01*
X30595102Y18489712D01*
X30595104Y18489709D01*
X30613179Y18471635D01*
X30646666Y18410313D01*
X30649500Y18383952D01*
X30649500Y17973032D01*
X30629815Y17905993D01*
X30590597Y17867494D01*
X30514153Y17820343D01*
X30514149Y17820340D01*
X30392161Y17698352D01*
X30301593Y17551519D01*
X30301591Y17551514D01*
X30247326Y17387752D01*
X30245908Y17381129D01*
X30244638Y17381401D01*
X30220962Y17323375D01*
X30163781Y17283223D01*
X30093970Y17280360D01*
X30033693Y17315694D01*
X30002088Y17378007D01*
X30000000Y17400669D01*
X30000000Y21699017D01*
X30019685Y21766056D01*
X30072489Y21811811D01*
X30141647Y21821755D01*
X30205203Y21792730D01*
G37*
%TD.AperFunction*%
%TA.AperFunction,Conductor*%
G36*
X30151898Y23817074D02*
G01*
X30163160Y23816671D01*
X30183109Y23802820D01*
X30205203Y23792730D01*
X30212784Y23782217D01*
X30220552Y23776823D01*
X30238561Y23746469D01*
X30290602Y23620828D01*
X30290609Y23620815D01*
X30378210Y23489712D01*
X30378213Y23489708D01*
X30489707Y23378214D01*
X30489711Y23378211D01*
X30620814Y23290610D01*
X30620827Y23290603D01*
X30751460Y23236494D01*
X30766503Y23230263D01*
X30894438Y23204815D01*
X30921153Y23199501D01*
X30921156Y23199500D01*
X30921158Y23199500D01*
X31078844Y23199500D01*
X31078845Y23199501D01*
X31233497Y23230263D01*
X31369691Y23286676D01*
X31379172Y23290603D01*
X31379172Y23290604D01*
X31379179Y23290606D01*
X31379185Y23290610D01*
X31510875Y23378602D01*
X31528921Y23384253D01*
X31544831Y23394477D01*
X31575792Y23398929D01*
X31577553Y23399480D01*
X31579766Y23399500D01*
X31699902Y23399500D01*
X31766941Y23379815D01*
X31787583Y23363181D01*
X31806284Y23344480D01*
X31806286Y23344479D01*
X31806290Y23344476D01*
X31906404Y23286676D01*
X31943216Y23265423D01*
X32051181Y23236494D01*
X32095942Y23224500D01*
X32095943Y23224500D01*
X32326646Y23224500D01*
X32327213Y23224334D01*
X32327783Y23224495D01*
X32360709Y23214498D01*
X32393685Y23204815D01*
X32394072Y23204369D01*
X32394639Y23204196D01*
X32416951Y23177965D01*
X32439440Y23152011D01*
X32439652Y23151276D01*
X32439908Y23150975D01*
X32447302Y23124774D01*
X32449541Y23117021D01*
X32451813Y23099764D01*
X32451883Y23099593D01*
X32452969Y23091521D01*
X32449899Y23071477D01*
X32449899Y23058682D01*
X32452874Y23058290D01*
X32449585Y23033312D01*
X32421317Y22969416D01*
X32362991Y22930946D01*
X32326646Y22925500D01*
X31245940Y22925500D01*
X31205019Y22914536D01*
X31205019Y22914535D01*
X31149117Y22899556D01*
X31093215Y22884577D01*
X30976217Y22817029D01*
X30926376Y22801014D01*
X30921150Y22800500D01*
X30766510Y22769739D01*
X30766498Y22769736D01*
X30620827Y22709398D01*
X30620814Y22709391D01*
X30489711Y22621790D01*
X30489707Y22621787D01*
X30378213Y22510293D01*
X30378210Y22510289D01*
X30290609Y22379186D01*
X30290604Y22379177D01*
X30238561Y22253531D01*
X30194720Y22199128D01*
X30128426Y22177063D01*
X30060727Y22194342D01*
X30013116Y22245479D01*
X30000000Y22300984D01*
X30000000Y23699017D01*
X30003174Y23709829D01*
X30001970Y23721034D01*
X30012843Y23742756D01*
X30019685Y23766056D01*
X30028199Y23773435D01*
X30033245Y23783513D01*
X30054135Y23795908D01*
X30072489Y23811811D01*
X30083643Y23813415D01*
X30093335Y23819165D01*
X30117605Y23818299D01*
X30141647Y23821755D01*
X30151898Y23817074D01*
G37*
%TD.AperFunction*%
%TA.AperFunction,Conductor*%
G36*
X32087810Y26980315D02*
G01*
X32133565Y26927511D01*
X32143509Y26858353D01*
X32126309Y26810902D01*
X32089549Y26751308D01*
X32089546Y26751301D01*
X32035319Y26587653D01*
X32025000Y26486655D01*
X32025000Y26387500D01*
X33974999Y26387500D01*
X33974999Y26486640D01*
X33974998Y26486655D01*
X33964680Y26587653D01*
X33910453Y26751301D01*
X33910450Y26751308D01*
X33873691Y26810902D01*
X33855250Y26878294D01*
X33876172Y26944958D01*
X33929813Y26989728D01*
X33979229Y27000000D01*
X35863000Y27000000D01*
X35930039Y26980315D01*
X35975794Y26927511D01*
X35987000Y26876000D01*
X35987000Y26585854D01*
X35986833Y26585287D01*
X35986995Y26584717D01*
X35976997Y26551791D01*
X35967315Y26518815D01*
X35966868Y26518428D01*
X35966696Y26517861D01*
X35940464Y26495549D01*
X35914511Y26473060D01*
X35913775Y26472848D01*
X35913475Y26472592D01*
X35887273Y26465198D01*
X35879521Y26462959D01*
X35879494Y26462956D01*
X35862264Y26460687D01*
X35862092Y26460617D01*
X35854021Y26459531D01*
X35833977Y26462601D01*
X35821184Y26462601D01*
X35820792Y26459626D01*
X35812737Y26460687D01*
X35812736Y26460687D01*
X35778472Y26465198D01*
X35700227Y26475500D01*
X35700220Y26475500D01*
X35474780Y26475500D01*
X35474772Y26475500D01*
X35372765Y26462070D01*
X35372763Y26462070D01*
X35362264Y26460687D01*
X35222267Y26402698D01*
X35178700Y26369269D01*
X35178696Y26369266D01*
X35136986Y26337260D01*
X35071817Y26312066D01*
X35003372Y26326104D01*
X34953383Y26374918D01*
X34937500Y26435636D01*
X34937500Y26470089D01*
X34937499Y26470089D01*
X34862396Y26460200D01*
X34862391Y26460199D01*
X34722521Y26402264D01*
X34602405Y26310095D01*
X34510236Y26189979D01*
X34452301Y26050109D01*
X34452300Y26050105D01*
X34437500Y25937698D01*
X34437500Y25387500D01*
X34813000Y25387500D01*
X34821685Y25384950D01*
X34830647Y25386238D01*
X34854687Y25375260D01*
X34880039Y25367815D01*
X34885966Y25360975D01*
X34894203Y25357213D01*
X34908492Y25334979D01*
X34925794Y25315011D01*
X34928081Y25304497D01*
X34931977Y25298435D01*
X34937000Y25263500D01*
X34937000Y25211500D01*
X34917315Y25144461D01*
X34864511Y25098706D01*
X34813000Y25087500D01*
X34437500Y25087500D01*
X34437500Y24599500D01*
X34417815Y24532461D01*
X34365011Y24486706D01*
X34313500Y24475500D01*
X32974772Y24475500D01*
X32862264Y24460687D01*
X32862263Y24460687D01*
X32800104Y24434939D01*
X32752651Y24425500D01*
X32475098Y24425500D01*
X32408059Y24445185D01*
X32406296Y24446338D01*
X32396093Y24453143D01*
X32368716Y24480520D01*
X32270404Y24537280D01*
X32231785Y24559577D01*
X32079057Y24600501D01*
X31920943Y24600501D01*
X31913347Y24600501D01*
X31913331Y24600500D01*
X31579766Y24600500D01*
X31512727Y24620185D01*
X31510875Y24621398D01*
X31379185Y24709391D01*
X31379172Y24709398D01*
X31233501Y24769736D01*
X31233489Y24769739D01*
X31078845Y24800500D01*
X31078842Y24800500D01*
X30921158Y24800500D01*
X30921155Y24800500D01*
X30766510Y24769739D01*
X30766498Y24769736D01*
X30620827Y24709398D01*
X30620814Y24709391D01*
X30489711Y24621790D01*
X30489707Y24621787D01*
X30378213Y24510293D01*
X30378210Y24510289D01*
X30290609Y24379186D01*
X30290604Y24379177D01*
X30238561Y24253531D01*
X30194720Y24199128D01*
X30128426Y24177063D01*
X30060727Y24194342D01*
X30013116Y24245479D01*
X30000000Y24300984D01*
X30000000Y25788346D01*
X32025001Y25788346D01*
X32035319Y25687348D01*
X32089546Y25523700D01*
X32089551Y25523689D01*
X32180052Y25376966D01*
X32180055Y25376962D01*
X32301961Y25255056D01*
X32301965Y25255053D01*
X32448688Y25164552D01*
X32448699Y25164547D01*
X32612347Y25110320D01*
X32713352Y25100001D01*
X32750000Y25100001D01*
X33250000Y25100001D01*
X33286640Y25100001D01*
X33286654Y25100002D01*
X33387652Y25110320D01*
X33551300Y25164547D01*
X33551311Y25164552D01*
X33698034Y25255053D01*
X33698038Y25255056D01*
X33819944Y25376962D01*
X33819947Y25376966D01*
X33910448Y25523689D01*
X33910453Y25523700D01*
X33964680Y25687348D01*
X33974999Y25788346D01*
X33975000Y25788359D01*
X33975000Y25887500D01*
X33250000Y25887500D01*
X33250000Y25100001D01*
X32750000Y25100001D01*
X32750000Y25887500D01*
X32025001Y25887500D01*
X32025001Y25788346D01*
X30000000Y25788346D01*
X30000000Y26876000D01*
X30019685Y26943039D01*
X30072489Y26988794D01*
X30124000Y27000000D01*
X32020771Y27000000D01*
X32087810Y26980315D01*
G37*
%TD.AperFunction*%
%TD*%
M02*
