%TF.GenerationSoftware,KiCad,Pcbnew,9.0.1*%
%TF.CreationDate,2025-05-30T23:53:01+03:00*%
%TF.ProjectId,FlameSensorSender,466c616d-6553-4656-9e73-6f7253656e64,1*%
%TF.SameCoordinates,Original*%
%TF.FileFunction,Legend,Bot*%
%TF.FilePolarity,Positive*%
%FSLAX46Y46*%
G04 Gerber Fmt 4.6, Leading zero omitted, Abs format (unit mm)*
G04 Created by KiCad (PCBNEW 9.0.1) date 2025-05-30 23:53:01*
%MOMM*%
%LPD*%
G01*
G04 APERTURE LIST*
G04 Aperture macros list*
%AMRoundRect*
0 Rectangle with rounded corners*
0 $1 Rounding radius*
0 $2 $3 $4 $5 $6 $7 $8 $9 X,Y pos of 4 corners*
0 Add a 4 corners polygon primitive as box body*
4,1,4,$2,$3,$4,$5,$6,$7,$8,$9,$2,$3,0*
0 Add four circle primitives for the rounded corners*
1,1,$1+$1,$2,$3*
1,1,$1+$1,$4,$5*
1,1,$1+$1,$6,$7*
1,1,$1+$1,$8,$9*
0 Add four rect primitives between the rounded corners*
20,1,$1+$1,$2,$3,$4,$5,0*
20,1,$1+$1,$4,$5,$6,$7,0*
20,1,$1+$1,$6,$7,$8,$9,0*
20,1,$1+$1,$8,$9,$2,$3,0*%
G04 Aperture macros list end*
%ADD10C,0.100000*%
%ADD11C,0.150000*%
%ADD12C,0.120000*%
%ADD13RoundRect,0.250000X0.350000X0.625000X-0.350000X0.625000X-0.350000X-0.625000X0.350000X-0.625000X0*%
%ADD14O,1.200000X1.750000*%
%ADD15R,1.700000X1.700000*%
%ADD16C,1.700000*%
%ADD17RoundRect,0.250000X0.650000X-1.000000X0.650000X1.000000X-0.650000X1.000000X-0.650000X-1.000000X0*%
%ADD18C,3.300000*%
%ADD19R,2.000000X2.000000*%
%ADD20C,2.000000*%
%ADD21RoundRect,0.250000X0.625000X-0.350000X0.625000X0.350000X-0.625000X0.350000X-0.625000X-0.350000X0*%
%ADD22O,1.750000X1.200000*%
%ADD23RoundRect,0.250000X0.337500X0.475000X-0.337500X0.475000X-0.337500X-0.475000X0.337500X-0.475000X0*%
%ADD24RoundRect,0.175000X0.425000X-0.175000X0.425000X0.175000X-0.425000X0.175000X-0.425000X-0.175000X0*%
%ADD25RoundRect,0.190000X-0.410000X0.190000X-0.410000X-0.190000X0.410000X-0.190000X0.410000X0.190000X0*%
%ADD26RoundRect,0.200000X-0.400000X0.200000X-0.400000X-0.200000X0.400000X-0.200000X0.400000X0.200000X0*%
%ADD27RoundRect,0.175000X-0.425000X0.175000X-0.425000X-0.175000X0.425000X-0.175000X0.425000X0.175000X0*%
%ADD28RoundRect,0.190000X0.410000X-0.190000X0.410000X0.190000X-0.410000X0.190000X-0.410000X-0.190000X0*%
%ADD29RoundRect,0.200000X0.400000X-0.200000X0.400000X0.200000X-0.400000X0.200000X-0.400000X-0.200000X0*%
%ADD30RoundRect,0.250000X0.500000X-0.650000X0.500000X0.650000X-0.500000X0.650000X-0.500000X-0.650000X0*%
%ADD31RoundRect,0.250000X0.425000X-0.650000X0.425000X0.650000X-0.425000X0.650000X-0.425000X-0.650000X0*%
G04 APERTURE END LIST*
D10*
G36*
X12033530Y27060379D02*
G01*
X10711308Y27060379D01*
X10711308Y27810488D01*
X10826225Y27810488D01*
X10826225Y27772220D01*
X10853285Y27745160D01*
X10872419Y27741354D01*
X11323137Y27741354D01*
X10837064Y27255281D01*
X10826225Y27239060D01*
X10826225Y27200792D01*
X10853285Y27173732D01*
X10891553Y27173732D01*
X10907774Y27184571D01*
X11305681Y27582479D01*
X11842419Y27179926D01*
X11860010Y27171490D01*
X11897894Y27176902D01*
X11920855Y27207517D01*
X11915443Y27245401D01*
X11902419Y27259926D01*
X11377110Y27653908D01*
X11464557Y27741354D01*
X11872419Y27741354D01*
X11891553Y27745160D01*
X11918613Y27772220D01*
X11918613Y27810488D01*
X11891553Y27837548D01*
X11872419Y27841354D01*
X10872419Y27841354D01*
X10853285Y27837548D01*
X10826225Y27810488D01*
X10711308Y27810488D01*
X10711308Y28620012D01*
X10826225Y28620012D01*
X10826225Y28581744D01*
X10853285Y28554684D01*
X10872419Y28550878D01*
X11822419Y28550878D01*
X11822419Y28124688D01*
X11826225Y28105554D01*
X11853285Y28078494D01*
X11891553Y28078494D01*
X11918613Y28105554D01*
X11922419Y28124688D01*
X11922419Y28600878D01*
X11918613Y28620012D01*
X11891553Y28647072D01*
X11872419Y28650878D01*
X10872419Y28650878D01*
X10853285Y28647072D01*
X10826225Y28620012D01*
X10711308Y28620012D01*
X10711308Y29315164D01*
X10822419Y29315164D01*
X10822419Y29219926D01*
X10823982Y29212064D01*
X10824985Y29204115D01*
X10872604Y29061258D01*
X10873844Y29059083D01*
X10873844Y29057935D01*
X10878297Y29051271D01*
X10882265Y29044310D01*
X10883291Y29043797D01*
X10884683Y29041714D01*
X10932301Y28994095D01*
X10948522Y28983256D01*
X10986791Y28983256D01*
X11013851Y29010316D01*
X11013851Y29048585D01*
X11003012Y29064806D01*
X10963739Y29104078D01*
X10922419Y29228040D01*
X10922419Y29307051D01*
X10963739Y29431013D01*
X11044892Y29512166D01*
X11127966Y29553703D01*
X11307145Y29598497D01*
X11437692Y29598497D01*
X11616872Y29553702D01*
X11699942Y29512167D01*
X11781099Y29431011D01*
X11822419Y29307051D01*
X11822419Y29228039D01*
X11781099Y29104080D01*
X11741825Y29064806D01*
X11730986Y29048585D01*
X11730986Y29010316D01*
X11758045Y28983256D01*
X11796314Y28983256D01*
X11812535Y28994094D01*
X11860155Y29041713D01*
X11861546Y29043796D01*
X11862573Y29044309D01*
X11866539Y29051268D01*
X11870994Y29057934D01*
X11870994Y29059083D01*
X11872234Y29061258D01*
X11919853Y29204114D01*
X11920855Y29212065D01*
X11922419Y29219926D01*
X11922419Y29315164D01*
X11920855Y29323026D01*
X11919853Y29330976D01*
X11872234Y29473832D01*
X11870994Y29476008D01*
X11870994Y29477155D01*
X11866543Y29483816D01*
X11862573Y29490781D01*
X11861545Y29491295D01*
X11860155Y29493376D01*
X11764916Y29588615D01*
X11758249Y29593070D01*
X11751921Y29597981D01*
X11656684Y29645599D01*
X11651402Y29647046D01*
X11646450Y29649385D01*
X11455974Y29697004D01*
X11449856Y29697302D01*
X11443847Y29698497D01*
X11300990Y29698497D01*
X11294980Y29697302D01*
X11288863Y29697004D01*
X11098387Y29649385D01*
X11093434Y29647046D01*
X11088153Y29645599D01*
X10992915Y29597980D01*
X10986580Y29593065D01*
X10979921Y29588614D01*
X10884683Y29493376D01*
X10883291Y29491294D01*
X10882265Y29490780D01*
X10878297Y29483820D01*
X10873844Y29477155D01*
X10873844Y29476008D01*
X10872604Y29473832D01*
X10824985Y29330975D01*
X10823982Y29323027D01*
X10822419Y29315164D01*
X10711308Y29315164D01*
X10711308Y30831059D01*
X10823049Y30831059D01*
X10843106Y30798467D01*
X10860838Y30790333D01*
X11668075Y30598134D01*
X11145250Y30458714D01*
X11127743Y30450106D01*
X11124327Y30444208D01*
X11118429Y30440792D01*
X11115080Y30428234D01*
X11108569Y30416987D01*
X11110325Y30410402D01*
X11108569Y30403817D01*
X11115080Y30392571D01*
X11118429Y30380012D01*
X11124327Y30376597D01*
X11127743Y30370698D01*
X11145250Y30362090D01*
X11668075Y30222671D01*
X10860838Y30030470D01*
X10843106Y30022336D01*
X10823049Y29989744D01*
X10831913Y29952517D01*
X10864505Y29932460D01*
X10884000Y29933190D01*
X11884000Y30171286D01*
X11901732Y30179420D01*
X11905651Y30185790D01*
X11912123Y30189536D01*
X11915308Y30201483D01*
X11921789Y30212012D01*
X11920057Y30219286D01*
X11921984Y30226511D01*
X11915788Y30237213D01*
X11912925Y30249239D01*
X11906557Y30253158D01*
X11902810Y30259630D01*
X11885302Y30268238D01*
X11352186Y30410402D01*
X11885302Y30552566D01*
X11902810Y30561174D01*
X11906557Y30567647D01*
X11912925Y30571565D01*
X11915788Y30583592D01*
X11921984Y30594293D01*
X11920057Y30601519D01*
X11921789Y30608792D01*
X11915308Y30619322D01*
X11912123Y30631268D01*
X11905651Y30635015D01*
X11901732Y30641384D01*
X11884000Y30649518D01*
X10884000Y30887613D01*
X10864505Y30888343D01*
X10831913Y30868286D01*
X10823049Y30831059D01*
X10711308Y30831059D01*
X10711308Y31553259D01*
X10822419Y31553259D01*
X10822419Y31315164D01*
X10823982Y31307302D01*
X10824985Y31299353D01*
X10872604Y31156496D01*
X10882265Y31139548D01*
X10916494Y31122433D01*
X10952798Y31134535D01*
X10969912Y31168763D01*
X10967472Y31188119D01*
X10922419Y31323278D01*
X10922419Y31541456D01*
X10961130Y31618880D01*
X10997275Y31655024D01*
X11074699Y31693735D01*
X11146330Y31693735D01*
X11223753Y31655024D01*
X11259897Y31618879D01*
X11301433Y31535807D01*
X11347721Y31350656D01*
X11350060Y31345704D01*
X11351507Y31340422D01*
X11399125Y31245185D01*
X11404040Y31238852D01*
X11408492Y31232190D01*
X11456110Y31184571D01*
X11462776Y31180117D01*
X11469105Y31175205D01*
X11564343Y31127586D01*
X11566758Y31126925D01*
X11567570Y31126113D01*
X11575431Y31124550D01*
X11583159Y31122433D01*
X11584247Y31122796D01*
X11586704Y31122307D01*
X11681942Y31122307D01*
X11684398Y31122796D01*
X11685487Y31122433D01*
X11693214Y31124550D01*
X11701076Y31126113D01*
X11701887Y31126925D01*
X11704303Y31127586D01*
X11799540Y31175204D01*
X11805868Y31180116D01*
X11812535Y31184570D01*
X11860155Y31232189D01*
X11864609Y31238856D01*
X11869521Y31245184D01*
X11917140Y31340422D01*
X11917801Y31342838D01*
X11918613Y31343649D01*
X11920176Y31351511D01*
X11922293Y31359238D01*
X11921930Y31360327D01*
X11922419Y31362783D01*
X11922419Y31600878D01*
X11920855Y31608740D01*
X11919853Y31616690D01*
X11872234Y31759546D01*
X11862573Y31776495D01*
X11828344Y31793609D01*
X11792040Y31781508D01*
X11774926Y31747279D01*
X11777366Y31727924D01*
X11822419Y31592765D01*
X11822419Y31374587D01*
X11783708Y31297165D01*
X11747561Y31261019D01*
X11670139Y31222307D01*
X11598508Y31222307D01*
X11521084Y31261019D01*
X11484939Y31297163D01*
X11443404Y31380234D01*
X11397116Y31565386D01*
X11394776Y31570339D01*
X11393330Y31575620D01*
X11345711Y31670858D01*
X11340799Y31677187D01*
X11336345Y31683853D01*
X11288726Y31731471D01*
X11282064Y31735923D01*
X11275731Y31740838D01*
X11180494Y31788456D01*
X11178078Y31789118D01*
X11177267Y31789929D01*
X11169405Y31791493D01*
X11161678Y31793609D01*
X11160589Y31793247D01*
X11158133Y31793735D01*
X11062895Y31793735D01*
X11060438Y31793247D01*
X11059350Y31793609D01*
X11051622Y31791493D01*
X11043761Y31789929D01*
X11042949Y31789118D01*
X11040534Y31788456D01*
X10945296Y31740837D01*
X10938967Y31735926D01*
X10932301Y31731471D01*
X10884683Y31683852D01*
X10880231Y31677191D01*
X10875316Y31670857D01*
X10827698Y31575620D01*
X10827036Y31573205D01*
X10826225Y31572393D01*
X10824661Y31564532D01*
X10822545Y31556804D01*
X10822907Y31555716D01*
X10822419Y31553259D01*
X10711308Y31553259D01*
X10711308Y31904846D01*
X12033530Y31904846D01*
X12033530Y27060379D01*
G37*
G36*
X15033530Y29201672D02*
G01*
X13711308Y29201672D01*
X13711308Y29981830D01*
X13822419Y29981830D01*
X13822419Y29362783D01*
X13825193Y29348837D01*
X13825055Y29346764D01*
X13825767Y29345950D01*
X13826225Y29343649D01*
X13838665Y29331209D01*
X13850254Y29317964D01*
X13852028Y29317846D01*
X13853285Y29316589D01*
X13870884Y29316589D01*
X13888438Y29315419D01*
X13890470Y29316589D01*
X13891553Y29316589D01*
X13893023Y29318060D01*
X13905344Y29325154D01*
X14203371Y29585928D01*
X14203371Y29553259D01*
X14203859Y29550803D01*
X14203497Y29549714D01*
X14205613Y29541987D01*
X14207177Y29534125D01*
X14207988Y29533314D01*
X14208650Y29530898D01*
X14256268Y29435661D01*
X14261183Y29429328D01*
X14265635Y29422666D01*
X14313253Y29375047D01*
X14319919Y29370593D01*
X14326248Y29365681D01*
X14421486Y29318062D01*
X14423901Y29317401D01*
X14424713Y29316589D01*
X14432574Y29315026D01*
X14440302Y29312909D01*
X14441390Y29313272D01*
X14443847Y29312783D01*
X14681942Y29312783D01*
X14684398Y29313272D01*
X14685487Y29312909D01*
X14693214Y29315026D01*
X14701076Y29316589D01*
X14701887Y29317401D01*
X14704303Y29318062D01*
X14799540Y29365680D01*
X14805868Y29370592D01*
X14812535Y29375046D01*
X14860155Y29422665D01*
X14864609Y29429332D01*
X14869521Y29435660D01*
X14917140Y29530898D01*
X14917801Y29533314D01*
X14918613Y29534125D01*
X14920176Y29541987D01*
X14922293Y29549714D01*
X14921930Y29550803D01*
X14922419Y29553259D01*
X14922419Y29838973D01*
X14921930Y29841430D01*
X14922293Y29842518D01*
X14920176Y29850246D01*
X14918613Y29858107D01*
X14917801Y29858919D01*
X14917140Y29861334D01*
X14869521Y29956572D01*
X14864609Y29962901D01*
X14860155Y29969567D01*
X14812535Y30017186D01*
X14796314Y30028024D01*
X14758045Y30028024D01*
X14730986Y30000964D01*
X14730986Y29962695D01*
X14741825Y29946474D01*
X14783708Y29904592D01*
X14822419Y29827170D01*
X14822419Y29565063D01*
X14783708Y29487641D01*
X14747561Y29451495D01*
X14670139Y29412783D01*
X14455651Y29412783D01*
X14378227Y29451495D01*
X14342082Y29487639D01*
X14303371Y29565062D01*
X14303371Y29696116D01*
X14300596Y29710063D01*
X14300735Y29712135D01*
X14300022Y29712950D01*
X14299565Y29715250D01*
X14287124Y29727691D01*
X14275536Y29740935D01*
X14273761Y29741054D01*
X14272505Y29742310D01*
X14254906Y29742310D01*
X14237352Y29743480D01*
X14235320Y29742310D01*
X14234237Y29742310D01*
X14232766Y29740840D01*
X14220446Y29733745D01*
X13922419Y29472972D01*
X13922419Y29981830D01*
X13918613Y30000964D01*
X13891553Y30028024D01*
X13853285Y30028024D01*
X13826225Y30000964D01*
X13822419Y29981830D01*
X13711308Y29981830D01*
X13711308Y30883048D01*
X13822545Y30883048D01*
X13839659Y30848819D01*
X13856608Y30839158D01*
X14714305Y30553259D01*
X13856608Y30267360D01*
X13839659Y30257699D01*
X13822545Y30223470D01*
X13834646Y30187166D01*
X13868875Y30170052D01*
X13888230Y30172492D01*
X14888230Y30505825D01*
X14905178Y30515486D01*
X14906849Y30518829D01*
X14910191Y30520499D01*
X14915204Y30535538D01*
X14922293Y30549715D01*
X14921111Y30553259D01*
X14922293Y30556803D01*
X14915204Y30570981D01*
X14910191Y30586019D01*
X14906849Y30587690D01*
X14905178Y30591032D01*
X14888230Y30600693D01*
X13888230Y30934026D01*
X13868875Y30936466D01*
X13834646Y30919352D01*
X13822545Y30883048D01*
X13711308Y30883048D01*
X13711308Y31791354D01*
X13822419Y31791354D01*
X13822419Y31172307D01*
X13825193Y31158361D01*
X13825055Y31156288D01*
X13825767Y31155474D01*
X13826225Y31153173D01*
X13838665Y31140733D01*
X13850254Y31127488D01*
X13852028Y31127370D01*
X13853285Y31126113D01*
X13870884Y31126113D01*
X13888438Y31124943D01*
X13890470Y31126113D01*
X13891553Y31126113D01*
X13893023Y31127584D01*
X13905344Y31134678D01*
X14203371Y31395452D01*
X14203371Y31362783D01*
X14203859Y31360327D01*
X14203497Y31359238D01*
X14205613Y31351511D01*
X14207177Y31343649D01*
X14207988Y31342838D01*
X14208650Y31340422D01*
X14256268Y31245185D01*
X14261183Y31238852D01*
X14265635Y31232190D01*
X14313253Y31184571D01*
X14319919Y31180117D01*
X14326248Y31175205D01*
X14421486Y31127586D01*
X14423901Y31126925D01*
X14424713Y31126113D01*
X14432574Y31124550D01*
X14440302Y31122433D01*
X14441390Y31122796D01*
X14443847Y31122307D01*
X14681942Y31122307D01*
X14684398Y31122796D01*
X14685487Y31122433D01*
X14693214Y31124550D01*
X14701076Y31126113D01*
X14701887Y31126925D01*
X14704303Y31127586D01*
X14799540Y31175204D01*
X14805868Y31180116D01*
X14812535Y31184570D01*
X14860155Y31232189D01*
X14864609Y31238856D01*
X14869521Y31245184D01*
X14917140Y31340422D01*
X14917801Y31342838D01*
X14918613Y31343649D01*
X14920176Y31351511D01*
X14922293Y31359238D01*
X14921930Y31360327D01*
X14922419Y31362783D01*
X14922419Y31648497D01*
X14921930Y31650954D01*
X14922293Y31652042D01*
X14920176Y31659770D01*
X14918613Y31667631D01*
X14917801Y31668443D01*
X14917140Y31670858D01*
X14869521Y31766096D01*
X14864609Y31772425D01*
X14860155Y31779091D01*
X14812535Y31826710D01*
X14796314Y31837548D01*
X14758045Y31837548D01*
X14730986Y31810488D01*
X14730986Y31772219D01*
X14741825Y31755998D01*
X14783708Y31714116D01*
X14822419Y31636694D01*
X14822419Y31374587D01*
X14783708Y31297165D01*
X14747561Y31261019D01*
X14670139Y31222307D01*
X14455651Y31222307D01*
X14378227Y31261019D01*
X14342082Y31297163D01*
X14303371Y31374586D01*
X14303371Y31505640D01*
X14300596Y31519587D01*
X14300735Y31521659D01*
X14300022Y31522474D01*
X14299565Y31524774D01*
X14287124Y31537215D01*
X14275536Y31550459D01*
X14273761Y31550578D01*
X14272505Y31551834D01*
X14254906Y31551834D01*
X14237352Y31553004D01*
X14235320Y31551834D01*
X14234237Y31551834D01*
X14232766Y31550364D01*
X14220446Y31543269D01*
X13922419Y31282496D01*
X13922419Y31791354D01*
X13918613Y31810488D01*
X13891553Y31837548D01*
X13853285Y31837548D01*
X13826225Y31810488D01*
X13822419Y31791354D01*
X13711308Y31791354D01*
X13711308Y31948659D01*
X15033530Y31948659D01*
X15033530Y29201672D01*
G37*
G36*
X15815230Y39596772D02*
G01*
X15896383Y39515619D01*
X15937920Y39432545D01*
X15982715Y39253366D01*
X15982715Y39122819D01*
X15937920Y38943641D01*
X15896383Y38860567D01*
X15815230Y38779414D01*
X15691269Y38738093D01*
X15511287Y38738093D01*
X15511287Y39638093D01*
X15691268Y39638093D01*
X15815230Y39596772D01*
G37*
G36*
X17384049Y39599381D02*
G01*
X17463756Y39519674D01*
X17506524Y39348604D01*
X17506524Y39027581D01*
X17463756Y38856512D01*
X17384050Y38776805D01*
X17306626Y38738093D01*
X17139757Y38738093D01*
X17062331Y38776806D01*
X16982625Y38856512D01*
X16939858Y39027581D01*
X16939858Y39348604D01*
X16982625Y39519674D01*
X17062332Y39599381D01*
X17139756Y39638093D01*
X17306626Y39638093D01*
X17384049Y39599381D01*
G37*
G36*
X17717635Y38526982D02*
G01*
X13157319Y38526982D01*
X13157319Y38973807D01*
X13268430Y38973807D01*
X13268430Y38878569D01*
X13268918Y38876113D01*
X13268556Y38875024D01*
X13270672Y38867297D01*
X13272236Y38859435D01*
X13273047Y38858624D01*
X13273709Y38856208D01*
X13321327Y38760971D01*
X13326242Y38754638D01*
X13330694Y38747976D01*
X13378312Y38700357D01*
X13384978Y38695903D01*
X13391307Y38690991D01*
X13486545Y38643372D01*
X13488960Y38642711D01*
X13489772Y38641899D01*
X13497633Y38640336D01*
X13505361Y38638219D01*
X13506449Y38638582D01*
X13508906Y38638093D01*
X13747001Y38638093D01*
X13754863Y38639657D01*
X13762812Y38640659D01*
X13881372Y38680179D01*
X14173822Y38680179D01*
X14193879Y38647587D01*
X14231106Y38638723D01*
X14263698Y38658780D01*
X14271832Y38676512D01*
X14464031Y39483750D01*
X14603451Y38960924D01*
X14612059Y38943416D01*
X14617958Y38940001D01*
X14621373Y38934103D01*
X14633928Y38930755D01*
X14645178Y38924242D01*
X14651764Y38925999D01*
X14658348Y38924243D01*
X14669593Y38930754D01*
X14682153Y38934103D01*
X14685568Y38940002D01*
X14691467Y38943417D01*
X14700075Y38960924D01*
X14839494Y39483750D01*
X15031695Y38676512D01*
X15039829Y38658780D01*
X15072421Y38638723D01*
X15109648Y38647587D01*
X15129705Y38680179D01*
X15128975Y38699674D01*
X14893636Y39688093D01*
X15411287Y39688093D01*
X15411287Y38688093D01*
X15415093Y38668959D01*
X15442153Y38641899D01*
X15461287Y38638093D01*
X15699382Y38638093D01*
X15707244Y38639657D01*
X15715193Y38640659D01*
X15858050Y38688278D01*
X15860225Y38689518D01*
X15861373Y38689518D01*
X15868037Y38693972D01*
X15874998Y38697939D01*
X15875511Y38698966D01*
X15877594Y38700357D01*
X15972832Y38795595D01*
X15977282Y38802255D01*
X15982198Y38808589D01*
X16029817Y38903827D01*
X16031263Y38909109D01*
X16033603Y38914061D01*
X16081222Y39104537D01*
X16081519Y39110655D01*
X16082715Y39116664D01*
X16082715Y39259521D01*
X16081519Y39265531D01*
X16081222Y39271648D01*
X16033603Y39462124D01*
X16031263Y39467077D01*
X16029817Y39472358D01*
X15982198Y39567596D01*
X15977282Y39573931D01*
X15972832Y39580590D01*
X15877594Y39675828D01*
X15875512Y39677219D01*
X15874999Y39678246D01*
X15868031Y39682218D01*
X15861373Y39686667D01*
X15860226Y39686667D01*
X15858051Y39687907D01*
X15857493Y39688093D01*
X16411287Y39688093D01*
X16411287Y38688093D01*
X16415093Y38668959D01*
X16442153Y38641899D01*
X16480421Y38641899D01*
X16507481Y38668959D01*
X16511287Y38688093D01*
X16511287Y39354759D01*
X16839858Y39354759D01*
X16839858Y39021426D01*
X16841053Y39015417D01*
X16841351Y39009299D01*
X16888970Y38818823D01*
X16891283Y38813927D01*
X16891283Y38811816D01*
X16894686Y38806723D01*
X16897303Y38801184D01*
X16899113Y38800098D01*
X16902122Y38795595D01*
X16997360Y38700357D01*
X17004019Y38695907D01*
X17010354Y38690991D01*
X17105592Y38643372D01*
X17108007Y38642711D01*
X17108819Y38641899D01*
X17116680Y38640336D01*
X17124408Y38638219D01*
X17125496Y38638582D01*
X17127953Y38638093D01*
X17318429Y38638093D01*
X17320885Y38638582D01*
X17321974Y38638219D01*
X17329701Y38640336D01*
X17337563Y38641899D01*
X17338374Y38642711D01*
X17340790Y38643372D01*
X17436027Y38690990D01*
X17442360Y38695906D01*
X17449022Y38700357D01*
X17544260Y38795595D01*
X17547268Y38800098D01*
X17549079Y38801184D01*
X17551695Y38806723D01*
X17555099Y38811816D01*
X17555099Y38813927D01*
X17557412Y38818823D01*
X17605031Y39009299D01*
X17605328Y39015417D01*
X17606524Y39021426D01*
X17606524Y39354759D01*
X17605328Y39360769D01*
X17605031Y39366886D01*
X17557412Y39557362D01*
X17555099Y39562259D01*
X17555099Y39564369D01*
X17551695Y39569463D01*
X17549079Y39575001D01*
X17547268Y39576088D01*
X17544260Y39580590D01*
X17449022Y39675828D01*
X17442362Y39680279D01*
X17436028Y39685194D01*
X17340790Y39732814D01*
X17338374Y39733476D01*
X17337563Y39734287D01*
X17329701Y39735851D01*
X17321974Y39737967D01*
X17320885Y39737605D01*
X17318429Y39738093D01*
X17127953Y39738093D01*
X17125496Y39737605D01*
X17124408Y39737967D01*
X17116680Y39735851D01*
X17108819Y39734287D01*
X17108007Y39733476D01*
X17105592Y39732814D01*
X17010354Y39685194D01*
X17004019Y39680279D01*
X16997360Y39675828D01*
X16902122Y39580590D01*
X16899113Y39576088D01*
X16897303Y39575001D01*
X16894686Y39569463D01*
X16891283Y39564369D01*
X16891283Y39562259D01*
X16888970Y39557362D01*
X16841351Y39366886D01*
X16841053Y39360769D01*
X16839858Y39354759D01*
X16511287Y39354759D01*
X16511287Y39688093D01*
X16507481Y39707227D01*
X16480421Y39734287D01*
X16442153Y39734287D01*
X16415093Y39707227D01*
X16411287Y39688093D01*
X15857493Y39688093D01*
X15715194Y39735527D01*
X15707243Y39736530D01*
X15699382Y39738093D01*
X15461287Y39738093D01*
X15442153Y39734287D01*
X15415093Y39707227D01*
X15411287Y39688093D01*
X14893636Y39688093D01*
X14890879Y39699674D01*
X14882745Y39717406D01*
X14876375Y39721326D01*
X14872629Y39727797D01*
X14860682Y39730983D01*
X14850153Y39737463D01*
X14842879Y39735732D01*
X14835654Y39737658D01*
X14824952Y39731463D01*
X14812926Y39728599D01*
X14809007Y39722232D01*
X14802535Y39718484D01*
X14793927Y39700976D01*
X14651763Y39167861D01*
X14509599Y39700976D01*
X14500991Y39718483D01*
X14494519Y39722230D01*
X14490600Y39728599D01*
X14478570Y39731464D01*
X14467872Y39737657D01*
X14460648Y39735731D01*
X14453373Y39737463D01*
X14442842Y39730983D01*
X14430897Y39727797D01*
X14427150Y39721326D01*
X14420781Y39717406D01*
X14412647Y39699674D01*
X14174552Y38699674D01*
X14173822Y38680179D01*
X13881372Y38680179D01*
X13905669Y38688278D01*
X13922617Y38697939D01*
X13939732Y38732168D01*
X13927630Y38768472D01*
X13893402Y38785586D01*
X13874046Y38783146D01*
X13738888Y38738093D01*
X13520710Y38738093D01*
X13443286Y38776805D01*
X13407141Y38812949D01*
X13368430Y38890372D01*
X13368430Y38962004D01*
X13407141Y39039428D01*
X13443286Y39075572D01*
X13526358Y39117108D01*
X13711509Y39163395D01*
X13716461Y39165735D01*
X13721743Y39167181D01*
X13816980Y39214799D01*
X13823313Y39219715D01*
X13829975Y39224166D01*
X13877594Y39271784D01*
X13882048Y39278451D01*
X13886960Y39284779D01*
X13934579Y39380017D01*
X13935240Y39382433D01*
X13936052Y39383244D01*
X13937615Y39391106D01*
X13939732Y39398833D01*
X13939369Y39399922D01*
X13939858Y39402378D01*
X13939858Y39497616D01*
X13939369Y39500073D01*
X13939732Y39501161D01*
X13937615Y39508889D01*
X13936052Y39516750D01*
X13935240Y39517562D01*
X13934579Y39519977D01*
X13886960Y39615215D01*
X13882048Y39621544D01*
X13877594Y39628210D01*
X13829975Y39675828D01*
X13823315Y39680279D01*
X13816981Y39685194D01*
X13721743Y39732814D01*
X13719327Y39733476D01*
X13718516Y39734287D01*
X13710654Y39735851D01*
X13702927Y39737967D01*
X13701838Y39737605D01*
X13699382Y39738093D01*
X13461287Y39738093D01*
X13453425Y39736530D01*
X13445475Y39735527D01*
X13302618Y39687907D01*
X13285670Y39678246D01*
X13268556Y39644017D01*
X13280657Y39607713D01*
X13314886Y39590599D01*
X13334242Y39593039D01*
X13469401Y39638093D01*
X13687579Y39638093D01*
X13765002Y39599381D01*
X13801146Y39563236D01*
X13839858Y39485813D01*
X13839858Y39414182D01*
X13801146Y39336759D01*
X13765002Y39300614D01*
X13681931Y39259078D01*
X13496779Y39212790D01*
X13491826Y39210451D01*
X13486545Y39209004D01*
X13391307Y39161385D01*
X13384978Y39156474D01*
X13378312Y39152019D01*
X13330694Y39104400D01*
X13326242Y39097739D01*
X13321327Y39091405D01*
X13273709Y38996168D01*
X13273047Y38993753D01*
X13272236Y38992941D01*
X13270672Y38985080D01*
X13268556Y38977352D01*
X13268918Y38976264D01*
X13268430Y38973807D01*
X13157319Y38973807D01*
X13157319Y39849204D01*
X17717635Y39849204D01*
X17717635Y38526982D01*
G37*
G36*
X12013724Y38554414D02*
G01*
X11072455Y38554414D01*
X11072455Y39286953D01*
X11183566Y39286953D01*
X11183566Y39144096D01*
X11184761Y39138087D01*
X11185059Y39131969D01*
X11232678Y38941493D01*
X11235017Y38936541D01*
X11236464Y38931259D01*
X11284082Y38836022D01*
X11288997Y38829689D01*
X11293449Y38823027D01*
X11388687Y38727789D01*
X11390768Y38726399D01*
X11391282Y38725371D01*
X11398247Y38721401D01*
X11404908Y38716950D01*
X11406056Y38716950D01*
X11408231Y38715710D01*
X11551087Y38668091D01*
X11559037Y38667089D01*
X11566899Y38665525D01*
X11709756Y38665525D01*
X11712212Y38666014D01*
X11713301Y38665651D01*
X11721028Y38667768D01*
X11728890Y38669331D01*
X11729701Y38670143D01*
X11732117Y38670804D01*
X11827354Y38718422D01*
X11842766Y38730384D01*
X11854868Y38766688D01*
X11837754Y38800916D01*
X11801449Y38813018D01*
X11782633Y38807865D01*
X11697953Y38765525D01*
X11575012Y38765525D01*
X11451050Y38806846D01*
X11369897Y38887999D01*
X11328361Y38971071D01*
X11283566Y39150251D01*
X11283566Y39280798D01*
X11328361Y39459978D01*
X11369897Y39543050D01*
X11451050Y39624204D01*
X11575013Y39665525D01*
X11654023Y39665525D01*
X11777985Y39624204D01*
X11802613Y39599576D01*
X11802613Y39336953D01*
X11662137Y39336953D01*
X11643003Y39333147D01*
X11615943Y39306087D01*
X11615943Y39267819D01*
X11643003Y39240759D01*
X11662137Y39236953D01*
X11852613Y39236953D01*
X11871747Y39240759D01*
X11898807Y39267819D01*
X11902613Y39286953D01*
X11902613Y39620286D01*
X11898807Y39639420D01*
X11898807Y39639421D01*
X11887968Y39655642D01*
X11840349Y39703260D01*
X11838267Y39704651D01*
X11837754Y39705678D01*
X11830786Y39709650D01*
X11824128Y39714099D01*
X11822981Y39714099D01*
X11820806Y39715339D01*
X11677949Y39762959D01*
X11669998Y39763962D01*
X11662137Y39765525D01*
X11566899Y39765525D01*
X11559037Y39763962D01*
X11551087Y39762959D01*
X11408230Y39715339D01*
X11406055Y39714099D01*
X11404908Y39714099D01*
X11398249Y39709650D01*
X11391282Y39705678D01*
X11390768Y39704651D01*
X11388687Y39703260D01*
X11293449Y39608022D01*
X11288997Y39601361D01*
X11284082Y39595027D01*
X11236464Y39499790D01*
X11235017Y39494509D01*
X11232678Y39489556D01*
X11185059Y39299080D01*
X11184761Y39292963D01*
X11183566Y39286953D01*
X11072455Y39286953D01*
X11072455Y39876636D01*
X12013724Y39876636D01*
X12013724Y38554414D01*
G37*
D11*
X15834819Y36063334D02*
X16549104Y36063334D01*
X16549104Y36063334D02*
X16691961Y36110953D01*
X16691961Y36110953D02*
X16787200Y36206191D01*
X16787200Y36206191D02*
X16834819Y36349048D01*
X16834819Y36349048D02*
X16834819Y36444286D01*
X16834819Y35063334D02*
X16834819Y35634762D01*
X16834819Y35349048D02*
X15834819Y35349048D01*
X15834819Y35349048D02*
X15977676Y35444286D01*
X15977676Y35444286D02*
X16072914Y35539524D01*
X16072914Y35539524D02*
X16120533Y35634762D01*
X18454819Y6738095D02*
X17454819Y6738095D01*
X17454819Y6738095D02*
X17454819Y6500000D01*
X17454819Y6500000D02*
X17502438Y6357143D01*
X17502438Y6357143D02*
X17597676Y6261905D01*
X17597676Y6261905D02*
X17692914Y6214286D01*
X17692914Y6214286D02*
X17883390Y6166667D01*
X17883390Y6166667D02*
X18026247Y6166667D01*
X18026247Y6166667D02*
X18216723Y6214286D01*
X18216723Y6214286D02*
X18311961Y6261905D01*
X18311961Y6261905D02*
X18407200Y6357143D01*
X18407200Y6357143D02*
X18454819Y6500000D01*
X18454819Y6500000D02*
X18454819Y6738095D01*
X17550057Y5785714D02*
X17502438Y5738095D01*
X17502438Y5738095D02*
X17454819Y5642857D01*
X17454819Y5642857D02*
X17454819Y5404762D01*
X17454819Y5404762D02*
X17502438Y5309524D01*
X17502438Y5309524D02*
X17550057Y5261905D01*
X17550057Y5261905D02*
X17645295Y5214286D01*
X17645295Y5214286D02*
X17740533Y5214286D01*
X17740533Y5214286D02*
X17883390Y5261905D01*
X17883390Y5261905D02*
X18454819Y5833333D01*
X18454819Y5833333D02*
X18454819Y5214286D01*
X9940686Y14127067D02*
X8940686Y14127067D01*
X8940686Y14127067D02*
X8940686Y13888972D01*
X8940686Y13888972D02*
X8988305Y13746115D01*
X8988305Y13746115D02*
X9083543Y13650877D01*
X9083543Y13650877D02*
X9178781Y13603258D01*
X9178781Y13603258D02*
X9369257Y13555639D01*
X9369257Y13555639D02*
X9512114Y13555639D01*
X9512114Y13555639D02*
X9702590Y13603258D01*
X9702590Y13603258D02*
X9797828Y13650877D01*
X9797828Y13650877D02*
X9893067Y13746115D01*
X9893067Y13746115D02*
X9940686Y13888972D01*
X9940686Y13888972D02*
X9940686Y14127067D01*
X8940686Y13222305D02*
X8940686Y12603258D01*
X8940686Y12603258D02*
X9321638Y12936591D01*
X9321638Y12936591D02*
X9321638Y12793734D01*
X9321638Y12793734D02*
X9369257Y12698496D01*
X9369257Y12698496D02*
X9416876Y12650877D01*
X9416876Y12650877D02*
X9512114Y12603258D01*
X9512114Y12603258D02*
X9750209Y12603258D01*
X9750209Y12603258D02*
X9845447Y12650877D01*
X9845447Y12650877D02*
X9893067Y12698496D01*
X9893067Y12698496D02*
X9940686Y12793734D01*
X9940686Y12793734D02*
X9940686Y13079448D01*
X9940686Y13079448D02*
X9893067Y13174686D01*
X9893067Y13174686D02*
X9845447Y13222305D01*
X25785714Y13068991D02*
X25642857Y13021372D01*
X25642857Y13021372D02*
X25595238Y12973753D01*
X25595238Y12973753D02*
X25547619Y12878515D01*
X25547619Y12878515D02*
X25547619Y12735658D01*
X25547619Y12735658D02*
X25595238Y12640420D01*
X25595238Y12640420D02*
X25642857Y12592800D01*
X25642857Y12592800D02*
X25738095Y12545181D01*
X25738095Y12545181D02*
X26119047Y12545181D01*
X26119047Y12545181D02*
X26119047Y13545181D01*
X26119047Y13545181D02*
X25785714Y13545181D01*
X25785714Y13545181D02*
X25690476Y13497562D01*
X25690476Y13497562D02*
X25642857Y13449943D01*
X25642857Y13449943D02*
X25595238Y13354705D01*
X25595238Y13354705D02*
X25595238Y13259467D01*
X25595238Y13259467D02*
X25642857Y13164229D01*
X25642857Y13164229D02*
X25690476Y13116610D01*
X25690476Y13116610D02*
X25785714Y13068991D01*
X25785714Y13068991D02*
X26119047Y13068991D01*
X25261904Y13545181D02*
X24690476Y13545181D01*
X24976190Y12545181D02*
X24976190Y13545181D01*
X23833333Y12545181D02*
X24404761Y12545181D01*
X24119047Y12545181D02*
X24119047Y13545181D01*
X24119047Y13545181D02*
X24214285Y13402324D01*
X24214285Y13402324D02*
X24309523Y13307086D01*
X24309523Y13307086D02*
X24404761Y13259467D01*
X62351428Y12885300D02*
X61208571Y12885300D01*
X18596428Y27875300D02*
X17453571Y27875300D01*
X30712200Y16801429D02*
X30712200Y15658571D01*
X62351428Y27875300D02*
X61208571Y27875300D01*
X61779999Y27303872D02*
X61779999Y28446729D01*
X22571428Y14885300D02*
X21428571Y14885300D01*
X21999999Y14313872D02*
X21999999Y15456729D01*
X45816900Y19970253D02*
X45816900Y18827395D01*
X46388328Y19398824D02*
X45245471Y19398824D01*
X9189819Y31333334D02*
X9904104Y31333334D01*
X9904104Y31333334D02*
X10046961Y31380953D01*
X10046961Y31380953D02*
X10142200Y31476191D01*
X10142200Y31476191D02*
X10189819Y31619048D01*
X10189819Y31619048D02*
X10189819Y31714286D01*
X9189819Y30428572D02*
X9189819Y30619048D01*
X9189819Y30619048D02*
X9237438Y30714286D01*
X9237438Y30714286D02*
X9285057Y30761905D01*
X9285057Y30761905D02*
X9427914Y30857143D01*
X9427914Y30857143D02*
X9618390Y30904762D01*
X9618390Y30904762D02*
X9999342Y30904762D01*
X9999342Y30904762D02*
X10094580Y30857143D01*
X10094580Y30857143D02*
X10142200Y30809524D01*
X10142200Y30809524D02*
X10189819Y30714286D01*
X10189819Y30714286D02*
X10189819Y30523810D01*
X10189819Y30523810D02*
X10142200Y30428572D01*
X10142200Y30428572D02*
X10094580Y30380953D01*
X10094580Y30380953D02*
X9999342Y30333334D01*
X9999342Y30333334D02*
X9761247Y30333334D01*
X9761247Y30333334D02*
X9666009Y30380953D01*
X9666009Y30380953D02*
X9618390Y30428572D01*
X9618390Y30428572D02*
X9570771Y30523810D01*
X9570771Y30523810D02*
X9570771Y30714286D01*
X9570771Y30714286D02*
X9618390Y30809524D01*
X9618390Y30809524D02*
X9666009Y30857143D01*
X9666009Y30857143D02*
X9761247Y30904762D01*
X11642857Y5320420D02*
X11690476Y5272800D01*
X11690476Y5272800D02*
X11833333Y5225181D01*
X11833333Y5225181D02*
X11928571Y5225181D01*
X11928571Y5225181D02*
X12071428Y5272800D01*
X12071428Y5272800D02*
X12166666Y5368039D01*
X12166666Y5368039D02*
X12214285Y5463277D01*
X12214285Y5463277D02*
X12261904Y5653753D01*
X12261904Y5653753D02*
X12261904Y5796610D01*
X12261904Y5796610D02*
X12214285Y5987086D01*
X12214285Y5987086D02*
X12166666Y6082324D01*
X12166666Y6082324D02*
X12071428Y6177562D01*
X12071428Y6177562D02*
X11928571Y6225181D01*
X11928571Y6225181D02*
X11833333Y6225181D01*
X11833333Y6225181D02*
X11690476Y6177562D01*
X11690476Y6177562D02*
X11642857Y6129943D01*
X10690476Y5225181D02*
X11261904Y5225181D01*
X10976190Y5225181D02*
X10976190Y6225181D01*
X10976190Y6225181D02*
X11071428Y6082324D01*
X11071428Y6082324D02*
X11166666Y5987086D01*
X11166666Y5987086D02*
X11261904Y5939467D01*
X10071428Y6225181D02*
X9976190Y6225181D01*
X9976190Y6225181D02*
X9880952Y6177562D01*
X9880952Y6177562D02*
X9833333Y6129943D01*
X9833333Y6129943D02*
X9785714Y6034705D01*
X9785714Y6034705D02*
X9738095Y5844229D01*
X9738095Y5844229D02*
X9738095Y5606134D01*
X9738095Y5606134D02*
X9785714Y5415658D01*
X9785714Y5415658D02*
X9833333Y5320420D01*
X9833333Y5320420D02*
X9880952Y5272800D01*
X9880952Y5272800D02*
X9976190Y5225181D01*
X9976190Y5225181D02*
X10071428Y5225181D01*
X10071428Y5225181D02*
X10166666Y5272800D01*
X10166666Y5272800D02*
X10214285Y5320420D01*
X10214285Y5320420D02*
X10261904Y5415658D01*
X10261904Y5415658D02*
X10309523Y5606134D01*
X10309523Y5606134D02*
X10309523Y5844229D01*
X10309523Y5844229D02*
X10261904Y6034705D01*
X10261904Y6034705D02*
X10214285Y6129943D01*
X10214285Y6129943D02*
X10166666Y6177562D01*
X10166666Y6177562D02*
X10071428Y6225181D01*
X5333333Y23445181D02*
X5333333Y22730896D01*
X5333333Y22730896D02*
X5380952Y22588039D01*
X5380952Y22588039D02*
X5476190Y22492800D01*
X5476190Y22492800D02*
X5619047Y22445181D01*
X5619047Y22445181D02*
X5714285Y22445181D01*
X4952380Y23445181D02*
X4333333Y23445181D01*
X4333333Y23445181D02*
X4666666Y23064229D01*
X4666666Y23064229D02*
X4523809Y23064229D01*
X4523809Y23064229D02*
X4428571Y23016610D01*
X4428571Y23016610D02*
X4380952Y22968991D01*
X4380952Y22968991D02*
X4333333Y22873753D01*
X4333333Y22873753D02*
X4333333Y22635658D01*
X4333333Y22635658D02*
X4380952Y22540420D01*
X4380952Y22540420D02*
X4428571Y22492800D01*
X4428571Y22492800D02*
X4523809Y22445181D01*
X4523809Y22445181D02*
X4809523Y22445181D01*
X4809523Y22445181D02*
X4904761Y22492800D01*
X4904761Y22492800D02*
X4952380Y22540420D01*
X15333332Y25917800D02*
X15190475Y25870181D01*
X15190475Y25870181D02*
X14952380Y25870181D01*
X14952380Y25870181D02*
X14857142Y25917800D01*
X14857142Y25917800D02*
X14809523Y25965420D01*
X14809523Y25965420D02*
X14761904Y26060658D01*
X14761904Y26060658D02*
X14761904Y26155896D01*
X14761904Y26155896D02*
X14809523Y26251134D01*
X14809523Y26251134D02*
X14857142Y26298753D01*
X14857142Y26298753D02*
X14952380Y26346372D01*
X14952380Y26346372D02*
X15142856Y26393991D01*
X15142856Y26393991D02*
X15238094Y26441610D01*
X15238094Y26441610D02*
X15285713Y26489229D01*
X15285713Y26489229D02*
X15333332Y26584467D01*
X15333332Y26584467D02*
X15333332Y26679705D01*
X15333332Y26679705D02*
X15285713Y26774943D01*
X15285713Y26774943D02*
X15238094Y26822562D01*
X15238094Y26822562D02*
X15142856Y26870181D01*
X15142856Y26870181D02*
X14904761Y26870181D01*
X14904761Y26870181D02*
X14761904Y26822562D01*
X14428570Y26870181D02*
X14190475Y25870181D01*
X14190475Y25870181D02*
X13999999Y26584467D01*
X13999999Y26584467D02*
X13809523Y25870181D01*
X13809523Y25870181D02*
X13571428Y26870181D01*
X12666666Y25870181D02*
X13238094Y25870181D01*
X12952380Y25870181D02*
X12952380Y26870181D01*
X12952380Y26870181D02*
X13047618Y26727324D01*
X13047618Y26727324D02*
X13142856Y26632086D01*
X13142856Y26632086D02*
X13238094Y26584467D01*
X9045180Y9666667D02*
X8330895Y9666667D01*
X8330895Y9666667D02*
X8188038Y9619048D01*
X8188038Y9619048D02*
X8092800Y9523810D01*
X8092800Y9523810D02*
X8045180Y9380953D01*
X8045180Y9380953D02*
X8045180Y9285715D01*
X9045180Y10047620D02*
X9045180Y10714286D01*
X9045180Y10714286D02*
X8045180Y10285715D01*
D12*
%TO.C,J1*%
X10080000Y33080000D02*
X10080000Y38380000D01*
X12730000Y35730000D02*
X15380000Y35730000D01*
X12730000Y33080000D02*
X10080000Y33080000D01*
X12730000Y33080000D02*
X12730000Y35730000D01*
X14000000Y33080000D02*
X15380000Y33080000D01*
X15380000Y38380000D02*
X10080000Y38380000D01*
X15380000Y35730000D02*
X15380000Y38380000D01*
X15380000Y33080000D02*
X15380000Y34460000D01*
%TO.C,D2*%
X14350000Y7490000D02*
X14350000Y13000000D01*
X17650000Y7490000D02*
X14350000Y7490000D01*
X17650000Y7490000D02*
X17650000Y13000000D01*
%TO.C,D3*%
X10350000Y7490000D02*
X10350000Y13000000D01*
X13650000Y7490000D02*
X10350000Y7490000D01*
X13650000Y7490000D02*
X13650000Y13000000D01*
%TO.C,BT1*%
X19145000Y37055000D02*
X78855000Y37055000D01*
X19145000Y3935000D02*
X19145000Y37055000D01*
X20415000Y35785000D02*
X26760000Y35785000D01*
X20415000Y20241000D02*
X77585000Y20241000D01*
X20415000Y5205000D02*
X20415000Y35785000D01*
X26760000Y35785000D02*
X26760000Y33245000D01*
X26760000Y33245000D02*
X39460000Y33245000D01*
X26760000Y7745000D02*
X26760000Y5205000D01*
X26760000Y7745000D02*
X39460000Y7745000D01*
X26760000Y5205000D02*
X20415000Y5205000D01*
X39460000Y35785000D02*
X58510000Y35785000D01*
X39460000Y33245000D02*
X39460000Y35785000D01*
X39460000Y30530000D02*
X39460000Y25450000D01*
X39460000Y25450000D02*
X57240000Y25450000D01*
X39460000Y14270000D02*
X39460000Y11730000D01*
X39460000Y11730000D02*
X40730000Y11730000D01*
X39460000Y5205000D02*
X39460000Y7745000D01*
X40730000Y15540000D02*
X40730000Y14270000D01*
X40730000Y14270000D02*
X39460000Y14270000D01*
X40730000Y11730000D02*
X40730000Y10460000D01*
X40730000Y10460000D02*
X58510000Y10460000D01*
X57240000Y30530000D02*
X39460000Y30530000D01*
X57240000Y29260000D02*
X57240000Y30530000D01*
X57240000Y26720000D02*
X58510000Y26720000D01*
X57240000Y25450000D02*
X57240000Y26720000D01*
X58510000Y35785000D02*
X58510000Y33245000D01*
X58510000Y29260000D02*
X57240000Y29260000D01*
X58510000Y26720000D02*
X58510000Y29260000D01*
X58510000Y15540000D02*
X40730000Y15540000D01*
X58510000Y11730000D02*
X58510000Y15540000D01*
X58510000Y10460000D02*
X58510000Y11730000D01*
X58510000Y7745000D02*
X58510000Y5205000D01*
X58510000Y5205000D02*
X39460000Y5205000D01*
X71210000Y35785000D02*
X71210000Y33245000D01*
X71210000Y33245000D02*
X58510000Y33245000D01*
X71210000Y7745000D02*
X58510000Y7745000D01*
X71210000Y5205000D02*
X71210000Y7745000D01*
X77585000Y35785000D02*
X71210000Y35785000D01*
X77585000Y20749000D02*
X20415000Y20749000D01*
X77585000Y5205000D02*
X71210000Y5205000D01*
X77585000Y5205000D02*
X77585000Y35785000D01*
X78855000Y37055000D02*
X78855000Y3935000D01*
X78855000Y3935000D02*
X19145000Y3935000D01*
%TO.C,J6*%
X3925000Y38060000D02*
X8645000Y38060000D01*
X3925000Y23940000D02*
X3925000Y38060000D01*
X4535000Y37450000D02*
X8035000Y37450000D01*
X4535000Y35000000D02*
X5035000Y35000000D01*
X4535000Y34900000D02*
X5035000Y34900000D01*
X4535000Y33000000D02*
X5035000Y33000000D01*
X4535000Y32900000D02*
X5035000Y32900000D01*
X4535000Y31000000D02*
X5035000Y31000000D01*
X4535000Y30900000D02*
X5035000Y30900000D01*
X4535000Y29000000D02*
X5035000Y29000000D01*
X4535000Y28900000D02*
X5035000Y28900000D01*
X4535000Y27000000D02*
X5035000Y27000000D01*
X4535000Y26900000D02*
X5035000Y26900000D01*
X4535000Y24550000D02*
X4535000Y37450000D01*
X5035000Y35100000D02*
X4535000Y35100000D01*
X5035000Y34900000D02*
X5035000Y35100000D01*
X5035000Y33100000D02*
X4535000Y33100000D01*
X5035000Y32900000D02*
X5035000Y33100000D01*
X5035000Y31100000D02*
X4535000Y31100000D01*
X5035000Y30900000D02*
X5035000Y31100000D01*
X5035000Y29100000D02*
X4535000Y29100000D01*
X5035000Y28900000D02*
X5035000Y29100000D01*
X5035000Y27100000D02*
X4535000Y27100000D01*
X5035000Y26900000D02*
X5035000Y27100000D01*
X6035000Y38060000D02*
X6035000Y37450000D01*
X6035000Y23940000D02*
X6035000Y24550000D01*
X7335000Y38060000D02*
X7335000Y37450000D01*
X7335000Y23940000D02*
X7335000Y24550000D01*
X8035000Y37450000D02*
X8035000Y35500000D01*
X8035000Y35500000D02*
X8645000Y35500000D01*
X8035000Y26500000D02*
X8035000Y24550000D01*
X8035000Y24550000D02*
X4535000Y24550000D01*
X8645000Y38060000D02*
X8645000Y23940000D01*
X8645000Y26500000D02*
X8035000Y26500000D01*
X8645000Y25700000D02*
X8845000Y25700000D01*
X8645000Y23940000D02*
X3925000Y23940000D01*
X8745000Y25700000D02*
X8745000Y25400000D01*
X8845000Y25700000D02*
X8845000Y25400000D01*
X8845000Y25400000D02*
X8645000Y25400000D01*
X8945000Y24890000D02*
X8945000Y23640000D01*
X8945000Y23640000D02*
X7695000Y23640000D01*
%TO.C,C10*%
X11261252Y4735000D02*
X10738748Y4735000D01*
X11261252Y3265000D02*
X10738748Y3265000D01*
%TO.C,J3*%
X1940000Y21810000D02*
X8060000Y21810000D01*
X1940000Y20500000D02*
X2550000Y20500000D01*
X1940000Y19200000D02*
X2550000Y19200000D01*
X1940000Y17090000D02*
X1940000Y21810000D01*
X2550000Y21200000D02*
X4500000Y21200000D01*
X2550000Y17700000D02*
X2550000Y21200000D01*
X4500000Y21200000D02*
X4500000Y21810000D01*
X4900000Y18200000D02*
X4900000Y17700000D01*
X5000000Y17700000D02*
X5000000Y18200000D01*
X5100000Y18200000D02*
X4900000Y18200000D01*
X5100000Y17700000D02*
X5100000Y18200000D01*
X5500000Y21810000D02*
X5500000Y21200000D01*
X5500000Y21200000D02*
X7450000Y21200000D01*
X6300000Y22010000D02*
X6600000Y22010000D01*
X6300000Y21910000D02*
X6600000Y21910000D01*
X6300000Y21810000D02*
X6300000Y22010000D01*
X6600000Y22010000D02*
X6600000Y21810000D01*
X7110000Y22110000D02*
X8360000Y22110000D01*
X7450000Y21200000D02*
X7450000Y17700000D01*
X7450000Y17700000D02*
X2550000Y17700000D01*
X8060000Y21810000D02*
X8060000Y17090000D01*
X8060000Y20500000D02*
X7450000Y20500000D01*
X8060000Y19200000D02*
X7450000Y19200000D01*
X8060000Y17090000D02*
X1940000Y17090000D01*
X8360000Y22110000D02*
X8360000Y20860000D01*
%TO.C,SW1*%
X10500000Y21325000D02*
X10500000Y22825000D01*
X11750000Y25325000D02*
X16250000Y25325000D01*
X16250000Y18825000D02*
X11750000Y18825000D01*
X17500000Y22825000D02*
X17500000Y21325000D01*
%TO.C,J7*%
X6040000Y14600000D02*
X4410000Y14600000D01*
X6040000Y5400000D02*
X4410000Y5400000D01*
%TD*%
%LPC*%
D13*
%TO.C,J5*%
X33000000Y3000000D03*
D14*
X31000000Y3000000D03*
%TD*%
D15*
%TO.C,J1*%
X14000000Y34460000D03*
D16*
X14000000Y37000000D03*
X11460000Y34460000D03*
X11460000Y37000000D03*
%TD*%
D17*
%TO.C,D2*%
X16000000Y9000000D03*
X16000000Y13000000D03*
%TD*%
%TO.C,D3*%
X12000000Y9000000D03*
X12000000Y13000000D03*
%TD*%
D18*
%TO.C,BT1*%
X49000000Y27990000D03*
X49000000Y13000000D03*
D19*
X21835000Y13000000D03*
D20*
X21835000Y27990000D03*
%TD*%
D21*
%TO.C,J6*%
X6835000Y26000000D03*
D22*
X6835000Y28000000D03*
X6835000Y30000000D03*
X6835000Y32000000D03*
X6835000Y34000000D03*
X6835000Y36000000D03*
%TD*%
D23*
%TO.C,C10*%
X12037500Y4000000D03*
X9962500Y4000000D03*
%TD*%
D13*
%TO.C,J3*%
X6000000Y20000000D03*
D14*
X4000000Y20000000D03*
%TD*%
D20*
%TO.C,SW1*%
X17250000Y24325000D03*
X10750000Y24325000D03*
X17250000Y19825000D03*
X10750000Y19825000D03*
%TD*%
D24*
%TO.C,J7*%
X7032500Y9500000D03*
D25*
X7032500Y11520000D03*
D26*
X7032500Y12750000D03*
D27*
X7032500Y10500000D03*
D28*
X7032500Y8480000D03*
D29*
X7032500Y7250000D03*
D30*
X3397500Y4875000D03*
D31*
X6977500Y4875000D03*
D30*
X3397500Y15125000D03*
D31*
X6977500Y15125000D03*
%TD*%
%LPD*%
M02*
