M48
; DRILL file {KiCad 9.0.1} date 2025-05-30T23:53:01+0300
; FORMAT={-:-/ absolute / inch / decimal}
; #@! TF.CreationDate,2025-05-30T23:53:01+03:00
; #@! TF.GenerationSoftware,Kicad,Pcbnew,9.0.1
; #@! TF.FileFunction,Plated,1,2,PTH
FMAT,2
INCH
; #@! TA.AperFunction,Plated,PTH,ViaDrill
T1C0.0118
; #@! TA.AperFunction,Plated,PTH,ViaDrill
T2C0.0157
; #@! TA.AperFunction,Plated,PTH,ViaDrill
T3C0.0197
; #@! TA.AperFunction,Plated,PTH,ViaDrill
T4C0.0236
; #@! TA.AperFunction,Plated,PTH,ComponentDrill
T5C0.0295
; #@! TA.AperFunction,Plated,PTH,ComponentDrill
T6C0.0394
; #@! TA.AperFunction,Plated,PTH,ComponentDrill
T7C0.0402
; #@! TA.AperFunction,Plated,PTH,ComponentDrill
T8C0.0433
%
G90
G05
T1
X0.0787Y1.2598
X0.1181Y0.5118
X0.1181Y0.2756
X0.1969Y0.4331
X0.1969Y0.3543
X0.3543Y0.6693
X0.4724Y1.1811
X0.5118Y0.0787
X0.5512Y0.3543
X0.5906Y1.0236
X0.6693Y1.2205
X0.6693Y1.1024
X0.7087Y1.4513
X0.7087Y1.378
X0.7087Y0.315
X0.7874Y1.1811
X0.7874Y0.8661
X0.8268Y1.1811
X0.8661Y1.1811
X0.8661Y0.8425
X0.9449Y0.7087
X0.9843Y0.0787
X0.9882Y1.1024
X1.1024Y1.2205
X1.2205Y0.9449
X1.2205Y0.8661
X1.229Y0.748
X1.2598Y0.7874
X1.2598Y0.4881
X1.2992Y1.3386
X1.3725Y1.0969
X1.3814Y0.7153
X1.4011Y0.6068
X1.4267Y0.9449
X1.4572Y1.1422
X1.4961Y0.4881
X1.4961Y0.1969
X1.5354Y0.9055
X1.5354Y0.4331
X1.5748Y0.9449
X1.6048Y0.822
X1.6142Y1.4173
X1.7717Y0.5118
X1.8056Y0.8268
X1.8056Y0.7874
X1.8898Y0.9055
X2.3622Y0.4724
X2.4016Y1.4173
X2.5197Y1.378
X2.5197Y1.2992
X2.5984Y1.2992
X2.7559Y0.4724
T2
X1.4567Y0.7874
X1.4567Y0.748
X1.4961Y0.8661
X1.4961Y0.748
X1.5354Y0.8661
X1.5354Y0.8268
X1.5748Y0.8661
X1.5748Y0.7874
T3
X2.5197Y1.0236
X2.5197Y0.8661
X2.5197Y0.7087
X2.5984Y0.9449
X2.5984Y0.7874
X2.7165Y1.0236
X2.7165Y0.8661
X2.7165Y0.7087
X2.8346Y0.9449
X2.8346Y0.7874
X2.9134Y1.0236
X2.9134Y0.8661
X2.9134Y0.7087
T4
X0.5906Y0.1575
X1.0236Y0.3937
T5
X0.1575Y0.7874
X0.2362Y0.7874
X0.2691Y1.4173
X0.2691Y1.3386
X0.2691Y1.2598
X0.2691Y1.1811
X0.2691Y1.1024
X0.2691Y1.0236
X1.2205Y0.1181
X1.2992Y0.1181
T6
X0.4512Y1.4567
X0.4512Y1.3567
X0.5512Y1.4567
X0.5512Y1.3567
T7
X0.8596Y1.102
X0.8596Y0.5118
T8
X0.4232Y0.9577
X0.4232Y0.7805
X0.6791Y0.9577
X0.6791Y0.7805
M30
