%TF.GenerationSoftware,KiCad,Pcbnew,9.0.1*%
%TF.CreationDate,2025-05-30T23:53:01+03:00*%
%TF.ProjectId,FlameSensorSender,466c616d-6553-4656-9e73-6f7253656e64,1*%
%TF.SameCoordinates,Original*%
%TF.FileFunction,Soldermask,Bot*%
%TF.FilePolarity,Negative*%
%FSLAX46Y46*%
G04 Gerber Fmt 4.6, Leading zero omitted, Abs format (unit mm)*
G04 Created by KiCad (PCBNEW 9.0.1) date 2025-05-30 23:53:01*
%MOMM*%
%LPD*%
G01*
G04 APERTURE LIST*
G04 Aperture macros list*
%AMRoundRect*
0 Rectangle with rounded corners*
0 $1 Rounding radius*
0 $2 $3 $4 $5 $6 $7 $8 $9 X,Y pos of 4 corners*
0 Add a 4 corners polygon primitive as box body*
4,1,4,$2,$3,$4,$5,$6,$7,$8,$9,$2,$3,0*
0 Add four circle primitives for the rounded corners*
1,1,$1+$1,$2,$3*
1,1,$1+$1,$4,$5*
1,1,$1+$1,$6,$7*
1,1,$1+$1,$8,$9*
0 Add four rect primitives between the rounded corners*
20,1,$1+$1,$2,$3,$4,$5,0*
20,1,$1+$1,$4,$5,$6,$7,0*
20,1,$1+$1,$6,$7,$8,$9,0*
20,1,$1+$1,$8,$9,$2,$3,0*%
G04 Aperture macros list end*
%ADD10RoundRect,0.250000X0.350000X0.625000X-0.350000X0.625000X-0.350000X-0.625000X0.350000X-0.625000X0*%
%ADD11O,1.200000X1.750000*%
%ADD12R,1.700000X1.700000*%
%ADD13C,1.700000*%
%ADD14RoundRect,0.250000X0.650000X-1.000000X0.650000X1.000000X-0.650000X1.000000X-0.650000X-1.000000X0*%
%ADD15C,3.300000*%
%ADD16R,2.000000X2.000000*%
%ADD17C,2.000000*%
%ADD18RoundRect,0.250000X0.625000X-0.350000X0.625000X0.350000X-0.625000X0.350000X-0.625000X-0.350000X0*%
%ADD19O,1.750000X1.200000*%
%ADD20RoundRect,0.250000X0.337500X0.475000X-0.337500X0.475000X-0.337500X-0.475000X0.337500X-0.475000X0*%
%ADD21RoundRect,0.175000X0.425000X-0.175000X0.425000X0.175000X-0.425000X0.175000X-0.425000X-0.175000X0*%
%ADD22RoundRect,0.190000X-0.410000X0.190000X-0.410000X-0.190000X0.410000X-0.190000X0.410000X0.190000X0*%
%ADD23RoundRect,0.200000X-0.400000X0.200000X-0.400000X-0.200000X0.400000X-0.200000X0.400000X0.200000X0*%
%ADD24RoundRect,0.175000X-0.425000X0.175000X-0.425000X-0.175000X0.425000X-0.175000X0.425000X0.175000X0*%
%ADD25RoundRect,0.190000X0.410000X-0.190000X0.410000X0.190000X-0.410000X0.190000X-0.410000X-0.190000X0*%
%ADD26RoundRect,0.200000X0.400000X-0.200000X0.400000X0.200000X-0.400000X0.200000X-0.400000X-0.200000X0*%
%ADD27RoundRect,0.250000X0.500000X-0.650000X0.500000X0.650000X-0.500000X0.650000X-0.500000X-0.650000X0*%
%ADD28RoundRect,0.250000X0.425000X-0.650000X0.425000X0.650000X-0.425000X0.650000X-0.425000X-0.650000X0*%
G04 APERTURE END LIST*
D10*
%TO.C,J5*%
X33000000Y3000000D03*
D11*
X31000000Y3000000D03*
%TD*%
D12*
%TO.C,J1*%
X14000000Y34460000D03*
D13*
X14000000Y37000000D03*
X11460000Y34460000D03*
X11460000Y37000000D03*
%TD*%
D14*
%TO.C,D2*%
X16000000Y9000000D03*
X16000000Y13000000D03*
%TD*%
%TO.C,D3*%
X12000000Y9000000D03*
X12000000Y13000000D03*
%TD*%
D15*
%TO.C,BT1*%
X49000000Y27990000D03*
X49000000Y13000000D03*
D16*
X21835000Y13000000D03*
D17*
X21835000Y27990000D03*
%TD*%
D18*
%TO.C,J6*%
X6835000Y26000000D03*
D19*
X6835000Y28000000D03*
X6835000Y30000000D03*
X6835000Y32000000D03*
X6835000Y34000000D03*
X6835000Y36000000D03*
%TD*%
D20*
%TO.C,C10*%
X12037500Y4000000D03*
X9962500Y4000000D03*
%TD*%
D10*
%TO.C,J3*%
X6000000Y20000000D03*
D11*
X4000000Y20000000D03*
%TD*%
D17*
%TO.C,SW1*%
X17250000Y24325000D03*
X10750000Y24325000D03*
X17250000Y19825000D03*
X10750000Y19825000D03*
%TD*%
D21*
%TO.C,J7*%
X7032500Y9500000D03*
D22*
X7032500Y11520000D03*
D23*
X7032500Y12750000D03*
D24*
X7032500Y10500000D03*
D25*
X7032500Y8480000D03*
D26*
X7032500Y7250000D03*
D27*
X3397500Y4875000D03*
D28*
X6977500Y4875000D03*
D27*
X3397500Y15125000D03*
D28*
X6977500Y15125000D03*
%TD*%
M02*
