%TF.GenerationSoftware,KiCad,Pcbnew,9.0.1*%
%TF.CreationDate,2025-07-30T18:50:42+03:00*%
%TF.ProjectId,FlameSensorSender,466c616d-6553-4656-9e73-6f7253656e64,1*%
%TF.SameCoordinates,PX38aa39cPY518a060*%
%TF.FileFunction,Soldermask,Bot*%
%TF.FilePolarity,Negative*%
%FSLAX46Y46*%
G04 Gerber Fmt 4.6, Leading zero omitted, Abs format (unit mm)*
G04 Created by KiCad (PCBNEW 9.0.1) date 2025-07-30 18:50:42*
%MOMM*%
%LPD*%
G01*
G04 APERTURE LIST*
G04 Aperture macros list*
%AMRoundRect*
0 Rectangle with rounded corners*
0 $1 Rounding radius*
0 $2 $3 $4 $5 $6 $7 $8 $9 X,Y pos of 4 corners*
0 Add a 4 corners polygon primitive as box body*
4,1,4,$2,$3,$4,$5,$6,$7,$8,$9,$2,$3,0*
0 Add four circle primitives for the rounded corners*
1,1,$1+$1,$2,$3*
1,1,$1+$1,$4,$5*
1,1,$1+$1,$6,$7*
1,1,$1+$1,$8,$9*
0 Add four rect primitives between the rounded corners*
20,1,$1+$1,$2,$3,$4,$5,0*
20,1,$1+$1,$4,$5,$6,$7,0*
20,1,$1+$1,$6,$7,$8,$9,0*
20,1,$1+$1,$8,$9,$2,$3,0*%
G04 Aperture macros list end*
%ADD10RoundRect,0.250000X0.625000X-0.350000X0.625000X0.350000X-0.625000X0.350000X-0.625000X-0.350000X0*%
%ADD11O,1.750000X1.200000*%
%ADD12RoundRect,0.250000X0.350000X0.625000X-0.350000X0.625000X-0.350000X-0.625000X0.350000X-0.625000X0*%
%ADD13O,1.200000X1.750000*%
%ADD14RoundRect,0.237500X-0.237500X0.250000X-0.237500X-0.250000X0.237500X-0.250000X0.237500X0.250000X0*%
%ADD15RoundRect,0.500000X-0.500000X0.500000X-0.500000X-0.500000X0.500000X-0.500000X0.500000X0.500000X0*%
%ADD16RoundRect,0.237500X-0.237500X0.300000X-0.237500X-0.300000X0.237500X-0.300000X0.237500X0.300000X0*%
%ADD17RoundRect,0.237500X0.250000X0.237500X-0.250000X0.237500X-0.250000X-0.237500X0.250000X-0.237500X0*%
%ADD18R,1.700000X1.700000*%
%ADD19C,1.700000*%
%ADD20RoundRect,0.237500X0.237500X-0.250000X0.237500X0.250000X-0.237500X0.250000X-0.237500X-0.250000X0*%
%ADD21C,3.300000*%
%ADD22R,2.000000X2.000000*%
%ADD23C,2.000000*%
%ADD24RoundRect,0.050000X-0.100000X0.285000X-0.100000X-0.285000X0.100000X-0.285000X0.100000X0.285000X0*%
%ADD25RoundRect,0.237500X-0.250000X-0.237500X0.250000X-0.237500X0.250000X0.237500X-0.250000X0.237500X0*%
%ADD26RoundRect,0.250000X-0.550000X1.500000X-0.550000X-1.500000X0.550000X-1.500000X0.550000X1.500000X0*%
%ADD27RoundRect,0.250000X-0.550000X1.250000X-0.550000X-1.250000X0.550000X-1.250000X0.550000X1.250000X0*%
%ADD28RoundRect,0.093750X0.093750X0.106250X-0.093750X0.106250X-0.093750X-0.106250X0.093750X-0.106250X0*%
%ADD29R,1.000000X1.600000*%
G04 APERTURE END LIST*
D10*
%TO.C,J6*%
X2000000Y5000000D03*
D11*
X2000000Y7000000D03*
X2000000Y9000000D03*
X2000000Y11000000D03*
%TD*%
D10*
%TO.C,J3*%
X3000000Y27000000D03*
D11*
X3000000Y29000000D03*
X3000000Y31000000D03*
X3000000Y33000000D03*
X3000000Y35000000D03*
X3000000Y37000000D03*
%TD*%
D12*
%TO.C,J5*%
X34000000Y2550000D03*
D13*
X32000000Y2550000D03*
%TD*%
D14*
%TO.C,R23*%
X20000000Y30000000D03*
X20000000Y28175000D03*
%TD*%
D15*
%TO.C,SW2*%
X8000000Y39000000D03*
X8000000Y33000000D03*
%TD*%
D16*
%TO.C,C13*%
X14000000Y29950000D03*
X14000000Y28225000D03*
%TD*%
D17*
%TO.C,R9*%
X7912500Y28000000D03*
X6087500Y28000000D03*
%TD*%
D18*
%TO.C,J1*%
X20000000Y35460000D03*
D19*
X20000000Y38000000D03*
X17460000Y35460000D03*
X17460000Y38000000D03*
%TD*%
D20*
%TO.C,R20*%
X7000000Y12087500D03*
X7000000Y13912500D03*
%TD*%
D21*
%TO.C,BT1*%
X52000000Y29000000D03*
X52000000Y14010000D03*
D22*
X24835000Y14010000D03*
D23*
X24835000Y29000000D03*
%TD*%
D20*
%TO.C,R21*%
X5000000Y12087500D03*
X5000000Y13912500D03*
%TD*%
D24*
%TO.C,U5*%
X15500000Y14480000D03*
X16000000Y14480000D03*
X16500000Y14480000D03*
X17000000Y14480000D03*
X17000000Y13000000D03*
X16500000Y13000000D03*
X16000000Y13000000D03*
X15500000Y13000000D03*
%TD*%
D18*
%TO.C,J2*%
X16460000Y20000000D03*
D19*
X19000000Y20000000D03*
X16460000Y22540000D03*
X19000000Y22540000D03*
%TD*%
D25*
%TO.C,R16*%
X15175000Y17000000D03*
X17000000Y17000000D03*
%TD*%
D17*
%TO.C,R17*%
X11000000Y13000000D03*
X9175000Y13000000D03*
%TD*%
D23*
%TO.C,SW1*%
X11000000Y22000000D03*
X4500000Y22000000D03*
X11000000Y17500000D03*
X4500000Y17500000D03*
%TD*%
D26*
%TO.C,C8*%
X7000000Y8400000D03*
X7000000Y3000000D03*
%TD*%
D20*
%TO.C,R24*%
X17000000Y28175000D03*
X17000000Y30000000D03*
%TD*%
D27*
%TO.C,C11*%
X14000000Y7200000D03*
X14000000Y2800000D03*
%TD*%
D28*
%TO.C,U3*%
X20000000Y10300000D03*
X20000000Y9650000D03*
X20000000Y9000000D03*
X18225000Y9000000D03*
X18225000Y9650000D03*
X18225000Y10300000D03*
D29*
X19112500Y9650000D03*
%TD*%
M02*
