%TF.GenerationSoftware,KiCad,Pcbnew,9.0.1*%
%TF.CreationDate,2025-07-30T18:50:42+03:00*%
%TF.ProjectId,FlameSensorSender,466c616d-6553-4656-9e73-6f7253656e64,1*%
%TF.SameCoordinates,PX38aa39cPY518a060*%
%TF.FileFunction,Soldermask,Top*%
%TF.FilePolarity,Negative*%
%FSLAX46Y46*%
G04 Gerber Fmt 4.6, Leading zero omitted, Abs format (unit mm)*
G04 Created by KiCad (PCBNEW 9.0.1) date 2025-07-30 18:50:42*
%MOMM*%
%LPD*%
G01*
G04 APERTURE LIST*
G04 Aperture macros list*
%AMRoundRect*
0 Rectangle with rounded corners*
0 $1 Rounding radius*
0 $2 $3 $4 $5 $6 $7 $8 $9 X,Y pos of 4 corners*
0 Add a 4 corners polygon primitive as box body*
4,1,4,$2,$3,$4,$5,$6,$7,$8,$9,$2,$3,0*
0 Add four circle primitives for the rounded corners*
1,1,$1+$1,$2,$3*
1,1,$1+$1,$4,$5*
1,1,$1+$1,$6,$7*
1,1,$1+$1,$8,$9*
0 Add four rect primitives between the rounded corners*
20,1,$1+$1,$2,$3,$4,$5,0*
20,1,$1+$1,$4,$5,$6,$7,0*
20,1,$1+$1,$6,$7,$8,$9,0*
20,1,$1+$1,$8,$9,$2,$3,0*%
G04 Aperture macros list end*
%ADD10C,0.010000*%
%ADD11RoundRect,0.102000X0.600000X0.910000X-0.600000X0.910000X-0.600000X-0.910000X0.600000X-0.910000X0*%
%ADD12RoundRect,0.102000X-0.600000X-0.910000X0.600000X-0.910000X0.600000X0.910000X-0.600000X0.910000X0*%
%ADD13RoundRect,0.250000X0.625000X-0.350000X0.625000X0.350000X-0.625000X0.350000X-0.625000X-0.350000X0*%
%ADD14O,1.750000X1.200000*%
%ADD15RoundRect,0.237500X0.250000X0.237500X-0.250000X0.237500X-0.250000X-0.237500X0.250000X-0.237500X0*%
%ADD16RoundRect,0.237500X-0.237500X0.250000X-0.237500X-0.250000X0.237500X-0.250000X0.237500X0.250000X0*%
%ADD17RoundRect,0.237500X-0.237500X0.300000X-0.237500X-0.300000X0.237500X-0.300000X0.237500X0.300000X0*%
%ADD18RoundRect,0.150000X-0.150000X0.512500X-0.150000X-0.512500X0.150000X-0.512500X0.150000X0.512500X0*%
%ADD19RoundRect,0.237500X0.237500X-0.250000X0.237500X0.250000X-0.237500X0.250000X-0.237500X-0.250000X0*%
%ADD20RoundRect,0.237500X-0.300000X-0.237500X0.300000X-0.237500X0.300000X0.237500X-0.300000X0.237500X0*%
%ADD21RoundRect,0.250001X-0.462499X-0.624999X0.462499X-0.624999X0.462499X0.624999X-0.462499X0.624999X0*%
%ADD22RoundRect,0.237500X0.237500X-0.287500X0.237500X0.287500X-0.237500X0.287500X-0.237500X-0.287500X0*%
%ADD23R,1.500000X2.000000*%
%ADD24RoundRect,0.237500X-0.250000X-0.237500X0.250000X-0.237500X0.250000X0.237500X-0.250000X0.237500X0*%
%ADD25RoundRect,0.250000X0.350000X0.625000X-0.350000X0.625000X-0.350000X-0.625000X0.350000X-0.625000X0*%
%ADD26O,1.200000X1.750000*%
%ADD27RoundRect,0.237500X0.300000X0.237500X-0.300000X0.237500X-0.300000X-0.237500X0.300000X-0.237500X0*%
%ADD28RoundRect,0.075000X0.662500X0.075000X-0.662500X0.075000X-0.662500X-0.075000X0.662500X-0.075000X0*%
%ADD29RoundRect,0.075000X0.075000X0.662500X-0.075000X0.662500X-0.075000X-0.662500X0.075000X-0.662500X0*%
%ADD30RoundRect,0.237500X0.237500X-0.300000X0.237500X0.300000X-0.237500X0.300000X-0.237500X-0.300000X0*%
%ADD31R,1.700000X1.700000*%
%ADD32C,1.700000*%
%ADD33C,3.300000*%
%ADD34R,2.000000X2.000000*%
%ADD35C,2.000000*%
G04 APERTURE END LIST*
D10*
%TO.C,U6*%
X27088000Y33019000D02*
X27094000Y33019000D01*
X27100000Y33017000D01*
X27106000Y33016000D01*
X27112000Y33014000D01*
X27118000Y33012000D01*
X27124000Y33010000D01*
X27129000Y33007000D01*
X27135000Y33004000D01*
X27140000Y33001000D01*
X27146000Y32997000D01*
X27151000Y32993000D01*
X27155000Y32989000D01*
X27160000Y32985000D01*
X27164000Y32980000D01*
X27168000Y32976000D01*
X27172000Y32971000D01*
X27176000Y32965000D01*
X27179000Y32960000D01*
X27182000Y32954000D01*
X27185000Y32949000D01*
X27187000Y32943000D01*
X27189000Y32937000D01*
X27191000Y32931000D01*
X27192000Y32925000D01*
X27194000Y32919000D01*
X27194000Y32913000D01*
X27195000Y32906000D01*
X27195000Y32900000D01*
X27195000Y32400000D01*
X27195000Y32394000D01*
X27194000Y32387000D01*
X27194000Y32381000D01*
X27192000Y32375000D01*
X27191000Y32369000D01*
X27189000Y32363000D01*
X27187000Y32357000D01*
X27185000Y32351000D01*
X27182000Y32346000D01*
X27179000Y32340000D01*
X27176000Y32335000D01*
X27172000Y32329000D01*
X27168000Y32324000D01*
X27164000Y32320000D01*
X27160000Y32315000D01*
X27155000Y32311000D01*
X27151000Y32307000D01*
X27146000Y32303000D01*
X27140000Y32299000D01*
X27135000Y32296000D01*
X27129000Y32293000D01*
X27124000Y32290000D01*
X27118000Y32288000D01*
X27112000Y32286000D01*
X27106000Y32284000D01*
X27100000Y32283000D01*
X27094000Y32281000D01*
X27088000Y32281000D01*
X27081000Y32280000D01*
X27075000Y32280000D01*
X26925000Y32280000D01*
X26919000Y32280000D01*
X26912000Y32281000D01*
X26906000Y32281000D01*
X26900000Y32283000D01*
X26894000Y32284000D01*
X26888000Y32286000D01*
X26882000Y32288000D01*
X26876000Y32290000D01*
X26871000Y32293000D01*
X26865000Y32296000D01*
X26860000Y32299000D01*
X26854000Y32303000D01*
X26849000Y32307000D01*
X26845000Y32311000D01*
X26840000Y32315000D01*
X26836000Y32320000D01*
X26832000Y32324000D01*
X26828000Y32329000D01*
X26824000Y32335000D01*
X26821000Y32340000D01*
X26818000Y32346000D01*
X26815000Y32351000D01*
X26813000Y32357000D01*
X26811000Y32363000D01*
X26809000Y32369000D01*
X26808000Y32375000D01*
X26806000Y32381000D01*
X26806000Y32387000D01*
X26805000Y32394000D01*
X26805000Y32400000D01*
X26805000Y32900000D01*
X26805000Y32906000D01*
X26806000Y32913000D01*
X26806000Y32919000D01*
X26808000Y32925000D01*
X26809000Y32931000D01*
X26811000Y32937000D01*
X26813000Y32943000D01*
X26815000Y32949000D01*
X26818000Y32954000D01*
X26821000Y32960000D01*
X26824000Y32965000D01*
X26828000Y32971000D01*
X26832000Y32976000D01*
X26836000Y32980000D01*
X26840000Y32985000D01*
X26845000Y32989000D01*
X26849000Y32993000D01*
X26854000Y32997000D01*
X26860000Y33001000D01*
X26865000Y33004000D01*
X26871000Y33007000D01*
X26876000Y33010000D01*
X26882000Y33012000D01*
X26888000Y33014000D01*
X26894000Y33016000D01*
X26900000Y33017000D01*
X26906000Y33019000D01*
X26912000Y33019000D01*
X26919000Y33020000D01*
X26925000Y33020000D01*
X27075000Y33020000D01*
X27081000Y33020000D01*
X27088000Y33019000D01*
G36*
X27088000Y33019000D02*
G01*
X27094000Y33019000D01*
X27100000Y33017000D01*
X27106000Y33016000D01*
X27112000Y33014000D01*
X27118000Y33012000D01*
X27124000Y33010000D01*
X27129000Y33007000D01*
X27135000Y33004000D01*
X27140000Y33001000D01*
X27146000Y32997000D01*
X27151000Y32993000D01*
X27155000Y32989000D01*
X27160000Y32985000D01*
X27164000Y32980000D01*
X27168000Y32976000D01*
X27172000Y32971000D01*
X27176000Y32965000D01*
X27179000Y32960000D01*
X27182000Y32954000D01*
X27185000Y32949000D01*
X27187000Y32943000D01*
X27189000Y32937000D01*
X27191000Y32931000D01*
X27192000Y32925000D01*
X27194000Y32919000D01*
X27194000Y32913000D01*
X27195000Y32906000D01*
X27195000Y32900000D01*
X27195000Y32400000D01*
X27195000Y32394000D01*
X27194000Y32387000D01*
X27194000Y32381000D01*
X27192000Y32375000D01*
X27191000Y32369000D01*
X27189000Y32363000D01*
X27187000Y32357000D01*
X27185000Y32351000D01*
X27182000Y32346000D01*
X27179000Y32340000D01*
X27176000Y32335000D01*
X27172000Y32329000D01*
X27168000Y32324000D01*
X27164000Y32320000D01*
X27160000Y32315000D01*
X27155000Y32311000D01*
X27151000Y32307000D01*
X27146000Y32303000D01*
X27140000Y32299000D01*
X27135000Y32296000D01*
X27129000Y32293000D01*
X27124000Y32290000D01*
X27118000Y32288000D01*
X27112000Y32286000D01*
X27106000Y32284000D01*
X27100000Y32283000D01*
X27094000Y32281000D01*
X27088000Y32281000D01*
X27081000Y32280000D01*
X27075000Y32280000D01*
X26925000Y32280000D01*
X26919000Y32280000D01*
X26912000Y32281000D01*
X26906000Y32281000D01*
X26900000Y32283000D01*
X26894000Y32284000D01*
X26888000Y32286000D01*
X26882000Y32288000D01*
X26876000Y32290000D01*
X26871000Y32293000D01*
X26865000Y32296000D01*
X26860000Y32299000D01*
X26854000Y32303000D01*
X26849000Y32307000D01*
X26845000Y32311000D01*
X26840000Y32315000D01*
X26836000Y32320000D01*
X26832000Y32324000D01*
X26828000Y32329000D01*
X26824000Y32335000D01*
X26821000Y32340000D01*
X26818000Y32346000D01*
X26815000Y32351000D01*
X26813000Y32357000D01*
X26811000Y32363000D01*
X26809000Y32369000D01*
X26808000Y32375000D01*
X26806000Y32381000D01*
X26806000Y32387000D01*
X26805000Y32394000D01*
X26805000Y32400000D01*
X26805000Y32900000D01*
X26805000Y32906000D01*
X26806000Y32913000D01*
X26806000Y32919000D01*
X26808000Y32925000D01*
X26809000Y32931000D01*
X26811000Y32937000D01*
X26813000Y32943000D01*
X26815000Y32949000D01*
X26818000Y32954000D01*
X26821000Y32960000D01*
X26824000Y32965000D01*
X26828000Y32971000D01*
X26832000Y32976000D01*
X26836000Y32980000D01*
X26840000Y32985000D01*
X26845000Y32989000D01*
X26849000Y32993000D01*
X26854000Y32997000D01*
X26860000Y33001000D01*
X26865000Y33004000D01*
X26871000Y33007000D01*
X26876000Y33010000D01*
X26882000Y33012000D01*
X26888000Y33014000D01*
X26894000Y33016000D01*
X26900000Y33017000D01*
X26906000Y33019000D01*
X26912000Y33019000D01*
X26919000Y33020000D01*
X26925000Y33020000D01*
X27075000Y33020000D01*
X27081000Y33020000D01*
X27088000Y33019000D01*
G37*
X27088000Y31519000D02*
X27094000Y31519000D01*
X27100000Y31517000D01*
X27106000Y31516000D01*
X27112000Y31514000D01*
X27118000Y31512000D01*
X27124000Y31510000D01*
X27129000Y31507000D01*
X27135000Y31504000D01*
X27140000Y31501000D01*
X27146000Y31497000D01*
X27151000Y31493000D01*
X27155000Y31489000D01*
X27160000Y31485000D01*
X27164000Y31480000D01*
X27168000Y31476000D01*
X27172000Y31471000D01*
X27176000Y31465000D01*
X27179000Y31460000D01*
X27182000Y31454000D01*
X27185000Y31449000D01*
X27187000Y31443000D01*
X27189000Y31437000D01*
X27191000Y31431000D01*
X27192000Y31425000D01*
X27194000Y31419000D01*
X27194000Y31413000D01*
X27195000Y31406000D01*
X27195000Y31400000D01*
X27195000Y30600000D01*
X27195000Y30594000D01*
X27194000Y30587000D01*
X27194000Y30581000D01*
X27192000Y30575000D01*
X27191000Y30569000D01*
X27189000Y30563000D01*
X27187000Y30557000D01*
X27185000Y30551000D01*
X27182000Y30546000D01*
X27179000Y30540000D01*
X27176000Y30535000D01*
X27172000Y30529000D01*
X27168000Y30524000D01*
X27164000Y30520000D01*
X27160000Y30515000D01*
X27155000Y30511000D01*
X27151000Y30507000D01*
X27146000Y30503000D01*
X27140000Y30499000D01*
X27135000Y30496000D01*
X27129000Y30493000D01*
X27124000Y30490000D01*
X27118000Y30488000D01*
X27112000Y30486000D01*
X27106000Y30484000D01*
X27100000Y30483000D01*
X27094000Y30481000D01*
X27088000Y30481000D01*
X27081000Y30480000D01*
X27075000Y30480000D01*
X26925000Y30480000D01*
X26919000Y30480000D01*
X26912000Y30481000D01*
X26906000Y30481000D01*
X26900000Y30483000D01*
X26894000Y30484000D01*
X26888000Y30486000D01*
X26882000Y30488000D01*
X26876000Y30490000D01*
X26871000Y30493000D01*
X26865000Y30496000D01*
X26860000Y30499000D01*
X26854000Y30503000D01*
X26849000Y30507000D01*
X26845000Y30511000D01*
X26840000Y30515000D01*
X26836000Y30520000D01*
X26832000Y30524000D01*
X26828000Y30529000D01*
X26824000Y30535000D01*
X26821000Y30540000D01*
X26818000Y30546000D01*
X26815000Y30551000D01*
X26813000Y30557000D01*
X26811000Y30563000D01*
X26809000Y30569000D01*
X26808000Y30575000D01*
X26806000Y30581000D01*
X26806000Y30587000D01*
X26805000Y30594000D01*
X26805000Y30600000D01*
X26805000Y31400000D01*
X26805000Y31406000D01*
X26806000Y31413000D01*
X26806000Y31419000D01*
X26808000Y31425000D01*
X26809000Y31431000D01*
X26811000Y31437000D01*
X26813000Y31443000D01*
X26815000Y31449000D01*
X26818000Y31454000D01*
X26821000Y31460000D01*
X26824000Y31465000D01*
X26828000Y31471000D01*
X26832000Y31476000D01*
X26836000Y31480000D01*
X26840000Y31485000D01*
X26845000Y31489000D01*
X26849000Y31493000D01*
X26854000Y31497000D01*
X26860000Y31501000D01*
X26865000Y31504000D01*
X26871000Y31507000D01*
X26876000Y31510000D01*
X26882000Y31512000D01*
X26888000Y31514000D01*
X26894000Y31516000D01*
X26900000Y31517000D01*
X26906000Y31519000D01*
X26912000Y31519000D01*
X26919000Y31520000D01*
X26925000Y31520000D01*
X27075000Y31520000D01*
X27081000Y31520000D01*
X27088000Y31519000D01*
G36*
X27088000Y31519000D02*
G01*
X27094000Y31519000D01*
X27100000Y31517000D01*
X27106000Y31516000D01*
X27112000Y31514000D01*
X27118000Y31512000D01*
X27124000Y31510000D01*
X27129000Y31507000D01*
X27135000Y31504000D01*
X27140000Y31501000D01*
X27146000Y31497000D01*
X27151000Y31493000D01*
X27155000Y31489000D01*
X27160000Y31485000D01*
X27164000Y31480000D01*
X27168000Y31476000D01*
X27172000Y31471000D01*
X27176000Y31465000D01*
X27179000Y31460000D01*
X27182000Y31454000D01*
X27185000Y31449000D01*
X27187000Y31443000D01*
X27189000Y31437000D01*
X27191000Y31431000D01*
X27192000Y31425000D01*
X27194000Y31419000D01*
X27194000Y31413000D01*
X27195000Y31406000D01*
X27195000Y31400000D01*
X27195000Y30600000D01*
X27195000Y30594000D01*
X27194000Y30587000D01*
X27194000Y30581000D01*
X27192000Y30575000D01*
X27191000Y30569000D01*
X27189000Y30563000D01*
X27187000Y30557000D01*
X27185000Y30551000D01*
X27182000Y30546000D01*
X27179000Y30540000D01*
X27176000Y30535000D01*
X27172000Y30529000D01*
X27168000Y30524000D01*
X27164000Y30520000D01*
X27160000Y30515000D01*
X27155000Y30511000D01*
X27151000Y30507000D01*
X27146000Y30503000D01*
X27140000Y30499000D01*
X27135000Y30496000D01*
X27129000Y30493000D01*
X27124000Y30490000D01*
X27118000Y30488000D01*
X27112000Y30486000D01*
X27106000Y30484000D01*
X27100000Y30483000D01*
X27094000Y30481000D01*
X27088000Y30481000D01*
X27081000Y30480000D01*
X27075000Y30480000D01*
X26925000Y30480000D01*
X26919000Y30480000D01*
X26912000Y30481000D01*
X26906000Y30481000D01*
X26900000Y30483000D01*
X26894000Y30484000D01*
X26888000Y30486000D01*
X26882000Y30488000D01*
X26876000Y30490000D01*
X26871000Y30493000D01*
X26865000Y30496000D01*
X26860000Y30499000D01*
X26854000Y30503000D01*
X26849000Y30507000D01*
X26845000Y30511000D01*
X26840000Y30515000D01*
X26836000Y30520000D01*
X26832000Y30524000D01*
X26828000Y30529000D01*
X26824000Y30535000D01*
X26821000Y30540000D01*
X26818000Y30546000D01*
X26815000Y30551000D01*
X26813000Y30557000D01*
X26811000Y30563000D01*
X26809000Y30569000D01*
X26808000Y30575000D01*
X26806000Y30581000D01*
X26806000Y30587000D01*
X26805000Y30594000D01*
X26805000Y30600000D01*
X26805000Y31400000D01*
X26805000Y31406000D01*
X26806000Y31413000D01*
X26806000Y31419000D01*
X26808000Y31425000D01*
X26809000Y31431000D01*
X26811000Y31437000D01*
X26813000Y31443000D01*
X26815000Y31449000D01*
X26818000Y31454000D01*
X26821000Y31460000D01*
X26824000Y31465000D01*
X26828000Y31471000D01*
X26832000Y31476000D01*
X26836000Y31480000D01*
X26840000Y31485000D01*
X26845000Y31489000D01*
X26849000Y31493000D01*
X26854000Y31497000D01*
X26860000Y31501000D01*
X26865000Y31504000D01*
X26871000Y31507000D01*
X26876000Y31510000D01*
X26882000Y31512000D01*
X26888000Y31514000D01*
X26894000Y31516000D01*
X26900000Y31517000D01*
X26906000Y31519000D01*
X26912000Y31519000D01*
X26919000Y31520000D01*
X26925000Y31520000D01*
X27075000Y31520000D01*
X27081000Y31520000D01*
X27088000Y31519000D01*
G37*
X27588000Y33019000D02*
X27594000Y33019000D01*
X27600000Y33017000D01*
X27606000Y33016000D01*
X27612000Y33014000D01*
X27618000Y33012000D01*
X27624000Y33010000D01*
X27629000Y33007000D01*
X27635000Y33004000D01*
X27640000Y33001000D01*
X27646000Y32997000D01*
X27651000Y32993000D01*
X27655000Y32989000D01*
X27660000Y32985000D01*
X27664000Y32980000D01*
X27668000Y32976000D01*
X27672000Y32971000D01*
X27676000Y32965000D01*
X27679000Y32960000D01*
X27682000Y32954000D01*
X27685000Y32949000D01*
X27687000Y32943000D01*
X27689000Y32937000D01*
X27691000Y32931000D01*
X27692000Y32925000D01*
X27694000Y32919000D01*
X27694000Y32913000D01*
X27695000Y32906000D01*
X27695000Y32900000D01*
X27695000Y32400000D01*
X27695000Y32394000D01*
X27694000Y32387000D01*
X27694000Y32381000D01*
X27692000Y32375000D01*
X27691000Y32369000D01*
X27689000Y32363000D01*
X27687000Y32357000D01*
X27685000Y32351000D01*
X27682000Y32346000D01*
X27679000Y32340000D01*
X27676000Y32335000D01*
X27672000Y32329000D01*
X27668000Y32324000D01*
X27664000Y32320000D01*
X27660000Y32315000D01*
X27655000Y32311000D01*
X27651000Y32307000D01*
X27646000Y32303000D01*
X27640000Y32299000D01*
X27635000Y32296000D01*
X27629000Y32293000D01*
X27624000Y32290000D01*
X27618000Y32288000D01*
X27612000Y32286000D01*
X27606000Y32284000D01*
X27600000Y32283000D01*
X27594000Y32281000D01*
X27588000Y32281000D01*
X27581000Y32280000D01*
X27575000Y32280000D01*
X27425000Y32280000D01*
X27419000Y32280000D01*
X27412000Y32281000D01*
X27406000Y32281000D01*
X27400000Y32283000D01*
X27394000Y32284000D01*
X27388000Y32286000D01*
X27382000Y32288000D01*
X27376000Y32290000D01*
X27371000Y32293000D01*
X27365000Y32296000D01*
X27360000Y32299000D01*
X27354000Y32303000D01*
X27349000Y32307000D01*
X27345000Y32311000D01*
X27340000Y32315000D01*
X27336000Y32320000D01*
X27332000Y32324000D01*
X27328000Y32329000D01*
X27324000Y32335000D01*
X27321000Y32340000D01*
X27318000Y32346000D01*
X27315000Y32351000D01*
X27313000Y32357000D01*
X27311000Y32363000D01*
X27309000Y32369000D01*
X27308000Y32375000D01*
X27306000Y32381000D01*
X27306000Y32387000D01*
X27305000Y32394000D01*
X27305000Y32400000D01*
X27305000Y32900000D01*
X27305000Y32906000D01*
X27306000Y32913000D01*
X27306000Y32919000D01*
X27308000Y32925000D01*
X27309000Y32931000D01*
X27311000Y32937000D01*
X27313000Y32943000D01*
X27315000Y32949000D01*
X27318000Y32954000D01*
X27321000Y32960000D01*
X27324000Y32965000D01*
X27328000Y32971000D01*
X27332000Y32976000D01*
X27336000Y32980000D01*
X27340000Y32985000D01*
X27345000Y32989000D01*
X27349000Y32993000D01*
X27354000Y32997000D01*
X27360000Y33001000D01*
X27365000Y33004000D01*
X27371000Y33007000D01*
X27376000Y33010000D01*
X27382000Y33012000D01*
X27388000Y33014000D01*
X27394000Y33016000D01*
X27400000Y33017000D01*
X27406000Y33019000D01*
X27412000Y33019000D01*
X27419000Y33020000D01*
X27425000Y33020000D01*
X27575000Y33020000D01*
X27581000Y33020000D01*
X27588000Y33019000D01*
G36*
X27588000Y33019000D02*
G01*
X27594000Y33019000D01*
X27600000Y33017000D01*
X27606000Y33016000D01*
X27612000Y33014000D01*
X27618000Y33012000D01*
X27624000Y33010000D01*
X27629000Y33007000D01*
X27635000Y33004000D01*
X27640000Y33001000D01*
X27646000Y32997000D01*
X27651000Y32993000D01*
X27655000Y32989000D01*
X27660000Y32985000D01*
X27664000Y32980000D01*
X27668000Y32976000D01*
X27672000Y32971000D01*
X27676000Y32965000D01*
X27679000Y32960000D01*
X27682000Y32954000D01*
X27685000Y32949000D01*
X27687000Y32943000D01*
X27689000Y32937000D01*
X27691000Y32931000D01*
X27692000Y32925000D01*
X27694000Y32919000D01*
X27694000Y32913000D01*
X27695000Y32906000D01*
X27695000Y32900000D01*
X27695000Y32400000D01*
X27695000Y32394000D01*
X27694000Y32387000D01*
X27694000Y32381000D01*
X27692000Y32375000D01*
X27691000Y32369000D01*
X27689000Y32363000D01*
X27687000Y32357000D01*
X27685000Y32351000D01*
X27682000Y32346000D01*
X27679000Y32340000D01*
X27676000Y32335000D01*
X27672000Y32329000D01*
X27668000Y32324000D01*
X27664000Y32320000D01*
X27660000Y32315000D01*
X27655000Y32311000D01*
X27651000Y32307000D01*
X27646000Y32303000D01*
X27640000Y32299000D01*
X27635000Y32296000D01*
X27629000Y32293000D01*
X27624000Y32290000D01*
X27618000Y32288000D01*
X27612000Y32286000D01*
X27606000Y32284000D01*
X27600000Y32283000D01*
X27594000Y32281000D01*
X27588000Y32281000D01*
X27581000Y32280000D01*
X27575000Y32280000D01*
X27425000Y32280000D01*
X27419000Y32280000D01*
X27412000Y32281000D01*
X27406000Y32281000D01*
X27400000Y32283000D01*
X27394000Y32284000D01*
X27388000Y32286000D01*
X27382000Y32288000D01*
X27376000Y32290000D01*
X27371000Y32293000D01*
X27365000Y32296000D01*
X27360000Y32299000D01*
X27354000Y32303000D01*
X27349000Y32307000D01*
X27345000Y32311000D01*
X27340000Y32315000D01*
X27336000Y32320000D01*
X27332000Y32324000D01*
X27328000Y32329000D01*
X27324000Y32335000D01*
X27321000Y32340000D01*
X27318000Y32346000D01*
X27315000Y32351000D01*
X27313000Y32357000D01*
X27311000Y32363000D01*
X27309000Y32369000D01*
X27308000Y32375000D01*
X27306000Y32381000D01*
X27306000Y32387000D01*
X27305000Y32394000D01*
X27305000Y32400000D01*
X27305000Y32900000D01*
X27305000Y32906000D01*
X27306000Y32913000D01*
X27306000Y32919000D01*
X27308000Y32925000D01*
X27309000Y32931000D01*
X27311000Y32937000D01*
X27313000Y32943000D01*
X27315000Y32949000D01*
X27318000Y32954000D01*
X27321000Y32960000D01*
X27324000Y32965000D01*
X27328000Y32971000D01*
X27332000Y32976000D01*
X27336000Y32980000D01*
X27340000Y32985000D01*
X27345000Y32989000D01*
X27349000Y32993000D01*
X27354000Y32997000D01*
X27360000Y33001000D01*
X27365000Y33004000D01*
X27371000Y33007000D01*
X27376000Y33010000D01*
X27382000Y33012000D01*
X27388000Y33014000D01*
X27394000Y33016000D01*
X27400000Y33017000D01*
X27406000Y33019000D01*
X27412000Y33019000D01*
X27419000Y33020000D01*
X27425000Y33020000D01*
X27575000Y33020000D01*
X27581000Y33020000D01*
X27588000Y33019000D01*
G37*
X27588000Y31519000D02*
X27594000Y31519000D01*
X27600000Y31517000D01*
X27606000Y31516000D01*
X27612000Y31514000D01*
X27618000Y31512000D01*
X27624000Y31510000D01*
X27629000Y31507000D01*
X27635000Y31504000D01*
X27640000Y31501000D01*
X27646000Y31497000D01*
X27651000Y31493000D01*
X27655000Y31489000D01*
X27660000Y31485000D01*
X27664000Y31480000D01*
X27668000Y31476000D01*
X27672000Y31471000D01*
X27676000Y31465000D01*
X27679000Y31460000D01*
X27682000Y31454000D01*
X27685000Y31449000D01*
X27687000Y31443000D01*
X27689000Y31437000D01*
X27691000Y31431000D01*
X27692000Y31425000D01*
X27694000Y31419000D01*
X27694000Y31413000D01*
X27695000Y31406000D01*
X27695000Y31400000D01*
X27695000Y30600000D01*
X27695000Y30594000D01*
X27694000Y30587000D01*
X27694000Y30581000D01*
X27692000Y30575000D01*
X27691000Y30569000D01*
X27689000Y30563000D01*
X27687000Y30557000D01*
X27685000Y30551000D01*
X27682000Y30546000D01*
X27679000Y30540000D01*
X27676000Y30535000D01*
X27672000Y30529000D01*
X27668000Y30524000D01*
X27664000Y30520000D01*
X27660000Y30515000D01*
X27655000Y30511000D01*
X27651000Y30507000D01*
X27646000Y30503000D01*
X27640000Y30499000D01*
X27635000Y30496000D01*
X27629000Y30493000D01*
X27624000Y30490000D01*
X27618000Y30488000D01*
X27612000Y30486000D01*
X27606000Y30484000D01*
X27600000Y30483000D01*
X27594000Y30481000D01*
X27588000Y30481000D01*
X27581000Y30480000D01*
X27575000Y30480000D01*
X27425000Y30480000D01*
X27419000Y30480000D01*
X27412000Y30481000D01*
X27406000Y30481000D01*
X27400000Y30483000D01*
X27394000Y30484000D01*
X27388000Y30486000D01*
X27382000Y30488000D01*
X27376000Y30490000D01*
X27371000Y30493000D01*
X27365000Y30496000D01*
X27360000Y30499000D01*
X27354000Y30503000D01*
X27349000Y30507000D01*
X27345000Y30511000D01*
X27340000Y30515000D01*
X27336000Y30520000D01*
X27332000Y30524000D01*
X27328000Y30529000D01*
X27324000Y30535000D01*
X27321000Y30540000D01*
X27318000Y30546000D01*
X27315000Y30551000D01*
X27313000Y30557000D01*
X27311000Y30563000D01*
X27309000Y30569000D01*
X27308000Y30575000D01*
X27306000Y30581000D01*
X27306000Y30587000D01*
X27305000Y30594000D01*
X27305000Y30600000D01*
X27305000Y31400000D01*
X27305000Y31406000D01*
X27306000Y31413000D01*
X27306000Y31419000D01*
X27308000Y31425000D01*
X27309000Y31431000D01*
X27311000Y31437000D01*
X27313000Y31443000D01*
X27315000Y31449000D01*
X27318000Y31454000D01*
X27321000Y31460000D01*
X27324000Y31465000D01*
X27328000Y31471000D01*
X27332000Y31476000D01*
X27336000Y31480000D01*
X27340000Y31485000D01*
X27345000Y31489000D01*
X27349000Y31493000D01*
X27354000Y31497000D01*
X27360000Y31501000D01*
X27365000Y31504000D01*
X27371000Y31507000D01*
X27376000Y31510000D01*
X27382000Y31512000D01*
X27388000Y31514000D01*
X27394000Y31516000D01*
X27400000Y31517000D01*
X27406000Y31519000D01*
X27412000Y31519000D01*
X27419000Y31520000D01*
X27425000Y31520000D01*
X27575000Y31520000D01*
X27581000Y31520000D01*
X27588000Y31519000D01*
G36*
X27588000Y31519000D02*
G01*
X27594000Y31519000D01*
X27600000Y31517000D01*
X27606000Y31516000D01*
X27612000Y31514000D01*
X27618000Y31512000D01*
X27624000Y31510000D01*
X27629000Y31507000D01*
X27635000Y31504000D01*
X27640000Y31501000D01*
X27646000Y31497000D01*
X27651000Y31493000D01*
X27655000Y31489000D01*
X27660000Y31485000D01*
X27664000Y31480000D01*
X27668000Y31476000D01*
X27672000Y31471000D01*
X27676000Y31465000D01*
X27679000Y31460000D01*
X27682000Y31454000D01*
X27685000Y31449000D01*
X27687000Y31443000D01*
X27689000Y31437000D01*
X27691000Y31431000D01*
X27692000Y31425000D01*
X27694000Y31419000D01*
X27694000Y31413000D01*
X27695000Y31406000D01*
X27695000Y31400000D01*
X27695000Y30600000D01*
X27695000Y30594000D01*
X27694000Y30587000D01*
X27694000Y30581000D01*
X27692000Y30575000D01*
X27691000Y30569000D01*
X27689000Y30563000D01*
X27687000Y30557000D01*
X27685000Y30551000D01*
X27682000Y30546000D01*
X27679000Y30540000D01*
X27676000Y30535000D01*
X27672000Y30529000D01*
X27668000Y30524000D01*
X27664000Y30520000D01*
X27660000Y30515000D01*
X27655000Y30511000D01*
X27651000Y30507000D01*
X27646000Y30503000D01*
X27640000Y30499000D01*
X27635000Y30496000D01*
X27629000Y30493000D01*
X27624000Y30490000D01*
X27618000Y30488000D01*
X27612000Y30486000D01*
X27606000Y30484000D01*
X27600000Y30483000D01*
X27594000Y30481000D01*
X27588000Y30481000D01*
X27581000Y30480000D01*
X27575000Y30480000D01*
X27425000Y30480000D01*
X27419000Y30480000D01*
X27412000Y30481000D01*
X27406000Y30481000D01*
X27400000Y30483000D01*
X27394000Y30484000D01*
X27388000Y30486000D01*
X27382000Y30488000D01*
X27376000Y30490000D01*
X27371000Y30493000D01*
X27365000Y30496000D01*
X27360000Y30499000D01*
X27354000Y30503000D01*
X27349000Y30507000D01*
X27345000Y30511000D01*
X27340000Y30515000D01*
X27336000Y30520000D01*
X27332000Y30524000D01*
X27328000Y30529000D01*
X27324000Y30535000D01*
X27321000Y30540000D01*
X27318000Y30546000D01*
X27315000Y30551000D01*
X27313000Y30557000D01*
X27311000Y30563000D01*
X27309000Y30569000D01*
X27308000Y30575000D01*
X27306000Y30581000D01*
X27306000Y30587000D01*
X27305000Y30594000D01*
X27305000Y30600000D01*
X27305000Y31400000D01*
X27305000Y31406000D01*
X27306000Y31413000D01*
X27306000Y31419000D01*
X27308000Y31425000D01*
X27309000Y31431000D01*
X27311000Y31437000D01*
X27313000Y31443000D01*
X27315000Y31449000D01*
X27318000Y31454000D01*
X27321000Y31460000D01*
X27324000Y31465000D01*
X27328000Y31471000D01*
X27332000Y31476000D01*
X27336000Y31480000D01*
X27340000Y31485000D01*
X27345000Y31489000D01*
X27349000Y31493000D01*
X27354000Y31497000D01*
X27360000Y31501000D01*
X27365000Y31504000D01*
X27371000Y31507000D01*
X27376000Y31510000D01*
X27382000Y31512000D01*
X27388000Y31514000D01*
X27394000Y31516000D01*
X27400000Y31517000D01*
X27406000Y31519000D01*
X27412000Y31519000D01*
X27419000Y31520000D01*
X27425000Y31520000D01*
X27575000Y31520000D01*
X27581000Y31520000D01*
X27588000Y31519000D01*
G37*
X28088000Y33019000D02*
X28094000Y33019000D01*
X28100000Y33017000D01*
X28106000Y33016000D01*
X28112000Y33014000D01*
X28118000Y33012000D01*
X28124000Y33010000D01*
X28129000Y33007000D01*
X28135000Y33004000D01*
X28140000Y33001000D01*
X28146000Y32997000D01*
X28151000Y32993000D01*
X28155000Y32989000D01*
X28160000Y32985000D01*
X28164000Y32980000D01*
X28168000Y32976000D01*
X28172000Y32971000D01*
X28176000Y32965000D01*
X28179000Y32960000D01*
X28182000Y32954000D01*
X28185000Y32949000D01*
X28187000Y32943000D01*
X28189000Y32937000D01*
X28191000Y32931000D01*
X28192000Y32925000D01*
X28194000Y32919000D01*
X28194000Y32913000D01*
X28195000Y32906000D01*
X28195000Y32900000D01*
X28195000Y32400000D01*
X28195000Y32394000D01*
X28194000Y32387000D01*
X28194000Y32381000D01*
X28192000Y32375000D01*
X28191000Y32369000D01*
X28189000Y32363000D01*
X28187000Y32357000D01*
X28185000Y32351000D01*
X28182000Y32346000D01*
X28179000Y32340000D01*
X28176000Y32335000D01*
X28172000Y32329000D01*
X28168000Y32324000D01*
X28164000Y32320000D01*
X28160000Y32315000D01*
X28155000Y32311000D01*
X28151000Y32307000D01*
X28146000Y32303000D01*
X28140000Y32299000D01*
X28135000Y32296000D01*
X28129000Y32293000D01*
X28124000Y32290000D01*
X28118000Y32288000D01*
X28112000Y32286000D01*
X28106000Y32284000D01*
X28100000Y32283000D01*
X28094000Y32281000D01*
X28088000Y32281000D01*
X28081000Y32280000D01*
X28075000Y32280000D01*
X27925000Y32280000D01*
X27919000Y32280000D01*
X27912000Y32281000D01*
X27906000Y32281000D01*
X27900000Y32283000D01*
X27894000Y32284000D01*
X27888000Y32286000D01*
X27882000Y32288000D01*
X27876000Y32290000D01*
X27871000Y32293000D01*
X27865000Y32296000D01*
X27860000Y32299000D01*
X27854000Y32303000D01*
X27849000Y32307000D01*
X27845000Y32311000D01*
X27840000Y32315000D01*
X27836000Y32320000D01*
X27832000Y32324000D01*
X27828000Y32329000D01*
X27824000Y32335000D01*
X27821000Y32340000D01*
X27818000Y32346000D01*
X27815000Y32351000D01*
X27813000Y32357000D01*
X27811000Y32363000D01*
X27809000Y32369000D01*
X27808000Y32375000D01*
X27806000Y32381000D01*
X27806000Y32387000D01*
X27805000Y32394000D01*
X27805000Y32400000D01*
X27805000Y32900000D01*
X27805000Y32906000D01*
X27806000Y32913000D01*
X27806000Y32919000D01*
X27808000Y32925000D01*
X27809000Y32931000D01*
X27811000Y32937000D01*
X27813000Y32943000D01*
X27815000Y32949000D01*
X27818000Y32954000D01*
X27821000Y32960000D01*
X27824000Y32965000D01*
X27828000Y32971000D01*
X27832000Y32976000D01*
X27836000Y32980000D01*
X27840000Y32985000D01*
X27845000Y32989000D01*
X27849000Y32993000D01*
X27854000Y32997000D01*
X27860000Y33001000D01*
X27865000Y33004000D01*
X27871000Y33007000D01*
X27876000Y33010000D01*
X27882000Y33012000D01*
X27888000Y33014000D01*
X27894000Y33016000D01*
X27900000Y33017000D01*
X27906000Y33019000D01*
X27912000Y33019000D01*
X27919000Y33020000D01*
X27925000Y33020000D01*
X28075000Y33020000D01*
X28081000Y33020000D01*
X28088000Y33019000D01*
G36*
X28088000Y33019000D02*
G01*
X28094000Y33019000D01*
X28100000Y33017000D01*
X28106000Y33016000D01*
X28112000Y33014000D01*
X28118000Y33012000D01*
X28124000Y33010000D01*
X28129000Y33007000D01*
X28135000Y33004000D01*
X28140000Y33001000D01*
X28146000Y32997000D01*
X28151000Y32993000D01*
X28155000Y32989000D01*
X28160000Y32985000D01*
X28164000Y32980000D01*
X28168000Y32976000D01*
X28172000Y32971000D01*
X28176000Y32965000D01*
X28179000Y32960000D01*
X28182000Y32954000D01*
X28185000Y32949000D01*
X28187000Y32943000D01*
X28189000Y32937000D01*
X28191000Y32931000D01*
X28192000Y32925000D01*
X28194000Y32919000D01*
X28194000Y32913000D01*
X28195000Y32906000D01*
X28195000Y32900000D01*
X28195000Y32400000D01*
X28195000Y32394000D01*
X28194000Y32387000D01*
X28194000Y32381000D01*
X28192000Y32375000D01*
X28191000Y32369000D01*
X28189000Y32363000D01*
X28187000Y32357000D01*
X28185000Y32351000D01*
X28182000Y32346000D01*
X28179000Y32340000D01*
X28176000Y32335000D01*
X28172000Y32329000D01*
X28168000Y32324000D01*
X28164000Y32320000D01*
X28160000Y32315000D01*
X28155000Y32311000D01*
X28151000Y32307000D01*
X28146000Y32303000D01*
X28140000Y32299000D01*
X28135000Y32296000D01*
X28129000Y32293000D01*
X28124000Y32290000D01*
X28118000Y32288000D01*
X28112000Y32286000D01*
X28106000Y32284000D01*
X28100000Y32283000D01*
X28094000Y32281000D01*
X28088000Y32281000D01*
X28081000Y32280000D01*
X28075000Y32280000D01*
X27925000Y32280000D01*
X27919000Y32280000D01*
X27912000Y32281000D01*
X27906000Y32281000D01*
X27900000Y32283000D01*
X27894000Y32284000D01*
X27888000Y32286000D01*
X27882000Y32288000D01*
X27876000Y32290000D01*
X27871000Y32293000D01*
X27865000Y32296000D01*
X27860000Y32299000D01*
X27854000Y32303000D01*
X27849000Y32307000D01*
X27845000Y32311000D01*
X27840000Y32315000D01*
X27836000Y32320000D01*
X27832000Y32324000D01*
X27828000Y32329000D01*
X27824000Y32335000D01*
X27821000Y32340000D01*
X27818000Y32346000D01*
X27815000Y32351000D01*
X27813000Y32357000D01*
X27811000Y32363000D01*
X27809000Y32369000D01*
X27808000Y32375000D01*
X27806000Y32381000D01*
X27806000Y32387000D01*
X27805000Y32394000D01*
X27805000Y32400000D01*
X27805000Y32900000D01*
X27805000Y32906000D01*
X27806000Y32913000D01*
X27806000Y32919000D01*
X27808000Y32925000D01*
X27809000Y32931000D01*
X27811000Y32937000D01*
X27813000Y32943000D01*
X27815000Y32949000D01*
X27818000Y32954000D01*
X27821000Y32960000D01*
X27824000Y32965000D01*
X27828000Y32971000D01*
X27832000Y32976000D01*
X27836000Y32980000D01*
X27840000Y32985000D01*
X27845000Y32989000D01*
X27849000Y32993000D01*
X27854000Y32997000D01*
X27860000Y33001000D01*
X27865000Y33004000D01*
X27871000Y33007000D01*
X27876000Y33010000D01*
X27882000Y33012000D01*
X27888000Y33014000D01*
X27894000Y33016000D01*
X27900000Y33017000D01*
X27906000Y33019000D01*
X27912000Y33019000D01*
X27919000Y33020000D01*
X27925000Y33020000D01*
X28075000Y33020000D01*
X28081000Y33020000D01*
X28088000Y33019000D01*
G37*
X28088000Y31919000D02*
X28094000Y31919000D01*
X28100000Y31917000D01*
X28106000Y31916000D01*
X28112000Y31914000D01*
X28118000Y31912000D01*
X28124000Y31910000D01*
X28129000Y31907000D01*
X28135000Y31904000D01*
X28140000Y31901000D01*
X28146000Y31897000D01*
X28151000Y31893000D01*
X28155000Y31889000D01*
X28160000Y31885000D01*
X28164000Y31880000D01*
X28168000Y31876000D01*
X28172000Y31871000D01*
X28176000Y31865000D01*
X28179000Y31860000D01*
X28182000Y31854000D01*
X28185000Y31849000D01*
X28187000Y31843000D01*
X28189000Y31837000D01*
X28191000Y31831000D01*
X28192000Y31825000D01*
X28194000Y31819000D01*
X28194000Y31813000D01*
X28195000Y31806000D01*
X28195000Y31800000D01*
X28195000Y30600000D01*
X28195000Y30594000D01*
X28194000Y30587000D01*
X28194000Y30581000D01*
X28192000Y30575000D01*
X28191000Y30569000D01*
X28189000Y30563000D01*
X28187000Y30557000D01*
X28185000Y30551000D01*
X28182000Y30546000D01*
X28179000Y30540000D01*
X28176000Y30535000D01*
X28172000Y30529000D01*
X28168000Y30524000D01*
X28164000Y30520000D01*
X28160000Y30515000D01*
X28155000Y30511000D01*
X28151000Y30507000D01*
X28146000Y30503000D01*
X28140000Y30499000D01*
X28135000Y30496000D01*
X28129000Y30493000D01*
X28124000Y30490000D01*
X28118000Y30488000D01*
X28112000Y30486000D01*
X28106000Y30484000D01*
X28100000Y30483000D01*
X28094000Y30481000D01*
X28088000Y30481000D01*
X28081000Y30480000D01*
X28075000Y30480000D01*
X27925000Y30480000D01*
X27919000Y30480000D01*
X27912000Y30481000D01*
X27906000Y30481000D01*
X27900000Y30483000D01*
X27894000Y30484000D01*
X27888000Y30486000D01*
X27882000Y30488000D01*
X27876000Y30490000D01*
X27871000Y30493000D01*
X27865000Y30496000D01*
X27860000Y30499000D01*
X27854000Y30503000D01*
X27849000Y30507000D01*
X27845000Y30511000D01*
X27840000Y30515000D01*
X27836000Y30520000D01*
X27832000Y30524000D01*
X27828000Y30529000D01*
X27824000Y30535000D01*
X27821000Y30540000D01*
X27818000Y30546000D01*
X27815000Y30551000D01*
X27813000Y30557000D01*
X27811000Y30563000D01*
X27809000Y30569000D01*
X27808000Y30575000D01*
X27806000Y30581000D01*
X27806000Y30587000D01*
X27805000Y30594000D01*
X27805000Y30600000D01*
X27805000Y31800000D01*
X27805000Y31806000D01*
X27806000Y31813000D01*
X27806000Y31819000D01*
X27808000Y31825000D01*
X27809000Y31831000D01*
X27811000Y31837000D01*
X27813000Y31843000D01*
X27815000Y31849000D01*
X27818000Y31854000D01*
X27821000Y31860000D01*
X27824000Y31865000D01*
X27828000Y31871000D01*
X27832000Y31876000D01*
X27836000Y31880000D01*
X27840000Y31885000D01*
X27845000Y31889000D01*
X27849000Y31893000D01*
X27854000Y31897000D01*
X27860000Y31901000D01*
X27865000Y31904000D01*
X27871000Y31907000D01*
X27876000Y31910000D01*
X27882000Y31912000D01*
X27888000Y31914000D01*
X27894000Y31916000D01*
X27900000Y31917000D01*
X27906000Y31919000D01*
X27912000Y31919000D01*
X27919000Y31920000D01*
X27925000Y31920000D01*
X28075000Y31920000D01*
X28081000Y31920000D01*
X28088000Y31919000D01*
G36*
X28088000Y31919000D02*
G01*
X28094000Y31919000D01*
X28100000Y31917000D01*
X28106000Y31916000D01*
X28112000Y31914000D01*
X28118000Y31912000D01*
X28124000Y31910000D01*
X28129000Y31907000D01*
X28135000Y31904000D01*
X28140000Y31901000D01*
X28146000Y31897000D01*
X28151000Y31893000D01*
X28155000Y31889000D01*
X28160000Y31885000D01*
X28164000Y31880000D01*
X28168000Y31876000D01*
X28172000Y31871000D01*
X28176000Y31865000D01*
X28179000Y31860000D01*
X28182000Y31854000D01*
X28185000Y31849000D01*
X28187000Y31843000D01*
X28189000Y31837000D01*
X28191000Y31831000D01*
X28192000Y31825000D01*
X28194000Y31819000D01*
X28194000Y31813000D01*
X28195000Y31806000D01*
X28195000Y31800000D01*
X28195000Y30600000D01*
X28195000Y30594000D01*
X28194000Y30587000D01*
X28194000Y30581000D01*
X28192000Y30575000D01*
X28191000Y30569000D01*
X28189000Y30563000D01*
X28187000Y30557000D01*
X28185000Y30551000D01*
X28182000Y30546000D01*
X28179000Y30540000D01*
X28176000Y30535000D01*
X28172000Y30529000D01*
X28168000Y30524000D01*
X28164000Y30520000D01*
X28160000Y30515000D01*
X28155000Y30511000D01*
X28151000Y30507000D01*
X28146000Y30503000D01*
X28140000Y30499000D01*
X28135000Y30496000D01*
X28129000Y30493000D01*
X28124000Y30490000D01*
X28118000Y30488000D01*
X28112000Y30486000D01*
X28106000Y30484000D01*
X28100000Y30483000D01*
X28094000Y30481000D01*
X28088000Y30481000D01*
X28081000Y30480000D01*
X28075000Y30480000D01*
X27925000Y30480000D01*
X27919000Y30480000D01*
X27912000Y30481000D01*
X27906000Y30481000D01*
X27900000Y30483000D01*
X27894000Y30484000D01*
X27888000Y30486000D01*
X27882000Y30488000D01*
X27876000Y30490000D01*
X27871000Y30493000D01*
X27865000Y30496000D01*
X27860000Y30499000D01*
X27854000Y30503000D01*
X27849000Y30507000D01*
X27845000Y30511000D01*
X27840000Y30515000D01*
X27836000Y30520000D01*
X27832000Y30524000D01*
X27828000Y30529000D01*
X27824000Y30535000D01*
X27821000Y30540000D01*
X27818000Y30546000D01*
X27815000Y30551000D01*
X27813000Y30557000D01*
X27811000Y30563000D01*
X27809000Y30569000D01*
X27808000Y30575000D01*
X27806000Y30581000D01*
X27806000Y30587000D01*
X27805000Y30594000D01*
X27805000Y30600000D01*
X27805000Y31800000D01*
X27805000Y31806000D01*
X27806000Y31813000D01*
X27806000Y31819000D01*
X27808000Y31825000D01*
X27809000Y31831000D01*
X27811000Y31837000D01*
X27813000Y31843000D01*
X27815000Y31849000D01*
X27818000Y31854000D01*
X27821000Y31860000D01*
X27824000Y31865000D01*
X27828000Y31871000D01*
X27832000Y31876000D01*
X27836000Y31880000D01*
X27840000Y31885000D01*
X27845000Y31889000D01*
X27849000Y31893000D01*
X27854000Y31897000D01*
X27860000Y31901000D01*
X27865000Y31904000D01*
X27871000Y31907000D01*
X27876000Y31910000D01*
X27882000Y31912000D01*
X27888000Y31914000D01*
X27894000Y31916000D01*
X27900000Y31917000D01*
X27906000Y31919000D01*
X27912000Y31919000D01*
X27919000Y31920000D01*
X27925000Y31920000D01*
X28075000Y31920000D01*
X28081000Y31920000D01*
X28088000Y31919000D01*
G37*
X28588000Y33019000D02*
X28594000Y33019000D01*
X28600000Y33017000D01*
X28606000Y33016000D01*
X28612000Y33014000D01*
X28618000Y33012000D01*
X28624000Y33010000D01*
X28629000Y33007000D01*
X28635000Y33004000D01*
X28640000Y33001000D01*
X28646000Y32997000D01*
X28651000Y32993000D01*
X28655000Y32989000D01*
X28660000Y32985000D01*
X28664000Y32980000D01*
X28668000Y32976000D01*
X28672000Y32971000D01*
X28676000Y32965000D01*
X28679000Y32960000D01*
X28682000Y32954000D01*
X28685000Y32949000D01*
X28687000Y32943000D01*
X28689000Y32937000D01*
X28691000Y32931000D01*
X28692000Y32925000D01*
X28694000Y32919000D01*
X28694000Y32913000D01*
X28695000Y32906000D01*
X28695000Y32900000D01*
X28695000Y32400000D01*
X28695000Y32394000D01*
X28694000Y32387000D01*
X28694000Y32381000D01*
X28692000Y32375000D01*
X28691000Y32369000D01*
X28689000Y32363000D01*
X28687000Y32357000D01*
X28685000Y32351000D01*
X28682000Y32346000D01*
X28679000Y32340000D01*
X28676000Y32335000D01*
X28672000Y32329000D01*
X28668000Y32324000D01*
X28664000Y32320000D01*
X28660000Y32315000D01*
X28655000Y32311000D01*
X28651000Y32307000D01*
X28646000Y32303000D01*
X28640000Y32299000D01*
X28635000Y32296000D01*
X28629000Y32293000D01*
X28624000Y32290000D01*
X28618000Y32288000D01*
X28612000Y32286000D01*
X28606000Y32284000D01*
X28600000Y32283000D01*
X28594000Y32281000D01*
X28588000Y32281000D01*
X28581000Y32280000D01*
X28575000Y32280000D01*
X28425000Y32280000D01*
X28419000Y32280000D01*
X28412000Y32281000D01*
X28406000Y32281000D01*
X28400000Y32283000D01*
X28394000Y32284000D01*
X28388000Y32286000D01*
X28382000Y32288000D01*
X28376000Y32290000D01*
X28371000Y32293000D01*
X28365000Y32296000D01*
X28360000Y32299000D01*
X28354000Y32303000D01*
X28349000Y32307000D01*
X28345000Y32311000D01*
X28340000Y32315000D01*
X28336000Y32320000D01*
X28332000Y32324000D01*
X28328000Y32329000D01*
X28324000Y32335000D01*
X28321000Y32340000D01*
X28318000Y32346000D01*
X28315000Y32351000D01*
X28313000Y32357000D01*
X28311000Y32363000D01*
X28309000Y32369000D01*
X28308000Y32375000D01*
X28306000Y32381000D01*
X28306000Y32387000D01*
X28305000Y32394000D01*
X28305000Y32400000D01*
X28305000Y32900000D01*
X28305000Y32906000D01*
X28306000Y32913000D01*
X28306000Y32919000D01*
X28308000Y32925000D01*
X28309000Y32931000D01*
X28311000Y32937000D01*
X28313000Y32943000D01*
X28315000Y32949000D01*
X28318000Y32954000D01*
X28321000Y32960000D01*
X28324000Y32965000D01*
X28328000Y32971000D01*
X28332000Y32976000D01*
X28336000Y32980000D01*
X28340000Y32985000D01*
X28345000Y32989000D01*
X28349000Y32993000D01*
X28354000Y32997000D01*
X28360000Y33001000D01*
X28365000Y33004000D01*
X28371000Y33007000D01*
X28376000Y33010000D01*
X28382000Y33012000D01*
X28388000Y33014000D01*
X28394000Y33016000D01*
X28400000Y33017000D01*
X28406000Y33019000D01*
X28412000Y33019000D01*
X28419000Y33020000D01*
X28425000Y33020000D01*
X28575000Y33020000D01*
X28581000Y33020000D01*
X28588000Y33019000D01*
G36*
X28588000Y33019000D02*
G01*
X28594000Y33019000D01*
X28600000Y33017000D01*
X28606000Y33016000D01*
X28612000Y33014000D01*
X28618000Y33012000D01*
X28624000Y33010000D01*
X28629000Y33007000D01*
X28635000Y33004000D01*
X28640000Y33001000D01*
X28646000Y32997000D01*
X28651000Y32993000D01*
X28655000Y32989000D01*
X28660000Y32985000D01*
X28664000Y32980000D01*
X28668000Y32976000D01*
X28672000Y32971000D01*
X28676000Y32965000D01*
X28679000Y32960000D01*
X28682000Y32954000D01*
X28685000Y32949000D01*
X28687000Y32943000D01*
X28689000Y32937000D01*
X28691000Y32931000D01*
X28692000Y32925000D01*
X28694000Y32919000D01*
X28694000Y32913000D01*
X28695000Y32906000D01*
X28695000Y32900000D01*
X28695000Y32400000D01*
X28695000Y32394000D01*
X28694000Y32387000D01*
X28694000Y32381000D01*
X28692000Y32375000D01*
X28691000Y32369000D01*
X28689000Y32363000D01*
X28687000Y32357000D01*
X28685000Y32351000D01*
X28682000Y32346000D01*
X28679000Y32340000D01*
X28676000Y32335000D01*
X28672000Y32329000D01*
X28668000Y32324000D01*
X28664000Y32320000D01*
X28660000Y32315000D01*
X28655000Y32311000D01*
X28651000Y32307000D01*
X28646000Y32303000D01*
X28640000Y32299000D01*
X28635000Y32296000D01*
X28629000Y32293000D01*
X28624000Y32290000D01*
X28618000Y32288000D01*
X28612000Y32286000D01*
X28606000Y32284000D01*
X28600000Y32283000D01*
X28594000Y32281000D01*
X28588000Y32281000D01*
X28581000Y32280000D01*
X28575000Y32280000D01*
X28425000Y32280000D01*
X28419000Y32280000D01*
X28412000Y32281000D01*
X28406000Y32281000D01*
X28400000Y32283000D01*
X28394000Y32284000D01*
X28388000Y32286000D01*
X28382000Y32288000D01*
X28376000Y32290000D01*
X28371000Y32293000D01*
X28365000Y32296000D01*
X28360000Y32299000D01*
X28354000Y32303000D01*
X28349000Y32307000D01*
X28345000Y32311000D01*
X28340000Y32315000D01*
X28336000Y32320000D01*
X28332000Y32324000D01*
X28328000Y32329000D01*
X28324000Y32335000D01*
X28321000Y32340000D01*
X28318000Y32346000D01*
X28315000Y32351000D01*
X28313000Y32357000D01*
X28311000Y32363000D01*
X28309000Y32369000D01*
X28308000Y32375000D01*
X28306000Y32381000D01*
X28306000Y32387000D01*
X28305000Y32394000D01*
X28305000Y32400000D01*
X28305000Y32900000D01*
X28305000Y32906000D01*
X28306000Y32913000D01*
X28306000Y32919000D01*
X28308000Y32925000D01*
X28309000Y32931000D01*
X28311000Y32937000D01*
X28313000Y32943000D01*
X28315000Y32949000D01*
X28318000Y32954000D01*
X28321000Y32960000D01*
X28324000Y32965000D01*
X28328000Y32971000D01*
X28332000Y32976000D01*
X28336000Y32980000D01*
X28340000Y32985000D01*
X28345000Y32989000D01*
X28349000Y32993000D01*
X28354000Y32997000D01*
X28360000Y33001000D01*
X28365000Y33004000D01*
X28371000Y33007000D01*
X28376000Y33010000D01*
X28382000Y33012000D01*
X28388000Y33014000D01*
X28394000Y33016000D01*
X28400000Y33017000D01*
X28406000Y33019000D01*
X28412000Y33019000D01*
X28419000Y33020000D01*
X28425000Y33020000D01*
X28575000Y33020000D01*
X28581000Y33020000D01*
X28588000Y33019000D01*
G37*
X28588000Y31519000D02*
X28594000Y31519000D01*
X28600000Y31517000D01*
X28606000Y31516000D01*
X28612000Y31514000D01*
X28618000Y31512000D01*
X28624000Y31510000D01*
X28629000Y31507000D01*
X28635000Y31504000D01*
X28640000Y31501000D01*
X28646000Y31497000D01*
X28651000Y31493000D01*
X28655000Y31489000D01*
X28660000Y31485000D01*
X28664000Y31480000D01*
X28668000Y31476000D01*
X28672000Y31471000D01*
X28676000Y31465000D01*
X28679000Y31460000D01*
X28682000Y31454000D01*
X28685000Y31449000D01*
X28687000Y31443000D01*
X28689000Y31437000D01*
X28691000Y31431000D01*
X28692000Y31425000D01*
X28694000Y31419000D01*
X28694000Y31413000D01*
X28695000Y31406000D01*
X28695000Y31400000D01*
X28695000Y30600000D01*
X28695000Y30594000D01*
X28694000Y30587000D01*
X28694000Y30581000D01*
X28692000Y30575000D01*
X28691000Y30569000D01*
X28689000Y30563000D01*
X28687000Y30557000D01*
X28685000Y30551000D01*
X28682000Y30546000D01*
X28679000Y30540000D01*
X28676000Y30535000D01*
X28672000Y30529000D01*
X28668000Y30524000D01*
X28664000Y30520000D01*
X28660000Y30515000D01*
X28655000Y30511000D01*
X28651000Y30507000D01*
X28646000Y30503000D01*
X28640000Y30499000D01*
X28635000Y30496000D01*
X28629000Y30493000D01*
X28624000Y30490000D01*
X28618000Y30488000D01*
X28612000Y30486000D01*
X28606000Y30484000D01*
X28600000Y30483000D01*
X28594000Y30481000D01*
X28588000Y30481000D01*
X28581000Y30480000D01*
X28575000Y30480000D01*
X28425000Y30480000D01*
X28419000Y30480000D01*
X28412000Y30481000D01*
X28406000Y30481000D01*
X28400000Y30483000D01*
X28394000Y30484000D01*
X28388000Y30486000D01*
X28382000Y30488000D01*
X28376000Y30490000D01*
X28371000Y30493000D01*
X28365000Y30496000D01*
X28360000Y30499000D01*
X28354000Y30503000D01*
X28349000Y30507000D01*
X28345000Y30511000D01*
X28340000Y30515000D01*
X28336000Y30520000D01*
X28332000Y30524000D01*
X28328000Y30529000D01*
X28324000Y30535000D01*
X28321000Y30540000D01*
X28318000Y30546000D01*
X28315000Y30551000D01*
X28313000Y30557000D01*
X28311000Y30563000D01*
X28309000Y30569000D01*
X28308000Y30575000D01*
X28306000Y30581000D01*
X28306000Y30587000D01*
X28305000Y30594000D01*
X28305000Y30600000D01*
X28305000Y31400000D01*
X28305000Y31406000D01*
X28306000Y31413000D01*
X28306000Y31419000D01*
X28308000Y31425000D01*
X28309000Y31431000D01*
X28311000Y31437000D01*
X28313000Y31443000D01*
X28315000Y31449000D01*
X28318000Y31454000D01*
X28321000Y31460000D01*
X28324000Y31465000D01*
X28328000Y31471000D01*
X28332000Y31476000D01*
X28336000Y31480000D01*
X28340000Y31485000D01*
X28345000Y31489000D01*
X28349000Y31493000D01*
X28354000Y31497000D01*
X28360000Y31501000D01*
X28365000Y31504000D01*
X28371000Y31507000D01*
X28376000Y31510000D01*
X28382000Y31512000D01*
X28388000Y31514000D01*
X28394000Y31516000D01*
X28400000Y31517000D01*
X28406000Y31519000D01*
X28412000Y31519000D01*
X28419000Y31520000D01*
X28425000Y31520000D01*
X28575000Y31520000D01*
X28581000Y31520000D01*
X28588000Y31519000D01*
G36*
X28588000Y31519000D02*
G01*
X28594000Y31519000D01*
X28600000Y31517000D01*
X28606000Y31516000D01*
X28612000Y31514000D01*
X28618000Y31512000D01*
X28624000Y31510000D01*
X28629000Y31507000D01*
X28635000Y31504000D01*
X28640000Y31501000D01*
X28646000Y31497000D01*
X28651000Y31493000D01*
X28655000Y31489000D01*
X28660000Y31485000D01*
X28664000Y31480000D01*
X28668000Y31476000D01*
X28672000Y31471000D01*
X28676000Y31465000D01*
X28679000Y31460000D01*
X28682000Y31454000D01*
X28685000Y31449000D01*
X28687000Y31443000D01*
X28689000Y31437000D01*
X28691000Y31431000D01*
X28692000Y31425000D01*
X28694000Y31419000D01*
X28694000Y31413000D01*
X28695000Y31406000D01*
X28695000Y31400000D01*
X28695000Y30600000D01*
X28695000Y30594000D01*
X28694000Y30587000D01*
X28694000Y30581000D01*
X28692000Y30575000D01*
X28691000Y30569000D01*
X28689000Y30563000D01*
X28687000Y30557000D01*
X28685000Y30551000D01*
X28682000Y30546000D01*
X28679000Y30540000D01*
X28676000Y30535000D01*
X28672000Y30529000D01*
X28668000Y30524000D01*
X28664000Y30520000D01*
X28660000Y30515000D01*
X28655000Y30511000D01*
X28651000Y30507000D01*
X28646000Y30503000D01*
X28640000Y30499000D01*
X28635000Y30496000D01*
X28629000Y30493000D01*
X28624000Y30490000D01*
X28618000Y30488000D01*
X28612000Y30486000D01*
X28606000Y30484000D01*
X28600000Y30483000D01*
X28594000Y30481000D01*
X28588000Y30481000D01*
X28581000Y30480000D01*
X28575000Y30480000D01*
X28425000Y30480000D01*
X28419000Y30480000D01*
X28412000Y30481000D01*
X28406000Y30481000D01*
X28400000Y30483000D01*
X28394000Y30484000D01*
X28388000Y30486000D01*
X28382000Y30488000D01*
X28376000Y30490000D01*
X28371000Y30493000D01*
X28365000Y30496000D01*
X28360000Y30499000D01*
X28354000Y30503000D01*
X28349000Y30507000D01*
X28345000Y30511000D01*
X28340000Y30515000D01*
X28336000Y30520000D01*
X28332000Y30524000D01*
X28328000Y30529000D01*
X28324000Y30535000D01*
X28321000Y30540000D01*
X28318000Y30546000D01*
X28315000Y30551000D01*
X28313000Y30557000D01*
X28311000Y30563000D01*
X28309000Y30569000D01*
X28308000Y30575000D01*
X28306000Y30581000D01*
X28306000Y30587000D01*
X28305000Y30594000D01*
X28305000Y30600000D01*
X28305000Y31400000D01*
X28305000Y31406000D01*
X28306000Y31413000D01*
X28306000Y31419000D01*
X28308000Y31425000D01*
X28309000Y31431000D01*
X28311000Y31437000D01*
X28313000Y31443000D01*
X28315000Y31449000D01*
X28318000Y31454000D01*
X28321000Y31460000D01*
X28324000Y31465000D01*
X28328000Y31471000D01*
X28332000Y31476000D01*
X28336000Y31480000D01*
X28340000Y31485000D01*
X28345000Y31489000D01*
X28349000Y31493000D01*
X28354000Y31497000D01*
X28360000Y31501000D01*
X28365000Y31504000D01*
X28371000Y31507000D01*
X28376000Y31510000D01*
X28382000Y31512000D01*
X28388000Y31514000D01*
X28394000Y31516000D01*
X28400000Y31517000D01*
X28406000Y31519000D01*
X28412000Y31519000D01*
X28419000Y31520000D01*
X28425000Y31520000D01*
X28575000Y31520000D01*
X28581000Y31520000D01*
X28588000Y31519000D01*
G37*
X29088000Y33019000D02*
X29094000Y33019000D01*
X29100000Y33017000D01*
X29106000Y33016000D01*
X29112000Y33014000D01*
X29118000Y33012000D01*
X29124000Y33010000D01*
X29129000Y33007000D01*
X29135000Y33004000D01*
X29140000Y33001000D01*
X29146000Y32997000D01*
X29151000Y32993000D01*
X29155000Y32989000D01*
X29160000Y32985000D01*
X29164000Y32980000D01*
X29168000Y32976000D01*
X29172000Y32971000D01*
X29176000Y32965000D01*
X29179000Y32960000D01*
X29182000Y32954000D01*
X29185000Y32949000D01*
X29187000Y32943000D01*
X29189000Y32937000D01*
X29191000Y32931000D01*
X29192000Y32925000D01*
X29194000Y32919000D01*
X29194000Y32913000D01*
X29195000Y32906000D01*
X29195000Y32900000D01*
X29195000Y32400000D01*
X29195000Y32394000D01*
X29194000Y32387000D01*
X29194000Y32381000D01*
X29192000Y32375000D01*
X29191000Y32369000D01*
X29189000Y32363000D01*
X29187000Y32357000D01*
X29185000Y32351000D01*
X29182000Y32346000D01*
X29179000Y32340000D01*
X29176000Y32335000D01*
X29172000Y32329000D01*
X29168000Y32324000D01*
X29164000Y32320000D01*
X29160000Y32315000D01*
X29155000Y32311000D01*
X29151000Y32307000D01*
X29146000Y32303000D01*
X29140000Y32299000D01*
X29135000Y32296000D01*
X29129000Y32293000D01*
X29124000Y32290000D01*
X29118000Y32288000D01*
X29112000Y32286000D01*
X29106000Y32284000D01*
X29100000Y32283000D01*
X29094000Y32281000D01*
X29088000Y32281000D01*
X29081000Y32280000D01*
X29075000Y32280000D01*
X28925000Y32280000D01*
X28919000Y32280000D01*
X28912000Y32281000D01*
X28906000Y32281000D01*
X28900000Y32283000D01*
X28894000Y32284000D01*
X28888000Y32286000D01*
X28882000Y32288000D01*
X28876000Y32290000D01*
X28871000Y32293000D01*
X28865000Y32296000D01*
X28860000Y32299000D01*
X28854000Y32303000D01*
X28849000Y32307000D01*
X28845000Y32311000D01*
X28840000Y32315000D01*
X28836000Y32320000D01*
X28832000Y32324000D01*
X28828000Y32329000D01*
X28824000Y32335000D01*
X28821000Y32340000D01*
X28818000Y32346000D01*
X28815000Y32351000D01*
X28813000Y32357000D01*
X28811000Y32363000D01*
X28809000Y32369000D01*
X28808000Y32375000D01*
X28806000Y32381000D01*
X28806000Y32387000D01*
X28805000Y32394000D01*
X28805000Y32400000D01*
X28805000Y32900000D01*
X28805000Y32906000D01*
X28806000Y32913000D01*
X28806000Y32919000D01*
X28808000Y32925000D01*
X28809000Y32931000D01*
X28811000Y32937000D01*
X28813000Y32943000D01*
X28815000Y32949000D01*
X28818000Y32954000D01*
X28821000Y32960000D01*
X28824000Y32965000D01*
X28828000Y32971000D01*
X28832000Y32976000D01*
X28836000Y32980000D01*
X28840000Y32985000D01*
X28845000Y32989000D01*
X28849000Y32993000D01*
X28854000Y32997000D01*
X28860000Y33001000D01*
X28865000Y33004000D01*
X28871000Y33007000D01*
X28876000Y33010000D01*
X28882000Y33012000D01*
X28888000Y33014000D01*
X28894000Y33016000D01*
X28900000Y33017000D01*
X28906000Y33019000D01*
X28912000Y33019000D01*
X28919000Y33020000D01*
X28925000Y33020000D01*
X29075000Y33020000D01*
X29081000Y33020000D01*
X29088000Y33019000D01*
G36*
X29088000Y33019000D02*
G01*
X29094000Y33019000D01*
X29100000Y33017000D01*
X29106000Y33016000D01*
X29112000Y33014000D01*
X29118000Y33012000D01*
X29124000Y33010000D01*
X29129000Y33007000D01*
X29135000Y33004000D01*
X29140000Y33001000D01*
X29146000Y32997000D01*
X29151000Y32993000D01*
X29155000Y32989000D01*
X29160000Y32985000D01*
X29164000Y32980000D01*
X29168000Y32976000D01*
X29172000Y32971000D01*
X29176000Y32965000D01*
X29179000Y32960000D01*
X29182000Y32954000D01*
X29185000Y32949000D01*
X29187000Y32943000D01*
X29189000Y32937000D01*
X29191000Y32931000D01*
X29192000Y32925000D01*
X29194000Y32919000D01*
X29194000Y32913000D01*
X29195000Y32906000D01*
X29195000Y32900000D01*
X29195000Y32400000D01*
X29195000Y32394000D01*
X29194000Y32387000D01*
X29194000Y32381000D01*
X29192000Y32375000D01*
X29191000Y32369000D01*
X29189000Y32363000D01*
X29187000Y32357000D01*
X29185000Y32351000D01*
X29182000Y32346000D01*
X29179000Y32340000D01*
X29176000Y32335000D01*
X29172000Y32329000D01*
X29168000Y32324000D01*
X29164000Y32320000D01*
X29160000Y32315000D01*
X29155000Y32311000D01*
X29151000Y32307000D01*
X29146000Y32303000D01*
X29140000Y32299000D01*
X29135000Y32296000D01*
X29129000Y32293000D01*
X29124000Y32290000D01*
X29118000Y32288000D01*
X29112000Y32286000D01*
X29106000Y32284000D01*
X29100000Y32283000D01*
X29094000Y32281000D01*
X29088000Y32281000D01*
X29081000Y32280000D01*
X29075000Y32280000D01*
X28925000Y32280000D01*
X28919000Y32280000D01*
X28912000Y32281000D01*
X28906000Y32281000D01*
X28900000Y32283000D01*
X28894000Y32284000D01*
X28888000Y32286000D01*
X28882000Y32288000D01*
X28876000Y32290000D01*
X28871000Y32293000D01*
X28865000Y32296000D01*
X28860000Y32299000D01*
X28854000Y32303000D01*
X28849000Y32307000D01*
X28845000Y32311000D01*
X28840000Y32315000D01*
X28836000Y32320000D01*
X28832000Y32324000D01*
X28828000Y32329000D01*
X28824000Y32335000D01*
X28821000Y32340000D01*
X28818000Y32346000D01*
X28815000Y32351000D01*
X28813000Y32357000D01*
X28811000Y32363000D01*
X28809000Y32369000D01*
X28808000Y32375000D01*
X28806000Y32381000D01*
X28806000Y32387000D01*
X28805000Y32394000D01*
X28805000Y32400000D01*
X28805000Y32900000D01*
X28805000Y32906000D01*
X28806000Y32913000D01*
X28806000Y32919000D01*
X28808000Y32925000D01*
X28809000Y32931000D01*
X28811000Y32937000D01*
X28813000Y32943000D01*
X28815000Y32949000D01*
X28818000Y32954000D01*
X28821000Y32960000D01*
X28824000Y32965000D01*
X28828000Y32971000D01*
X28832000Y32976000D01*
X28836000Y32980000D01*
X28840000Y32985000D01*
X28845000Y32989000D01*
X28849000Y32993000D01*
X28854000Y32997000D01*
X28860000Y33001000D01*
X28865000Y33004000D01*
X28871000Y33007000D01*
X28876000Y33010000D01*
X28882000Y33012000D01*
X28888000Y33014000D01*
X28894000Y33016000D01*
X28900000Y33017000D01*
X28906000Y33019000D01*
X28912000Y33019000D01*
X28919000Y33020000D01*
X28925000Y33020000D01*
X29075000Y33020000D01*
X29081000Y33020000D01*
X29088000Y33019000D01*
G37*
X29088000Y31519000D02*
X29094000Y31519000D01*
X29100000Y31517000D01*
X29106000Y31516000D01*
X29112000Y31514000D01*
X29118000Y31512000D01*
X29124000Y31510000D01*
X29129000Y31507000D01*
X29135000Y31504000D01*
X29140000Y31501000D01*
X29146000Y31497000D01*
X29151000Y31493000D01*
X29155000Y31489000D01*
X29160000Y31485000D01*
X29164000Y31480000D01*
X29168000Y31476000D01*
X29172000Y31471000D01*
X29176000Y31465000D01*
X29179000Y31460000D01*
X29182000Y31454000D01*
X29185000Y31449000D01*
X29187000Y31443000D01*
X29189000Y31437000D01*
X29191000Y31431000D01*
X29192000Y31425000D01*
X29194000Y31419000D01*
X29194000Y31413000D01*
X29195000Y31406000D01*
X29195000Y31400000D01*
X29195000Y30600000D01*
X29195000Y30594000D01*
X29194000Y30587000D01*
X29194000Y30581000D01*
X29192000Y30575000D01*
X29191000Y30569000D01*
X29189000Y30563000D01*
X29187000Y30557000D01*
X29185000Y30551000D01*
X29182000Y30546000D01*
X29179000Y30540000D01*
X29176000Y30535000D01*
X29172000Y30529000D01*
X29168000Y30524000D01*
X29164000Y30520000D01*
X29160000Y30515000D01*
X29155000Y30511000D01*
X29151000Y30507000D01*
X29146000Y30503000D01*
X29140000Y30499000D01*
X29135000Y30496000D01*
X29129000Y30493000D01*
X29124000Y30490000D01*
X29118000Y30488000D01*
X29112000Y30486000D01*
X29106000Y30484000D01*
X29100000Y30483000D01*
X29094000Y30481000D01*
X29088000Y30481000D01*
X29081000Y30480000D01*
X29075000Y30480000D01*
X28925000Y30480000D01*
X28919000Y30480000D01*
X28912000Y30481000D01*
X28906000Y30481000D01*
X28900000Y30483000D01*
X28894000Y30484000D01*
X28888000Y30486000D01*
X28882000Y30488000D01*
X28876000Y30490000D01*
X28871000Y30493000D01*
X28865000Y30496000D01*
X28860000Y30499000D01*
X28854000Y30503000D01*
X28849000Y30507000D01*
X28845000Y30511000D01*
X28840000Y30515000D01*
X28836000Y30520000D01*
X28832000Y30524000D01*
X28828000Y30529000D01*
X28824000Y30535000D01*
X28821000Y30540000D01*
X28818000Y30546000D01*
X28815000Y30551000D01*
X28813000Y30557000D01*
X28811000Y30563000D01*
X28809000Y30569000D01*
X28808000Y30575000D01*
X28806000Y30581000D01*
X28806000Y30587000D01*
X28805000Y30594000D01*
X28805000Y30600000D01*
X28805000Y31400000D01*
X28805000Y31406000D01*
X28806000Y31413000D01*
X28806000Y31419000D01*
X28808000Y31425000D01*
X28809000Y31431000D01*
X28811000Y31437000D01*
X28813000Y31443000D01*
X28815000Y31449000D01*
X28818000Y31454000D01*
X28821000Y31460000D01*
X28824000Y31465000D01*
X28828000Y31471000D01*
X28832000Y31476000D01*
X28836000Y31480000D01*
X28840000Y31485000D01*
X28845000Y31489000D01*
X28849000Y31493000D01*
X28854000Y31497000D01*
X28860000Y31501000D01*
X28865000Y31504000D01*
X28871000Y31507000D01*
X28876000Y31510000D01*
X28882000Y31512000D01*
X28888000Y31514000D01*
X28894000Y31516000D01*
X28900000Y31517000D01*
X28906000Y31519000D01*
X28912000Y31519000D01*
X28919000Y31520000D01*
X28925000Y31520000D01*
X29075000Y31520000D01*
X29081000Y31520000D01*
X29088000Y31519000D01*
G36*
X29088000Y31519000D02*
G01*
X29094000Y31519000D01*
X29100000Y31517000D01*
X29106000Y31516000D01*
X29112000Y31514000D01*
X29118000Y31512000D01*
X29124000Y31510000D01*
X29129000Y31507000D01*
X29135000Y31504000D01*
X29140000Y31501000D01*
X29146000Y31497000D01*
X29151000Y31493000D01*
X29155000Y31489000D01*
X29160000Y31485000D01*
X29164000Y31480000D01*
X29168000Y31476000D01*
X29172000Y31471000D01*
X29176000Y31465000D01*
X29179000Y31460000D01*
X29182000Y31454000D01*
X29185000Y31449000D01*
X29187000Y31443000D01*
X29189000Y31437000D01*
X29191000Y31431000D01*
X29192000Y31425000D01*
X29194000Y31419000D01*
X29194000Y31413000D01*
X29195000Y31406000D01*
X29195000Y31400000D01*
X29195000Y30600000D01*
X29195000Y30594000D01*
X29194000Y30587000D01*
X29194000Y30581000D01*
X29192000Y30575000D01*
X29191000Y30569000D01*
X29189000Y30563000D01*
X29187000Y30557000D01*
X29185000Y30551000D01*
X29182000Y30546000D01*
X29179000Y30540000D01*
X29176000Y30535000D01*
X29172000Y30529000D01*
X29168000Y30524000D01*
X29164000Y30520000D01*
X29160000Y30515000D01*
X29155000Y30511000D01*
X29151000Y30507000D01*
X29146000Y30503000D01*
X29140000Y30499000D01*
X29135000Y30496000D01*
X29129000Y30493000D01*
X29124000Y30490000D01*
X29118000Y30488000D01*
X29112000Y30486000D01*
X29106000Y30484000D01*
X29100000Y30483000D01*
X29094000Y30481000D01*
X29088000Y30481000D01*
X29081000Y30480000D01*
X29075000Y30480000D01*
X28925000Y30480000D01*
X28919000Y30480000D01*
X28912000Y30481000D01*
X28906000Y30481000D01*
X28900000Y30483000D01*
X28894000Y30484000D01*
X28888000Y30486000D01*
X28882000Y30488000D01*
X28876000Y30490000D01*
X28871000Y30493000D01*
X28865000Y30496000D01*
X28860000Y30499000D01*
X28854000Y30503000D01*
X28849000Y30507000D01*
X28845000Y30511000D01*
X28840000Y30515000D01*
X28836000Y30520000D01*
X28832000Y30524000D01*
X28828000Y30529000D01*
X28824000Y30535000D01*
X28821000Y30540000D01*
X28818000Y30546000D01*
X28815000Y30551000D01*
X28813000Y30557000D01*
X28811000Y30563000D01*
X28809000Y30569000D01*
X28808000Y30575000D01*
X28806000Y30581000D01*
X28806000Y30587000D01*
X28805000Y30594000D01*
X28805000Y30600000D01*
X28805000Y31400000D01*
X28805000Y31406000D01*
X28806000Y31413000D01*
X28806000Y31419000D01*
X28808000Y31425000D01*
X28809000Y31431000D01*
X28811000Y31437000D01*
X28813000Y31443000D01*
X28815000Y31449000D01*
X28818000Y31454000D01*
X28821000Y31460000D01*
X28824000Y31465000D01*
X28828000Y31471000D01*
X28832000Y31476000D01*
X28836000Y31480000D01*
X28840000Y31485000D01*
X28845000Y31489000D01*
X28849000Y31493000D01*
X28854000Y31497000D01*
X28860000Y31501000D01*
X28865000Y31504000D01*
X28871000Y31507000D01*
X28876000Y31510000D01*
X28882000Y31512000D01*
X28888000Y31514000D01*
X28894000Y31516000D01*
X28900000Y31517000D01*
X28906000Y31519000D01*
X28912000Y31519000D01*
X28919000Y31520000D01*
X28925000Y31520000D01*
X29075000Y31520000D01*
X29081000Y31520000D01*
X29088000Y31519000D01*
G37*
%TO.C,U4*%
X20175500Y7519000D02*
X20181500Y7519000D01*
X20187500Y7517000D01*
X20193500Y7516000D01*
X20199500Y7514000D01*
X20205500Y7512000D01*
X20211500Y7510000D01*
X20216500Y7507000D01*
X20222500Y7504000D01*
X20227500Y7501000D01*
X20233500Y7497000D01*
X20238500Y7493000D01*
X20242500Y7489000D01*
X20247500Y7485000D01*
X20251500Y7480000D01*
X20255500Y7476000D01*
X20259500Y7471000D01*
X20263500Y7465000D01*
X20266500Y7460000D01*
X20269500Y7454000D01*
X20272500Y7449000D01*
X20274500Y7443000D01*
X20276500Y7437000D01*
X20278500Y7431000D01*
X20279500Y7425000D01*
X20281500Y7419000D01*
X20281500Y7413000D01*
X20282500Y7406000D01*
X20282500Y7400000D01*
X20282500Y6600000D01*
X20282500Y6594000D01*
X20281500Y6587000D01*
X20281500Y6581000D01*
X20279500Y6575000D01*
X20278500Y6569000D01*
X20276500Y6563000D01*
X20274500Y6557000D01*
X20272500Y6551000D01*
X20269500Y6546000D01*
X20266500Y6540000D01*
X20263500Y6535000D01*
X20259500Y6529000D01*
X20255500Y6524000D01*
X20251500Y6520000D01*
X20247500Y6515000D01*
X20242500Y6511000D01*
X20238500Y6507000D01*
X20233500Y6503000D01*
X20227500Y6499000D01*
X20222500Y6496000D01*
X20216500Y6493000D01*
X20211500Y6490000D01*
X20205500Y6488000D01*
X20199500Y6486000D01*
X20193500Y6484000D01*
X20187500Y6483000D01*
X20181500Y6481000D01*
X20175500Y6481000D01*
X20168500Y6480000D01*
X20162500Y6480000D01*
X20012500Y6480000D01*
X20006500Y6480000D01*
X19999500Y6481000D01*
X19993500Y6481000D01*
X19987500Y6483000D01*
X19981500Y6484000D01*
X19975500Y6486000D01*
X19969500Y6488000D01*
X19963500Y6490000D01*
X19958500Y6493000D01*
X19952500Y6496000D01*
X19947500Y6499000D01*
X19941500Y6503000D01*
X19936500Y6507000D01*
X19932500Y6511000D01*
X19927500Y6515000D01*
X19923500Y6520000D01*
X19919500Y6524000D01*
X19915500Y6529000D01*
X19911500Y6535000D01*
X19908500Y6540000D01*
X19905500Y6546000D01*
X19902500Y6551000D01*
X19900500Y6557000D01*
X19898500Y6563000D01*
X19896500Y6569000D01*
X19895500Y6575000D01*
X19893500Y6581000D01*
X19893500Y6587000D01*
X19892500Y6594000D01*
X19892500Y6600000D01*
X19892500Y7400000D01*
X19892500Y7406000D01*
X19893500Y7413000D01*
X19893500Y7419000D01*
X19895500Y7425000D01*
X19896500Y7431000D01*
X19898500Y7437000D01*
X19900500Y7443000D01*
X19902500Y7449000D01*
X19905500Y7454000D01*
X19908500Y7460000D01*
X19911500Y7465000D01*
X19915500Y7471000D01*
X19919500Y7476000D01*
X19923500Y7480000D01*
X19927500Y7485000D01*
X19932500Y7489000D01*
X19936500Y7493000D01*
X19941500Y7497000D01*
X19947500Y7501000D01*
X19952500Y7504000D01*
X19958500Y7507000D01*
X19963500Y7510000D01*
X19969500Y7512000D01*
X19975500Y7514000D01*
X19981500Y7516000D01*
X19987500Y7517000D01*
X19993500Y7519000D01*
X19999500Y7519000D01*
X20006500Y7520000D01*
X20012500Y7520000D01*
X20162500Y7520000D01*
X20168500Y7520000D01*
X20175500Y7519000D01*
G36*
X20175500Y7519000D02*
G01*
X20181500Y7519000D01*
X20187500Y7517000D01*
X20193500Y7516000D01*
X20199500Y7514000D01*
X20205500Y7512000D01*
X20211500Y7510000D01*
X20216500Y7507000D01*
X20222500Y7504000D01*
X20227500Y7501000D01*
X20233500Y7497000D01*
X20238500Y7493000D01*
X20242500Y7489000D01*
X20247500Y7485000D01*
X20251500Y7480000D01*
X20255500Y7476000D01*
X20259500Y7471000D01*
X20263500Y7465000D01*
X20266500Y7460000D01*
X20269500Y7454000D01*
X20272500Y7449000D01*
X20274500Y7443000D01*
X20276500Y7437000D01*
X20278500Y7431000D01*
X20279500Y7425000D01*
X20281500Y7419000D01*
X20281500Y7413000D01*
X20282500Y7406000D01*
X20282500Y7400000D01*
X20282500Y6600000D01*
X20282500Y6594000D01*
X20281500Y6587000D01*
X20281500Y6581000D01*
X20279500Y6575000D01*
X20278500Y6569000D01*
X20276500Y6563000D01*
X20274500Y6557000D01*
X20272500Y6551000D01*
X20269500Y6546000D01*
X20266500Y6540000D01*
X20263500Y6535000D01*
X20259500Y6529000D01*
X20255500Y6524000D01*
X20251500Y6520000D01*
X20247500Y6515000D01*
X20242500Y6511000D01*
X20238500Y6507000D01*
X20233500Y6503000D01*
X20227500Y6499000D01*
X20222500Y6496000D01*
X20216500Y6493000D01*
X20211500Y6490000D01*
X20205500Y6488000D01*
X20199500Y6486000D01*
X20193500Y6484000D01*
X20187500Y6483000D01*
X20181500Y6481000D01*
X20175500Y6481000D01*
X20168500Y6480000D01*
X20162500Y6480000D01*
X20012500Y6480000D01*
X20006500Y6480000D01*
X19999500Y6481000D01*
X19993500Y6481000D01*
X19987500Y6483000D01*
X19981500Y6484000D01*
X19975500Y6486000D01*
X19969500Y6488000D01*
X19963500Y6490000D01*
X19958500Y6493000D01*
X19952500Y6496000D01*
X19947500Y6499000D01*
X19941500Y6503000D01*
X19936500Y6507000D01*
X19932500Y6511000D01*
X19927500Y6515000D01*
X19923500Y6520000D01*
X19919500Y6524000D01*
X19915500Y6529000D01*
X19911500Y6535000D01*
X19908500Y6540000D01*
X19905500Y6546000D01*
X19902500Y6551000D01*
X19900500Y6557000D01*
X19898500Y6563000D01*
X19896500Y6569000D01*
X19895500Y6575000D01*
X19893500Y6581000D01*
X19893500Y6587000D01*
X19892500Y6594000D01*
X19892500Y6600000D01*
X19892500Y7400000D01*
X19892500Y7406000D01*
X19893500Y7413000D01*
X19893500Y7419000D01*
X19895500Y7425000D01*
X19896500Y7431000D01*
X19898500Y7437000D01*
X19900500Y7443000D01*
X19902500Y7449000D01*
X19905500Y7454000D01*
X19908500Y7460000D01*
X19911500Y7465000D01*
X19915500Y7471000D01*
X19919500Y7476000D01*
X19923500Y7480000D01*
X19927500Y7485000D01*
X19932500Y7489000D01*
X19936500Y7493000D01*
X19941500Y7497000D01*
X19947500Y7501000D01*
X19952500Y7504000D01*
X19958500Y7507000D01*
X19963500Y7510000D01*
X19969500Y7512000D01*
X19975500Y7514000D01*
X19981500Y7516000D01*
X19987500Y7517000D01*
X19993500Y7519000D01*
X19999500Y7519000D01*
X20006500Y7520000D01*
X20012500Y7520000D01*
X20162500Y7520000D01*
X20168500Y7520000D01*
X20175500Y7519000D01*
G37*
X20175500Y5719000D02*
X20181500Y5719000D01*
X20187500Y5717000D01*
X20193500Y5716000D01*
X20199500Y5714000D01*
X20205500Y5712000D01*
X20211500Y5710000D01*
X20216500Y5707000D01*
X20222500Y5704000D01*
X20227500Y5701000D01*
X20233500Y5697000D01*
X20238500Y5693000D01*
X20242500Y5689000D01*
X20247500Y5685000D01*
X20251500Y5680000D01*
X20255500Y5676000D01*
X20259500Y5671000D01*
X20263500Y5665000D01*
X20266500Y5660000D01*
X20269500Y5654000D01*
X20272500Y5649000D01*
X20274500Y5643000D01*
X20276500Y5637000D01*
X20278500Y5631000D01*
X20279500Y5625000D01*
X20281500Y5619000D01*
X20281500Y5613000D01*
X20282500Y5606000D01*
X20282500Y5600000D01*
X20282500Y5100000D01*
X20282500Y5094000D01*
X20281500Y5087000D01*
X20281500Y5081000D01*
X20279500Y5075000D01*
X20278500Y5069000D01*
X20276500Y5063000D01*
X20274500Y5057000D01*
X20272500Y5051000D01*
X20269500Y5046000D01*
X20266500Y5040000D01*
X20263500Y5035000D01*
X20259500Y5029000D01*
X20255500Y5024000D01*
X20251500Y5020000D01*
X20247500Y5015000D01*
X20242500Y5011000D01*
X20238500Y5007000D01*
X20233500Y5003000D01*
X20227500Y4999000D01*
X20222500Y4996000D01*
X20216500Y4993000D01*
X20211500Y4990000D01*
X20205500Y4988000D01*
X20199500Y4986000D01*
X20193500Y4984000D01*
X20187500Y4983000D01*
X20181500Y4981000D01*
X20175500Y4981000D01*
X20168500Y4980000D01*
X20162500Y4980000D01*
X20012500Y4980000D01*
X20006500Y4980000D01*
X19999500Y4981000D01*
X19993500Y4981000D01*
X19987500Y4983000D01*
X19981500Y4984000D01*
X19975500Y4986000D01*
X19969500Y4988000D01*
X19963500Y4990000D01*
X19958500Y4993000D01*
X19952500Y4996000D01*
X19947500Y4999000D01*
X19941500Y5003000D01*
X19936500Y5007000D01*
X19932500Y5011000D01*
X19927500Y5015000D01*
X19923500Y5020000D01*
X19919500Y5024000D01*
X19915500Y5029000D01*
X19911500Y5035000D01*
X19908500Y5040000D01*
X19905500Y5046000D01*
X19902500Y5051000D01*
X19900500Y5057000D01*
X19898500Y5063000D01*
X19896500Y5069000D01*
X19895500Y5075000D01*
X19893500Y5081000D01*
X19893500Y5087000D01*
X19892500Y5094000D01*
X19892500Y5100000D01*
X19892500Y5600000D01*
X19892500Y5606000D01*
X19893500Y5613000D01*
X19893500Y5619000D01*
X19895500Y5625000D01*
X19896500Y5631000D01*
X19898500Y5637000D01*
X19900500Y5643000D01*
X19902500Y5649000D01*
X19905500Y5654000D01*
X19908500Y5660000D01*
X19911500Y5665000D01*
X19915500Y5671000D01*
X19919500Y5676000D01*
X19923500Y5680000D01*
X19927500Y5685000D01*
X19932500Y5689000D01*
X19936500Y5693000D01*
X19941500Y5697000D01*
X19947500Y5701000D01*
X19952500Y5704000D01*
X19958500Y5707000D01*
X19963500Y5710000D01*
X19969500Y5712000D01*
X19975500Y5714000D01*
X19981500Y5716000D01*
X19987500Y5717000D01*
X19993500Y5719000D01*
X19999500Y5719000D01*
X20006500Y5720000D01*
X20012500Y5720000D01*
X20162500Y5720000D01*
X20168500Y5720000D01*
X20175500Y5719000D01*
G36*
X20175500Y5719000D02*
G01*
X20181500Y5719000D01*
X20187500Y5717000D01*
X20193500Y5716000D01*
X20199500Y5714000D01*
X20205500Y5712000D01*
X20211500Y5710000D01*
X20216500Y5707000D01*
X20222500Y5704000D01*
X20227500Y5701000D01*
X20233500Y5697000D01*
X20238500Y5693000D01*
X20242500Y5689000D01*
X20247500Y5685000D01*
X20251500Y5680000D01*
X20255500Y5676000D01*
X20259500Y5671000D01*
X20263500Y5665000D01*
X20266500Y5660000D01*
X20269500Y5654000D01*
X20272500Y5649000D01*
X20274500Y5643000D01*
X20276500Y5637000D01*
X20278500Y5631000D01*
X20279500Y5625000D01*
X20281500Y5619000D01*
X20281500Y5613000D01*
X20282500Y5606000D01*
X20282500Y5600000D01*
X20282500Y5100000D01*
X20282500Y5094000D01*
X20281500Y5087000D01*
X20281500Y5081000D01*
X20279500Y5075000D01*
X20278500Y5069000D01*
X20276500Y5063000D01*
X20274500Y5057000D01*
X20272500Y5051000D01*
X20269500Y5046000D01*
X20266500Y5040000D01*
X20263500Y5035000D01*
X20259500Y5029000D01*
X20255500Y5024000D01*
X20251500Y5020000D01*
X20247500Y5015000D01*
X20242500Y5011000D01*
X20238500Y5007000D01*
X20233500Y5003000D01*
X20227500Y4999000D01*
X20222500Y4996000D01*
X20216500Y4993000D01*
X20211500Y4990000D01*
X20205500Y4988000D01*
X20199500Y4986000D01*
X20193500Y4984000D01*
X20187500Y4983000D01*
X20181500Y4981000D01*
X20175500Y4981000D01*
X20168500Y4980000D01*
X20162500Y4980000D01*
X20012500Y4980000D01*
X20006500Y4980000D01*
X19999500Y4981000D01*
X19993500Y4981000D01*
X19987500Y4983000D01*
X19981500Y4984000D01*
X19975500Y4986000D01*
X19969500Y4988000D01*
X19963500Y4990000D01*
X19958500Y4993000D01*
X19952500Y4996000D01*
X19947500Y4999000D01*
X19941500Y5003000D01*
X19936500Y5007000D01*
X19932500Y5011000D01*
X19927500Y5015000D01*
X19923500Y5020000D01*
X19919500Y5024000D01*
X19915500Y5029000D01*
X19911500Y5035000D01*
X19908500Y5040000D01*
X19905500Y5046000D01*
X19902500Y5051000D01*
X19900500Y5057000D01*
X19898500Y5063000D01*
X19896500Y5069000D01*
X19895500Y5075000D01*
X19893500Y5081000D01*
X19893500Y5087000D01*
X19892500Y5094000D01*
X19892500Y5100000D01*
X19892500Y5600000D01*
X19892500Y5606000D01*
X19893500Y5613000D01*
X19893500Y5619000D01*
X19895500Y5625000D01*
X19896500Y5631000D01*
X19898500Y5637000D01*
X19900500Y5643000D01*
X19902500Y5649000D01*
X19905500Y5654000D01*
X19908500Y5660000D01*
X19911500Y5665000D01*
X19915500Y5671000D01*
X19919500Y5676000D01*
X19923500Y5680000D01*
X19927500Y5685000D01*
X19932500Y5689000D01*
X19936500Y5693000D01*
X19941500Y5697000D01*
X19947500Y5701000D01*
X19952500Y5704000D01*
X19958500Y5707000D01*
X19963500Y5710000D01*
X19969500Y5712000D01*
X19975500Y5714000D01*
X19981500Y5716000D01*
X19987500Y5717000D01*
X19993500Y5719000D01*
X19999500Y5719000D01*
X20006500Y5720000D01*
X20012500Y5720000D01*
X20162500Y5720000D01*
X20168500Y5720000D01*
X20175500Y5719000D01*
G37*
X20675500Y7519000D02*
X20681500Y7519000D01*
X20687500Y7517000D01*
X20693500Y7516000D01*
X20699500Y7514000D01*
X20705500Y7512000D01*
X20711500Y7510000D01*
X20716500Y7507000D01*
X20722500Y7504000D01*
X20727500Y7501000D01*
X20733500Y7497000D01*
X20738500Y7493000D01*
X20742500Y7489000D01*
X20747500Y7485000D01*
X20751500Y7480000D01*
X20755500Y7476000D01*
X20759500Y7471000D01*
X20763500Y7465000D01*
X20766500Y7460000D01*
X20769500Y7454000D01*
X20772500Y7449000D01*
X20774500Y7443000D01*
X20776500Y7437000D01*
X20778500Y7431000D01*
X20779500Y7425000D01*
X20781500Y7419000D01*
X20781500Y7413000D01*
X20782500Y7406000D01*
X20782500Y7400000D01*
X20782500Y6600000D01*
X20782500Y6594000D01*
X20781500Y6587000D01*
X20781500Y6581000D01*
X20779500Y6575000D01*
X20778500Y6569000D01*
X20776500Y6563000D01*
X20774500Y6557000D01*
X20772500Y6551000D01*
X20769500Y6546000D01*
X20766500Y6540000D01*
X20763500Y6535000D01*
X20759500Y6529000D01*
X20755500Y6524000D01*
X20751500Y6520000D01*
X20747500Y6515000D01*
X20742500Y6511000D01*
X20738500Y6507000D01*
X20733500Y6503000D01*
X20727500Y6499000D01*
X20722500Y6496000D01*
X20716500Y6493000D01*
X20711500Y6490000D01*
X20705500Y6488000D01*
X20699500Y6486000D01*
X20693500Y6484000D01*
X20687500Y6483000D01*
X20681500Y6481000D01*
X20675500Y6481000D01*
X20668500Y6480000D01*
X20662500Y6480000D01*
X20512500Y6480000D01*
X20506500Y6480000D01*
X20499500Y6481000D01*
X20493500Y6481000D01*
X20487500Y6483000D01*
X20481500Y6484000D01*
X20475500Y6486000D01*
X20469500Y6488000D01*
X20463500Y6490000D01*
X20458500Y6493000D01*
X20452500Y6496000D01*
X20447500Y6499000D01*
X20441500Y6503000D01*
X20436500Y6507000D01*
X20432500Y6511000D01*
X20427500Y6515000D01*
X20423500Y6520000D01*
X20419500Y6524000D01*
X20415500Y6529000D01*
X20411500Y6535000D01*
X20408500Y6540000D01*
X20405500Y6546000D01*
X20402500Y6551000D01*
X20400500Y6557000D01*
X20398500Y6563000D01*
X20396500Y6569000D01*
X20395500Y6575000D01*
X20393500Y6581000D01*
X20393500Y6587000D01*
X20392500Y6594000D01*
X20392500Y6600000D01*
X20392500Y7400000D01*
X20392500Y7406000D01*
X20393500Y7413000D01*
X20393500Y7419000D01*
X20395500Y7425000D01*
X20396500Y7431000D01*
X20398500Y7437000D01*
X20400500Y7443000D01*
X20402500Y7449000D01*
X20405500Y7454000D01*
X20408500Y7460000D01*
X20411500Y7465000D01*
X20415500Y7471000D01*
X20419500Y7476000D01*
X20423500Y7480000D01*
X20427500Y7485000D01*
X20432500Y7489000D01*
X20436500Y7493000D01*
X20441500Y7497000D01*
X20447500Y7501000D01*
X20452500Y7504000D01*
X20458500Y7507000D01*
X20463500Y7510000D01*
X20469500Y7512000D01*
X20475500Y7514000D01*
X20481500Y7516000D01*
X20487500Y7517000D01*
X20493500Y7519000D01*
X20499500Y7519000D01*
X20506500Y7520000D01*
X20512500Y7520000D01*
X20662500Y7520000D01*
X20668500Y7520000D01*
X20675500Y7519000D01*
G36*
X20675500Y7519000D02*
G01*
X20681500Y7519000D01*
X20687500Y7517000D01*
X20693500Y7516000D01*
X20699500Y7514000D01*
X20705500Y7512000D01*
X20711500Y7510000D01*
X20716500Y7507000D01*
X20722500Y7504000D01*
X20727500Y7501000D01*
X20733500Y7497000D01*
X20738500Y7493000D01*
X20742500Y7489000D01*
X20747500Y7485000D01*
X20751500Y7480000D01*
X20755500Y7476000D01*
X20759500Y7471000D01*
X20763500Y7465000D01*
X20766500Y7460000D01*
X20769500Y7454000D01*
X20772500Y7449000D01*
X20774500Y7443000D01*
X20776500Y7437000D01*
X20778500Y7431000D01*
X20779500Y7425000D01*
X20781500Y7419000D01*
X20781500Y7413000D01*
X20782500Y7406000D01*
X20782500Y7400000D01*
X20782500Y6600000D01*
X20782500Y6594000D01*
X20781500Y6587000D01*
X20781500Y6581000D01*
X20779500Y6575000D01*
X20778500Y6569000D01*
X20776500Y6563000D01*
X20774500Y6557000D01*
X20772500Y6551000D01*
X20769500Y6546000D01*
X20766500Y6540000D01*
X20763500Y6535000D01*
X20759500Y6529000D01*
X20755500Y6524000D01*
X20751500Y6520000D01*
X20747500Y6515000D01*
X20742500Y6511000D01*
X20738500Y6507000D01*
X20733500Y6503000D01*
X20727500Y6499000D01*
X20722500Y6496000D01*
X20716500Y6493000D01*
X20711500Y6490000D01*
X20705500Y6488000D01*
X20699500Y6486000D01*
X20693500Y6484000D01*
X20687500Y6483000D01*
X20681500Y6481000D01*
X20675500Y6481000D01*
X20668500Y6480000D01*
X20662500Y6480000D01*
X20512500Y6480000D01*
X20506500Y6480000D01*
X20499500Y6481000D01*
X20493500Y6481000D01*
X20487500Y6483000D01*
X20481500Y6484000D01*
X20475500Y6486000D01*
X20469500Y6488000D01*
X20463500Y6490000D01*
X20458500Y6493000D01*
X20452500Y6496000D01*
X20447500Y6499000D01*
X20441500Y6503000D01*
X20436500Y6507000D01*
X20432500Y6511000D01*
X20427500Y6515000D01*
X20423500Y6520000D01*
X20419500Y6524000D01*
X20415500Y6529000D01*
X20411500Y6535000D01*
X20408500Y6540000D01*
X20405500Y6546000D01*
X20402500Y6551000D01*
X20400500Y6557000D01*
X20398500Y6563000D01*
X20396500Y6569000D01*
X20395500Y6575000D01*
X20393500Y6581000D01*
X20393500Y6587000D01*
X20392500Y6594000D01*
X20392500Y6600000D01*
X20392500Y7400000D01*
X20392500Y7406000D01*
X20393500Y7413000D01*
X20393500Y7419000D01*
X20395500Y7425000D01*
X20396500Y7431000D01*
X20398500Y7437000D01*
X20400500Y7443000D01*
X20402500Y7449000D01*
X20405500Y7454000D01*
X20408500Y7460000D01*
X20411500Y7465000D01*
X20415500Y7471000D01*
X20419500Y7476000D01*
X20423500Y7480000D01*
X20427500Y7485000D01*
X20432500Y7489000D01*
X20436500Y7493000D01*
X20441500Y7497000D01*
X20447500Y7501000D01*
X20452500Y7504000D01*
X20458500Y7507000D01*
X20463500Y7510000D01*
X20469500Y7512000D01*
X20475500Y7514000D01*
X20481500Y7516000D01*
X20487500Y7517000D01*
X20493500Y7519000D01*
X20499500Y7519000D01*
X20506500Y7520000D01*
X20512500Y7520000D01*
X20662500Y7520000D01*
X20668500Y7520000D01*
X20675500Y7519000D01*
G37*
X20675500Y5719000D02*
X20681500Y5719000D01*
X20687500Y5717000D01*
X20693500Y5716000D01*
X20699500Y5714000D01*
X20705500Y5712000D01*
X20711500Y5710000D01*
X20716500Y5707000D01*
X20722500Y5704000D01*
X20727500Y5701000D01*
X20733500Y5697000D01*
X20738500Y5693000D01*
X20742500Y5689000D01*
X20747500Y5685000D01*
X20751500Y5680000D01*
X20755500Y5676000D01*
X20759500Y5671000D01*
X20763500Y5665000D01*
X20766500Y5660000D01*
X20769500Y5654000D01*
X20772500Y5649000D01*
X20774500Y5643000D01*
X20776500Y5637000D01*
X20778500Y5631000D01*
X20779500Y5625000D01*
X20781500Y5619000D01*
X20781500Y5613000D01*
X20782500Y5606000D01*
X20782500Y5600000D01*
X20782500Y5100000D01*
X20782500Y5094000D01*
X20781500Y5087000D01*
X20781500Y5081000D01*
X20779500Y5075000D01*
X20778500Y5069000D01*
X20776500Y5063000D01*
X20774500Y5057000D01*
X20772500Y5051000D01*
X20769500Y5046000D01*
X20766500Y5040000D01*
X20763500Y5035000D01*
X20759500Y5029000D01*
X20755500Y5024000D01*
X20751500Y5020000D01*
X20747500Y5015000D01*
X20742500Y5011000D01*
X20738500Y5007000D01*
X20733500Y5003000D01*
X20727500Y4999000D01*
X20722500Y4996000D01*
X20716500Y4993000D01*
X20711500Y4990000D01*
X20705500Y4988000D01*
X20699500Y4986000D01*
X20693500Y4984000D01*
X20687500Y4983000D01*
X20681500Y4981000D01*
X20675500Y4981000D01*
X20668500Y4980000D01*
X20662500Y4980000D01*
X20512500Y4980000D01*
X20506500Y4980000D01*
X20499500Y4981000D01*
X20493500Y4981000D01*
X20487500Y4983000D01*
X20481500Y4984000D01*
X20475500Y4986000D01*
X20469500Y4988000D01*
X20463500Y4990000D01*
X20458500Y4993000D01*
X20452500Y4996000D01*
X20447500Y4999000D01*
X20441500Y5003000D01*
X20436500Y5007000D01*
X20432500Y5011000D01*
X20427500Y5015000D01*
X20423500Y5020000D01*
X20419500Y5024000D01*
X20415500Y5029000D01*
X20411500Y5035000D01*
X20408500Y5040000D01*
X20405500Y5046000D01*
X20402500Y5051000D01*
X20400500Y5057000D01*
X20398500Y5063000D01*
X20396500Y5069000D01*
X20395500Y5075000D01*
X20393500Y5081000D01*
X20393500Y5087000D01*
X20392500Y5094000D01*
X20392500Y5100000D01*
X20392500Y5600000D01*
X20392500Y5606000D01*
X20393500Y5613000D01*
X20393500Y5619000D01*
X20395500Y5625000D01*
X20396500Y5631000D01*
X20398500Y5637000D01*
X20400500Y5643000D01*
X20402500Y5649000D01*
X20405500Y5654000D01*
X20408500Y5660000D01*
X20411500Y5665000D01*
X20415500Y5671000D01*
X20419500Y5676000D01*
X20423500Y5680000D01*
X20427500Y5685000D01*
X20432500Y5689000D01*
X20436500Y5693000D01*
X20441500Y5697000D01*
X20447500Y5701000D01*
X20452500Y5704000D01*
X20458500Y5707000D01*
X20463500Y5710000D01*
X20469500Y5712000D01*
X20475500Y5714000D01*
X20481500Y5716000D01*
X20487500Y5717000D01*
X20493500Y5719000D01*
X20499500Y5719000D01*
X20506500Y5720000D01*
X20512500Y5720000D01*
X20662500Y5720000D01*
X20668500Y5720000D01*
X20675500Y5719000D01*
G36*
X20675500Y5719000D02*
G01*
X20681500Y5719000D01*
X20687500Y5717000D01*
X20693500Y5716000D01*
X20699500Y5714000D01*
X20705500Y5712000D01*
X20711500Y5710000D01*
X20716500Y5707000D01*
X20722500Y5704000D01*
X20727500Y5701000D01*
X20733500Y5697000D01*
X20738500Y5693000D01*
X20742500Y5689000D01*
X20747500Y5685000D01*
X20751500Y5680000D01*
X20755500Y5676000D01*
X20759500Y5671000D01*
X20763500Y5665000D01*
X20766500Y5660000D01*
X20769500Y5654000D01*
X20772500Y5649000D01*
X20774500Y5643000D01*
X20776500Y5637000D01*
X20778500Y5631000D01*
X20779500Y5625000D01*
X20781500Y5619000D01*
X20781500Y5613000D01*
X20782500Y5606000D01*
X20782500Y5600000D01*
X20782500Y5100000D01*
X20782500Y5094000D01*
X20781500Y5087000D01*
X20781500Y5081000D01*
X20779500Y5075000D01*
X20778500Y5069000D01*
X20776500Y5063000D01*
X20774500Y5057000D01*
X20772500Y5051000D01*
X20769500Y5046000D01*
X20766500Y5040000D01*
X20763500Y5035000D01*
X20759500Y5029000D01*
X20755500Y5024000D01*
X20751500Y5020000D01*
X20747500Y5015000D01*
X20742500Y5011000D01*
X20738500Y5007000D01*
X20733500Y5003000D01*
X20727500Y4999000D01*
X20722500Y4996000D01*
X20716500Y4993000D01*
X20711500Y4990000D01*
X20705500Y4988000D01*
X20699500Y4986000D01*
X20693500Y4984000D01*
X20687500Y4983000D01*
X20681500Y4981000D01*
X20675500Y4981000D01*
X20668500Y4980000D01*
X20662500Y4980000D01*
X20512500Y4980000D01*
X20506500Y4980000D01*
X20499500Y4981000D01*
X20493500Y4981000D01*
X20487500Y4983000D01*
X20481500Y4984000D01*
X20475500Y4986000D01*
X20469500Y4988000D01*
X20463500Y4990000D01*
X20458500Y4993000D01*
X20452500Y4996000D01*
X20447500Y4999000D01*
X20441500Y5003000D01*
X20436500Y5007000D01*
X20432500Y5011000D01*
X20427500Y5015000D01*
X20423500Y5020000D01*
X20419500Y5024000D01*
X20415500Y5029000D01*
X20411500Y5035000D01*
X20408500Y5040000D01*
X20405500Y5046000D01*
X20402500Y5051000D01*
X20400500Y5057000D01*
X20398500Y5063000D01*
X20396500Y5069000D01*
X20395500Y5075000D01*
X20393500Y5081000D01*
X20393500Y5087000D01*
X20392500Y5094000D01*
X20392500Y5100000D01*
X20392500Y5600000D01*
X20392500Y5606000D01*
X20393500Y5613000D01*
X20393500Y5619000D01*
X20395500Y5625000D01*
X20396500Y5631000D01*
X20398500Y5637000D01*
X20400500Y5643000D01*
X20402500Y5649000D01*
X20405500Y5654000D01*
X20408500Y5660000D01*
X20411500Y5665000D01*
X20415500Y5671000D01*
X20419500Y5676000D01*
X20423500Y5680000D01*
X20427500Y5685000D01*
X20432500Y5689000D01*
X20436500Y5693000D01*
X20441500Y5697000D01*
X20447500Y5701000D01*
X20452500Y5704000D01*
X20458500Y5707000D01*
X20463500Y5710000D01*
X20469500Y5712000D01*
X20475500Y5714000D01*
X20481500Y5716000D01*
X20487500Y5717000D01*
X20493500Y5719000D01*
X20499500Y5719000D01*
X20506500Y5720000D01*
X20512500Y5720000D01*
X20662500Y5720000D01*
X20668500Y5720000D01*
X20675500Y5719000D01*
G37*
X21175500Y7519000D02*
X21181500Y7519000D01*
X21187500Y7517000D01*
X21193500Y7516000D01*
X21199500Y7514000D01*
X21205500Y7512000D01*
X21211500Y7510000D01*
X21216500Y7507000D01*
X21222500Y7504000D01*
X21227500Y7501000D01*
X21233500Y7497000D01*
X21238500Y7493000D01*
X21242500Y7489000D01*
X21247500Y7485000D01*
X21251500Y7480000D01*
X21255500Y7476000D01*
X21259500Y7471000D01*
X21263500Y7465000D01*
X21266500Y7460000D01*
X21269500Y7454000D01*
X21272500Y7449000D01*
X21274500Y7443000D01*
X21276500Y7437000D01*
X21278500Y7431000D01*
X21279500Y7425000D01*
X21281500Y7419000D01*
X21281500Y7413000D01*
X21282500Y7406000D01*
X21282500Y7400000D01*
X21282500Y6200000D01*
X21282500Y6194000D01*
X21281500Y6187000D01*
X21281500Y6181000D01*
X21279500Y6175000D01*
X21278500Y6169000D01*
X21276500Y6163000D01*
X21274500Y6157000D01*
X21272500Y6151000D01*
X21269500Y6146000D01*
X21266500Y6140000D01*
X21263500Y6135000D01*
X21259500Y6129000D01*
X21255500Y6124000D01*
X21251500Y6120000D01*
X21247500Y6115000D01*
X21242500Y6111000D01*
X21238500Y6107000D01*
X21233500Y6103000D01*
X21227500Y6099000D01*
X21222500Y6096000D01*
X21216500Y6093000D01*
X21211500Y6090000D01*
X21205500Y6088000D01*
X21199500Y6086000D01*
X21193500Y6084000D01*
X21187500Y6083000D01*
X21181500Y6081000D01*
X21175500Y6081000D01*
X21168500Y6080000D01*
X21162500Y6080000D01*
X21012500Y6080000D01*
X21006500Y6080000D01*
X20999500Y6081000D01*
X20993500Y6081000D01*
X20987500Y6083000D01*
X20981500Y6084000D01*
X20975500Y6086000D01*
X20969500Y6088000D01*
X20963500Y6090000D01*
X20958500Y6093000D01*
X20952500Y6096000D01*
X20947500Y6099000D01*
X20941500Y6103000D01*
X20936500Y6107000D01*
X20932500Y6111000D01*
X20927500Y6115000D01*
X20923500Y6120000D01*
X20919500Y6124000D01*
X20915500Y6129000D01*
X20911500Y6135000D01*
X20908500Y6140000D01*
X20905500Y6146000D01*
X20902500Y6151000D01*
X20900500Y6157000D01*
X20898500Y6163000D01*
X20896500Y6169000D01*
X20895500Y6175000D01*
X20893500Y6181000D01*
X20893500Y6187000D01*
X20892500Y6194000D01*
X20892500Y6200000D01*
X20892500Y7400000D01*
X20892500Y7406000D01*
X20893500Y7413000D01*
X20893500Y7419000D01*
X20895500Y7425000D01*
X20896500Y7431000D01*
X20898500Y7437000D01*
X20900500Y7443000D01*
X20902500Y7449000D01*
X20905500Y7454000D01*
X20908500Y7460000D01*
X20911500Y7465000D01*
X20915500Y7471000D01*
X20919500Y7476000D01*
X20923500Y7480000D01*
X20927500Y7485000D01*
X20932500Y7489000D01*
X20936500Y7493000D01*
X20941500Y7497000D01*
X20947500Y7501000D01*
X20952500Y7504000D01*
X20958500Y7507000D01*
X20963500Y7510000D01*
X20969500Y7512000D01*
X20975500Y7514000D01*
X20981500Y7516000D01*
X20987500Y7517000D01*
X20993500Y7519000D01*
X20999500Y7519000D01*
X21006500Y7520000D01*
X21012500Y7520000D01*
X21162500Y7520000D01*
X21168500Y7520000D01*
X21175500Y7519000D01*
G36*
X21175500Y7519000D02*
G01*
X21181500Y7519000D01*
X21187500Y7517000D01*
X21193500Y7516000D01*
X21199500Y7514000D01*
X21205500Y7512000D01*
X21211500Y7510000D01*
X21216500Y7507000D01*
X21222500Y7504000D01*
X21227500Y7501000D01*
X21233500Y7497000D01*
X21238500Y7493000D01*
X21242500Y7489000D01*
X21247500Y7485000D01*
X21251500Y7480000D01*
X21255500Y7476000D01*
X21259500Y7471000D01*
X21263500Y7465000D01*
X21266500Y7460000D01*
X21269500Y7454000D01*
X21272500Y7449000D01*
X21274500Y7443000D01*
X21276500Y7437000D01*
X21278500Y7431000D01*
X21279500Y7425000D01*
X21281500Y7419000D01*
X21281500Y7413000D01*
X21282500Y7406000D01*
X21282500Y7400000D01*
X21282500Y6200000D01*
X21282500Y6194000D01*
X21281500Y6187000D01*
X21281500Y6181000D01*
X21279500Y6175000D01*
X21278500Y6169000D01*
X21276500Y6163000D01*
X21274500Y6157000D01*
X21272500Y6151000D01*
X21269500Y6146000D01*
X21266500Y6140000D01*
X21263500Y6135000D01*
X21259500Y6129000D01*
X21255500Y6124000D01*
X21251500Y6120000D01*
X21247500Y6115000D01*
X21242500Y6111000D01*
X21238500Y6107000D01*
X21233500Y6103000D01*
X21227500Y6099000D01*
X21222500Y6096000D01*
X21216500Y6093000D01*
X21211500Y6090000D01*
X21205500Y6088000D01*
X21199500Y6086000D01*
X21193500Y6084000D01*
X21187500Y6083000D01*
X21181500Y6081000D01*
X21175500Y6081000D01*
X21168500Y6080000D01*
X21162500Y6080000D01*
X21012500Y6080000D01*
X21006500Y6080000D01*
X20999500Y6081000D01*
X20993500Y6081000D01*
X20987500Y6083000D01*
X20981500Y6084000D01*
X20975500Y6086000D01*
X20969500Y6088000D01*
X20963500Y6090000D01*
X20958500Y6093000D01*
X20952500Y6096000D01*
X20947500Y6099000D01*
X20941500Y6103000D01*
X20936500Y6107000D01*
X20932500Y6111000D01*
X20927500Y6115000D01*
X20923500Y6120000D01*
X20919500Y6124000D01*
X20915500Y6129000D01*
X20911500Y6135000D01*
X20908500Y6140000D01*
X20905500Y6146000D01*
X20902500Y6151000D01*
X20900500Y6157000D01*
X20898500Y6163000D01*
X20896500Y6169000D01*
X20895500Y6175000D01*
X20893500Y6181000D01*
X20893500Y6187000D01*
X20892500Y6194000D01*
X20892500Y6200000D01*
X20892500Y7400000D01*
X20892500Y7406000D01*
X20893500Y7413000D01*
X20893500Y7419000D01*
X20895500Y7425000D01*
X20896500Y7431000D01*
X20898500Y7437000D01*
X20900500Y7443000D01*
X20902500Y7449000D01*
X20905500Y7454000D01*
X20908500Y7460000D01*
X20911500Y7465000D01*
X20915500Y7471000D01*
X20919500Y7476000D01*
X20923500Y7480000D01*
X20927500Y7485000D01*
X20932500Y7489000D01*
X20936500Y7493000D01*
X20941500Y7497000D01*
X20947500Y7501000D01*
X20952500Y7504000D01*
X20958500Y7507000D01*
X20963500Y7510000D01*
X20969500Y7512000D01*
X20975500Y7514000D01*
X20981500Y7516000D01*
X20987500Y7517000D01*
X20993500Y7519000D01*
X20999500Y7519000D01*
X21006500Y7520000D01*
X21012500Y7520000D01*
X21162500Y7520000D01*
X21168500Y7520000D01*
X21175500Y7519000D01*
G37*
X21175500Y5719000D02*
X21181500Y5719000D01*
X21187500Y5717000D01*
X21193500Y5716000D01*
X21199500Y5714000D01*
X21205500Y5712000D01*
X21211500Y5710000D01*
X21216500Y5707000D01*
X21222500Y5704000D01*
X21227500Y5701000D01*
X21233500Y5697000D01*
X21238500Y5693000D01*
X21242500Y5689000D01*
X21247500Y5685000D01*
X21251500Y5680000D01*
X21255500Y5676000D01*
X21259500Y5671000D01*
X21263500Y5665000D01*
X21266500Y5660000D01*
X21269500Y5654000D01*
X21272500Y5649000D01*
X21274500Y5643000D01*
X21276500Y5637000D01*
X21278500Y5631000D01*
X21279500Y5625000D01*
X21281500Y5619000D01*
X21281500Y5613000D01*
X21282500Y5606000D01*
X21282500Y5600000D01*
X21282500Y5100000D01*
X21282500Y5094000D01*
X21281500Y5087000D01*
X21281500Y5081000D01*
X21279500Y5075000D01*
X21278500Y5069000D01*
X21276500Y5063000D01*
X21274500Y5057000D01*
X21272500Y5051000D01*
X21269500Y5046000D01*
X21266500Y5040000D01*
X21263500Y5035000D01*
X21259500Y5029000D01*
X21255500Y5024000D01*
X21251500Y5020000D01*
X21247500Y5015000D01*
X21242500Y5011000D01*
X21238500Y5007000D01*
X21233500Y5003000D01*
X21227500Y4999000D01*
X21222500Y4996000D01*
X21216500Y4993000D01*
X21211500Y4990000D01*
X21205500Y4988000D01*
X21199500Y4986000D01*
X21193500Y4984000D01*
X21187500Y4983000D01*
X21181500Y4981000D01*
X21175500Y4981000D01*
X21168500Y4980000D01*
X21162500Y4980000D01*
X21012500Y4980000D01*
X21006500Y4980000D01*
X20999500Y4981000D01*
X20993500Y4981000D01*
X20987500Y4983000D01*
X20981500Y4984000D01*
X20975500Y4986000D01*
X20969500Y4988000D01*
X20963500Y4990000D01*
X20958500Y4993000D01*
X20952500Y4996000D01*
X20947500Y4999000D01*
X20941500Y5003000D01*
X20936500Y5007000D01*
X20932500Y5011000D01*
X20927500Y5015000D01*
X20923500Y5020000D01*
X20919500Y5024000D01*
X20915500Y5029000D01*
X20911500Y5035000D01*
X20908500Y5040000D01*
X20905500Y5046000D01*
X20902500Y5051000D01*
X20900500Y5057000D01*
X20898500Y5063000D01*
X20896500Y5069000D01*
X20895500Y5075000D01*
X20893500Y5081000D01*
X20893500Y5087000D01*
X20892500Y5094000D01*
X20892500Y5100000D01*
X20892500Y5600000D01*
X20892500Y5606000D01*
X20893500Y5613000D01*
X20893500Y5619000D01*
X20895500Y5625000D01*
X20896500Y5631000D01*
X20898500Y5637000D01*
X20900500Y5643000D01*
X20902500Y5649000D01*
X20905500Y5654000D01*
X20908500Y5660000D01*
X20911500Y5665000D01*
X20915500Y5671000D01*
X20919500Y5676000D01*
X20923500Y5680000D01*
X20927500Y5685000D01*
X20932500Y5689000D01*
X20936500Y5693000D01*
X20941500Y5697000D01*
X20947500Y5701000D01*
X20952500Y5704000D01*
X20958500Y5707000D01*
X20963500Y5710000D01*
X20969500Y5712000D01*
X20975500Y5714000D01*
X20981500Y5716000D01*
X20987500Y5717000D01*
X20993500Y5719000D01*
X20999500Y5719000D01*
X21006500Y5720000D01*
X21012500Y5720000D01*
X21162500Y5720000D01*
X21168500Y5720000D01*
X21175500Y5719000D01*
G36*
X21175500Y5719000D02*
G01*
X21181500Y5719000D01*
X21187500Y5717000D01*
X21193500Y5716000D01*
X21199500Y5714000D01*
X21205500Y5712000D01*
X21211500Y5710000D01*
X21216500Y5707000D01*
X21222500Y5704000D01*
X21227500Y5701000D01*
X21233500Y5697000D01*
X21238500Y5693000D01*
X21242500Y5689000D01*
X21247500Y5685000D01*
X21251500Y5680000D01*
X21255500Y5676000D01*
X21259500Y5671000D01*
X21263500Y5665000D01*
X21266500Y5660000D01*
X21269500Y5654000D01*
X21272500Y5649000D01*
X21274500Y5643000D01*
X21276500Y5637000D01*
X21278500Y5631000D01*
X21279500Y5625000D01*
X21281500Y5619000D01*
X21281500Y5613000D01*
X21282500Y5606000D01*
X21282500Y5600000D01*
X21282500Y5100000D01*
X21282500Y5094000D01*
X21281500Y5087000D01*
X21281500Y5081000D01*
X21279500Y5075000D01*
X21278500Y5069000D01*
X21276500Y5063000D01*
X21274500Y5057000D01*
X21272500Y5051000D01*
X21269500Y5046000D01*
X21266500Y5040000D01*
X21263500Y5035000D01*
X21259500Y5029000D01*
X21255500Y5024000D01*
X21251500Y5020000D01*
X21247500Y5015000D01*
X21242500Y5011000D01*
X21238500Y5007000D01*
X21233500Y5003000D01*
X21227500Y4999000D01*
X21222500Y4996000D01*
X21216500Y4993000D01*
X21211500Y4990000D01*
X21205500Y4988000D01*
X21199500Y4986000D01*
X21193500Y4984000D01*
X21187500Y4983000D01*
X21181500Y4981000D01*
X21175500Y4981000D01*
X21168500Y4980000D01*
X21162500Y4980000D01*
X21012500Y4980000D01*
X21006500Y4980000D01*
X20999500Y4981000D01*
X20993500Y4981000D01*
X20987500Y4983000D01*
X20981500Y4984000D01*
X20975500Y4986000D01*
X20969500Y4988000D01*
X20963500Y4990000D01*
X20958500Y4993000D01*
X20952500Y4996000D01*
X20947500Y4999000D01*
X20941500Y5003000D01*
X20936500Y5007000D01*
X20932500Y5011000D01*
X20927500Y5015000D01*
X20923500Y5020000D01*
X20919500Y5024000D01*
X20915500Y5029000D01*
X20911500Y5035000D01*
X20908500Y5040000D01*
X20905500Y5046000D01*
X20902500Y5051000D01*
X20900500Y5057000D01*
X20898500Y5063000D01*
X20896500Y5069000D01*
X20895500Y5075000D01*
X20893500Y5081000D01*
X20893500Y5087000D01*
X20892500Y5094000D01*
X20892500Y5100000D01*
X20892500Y5600000D01*
X20892500Y5606000D01*
X20893500Y5613000D01*
X20893500Y5619000D01*
X20895500Y5625000D01*
X20896500Y5631000D01*
X20898500Y5637000D01*
X20900500Y5643000D01*
X20902500Y5649000D01*
X20905500Y5654000D01*
X20908500Y5660000D01*
X20911500Y5665000D01*
X20915500Y5671000D01*
X20919500Y5676000D01*
X20923500Y5680000D01*
X20927500Y5685000D01*
X20932500Y5689000D01*
X20936500Y5693000D01*
X20941500Y5697000D01*
X20947500Y5701000D01*
X20952500Y5704000D01*
X20958500Y5707000D01*
X20963500Y5710000D01*
X20969500Y5712000D01*
X20975500Y5714000D01*
X20981500Y5716000D01*
X20987500Y5717000D01*
X20993500Y5719000D01*
X20999500Y5719000D01*
X21006500Y5720000D01*
X21012500Y5720000D01*
X21162500Y5720000D01*
X21168500Y5720000D01*
X21175500Y5719000D01*
G37*
X21675500Y7519000D02*
X21681500Y7519000D01*
X21687500Y7517000D01*
X21693500Y7516000D01*
X21699500Y7514000D01*
X21705500Y7512000D01*
X21711500Y7510000D01*
X21716500Y7507000D01*
X21722500Y7504000D01*
X21727500Y7501000D01*
X21733500Y7497000D01*
X21738500Y7493000D01*
X21742500Y7489000D01*
X21747500Y7485000D01*
X21751500Y7480000D01*
X21755500Y7476000D01*
X21759500Y7471000D01*
X21763500Y7465000D01*
X21766500Y7460000D01*
X21769500Y7454000D01*
X21772500Y7449000D01*
X21774500Y7443000D01*
X21776500Y7437000D01*
X21778500Y7431000D01*
X21779500Y7425000D01*
X21781500Y7419000D01*
X21781500Y7413000D01*
X21782500Y7406000D01*
X21782500Y7400000D01*
X21782500Y6600000D01*
X21782500Y6594000D01*
X21781500Y6587000D01*
X21781500Y6581000D01*
X21779500Y6575000D01*
X21778500Y6569000D01*
X21776500Y6563000D01*
X21774500Y6557000D01*
X21772500Y6551000D01*
X21769500Y6546000D01*
X21766500Y6540000D01*
X21763500Y6535000D01*
X21759500Y6529000D01*
X21755500Y6524000D01*
X21751500Y6520000D01*
X21747500Y6515000D01*
X21742500Y6511000D01*
X21738500Y6507000D01*
X21733500Y6503000D01*
X21727500Y6499000D01*
X21722500Y6496000D01*
X21716500Y6493000D01*
X21711500Y6490000D01*
X21705500Y6488000D01*
X21699500Y6486000D01*
X21693500Y6484000D01*
X21687500Y6483000D01*
X21681500Y6481000D01*
X21675500Y6481000D01*
X21668500Y6480000D01*
X21662500Y6480000D01*
X21512500Y6480000D01*
X21506500Y6480000D01*
X21499500Y6481000D01*
X21493500Y6481000D01*
X21487500Y6483000D01*
X21481500Y6484000D01*
X21475500Y6486000D01*
X21469500Y6488000D01*
X21463500Y6490000D01*
X21458500Y6493000D01*
X21452500Y6496000D01*
X21447500Y6499000D01*
X21441500Y6503000D01*
X21436500Y6507000D01*
X21432500Y6511000D01*
X21427500Y6515000D01*
X21423500Y6520000D01*
X21419500Y6524000D01*
X21415500Y6529000D01*
X21411500Y6535000D01*
X21408500Y6540000D01*
X21405500Y6546000D01*
X21402500Y6551000D01*
X21400500Y6557000D01*
X21398500Y6563000D01*
X21396500Y6569000D01*
X21395500Y6575000D01*
X21393500Y6581000D01*
X21393500Y6587000D01*
X21392500Y6594000D01*
X21392500Y6600000D01*
X21392500Y7400000D01*
X21392500Y7406000D01*
X21393500Y7413000D01*
X21393500Y7419000D01*
X21395500Y7425000D01*
X21396500Y7431000D01*
X21398500Y7437000D01*
X21400500Y7443000D01*
X21402500Y7449000D01*
X21405500Y7454000D01*
X21408500Y7460000D01*
X21411500Y7465000D01*
X21415500Y7471000D01*
X21419500Y7476000D01*
X21423500Y7480000D01*
X21427500Y7485000D01*
X21432500Y7489000D01*
X21436500Y7493000D01*
X21441500Y7497000D01*
X21447500Y7501000D01*
X21452500Y7504000D01*
X21458500Y7507000D01*
X21463500Y7510000D01*
X21469500Y7512000D01*
X21475500Y7514000D01*
X21481500Y7516000D01*
X21487500Y7517000D01*
X21493500Y7519000D01*
X21499500Y7519000D01*
X21506500Y7520000D01*
X21512500Y7520000D01*
X21662500Y7520000D01*
X21668500Y7520000D01*
X21675500Y7519000D01*
G36*
X21675500Y7519000D02*
G01*
X21681500Y7519000D01*
X21687500Y7517000D01*
X21693500Y7516000D01*
X21699500Y7514000D01*
X21705500Y7512000D01*
X21711500Y7510000D01*
X21716500Y7507000D01*
X21722500Y7504000D01*
X21727500Y7501000D01*
X21733500Y7497000D01*
X21738500Y7493000D01*
X21742500Y7489000D01*
X21747500Y7485000D01*
X21751500Y7480000D01*
X21755500Y7476000D01*
X21759500Y7471000D01*
X21763500Y7465000D01*
X21766500Y7460000D01*
X21769500Y7454000D01*
X21772500Y7449000D01*
X21774500Y7443000D01*
X21776500Y7437000D01*
X21778500Y7431000D01*
X21779500Y7425000D01*
X21781500Y7419000D01*
X21781500Y7413000D01*
X21782500Y7406000D01*
X21782500Y7400000D01*
X21782500Y6600000D01*
X21782500Y6594000D01*
X21781500Y6587000D01*
X21781500Y6581000D01*
X21779500Y6575000D01*
X21778500Y6569000D01*
X21776500Y6563000D01*
X21774500Y6557000D01*
X21772500Y6551000D01*
X21769500Y6546000D01*
X21766500Y6540000D01*
X21763500Y6535000D01*
X21759500Y6529000D01*
X21755500Y6524000D01*
X21751500Y6520000D01*
X21747500Y6515000D01*
X21742500Y6511000D01*
X21738500Y6507000D01*
X21733500Y6503000D01*
X21727500Y6499000D01*
X21722500Y6496000D01*
X21716500Y6493000D01*
X21711500Y6490000D01*
X21705500Y6488000D01*
X21699500Y6486000D01*
X21693500Y6484000D01*
X21687500Y6483000D01*
X21681500Y6481000D01*
X21675500Y6481000D01*
X21668500Y6480000D01*
X21662500Y6480000D01*
X21512500Y6480000D01*
X21506500Y6480000D01*
X21499500Y6481000D01*
X21493500Y6481000D01*
X21487500Y6483000D01*
X21481500Y6484000D01*
X21475500Y6486000D01*
X21469500Y6488000D01*
X21463500Y6490000D01*
X21458500Y6493000D01*
X21452500Y6496000D01*
X21447500Y6499000D01*
X21441500Y6503000D01*
X21436500Y6507000D01*
X21432500Y6511000D01*
X21427500Y6515000D01*
X21423500Y6520000D01*
X21419500Y6524000D01*
X21415500Y6529000D01*
X21411500Y6535000D01*
X21408500Y6540000D01*
X21405500Y6546000D01*
X21402500Y6551000D01*
X21400500Y6557000D01*
X21398500Y6563000D01*
X21396500Y6569000D01*
X21395500Y6575000D01*
X21393500Y6581000D01*
X21393500Y6587000D01*
X21392500Y6594000D01*
X21392500Y6600000D01*
X21392500Y7400000D01*
X21392500Y7406000D01*
X21393500Y7413000D01*
X21393500Y7419000D01*
X21395500Y7425000D01*
X21396500Y7431000D01*
X21398500Y7437000D01*
X21400500Y7443000D01*
X21402500Y7449000D01*
X21405500Y7454000D01*
X21408500Y7460000D01*
X21411500Y7465000D01*
X21415500Y7471000D01*
X21419500Y7476000D01*
X21423500Y7480000D01*
X21427500Y7485000D01*
X21432500Y7489000D01*
X21436500Y7493000D01*
X21441500Y7497000D01*
X21447500Y7501000D01*
X21452500Y7504000D01*
X21458500Y7507000D01*
X21463500Y7510000D01*
X21469500Y7512000D01*
X21475500Y7514000D01*
X21481500Y7516000D01*
X21487500Y7517000D01*
X21493500Y7519000D01*
X21499500Y7519000D01*
X21506500Y7520000D01*
X21512500Y7520000D01*
X21662500Y7520000D01*
X21668500Y7520000D01*
X21675500Y7519000D01*
G37*
X21675500Y5719000D02*
X21681500Y5719000D01*
X21687500Y5717000D01*
X21693500Y5716000D01*
X21699500Y5714000D01*
X21705500Y5712000D01*
X21711500Y5710000D01*
X21716500Y5707000D01*
X21722500Y5704000D01*
X21727500Y5701000D01*
X21733500Y5697000D01*
X21738500Y5693000D01*
X21742500Y5689000D01*
X21747500Y5685000D01*
X21751500Y5680000D01*
X21755500Y5676000D01*
X21759500Y5671000D01*
X21763500Y5665000D01*
X21766500Y5660000D01*
X21769500Y5654000D01*
X21772500Y5649000D01*
X21774500Y5643000D01*
X21776500Y5637000D01*
X21778500Y5631000D01*
X21779500Y5625000D01*
X21781500Y5619000D01*
X21781500Y5613000D01*
X21782500Y5606000D01*
X21782500Y5600000D01*
X21782500Y5100000D01*
X21782500Y5094000D01*
X21781500Y5087000D01*
X21781500Y5081000D01*
X21779500Y5075000D01*
X21778500Y5069000D01*
X21776500Y5063000D01*
X21774500Y5057000D01*
X21772500Y5051000D01*
X21769500Y5046000D01*
X21766500Y5040000D01*
X21763500Y5035000D01*
X21759500Y5029000D01*
X21755500Y5024000D01*
X21751500Y5020000D01*
X21747500Y5015000D01*
X21742500Y5011000D01*
X21738500Y5007000D01*
X21733500Y5003000D01*
X21727500Y4999000D01*
X21722500Y4996000D01*
X21716500Y4993000D01*
X21711500Y4990000D01*
X21705500Y4988000D01*
X21699500Y4986000D01*
X21693500Y4984000D01*
X21687500Y4983000D01*
X21681500Y4981000D01*
X21675500Y4981000D01*
X21668500Y4980000D01*
X21662500Y4980000D01*
X21512500Y4980000D01*
X21506500Y4980000D01*
X21499500Y4981000D01*
X21493500Y4981000D01*
X21487500Y4983000D01*
X21481500Y4984000D01*
X21475500Y4986000D01*
X21469500Y4988000D01*
X21463500Y4990000D01*
X21458500Y4993000D01*
X21452500Y4996000D01*
X21447500Y4999000D01*
X21441500Y5003000D01*
X21436500Y5007000D01*
X21432500Y5011000D01*
X21427500Y5015000D01*
X21423500Y5020000D01*
X21419500Y5024000D01*
X21415500Y5029000D01*
X21411500Y5035000D01*
X21408500Y5040000D01*
X21405500Y5046000D01*
X21402500Y5051000D01*
X21400500Y5057000D01*
X21398500Y5063000D01*
X21396500Y5069000D01*
X21395500Y5075000D01*
X21393500Y5081000D01*
X21393500Y5087000D01*
X21392500Y5094000D01*
X21392500Y5100000D01*
X21392500Y5600000D01*
X21392500Y5606000D01*
X21393500Y5613000D01*
X21393500Y5619000D01*
X21395500Y5625000D01*
X21396500Y5631000D01*
X21398500Y5637000D01*
X21400500Y5643000D01*
X21402500Y5649000D01*
X21405500Y5654000D01*
X21408500Y5660000D01*
X21411500Y5665000D01*
X21415500Y5671000D01*
X21419500Y5676000D01*
X21423500Y5680000D01*
X21427500Y5685000D01*
X21432500Y5689000D01*
X21436500Y5693000D01*
X21441500Y5697000D01*
X21447500Y5701000D01*
X21452500Y5704000D01*
X21458500Y5707000D01*
X21463500Y5710000D01*
X21469500Y5712000D01*
X21475500Y5714000D01*
X21481500Y5716000D01*
X21487500Y5717000D01*
X21493500Y5719000D01*
X21499500Y5719000D01*
X21506500Y5720000D01*
X21512500Y5720000D01*
X21662500Y5720000D01*
X21668500Y5720000D01*
X21675500Y5719000D01*
G36*
X21675500Y5719000D02*
G01*
X21681500Y5719000D01*
X21687500Y5717000D01*
X21693500Y5716000D01*
X21699500Y5714000D01*
X21705500Y5712000D01*
X21711500Y5710000D01*
X21716500Y5707000D01*
X21722500Y5704000D01*
X21727500Y5701000D01*
X21733500Y5697000D01*
X21738500Y5693000D01*
X21742500Y5689000D01*
X21747500Y5685000D01*
X21751500Y5680000D01*
X21755500Y5676000D01*
X21759500Y5671000D01*
X21763500Y5665000D01*
X21766500Y5660000D01*
X21769500Y5654000D01*
X21772500Y5649000D01*
X21774500Y5643000D01*
X21776500Y5637000D01*
X21778500Y5631000D01*
X21779500Y5625000D01*
X21781500Y5619000D01*
X21781500Y5613000D01*
X21782500Y5606000D01*
X21782500Y5600000D01*
X21782500Y5100000D01*
X21782500Y5094000D01*
X21781500Y5087000D01*
X21781500Y5081000D01*
X21779500Y5075000D01*
X21778500Y5069000D01*
X21776500Y5063000D01*
X21774500Y5057000D01*
X21772500Y5051000D01*
X21769500Y5046000D01*
X21766500Y5040000D01*
X21763500Y5035000D01*
X21759500Y5029000D01*
X21755500Y5024000D01*
X21751500Y5020000D01*
X21747500Y5015000D01*
X21742500Y5011000D01*
X21738500Y5007000D01*
X21733500Y5003000D01*
X21727500Y4999000D01*
X21722500Y4996000D01*
X21716500Y4993000D01*
X21711500Y4990000D01*
X21705500Y4988000D01*
X21699500Y4986000D01*
X21693500Y4984000D01*
X21687500Y4983000D01*
X21681500Y4981000D01*
X21675500Y4981000D01*
X21668500Y4980000D01*
X21662500Y4980000D01*
X21512500Y4980000D01*
X21506500Y4980000D01*
X21499500Y4981000D01*
X21493500Y4981000D01*
X21487500Y4983000D01*
X21481500Y4984000D01*
X21475500Y4986000D01*
X21469500Y4988000D01*
X21463500Y4990000D01*
X21458500Y4993000D01*
X21452500Y4996000D01*
X21447500Y4999000D01*
X21441500Y5003000D01*
X21436500Y5007000D01*
X21432500Y5011000D01*
X21427500Y5015000D01*
X21423500Y5020000D01*
X21419500Y5024000D01*
X21415500Y5029000D01*
X21411500Y5035000D01*
X21408500Y5040000D01*
X21405500Y5046000D01*
X21402500Y5051000D01*
X21400500Y5057000D01*
X21398500Y5063000D01*
X21396500Y5069000D01*
X21395500Y5075000D01*
X21393500Y5081000D01*
X21393500Y5087000D01*
X21392500Y5094000D01*
X21392500Y5100000D01*
X21392500Y5600000D01*
X21392500Y5606000D01*
X21393500Y5613000D01*
X21393500Y5619000D01*
X21395500Y5625000D01*
X21396500Y5631000D01*
X21398500Y5637000D01*
X21400500Y5643000D01*
X21402500Y5649000D01*
X21405500Y5654000D01*
X21408500Y5660000D01*
X21411500Y5665000D01*
X21415500Y5671000D01*
X21419500Y5676000D01*
X21423500Y5680000D01*
X21427500Y5685000D01*
X21432500Y5689000D01*
X21436500Y5693000D01*
X21441500Y5697000D01*
X21447500Y5701000D01*
X21452500Y5704000D01*
X21458500Y5707000D01*
X21463500Y5710000D01*
X21469500Y5712000D01*
X21475500Y5714000D01*
X21481500Y5716000D01*
X21487500Y5717000D01*
X21493500Y5719000D01*
X21499500Y5719000D01*
X21506500Y5720000D01*
X21512500Y5720000D01*
X21662500Y5720000D01*
X21668500Y5720000D01*
X21675500Y5719000D01*
G37*
X22175500Y7519000D02*
X22181500Y7519000D01*
X22187500Y7517000D01*
X22193500Y7516000D01*
X22199500Y7514000D01*
X22205500Y7512000D01*
X22211500Y7510000D01*
X22216500Y7507000D01*
X22222500Y7504000D01*
X22227500Y7501000D01*
X22233500Y7497000D01*
X22238500Y7493000D01*
X22242500Y7489000D01*
X22247500Y7485000D01*
X22251500Y7480000D01*
X22255500Y7476000D01*
X22259500Y7471000D01*
X22263500Y7465000D01*
X22266500Y7460000D01*
X22269500Y7454000D01*
X22272500Y7449000D01*
X22274500Y7443000D01*
X22276500Y7437000D01*
X22278500Y7431000D01*
X22279500Y7425000D01*
X22281500Y7419000D01*
X22281500Y7413000D01*
X22282500Y7406000D01*
X22282500Y7400000D01*
X22282500Y6600000D01*
X22282500Y6594000D01*
X22281500Y6587000D01*
X22281500Y6581000D01*
X22279500Y6575000D01*
X22278500Y6569000D01*
X22276500Y6563000D01*
X22274500Y6557000D01*
X22272500Y6551000D01*
X22269500Y6546000D01*
X22266500Y6540000D01*
X22263500Y6535000D01*
X22259500Y6529000D01*
X22255500Y6524000D01*
X22251500Y6520000D01*
X22247500Y6515000D01*
X22242500Y6511000D01*
X22238500Y6507000D01*
X22233500Y6503000D01*
X22227500Y6499000D01*
X22222500Y6496000D01*
X22216500Y6493000D01*
X22211500Y6490000D01*
X22205500Y6488000D01*
X22199500Y6486000D01*
X22193500Y6484000D01*
X22187500Y6483000D01*
X22181500Y6481000D01*
X22175500Y6481000D01*
X22168500Y6480000D01*
X22162500Y6480000D01*
X22012500Y6480000D01*
X22006500Y6480000D01*
X21999500Y6481000D01*
X21993500Y6481000D01*
X21987500Y6483000D01*
X21981500Y6484000D01*
X21975500Y6486000D01*
X21969500Y6488000D01*
X21963500Y6490000D01*
X21958500Y6493000D01*
X21952500Y6496000D01*
X21947500Y6499000D01*
X21941500Y6503000D01*
X21936500Y6507000D01*
X21932500Y6511000D01*
X21927500Y6515000D01*
X21923500Y6520000D01*
X21919500Y6524000D01*
X21915500Y6529000D01*
X21911500Y6535000D01*
X21908500Y6540000D01*
X21905500Y6546000D01*
X21902500Y6551000D01*
X21900500Y6557000D01*
X21898500Y6563000D01*
X21896500Y6569000D01*
X21895500Y6575000D01*
X21893500Y6581000D01*
X21893500Y6587000D01*
X21892500Y6594000D01*
X21892500Y6600000D01*
X21892500Y7400000D01*
X21892500Y7406000D01*
X21893500Y7413000D01*
X21893500Y7419000D01*
X21895500Y7425000D01*
X21896500Y7431000D01*
X21898500Y7437000D01*
X21900500Y7443000D01*
X21902500Y7449000D01*
X21905500Y7454000D01*
X21908500Y7460000D01*
X21911500Y7465000D01*
X21915500Y7471000D01*
X21919500Y7476000D01*
X21923500Y7480000D01*
X21927500Y7485000D01*
X21932500Y7489000D01*
X21936500Y7493000D01*
X21941500Y7497000D01*
X21947500Y7501000D01*
X21952500Y7504000D01*
X21958500Y7507000D01*
X21963500Y7510000D01*
X21969500Y7512000D01*
X21975500Y7514000D01*
X21981500Y7516000D01*
X21987500Y7517000D01*
X21993500Y7519000D01*
X21999500Y7519000D01*
X22006500Y7520000D01*
X22012500Y7520000D01*
X22162500Y7520000D01*
X22168500Y7520000D01*
X22175500Y7519000D01*
G36*
X22175500Y7519000D02*
G01*
X22181500Y7519000D01*
X22187500Y7517000D01*
X22193500Y7516000D01*
X22199500Y7514000D01*
X22205500Y7512000D01*
X22211500Y7510000D01*
X22216500Y7507000D01*
X22222500Y7504000D01*
X22227500Y7501000D01*
X22233500Y7497000D01*
X22238500Y7493000D01*
X22242500Y7489000D01*
X22247500Y7485000D01*
X22251500Y7480000D01*
X22255500Y7476000D01*
X22259500Y7471000D01*
X22263500Y7465000D01*
X22266500Y7460000D01*
X22269500Y7454000D01*
X22272500Y7449000D01*
X22274500Y7443000D01*
X22276500Y7437000D01*
X22278500Y7431000D01*
X22279500Y7425000D01*
X22281500Y7419000D01*
X22281500Y7413000D01*
X22282500Y7406000D01*
X22282500Y7400000D01*
X22282500Y6600000D01*
X22282500Y6594000D01*
X22281500Y6587000D01*
X22281500Y6581000D01*
X22279500Y6575000D01*
X22278500Y6569000D01*
X22276500Y6563000D01*
X22274500Y6557000D01*
X22272500Y6551000D01*
X22269500Y6546000D01*
X22266500Y6540000D01*
X22263500Y6535000D01*
X22259500Y6529000D01*
X22255500Y6524000D01*
X22251500Y6520000D01*
X22247500Y6515000D01*
X22242500Y6511000D01*
X22238500Y6507000D01*
X22233500Y6503000D01*
X22227500Y6499000D01*
X22222500Y6496000D01*
X22216500Y6493000D01*
X22211500Y6490000D01*
X22205500Y6488000D01*
X22199500Y6486000D01*
X22193500Y6484000D01*
X22187500Y6483000D01*
X22181500Y6481000D01*
X22175500Y6481000D01*
X22168500Y6480000D01*
X22162500Y6480000D01*
X22012500Y6480000D01*
X22006500Y6480000D01*
X21999500Y6481000D01*
X21993500Y6481000D01*
X21987500Y6483000D01*
X21981500Y6484000D01*
X21975500Y6486000D01*
X21969500Y6488000D01*
X21963500Y6490000D01*
X21958500Y6493000D01*
X21952500Y6496000D01*
X21947500Y6499000D01*
X21941500Y6503000D01*
X21936500Y6507000D01*
X21932500Y6511000D01*
X21927500Y6515000D01*
X21923500Y6520000D01*
X21919500Y6524000D01*
X21915500Y6529000D01*
X21911500Y6535000D01*
X21908500Y6540000D01*
X21905500Y6546000D01*
X21902500Y6551000D01*
X21900500Y6557000D01*
X21898500Y6563000D01*
X21896500Y6569000D01*
X21895500Y6575000D01*
X21893500Y6581000D01*
X21893500Y6587000D01*
X21892500Y6594000D01*
X21892500Y6600000D01*
X21892500Y7400000D01*
X21892500Y7406000D01*
X21893500Y7413000D01*
X21893500Y7419000D01*
X21895500Y7425000D01*
X21896500Y7431000D01*
X21898500Y7437000D01*
X21900500Y7443000D01*
X21902500Y7449000D01*
X21905500Y7454000D01*
X21908500Y7460000D01*
X21911500Y7465000D01*
X21915500Y7471000D01*
X21919500Y7476000D01*
X21923500Y7480000D01*
X21927500Y7485000D01*
X21932500Y7489000D01*
X21936500Y7493000D01*
X21941500Y7497000D01*
X21947500Y7501000D01*
X21952500Y7504000D01*
X21958500Y7507000D01*
X21963500Y7510000D01*
X21969500Y7512000D01*
X21975500Y7514000D01*
X21981500Y7516000D01*
X21987500Y7517000D01*
X21993500Y7519000D01*
X21999500Y7519000D01*
X22006500Y7520000D01*
X22012500Y7520000D01*
X22162500Y7520000D01*
X22168500Y7520000D01*
X22175500Y7519000D01*
G37*
X22175500Y5719000D02*
X22181500Y5719000D01*
X22187500Y5717000D01*
X22193500Y5716000D01*
X22199500Y5714000D01*
X22205500Y5712000D01*
X22211500Y5710000D01*
X22216500Y5707000D01*
X22222500Y5704000D01*
X22227500Y5701000D01*
X22233500Y5697000D01*
X22238500Y5693000D01*
X22242500Y5689000D01*
X22247500Y5685000D01*
X22251500Y5680000D01*
X22255500Y5676000D01*
X22259500Y5671000D01*
X22263500Y5665000D01*
X22266500Y5660000D01*
X22269500Y5654000D01*
X22272500Y5649000D01*
X22274500Y5643000D01*
X22276500Y5637000D01*
X22278500Y5631000D01*
X22279500Y5625000D01*
X22281500Y5619000D01*
X22281500Y5613000D01*
X22282500Y5606000D01*
X22282500Y5600000D01*
X22282500Y5100000D01*
X22282500Y5094000D01*
X22281500Y5087000D01*
X22281500Y5081000D01*
X22279500Y5075000D01*
X22278500Y5069000D01*
X22276500Y5063000D01*
X22274500Y5057000D01*
X22272500Y5051000D01*
X22269500Y5046000D01*
X22266500Y5040000D01*
X22263500Y5035000D01*
X22259500Y5029000D01*
X22255500Y5024000D01*
X22251500Y5020000D01*
X22247500Y5015000D01*
X22242500Y5011000D01*
X22238500Y5007000D01*
X22233500Y5003000D01*
X22227500Y4999000D01*
X22222500Y4996000D01*
X22216500Y4993000D01*
X22211500Y4990000D01*
X22205500Y4988000D01*
X22199500Y4986000D01*
X22193500Y4984000D01*
X22187500Y4983000D01*
X22181500Y4981000D01*
X22175500Y4981000D01*
X22168500Y4980000D01*
X22162500Y4980000D01*
X22012500Y4980000D01*
X22006500Y4980000D01*
X21999500Y4981000D01*
X21993500Y4981000D01*
X21987500Y4983000D01*
X21981500Y4984000D01*
X21975500Y4986000D01*
X21969500Y4988000D01*
X21963500Y4990000D01*
X21958500Y4993000D01*
X21952500Y4996000D01*
X21947500Y4999000D01*
X21941500Y5003000D01*
X21936500Y5007000D01*
X21932500Y5011000D01*
X21927500Y5015000D01*
X21923500Y5020000D01*
X21919500Y5024000D01*
X21915500Y5029000D01*
X21911500Y5035000D01*
X21908500Y5040000D01*
X21905500Y5046000D01*
X21902500Y5051000D01*
X21900500Y5057000D01*
X21898500Y5063000D01*
X21896500Y5069000D01*
X21895500Y5075000D01*
X21893500Y5081000D01*
X21893500Y5087000D01*
X21892500Y5094000D01*
X21892500Y5100000D01*
X21892500Y5600000D01*
X21892500Y5606000D01*
X21893500Y5613000D01*
X21893500Y5619000D01*
X21895500Y5625000D01*
X21896500Y5631000D01*
X21898500Y5637000D01*
X21900500Y5643000D01*
X21902500Y5649000D01*
X21905500Y5654000D01*
X21908500Y5660000D01*
X21911500Y5665000D01*
X21915500Y5671000D01*
X21919500Y5676000D01*
X21923500Y5680000D01*
X21927500Y5685000D01*
X21932500Y5689000D01*
X21936500Y5693000D01*
X21941500Y5697000D01*
X21947500Y5701000D01*
X21952500Y5704000D01*
X21958500Y5707000D01*
X21963500Y5710000D01*
X21969500Y5712000D01*
X21975500Y5714000D01*
X21981500Y5716000D01*
X21987500Y5717000D01*
X21993500Y5719000D01*
X21999500Y5719000D01*
X22006500Y5720000D01*
X22012500Y5720000D01*
X22162500Y5720000D01*
X22168500Y5720000D01*
X22175500Y5719000D01*
G36*
X22175500Y5719000D02*
G01*
X22181500Y5719000D01*
X22187500Y5717000D01*
X22193500Y5716000D01*
X22199500Y5714000D01*
X22205500Y5712000D01*
X22211500Y5710000D01*
X22216500Y5707000D01*
X22222500Y5704000D01*
X22227500Y5701000D01*
X22233500Y5697000D01*
X22238500Y5693000D01*
X22242500Y5689000D01*
X22247500Y5685000D01*
X22251500Y5680000D01*
X22255500Y5676000D01*
X22259500Y5671000D01*
X22263500Y5665000D01*
X22266500Y5660000D01*
X22269500Y5654000D01*
X22272500Y5649000D01*
X22274500Y5643000D01*
X22276500Y5637000D01*
X22278500Y5631000D01*
X22279500Y5625000D01*
X22281500Y5619000D01*
X22281500Y5613000D01*
X22282500Y5606000D01*
X22282500Y5600000D01*
X22282500Y5100000D01*
X22282500Y5094000D01*
X22281500Y5087000D01*
X22281500Y5081000D01*
X22279500Y5075000D01*
X22278500Y5069000D01*
X22276500Y5063000D01*
X22274500Y5057000D01*
X22272500Y5051000D01*
X22269500Y5046000D01*
X22266500Y5040000D01*
X22263500Y5035000D01*
X22259500Y5029000D01*
X22255500Y5024000D01*
X22251500Y5020000D01*
X22247500Y5015000D01*
X22242500Y5011000D01*
X22238500Y5007000D01*
X22233500Y5003000D01*
X22227500Y4999000D01*
X22222500Y4996000D01*
X22216500Y4993000D01*
X22211500Y4990000D01*
X22205500Y4988000D01*
X22199500Y4986000D01*
X22193500Y4984000D01*
X22187500Y4983000D01*
X22181500Y4981000D01*
X22175500Y4981000D01*
X22168500Y4980000D01*
X22162500Y4980000D01*
X22012500Y4980000D01*
X22006500Y4980000D01*
X21999500Y4981000D01*
X21993500Y4981000D01*
X21987500Y4983000D01*
X21981500Y4984000D01*
X21975500Y4986000D01*
X21969500Y4988000D01*
X21963500Y4990000D01*
X21958500Y4993000D01*
X21952500Y4996000D01*
X21947500Y4999000D01*
X21941500Y5003000D01*
X21936500Y5007000D01*
X21932500Y5011000D01*
X21927500Y5015000D01*
X21923500Y5020000D01*
X21919500Y5024000D01*
X21915500Y5029000D01*
X21911500Y5035000D01*
X21908500Y5040000D01*
X21905500Y5046000D01*
X21902500Y5051000D01*
X21900500Y5057000D01*
X21898500Y5063000D01*
X21896500Y5069000D01*
X21895500Y5075000D01*
X21893500Y5081000D01*
X21893500Y5087000D01*
X21892500Y5094000D01*
X21892500Y5100000D01*
X21892500Y5600000D01*
X21892500Y5606000D01*
X21893500Y5613000D01*
X21893500Y5619000D01*
X21895500Y5625000D01*
X21896500Y5631000D01*
X21898500Y5637000D01*
X21900500Y5643000D01*
X21902500Y5649000D01*
X21905500Y5654000D01*
X21908500Y5660000D01*
X21911500Y5665000D01*
X21915500Y5671000D01*
X21919500Y5676000D01*
X21923500Y5680000D01*
X21927500Y5685000D01*
X21932500Y5689000D01*
X21936500Y5693000D01*
X21941500Y5697000D01*
X21947500Y5701000D01*
X21952500Y5704000D01*
X21958500Y5707000D01*
X21963500Y5710000D01*
X21969500Y5712000D01*
X21975500Y5714000D01*
X21981500Y5716000D01*
X21987500Y5717000D01*
X21993500Y5719000D01*
X21999500Y5719000D01*
X22006500Y5720000D01*
X22012500Y5720000D01*
X22162500Y5720000D01*
X22168500Y5720000D01*
X22175500Y5719000D01*
G37*
%TD*%
D11*
%TO.C,L1*%
X21860000Y12000000D03*
X20140000Y12000000D03*
%TD*%
D12*
%TO.C,L2*%
X29140000Y27000000D03*
X30860000Y27000000D03*
%TD*%
D13*
%TO.C,J6*%
X2000000Y5000000D03*
D14*
X2000000Y7000000D03*
X2000000Y9000000D03*
X2000000Y11000000D03*
%TD*%
D15*
%TO.C,R2*%
X58825000Y10000000D03*
X57000000Y10000000D03*
%TD*%
D16*
%TO.C,R13*%
X24000000Y6000000D03*
X24000000Y4175000D03*
%TD*%
D17*
%TO.C,C2*%
X43000000Y16000000D03*
X43000000Y14275000D03*
%TD*%
%TO.C,C7*%
X23000000Y37862500D03*
X23000000Y36137500D03*
%TD*%
D18*
%TO.C,Q1*%
X58950000Y8200000D03*
X57050000Y8200000D03*
X58000000Y5925000D03*
%TD*%
%TO.C,Q3*%
X44000000Y6000000D03*
X42100000Y6000000D03*
X43050000Y3725000D03*
%TD*%
D19*
%TO.C,R18*%
X35000000Y35000000D03*
X35000000Y36825000D03*
%TD*%
D20*
%TO.C,C5*%
X47137500Y23000000D03*
X48862500Y23000000D03*
%TD*%
D16*
%TO.C,R10*%
X39000000Y5912500D03*
X39000000Y4087500D03*
%TD*%
D18*
%TO.C,Q4*%
X51900000Y6000000D03*
X50000000Y6000000D03*
X50950000Y3725000D03*
%TD*%
D16*
%TO.C,R22*%
X23000000Y33825000D03*
X23000000Y32000000D03*
%TD*%
D21*
%TO.C,D1*%
X57512500Y23000000D03*
X60487500Y23000000D03*
%TD*%
D15*
%TO.C,R11*%
X23912500Y20000000D03*
X22087500Y20000000D03*
%TD*%
D18*
%TO.C,Q5*%
X32950000Y37000000D03*
X31050000Y37000000D03*
X32000000Y34725000D03*
%TD*%
D15*
%TO.C,R19*%
X29912500Y39000000D03*
X28087500Y39000000D03*
%TD*%
D22*
%TO.C,FB1*%
X69000000Y7250000D03*
X69000000Y9000000D03*
%TD*%
D23*
%TO.C,U2*%
X65000000Y15000000D03*
X67000000Y15000000D03*
X69000000Y15000000D03*
X71000000Y15000000D03*
X73000000Y15000000D03*
X75000000Y15000000D03*
X77000000Y15000000D03*
X79000000Y15000000D03*
X79000000Y31000000D03*
X77000000Y31000000D03*
X75000000Y31000000D03*
X73000000Y31000000D03*
X71000000Y31000000D03*
X69000000Y31000000D03*
X67000000Y31000000D03*
X65000000Y31000000D03*
%TD*%
D24*
%TO.C,R4*%
X60087500Y19000000D03*
X61912500Y19000000D03*
%TD*%
D13*
%TO.C,J3*%
X3000000Y27000000D03*
D14*
X3000000Y29000000D03*
X3000000Y31000000D03*
X3000000Y33000000D03*
X3000000Y35000000D03*
X3000000Y37000000D03*
%TD*%
D17*
%TO.C,C10*%
X28000000Y6000000D03*
X28000000Y4275000D03*
%TD*%
D16*
%TO.C,R3*%
X67000000Y9000000D03*
X67000000Y7175000D03*
%TD*%
D25*
%TO.C,J5*%
X34000000Y2550000D03*
D26*
X32000000Y2550000D03*
%TD*%
D27*
%TO.C,C1*%
X36000000Y18000000D03*
X34275000Y18000000D03*
%TD*%
D19*
%TO.C,R6*%
X44000000Y35087500D03*
X44000000Y36912500D03*
%TD*%
%TO.C,R8*%
X55000000Y4087500D03*
X55000000Y5912500D03*
%TD*%
%TO.C,R7*%
X47000000Y4087500D03*
X47000000Y5912500D03*
%TD*%
D16*
%TO.C,R14*%
X26000000Y6000000D03*
X26000000Y4175000D03*
%TD*%
D15*
%TO.C,R15*%
X21000000Y3000000D03*
X19175000Y3000000D03*
%TD*%
D28*
%TO.C,U1*%
X45000000Y19325000D03*
X45000000Y19825000D03*
X45000000Y20325000D03*
X45000000Y20825000D03*
X45000000Y21325000D03*
X45000000Y21825000D03*
X45000000Y22325000D03*
X45000000Y22825000D03*
X45000000Y23325000D03*
X45000000Y23825000D03*
X45000000Y24325000D03*
X45000000Y24825000D03*
D29*
X43587500Y26237500D03*
X43087500Y26237500D03*
X42587500Y26237500D03*
X42087500Y26237500D03*
X41587500Y26237500D03*
X41087500Y26237500D03*
X40587500Y26237500D03*
X40087500Y26237500D03*
X39587500Y26237500D03*
X39087500Y26237500D03*
X38587500Y26237500D03*
X38087500Y26237500D03*
D28*
X36675000Y24825000D03*
X36675000Y24325000D03*
X36675000Y23825000D03*
X36675000Y23325000D03*
X36675000Y22825000D03*
X36675000Y22325000D03*
X36675000Y21825000D03*
X36675000Y21325000D03*
X36675000Y20825000D03*
X36675000Y20325000D03*
X36675000Y19825000D03*
X36675000Y19325000D03*
D29*
X38087500Y17912500D03*
X38587500Y17912500D03*
X39087500Y17912500D03*
X39587500Y17912500D03*
X40087500Y17912500D03*
X40587500Y17912500D03*
X41087500Y17912500D03*
X41587500Y17912500D03*
X42087500Y17912500D03*
X42587500Y17912500D03*
X43087500Y17912500D03*
X43587500Y17912500D03*
%TD*%
D18*
%TO.C,Q6*%
X28900000Y37000000D03*
X27000000Y37000000D03*
X27950000Y34725000D03*
%TD*%
D17*
%TO.C,C12*%
X25000000Y34862500D03*
X25000000Y33137500D03*
%TD*%
D20*
%TO.C,C3*%
X47000000Y18000000D03*
X48725000Y18000000D03*
%TD*%
D30*
%TO.C,C9*%
X18000000Y7137500D03*
X18000000Y8862500D03*
%TD*%
D18*
%TO.C,Q2*%
X63950000Y8275000D03*
X62050000Y8275000D03*
X63000000Y6000000D03*
%TD*%
D15*
%TO.C,R12*%
X24000000Y18000000D03*
X22175000Y18000000D03*
%TD*%
D30*
%TO.C,C4*%
X7000000Y21000000D03*
X7000000Y19275000D03*
%TD*%
D19*
%TO.C,R5*%
X41000000Y35087500D03*
X41000000Y36912500D03*
%TD*%
D16*
%TO.C,R1*%
X9000000Y21050000D03*
X9000000Y19225000D03*
%TD*%
D30*
%TO.C,C6*%
X36000000Y27137500D03*
X36000000Y28862500D03*
%TD*%
D31*
%TO.C,J1*%
X20000000Y35460000D03*
D32*
X20000000Y38000000D03*
X17460000Y35460000D03*
X17460000Y38000000D03*
%TD*%
D33*
%TO.C,BT1*%
X52000000Y29000000D03*
X52000000Y14010000D03*
D34*
X24835000Y14010000D03*
D35*
X24835000Y29000000D03*
%TD*%
D31*
%TO.C,J2*%
X16460000Y20000000D03*
D32*
X19000000Y20000000D03*
X16460000Y22540000D03*
X19000000Y22540000D03*
%TD*%
D35*
%TO.C,SW1*%
X11000000Y22000000D03*
X4500000Y22000000D03*
X11000000Y17500000D03*
X4500000Y17500000D03*
%TD*%
M02*
