M48
; DRILL file {KiCad 9.0.1} date 2025-07-30T18:50:11+0300
; FORMAT={-:-/ absolute / metric / decimal}
; #@! TF.CreationDate,2025-07-30T18:50:11+03:00
; #@! TF.GenerationSoftware,Kicad,Pcbnew,9.0.1
; #@! TF.FileFunction,Plated,1,2,PTH
FMAT,2
METRIC
; #@! TA.AperFunction,Plated,PTH,ViaDrill
T1C0.300
; #@! TA.AperFunction,Plated,PTH,ViaDrill
T2C0.400
; #@! TA.AperFunction,Plated,PTH,ViaDrill
T3C0.500
; #@! TA.AperFunction,Plated,PTH,ViaDrill
T4C0.600
; #@! TA.AperFunction,Plated,PTH,ComponentDrill
T5C0.750
; #@! TA.AperFunction,Plated,PTH,ComponentDrill
T6C1.000
; #@! TA.AperFunction,Plated,PTH,ComponentDrill
T7C1.020
; #@! TA.AperFunction,Plated,PTH,ComponentDrill
T8C1.100
%
G90
G05
T1
X2.0Y15.0
X4.0Y13.0
X8.0Y23.05
X11.0Y40.0
X12.0Y12.0
X13.0Y32.0
X13.0Y19.0
X15.0Y12.0
X17.0Y10.0
X17.0Y3.0
X19.0Y31.0
X19.0Y16.0
X21.0Y31.0
X21.0Y19.0
X21.0Y9.0
X22.0Y21.339
X23.0Y17.0
X24.0Y31.0
X24.0Y24.0
X24.0Y21.939
X24.391Y36.478
X24.5Y37.5
X25.0Y31.0
X25.0Y19.0
X25.0Y17.0
X25.0Y7.0
X25.51Y21.662
X26.0Y20.0
X27.6Y29.48
X28.0Y18.0
X28.0Y3.0
X30.0Y36.0
X31.0Y32.0
X31.0Y12.0
X34.0Y25.0
X34.0Y23.0
X34.0Y22.0
X34.217Y20.0
X34.282Y12.773
X35.0Y29.0
X35.0Y21.0
X36.0Y35.0
X36.0Y31.0
X36.0Y12.0
X37.0Y36.0
X37.0Y30.0
X38.012Y32.012
X38.087Y19.168
X38.587Y16.412
X39.237Y25.0
X40.0Y32.0
X40.018Y30.006
X40.987Y29.0
X41.0Y13.399
X41.0Y7.0
X42.0Y24.0
X42.0Y11.0
X43.0Y38.0
X43.0Y25.0
X43.762Y21.879
X44.0Y39.0
X46.0Y29.0
X46.576Y27.576
X46.601Y37.399
X47.0Y20.325
X47.189Y26.962
X48.0Y14.0
X48.0Y7.0
X49.0Y33.0
X49.0Y12.0
X51.0Y24.0
X51.0Y22.0
X51.0Y20.325
X51.0Y17.0
X52.0Y9.0
X54.0Y38.0
X54.0Y7.0
X55.0Y24.0
X56.0Y19.0
X58.0Y19.0
X63.0Y13.0
X63.0Y10.0
X64.0Y37.0
X64.066Y23.066
X67.0Y36.0
X67.0Y34.0
X69.0Y34.0
X69.566Y17.566
X75.0Y13.0
T2
X40.0Y21.0
X40.0Y20.0
X41.0Y23.0
X41.0Y20.0
X42.0Y23.0
X42.0Y22.0
X43.0Y23.0
X43.0Y21.0
T3
X67.0Y27.0
X67.0Y23.0
X67.0Y19.0
X69.0Y25.0
X69.0Y21.0
X72.0Y27.0
X72.0Y23.0
X72.0Y19.0
X75.0Y25.0
X75.0Y21.0
X77.0Y27.0
X77.0Y23.0
X77.0Y19.0
T4
X7.0Y17.0
X9.0Y11.0
X18.0Y5.0
X29.0Y10.0
T5
X2.0Y11.0
X2.0Y9.0
X2.0Y7.0
X2.0Y5.0
X3.0Y37.0
X3.0Y35.0
X3.0Y33.0
X3.0Y31.0
X3.0Y29.0
X3.0Y27.0
X32.0Y2.55
X34.0Y2.55
T6
X16.46Y22.54
X16.46Y20.0
X17.46Y38.0
X17.46Y35.46
X19.0Y22.54
X19.0Y20.0
X20.0Y38.0
X20.0Y35.46
T7
X24.835Y29.0
X24.835Y14.01
T8
X4.5Y22.0
X4.5Y17.5
X11.0Y22.0
X11.0Y17.5
M30
