%TF.GenerationSoftware,KiCad,Pcbnew,9.0.1*%
%TF.CreationDate,2025-07-30T18:50:42+03:00*%
%TF.ProjectId,FlameSensorSender,466c616d-6553-4656-9e73-6f7253656e64,1*%
%TF.SameCoordinates,PX38aa39cPY518a060*%
%TF.FileFunction,Copper,L2,Bot*%
%TF.FilePolarity,Positive*%
%FSLAX46Y46*%
G04 Gerber Fmt 4.6, Leading zero omitted, Abs format (unit mm)*
G04 Created by KiCad (PCBNEW 9.0.1) date 2025-07-30 18:50:42*
%MOMM*%
%LPD*%
G01*
G04 APERTURE LIST*
G04 Aperture macros list*
%AMRoundRect*
0 Rectangle with rounded corners*
0 $1 Rounding radius*
0 $2 $3 $4 $5 $6 $7 $8 $9 X,Y pos of 4 corners*
0 Add a 4 corners polygon primitive as box body*
4,1,4,$2,$3,$4,$5,$6,$7,$8,$9,$2,$3,0*
0 Add four circle primitives for the rounded corners*
1,1,$1+$1,$2,$3*
1,1,$1+$1,$4,$5*
1,1,$1+$1,$6,$7*
1,1,$1+$1,$8,$9*
0 Add four rect primitives between the rounded corners*
20,1,$1+$1,$2,$3,$4,$5,0*
20,1,$1+$1,$4,$5,$6,$7,0*
20,1,$1+$1,$6,$7,$8,$9,0*
20,1,$1+$1,$8,$9,$2,$3,0*%
G04 Aperture macros list end*
%TA.AperFunction,ComponentPad*%
%ADD10RoundRect,0.250000X0.625000X-0.350000X0.625000X0.350000X-0.625000X0.350000X-0.625000X-0.350000X0*%
%TD*%
%TA.AperFunction,ComponentPad*%
%ADD11O,1.750000X1.200000*%
%TD*%
%TA.AperFunction,ComponentPad*%
%ADD12RoundRect,0.250000X0.350000X0.625000X-0.350000X0.625000X-0.350000X-0.625000X0.350000X-0.625000X0*%
%TD*%
%TA.AperFunction,ComponentPad*%
%ADD13O,1.200000X1.750000*%
%TD*%
%TA.AperFunction,SMDPad,CuDef*%
%ADD14RoundRect,0.237500X-0.237500X0.250000X-0.237500X-0.250000X0.237500X-0.250000X0.237500X0.250000X0*%
%TD*%
%TA.AperFunction,SMDPad,CuDef*%
%ADD15RoundRect,0.500000X-0.500000X0.500000X-0.500000X-0.500000X0.500000X-0.500000X0.500000X0.500000X0*%
%TD*%
%TA.AperFunction,SMDPad,CuDef*%
%ADD16RoundRect,0.237500X-0.237500X0.300000X-0.237500X-0.300000X0.237500X-0.300000X0.237500X0.300000X0*%
%TD*%
%TA.AperFunction,SMDPad,CuDef*%
%ADD17RoundRect,0.237500X0.250000X0.237500X-0.250000X0.237500X-0.250000X-0.237500X0.250000X-0.237500X0*%
%TD*%
%TA.AperFunction,ComponentPad*%
%ADD18R,1.700000X1.700000*%
%TD*%
%TA.AperFunction,ComponentPad*%
%ADD19C,1.700000*%
%TD*%
%TA.AperFunction,SMDPad,CuDef*%
%ADD20RoundRect,0.237500X0.237500X-0.250000X0.237500X0.250000X-0.237500X0.250000X-0.237500X-0.250000X0*%
%TD*%
%TA.AperFunction,ComponentPad*%
%ADD21R,2.000000X2.000000*%
%TD*%
%TA.AperFunction,ComponentPad*%
%ADD22C,2.000000*%
%TD*%
%TA.AperFunction,SMDPad,CuDef*%
%ADD23RoundRect,0.050000X-0.100000X0.285000X-0.100000X-0.285000X0.100000X-0.285000X0.100000X0.285000X0*%
%TD*%
%TA.AperFunction,SMDPad,CuDef*%
%ADD24RoundRect,0.237500X-0.250000X-0.237500X0.250000X-0.237500X0.250000X0.237500X-0.250000X0.237500X0*%
%TD*%
%TA.AperFunction,SMDPad,CuDef*%
%ADD25RoundRect,0.250000X-0.550000X1.500000X-0.550000X-1.500000X0.550000X-1.500000X0.550000X1.500000X0*%
%TD*%
%TA.AperFunction,SMDPad,CuDef*%
%ADD26RoundRect,0.250000X-0.550000X1.250000X-0.550000X-1.250000X0.550000X-1.250000X0.550000X1.250000X0*%
%TD*%
%TA.AperFunction,SMDPad,CuDef*%
%ADD27RoundRect,0.093750X0.093750X0.106250X-0.093750X0.106250X-0.093750X-0.106250X0.093750X-0.106250X0*%
%TD*%
%TA.AperFunction,HeatsinkPad*%
%ADD28R,1.000000X1.600000*%
%TD*%
%TA.AperFunction,ViaPad*%
%ADD29C,0.600000*%
%TD*%
%TA.AperFunction,ViaPad*%
%ADD30C,0.800000*%
%TD*%
%TA.AperFunction,ViaPad*%
%ADD31C,1.000000*%
%TD*%
%TA.AperFunction,ViaPad*%
%ADD32C,1.400000*%
%TD*%
%TA.AperFunction,Conductor*%
%ADD33C,0.250000*%
%TD*%
%TA.AperFunction,Conductor*%
%ADD34C,0.500000*%
%TD*%
%TA.AperFunction,Conductor*%
%ADD35C,0.200000*%
%TD*%
%TA.AperFunction,Conductor*%
%ADD36C,1.000000*%
%TD*%
G04 APERTURE END LIST*
D10*
%TO.P,J6,1,Pin_1*%
%TO.N,GNDD*%
X2000000Y5000000D03*
D11*
%TO.P,J6,2,Pin_2*%
%TO.N,Net-(J6-Pin_2)*%
X2000000Y7000000D03*
%TO.P,J6,3,Pin_3*%
%TO.N,Net-(J6-Pin_3)*%
X2000000Y9000000D03*
%TO.P,J6,4,Pin_4*%
%TO.N,Net-(J6-Pin_4)*%
X2000000Y11000000D03*
%TD*%
D10*
%TO.P,J3,1,Pin_1*%
%TO.N,/V-LED*%
X3000000Y27000000D03*
D11*
%TO.P,J3,2,Pin_2*%
%TO.N,GNDD*%
X3000000Y29000000D03*
%TO.P,J3,3,Pin_3*%
%TO.N,/SENSOR_LED*%
X3000000Y31000000D03*
%TO.P,J3,4,Pin_4*%
%TO.N,GNDD*%
X3000000Y33000000D03*
%TO.P,J3,5,Pin_5*%
%TO.N,/Vo*%
X3000000Y35000000D03*
%TO.P,J3,6,Pin_6*%
%TO.N,+5V0*%
X3000000Y37000000D03*
%TD*%
D12*
%TO.P,J5,1,Pin_1*%
%TO.N,Net-(J5-Pin_1)*%
X34000000Y2550000D03*
D13*
%TO.P,J5,2,Pin_2*%
%TO.N,GNDD*%
X32000000Y2550000D03*
%TD*%
D14*
%TO.P,R23,1*%
%TO.N,+5V0*%
X20000000Y30000000D03*
%TO.P,R23,2*%
%TO.N,Net-(U6-FB)*%
X20000000Y28175000D03*
%TD*%
D15*
%TO.P,SW2,1,1*%
%TO.N,/LINK_BUTTON*%
X8000000Y39000000D03*
%TO.P,SW2,2,2*%
%TO.N,GNDD*%
X8000000Y33000000D03*
%TD*%
D16*
%TO.P,C13,1*%
%TO.N,+5V0*%
X14000000Y29950000D03*
%TO.P,C13,2*%
%TO.N,GNDD*%
X14000000Y28225000D03*
%TD*%
D17*
%TO.P,R9,1*%
%TO.N,+5V0*%
X7912500Y28000000D03*
%TO.P,R9,2*%
%TO.N,/V-LED*%
X6087500Y28000000D03*
%TD*%
D18*
%TO.P,J1,1,Pin_1*%
%TO.N,+3V3*%
X20000000Y35460000D03*
D19*
%TO.P,J1,2,Pin_2*%
%TO.N,/SWDIO*%
X20000000Y38000000D03*
%TO.P,J1,3,Pin_3*%
%TO.N,/SWCLK*%
X17460000Y35460000D03*
%TO.P,J1,4,Pin_4*%
%TO.N,GNDD*%
X17460000Y38000000D03*
%TD*%
D20*
%TO.P,R20,1*%
%TO.N,Net-(J6-Pin_2)*%
X7000000Y12087500D03*
%TO.P,R20,2*%
%TO.N,GNDD*%
X7000000Y13912500D03*
%TD*%
D21*
%TO.P,BT1,1,+*%
%TO.N,Net-(BT1-+)*%
X24835000Y14010000D03*
D22*
%TO.P,BT1,2,-*%
%TO.N,GNDD*%
X24835000Y29000000D03*
%TD*%
D20*
%TO.P,R21,1*%
%TO.N,Net-(J6-Pin_3)*%
X5000000Y12087500D03*
%TO.P,R21,2*%
%TO.N,GNDD*%
X5000000Y13912500D03*
%TD*%
D23*
%TO.P,U5,1,GND*%
%TO.N,GNDD*%
X15500000Y14480000D03*
%TO.P,U5,2,VOUT*%
%TO.N,VRAW*%
X16000000Y14480000D03*
%TO.P,U5,3,VIN1*%
%TO.N,Net-(J6-Pin_4)*%
X16500000Y14480000D03*
%TO.P,U5,4,PR1*%
%TO.N,Net-(U5-PR1)*%
X17000000Y14480000D03*
%TO.P,U5,5,MODE*%
%TO.N,Net-(J6-Pin_4)*%
X17000000Y13000000D03*
%TO.P,U5,6,VIN2*%
%TO.N,Net-(BT1-+)*%
X16500000Y13000000D03*
%TO.P,U5,7,VOUT*%
%TO.N,VRAW*%
X16000000Y13000000D03*
%TO.P,U5,8,ST*%
%TO.N,INFO_SUPPLY*%
X15500000Y13000000D03*
%TD*%
D18*
%TO.P,J2,1,Pin_1*%
%TO.N,GNDD*%
X16460000Y20000000D03*
D19*
%TO.P,J2,2,Pin_2*%
%TO.N,/USART1_TX*%
X19000000Y20000000D03*
%TO.P,J2,3,Pin_3*%
%TO.N,unconnected-(J2-Pin_3-Pad3)*%
X16460000Y22540000D03*
%TO.P,J2,4,Pin_4*%
%TO.N,/USART1_RX*%
X19000000Y22540000D03*
%TD*%
D24*
%TO.P,R16,1*%
%TO.N,Net-(J6-Pin_4)*%
X15175000Y17000000D03*
%TO.P,R16,2*%
%TO.N,Net-(U5-PR1)*%
X17000000Y17000000D03*
%TD*%
D17*
%TO.P,R17,1*%
%TO.N,INFO_SUPPLY*%
X11000000Y13000000D03*
%TO.P,R17,2*%
%TO.N,Net-(J6-Pin_4)*%
X9175000Y13000000D03*
%TD*%
D22*
%TO.P,SW1,1,1*%
%TO.N,GNDD*%
X11000000Y22000000D03*
X4500000Y22000000D03*
%TO.P,SW1,2,2*%
%TO.N,/RESET_PIN*%
X11000000Y17500000D03*
X4500000Y17500000D03*
%TD*%
D25*
%TO.P,C8,1*%
%TO.N,/V-LED*%
X7000000Y8400000D03*
%TO.P,C8,2*%
%TO.N,GNDD*%
X7000000Y3000000D03*
%TD*%
D20*
%TO.P,R24,1*%
%TO.N,Net-(U6-FB)*%
X17000000Y28175000D03*
%TO.P,R24,2*%
%TO.N,GNDD*%
X17000000Y30000000D03*
%TD*%
D26*
%TO.P,C11,1*%
%TO.N,VRAW*%
X14000000Y7200000D03*
%TO.P,C11,2*%
%TO.N,GNDD*%
X14000000Y2800000D03*
%TD*%
D27*
%TO.P,U3,1,GND*%
%TO.N,GNDD*%
X20000000Y10300000D03*
%TO.P,U3,2,GND*%
X20000000Y9650000D03*
%TO.P,U3,3,GND*%
X20000000Y9000000D03*
%TO.P,U3,4,IN*%
%TO.N,Net-(BT1-+)*%
X18225000Y9000000D03*
%TO.P,U3,5,IN*%
X18225000Y9650000D03*
%TO.P,U3,6,IN*%
X18225000Y10300000D03*
D28*
%TO.P,U3,7,GND*%
%TO.N,GNDD*%
X19112500Y9650000D03*
%TD*%
D29*
%TO.N,GNDD*%
X63000000Y10000000D03*
X43000000Y38000000D03*
X28000000Y3000000D03*
X17000000Y10000000D03*
D30*
X40000000Y20000000D03*
D29*
X2000000Y15000000D03*
D31*
X72000000Y27000000D03*
D29*
X8000000Y23050000D03*
D30*
X41000000Y20000000D03*
X43000000Y23000000D03*
D29*
X21000000Y31000000D03*
X4000000Y13000000D03*
X26000000Y20000000D03*
D31*
X77000000Y19000000D03*
X77000000Y27000000D03*
D30*
X42000000Y22000000D03*
D29*
X34216892Y20000000D03*
X48000000Y7000000D03*
X24500000Y37500000D03*
D31*
X69000000Y25000000D03*
X77000000Y23000000D03*
D30*
X43000000Y21000000D03*
D31*
X67000000Y27000000D03*
D29*
X51000000Y17000000D03*
D31*
X69000000Y21000000D03*
X72000000Y23000000D03*
X75000000Y21000000D03*
D30*
X40000000Y21000000D03*
D29*
X38011765Y32011765D03*
X30000000Y36000000D03*
X55000000Y24000000D03*
X17000000Y3000000D03*
X27600000Y29480234D03*
D31*
X67000000Y23000000D03*
X75000000Y25000000D03*
D29*
X51000000Y22000000D03*
D31*
X67000000Y19000000D03*
D30*
X42000000Y23000000D03*
D29*
X42000000Y11000000D03*
X21000000Y9000000D03*
X37000000Y30000000D03*
X19000000Y31000000D03*
D31*
X72000000Y19000000D03*
D29*
X40000000Y32000000D03*
D30*
X41000000Y23000000D03*
D29*
%TO.N,+3V3*%
X31000000Y32000000D03*
X24390626Y36478000D03*
X23000000Y17000000D03*
X25000000Y17000000D03*
%TO.N,/RESET_PIN*%
X25000000Y19000000D03*
X21000000Y19000000D03*
X41000000Y13399000D03*
X28000000Y18000000D03*
X36000000Y12000000D03*
X13000000Y19000000D03*
X43762500Y21878617D03*
%TO.N,VRAW*%
X25000000Y7000000D03*
D32*
X29000000Y10000000D03*
X18000000Y5000000D03*
D29*
%TO.N,/SWDIO*%
X35000000Y21000000D03*
X35000000Y29000000D03*
X36000000Y31000000D03*
%TO.N,+5V0*%
X31000000Y12000000D03*
X41000000Y7000000D03*
X13000000Y32000000D03*
X25000000Y31000000D03*
%TO.N,/SWCLK*%
X38087500Y19168261D03*
%TO.N,/INFO_LED*%
X47000000Y20325000D03*
X58000000Y19000000D03*
X51000000Y20325000D03*
X56000000Y19000000D03*
%TO.N,/LORA_MOSI*%
X64000000Y37000000D03*
X67000000Y34000000D03*
%TO.N,/LORA_MISO*%
X67000000Y36000000D03*
X69000000Y34000000D03*
%TO.N,/LINK_BUTTON*%
X11000000Y40000000D03*
X46575735Y27575735D03*
X46601000Y37399000D03*
%TO.N,INFO_SUPPLY*%
X34281884Y12773000D03*
X19000000Y16000000D03*
X12000000Y12000000D03*
X15000000Y12000000D03*
%TO.N,/LORA_DIO1*%
X63000000Y13000000D03*
X51000000Y24000000D03*
X42000000Y24000000D03*
X75000000Y13000000D03*
%TO.N,/LORA_BUSY*%
X49000000Y33000000D03*
X54000000Y38000000D03*
%TO.N,/LORA_NRST*%
X69566393Y17566393D03*
X46000000Y29000000D03*
X40987500Y29000000D03*
X64066393Y23066393D03*
%TO.N,Net-(U6-FB)*%
X24000000Y31000000D03*
D32*
%TO.N,/V-LED*%
X9000000Y11000000D03*
X7000000Y17000000D03*
D29*
%TO.N,/MOSFET_GATE_LORA*%
X39237500Y25000000D03*
X48000000Y14000000D03*
%TO.N,/BUZZER*%
X52000000Y9000000D03*
X54000000Y7000000D03*
X38587500Y16412500D03*
X49000000Y12000000D03*
%TO.N,VCC_BAT*%
X47189235Y26962235D03*
X37000000Y36000000D03*
X22000000Y21339000D03*
X44000000Y39000000D03*
%TO.N,/USART1_RX*%
X25510263Y21661733D03*
X34000000Y22000000D03*
%TO.N,/USART1_TX*%
X34000000Y23000000D03*
X24000000Y21939000D03*
%TO.N,/SENSOR_LED*%
X34000000Y25000000D03*
X24000000Y24000000D03*
%TO.N,/SENSOR DATA Vo*%
X43000000Y25000000D03*
%TO.N,/Vo*%
X36000000Y35000000D03*
%TO.N,/SENSOR DATA Vo*%
X40017687Y30005758D03*
%TD*%
D33*
%TO.N,GNDD*%
X8026000Y12026000D02*
X9974000Y12026000D01*
%TO.N,Net-(J6-Pin_4)*%
X15175000Y16223130D02*
X16257130Y15141000D01*
X15175000Y16316000D02*
X15175000Y16223130D01*
%TO.N,Net-(BT1-+)*%
X18517870Y10856870D02*
X20000000Y12339000D01*
X18225000Y10856870D02*
X18517870Y10856870D01*
X20000000Y12339000D02*
X16742870Y12339000D01*
%TO.N,VCC_BAT*%
X22000000Y23000000D02*
X22000000Y21339000D01*
X25000000Y26000000D02*
X22000000Y23000000D01*
X25885298Y26000000D02*
X25000000Y26000000D01*
X28885298Y29000000D02*
X25885298Y26000000D01*
X30885298Y29000000D02*
X28885298Y29000000D01*
X37000000Y35114702D02*
X30885298Y29000000D01*
X37000000Y36000000D02*
X37000000Y35114702D01*
%TO.N,Net-(J6-Pin_2)*%
X7000000Y12000000D02*
X2000000Y7000000D01*
X7000000Y12087500D02*
X7000000Y12000000D01*
%TO.N,Net-(J6-Pin_3)*%
X5000000Y12000000D02*
X2000000Y9000000D01*
X5000000Y12087500D02*
X5000000Y12000000D01*
%TO.N,Net-(J6-Pin_4)*%
X2000000Y13000000D02*
X2000000Y11000000D01*
X4141000Y15141000D02*
X2000000Y13000000D01*
D34*
%TO.N,/V-LED*%
X7000000Y9000000D02*
X9000000Y11000000D01*
X7000000Y8400000D02*
X7000000Y9000000D01*
X7000000Y17000000D02*
X7000000Y23000000D01*
X7000000Y23000000D02*
X3000000Y27000000D01*
D33*
%TO.N,+5V0*%
X14000000Y31000000D02*
X13000000Y32000000D01*
X14000000Y29950000D02*
X14000000Y31000000D01*
%TO.N,Net-(U6-FB)*%
X20000000Y28175000D02*
X17000000Y28175000D01*
%TO.N,+5V0*%
X20000000Y31000000D02*
X19000000Y32000000D01*
X20000000Y30000000D02*
X20000000Y31000000D01*
%TO.N,Net-(U6-FB)*%
X24000000Y31000000D02*
X21175000Y28175000D01*
X21175000Y28175000D02*
X20000000Y28175000D01*
D35*
%TO.N,/Vo*%
X3000000Y35000000D02*
X11000000Y35000000D01*
D33*
%TO.N,+5V0*%
X9000000Y28000000D02*
X7912500Y28000000D01*
X13000000Y32000000D02*
X9000000Y28000000D01*
X19000000Y32000000D02*
X13000000Y32000000D01*
D34*
%TO.N,/V-LED*%
X5087500Y27000000D02*
X6087500Y28000000D01*
X3000000Y27000000D02*
X5087500Y27000000D01*
D36*
%TO.N,Net-(BT1-+)*%
X23174000Y12339000D02*
X20000000Y12339000D01*
D33*
X18225000Y10300000D02*
X18225000Y10856870D01*
X16500000Y12581870D02*
X16500000Y13000000D01*
X16742870Y12339000D02*
X16500000Y12581870D01*
X18225000Y10856870D02*
X16742870Y12339000D01*
D36*
X24835000Y14000000D02*
X23174000Y12339000D01*
D33*
X18225000Y10300000D02*
X18225000Y9000000D01*
%TO.N,GNDD*%
X25000000Y20000000D02*
X26000000Y20000000D01*
X15500000Y14480000D02*
X15020000Y14000000D01*
%TO.N,+3V3*%
X24868626Y36000000D02*
X27000000Y36000000D01*
X27000000Y36000000D02*
X31000000Y32000000D01*
X24390626Y36478000D02*
X24868626Y36000000D01*
X25000000Y17000000D02*
X23000000Y17000000D01*
D35*
%TO.N,/RESET_PIN*%
X48248943Y13399000D02*
X41000000Y13399000D01*
X11000000Y17500000D02*
X12500000Y19000000D01*
X48601000Y17040117D02*
X48601000Y13751057D01*
X43762500Y21878617D02*
X48601000Y17040117D01*
X48601000Y13751057D02*
X48248943Y13399000D01*
X21000000Y19000000D02*
X25000000Y19000000D01*
X31000000Y15000000D02*
X33000000Y15000000D01*
X28000000Y18000000D02*
X31000000Y15000000D01*
X12500000Y19000000D02*
X13000000Y19000000D01*
X33000000Y15000000D02*
X36000000Y12000000D01*
D33*
%TO.N,VRAW*%
X25000000Y7000000D02*
X27000000Y7000000D01*
D36*
X29000000Y10000000D02*
X29000000Y9000000D01*
X27000000Y7000000D02*
X25000000Y5000000D01*
D33*
X16000000Y13000000D02*
X16000000Y7000000D01*
X16000000Y13000000D02*
X16000000Y14480000D01*
D36*
X29000000Y9000000D02*
X27000000Y7000000D01*
D34*
X18000000Y5000000D02*
X16200000Y5000000D01*
D36*
X25000000Y5000000D02*
X18000000Y5000000D01*
D34*
X16200000Y5000000D02*
X14000000Y7200000D01*
D33*
X16000000Y7000000D02*
X18000000Y5000000D01*
D35*
%TO.N,/SWDIO*%
X35000000Y21000000D02*
X35000000Y29000000D01*
X36000000Y31000000D02*
X36000000Y32000001D01*
X35582900Y38850000D02*
X20850000Y38850000D01*
X20850000Y38850000D02*
X20000000Y38000000D01*
X38235500Y34235501D02*
X38235500Y36197400D01*
X36000000Y32000001D02*
X38235500Y34235501D01*
X38235500Y36197400D02*
X35582900Y38850000D01*
D33*
%TO.N,+5V0*%
X31000000Y11000000D02*
X31000000Y12000000D01*
X19000000Y32000000D02*
X24000000Y32000000D01*
X39000000Y9000000D02*
X41000000Y7000000D01*
X33000000Y9000000D02*
X31000000Y11000000D01*
X25000000Y31000000D02*
X24000000Y32000000D01*
X33000000Y9000000D02*
X39000000Y9000000D01*
D35*
%TO.N,/SWCLK*%
X38087500Y19168261D02*
X38636500Y19717261D01*
X18849000Y36849000D02*
X17460000Y35460000D01*
X18849000Y38476760D02*
X18849000Y36849000D01*
X38636500Y36363500D02*
X35749000Y39251000D01*
X19623240Y39251000D02*
X18849000Y38476760D01*
X38636500Y19717261D02*
X38636500Y36363500D01*
X35749000Y39251000D02*
X19623240Y39251000D01*
%TO.N,/INFO_LED*%
X47000000Y20325000D02*
X51000000Y20325000D01*
X56000000Y19000000D02*
X58000000Y19000000D01*
%TO.N,/LORA_MOSI*%
X64000000Y37000000D02*
X67000000Y34000000D01*
%TO.N,/LORA_MISO*%
X67000000Y36000000D02*
X69000000Y34000000D01*
%TO.N,/LINK_BUTTON*%
X8000000Y39000000D02*
X9000000Y40000000D01*
X9000000Y40000000D02*
X11000000Y40000000D01*
X46601000Y27601000D02*
X46601000Y37399000D01*
X46575735Y27575735D02*
X46601000Y27601000D01*
D33*
%TO.N,INFO_SUPPLY*%
X11000000Y13000000D02*
X12000000Y12000000D01*
X19000000Y16000000D02*
X26050168Y16000000D01*
X26050168Y16000000D02*
X29277168Y12773000D01*
X15500000Y13000000D02*
X15500000Y12500000D01*
X29277168Y12773000D02*
X34281884Y12773000D01*
X15500000Y12500000D02*
X15000000Y12000000D01*
D35*
%TO.N,/LORA_DIO1*%
X75000000Y13000000D02*
X74000000Y12000000D01*
X51000000Y24000000D02*
X42000000Y24000000D01*
X64000000Y12000000D02*
X63000000Y13000000D01*
X74000000Y12000000D02*
X64000000Y12000000D01*
%TO.N,/LORA_BUSY*%
X49000000Y33000000D02*
X54000000Y38000000D01*
%TO.N,/LORA_NRST*%
X64066393Y23066393D02*
X69566393Y17566393D01*
X40987500Y29000000D02*
X46000000Y29000000D01*
%TO.N,Net-(U5-PR1)*%
X17000000Y17000000D02*
X17000000Y14480000D01*
%TO.N,/MOSFET_GATE_LORA*%
X48000000Y14000000D02*
X40188500Y21811500D01*
X40188500Y21811500D02*
X40188500Y24049000D01*
X40188500Y24049000D02*
X39237500Y25000000D01*
%TO.N,/BUZZER*%
X38587500Y14961557D02*
X38587500Y16412500D01*
X40751057Y12798000D02*
X38587500Y14961557D01*
X40751057Y12798000D02*
X48202000Y12798000D01*
X52000000Y9000000D02*
X54000000Y7000000D01*
X48202000Y12798000D02*
X49000000Y12000000D01*
D33*
%TO.N,VCC_BAT*%
X45885298Y39000000D02*
X44000000Y39000000D01*
X47189235Y26962235D02*
X47227000Y27000000D01*
X47227000Y37658298D02*
X45885298Y39000000D01*
X47227000Y27000000D02*
X47227000Y37658298D01*
%TO.N,Net-(J6-Pin_4)*%
X10228500Y15141000D02*
X11000000Y15141000D01*
X15175000Y17000000D02*
X15175000Y16316000D01*
X16500000Y14480000D02*
X16500000Y13918130D01*
X17000000Y13418130D02*
X17000000Y13000000D01*
X14000000Y15141000D02*
X16257130Y15141000D01*
X9175000Y14087500D02*
X10228500Y15141000D01*
X16500000Y14898130D02*
X16500000Y14480000D01*
X11000000Y15141000D02*
X4141000Y15141000D01*
X15175000Y16316000D02*
X14000000Y15141000D01*
X16257130Y15141000D02*
X16500000Y14898130D01*
X16500000Y13918130D02*
X17000000Y13418130D01*
X9175000Y13000000D02*
X9175000Y14087500D01*
X11000000Y15141000D02*
X14000000Y15141000D01*
D35*
%TO.N,/USART1_RX*%
X27000000Y22000000D02*
X34000000Y22000000D01*
X26661733Y21661733D02*
X27000000Y22000000D01*
X25510263Y21661733D02*
X26661733Y21661733D01*
%TO.N,/USART1_TX*%
X24000000Y21939000D02*
X24061000Y22000000D01*
X24061000Y22000000D02*
X25000000Y22000000D01*
X26000000Y23000000D02*
X34000000Y23000000D01*
X25000000Y22000000D02*
X26000000Y23000000D01*
%TO.N,/SENSOR_LED*%
X25000000Y25000000D02*
X24000000Y24000000D01*
X34000000Y25000000D02*
X25000000Y25000000D01*
%TO.N,/SENSOR DATA Vo*%
X40011765Y27988235D02*
X43000000Y25000000D01*
%TO.N,/Vo*%
X13000000Y33000000D02*
X11000000Y35000000D01*
%TO.N,/SENSOR DATA Vo*%
X40011765Y29999836D02*
X40011765Y27988235D01*
%TO.N,/Vo*%
X25450943Y31399000D02*
X23849943Y33000000D01*
X23849943Y33000000D02*
X13000000Y33000000D01*
X32399000Y31399000D02*
X25450943Y31399000D01*
%TO.N,/SENSOR DATA Vo*%
X40017687Y30005758D02*
X40011765Y29999836D01*
%TO.N,/Vo*%
X36000000Y35000000D02*
X32399000Y31399000D01*
%TD*%
%TA.AperFunction,Conductor*%
%TO.N,Net-(BT1-+)*%
G36*
X20116201Y12806481D02*
G01*
X20169263Y12761025D01*
X20189326Y12694098D01*
X20185821Y12664117D01*
X20003193Y11912573D01*
X19968235Y11852077D01*
X19956068Y11841887D01*
X18774280Y10974534D01*
X18708588Y10950738D01*
X18700913Y10950500D01*
X18564630Y10950500D01*
X18564623Y10950499D01*
X18505015Y10944091D01*
X18413208Y10909850D01*
X18343516Y10904866D01*
X18282951Y10937601D01*
X17219522Y11982929D01*
X17185511Y12043963D01*
X17189898Y12113695D01*
X17231287Y12169986D01*
X17260952Y12186713D01*
X17372342Y12230639D01*
X17492922Y12322078D01*
X17558190Y12408148D01*
X17614382Y12449670D01*
X17638640Y12455855D01*
X20046988Y12816033D01*
X20116201Y12806481D01*
G37*
%TD.AperFunction*%
%TD*%
%TA.AperFunction,Conductor*%
%TO.N,GNDD*%
G36*
X82442539Y41479815D02*
G01*
X82488294Y41427011D01*
X82499500Y41375500D01*
X82499500Y624500D01*
X82479815Y557461D01*
X82427011Y511706D01*
X82375500Y500500D01*
X624500Y500500D01*
X557461Y520185D01*
X511706Y572989D01*
X500500Y624500D01*
X500500Y1450014D01*
X5700001Y1450014D01*
X5710494Y1347303D01*
X5765641Y1180881D01*
X5765643Y1180876D01*
X5857684Y1031655D01*
X5981654Y907685D01*
X6130875Y815644D01*
X6130880Y815642D01*
X6297302Y760495D01*
X6297309Y760494D01*
X6400019Y750001D01*
X6749999Y750001D01*
X7250000Y750001D01*
X7599972Y750001D01*
X7599986Y750002D01*
X7702697Y760495D01*
X7869119Y815642D01*
X7869124Y815644D01*
X8018345Y907685D01*
X8142315Y1031655D01*
X8234356Y1180876D01*
X8234358Y1180881D01*
X8289505Y1347303D01*
X8289506Y1347310D01*
X8299999Y1450014D01*
X8300000Y1450027D01*
X8300000Y1500014D01*
X12700001Y1500014D01*
X12710494Y1397303D01*
X12765641Y1230881D01*
X12765643Y1230876D01*
X12857684Y1081655D01*
X12981654Y957685D01*
X13130875Y865644D01*
X13130880Y865642D01*
X13297302Y810495D01*
X13297309Y810494D01*
X13400019Y800001D01*
X13749999Y800001D01*
X14250000Y800001D01*
X14599972Y800001D01*
X14599986Y800002D01*
X14702697Y810495D01*
X14869119Y865642D01*
X14869124Y865644D01*
X15018345Y957685D01*
X15142315Y1081655D01*
X15234356Y1230876D01*
X15234358Y1230881D01*
X15289505Y1397303D01*
X15289506Y1397310D01*
X15299999Y1500014D01*
X15300000Y1500027D01*
X15300000Y2550000D01*
X14250000Y2550000D01*
X14250000Y800001D01*
X13749999Y800001D01*
X13750000Y800002D01*
X13750000Y2550000D01*
X12700001Y2550000D01*
X12700001Y1500014D01*
X8300000Y1500014D01*
X8300000Y2750000D01*
X7250000Y2750000D01*
X7250000Y750001D01*
X6749999Y750001D01*
X6750000Y750002D01*
X6750000Y2750000D01*
X5700001Y2750000D01*
X5700001Y1450014D01*
X500500Y1450014D01*
X500500Y2911572D01*
X30900000Y2911572D01*
X30900000Y2800000D01*
X31719670Y2800000D01*
X31699925Y2780255D01*
X31650556Y2694745D01*
X31625000Y2599370D01*
X31625000Y2500630D01*
X31650556Y2405255D01*
X31699925Y2319745D01*
X31719670Y2300000D01*
X30900000Y2300000D01*
X30900000Y2188429D01*
X30927085Y2017416D01*
X30980591Y1852743D01*
X31059195Y1698476D01*
X31160967Y1558398D01*
X31283397Y1435968D01*
X31423475Y1334196D01*
X31577744Y1255592D01*
X31742415Y1202086D01*
X31742414Y1202086D01*
X31749999Y1200885D01*
X31750000Y1200886D01*
X31750000Y2269670D01*
X31769745Y2249925D01*
X31855255Y2200556D01*
X31950630Y2175000D01*
X32049370Y2175000D01*
X32144745Y2200556D01*
X32230255Y2249925D01*
X32250000Y2269670D01*
X32250000Y1200885D01*
X32257584Y1202086D01*
X32422255Y1255592D01*
X32576524Y1334196D01*
X32716598Y1435965D01*
X32824199Y1543566D01*
X32885522Y1577051D01*
X32955214Y1572067D01*
X33011148Y1530196D01*
X33017418Y1520984D01*
X33057288Y1456344D01*
X33181344Y1332288D01*
X33330666Y1240186D01*
X33497203Y1185001D01*
X33599991Y1174500D01*
X34400008Y1174501D01*
X34400016Y1174502D01*
X34400019Y1174502D01*
X34456302Y1180252D01*
X34502797Y1185001D01*
X34669334Y1240186D01*
X34818656Y1332288D01*
X34942712Y1456344D01*
X35034814Y1605666D01*
X35089999Y1772203D01*
X35100500Y1874991D01*
X35100499Y3225008D01*
X35089999Y3327797D01*
X35034814Y3494334D01*
X34942712Y3643656D01*
X34818656Y3767712D01*
X34725888Y3824931D01*
X34669336Y3859813D01*
X34669331Y3859815D01*
X34667862Y3860302D01*
X34502797Y3914999D01*
X34502795Y3915000D01*
X34400010Y3925500D01*
X33599998Y3925500D01*
X33599980Y3925499D01*
X33497203Y3915000D01*
X33497200Y3914999D01*
X33330668Y3859815D01*
X33330663Y3859813D01*
X33181342Y3767711D01*
X33057289Y3643658D01*
X33017420Y3579019D01*
X32965472Y3532295D01*
X32896509Y3521072D01*
X32832427Y3548916D01*
X32824200Y3556435D01*
X32716602Y3664033D01*
X32576524Y3765805D01*
X32422257Y3844409D01*
X32257589Y3897913D01*
X32257581Y3897915D01*
X32250000Y3899116D01*
X32250000Y2830330D01*
X32230255Y2850075D01*
X32144745Y2899444D01*
X32049370Y2925000D01*
X31950630Y2925000D01*
X31855255Y2899444D01*
X31769745Y2850075D01*
X31750000Y2830330D01*
X31750000Y3899116D01*
X31749999Y3899116D01*
X31742418Y3897915D01*
X31742410Y3897913D01*
X31577742Y3844409D01*
X31423475Y3765805D01*
X31283397Y3664033D01*
X31160967Y3541603D01*
X31059195Y3401525D01*
X30980591Y3247258D01*
X30927085Y3082585D01*
X30900000Y2911572D01*
X500500Y2911572D01*
X500500Y3876000D01*
X520185Y3943039D01*
X572989Y3988794D01*
X624500Y4000000D01*
X965008Y4000000D01*
X1030104Y3981539D01*
X1055871Y3965647D01*
X1055880Y3965642D01*
X1222302Y3910495D01*
X1222309Y3910494D01*
X1325019Y3900001D01*
X1749999Y3900001D01*
X1750000Y3900002D01*
X1750000Y4719670D01*
X1769745Y4699925D01*
X1855255Y4650556D01*
X1950630Y4625000D01*
X2049370Y4625000D01*
X2144745Y4650556D01*
X2230255Y4699925D01*
X2250000Y4719670D01*
X2250000Y3900001D01*
X2674972Y3900001D01*
X2674986Y3900002D01*
X2777697Y3910495D01*
X2944119Y3965642D01*
X2944124Y3965644D01*
X3093345Y4057685D01*
X3217315Y4181655D01*
X3309356Y4330876D01*
X3309358Y4330881D01*
X3364505Y4497303D01*
X3364506Y4497311D01*
X3369888Y4549987D01*
X5700000Y4549987D01*
X5700000Y3250000D01*
X6750000Y3250000D01*
X7250000Y3250000D01*
X8299999Y3250000D01*
X8299999Y4099987D01*
X12700000Y4099987D01*
X12700000Y3050000D01*
X13750000Y3050000D01*
X14250000Y3050000D01*
X15299999Y3050000D01*
X15299999Y4099972D01*
X15299998Y4099987D01*
X15289505Y4202698D01*
X15234358Y4369120D01*
X15234356Y4369125D01*
X15142315Y4518346D01*
X15018345Y4642316D01*
X14869124Y4734357D01*
X14869119Y4734359D01*
X14702697Y4789506D01*
X14702690Y4789507D01*
X14599986Y4800000D01*
X14250000Y4800000D01*
X14250000Y3050000D01*
X13750000Y3050000D01*
X13750000Y4800000D01*
X13400028Y4800000D01*
X13400012Y4799999D01*
X13297302Y4789506D01*
X13130880Y4734359D01*
X13130875Y4734357D01*
X12981654Y4642316D01*
X12857684Y4518346D01*
X12765643Y4369125D01*
X12765641Y4369120D01*
X12710494Y4202698D01*
X12710493Y4202691D01*
X12700000Y4099987D01*
X8299999Y4099987D01*
X8299999Y4549972D01*
X8299998Y4549987D01*
X8289505Y4652698D01*
X8234358Y4819120D01*
X8234356Y4819125D01*
X8142315Y4968346D01*
X8018345Y5092316D01*
X7869124Y5184357D01*
X7869119Y5184359D01*
X7702697Y5239506D01*
X7702690Y5239507D01*
X7599986Y5250000D01*
X7250000Y5250000D01*
X7250000Y3250000D01*
X6750000Y3250000D01*
X6750000Y5250000D01*
X6400028Y5250000D01*
X6400012Y5249999D01*
X6297302Y5239506D01*
X6130880Y5184359D01*
X6130875Y5184357D01*
X5981654Y5092316D01*
X5857684Y4968346D01*
X5765643Y4819125D01*
X5765641Y4819120D01*
X5710494Y4652698D01*
X5710493Y4652691D01*
X5700000Y4549987D01*
X3369888Y4549987D01*
X3371498Y4565739D01*
X3371498Y4565740D01*
X3374999Y4600012D01*
X3375000Y4600027D01*
X3375000Y4750000D01*
X2280330Y4750000D01*
X2300075Y4769745D01*
X2349444Y4855255D01*
X2375000Y4950630D01*
X2375000Y5049370D01*
X2349444Y5144745D01*
X2300075Y5230255D01*
X2280330Y5250000D01*
X3374999Y5250000D01*
X3374999Y5399972D01*
X3374998Y5399987D01*
X3364505Y5502698D01*
X3309358Y5669120D01*
X3309356Y5669125D01*
X3217315Y5818346D01*
X3093343Y5942318D01*
X3029093Y5981947D01*
X2982368Y6033895D01*
X2971145Y6102857D01*
X2998988Y6166939D01*
X3006486Y6175145D01*
X3114414Y6283072D01*
X3216232Y6423212D01*
X3294873Y6577555D01*
X3348402Y6742299D01*
X3375500Y6913389D01*
X3375500Y7086611D01*
X3348402Y7257701D01*
X3321335Y7341001D01*
X3319341Y7410839D01*
X3351584Y7466996D01*
X5487821Y9603233D01*
X5549142Y9636716D01*
X5618834Y9631732D01*
X5674767Y9589860D01*
X5699184Y9524396D01*
X5699500Y9515550D01*
X5699500Y6849999D01*
X5699501Y6849982D01*
X5710000Y6747204D01*
X5710001Y6747201D01*
X5751880Y6620821D01*
X5765186Y6580666D01*
X5857288Y6431344D01*
X5981344Y6307288D01*
X6130666Y6215186D01*
X6297203Y6160001D01*
X6399991Y6149500D01*
X7600008Y6149501D01*
X7702797Y6160001D01*
X7869334Y6215186D01*
X8018656Y6307288D01*
X8142712Y6431344D01*
X8234814Y6580666D01*
X8289999Y6747203D01*
X8300500Y6849991D01*
X8300499Y9187772D01*
X8320184Y9254810D01*
X8336814Y9275448D01*
X8824547Y9763182D01*
X8885870Y9796666D01*
X8912228Y9799500D01*
X9094486Y9799500D01*
X9281118Y9829060D01*
X9307093Y9837500D01*
X9460832Y9887453D01*
X9629199Y9973240D01*
X9782073Y10084310D01*
X9915690Y10217927D01*
X10026760Y10370801D01*
X10112547Y10539168D01*
X10170940Y10718882D01*
X10200500Y10905514D01*
X10200500Y11094487D01*
X10170940Y11281119D01*
X10137118Y11385212D01*
X10112547Y11460832D01*
X10112545Y11460835D01*
X10112545Y11460837D01*
X10056016Y11571780D01*
X10026760Y11629199D01*
X9915690Y11782073D01*
X9782073Y11915690D01*
X9782070Y11915692D01*
X9778368Y11918854D01*
X9779221Y11919854D01*
X9740223Y11970420D01*
X9734239Y12040033D01*
X9766840Y12101831D01*
X9790672Y12120955D01*
X9885850Y12179660D01*
X9999819Y12293629D01*
X10061142Y12327114D01*
X10130834Y12322130D01*
X10175181Y12293629D01*
X10289150Y12179660D01*
X10435984Y12089092D01*
X10599747Y12034826D01*
X10700823Y12024500D01*
X11039545Y12024501D01*
X11068987Y12015857D01*
X11098971Y12009334D01*
X11103985Y12005580D01*
X11106584Y12004817D01*
X11127225Y11988183D01*
X11174204Y11941205D01*
X11207690Y11879882D01*
X11208141Y11877714D01*
X11230261Y11766511D01*
X11230264Y11766499D01*
X11290602Y11620828D01*
X11290609Y11620815D01*
X11378210Y11489712D01*
X11378213Y11489708D01*
X11489707Y11378214D01*
X11489711Y11378211D01*
X11620814Y11290610D01*
X11620827Y11290603D01*
X11751757Y11236371D01*
X11766503Y11230263D01*
X11916131Y11200500D01*
X11921153Y11199501D01*
X11921156Y11199500D01*
X11921158Y11199500D01*
X12078844Y11199500D01*
X12078845Y11199501D01*
X12233497Y11230263D01*
X12379179Y11290606D01*
X12510289Y11378211D01*
X12621789Y11489711D01*
X12709394Y11620821D01*
X12769737Y11766503D01*
X12800500Y11921158D01*
X12800500Y12078842D01*
X12800500Y12078845D01*
X12800499Y12078847D01*
X12791000Y12126602D01*
X12769737Y12233497D01*
X12747517Y12287142D01*
X12709397Y12379173D01*
X12709390Y12379186D01*
X12621789Y12510289D01*
X12621786Y12510293D01*
X12510292Y12621787D01*
X12510288Y12621790D01*
X12379185Y12709391D01*
X12379172Y12709398D01*
X12233501Y12769736D01*
X12233489Y12769739D01*
X12122285Y12791859D01*
X12105528Y12800624D01*
X12087049Y12804644D01*
X12062010Y12823389D01*
X12060374Y12824244D01*
X12058795Y12825795D01*
X12024318Y12860272D01*
X11990833Y12921595D01*
X11987999Y12947953D01*
X11987999Y13286670D01*
X11987998Y13286687D01*
X11977674Y13387753D01*
X11974008Y13398816D01*
X11923408Y13551516D01*
X11832840Y13698350D01*
X11710850Y13820340D01*
X11617201Y13878103D01*
X11564018Y13910907D01*
X11564013Y13910909D01*
X11562569Y13911388D01*
X11400253Y13965174D01*
X11400251Y13965175D01*
X11299178Y13975500D01*
X10700830Y13975500D01*
X10700812Y13975499D01*
X10599747Y13965175D01*
X10435984Y13910908D01*
X10435981Y13910907D01*
X10289148Y13820339D01*
X10175181Y13706371D01*
X10167235Y13702033D01*
X10161810Y13694785D01*
X10137050Y13685551D01*
X10113858Y13672886D01*
X10104828Y13673532D01*
X10096346Y13670368D01*
X10070525Y13675985D01*
X10044166Y13677870D01*
X10035112Y13683689D01*
X10028073Y13685220D01*
X9999819Y13706371D01*
X9926820Y13779370D01*
X9893335Y13840693D01*
X9898319Y13910385D01*
X9926817Y13954729D01*
X10451271Y14479181D01*
X10512594Y14512666D01*
X10538952Y14515500D01*
X10938394Y14515500D01*
X13938393Y14515500D01*
X13938394Y14515500D01*
X14726000Y14515500D01*
X14793039Y14495815D01*
X14838794Y14443011D01*
X14850000Y14391500D01*
X14850000Y14151947D01*
X14860614Y14063556D01*
X14863670Y14055804D01*
X15137819Y14329952D01*
X15157255Y14340565D01*
X15173989Y14355065D01*
X15187320Y14356982D01*
X15199142Y14363437D01*
X15221228Y14361858D01*
X15243147Y14365009D01*
X15255398Y14359414D01*
X15268834Y14358453D01*
X15286560Y14345183D01*
X15306703Y14335984D01*
X15313985Y14324653D01*
X15324767Y14316581D01*
X15332504Y14295836D01*
X15344477Y14277206D01*
X15347628Y14255288D01*
X15349184Y14251117D01*
X15349500Y14242271D01*
X15349500Y14168731D01*
X15329815Y14101692D01*
X15313181Y14081050D01*
X15022865Y13790735D01*
X15025466Y13752714D01*
X15010402Y13684487D01*
X15000559Y13669327D01*
X14915639Y13557344D01*
X14860122Y13416562D01*
X14855633Y13379173D01*
X14849500Y13328102D01*
X14849500Y13328097D01*
X14849500Y12886879D01*
X14829815Y12819840D01*
X14777011Y12774085D01*
X14772069Y12772215D01*
X14772130Y12772068D01*
X14620827Y12709398D01*
X14620814Y12709391D01*
X14489711Y12621790D01*
X14489707Y12621787D01*
X14378213Y12510293D01*
X14378210Y12510289D01*
X14290609Y12379186D01*
X14290602Y12379173D01*
X14230264Y12233502D01*
X14230261Y12233490D01*
X14199500Y12078847D01*
X14199500Y11921154D01*
X14230261Y11766511D01*
X14230264Y11766499D01*
X14290602Y11620828D01*
X14290609Y11620815D01*
X14378210Y11489712D01*
X14378213Y11489708D01*
X14489707Y11378214D01*
X14489711Y11378211D01*
X14620814Y11290610D01*
X14620827Y11290603D01*
X14751757Y11236371D01*
X14766503Y11230263D01*
X14916131Y11200500D01*
X14921153Y11199501D01*
X14921156Y11199500D01*
X14921158Y11199500D01*
X15078844Y11199500D01*
X15226308Y11228833D01*
X15295900Y11222606D01*
X15351077Y11179743D01*
X15374322Y11113854D01*
X15374500Y11107216D01*
X15374500Y8980106D01*
X15354815Y8913067D01*
X15302011Y8867312D01*
X15232853Y8857368D01*
X15169297Y8886393D01*
X15144961Y8915009D01*
X15142712Y8918656D01*
X15018656Y9042712D01*
X14869334Y9134814D01*
X14702797Y9189999D01*
X14702795Y9190000D01*
X14600010Y9200500D01*
X13399998Y9200500D01*
X13399981Y9200499D01*
X13297203Y9190000D01*
X13297200Y9189999D01*
X13130668Y9134815D01*
X13130663Y9134813D01*
X12981342Y9042711D01*
X12857289Y8918658D01*
X12765187Y8769337D01*
X12765185Y8769332D01*
X12755052Y8738752D01*
X12710001Y8602797D01*
X12710001Y8602796D01*
X12710000Y8602796D01*
X12699500Y8500017D01*
X12699500Y5899999D01*
X12699501Y5899982D01*
X12710000Y5797204D01*
X12710001Y5797201D01*
X12765185Y5630669D01*
X12765186Y5630666D01*
X12857288Y5481344D01*
X12981344Y5357288D01*
X13130666Y5265186D01*
X13297203Y5210001D01*
X13399991Y5199500D01*
X14600008Y5199501D01*
X14702797Y5210001D01*
X14799822Y5242153D01*
X14869647Y5244554D01*
X14926505Y5212127D01*
X15721578Y4417053D01*
X15721585Y4417047D01*
X15779704Y4378214D01*
X15779706Y4378213D01*
X15779709Y4378211D01*
X15844505Y4334916D01*
X15981087Y4278342D01*
X15981091Y4278342D01*
X15981092Y4278341D01*
X16126079Y4249500D01*
X16126082Y4249500D01*
X16126083Y4249500D01*
X16273918Y4249500D01*
X17001375Y4249500D01*
X17068414Y4229815D01*
X17089056Y4213181D01*
X17217927Y4084310D01*
X17370801Y3973240D01*
X17430074Y3943039D01*
X17539163Y3887455D01*
X17539165Y3887455D01*
X17539168Y3887453D01*
X17624232Y3859814D01*
X17718881Y3829060D01*
X17905514Y3799500D01*
X17905519Y3799500D01*
X18094486Y3799500D01*
X18281118Y3829060D01*
X18460832Y3887453D01*
X18629199Y3973240D01*
X18632746Y3975817D01*
X18698552Y3999298D01*
X18705633Y3999500D01*
X25098542Y3999500D01*
X25129566Y4005672D01*
X25195188Y4018725D01*
X25291836Y4037949D01*
X25345165Y4060039D01*
X25473914Y4113368D01*
X25637782Y4222861D01*
X25777139Y4362218D01*
X25777140Y4362221D01*
X25784206Y4369286D01*
X25784208Y4369290D01*
X27777139Y6362219D01*
X29637778Y8222859D01*
X29637782Y8222861D01*
X29777139Y8362218D01*
X29886632Y8526086D01*
X29955303Y8691873D01*
X29962051Y8708164D01*
X30000500Y8901460D01*
X30000500Y9098540D01*
X30000500Y9294368D01*
X30020185Y9361407D01*
X30024177Y9367247D01*
X30026760Y9370801D01*
X30112547Y9539168D01*
X30170940Y9718882D01*
X30177956Y9763181D01*
X30200500Y9905514D01*
X30200500Y10094487D01*
X30170940Y10281119D01*
X30117627Y10445196D01*
X30112547Y10460832D01*
X30112545Y10460835D01*
X30112545Y10460837D01*
X30046285Y10590878D01*
X30026760Y10629199D01*
X29915690Y10782073D01*
X29782073Y10915690D01*
X29629199Y11026760D01*
X29590108Y11046678D01*
X29460836Y11112546D01*
X29281118Y11170941D01*
X29094486Y11200500D01*
X29094481Y11200500D01*
X28905519Y11200500D01*
X28905514Y11200500D01*
X28718881Y11170941D01*
X28539163Y11112546D01*
X28370800Y11026760D01*
X28312934Y10984717D01*
X28217927Y10915690D01*
X28217925Y10915688D01*
X28217924Y10915688D01*
X28084312Y10782076D01*
X28084312Y10782075D01*
X28084310Y10782073D01*
X28038399Y10718882D01*
X27973240Y10629200D01*
X27887454Y10460837D01*
X27829059Y10281119D01*
X27799500Y10094487D01*
X27799500Y9905514D01*
X27829059Y9718882D01*
X27887455Y9539161D01*
X27926479Y9462572D01*
X27939375Y9393902D01*
X27913098Y9329162D01*
X27903675Y9318597D01*
X26362219Y7777139D01*
X26246899Y7661819D01*
X26185576Y7628334D01*
X26159218Y7625500D01*
X25542350Y7625500D01*
X25475311Y7645185D01*
X25473459Y7646398D01*
X25379184Y7709391D01*
X25379172Y7709398D01*
X25233501Y7769736D01*
X25233489Y7769739D01*
X25078845Y7800500D01*
X25078842Y7800500D01*
X24921158Y7800500D01*
X24921155Y7800500D01*
X24766510Y7769739D01*
X24766498Y7769736D01*
X24620827Y7709398D01*
X24620814Y7709391D01*
X24489711Y7621790D01*
X24489707Y7621787D01*
X24378213Y7510293D01*
X24378210Y7510289D01*
X24290609Y7379186D01*
X24290602Y7379173D01*
X24230264Y7233502D01*
X24230261Y7233490D01*
X24199500Y7078847D01*
X24199500Y6921154D01*
X24230261Y6766511D01*
X24230264Y6766499D01*
X24290602Y6620828D01*
X24290609Y6620815D01*
X24378210Y6489712D01*
X24378213Y6489708D01*
X24489707Y6378214D01*
X24489711Y6378211D01*
X24620814Y6290610D01*
X24620818Y6290608D01*
X24620821Y6290606D01*
X24626978Y6288056D01*
X24629582Y6286977D01*
X24655139Y6266383D01*
X24681398Y6246726D01*
X24682199Y6244578D01*
X24683987Y6243137D01*
X24694354Y6211991D01*
X24705816Y6181262D01*
X24705328Y6179021D01*
X24706053Y6176844D01*
X24697940Y6145059D01*
X24690965Y6112989D01*
X24689131Y6110540D01*
X24688775Y6109144D01*
X24669814Y6084735D01*
X24621900Y6036820D01*
X24560577Y6003334D01*
X24534218Y6000500D01*
X18705633Y6000500D01*
X18638594Y6020185D01*
X18632746Y6024183D01*
X18629200Y6026760D01*
X18460836Y6112546D01*
X18281118Y6170941D01*
X18094486Y6200500D01*
X18094481Y6200500D01*
X17905519Y6200500D01*
X17905514Y6200500D01*
X17776768Y6180109D01*
X17707474Y6189064D01*
X17669689Y6214901D01*
X16661819Y7222771D01*
X16628334Y7284094D01*
X16625500Y7310452D01*
X16625500Y11272418D01*
X16645185Y11339457D01*
X16697989Y11385212D01*
X16767147Y11395156D01*
X16830703Y11366131D01*
X16837181Y11360099D01*
X17519340Y10677940D01*
X17552825Y10616617D01*
X17551708Y10569655D01*
X17553356Y10569438D01*
X17552295Y10561381D01*
X17552295Y10561380D01*
X17552278Y10561249D01*
X17537001Y10445212D01*
X17537000Y10445196D01*
X17537000Y10154805D01*
X17537001Y10154789D01*
X17552294Y10038622D01*
X17552295Y10038621D01*
X17558993Y10022449D01*
X17566459Y9952979D01*
X17558993Y9927551D01*
X17552295Y9911380D01*
X17552294Y9911379D01*
X17537001Y9795212D01*
X17537000Y9795196D01*
X17537000Y9504805D01*
X17537001Y9504789D01*
X17552294Y9388622D01*
X17552295Y9388620D01*
X17556203Y9379186D01*
X17558993Y9372449D01*
X17566459Y9302979D01*
X17558993Y9277551D01*
X17552295Y9261380D01*
X17552294Y9261379D01*
X17537001Y9145212D01*
X17537000Y9145196D01*
X17537000Y8854805D01*
X17537001Y8854789D01*
X17552294Y8738622D01*
X17552296Y8738617D01*
X17612171Y8594064D01*
X17612172Y8594062D01*
X17612173Y8594061D01*
X17707426Y8469926D01*
X17831561Y8374673D01*
X17831562Y8374673D01*
X17831563Y8374672D01*
X17861625Y8362220D01*
X17976120Y8314795D01*
X18092298Y8299500D01*
X18092305Y8299500D01*
X18357695Y8299500D01*
X18357702Y8299500D01*
X18473880Y8314795D01*
X18618439Y8374673D01*
X18742574Y8469926D01*
X18837827Y8594061D01*
X18897705Y8738620D01*
X18907431Y8812500D01*
X19318074Y8812500D01*
X19327783Y8738752D01*
X19327784Y8738747D01*
X19387608Y8594318D01*
X19387608Y8594317D01*
X19482783Y8470284D01*
X19606817Y8375109D01*
X19751246Y8315285D01*
X19751258Y8315281D01*
X19812498Y8307220D01*
X19812500Y8307221D01*
X20187500Y8307221D01*
X20187501Y8307220D01*
X20248741Y8315281D01*
X20248753Y8315285D01*
X20393182Y8375109D01*
X20393183Y8375109D01*
X20517216Y8470284D01*
X20612391Y8594317D01*
X20612391Y8594318D01*
X20672215Y8738747D01*
X20672216Y8738752D01*
X20681926Y8812500D01*
X20187500Y8812500D01*
X20187500Y8307221D01*
X19812500Y8307221D01*
X19812500Y8812500D01*
X19318074Y8812500D01*
X18907431Y8812500D01*
X18913000Y8854798D01*
X18913000Y9145202D01*
X18907431Y9187501D01*
X19318074Y9187501D01*
X19318075Y9187500D01*
X19812500Y9187500D01*
X20187500Y9187500D01*
X20681925Y9187500D01*
X20681925Y9187501D01*
X20672216Y9261251D01*
X20665467Y9277545D01*
X20657997Y9347014D01*
X20665467Y9372455D01*
X20672216Y9388750D01*
X20681926Y9462500D01*
X20187500Y9462500D01*
X20187500Y9187500D01*
X19812500Y9187500D01*
X19812500Y9462500D01*
X19318074Y9462500D01*
X19327783Y9388752D01*
X19327784Y9388747D01*
X19334534Y9372450D01*
X19342001Y9302980D01*
X19334534Y9277550D01*
X19327784Y9261254D01*
X19327783Y9261249D01*
X19318074Y9187501D01*
X18907431Y9187501D01*
X18897705Y9261380D01*
X18891008Y9277546D01*
X18883479Y9346678D01*
X18885840Y9359977D01*
X18897705Y9388620D01*
X18913000Y9504798D01*
X18913000Y9795202D01*
X18907431Y9837501D01*
X19318074Y9837501D01*
X19318075Y9837500D01*
X19812500Y9837500D01*
X20187500Y9837500D01*
X20681925Y9837500D01*
X20681925Y9837501D01*
X20672216Y9911251D01*
X20665467Y9927545D01*
X20657997Y9997014D01*
X20665467Y10022455D01*
X20672216Y10038750D01*
X20681926Y10112500D01*
X20187500Y10112500D01*
X20187500Y9837500D01*
X19812500Y9837500D01*
X19812500Y10112500D01*
X19318074Y10112500D01*
X19327783Y10038752D01*
X19327784Y10038747D01*
X19334534Y10022450D01*
X19342001Y9952980D01*
X19334534Y9927550D01*
X19327784Y9911254D01*
X19327783Y9911249D01*
X19318074Y9837501D01*
X18907431Y9837501D01*
X18897705Y9911380D01*
X18891008Y9927546D01*
X18883479Y9996678D01*
X18885840Y10009977D01*
X18897705Y10038620D01*
X18913000Y10154798D01*
X18913000Y10316047D01*
X18932685Y10383086D01*
X18949319Y10403728D01*
X19003728Y10458137D01*
X19003728Y10458139D01*
X19013932Y10468342D01*
X19013936Y10468347D01*
X19102983Y10557395D01*
X19164304Y10590878D01*
X19233996Y10585894D01*
X19289929Y10544022D01*
X19305783Y10501516D01*
X19318075Y10487500D01*
X19812500Y10487500D01*
X20187500Y10487500D01*
X20681925Y10487500D01*
X20681925Y10487501D01*
X20672216Y10561249D01*
X20672215Y10561254D01*
X20612391Y10705683D01*
X20612391Y10705684D01*
X20517216Y10829717D01*
X20393182Y10924892D01*
X20248750Y10984717D01*
X20187500Y10992782D01*
X20187500Y10487500D01*
X19812500Y10487500D01*
X19812500Y11046678D01*
X19813955Y11051635D01*
X19812905Y11056692D01*
X19823699Y11084821D01*
X19832185Y11113717D01*
X19836587Y11118402D01*
X19837939Y11121923D01*
X19845546Y11129389D01*
X19845903Y11130168D01*
X19853191Y11136891D01*
X19863131Y11146643D01*
X19866247Y11148930D01*
X19866246Y11148930D01*
X20091794Y11314467D01*
X20157487Y11338262D01*
X20165162Y11338500D01*
X23272542Y11338500D01*
X23288540Y11341683D01*
X23369188Y11357725D01*
X23465836Y11376949D01*
X23520278Y11399500D01*
X23647914Y11452368D01*
X23811782Y11561861D01*
X23951139Y11701218D01*
X23951139Y11701220D01*
X23961347Y11711427D01*
X23961349Y11711430D01*
X24723101Y12473182D01*
X24784424Y12506667D01*
X24810782Y12509501D01*
X25882871Y12509501D01*
X25882872Y12509501D01*
X25942483Y12515909D01*
X26077331Y12566204D01*
X26192546Y12652454D01*
X26278796Y12767669D01*
X26329091Y12902517D01*
X26335500Y12962127D01*
X26335499Y14530718D01*
X26355184Y14597756D01*
X26407987Y14643511D01*
X26477146Y14653455D01*
X26540702Y14624430D01*
X26547180Y14618398D01*
X28788184Y12377394D01*
X28788213Y12377363D01*
X28878431Y12287145D01*
X28878435Y12287142D01*
X28980875Y12218693D01*
X28980881Y12218690D01*
X28980882Y12218689D01*
X29094716Y12171537D01*
X29130095Y12164500D01*
X29215559Y12147501D01*
X29215560Y12147500D01*
X29215561Y12147500D01*
X29215562Y12147500D01*
X30075500Y12147500D01*
X30142539Y12127815D01*
X30188294Y12075011D01*
X30199500Y12023500D01*
X30199500Y11921154D01*
X30230261Y11766511D01*
X30230264Y11766499D01*
X30290602Y11620828D01*
X30290609Y11620816D01*
X30353602Y11526541D01*
X30374480Y11459864D01*
X30374500Y11457650D01*
X30374500Y11061607D01*
X30374500Y10938393D01*
X30378462Y10918476D01*
X30398537Y10817548D01*
X30407768Y10795263D01*
X30411318Y10786692D01*
X30411319Y10786689D01*
X30445685Y10703719D01*
X30445688Y10703714D01*
X30465261Y10674422D01*
X30465262Y10674419D01*
X30465263Y10674419D01*
X30514141Y10601268D01*
X30514144Y10601264D01*
X30605586Y10509822D01*
X30605608Y10509802D01*
X32514139Y8601271D01*
X32514142Y8601267D01*
X32601267Y8514142D01*
X32637831Y8489711D01*
X32703714Y8445688D01*
X32772859Y8417048D01*
X32817548Y8398537D01*
X32877971Y8386519D01*
X32938393Y8374500D01*
X32938394Y8374500D01*
X38689548Y8374500D01*
X38756587Y8354815D01*
X38777229Y8338181D01*
X40174205Y6941205D01*
X40207690Y6879882D01*
X40208141Y6877715D01*
X40230261Y6766511D01*
X40230264Y6766499D01*
X40290602Y6620828D01*
X40290609Y6620815D01*
X40378210Y6489712D01*
X40378213Y6489708D01*
X40489707Y6378214D01*
X40489711Y6378211D01*
X40620814Y6290610D01*
X40620827Y6290603D01*
X40726757Y6246726D01*
X40766503Y6230263D01*
X40916131Y6200500D01*
X40921153Y6199501D01*
X40921156Y6199500D01*
X40921158Y6199500D01*
X41078844Y6199500D01*
X41078845Y6199501D01*
X41233497Y6230263D01*
X41379179Y6290606D01*
X41510289Y6378211D01*
X41621789Y6489711D01*
X41709394Y6620821D01*
X41769737Y6766503D01*
X41800500Y6921158D01*
X41800500Y7078842D01*
X41800500Y7078845D01*
X41800499Y7078847D01*
X41798955Y7086611D01*
X41769737Y7233497D01*
X41759714Y7257696D01*
X41709397Y7379173D01*
X41709390Y7379186D01*
X41621789Y7510289D01*
X41621786Y7510293D01*
X41510292Y7621787D01*
X41510288Y7621790D01*
X41379185Y7709391D01*
X41379172Y7709398D01*
X41233501Y7769736D01*
X41233489Y7769739D01*
X41122285Y7791859D01*
X41060374Y7824244D01*
X41058795Y7825795D01*
X39805743Y9078847D01*
X51199500Y9078847D01*
X51199500Y8921154D01*
X51230261Y8766511D01*
X51230264Y8766499D01*
X51290602Y8620828D01*
X51290609Y8620815D01*
X51378210Y8489712D01*
X51378213Y8489708D01*
X51489707Y8378214D01*
X51489711Y8378211D01*
X51620814Y8290610D01*
X51620827Y8290603D01*
X51766498Y8230265D01*
X51766503Y8230263D01*
X51831147Y8217405D01*
X51921849Y8199362D01*
X51983760Y8166977D01*
X51985339Y8165426D01*
X53165425Y6985340D01*
X53198910Y6924017D01*
X53199361Y6921851D01*
X53230261Y6766509D01*
X53230264Y6766499D01*
X53290602Y6620828D01*
X53290609Y6620815D01*
X53378210Y6489712D01*
X53378213Y6489708D01*
X53489707Y6378214D01*
X53489711Y6378211D01*
X53620814Y6290610D01*
X53620827Y6290603D01*
X53726757Y6246726D01*
X53766503Y6230263D01*
X53916131Y6200500D01*
X53921153Y6199501D01*
X53921156Y6199500D01*
X53921158Y6199500D01*
X54078844Y6199500D01*
X54078845Y6199501D01*
X54233497Y6230263D01*
X54379179Y6290606D01*
X54510289Y6378211D01*
X54621789Y6489711D01*
X54709394Y6620821D01*
X54769737Y6766503D01*
X54800500Y6921158D01*
X54800500Y7078842D01*
X54800500Y7078845D01*
X54800499Y7078847D01*
X54798955Y7086611D01*
X54769737Y7233497D01*
X54759714Y7257696D01*
X54709397Y7379173D01*
X54709390Y7379186D01*
X54621789Y7510289D01*
X54621786Y7510293D01*
X54510292Y7621787D01*
X54510288Y7621790D01*
X54379185Y7709391D01*
X54379172Y7709398D01*
X54233501Y7769736D01*
X54233491Y7769739D01*
X54078149Y7800639D01*
X54016238Y7833024D01*
X54014660Y7834575D01*
X52834574Y9014661D01*
X52801089Y9075984D01*
X52800638Y9078151D01*
X52778886Y9187501D01*
X52769737Y9233497D01*
X52760909Y9254810D01*
X52709397Y9379173D01*
X52709390Y9379186D01*
X52621789Y9510289D01*
X52621786Y9510293D01*
X52510292Y9621787D01*
X52510288Y9621790D01*
X52379185Y9709391D01*
X52379172Y9709398D01*
X52233501Y9769736D01*
X52233489Y9769739D01*
X52078845Y9800500D01*
X52078842Y9800500D01*
X51921158Y9800500D01*
X51921155Y9800500D01*
X51766510Y9769739D01*
X51766498Y9769736D01*
X51620827Y9709398D01*
X51620814Y9709391D01*
X51489711Y9621790D01*
X51489707Y9621787D01*
X51378213Y9510293D01*
X51378210Y9510289D01*
X51290609Y9379186D01*
X51290602Y9379173D01*
X51230264Y9233502D01*
X51230261Y9233490D01*
X51199500Y9078847D01*
X39805743Y9078847D01*
X39493150Y9391440D01*
X39485860Y9398730D01*
X39485858Y9398733D01*
X39398733Y9485858D01*
X39347509Y9520085D01*
X39296286Y9554312D01*
X39296283Y9554314D01*
X39296280Y9554315D01*
X39223658Y9584395D01*
X39223657Y9584396D01*
X39215792Y9587653D01*
X39182452Y9601463D01*
X39085130Y9620821D01*
X39081532Y9621537D01*
X39081531Y9621537D01*
X39074160Y9623003D01*
X39061607Y9625500D01*
X39061606Y9625500D01*
X33310452Y9625500D01*
X33243413Y9645185D01*
X33222771Y9661819D01*
X31661819Y11222771D01*
X31647115Y11249699D01*
X31630523Y11275517D01*
X31629631Y11281718D01*
X31628334Y11284094D01*
X31625500Y11310452D01*
X31625500Y11457650D01*
X31645185Y11524689D01*
X31646398Y11526541D01*
X31669998Y11561861D01*
X31709394Y11620821D01*
X31769737Y11766503D01*
X31800500Y11921158D01*
X31800500Y12023500D01*
X31820185Y12090539D01*
X31872989Y12136294D01*
X31924500Y12147500D01*
X33739534Y12147500D01*
X33806573Y12127815D01*
X33808425Y12126602D01*
X33902705Y12063606D01*
X33902707Y12063605D01*
X33902711Y12063603D01*
X34008740Y12019685D01*
X34048387Y12003263D01*
X34191751Y11974746D01*
X34203037Y11972501D01*
X34203040Y11972500D01*
X34203042Y11972500D01*
X34360728Y11972500D01*
X34360729Y11972501D01*
X34515381Y12003263D01*
X34661063Y12063606D01*
X34792173Y12151211D01*
X34808181Y12167221D01*
X34869502Y12200706D01*
X34939194Y12195723D01*
X34983544Y12167221D01*
X35165425Y11985340D01*
X35198910Y11924017D01*
X35199361Y11921851D01*
X35230261Y11766509D01*
X35230264Y11766499D01*
X35290602Y11620828D01*
X35290609Y11620815D01*
X35378210Y11489712D01*
X35378213Y11489708D01*
X35489707Y11378214D01*
X35489711Y11378211D01*
X35620814Y11290610D01*
X35620827Y11290603D01*
X35751757Y11236371D01*
X35766503Y11230263D01*
X35916131Y11200500D01*
X35921153Y11199501D01*
X35921156Y11199500D01*
X35921158Y11199500D01*
X36078844Y11199500D01*
X36078845Y11199501D01*
X36233497Y11230263D01*
X36379179Y11290606D01*
X36510289Y11378211D01*
X36621789Y11489711D01*
X36709394Y11620821D01*
X36769737Y11766503D01*
X36800500Y11921158D01*
X36800500Y12078842D01*
X36800500Y12078845D01*
X36800499Y12078847D01*
X36791000Y12126602D01*
X36769737Y12233497D01*
X36747517Y12287142D01*
X36709397Y12379173D01*
X36709390Y12379186D01*
X36621789Y12510289D01*
X36621786Y12510293D01*
X36510292Y12621787D01*
X36510288Y12621790D01*
X36379185Y12709391D01*
X36379172Y12709398D01*
X36233501Y12769736D01*
X36233491Y12769739D01*
X36078151Y12800638D01*
X36016241Y12833023D01*
X36014662Y12834574D01*
X33487590Y15361645D01*
X33487588Y15361648D01*
X33368717Y15480519D01*
X33368716Y15480520D01*
X33266155Y15539733D01*
X33266154Y15539734D01*
X33231783Y15559578D01*
X33175881Y15574557D01*
X33079057Y15600501D01*
X32920943Y15600501D01*
X32913347Y15600501D01*
X32913331Y15600500D01*
X31300098Y15600500D01*
X31233059Y15620185D01*
X31212417Y15636819D01*
X28834573Y18014663D01*
X28801088Y18075986D01*
X28800637Y18078153D01*
X28778751Y18188180D01*
X28769737Y18233497D01*
X28769735Y18233502D01*
X28709397Y18379173D01*
X28709390Y18379186D01*
X28621789Y18510289D01*
X28621786Y18510293D01*
X28510292Y18621787D01*
X28510288Y18621790D01*
X28379185Y18709391D01*
X28379172Y18709398D01*
X28233501Y18769736D01*
X28233489Y18769739D01*
X28078845Y18800500D01*
X28078842Y18800500D01*
X27921158Y18800500D01*
X27921155Y18800500D01*
X27766510Y18769739D01*
X27766498Y18769736D01*
X27620827Y18709398D01*
X27620814Y18709391D01*
X27489711Y18621790D01*
X27489707Y18621787D01*
X27378213Y18510293D01*
X27378210Y18510289D01*
X27290609Y18379186D01*
X27290602Y18379173D01*
X27230264Y18233502D01*
X27230261Y18233490D01*
X27199500Y18078847D01*
X27199500Y17921154D01*
X27230261Y17766511D01*
X27230264Y17766499D01*
X27290602Y17620828D01*
X27290609Y17620815D01*
X27378210Y17489712D01*
X27378213Y17489708D01*
X27489707Y17378214D01*
X27489711Y17378211D01*
X27620814Y17290610D01*
X27620827Y17290603D01*
X27758683Y17233502D01*
X27766503Y17230263D01*
X27831147Y17217405D01*
X27921849Y17199362D01*
X27983760Y17166977D01*
X27985338Y17165427D01*
X30631284Y14519480D01*
X30631286Y14519479D01*
X30631290Y14519476D01*
X30763733Y14443011D01*
X30768216Y14440423D01*
X30920943Y14399499D01*
X30920945Y14399499D01*
X31086654Y14399499D01*
X31086670Y14399500D01*
X32699903Y14399500D01*
X32766942Y14379815D01*
X32787584Y14363181D01*
X33540584Y13610181D01*
X33574069Y13548858D01*
X33569085Y13479166D01*
X33527213Y13423233D01*
X33461749Y13398816D01*
X33452903Y13398500D01*
X29587620Y13398500D01*
X29520581Y13418185D01*
X29499939Y13434819D01*
X26543390Y16391368D01*
X26536028Y16398730D01*
X26536026Y16398733D01*
X26448901Y16485858D01*
X26395433Y16521584D01*
X26388846Y16525986D01*
X26388842Y16525989D01*
X26346458Y16554310D01*
X26346454Y16554312D01*
X26265960Y16587653D01*
X26232620Y16601463D01*
X26135298Y16620821D01*
X26131700Y16621537D01*
X26131699Y16621537D01*
X26124328Y16623003D01*
X26111775Y16625500D01*
X26111774Y16625500D01*
X25892784Y16625500D01*
X25825745Y16645185D01*
X25779990Y16697989D01*
X25770046Y16767147D01*
X25771167Y16773692D01*
X25800500Y16921156D01*
X25800500Y17078845D01*
X25800499Y17078847D01*
X25791936Y17121894D01*
X25769737Y17233497D01*
X25750012Y17281118D01*
X25709397Y17379173D01*
X25709390Y17379186D01*
X25621789Y17510289D01*
X25621786Y17510293D01*
X25510292Y17621787D01*
X25510288Y17621790D01*
X25379185Y17709391D01*
X25379172Y17709398D01*
X25233501Y17769736D01*
X25233489Y17769739D01*
X25078845Y17800500D01*
X25078842Y17800500D01*
X24921158Y17800500D01*
X24921155Y17800500D01*
X24766510Y17769739D01*
X24766498Y17769736D01*
X24620827Y17709398D01*
X24620815Y17709391D01*
X24526541Y17646398D01*
X24459864Y17625520D01*
X24457650Y17625500D01*
X23542350Y17625500D01*
X23475311Y17645185D01*
X23473459Y17646398D01*
X23379184Y17709391D01*
X23379172Y17709398D01*
X23233501Y17769736D01*
X23233489Y17769739D01*
X23078845Y17800500D01*
X23078842Y17800500D01*
X22921158Y17800500D01*
X22921155Y17800500D01*
X22766510Y17769739D01*
X22766498Y17769736D01*
X22620827Y17709398D01*
X22620814Y17709391D01*
X22489711Y17621790D01*
X22489707Y17621787D01*
X22378213Y17510293D01*
X22378210Y17510289D01*
X22290609Y17379186D01*
X22290602Y17379173D01*
X22230264Y17233502D01*
X22230261Y17233490D01*
X22199500Y17078847D01*
X22199500Y17078842D01*
X22199500Y16921158D01*
X22199500Y16921156D01*
X22199499Y16921156D01*
X22228833Y16773692D01*
X22222606Y16704100D01*
X22179743Y16648923D01*
X22113854Y16625678D01*
X22107216Y16625500D01*
X19542350Y16625500D01*
X19475311Y16645185D01*
X19473459Y16646398D01*
X19379184Y16709391D01*
X19379172Y16709398D01*
X19233501Y16769736D01*
X19233489Y16769739D01*
X19078845Y16800500D01*
X19078842Y16800500D01*
X18921158Y16800500D01*
X18921155Y16800500D01*
X18766510Y16769739D01*
X18766498Y16769736D01*
X18620827Y16709398D01*
X18620814Y16709391D01*
X18489711Y16621790D01*
X18489707Y16621787D01*
X18378213Y16510293D01*
X18378210Y16510289D01*
X18290609Y16379186D01*
X18290602Y16379173D01*
X18230264Y16233502D01*
X18230261Y16233490D01*
X18199500Y16078847D01*
X18199500Y15921154D01*
X18230261Y15766511D01*
X18230264Y15766500D01*
X18290602Y15620828D01*
X18290609Y15620815D01*
X18378210Y15489712D01*
X18378213Y15489708D01*
X18489707Y15378214D01*
X18489711Y15378211D01*
X18620814Y15290610D01*
X18620827Y15290603D01*
X18760250Y15232853D01*
X18766503Y15230263D01*
X18882614Y15207167D01*
X18921153Y15199501D01*
X18921156Y15199500D01*
X18921158Y15199500D01*
X19078844Y15199500D01*
X19078845Y15199501D01*
X19233497Y15230263D01*
X19379179Y15290606D01*
X19473459Y15353602D01*
X19540136Y15374480D01*
X19542350Y15374500D01*
X23258177Y15374500D01*
X23325216Y15354815D01*
X23370971Y15302011D01*
X23380915Y15232853D01*
X23374359Y15207167D01*
X23340908Y15117483D01*
X23334501Y15057884D01*
X23334500Y15057865D01*
X23334500Y13965784D01*
X23314815Y13898745D01*
X23298181Y13878103D01*
X23165628Y13745549D01*
X22905937Y13485857D01*
X22795899Y13375819D01*
X22734576Y13342334D01*
X22708218Y13339500D01*
X19901457Y13339500D01*
X19708167Y13301052D01*
X19696661Y13296286D01*
X19629390Y13268423D01*
X19600281Y13260349D01*
X17792841Y12990039D01*
X17723627Y12999591D01*
X17670565Y13045047D01*
X17650502Y13111974D01*
X17650500Y13112675D01*
X17650500Y13328097D01*
X17650500Y13328102D01*
X17639877Y13416564D01*
X17637247Y13423233D01*
X17634145Y13431101D01*
X17626212Y13463320D01*
X17625500Y13469934D01*
X17625500Y13479736D01*
X17624282Y13485857D01*
X17612969Y13542737D01*
X17611751Y13548858D01*
X17601464Y13600577D01*
X17601463Y13600578D01*
X17601463Y13600582D01*
X17578871Y13655123D01*
X17554312Y13714415D01*
X17538696Y13737785D01*
X17534944Y13745549D01*
X17530576Y13771846D01*
X17522610Y13797286D01*
X17524940Y13805783D01*
X17523497Y13814475D01*
X17534040Y13838960D01*
X17541092Y13864667D01*
X17547780Y13874420D01*
X17584361Y13922658D01*
X17639877Y14063436D01*
X17650500Y14151898D01*
X17650500Y14808102D01*
X17639877Y14896564D01*
X17609146Y14974493D01*
X17600500Y15019983D01*
X17600500Y16042390D01*
X17620185Y16109429D01*
X17659401Y16147927D01*
X17710850Y16179660D01*
X17832840Y16301650D01*
X17923408Y16448484D01*
X17977674Y16612247D01*
X17988000Y16713323D01*
X17987999Y17286676D01*
X17977674Y17387753D01*
X17923408Y17551516D01*
X17832840Y17698350D01*
X17710850Y17820340D01*
X17564016Y17910908D01*
X17400253Y17965174D01*
X17400251Y17965175D01*
X17299178Y17975500D01*
X16700830Y17975500D01*
X16700812Y17975499D01*
X16599747Y17965175D01*
X16435984Y17910908D01*
X16435981Y17910907D01*
X16289148Y17820339D01*
X16175181Y17706371D01*
X16113858Y17672886D01*
X16044166Y17677870D01*
X15999819Y17706371D01*
X15885851Y17820339D01*
X15885850Y17820340D01*
X15739016Y17910908D01*
X15575253Y17965174D01*
X15575251Y17965175D01*
X15474178Y17975500D01*
X14875830Y17975500D01*
X14875812Y17975499D01*
X14774747Y17965175D01*
X14610984Y17910908D01*
X14610981Y17910907D01*
X14464148Y17820339D01*
X14342161Y17698352D01*
X14251593Y17551519D01*
X14251591Y17551514D01*
X14231343Y17490410D01*
X14197326Y17387753D01*
X14197326Y17387752D01*
X14197325Y17387752D01*
X14187000Y17286685D01*
X14187000Y16713331D01*
X14187001Y16713313D01*
X14197325Y16612248D01*
X14197326Y16612245D01*
X14251592Y16448484D01*
X14251592Y16448483D01*
X14265471Y16425982D01*
X14283911Y16358590D01*
X14262988Y16291926D01*
X14247613Y16273205D01*
X13777229Y15802819D01*
X13715906Y15769334D01*
X13689548Y15766500D01*
X11222560Y15766500D01*
X11155521Y15786185D01*
X11109766Y15838989D01*
X11099822Y15908147D01*
X11128847Y15971703D01*
X11187625Y16009477D01*
X11203162Y16012973D01*
X11351368Y16036447D01*
X11575992Y16109432D01*
X11786433Y16216657D01*
X11977510Y16355483D01*
X12144517Y16522490D01*
X12283343Y16713567D01*
X12390568Y16924008D01*
X12463553Y17148632D01*
X12468875Y17182236D01*
X12500500Y17381903D01*
X12500500Y17618098D01*
X12471705Y17799895D01*
X12463553Y17851368D01*
X12422547Y17977567D01*
X12422113Y17992779D01*
X12416795Y18007038D01*
X12421136Y18026994D01*
X12420553Y18047407D01*
X12428641Y18061494D01*
X12431647Y18075311D01*
X12452795Y18103562D01*
X12575685Y18226452D01*
X12637006Y18259935D01*
X12706698Y18254951D01*
X12710798Y18253337D01*
X12735706Y18243020D01*
X12766497Y18230265D01*
X12766499Y18230265D01*
X12766503Y18230263D01*
X12921153Y18199501D01*
X12921156Y18199500D01*
X12921158Y18199500D01*
X13078844Y18199500D01*
X13078845Y18199501D01*
X13233497Y18230263D01*
X13365732Y18285036D01*
X13379172Y18290603D01*
X13379172Y18290604D01*
X13379179Y18290606D01*
X13510289Y18378211D01*
X13621789Y18489711D01*
X13709394Y18620821D01*
X13769737Y18766503D01*
X13800500Y18921158D01*
X13800500Y19078842D01*
X13800500Y19078845D01*
X13800499Y19078847D01*
X13797205Y19095405D01*
X13769737Y19233497D01*
X13745428Y19292184D01*
X13709397Y19379173D01*
X13709390Y19379186D01*
X13621789Y19510289D01*
X13621786Y19510293D01*
X13510292Y19621787D01*
X13510288Y19621790D01*
X13395843Y19698260D01*
X13379185Y19709391D01*
X13379172Y19709398D01*
X13233501Y19769736D01*
X13233489Y19769739D01*
X13078845Y19800500D01*
X13078842Y19800500D01*
X12921158Y19800500D01*
X12921155Y19800500D01*
X12766510Y19769739D01*
X12766498Y19769736D01*
X12620827Y19709398D01*
X12620814Y19709391D01*
X12489125Y19621398D01*
X12428874Y19602533D01*
X12429002Y19601561D01*
X12423427Y19600827D01*
X12422447Y19600520D01*
X12420996Y19600507D01*
X12420940Y19600500D01*
X12380019Y19589536D01*
X12380019Y19589535D01*
X12342751Y19579549D01*
X12268214Y19559577D01*
X12268209Y19559574D01*
X12131290Y19480525D01*
X12131282Y19480519D01*
X12019478Y19368714D01*
X11603563Y18952800D01*
X11542240Y18919315D01*
X11477564Y18922550D01*
X11351370Y18963553D01*
X11118097Y19000500D01*
X11118092Y19000500D01*
X10881908Y19000500D01*
X10881903Y19000500D01*
X10648631Y18963554D01*
X10424003Y18890567D01*
X10213566Y18783343D01*
X10190383Y18766499D01*
X10022490Y18644517D01*
X10022488Y18644515D01*
X10022487Y18644515D01*
X9855485Y18477513D01*
X9855485Y18477512D01*
X9855483Y18477510D01*
X9841941Y18458871D01*
X9716657Y18286434D01*
X9609433Y18075997D01*
X9536446Y17851369D01*
X9499500Y17618098D01*
X9499500Y17381903D01*
X9536446Y17148632D01*
X9609433Y16924004D01*
X9709539Y16727536D01*
X9716657Y16713567D01*
X9855483Y16522490D01*
X10022490Y16355483D01*
X10213567Y16216657D01*
X10312991Y16165998D01*
X10424003Y16109434D01*
X10424005Y16109434D01*
X10424008Y16109432D01*
X10518139Y16078847D01*
X10648631Y16036447D01*
X10796838Y16012973D01*
X10859973Y15983044D01*
X10896904Y15923732D01*
X10895906Y15853870D01*
X10857296Y15795637D01*
X10793332Y15767523D01*
X10777440Y15766500D01*
X7726279Y15766500D01*
X7659240Y15786185D01*
X7613485Y15838989D01*
X7603541Y15908147D01*
X7632566Y15971703D01*
X7653393Y15990818D01*
X7665343Y15999500D01*
X7782073Y16084310D01*
X7915690Y16217927D01*
X8026760Y16370801D01*
X8112547Y16539168D01*
X8170940Y16718882D01*
X8178463Y16766378D01*
X8200500Y16905514D01*
X8200500Y17094487D01*
X8170940Y17281119D01*
X8129443Y17408831D01*
X8112547Y17460832D01*
X8112545Y17460835D01*
X8112545Y17460837D01*
X8032416Y17618098D01*
X8026760Y17629199D01*
X7915690Y17782073D01*
X7786818Y17910945D01*
X7753334Y17972268D01*
X7750500Y17998626D01*
X7750500Y22118053D01*
X9500000Y22118053D01*
X9500000Y21881948D01*
X9536934Y21648753D01*
X9609897Y21424198D01*
X9717087Y21213826D01*
X9777338Y21130896D01*
X9777340Y21130895D01*
X10476212Y21829767D01*
X10487482Y21787708D01*
X10559890Y21662292D01*
X10662292Y21559890D01*
X10787708Y21487482D01*
X10829765Y21476213D01*
X10130893Y20777342D01*
X10213828Y20717086D01*
X10424197Y20609898D01*
X10648752Y20536935D01*
X10648751Y20536935D01*
X10881948Y20500000D01*
X11118052Y20500000D01*
X11351247Y20536935D01*
X11575802Y20609898D01*
X11786163Y20717082D01*
X11786169Y20717086D01*
X11869104Y20777342D01*
X11869105Y20777342D01*
X11170233Y21476213D01*
X11212292Y21487482D01*
X11337708Y21559890D01*
X11440110Y21662292D01*
X11512518Y21787708D01*
X11523787Y21829766D01*
X12222658Y21130895D01*
X12222658Y21130896D01*
X12282914Y21213831D01*
X12282918Y21213837D01*
X12390102Y21424198D01*
X12463065Y21648753D01*
X12500000Y21881948D01*
X12500000Y22118053D01*
X12463065Y22351248D01*
X12390102Y22575804D01*
X12380390Y22594866D01*
X12354189Y22646287D01*
X15109500Y22646287D01*
X15109500Y22433714D01*
X15137363Y22257790D01*
X15142754Y22223757D01*
X15191930Y22072409D01*
X15208444Y22021586D01*
X15304951Y21832180D01*
X15429890Y21660214D01*
X15543818Y21546286D01*
X15577303Y21484963D01*
X15572319Y21415271D01*
X15530447Y21359338D01*
X15499471Y21342423D01*
X15367912Y21293354D01*
X15367906Y21293351D01*
X15252812Y21207191D01*
X15252809Y21207188D01*
X15166649Y21092094D01*
X15166645Y21092087D01*
X15116403Y20957380D01*
X15116401Y20957373D01*
X15110000Y20897845D01*
X15110000Y20250000D01*
X16026988Y20250000D01*
X15994075Y20192993D01*
X15960000Y20065826D01*
X15960000Y19934174D01*
X15994075Y19807007D01*
X16026988Y19750000D01*
X15110000Y19750000D01*
X15110000Y19102156D01*
X15116401Y19042628D01*
X15116403Y19042621D01*
X15166645Y18907914D01*
X15166649Y18907907D01*
X15252809Y18792813D01*
X15252812Y18792810D01*
X15367906Y18706650D01*
X15367913Y18706646D01*
X15502620Y18656404D01*
X15502627Y18656402D01*
X15562155Y18650001D01*
X15562172Y18650000D01*
X16210000Y18650000D01*
X16210000Y19566988D01*
X16267007Y19534075D01*
X16394174Y19500000D01*
X16525826Y19500000D01*
X16652993Y19534075D01*
X16710000Y19566988D01*
X16710000Y18650000D01*
X17357828Y18650000D01*
X17357844Y18650001D01*
X17417372Y18656402D01*
X17417379Y18656404D01*
X17552086Y18706646D01*
X17552093Y18706650D01*
X17667187Y18792810D01*
X17667190Y18792813D01*
X17753350Y18907907D01*
X17753354Y18907914D01*
X17802422Y19039471D01*
X17844293Y19095405D01*
X17909757Y19119822D01*
X17978030Y19104970D01*
X18006285Y19083819D01*
X18120213Y18969891D01*
X18292179Y18844952D01*
X18292181Y18844951D01*
X18292184Y18844949D01*
X18481588Y18748443D01*
X18683757Y18682754D01*
X18893713Y18649500D01*
X18893714Y18649500D01*
X19106286Y18649500D01*
X19106287Y18649500D01*
X19316243Y18682754D01*
X19518412Y18748443D01*
X19707816Y18844949D01*
X19794471Y18907907D01*
X19879786Y18969891D01*
X19879788Y18969894D01*
X19879792Y18969896D01*
X19987819Y19077923D01*
X20049142Y19111408D01*
X20118834Y19106424D01*
X20174767Y19064552D01*
X20199184Y18999088D01*
X20199500Y18990242D01*
X20199500Y18921154D01*
X20230261Y18766511D01*
X20230264Y18766499D01*
X20290602Y18620828D01*
X20290609Y18620815D01*
X20378210Y18489712D01*
X20378213Y18489708D01*
X20489707Y18378214D01*
X20489711Y18378211D01*
X20620814Y18290610D01*
X20620827Y18290603D01*
X20706900Y18254951D01*
X20766503Y18230263D01*
X20921153Y18199501D01*
X20921156Y18199500D01*
X20921158Y18199500D01*
X21078844Y18199500D01*
X21078845Y18199501D01*
X21233497Y18230263D01*
X21365732Y18285036D01*
X21379172Y18290603D01*
X21379172Y18290604D01*
X21379179Y18290606D01*
X21447309Y18336129D01*
X21510875Y18378602D01*
X21577553Y18399480D01*
X21579766Y18399500D01*
X24420234Y18399500D01*
X24487273Y18379815D01*
X24489125Y18378602D01*
X24620814Y18290610D01*
X24620827Y18290603D01*
X24706900Y18254951D01*
X24766503Y18230263D01*
X24921153Y18199501D01*
X24921156Y18199500D01*
X24921158Y18199500D01*
X25078844Y18199500D01*
X25078845Y18199501D01*
X25233497Y18230263D01*
X25365732Y18285036D01*
X25379172Y18290603D01*
X25379172Y18290604D01*
X25379179Y18290606D01*
X25510289Y18378211D01*
X25621789Y18489711D01*
X25709394Y18620821D01*
X25769737Y18766503D01*
X25800500Y18921158D01*
X25800500Y19078842D01*
X25800500Y19078845D01*
X25800499Y19078847D01*
X25797205Y19095405D01*
X25769737Y19233497D01*
X25745428Y19292184D01*
X25709397Y19379173D01*
X25709390Y19379186D01*
X25621789Y19510289D01*
X25621786Y19510293D01*
X25510292Y19621787D01*
X25510288Y19621790D01*
X25379185Y19709391D01*
X25379172Y19709398D01*
X25233501Y19769736D01*
X25233489Y19769739D01*
X25078845Y19800500D01*
X25078842Y19800500D01*
X24921158Y19800500D01*
X24921155Y19800500D01*
X24766510Y19769739D01*
X24766498Y19769736D01*
X24620827Y19709398D01*
X24620814Y19709391D01*
X24489125Y19621398D01*
X24422447Y19600520D01*
X24420234Y19600500D01*
X21579766Y19600500D01*
X21512727Y19620185D01*
X21510875Y19621398D01*
X21379185Y19709391D01*
X21379172Y19709398D01*
X21233501Y19769736D01*
X21233489Y19769739D01*
X21078845Y19800500D01*
X21078842Y19800500D01*
X20921158Y19800500D01*
X20921155Y19800500D01*
X20766510Y19769739D01*
X20766498Y19769736D01*
X20620827Y19709398D01*
X20620809Y19709388D01*
X20521568Y19643077D01*
X20454891Y19622199D01*
X20387511Y19640684D01*
X20340821Y19692663D01*
X20329645Y19761633D01*
X20330205Y19765577D01*
X20337987Y19814712D01*
X20350500Y19893713D01*
X20350500Y20106287D01*
X20317246Y20316243D01*
X20251557Y20518412D01*
X20155051Y20707816D01*
X20155049Y20707819D01*
X20155048Y20707821D01*
X20030109Y20879787D01*
X19879786Y21030110D01*
X19707820Y21155049D01*
X19707115Y21155409D01*
X19699054Y21159515D01*
X19648259Y21207488D01*
X19631463Y21275308D01*
X19653999Y21341444D01*
X19699054Y21380485D01*
X19707816Y21384949D01*
X19768051Y21428712D01*
X19879786Y21509891D01*
X19879788Y21509894D01*
X19879792Y21509896D01*
X20030104Y21660208D01*
X20030106Y21660212D01*
X20030109Y21660214D01*
X20155048Y21832180D01*
X20155047Y21832180D01*
X20155051Y21832184D01*
X20251557Y22021588D01*
X20317246Y22223757D01*
X20350500Y22433713D01*
X20350500Y22646287D01*
X20317246Y22856243D01*
X20251557Y23058412D01*
X20155051Y23247816D01*
X20155049Y23247819D01*
X20155048Y23247821D01*
X20030109Y23419787D01*
X19879786Y23570110D01*
X19707820Y23695049D01*
X19518414Y23791556D01*
X19518413Y23791557D01*
X19518412Y23791557D01*
X19316243Y23857246D01*
X19316241Y23857247D01*
X19316240Y23857247D01*
X19131188Y23886556D01*
X19106287Y23890500D01*
X18893713Y23890500D01*
X18868812Y23886556D01*
X18683760Y23857247D01*
X18481585Y23791556D01*
X18292179Y23695049D01*
X18120213Y23570110D01*
X17969890Y23419787D01*
X17844949Y23247818D01*
X17840484Y23239054D01*
X17792509Y23188258D01*
X17724688Y23171464D01*
X17658553Y23194002D01*
X17619516Y23239054D01*
X17615050Y23247818D01*
X17490109Y23419787D01*
X17339786Y23570110D01*
X17167820Y23695049D01*
X16978414Y23791556D01*
X16978413Y23791557D01*
X16978412Y23791557D01*
X16776243Y23857246D01*
X16776241Y23857247D01*
X16776240Y23857247D01*
X16591188Y23886556D01*
X16566287Y23890500D01*
X16353713Y23890500D01*
X16328812Y23886556D01*
X16143760Y23857247D01*
X15941585Y23791556D01*
X15752179Y23695049D01*
X15580213Y23570110D01*
X15429890Y23419787D01*
X15304951Y23247821D01*
X15208444Y23058415D01*
X15142753Y22856240D01*
X15109500Y22646287D01*
X12354189Y22646287D01*
X12282914Y22786172D01*
X12222658Y22869106D01*
X12222658Y22869107D01*
X11523787Y22170235D01*
X11512518Y22212292D01*
X11440110Y22337708D01*
X11337708Y22440110D01*
X11212292Y22512518D01*
X11170234Y22523788D01*
X11869105Y23222660D01*
X11869104Y23222662D01*
X11786174Y23282913D01*
X11575802Y23390103D01*
X11351247Y23463066D01*
X11351248Y23463066D01*
X11118052Y23500000D01*
X10881948Y23500000D01*
X10648752Y23463066D01*
X10424197Y23390103D01*
X10213830Y23282916D01*
X10130894Y23222660D01*
X10829766Y22523788D01*
X10787708Y22512518D01*
X10662292Y22440110D01*
X10559890Y22337708D01*
X10487482Y22212292D01*
X10476212Y22170234D01*
X9777340Y22869106D01*
X9717084Y22786170D01*
X9609897Y22575803D01*
X9536934Y22351248D01*
X9500000Y22118053D01*
X7750500Y22118053D01*
X7750500Y23073921D01*
X7735126Y23151209D01*
X7721659Y23218908D01*
X7721658Y23218909D01*
X7721658Y23218913D01*
X7720105Y23222662D01*
X7665087Y23355489D01*
X7665080Y23355502D01*
X7582952Y23478415D01*
X7561367Y23500000D01*
X7478416Y23582951D01*
X6260551Y24800816D01*
X5023549Y26037819D01*
X4990064Y26099142D01*
X4995048Y26168834D01*
X5036920Y26224767D01*
X5102384Y26249184D01*
X5111230Y26249500D01*
X5161420Y26249500D01*
X5258962Y26268904D01*
X5306413Y26278342D01*
X5442995Y26334916D01*
X5519104Y26385770D01*
X5565916Y26417048D01*
X6137049Y26988183D01*
X6198372Y27021667D01*
X6224730Y27024501D01*
X6386670Y27024501D01*
X6386676Y27024501D01*
X6487753Y27034826D01*
X6651516Y27089092D01*
X6798350Y27179660D01*
X6912319Y27293629D01*
X6973642Y27327114D01*
X7043334Y27322130D01*
X7087681Y27293629D01*
X7201650Y27179660D01*
X7348484Y27089092D01*
X7512247Y27034826D01*
X7613323Y27024500D01*
X8211676Y27024501D01*
X8211684Y27024502D01*
X8211687Y27024502D01*
X8267030Y27030156D01*
X8312753Y27034826D01*
X8476516Y27089092D01*
X8623350Y27179660D01*
X8745340Y27301650D01*
X8753942Y27315596D01*
X8805890Y27362321D01*
X8859481Y27374500D01*
X9061608Y27374500D01*
X9061608Y27374501D01*
X9128145Y27387735D01*
X9182452Y27398537D01*
X9225579Y27416401D01*
X9296286Y27445688D01*
X9347509Y27479916D01*
X9398733Y27514142D01*
X9485858Y27601267D01*
X9485859Y27601269D01*
X9492925Y27608335D01*
X9492928Y27608339D01*
X9760435Y27875846D01*
X13025001Y27875846D01*
X13035319Y27774848D01*
X13089546Y27611200D01*
X13089551Y27611189D01*
X13180052Y27464466D01*
X13180055Y27464462D01*
X13301961Y27342556D01*
X13301965Y27342553D01*
X13448688Y27252052D01*
X13448699Y27252047D01*
X13612347Y27197820D01*
X13713352Y27187501D01*
X13750000Y27187501D01*
X14250000Y27187501D01*
X14286640Y27187501D01*
X14286654Y27187502D01*
X14387652Y27197820D01*
X14551300Y27252047D01*
X14551311Y27252052D01*
X14698034Y27342553D01*
X14698038Y27342556D01*
X14819944Y27464462D01*
X14819947Y27464466D01*
X14910448Y27611189D01*
X14910453Y27611200D01*
X14964680Y27774848D01*
X14974999Y27875846D01*
X14975000Y27875859D01*
X14975000Y27975000D01*
X14250000Y27975000D01*
X14250000Y27187501D01*
X13750000Y27187501D01*
X13750000Y27975000D01*
X13025001Y27975000D01*
X13025001Y27875846D01*
X9760435Y27875846D01*
X12912318Y31027729D01*
X12920263Y31032068D01*
X12925689Y31039315D01*
X12950448Y31048550D01*
X12973641Y31061214D01*
X12982670Y31060569D01*
X12991153Y31063732D01*
X13016973Y31058116D01*
X13043333Y31056230D01*
X13052386Y31050412D01*
X13059426Y31048880D01*
X13087680Y31027729D01*
X13204428Y30910981D01*
X13237913Y30849658D01*
X13232929Y30779966D01*
X13204430Y30735620D01*
X13179659Y30710850D01*
X13089093Y30564019D01*
X13089091Y30564014D01*
X13064470Y30489712D01*
X13034826Y30400253D01*
X13034826Y30400252D01*
X13034825Y30400252D01*
X13024500Y30299185D01*
X13024500Y29600831D01*
X13024501Y29600813D01*
X13034825Y29499748D01*
X13060504Y29422256D01*
X13089092Y29335984D01*
X13179659Y29189151D01*
X13179661Y29189149D01*
X13193982Y29174828D01*
X13227467Y29113505D01*
X13222483Y29043813D01*
X13193985Y28999468D01*
X13180052Y28985535D01*
X13089551Y28838812D01*
X13089546Y28838801D01*
X13035319Y28675153D01*
X13025000Y28574155D01*
X13025000Y28475000D01*
X14974999Y28475000D01*
X14974999Y28574140D01*
X14974998Y28574155D01*
X14964680Y28675153D01*
X14910453Y28838801D01*
X14910448Y28838812D01*
X14819947Y28985535D01*
X14819944Y28985539D01*
X14806017Y28999466D01*
X14772532Y29060789D01*
X14777516Y29130481D01*
X14806017Y29174828D01*
X14820340Y29189150D01*
X14910908Y29335984D01*
X14965174Y29499747D01*
X14975500Y29600823D01*
X14975499Y30299155D01*
X16025000Y30299155D01*
X16025000Y30250000D01*
X16750000Y30250000D01*
X17250000Y30250000D01*
X17974999Y30250000D01*
X17974999Y30299140D01*
X17974998Y30299155D01*
X17964680Y30400153D01*
X17910453Y30563801D01*
X17910448Y30563812D01*
X17819947Y30710535D01*
X17819944Y30710539D01*
X17698038Y30832445D01*
X17698034Y30832448D01*
X17551311Y30922949D01*
X17551300Y30922954D01*
X17387652Y30977181D01*
X17286654Y30987500D01*
X17250000Y30987500D01*
X17250000Y30250000D01*
X16750000Y30250000D01*
X16750000Y30987500D01*
X16713361Y30987500D01*
X16713343Y30987499D01*
X16612347Y30977181D01*
X16448699Y30922954D01*
X16448688Y30922949D01*
X16301965Y30832448D01*
X16301961Y30832445D01*
X16180055Y30710539D01*
X16180052Y30710535D01*
X16089551Y30563812D01*
X16089546Y30563801D01*
X16035319Y30400153D01*
X16025000Y30299155D01*
X14975499Y30299155D01*
X14975499Y30299176D01*
X14965174Y30400253D01*
X14910908Y30564016D01*
X14820340Y30710850D01*
X14698350Y30832840D01*
X14698347Y30832843D01*
X14684402Y30841444D01*
X14681581Y30844580D01*
X14677594Y30845959D01*
X14658414Y30870338D01*
X14637679Y30893392D01*
X14636259Y30898499D01*
X14634393Y30900871D01*
X14631660Y30915043D01*
X14626065Y30935169D01*
X14625501Y30941063D01*
X14625501Y31061606D01*
X14604494Y31167215D01*
X14601463Y31182452D01*
X14592933Y31203045D01*
X14585463Y31272515D01*
X14616737Y31334994D01*
X14676825Y31370648D01*
X14707493Y31374500D01*
X18689548Y31374500D01*
X18756587Y31354815D01*
X18777229Y31338181D01*
X19204428Y30910981D01*
X19237913Y30849658D01*
X19232929Y30779966D01*
X19204430Y30735620D01*
X19179659Y30710850D01*
X19089093Y30564019D01*
X19089091Y30564014D01*
X19064470Y30489712D01*
X19034826Y30400253D01*
X19034826Y30400252D01*
X19034825Y30400252D01*
X19024500Y30299185D01*
X19024500Y29700831D01*
X19024501Y29700813D01*
X19034825Y29599748D01*
X19071109Y29490251D01*
X19089020Y29436200D01*
X19089092Y29435985D01*
X19089093Y29435982D01*
X19106290Y29408102D01*
X19179464Y29289467D01*
X19179661Y29289149D01*
X19293629Y29175181D01*
X19296534Y29169861D01*
X19301557Y29166462D01*
X19313086Y29139549D01*
X19327114Y29113858D01*
X19326681Y29107811D01*
X19329069Y29102237D01*
X19324218Y29073371D01*
X19322130Y29044166D01*
X19318238Y29037781D01*
X19317491Y29033333D01*
X19303860Y29014190D01*
X19297713Y29004102D01*
X19295729Y29001920D01*
X19179660Y28885850D01*
X19157308Y28849613D01*
X19149574Y28841102D01*
X19129166Y28828660D01*
X19111400Y28812679D01*
X19097939Y28809621D01*
X19089918Y28804729D01*
X19077691Y28805019D01*
X19057809Y28800500D01*
X17942191Y28800500D01*
X17875152Y28820185D01*
X17836652Y28859404D01*
X17820340Y28885850D01*
X17706017Y29000173D01*
X17672532Y29061496D01*
X17677516Y29131188D01*
X17706017Y29175536D01*
X17819948Y29289467D01*
X17910448Y29436189D01*
X17910453Y29436200D01*
X17964680Y29599848D01*
X17974999Y29700846D01*
X17975000Y29700859D01*
X17975000Y29750000D01*
X16025001Y29750000D01*
X16025001Y29700846D01*
X16035319Y29599848D01*
X16089546Y29436200D01*
X16089551Y29436189D01*
X16180052Y29289466D01*
X16180055Y29289462D01*
X16293982Y29175535D01*
X16327467Y29114212D01*
X16322483Y29044520D01*
X16293983Y29000173D01*
X16179659Y28885849D01*
X16089093Y28739019D01*
X16089091Y28739014D01*
X16061719Y28656412D01*
X16034826Y28575253D01*
X16034826Y28575252D01*
X16034825Y28575252D01*
X16024500Y28474185D01*
X16024500Y27875831D01*
X16024501Y27875813D01*
X16034825Y27774748D01*
X16063193Y27689142D01*
X16089020Y27611200D01*
X16089092Y27610985D01*
X16089093Y27610982D01*
X16115567Y27568061D01*
X16179660Y27464150D01*
X16301650Y27342160D01*
X16448484Y27251592D01*
X16612247Y27197326D01*
X16713323Y27187000D01*
X17286676Y27187001D01*
X17286684Y27187002D01*
X17286687Y27187002D01*
X17342030Y27192656D01*
X17387753Y27197326D01*
X17551516Y27251592D01*
X17698350Y27342160D01*
X17820340Y27464150D01*
X17836652Y27490596D01*
X17888600Y27537321D01*
X17942191Y27549500D01*
X19057809Y27549500D01*
X19124848Y27529815D01*
X19163348Y27490596D01*
X19179467Y27464462D01*
X19179660Y27464150D01*
X19301650Y27342160D01*
X19448484Y27251592D01*
X19612247Y27197326D01*
X19713323Y27187000D01*
X20286676Y27187001D01*
X20286684Y27187002D01*
X20286687Y27187002D01*
X20342030Y27192656D01*
X20387753Y27197326D01*
X20551516Y27251592D01*
X20698350Y27342160D01*
X20820340Y27464150D01*
X20836652Y27490596D01*
X20888600Y27537321D01*
X20942191Y27549500D01*
X21236608Y27549500D01*
X21236608Y27549501D01*
X21329926Y27568062D01*
X21357452Y27573537D01*
X21391731Y27587736D01*
X21471286Y27620688D01*
X21522509Y27654916D01*
X21573733Y27689142D01*
X21660858Y27776267D01*
X21660859Y27776269D01*
X21667925Y27783335D01*
X21667928Y27783339D01*
X23127696Y29243108D01*
X23189015Y29276590D01*
X23258707Y29271606D01*
X23314640Y29229734D01*
X23339057Y29164270D01*
X23337847Y29136030D01*
X23335000Y29118051D01*
X23335000Y28881948D01*
X23371934Y28648753D01*
X23444897Y28424198D01*
X23552087Y28213826D01*
X23612338Y28130896D01*
X23612340Y28130895D01*
X24343871Y28862426D01*
X24359755Y28803147D01*
X24426898Y28686853D01*
X24521853Y28591898D01*
X24638147Y28524755D01*
X24697425Y28508872D01*
X23965893Y27777342D01*
X24048828Y27717086D01*
X24259197Y27609898D01*
X24483752Y27536935D01*
X24483751Y27536935D01*
X24716948Y27500000D01*
X24953052Y27500000D01*
X25186247Y27536935D01*
X25410802Y27609898D01*
X25621163Y27717082D01*
X25621169Y27717086D01*
X25704104Y27777342D01*
X25704105Y27777342D01*
X24972574Y28508872D01*
X25031853Y28524755D01*
X25148147Y28591898D01*
X25243102Y28686853D01*
X25310245Y28803147D01*
X25326128Y28862425D01*
X26057658Y28130895D01*
X26057658Y28130896D01*
X26117914Y28213831D01*
X26117918Y28213837D01*
X26225102Y28424198D01*
X26298065Y28648753D01*
X26335000Y28881948D01*
X26335000Y29118053D01*
X26298065Y29351248D01*
X26225102Y29575803D01*
X26117914Y29786172D01*
X26057658Y29869106D01*
X26057658Y29869107D01*
X25326128Y29137576D01*
X25310245Y29196853D01*
X25243102Y29313147D01*
X25148147Y29408102D01*
X25031853Y29475245D01*
X24972574Y29491129D01*
X25704105Y30222660D01*
X25704104Y30222662D01*
X25619212Y30284339D01*
X25576546Y30339669D01*
X25570567Y30409282D01*
X25603172Y30471077D01*
X25604418Y30472340D01*
X25621787Y30489709D01*
X25621789Y30489711D01*
X25709394Y30620821D01*
X25712180Y30627547D01*
X25751284Y30721952D01*
X25795125Y30776356D01*
X25861419Y30798421D01*
X25865845Y30798500D01*
X31499846Y30798500D01*
X31566885Y30778815D01*
X31612640Y30726011D01*
X31622584Y30656853D01*
X31593559Y30593297D01*
X31587527Y30586819D01*
X30662527Y29661819D01*
X30601204Y29628334D01*
X30574846Y29625500D01*
X28953039Y29625500D01*
X28953019Y29625501D01*
X28946905Y29625501D01*
X28823692Y29625501D01*
X28722895Y29605452D01*
X28722890Y29605452D01*
X28702847Y29601464D01*
X28702845Y29601464D01*
X28655695Y29581933D01*
X28589017Y29554315D01*
X28589015Y29554314D01*
X28486564Y29485859D01*
X28486561Y29485856D01*
X25662527Y26661819D01*
X25601204Y26628334D01*
X25574846Y26625500D01*
X25067741Y26625500D01*
X25067721Y26625501D01*
X25061607Y26625501D01*
X24938394Y26625501D01*
X24837597Y26605452D01*
X24837592Y26605452D01*
X24817550Y26601464D01*
X24813970Y26599981D01*
X24773110Y26583056D01*
X24703711Y26554311D01*
X24601267Y26485859D01*
X24601263Y26485856D01*
X22350912Y24235503D01*
X21601269Y23485860D01*
X21601267Y23485858D01*
X21578475Y23463066D01*
X21514142Y23398734D01*
X21485251Y23355495D01*
X21485250Y23355496D01*
X21445689Y23296288D01*
X21445685Y23296281D01*
X21418971Y23231785D01*
X21398539Y23182459D01*
X21398535Y23182445D01*
X21374500Y23061611D01*
X21374500Y21881350D01*
X21354815Y21814311D01*
X21353626Y21812497D01*
X21345124Y21799771D01*
X21290609Y21718185D01*
X21290602Y21718172D01*
X21230264Y21572502D01*
X21230261Y21572490D01*
X21199500Y21417847D01*
X21199500Y21260154D01*
X21230261Y21105511D01*
X21230264Y21105499D01*
X21290602Y20959828D01*
X21290609Y20959815D01*
X21378210Y20828712D01*
X21378213Y20828708D01*
X21489707Y20717214D01*
X21489711Y20717211D01*
X21620814Y20629610D01*
X21620827Y20629603D01*
X21766498Y20569265D01*
X21766503Y20569263D01*
X21917051Y20539317D01*
X21921153Y20538501D01*
X21921156Y20538500D01*
X21921158Y20538500D01*
X22078844Y20538500D01*
X22078845Y20538501D01*
X22233497Y20569263D01*
X22346166Y20615933D01*
X22379172Y20629603D01*
X22379172Y20629604D01*
X22379179Y20629606D01*
X22510289Y20717211D01*
X22621789Y20828711D01*
X22709394Y20959821D01*
X22769737Y21105503D01*
X22800500Y21260158D01*
X22800500Y21417842D01*
X22800500Y21417845D01*
X22800499Y21417847D01*
X22787149Y21484963D01*
X22769737Y21572497D01*
X22766726Y21579766D01*
X22709397Y21718172D01*
X22709396Y21718173D01*
X22709394Y21718179D01*
X22646397Y21812461D01*
X22625520Y21879137D01*
X22625500Y21881350D01*
X22625500Y22689549D01*
X22645185Y22756588D01*
X22661815Y22777226D01*
X23288574Y23403986D01*
X23349897Y23437470D01*
X23419589Y23432486D01*
X23463936Y23403985D01*
X23489707Y23378214D01*
X23489711Y23378211D01*
X23620814Y23290610D01*
X23620827Y23290603D01*
X23762831Y23231784D01*
X23766503Y23230263D01*
X23921153Y23199501D01*
X23921156Y23199500D01*
X23921158Y23199500D01*
X24078844Y23199500D01*
X24078845Y23199501D01*
X24233497Y23230263D01*
X24379179Y23290606D01*
X24510289Y23378211D01*
X24621789Y23489711D01*
X24709394Y23620821D01*
X24769737Y23766503D01*
X24797489Y23906021D01*
X24800638Y23921850D01*
X24833023Y23983761D01*
X24834514Y23985280D01*
X25212417Y24363181D01*
X25273740Y24396666D01*
X25300098Y24399500D01*
X33420234Y24399500D01*
X33487273Y24379815D01*
X33489125Y24378602D01*
X33620814Y24290610D01*
X33620827Y24290603D01*
X33763507Y24231504D01*
X33766503Y24230263D01*
X33882659Y24207158D01*
X33921153Y24199501D01*
X33921156Y24199500D01*
X33921158Y24199500D01*
X34078844Y24199500D01*
X34078845Y24199501D01*
X34233497Y24230263D01*
X34233509Y24230269D01*
X34239324Y24232031D01*
X34240158Y24229280D01*
X34260601Y24231504D01*
X34293147Y24236183D01*
X34295159Y24235264D01*
X34297359Y24235503D01*
X34326779Y24220824D01*
X34356703Y24207158D01*
X34357899Y24205297D01*
X34359878Y24204309D01*
X34376687Y24176062D01*
X34394477Y24148380D01*
X34394896Y24145462D01*
X34395608Y24144266D01*
X34399500Y24113445D01*
X34399500Y23886556D01*
X34379815Y23819517D01*
X34327011Y23773762D01*
X34257853Y23763818D01*
X34239575Y23768798D01*
X34239324Y23767969D01*
X34233500Y23769736D01*
X34233497Y23769737D01*
X34233492Y23769738D01*
X34233489Y23769739D01*
X34078845Y23800500D01*
X34078842Y23800500D01*
X33921158Y23800500D01*
X33921155Y23800500D01*
X33766510Y23769739D01*
X33766498Y23769736D01*
X33620827Y23709398D01*
X33620814Y23709391D01*
X33489125Y23621398D01*
X33422447Y23600520D01*
X33420234Y23600500D01*
X26086670Y23600500D01*
X26086654Y23600501D01*
X26079058Y23600501D01*
X25920943Y23600501D01*
X25844579Y23580039D01*
X25768214Y23559577D01*
X25768209Y23559574D01*
X25631290Y23480525D01*
X25631282Y23480519D01*
X24787584Y22636819D01*
X24760656Y22622116D01*
X24734838Y22605523D01*
X24728637Y22604632D01*
X24726261Y22603334D01*
X24699903Y22600500D01*
X24488473Y22600500D01*
X24421434Y22620185D01*
X24419582Y22621398D01*
X24379185Y22648391D01*
X24379172Y22648398D01*
X24233501Y22708736D01*
X24233489Y22708739D01*
X24078845Y22739500D01*
X24078842Y22739500D01*
X23921158Y22739500D01*
X23921155Y22739500D01*
X23766510Y22708739D01*
X23766498Y22708736D01*
X23620827Y22648398D01*
X23620814Y22648391D01*
X23489711Y22560790D01*
X23489707Y22560787D01*
X23378213Y22449293D01*
X23378210Y22449289D01*
X23290609Y22318186D01*
X23290602Y22318173D01*
X23230264Y22172502D01*
X23230261Y22172490D01*
X23199500Y22017847D01*
X23199500Y21860154D01*
X23230261Y21705511D01*
X23230264Y21705499D01*
X23290602Y21559828D01*
X23290609Y21559815D01*
X23378210Y21428712D01*
X23378213Y21428708D01*
X23489707Y21317214D01*
X23489711Y21317211D01*
X23620814Y21229610D01*
X23620827Y21229603D01*
X23741028Y21179815D01*
X23766503Y21169263D01*
X23921153Y21138501D01*
X23921156Y21138500D01*
X23921158Y21138500D01*
X24078844Y21138500D01*
X24078845Y21138501D01*
X24233497Y21169263D01*
X24379179Y21229606D01*
X24510289Y21317211D01*
X24556258Y21363180D01*
X24583186Y21377885D01*
X24609005Y21394477D01*
X24615204Y21395369D01*
X24617581Y21396666D01*
X24643940Y21399500D01*
X24669575Y21399500D01*
X24736614Y21379815D01*
X24782369Y21327011D01*
X24784121Y21322988D01*
X24797534Y21290606D01*
X24800871Y21282550D01*
X24888473Y21151445D01*
X24888476Y21151441D01*
X24999970Y21039947D01*
X24999974Y21039944D01*
X25131077Y20952343D01*
X25131090Y20952336D01*
X25262645Y20897845D01*
X25276766Y20891996D01*
X25431416Y20861234D01*
X25431419Y20861233D01*
X25431421Y20861233D01*
X25589107Y20861233D01*
X25589108Y20861234D01*
X25743760Y20891996D01*
X25876043Y20946789D01*
X25889435Y20952336D01*
X25889435Y20952337D01*
X25889442Y20952339D01*
X25900650Y20959828D01*
X26021138Y21040335D01*
X26087816Y21061213D01*
X26090029Y21061233D01*
X26575064Y21061233D01*
X26575080Y21061232D01*
X26582676Y21061232D01*
X26740787Y21061232D01*
X26740790Y21061232D01*
X26893518Y21102156D01*
X26975097Y21149256D01*
X26985135Y21155051D01*
X27018759Y21174465D01*
X27030449Y21181213D01*
X27142253Y21293017D01*
X27142254Y21293019D01*
X27212418Y21363184D01*
X27273740Y21396666D01*
X27300097Y21399500D01*
X33420234Y21399500D01*
X33487273Y21379815D01*
X33489125Y21378602D01*
X33620814Y21290610D01*
X33620827Y21290603D01*
X33715094Y21251557D01*
X33766503Y21230263D01*
X33921153Y21199501D01*
X33921156Y21199500D01*
X34075500Y21199500D01*
X34142539Y21179815D01*
X34188294Y21127011D01*
X34199500Y21075500D01*
X34199500Y20921154D01*
X34230261Y20766511D01*
X34230264Y20766499D01*
X34290602Y20620828D01*
X34290609Y20620815D01*
X34378210Y20489712D01*
X34378213Y20489708D01*
X34489707Y20378214D01*
X34489711Y20378211D01*
X34620814Y20290610D01*
X34620827Y20290603D01*
X34728138Y20246154D01*
X34766503Y20230263D01*
X34921153Y20199501D01*
X34921156Y20199500D01*
X34921158Y20199500D01*
X35078844Y20199500D01*
X35078845Y20199501D01*
X35233497Y20230263D01*
X35379179Y20290606D01*
X35510289Y20378211D01*
X35621789Y20489711D01*
X35709394Y20620821D01*
X35713035Y20629610D01*
X35743922Y20704179D01*
X35769737Y20766503D01*
X35800500Y20921158D01*
X35800500Y21078842D01*
X35800500Y21078845D01*
X35800499Y21078847D01*
X35797338Y21094739D01*
X35769737Y21233497D01*
X35760072Y21256831D01*
X35709397Y21379173D01*
X35709390Y21379186D01*
X35621398Y21510875D01*
X35600520Y21577553D01*
X35600500Y21579766D01*
X35600500Y28420235D01*
X35620185Y28487274D01*
X35621398Y28489126D01*
X35680612Y28577745D01*
X35709394Y28620821D01*
X35712550Y28628439D01*
X35749786Y28718337D01*
X35769737Y28766503D01*
X35800500Y28921158D01*
X35800500Y29078842D01*
X35800500Y29078845D01*
X35800499Y29078847D01*
X35790088Y29131188D01*
X35769737Y29233497D01*
X35762901Y29250001D01*
X35709397Y29379173D01*
X35709390Y29379186D01*
X35621789Y29510289D01*
X35621786Y29510293D01*
X35510292Y29621787D01*
X35510288Y29621790D01*
X35379185Y29709391D01*
X35379172Y29709398D01*
X35233501Y29769736D01*
X35233489Y29769739D01*
X35078845Y29800500D01*
X35078842Y29800500D01*
X34921158Y29800500D01*
X34921155Y29800500D01*
X34766510Y29769739D01*
X34766498Y29769736D01*
X34620827Y29709398D01*
X34620814Y29709391D01*
X34489711Y29621790D01*
X34489707Y29621787D01*
X34378213Y29510293D01*
X34378210Y29510289D01*
X34290609Y29379186D01*
X34290602Y29379173D01*
X34230264Y29233502D01*
X34230261Y29233490D01*
X34199500Y29078847D01*
X34199500Y28921154D01*
X34230261Y28766511D01*
X34230264Y28766499D01*
X34290602Y28620828D01*
X34290609Y28620815D01*
X34378602Y28489126D01*
X34399480Y28422449D01*
X34399500Y28420235D01*
X34399500Y25886556D01*
X34379815Y25819517D01*
X34327011Y25773762D01*
X34257853Y25763818D01*
X34239575Y25768798D01*
X34239324Y25767969D01*
X34233500Y25769736D01*
X34233497Y25769737D01*
X34233492Y25769738D01*
X34233489Y25769739D01*
X34078845Y25800500D01*
X34078842Y25800500D01*
X33921158Y25800500D01*
X33921155Y25800500D01*
X33766510Y25769739D01*
X33766498Y25769736D01*
X33620827Y25709398D01*
X33620814Y25709391D01*
X33489125Y25621398D01*
X33422447Y25600520D01*
X33420234Y25600500D01*
X26669749Y25600500D01*
X26602710Y25620185D01*
X26556955Y25672989D01*
X26547011Y25742147D01*
X26576036Y25805703D01*
X26582068Y25812181D01*
X27100552Y26330664D01*
X29108070Y28338181D01*
X29169393Y28371666D01*
X29195751Y28374500D01*
X30946906Y28374500D01*
X30946906Y28374501D01*
X31013533Y28387753D01*
X31067750Y28398537D01*
X31101090Y28412348D01*
X31181584Y28445688D01*
X31247467Y28489711D01*
X31284031Y28514142D01*
X31371156Y28601267D01*
X31371156Y28601269D01*
X31381364Y28611476D01*
X31381365Y28611479D01*
X37423319Y34653430D01*
X37442755Y34664043D01*
X37459489Y34678543D01*
X37472820Y34680460D01*
X37484642Y34686915D01*
X37506728Y34685336D01*
X37528647Y34688487D01*
X37540898Y34682892D01*
X37554334Y34681931D01*
X37572060Y34668661D01*
X37592203Y34659462D01*
X37599485Y34648131D01*
X37610267Y34640059D01*
X37618004Y34619314D01*
X37629977Y34600684D01*
X37633128Y34578766D01*
X37634684Y34574595D01*
X37635000Y34565749D01*
X37635000Y34535599D01*
X37615315Y34468560D01*
X37598681Y34447918D01*
X35519481Y32368719D01*
X35519475Y32368711D01*
X35484499Y32308129D01*
X35484499Y32308127D01*
X35440423Y32231787D01*
X35434902Y32211181D01*
X35399499Y32079058D01*
X35399499Y32079056D01*
X35399499Y31910955D01*
X35399500Y31910942D01*
X35399500Y31579766D01*
X35379815Y31512727D01*
X35378602Y31510875D01*
X35290609Y31379186D01*
X35290602Y31379173D01*
X35230264Y31233502D01*
X35230261Y31233490D01*
X35199500Y31078847D01*
X35199500Y30921154D01*
X35230261Y30766511D01*
X35230264Y30766499D01*
X35290602Y30620828D01*
X35290609Y30620815D01*
X35378210Y30489712D01*
X35378213Y30489708D01*
X35489707Y30378214D01*
X35489711Y30378211D01*
X35620814Y30290610D01*
X35620827Y30290603D01*
X35718853Y30250000D01*
X35766503Y30230263D01*
X35921153Y30199501D01*
X35921156Y30199500D01*
X35921158Y30199500D01*
X36078844Y30199500D01*
X36078845Y30199501D01*
X36233497Y30230263D01*
X36379179Y30290606D01*
X36510289Y30378211D01*
X36621789Y30489711D01*
X36709394Y30620821D01*
X36769737Y30766503D01*
X36800500Y30921158D01*
X36800500Y31078842D01*
X36800500Y31078845D01*
X36800499Y31078847D01*
X36781699Y31173358D01*
X36769737Y31233497D01*
X36759713Y31257698D01*
X36709397Y31379173D01*
X36709390Y31379186D01*
X36621398Y31510875D01*
X36615747Y31528922D01*
X36605523Y31544831D01*
X36601071Y31575793D01*
X36600520Y31577553D01*
X36600500Y31579766D01*
X36600500Y31699904D01*
X36620185Y31766943D01*
X36636819Y31787585D01*
X37824319Y32975085D01*
X37885642Y33008570D01*
X37955334Y33003586D01*
X38011267Y32961714D01*
X38035684Y32896250D01*
X38036000Y32887404D01*
X38036000Y20075964D01*
X38016315Y20008925D01*
X37963511Y19963170D01*
X37936192Y19954347D01*
X37854008Y19938000D01*
X37853998Y19937997D01*
X37708327Y19877659D01*
X37708314Y19877652D01*
X37577211Y19790051D01*
X37577207Y19790048D01*
X37465713Y19678554D01*
X37465710Y19678550D01*
X37378109Y19547447D01*
X37378102Y19547434D01*
X37317764Y19401763D01*
X37317761Y19401751D01*
X37287000Y19247108D01*
X37287000Y19089415D01*
X37317761Y18934772D01*
X37317764Y18934760D01*
X37378102Y18789089D01*
X37378109Y18789076D01*
X37465710Y18657973D01*
X37465713Y18657969D01*
X37577207Y18546475D01*
X37577211Y18546472D01*
X37708314Y18458871D01*
X37708327Y18458864D01*
X37853998Y18398526D01*
X37854003Y18398524D01*
X37956108Y18378214D01*
X38008653Y18367762D01*
X38008656Y18367761D01*
X38008658Y18367761D01*
X38166344Y18367761D01*
X38166345Y18367762D01*
X38320997Y18398524D01*
X38466679Y18458867D01*
X38597789Y18546472D01*
X38709289Y18657972D01*
X38796894Y18789082D01*
X38798440Y18792813D01*
X38838930Y18890567D01*
X38857237Y18934764D01*
X38888000Y19089419D01*
X38888000Y19089422D01*
X38888137Y19090110D01*
X38896902Y19106867D01*
X38900922Y19125346D01*
X38919662Y19150381D01*
X38920521Y19152021D01*
X38922032Y19153559D01*
X38995004Y19226532D01*
X38995006Y19226532D01*
X39005214Y19236741D01*
X39005216Y19236741D01*
X39117020Y19348545D01*
X39193215Y19480519D01*
X39196077Y19485476D01*
X39237000Y19638203D01*
X39237000Y19796318D01*
X39237000Y23851903D01*
X39243238Y23873149D01*
X39244818Y23895237D01*
X39252890Y23906021D01*
X39256685Y23918942D01*
X39273418Y23933442D01*
X39286690Y23951170D01*
X39299310Y23955878D01*
X39309489Y23964697D01*
X39331406Y23967849D01*
X39352154Y23975587D01*
X39365314Y23972725D01*
X39378647Y23974641D01*
X39398790Y23965442D01*
X39420427Y23960735D01*
X39438152Y23947467D01*
X39442203Y23945616D01*
X39448681Y23939584D01*
X39551681Y23836584D01*
X39585166Y23775261D01*
X39588000Y23748903D01*
X39588000Y21898170D01*
X39587999Y21898152D01*
X39587999Y21732446D01*
X39587998Y21732446D01*
X39628909Y21579766D01*
X39628923Y21579715D01*
X39633094Y21572490D01*
X39657858Y21529600D01*
X39657859Y21529596D01*
X39657860Y21529596D01*
X39669236Y21509891D01*
X39707979Y21442786D01*
X39707981Y21442783D01*
X39826849Y21323915D01*
X39826855Y21323910D01*
X46939584Y14211181D01*
X46973069Y14149858D01*
X46968085Y14080166D01*
X46926213Y14024233D01*
X46860749Y13999816D01*
X46851903Y13999500D01*
X41579766Y13999500D01*
X41512727Y14019185D01*
X41510875Y14020398D01*
X41379185Y14108391D01*
X41379172Y14108398D01*
X41233501Y14168736D01*
X41233489Y14168739D01*
X41078845Y14199500D01*
X41078842Y14199500D01*
X40921158Y14199500D01*
X40921155Y14199500D01*
X40766510Y14168739D01*
X40766498Y14168736D01*
X40620827Y14108398D01*
X40620814Y14108391D01*
X40507061Y14032383D01*
X40440383Y14011505D01*
X40373003Y14029990D01*
X40350489Y14047804D01*
X39224319Y15173974D01*
X39190834Y15235297D01*
X39188000Y15261655D01*
X39188000Y15832735D01*
X39207685Y15899774D01*
X39208898Y15901626D01*
X39214828Y15910500D01*
X39296894Y16033321D01*
X39300651Y16042390D01*
X39357235Y16178999D01*
X39357237Y16179003D01*
X39388000Y16333658D01*
X39388000Y16491342D01*
X39388000Y16491345D01*
X39387999Y16491347D01*
X39381108Y16525989D01*
X39357237Y16645997D01*
X39356025Y16648923D01*
X39296897Y16791673D01*
X39296890Y16791686D01*
X39209289Y16922789D01*
X39209286Y16922793D01*
X39097792Y17034287D01*
X39097788Y17034290D01*
X38966685Y17121891D01*
X38966672Y17121898D01*
X38821001Y17182236D01*
X38820989Y17182239D01*
X38666345Y17213000D01*
X38666342Y17213000D01*
X38508658Y17213000D01*
X38508655Y17213000D01*
X38354010Y17182239D01*
X38353998Y17182236D01*
X38208327Y17121898D01*
X38208314Y17121891D01*
X38077211Y17034290D01*
X38077207Y17034287D01*
X37965713Y16922793D01*
X37965710Y16922789D01*
X37878109Y16791686D01*
X37878102Y16791673D01*
X37817764Y16646002D01*
X37817761Y16645990D01*
X37787000Y16491347D01*
X37787000Y16333654D01*
X37817761Y16179011D01*
X37817764Y16178999D01*
X37878102Y16033328D01*
X37878109Y16033315D01*
X37935013Y15948154D01*
X37960172Y15910500D01*
X37966102Y15901626D01*
X37986980Y15834949D01*
X37987000Y15832735D01*
X37987000Y15048227D01*
X37986999Y15048209D01*
X37986999Y14882503D01*
X37986998Y14882503D01*
X38027923Y14729772D01*
X38040346Y14708255D01*
X38106977Y14592845D01*
X38106981Y14592840D01*
X38225849Y14473972D01*
X38225854Y14473968D01*
X40382341Y12317480D01*
X40382343Y12317479D01*
X40382347Y12317476D01*
X40434883Y12287145D01*
X40519273Y12238423D01*
X40672000Y12197499D01*
X40672002Y12197499D01*
X40837711Y12197499D01*
X40837727Y12197500D01*
X47901903Y12197500D01*
X47931343Y12188856D01*
X47961330Y12182332D01*
X47966345Y12178578D01*
X47968942Y12177815D01*
X47989584Y12161181D01*
X48165425Y11985340D01*
X48198910Y11924017D01*
X48199361Y11921851D01*
X48230261Y11766509D01*
X48230264Y11766499D01*
X48290602Y11620828D01*
X48290609Y11620815D01*
X48378210Y11489712D01*
X48378213Y11489708D01*
X48489707Y11378214D01*
X48489711Y11378211D01*
X48620814Y11290610D01*
X48620827Y11290603D01*
X48751757Y11236371D01*
X48766503Y11230263D01*
X48916131Y11200500D01*
X48921153Y11199501D01*
X48921156Y11199500D01*
X48921158Y11199500D01*
X49078844Y11199500D01*
X49078845Y11199501D01*
X49233497Y11230263D01*
X49379179Y11290606D01*
X49510289Y11378211D01*
X49621789Y11489711D01*
X49709394Y11620821D01*
X49769737Y11766503D01*
X49800500Y11921158D01*
X49800500Y12078842D01*
X49800500Y12078845D01*
X49800499Y12078847D01*
X49791000Y12126602D01*
X49769737Y12233497D01*
X49747517Y12287142D01*
X49709397Y12379173D01*
X49709390Y12379186D01*
X49621789Y12510289D01*
X49621786Y12510293D01*
X49510292Y12621787D01*
X49510288Y12621790D01*
X49379185Y12709391D01*
X49379172Y12709398D01*
X49233501Y12769736D01*
X49233491Y12769739D01*
X49078149Y12800639D01*
X49061392Y12809405D01*
X49042914Y12813424D01*
X49017877Y12832167D01*
X49016238Y12833024D01*
X49014660Y12834575D01*
X48861887Y12987348D01*
X48828402Y13048671D01*
X48833386Y13118363D01*
X48861884Y13162707D01*
X49081520Y13382341D01*
X49160577Y13519272D01*
X49201501Y13672000D01*
X49201501Y13830115D01*
X49201501Y13837710D01*
X49201500Y13837728D01*
X49201500Y14134559D01*
X50099500Y14134559D01*
X50099500Y13885442D01*
X50099501Y13885425D01*
X50128849Y13662500D01*
X50132018Y13638435D01*
X50156020Y13548858D01*
X50196498Y13397793D01*
X50291830Y13167639D01*
X50291837Y13167624D01*
X50416400Y12951874D01*
X50568060Y12754226D01*
X50568066Y12754219D01*
X50744218Y12578067D01*
X50744225Y12578061D01*
X50941873Y12426401D01*
X51157623Y12301838D01*
X51157638Y12301831D01*
X51193101Y12287142D01*
X51387793Y12206498D01*
X51628435Y12142018D01*
X51875435Y12109500D01*
X51875442Y12109500D01*
X52124558Y12109500D01*
X52124565Y12109500D01*
X52371565Y12142018D01*
X52612207Y12206498D01*
X52842373Y12301836D01*
X53058127Y12426401D01*
X53255776Y12578062D01*
X53431938Y12754224D01*
X53583599Y12951873D01*
X53656907Y13078847D01*
X62199500Y13078847D01*
X62199500Y12921154D01*
X62230261Y12766511D01*
X62230264Y12766499D01*
X62290602Y12620828D01*
X62290609Y12620815D01*
X62378210Y12489712D01*
X62378213Y12489708D01*
X62489707Y12378214D01*
X62489711Y12378211D01*
X62620814Y12290610D01*
X62620827Y12290603D01*
X62746793Y12238427D01*
X62766503Y12230263D01*
X62824669Y12218693D01*
X62921849Y12199362D01*
X62983760Y12166977D01*
X62985336Y12165429D01*
X63631284Y11519480D01*
X63631286Y11519479D01*
X63631290Y11519476D01*
X63768209Y11440427D01*
X63768212Y11440425D01*
X63768216Y11440423D01*
X63920943Y11399499D01*
X63920945Y11399499D01*
X64086654Y11399499D01*
X64086670Y11399500D01*
X73913331Y11399500D01*
X73913347Y11399499D01*
X73920943Y11399499D01*
X74079054Y11399499D01*
X74079057Y11399499D01*
X74231785Y11440423D01*
X74304439Y11482370D01*
X74368716Y11519480D01*
X74480520Y11631284D01*
X74480520Y11631286D01*
X74490724Y11641489D01*
X74490727Y11641494D01*
X75014665Y12165430D01*
X75075984Y12198912D01*
X75078151Y12199363D01*
X75078840Y12199500D01*
X75078842Y12199500D01*
X75233497Y12230263D01*
X75370816Y12287142D01*
X75379172Y12290603D01*
X75379172Y12290604D01*
X75379179Y12290606D01*
X75510289Y12378211D01*
X75621789Y12489711D01*
X75709394Y12620821D01*
X75769737Y12766503D01*
X75800500Y12921158D01*
X75800500Y13078842D01*
X75800500Y13078845D01*
X75800499Y13078847D01*
X75792639Y13118363D01*
X75769737Y13233497D01*
X75747710Y13286676D01*
X75709397Y13379173D01*
X75709390Y13379186D01*
X75621789Y13510289D01*
X75621786Y13510293D01*
X75510292Y13621787D01*
X75510288Y13621790D01*
X75379185Y13709391D01*
X75379172Y13709398D01*
X75233501Y13769736D01*
X75233489Y13769739D01*
X75078845Y13800500D01*
X75078842Y13800500D01*
X74921158Y13800500D01*
X74921155Y13800500D01*
X74766510Y13769739D01*
X74766498Y13769736D01*
X74620827Y13709398D01*
X74620814Y13709391D01*
X74489711Y13621790D01*
X74489707Y13621787D01*
X74378213Y13510293D01*
X74378210Y13510289D01*
X74290609Y13379186D01*
X74290602Y13379173D01*
X74230264Y13233502D01*
X74230261Y13233492D01*
X74199362Y13078151D01*
X74166977Y13016241D01*
X74165426Y13014662D01*
X73787584Y12636819D01*
X73726261Y12603334D01*
X73699903Y12600500D01*
X64300098Y12600500D01*
X64233059Y12620185D01*
X64212417Y12636819D01*
X63834573Y13014663D01*
X63801088Y13075986D01*
X63800637Y13078153D01*
X63798671Y13088036D01*
X63769737Y13233497D01*
X63747710Y13286676D01*
X63709397Y13379173D01*
X63709390Y13379186D01*
X63621789Y13510289D01*
X63621786Y13510293D01*
X63510292Y13621787D01*
X63510288Y13621790D01*
X63379185Y13709391D01*
X63379172Y13709398D01*
X63233501Y13769736D01*
X63233489Y13769739D01*
X63078845Y13800500D01*
X63078842Y13800500D01*
X62921158Y13800500D01*
X62921155Y13800500D01*
X62766510Y13769739D01*
X62766498Y13769736D01*
X62620827Y13709398D01*
X62620814Y13709391D01*
X62489711Y13621790D01*
X62489707Y13621787D01*
X62378213Y13510293D01*
X62378210Y13510289D01*
X62290609Y13379186D01*
X62290602Y13379173D01*
X62230264Y13233502D01*
X62230261Y13233490D01*
X62199500Y13078847D01*
X53656907Y13078847D01*
X53708164Y13167627D01*
X53803502Y13397793D01*
X53867982Y13638435D01*
X53900500Y13885435D01*
X53900500Y14134565D01*
X53867982Y14381565D01*
X53803502Y14622207D01*
X53726502Y14808102D01*
X53708169Y14852362D01*
X53708162Y14852377D01*
X53583599Y15068127D01*
X53431939Y15265775D01*
X53431933Y15265782D01*
X53255781Y15441934D01*
X53255774Y15441940D01*
X53058126Y15593600D01*
X52842376Y15718163D01*
X52842361Y15718170D01*
X52612207Y15813502D01*
X52371561Y15877983D01*
X52124575Y15910499D01*
X52124570Y15910500D01*
X52124565Y15910500D01*
X51875435Y15910500D01*
X51875429Y15910500D01*
X51875424Y15910499D01*
X51628438Y15877983D01*
X51387792Y15813502D01*
X51157638Y15718170D01*
X51157623Y15718163D01*
X50941873Y15593600D01*
X50744225Y15441940D01*
X50744218Y15441934D01*
X50568066Y15265782D01*
X50568060Y15265775D01*
X50416400Y15068127D01*
X50291837Y14852377D01*
X50291830Y14852362D01*
X50196498Y14622208D01*
X50132017Y14381562D01*
X50099501Y14134576D01*
X50099500Y14134559D01*
X49201500Y14134559D01*
X49201500Y17119173D01*
X49201499Y17119179D01*
X49193607Y17148632D01*
X49192779Y17151724D01*
X49160577Y17271902D01*
X49125364Y17332892D01*
X49124373Y17334609D01*
X49124372Y17334610D01*
X49081521Y17408831D01*
X49081520Y17408833D01*
X48969716Y17520637D01*
X48969715Y17520638D01*
X48965385Y17524968D01*
X48965374Y17524978D01*
X47411505Y19078847D01*
X55199500Y19078847D01*
X55199500Y18921154D01*
X55230261Y18766511D01*
X55230264Y18766499D01*
X55290602Y18620828D01*
X55290609Y18620815D01*
X55378210Y18489712D01*
X55378213Y18489708D01*
X55489707Y18378214D01*
X55489711Y18378211D01*
X55620814Y18290610D01*
X55620827Y18290603D01*
X55706900Y18254951D01*
X55766503Y18230263D01*
X55921153Y18199501D01*
X55921156Y18199500D01*
X55921158Y18199500D01*
X56078844Y18199500D01*
X56078845Y18199501D01*
X56233497Y18230263D01*
X56365732Y18285036D01*
X56379172Y18290603D01*
X56379172Y18290604D01*
X56379179Y18290606D01*
X56447309Y18336129D01*
X56510875Y18378602D01*
X56577553Y18399480D01*
X56579766Y18399500D01*
X57420234Y18399500D01*
X57487273Y18379815D01*
X57489125Y18378602D01*
X57620814Y18290610D01*
X57620827Y18290603D01*
X57706900Y18254951D01*
X57766503Y18230263D01*
X57921153Y18199501D01*
X57921156Y18199500D01*
X57921158Y18199500D01*
X58078844Y18199500D01*
X58078845Y18199501D01*
X58233497Y18230263D01*
X58365732Y18285036D01*
X58379172Y18290603D01*
X58379172Y18290604D01*
X58379179Y18290606D01*
X58510289Y18378211D01*
X58621789Y18489711D01*
X58709394Y18620821D01*
X58769737Y18766503D01*
X58800500Y18921158D01*
X58800500Y19078842D01*
X58800500Y19078845D01*
X58800499Y19078847D01*
X58797205Y19095405D01*
X58769737Y19233497D01*
X58745428Y19292184D01*
X58709397Y19379173D01*
X58709390Y19379186D01*
X58621789Y19510289D01*
X58621786Y19510293D01*
X58510292Y19621787D01*
X58510288Y19621790D01*
X58379185Y19709391D01*
X58379172Y19709398D01*
X58233501Y19769736D01*
X58233489Y19769739D01*
X58078845Y19800500D01*
X58078842Y19800500D01*
X57921158Y19800500D01*
X57921155Y19800500D01*
X57766510Y19769739D01*
X57766498Y19769736D01*
X57620827Y19709398D01*
X57620814Y19709391D01*
X57489125Y19621398D01*
X57422447Y19600520D01*
X57420234Y19600500D01*
X56579766Y19600500D01*
X56512727Y19620185D01*
X56510875Y19621398D01*
X56379185Y19709391D01*
X56379172Y19709398D01*
X56233501Y19769736D01*
X56233489Y19769739D01*
X56078845Y19800500D01*
X56078842Y19800500D01*
X55921158Y19800500D01*
X55921155Y19800500D01*
X55766510Y19769739D01*
X55766498Y19769736D01*
X55620827Y19709398D01*
X55620814Y19709391D01*
X55489711Y19621790D01*
X55489707Y19621787D01*
X55378213Y19510293D01*
X55378210Y19510289D01*
X55290609Y19379186D01*
X55290602Y19379173D01*
X55230264Y19233502D01*
X55230261Y19233490D01*
X55199500Y19078847D01*
X47411505Y19078847D01*
X47148638Y19341714D01*
X47115153Y19403037D01*
X47120137Y19472729D01*
X47162009Y19528662D01*
X47212128Y19551012D01*
X47220911Y19552760D01*
X47233497Y19555263D01*
X47379179Y19615606D01*
X47420292Y19643077D01*
X47510875Y19703602D01*
X47577553Y19724480D01*
X47579766Y19724500D01*
X50420234Y19724500D01*
X50487273Y19704815D01*
X50489125Y19703602D01*
X50620814Y19615610D01*
X50620827Y19615603D01*
X50683762Y19589535D01*
X50766503Y19555263D01*
X50921153Y19524501D01*
X50921156Y19524500D01*
X50921158Y19524500D01*
X51078844Y19524500D01*
X51078845Y19524501D01*
X51233497Y19555263D01*
X51379179Y19615606D01*
X51510289Y19703211D01*
X51621789Y19814711D01*
X51709394Y19945821D01*
X51769737Y20091503D01*
X51800500Y20246158D01*
X51800500Y20403842D01*
X51800500Y20403845D01*
X51800499Y20403847D01*
X51773988Y20537124D01*
X51769737Y20558497D01*
X51740283Y20629606D01*
X51709397Y20704173D01*
X51709390Y20704186D01*
X51621789Y20835289D01*
X51621786Y20835293D01*
X51510292Y20946787D01*
X51510288Y20946790D01*
X51379185Y21034391D01*
X51379172Y21034398D01*
X51233501Y21094736D01*
X51233489Y21094739D01*
X51078845Y21125500D01*
X51078842Y21125500D01*
X50921158Y21125500D01*
X50921155Y21125500D01*
X50766510Y21094739D01*
X50766498Y21094736D01*
X50620827Y21034398D01*
X50620814Y21034391D01*
X50489125Y20946398D01*
X50422447Y20925520D01*
X50420234Y20925500D01*
X47579766Y20925500D01*
X47512727Y20945185D01*
X47510875Y20946398D01*
X47379185Y21034391D01*
X47379172Y21034398D01*
X47233501Y21094736D01*
X47233489Y21094739D01*
X47078845Y21125500D01*
X47078842Y21125500D01*
X46921158Y21125500D01*
X46921155Y21125500D01*
X46766510Y21094739D01*
X46766498Y21094736D01*
X46620827Y21034398D01*
X46620814Y21034391D01*
X46489711Y20946790D01*
X46489707Y20946787D01*
X46378213Y20835293D01*
X46378210Y20835289D01*
X46290609Y20704186D01*
X46290602Y20704173D01*
X46230264Y20558502D01*
X46230260Y20558488D01*
X46226010Y20537124D01*
X46193623Y20475214D01*
X46132906Y20440642D01*
X46063136Y20444385D01*
X46016713Y20473639D01*
X44597074Y21893278D01*
X44563589Y21954601D01*
X44563138Y21956768D01*
X44537583Y22085239D01*
X44532237Y22112114D01*
X44505453Y22176777D01*
X44471897Y22257790D01*
X44471890Y22257803D01*
X44384289Y22388906D01*
X44384286Y22388910D01*
X44272792Y22500404D01*
X44272788Y22500407D01*
X44141685Y22588008D01*
X44141672Y22588015D01*
X43996001Y22648353D01*
X43995989Y22648356D01*
X43841345Y22679117D01*
X43841342Y22679117D01*
X43683658Y22679117D01*
X43683655Y22679117D01*
X43529010Y22648356D01*
X43528998Y22648353D01*
X43383327Y22588015D01*
X43383314Y22588008D01*
X43252211Y22500407D01*
X43252207Y22500404D01*
X43140713Y22388910D01*
X43140710Y22388906D01*
X43053109Y22257803D01*
X43053102Y22257790D01*
X42992764Y22112119D01*
X42992761Y22112107D01*
X42962000Y21957464D01*
X42962000Y21799771D01*
X42992761Y21645128D01*
X42992764Y21645116D01*
X43053102Y21499445D01*
X43053109Y21499432D01*
X43140710Y21368329D01*
X43140713Y21368325D01*
X43252207Y21256831D01*
X43252211Y21256828D01*
X43383314Y21169227D01*
X43383327Y21169220D01*
X43488878Y21125500D01*
X43529003Y21108880D01*
X43593647Y21096022D01*
X43684349Y21077979D01*
X43746260Y21045594D01*
X43747839Y21044043D01*
X47964181Y16827701D01*
X47997666Y16766378D01*
X48000500Y16740020D01*
X48000500Y15148097D01*
X47980815Y15081058D01*
X47928011Y15035303D01*
X47858853Y15025359D01*
X47795297Y15054384D01*
X47788819Y15060416D01*
X40825319Y22023916D01*
X40791834Y22085239D01*
X40789000Y22111597D01*
X40789000Y23145240D01*
X63265893Y23145240D01*
X63265893Y22987547D01*
X63296654Y22832904D01*
X63296657Y22832892D01*
X63356995Y22687221D01*
X63357002Y22687208D01*
X63444603Y22556105D01*
X63444606Y22556101D01*
X63556100Y22444607D01*
X63556104Y22444604D01*
X63687207Y22357003D01*
X63687220Y22356996D01*
X63832891Y22296658D01*
X63832896Y22296656D01*
X63897540Y22283798D01*
X63988242Y22265755D01*
X64050153Y22233370D01*
X64051732Y22231819D01*
X68731818Y17551733D01*
X68765303Y17490410D01*
X68765754Y17488244D01*
X68796654Y17332902D01*
X68796657Y17332892D01*
X68856995Y17187221D01*
X68857002Y17187208D01*
X68944603Y17056105D01*
X68944606Y17056101D01*
X69056100Y16944607D01*
X69056104Y16944604D01*
X69187207Y16857003D01*
X69187220Y16856996D01*
X69332891Y16796658D01*
X69332896Y16796656D01*
X69468216Y16769739D01*
X69487546Y16765894D01*
X69487549Y16765893D01*
X69487551Y16765893D01*
X69645237Y16765893D01*
X69645238Y16765894D01*
X69799890Y16796656D01*
X69945572Y16856999D01*
X70076682Y16944604D01*
X70188182Y17056104D01*
X70275787Y17187214D01*
X70336130Y17332896D01*
X70366893Y17487551D01*
X70366893Y17645235D01*
X70366893Y17645238D01*
X70366892Y17645240D01*
X70342771Y17766503D01*
X70336130Y17799890D01*
X70327660Y17820339D01*
X70275790Y17945566D01*
X70275783Y17945579D01*
X70188182Y18076682D01*
X70188179Y18076686D01*
X70076685Y18188180D01*
X70076681Y18188183D01*
X69945578Y18275784D01*
X69945565Y18275791D01*
X69799894Y18336129D01*
X69799884Y18336132D01*
X69644544Y18367031D01*
X69582634Y18399416D01*
X69581055Y18400967D01*
X64900966Y23081056D01*
X64867481Y23142379D01*
X64867030Y23144546D01*
X64858335Y23188258D01*
X64836130Y23299890D01*
X64836128Y23299895D01*
X64775790Y23445566D01*
X64775783Y23445579D01*
X64688182Y23576682D01*
X64688179Y23576686D01*
X64576685Y23688180D01*
X64576681Y23688183D01*
X64445578Y23775784D01*
X64445565Y23775791D01*
X64299894Y23836129D01*
X64299882Y23836132D01*
X64145238Y23866893D01*
X64145235Y23866893D01*
X63987551Y23866893D01*
X63987548Y23866893D01*
X63832903Y23836132D01*
X63832891Y23836129D01*
X63687220Y23775791D01*
X63687207Y23775784D01*
X63556104Y23688183D01*
X63556100Y23688180D01*
X63444606Y23576686D01*
X63444603Y23576682D01*
X63357002Y23445579D01*
X63356995Y23445566D01*
X63296657Y23299895D01*
X63296654Y23299883D01*
X63265893Y23145240D01*
X40789000Y23145240D01*
X40789000Y24128055D01*
X40789000Y24128057D01*
X40761614Y24230263D01*
X40748077Y24280785D01*
X40742404Y24290610D01*
X40734567Y24304185D01*
X40708404Y24349500D01*
X40669020Y24417716D01*
X40557216Y24529520D01*
X40552885Y24533851D01*
X40552874Y24533861D01*
X40072074Y25014661D01*
X40038589Y25075984D01*
X40038138Y25078151D01*
X40007238Y25233490D01*
X40007237Y25233497D01*
X40007235Y25233502D01*
X39946897Y25379173D01*
X39946890Y25379186D01*
X39859289Y25510289D01*
X39859286Y25510293D01*
X39747792Y25621787D01*
X39747788Y25621790D01*
X39616685Y25709391D01*
X39616672Y25709398D01*
X39471001Y25769736D01*
X39470991Y25769739D01*
X39336808Y25796430D01*
X39274897Y25828815D01*
X39240323Y25889531D01*
X39237000Y25918047D01*
X39237000Y27666393D01*
X39237860Y27669324D01*
X39237140Y27672294D01*
X39247644Y27702643D01*
X39256685Y27733432D01*
X39258993Y27735432D01*
X39259993Y27738321D01*
X39285242Y27758178D01*
X39309489Y27779187D01*
X39312511Y27779622D01*
X39314914Y27781511D01*
X39346875Y27784563D01*
X39378647Y27789131D01*
X39381426Y27787862D01*
X39384468Y27788152D01*
X39413001Y27773442D01*
X39442203Y27760106D01*
X39444673Y27757114D01*
X39446570Y27756136D01*
X39468387Y27728393D01*
X39477087Y27713324D01*
X39477087Y27713323D01*
X39531240Y27619526D01*
X39531246Y27619518D01*
X39650114Y27500650D01*
X39650120Y27500645D01*
X42138584Y25012181D01*
X42172069Y24950858D01*
X42167085Y24881166D01*
X42125213Y24825233D01*
X42059749Y24800816D01*
X42050903Y24800500D01*
X41921155Y24800500D01*
X41766510Y24769739D01*
X41766498Y24769736D01*
X41620827Y24709398D01*
X41620814Y24709391D01*
X41489711Y24621790D01*
X41489707Y24621787D01*
X41378213Y24510293D01*
X41378210Y24510289D01*
X41290609Y24379186D01*
X41290602Y24379173D01*
X41230264Y24233502D01*
X41230261Y24233490D01*
X41199500Y24078847D01*
X41199500Y23921154D01*
X41230261Y23766511D01*
X41230264Y23766499D01*
X41290602Y23620828D01*
X41290609Y23620815D01*
X41378210Y23489712D01*
X41378213Y23489708D01*
X41489707Y23378214D01*
X41489711Y23378211D01*
X41620814Y23290610D01*
X41620827Y23290603D01*
X41762831Y23231784D01*
X41766503Y23230263D01*
X41921153Y23199501D01*
X41921156Y23199500D01*
X41921158Y23199500D01*
X42078844Y23199500D01*
X42078845Y23199501D01*
X42233497Y23230263D01*
X42379179Y23290606D01*
X42393063Y23299883D01*
X42510875Y23378602D01*
X42577553Y23399480D01*
X42579766Y23399500D01*
X50420234Y23399500D01*
X50487273Y23379815D01*
X50489125Y23378602D01*
X50620814Y23290610D01*
X50620827Y23290603D01*
X50762831Y23231784D01*
X50766503Y23230263D01*
X50921153Y23199501D01*
X50921156Y23199500D01*
X50921158Y23199500D01*
X51078844Y23199500D01*
X51078845Y23199501D01*
X51233497Y23230263D01*
X51275886Y23247821D01*
X51319505Y23265888D01*
X51379172Y23290603D01*
X51379172Y23290604D01*
X51379179Y23290606D01*
X51510289Y23378211D01*
X51621789Y23489711D01*
X51709394Y23620821D01*
X51769737Y23766503D01*
X51800500Y23921158D01*
X51800500Y24078842D01*
X51800500Y24078845D01*
X51800499Y24078847D01*
X51786094Y24151265D01*
X51769737Y24233497D01*
X51768906Y24235503D01*
X51709397Y24379173D01*
X51709390Y24379186D01*
X51621789Y24510289D01*
X51621786Y24510293D01*
X51510292Y24621787D01*
X51510288Y24621790D01*
X51379185Y24709391D01*
X51379172Y24709398D01*
X51233501Y24769736D01*
X51233489Y24769739D01*
X51078845Y24800500D01*
X51078842Y24800500D01*
X50921158Y24800500D01*
X50921155Y24800500D01*
X50766510Y24769739D01*
X50766498Y24769736D01*
X50620827Y24709398D01*
X50620814Y24709391D01*
X50489125Y24621398D01*
X50422447Y24600520D01*
X50420234Y24600500D01*
X43886555Y24600500D01*
X43819516Y24620185D01*
X43773761Y24672989D01*
X43763817Y24742147D01*
X43768840Y24760412D01*
X43767969Y24760676D01*
X43769731Y24766491D01*
X43769737Y24766503D01*
X43800500Y24921158D01*
X43800500Y25078842D01*
X43800500Y25078845D01*
X43800499Y25078847D01*
X43769738Y25233490D01*
X43769737Y25233497D01*
X43769735Y25233502D01*
X43709397Y25379173D01*
X43709390Y25379186D01*
X43621789Y25510289D01*
X43621786Y25510293D01*
X43510292Y25621787D01*
X43510288Y25621790D01*
X43379185Y25709391D01*
X43379172Y25709398D01*
X43233501Y25769736D01*
X43233491Y25769739D01*
X43078149Y25800639D01*
X43016238Y25833024D01*
X43014660Y25834575D01*
X40861416Y27987819D01*
X40827931Y28049142D01*
X40832915Y28118834D01*
X40874787Y28174767D01*
X40940251Y28199184D01*
X40949097Y28199500D01*
X41066344Y28199500D01*
X41066345Y28199501D01*
X41220997Y28230263D01*
X41349287Y28283402D01*
X41366672Y28290603D01*
X41366672Y28290604D01*
X41366679Y28290606D01*
X41487994Y28371666D01*
X41498375Y28378602D01*
X41565053Y28399480D01*
X41567266Y28399500D01*
X45420234Y28399500D01*
X45487273Y28379815D01*
X45489125Y28378602D01*
X45620814Y28290610D01*
X45620827Y28290603D01*
X45766498Y28230265D01*
X45766503Y28230263D01*
X45766507Y28230263D01*
X45766508Y28230262D01*
X45835013Y28216635D01*
X45896923Y28184250D01*
X45931498Y28123534D01*
X45927758Y28053765D01*
X45913923Y28026128D01*
X45866347Y27954926D01*
X45866337Y27954908D01*
X45805999Y27809237D01*
X45805996Y27809225D01*
X45775235Y27654582D01*
X45775235Y27496889D01*
X45805996Y27342246D01*
X45805999Y27342234D01*
X45866337Y27196563D01*
X45866344Y27196550D01*
X45953945Y27065447D01*
X45953948Y27065443D01*
X46065442Y26953949D01*
X46065446Y26953946D01*
X46196549Y26866345D01*
X46196562Y26866338D01*
X46347866Y26803667D01*
X46346948Y26801453D01*
X46396532Y26768955D01*
X46415745Y26733777D01*
X46417167Y26734365D01*
X46479837Y26583063D01*
X46479844Y26583050D01*
X46567445Y26451947D01*
X46567448Y26451943D01*
X46678942Y26340449D01*
X46678946Y26340446D01*
X46810049Y26252845D01*
X46810062Y26252838D01*
X46955733Y26192500D01*
X46955738Y26192498D01*
X47110388Y26161736D01*
X47110391Y26161735D01*
X47110393Y26161735D01*
X47268079Y26161735D01*
X47268080Y26161736D01*
X47422732Y26192498D01*
X47568414Y26252841D01*
X47699524Y26340446D01*
X47811024Y26451946D01*
X47898629Y26583056D01*
X47958972Y26728738D01*
X47989735Y26883393D01*
X47989735Y27041077D01*
X47989735Y27041080D01*
X47989734Y27041082D01*
X47978113Y27099502D01*
X47958972Y27195732D01*
X47935834Y27251593D01*
X47898632Y27341408D01*
X47898625Y27341421D01*
X47873398Y27379176D01*
X47852520Y27445854D01*
X47852500Y27448067D01*
X47852500Y29124559D01*
X50099500Y29124559D01*
X50099500Y28875442D01*
X50099501Y28875425D01*
X50132017Y28628439D01*
X50196498Y28387793D01*
X50291830Y28157639D01*
X50291837Y28157624D01*
X50416400Y27941874D01*
X50568060Y27744226D01*
X50568066Y27744219D01*
X50744218Y27568067D01*
X50744225Y27568061D01*
X50941873Y27416401D01*
X51157623Y27291838D01*
X51157638Y27291831D01*
X51253674Y27252052D01*
X51387793Y27196498D01*
X51628435Y27132018D01*
X51875435Y27099500D01*
X51875442Y27099500D01*
X52124558Y27099500D01*
X52124565Y27099500D01*
X52371565Y27132018D01*
X52612207Y27196498D01*
X52842373Y27291836D01*
X53058127Y27416401D01*
X53255776Y27568062D01*
X53431938Y27744224D01*
X53583599Y27941873D01*
X53708164Y28157627D01*
X53803502Y28387793D01*
X53867982Y28628435D01*
X53900500Y28875435D01*
X53900500Y29124565D01*
X53867982Y29371565D01*
X53803502Y29612207D01*
X53738250Y29769739D01*
X53708169Y29842362D01*
X53708162Y29842377D01*
X53583599Y30058127D01*
X53431939Y30255775D01*
X53431933Y30255782D01*
X53255781Y30431934D01*
X53255774Y30431940D01*
X53058126Y30583600D01*
X52842376Y30708163D01*
X52842361Y30708170D01*
X52612207Y30803502D01*
X52538320Y30823300D01*
X52371565Y30867982D01*
X52371564Y30867983D01*
X52371561Y30867983D01*
X52124575Y30900499D01*
X52124570Y30900500D01*
X52124565Y30900500D01*
X51875435Y30900500D01*
X51875429Y30900500D01*
X51875424Y30900499D01*
X51628438Y30867983D01*
X51387792Y30803502D01*
X51157638Y30708170D01*
X51157623Y30708163D01*
X50941873Y30583600D01*
X50744225Y30431940D01*
X50744218Y30431934D01*
X50568066Y30255782D01*
X50568060Y30255775D01*
X50416400Y30058127D01*
X50291837Y29842377D01*
X50291830Y29842362D01*
X50196498Y29612208D01*
X50132017Y29371562D01*
X50099501Y29124576D01*
X50099500Y29124559D01*
X47852500Y29124559D01*
X47852500Y33078847D01*
X48199500Y33078847D01*
X48199500Y32921154D01*
X48230261Y32766511D01*
X48230264Y32766499D01*
X48290602Y32620828D01*
X48290609Y32620815D01*
X48378210Y32489712D01*
X48378213Y32489708D01*
X48489707Y32378214D01*
X48489711Y32378211D01*
X48620814Y32290610D01*
X48620827Y32290603D01*
X48758683Y32233502D01*
X48766503Y32230263D01*
X48921153Y32199501D01*
X48921156Y32199500D01*
X48921158Y32199500D01*
X49078844Y32199500D01*
X49078845Y32199501D01*
X49233497Y32230263D01*
X49379179Y32290606D01*
X49510289Y32378211D01*
X49621789Y32489711D01*
X49709394Y32620821D01*
X49769737Y32766503D01*
X49793786Y32887404D01*
X49800638Y32921850D01*
X49833023Y32983761D01*
X49834518Y32985284D01*
X53928081Y37078847D01*
X63199500Y37078847D01*
X63199500Y36921154D01*
X63230261Y36766511D01*
X63230264Y36766499D01*
X63290602Y36620828D01*
X63290609Y36620815D01*
X63378210Y36489712D01*
X63378213Y36489708D01*
X63489707Y36378214D01*
X63489711Y36378211D01*
X63620814Y36290610D01*
X63620827Y36290603D01*
X63659849Y36274440D01*
X63766503Y36230263D01*
X63831147Y36217405D01*
X63921849Y36199362D01*
X63983760Y36166977D01*
X63985339Y36165426D01*
X66165425Y33985340D01*
X66198910Y33924017D01*
X66199361Y33921851D01*
X66230261Y33766509D01*
X66230264Y33766499D01*
X66290602Y33620828D01*
X66290609Y33620815D01*
X66378210Y33489712D01*
X66378213Y33489708D01*
X66489707Y33378214D01*
X66489711Y33378211D01*
X66620814Y33290610D01*
X66620827Y33290603D01*
X66718853Y33250000D01*
X66766503Y33230263D01*
X66921153Y33199501D01*
X66921156Y33199500D01*
X66921158Y33199500D01*
X67078844Y33199500D01*
X67078845Y33199501D01*
X67233497Y33230263D01*
X67379179Y33290606D01*
X67510289Y33378211D01*
X67621789Y33489711D01*
X67709394Y33620821D01*
X67769737Y33766503D01*
X67800500Y33921158D01*
X67800500Y34050903D01*
X67806738Y34072149D01*
X67808318Y34094237D01*
X67816390Y34105021D01*
X67820185Y34117942D01*
X67836918Y34132442D01*
X67850190Y34150170D01*
X67862810Y34154878D01*
X67872989Y34163697D01*
X67894906Y34166849D01*
X67915654Y34174587D01*
X67928814Y34171725D01*
X67942147Y34173641D01*
X67962290Y34164442D01*
X67983927Y34159735D01*
X68001652Y34146467D01*
X68005703Y34144616D01*
X68012181Y34138584D01*
X68165425Y33985340D01*
X68198910Y33924017D01*
X68199361Y33921851D01*
X68230261Y33766509D01*
X68230264Y33766499D01*
X68290602Y33620828D01*
X68290609Y33620815D01*
X68378210Y33489712D01*
X68378213Y33489708D01*
X68489707Y33378214D01*
X68489711Y33378211D01*
X68620814Y33290610D01*
X68620827Y33290603D01*
X68718853Y33250000D01*
X68766503Y33230263D01*
X68921153Y33199501D01*
X68921156Y33199500D01*
X68921158Y33199500D01*
X69078844Y33199500D01*
X69078845Y33199501D01*
X69233497Y33230263D01*
X69379179Y33290606D01*
X69510289Y33378211D01*
X69621789Y33489711D01*
X69709394Y33620821D01*
X69769737Y33766503D01*
X69800500Y33921158D01*
X69800500Y34078842D01*
X69800500Y34078845D01*
X69800499Y34078847D01*
X69794402Y34109500D01*
X69769737Y34233497D01*
X69761884Y34252456D01*
X69709397Y34379173D01*
X69709390Y34379186D01*
X69621789Y34510289D01*
X69621786Y34510293D01*
X69510292Y34621787D01*
X69510288Y34621790D01*
X69379185Y34709391D01*
X69379172Y34709398D01*
X69233501Y34769736D01*
X69233491Y34769739D01*
X69078149Y34800639D01*
X69016238Y34833024D01*
X69014660Y34834575D01*
X67834574Y36014661D01*
X67801089Y36075984D01*
X67800638Y36078151D01*
X67769738Y36233490D01*
X67769737Y36233497D01*
X67752773Y36274453D01*
X67709397Y36379173D01*
X67709390Y36379186D01*
X67621789Y36510289D01*
X67621786Y36510293D01*
X67510292Y36621787D01*
X67510288Y36621790D01*
X67379185Y36709391D01*
X67379172Y36709398D01*
X67233501Y36769736D01*
X67233489Y36769739D01*
X67078845Y36800500D01*
X67078842Y36800500D01*
X66921158Y36800500D01*
X66921155Y36800500D01*
X66766510Y36769739D01*
X66766498Y36769736D01*
X66620827Y36709398D01*
X66620814Y36709391D01*
X66489711Y36621790D01*
X66489707Y36621787D01*
X66378213Y36510293D01*
X66378210Y36510289D01*
X66290609Y36379186D01*
X66290602Y36379173D01*
X66230264Y36233502D01*
X66230261Y36233490D01*
X66199500Y36078847D01*
X66199500Y35949098D01*
X66179815Y35882059D01*
X66127011Y35836304D01*
X66057853Y35826360D01*
X65994297Y35855385D01*
X65987819Y35861417D01*
X64834573Y37014663D01*
X64801088Y37075986D01*
X64800637Y37078153D01*
X64783277Y37165426D01*
X64769737Y37233497D01*
X64759713Y37257698D01*
X64709397Y37379173D01*
X64709390Y37379186D01*
X64621789Y37510289D01*
X64621786Y37510293D01*
X64510292Y37621787D01*
X64510288Y37621790D01*
X64379185Y37709391D01*
X64379172Y37709398D01*
X64233501Y37769736D01*
X64233489Y37769739D01*
X64078845Y37800500D01*
X64078842Y37800500D01*
X63921158Y37800500D01*
X63921155Y37800500D01*
X63766510Y37769739D01*
X63766498Y37769736D01*
X63620827Y37709398D01*
X63620814Y37709391D01*
X63489711Y37621790D01*
X63489707Y37621787D01*
X63378213Y37510293D01*
X63378210Y37510289D01*
X63290609Y37379186D01*
X63290602Y37379173D01*
X63230264Y37233502D01*
X63230261Y37233490D01*
X63199500Y37078847D01*
X53928081Y37078847D01*
X54014662Y37165428D01*
X54031257Y37174489D01*
X54044866Y37187620D01*
X54074362Y37198027D01*
X54075983Y37198911D01*
X54078149Y37199362D01*
X54114290Y37206551D01*
X54114290Y37206552D01*
X54233497Y37230263D01*
X54379179Y37290606D01*
X54510289Y37378211D01*
X54621789Y37489711D01*
X54709394Y37620821D01*
X54769737Y37766503D01*
X54800500Y37921158D01*
X54800500Y38078842D01*
X54800500Y38078845D01*
X54800499Y38078847D01*
X54787508Y38144156D01*
X54769737Y38233497D01*
X54763114Y38249487D01*
X54709397Y38379173D01*
X54709390Y38379186D01*
X54621789Y38510289D01*
X54621786Y38510293D01*
X54510292Y38621787D01*
X54510288Y38621790D01*
X54379185Y38709391D01*
X54379172Y38709398D01*
X54233501Y38769736D01*
X54233489Y38769739D01*
X54078845Y38800500D01*
X54078842Y38800500D01*
X53921158Y38800500D01*
X53921155Y38800500D01*
X53766510Y38769739D01*
X53766498Y38769736D01*
X53620827Y38709398D01*
X53620814Y38709391D01*
X53489711Y38621790D01*
X53489707Y38621787D01*
X53378213Y38510293D01*
X53378210Y38510289D01*
X53290609Y38379186D01*
X53290602Y38379173D01*
X53230264Y38233502D01*
X53230261Y38233492D01*
X53199361Y38078150D01*
X53166976Y38016239D01*
X53165425Y38014661D01*
X48985339Y33834575D01*
X48924016Y33801090D01*
X48921850Y33800639D01*
X48766508Y33769739D01*
X48766498Y33769736D01*
X48620827Y33709398D01*
X48620814Y33709391D01*
X48489711Y33621790D01*
X48489707Y33621787D01*
X48378213Y33510293D01*
X48378210Y33510289D01*
X48290609Y33379186D01*
X48290602Y33379173D01*
X48230264Y33233502D01*
X48230261Y33233490D01*
X48199500Y33078847D01*
X47852500Y33078847D01*
X47852500Y37719905D01*
X47852499Y37719909D01*
X47843231Y37766503D01*
X47828463Y37840750D01*
X47781311Y37954584D01*
X47781310Y37954585D01*
X47781307Y37954591D01*
X47712858Y38057031D01*
X47712855Y38057035D01*
X47622637Y38147253D01*
X47622606Y38147282D01*
X46378448Y39391440D01*
X46371158Y39398730D01*
X46371156Y39398733D01*
X46284031Y39485858D01*
X46232807Y39520085D01*
X46181584Y39554312D01*
X46181581Y39554314D01*
X46181578Y39554315D01*
X46107901Y39584832D01*
X46107899Y39584833D01*
X46101090Y39587653D01*
X46067750Y39601463D01*
X46007327Y39613482D01*
X46002604Y39614422D01*
X46002602Y39614422D01*
X45946908Y39625500D01*
X45946905Y39625500D01*
X45946904Y39625500D01*
X44542350Y39625500D01*
X44475311Y39645185D01*
X44473459Y39646398D01*
X44379184Y39709391D01*
X44379172Y39709398D01*
X44233501Y39769736D01*
X44233489Y39769739D01*
X44078845Y39800500D01*
X44078842Y39800500D01*
X43921158Y39800500D01*
X43921155Y39800500D01*
X43766510Y39769739D01*
X43766498Y39769736D01*
X43620827Y39709398D01*
X43620814Y39709391D01*
X43489711Y39621790D01*
X43489707Y39621787D01*
X43378213Y39510293D01*
X43378210Y39510289D01*
X43290609Y39379186D01*
X43290602Y39379173D01*
X43230264Y39233502D01*
X43230261Y39233490D01*
X43199500Y39078847D01*
X43199500Y38921154D01*
X43230261Y38766511D01*
X43230264Y38766499D01*
X43290602Y38620828D01*
X43290609Y38620815D01*
X43378210Y38489712D01*
X43378213Y38489708D01*
X43489707Y38378214D01*
X43489711Y38378211D01*
X43620814Y38290610D01*
X43620827Y38290603D01*
X43758683Y38233502D01*
X43766503Y38230263D01*
X43921153Y38199501D01*
X43921156Y38199500D01*
X43921158Y38199500D01*
X44078844Y38199500D01*
X44078845Y38199501D01*
X44233497Y38230263D01*
X44379179Y38290606D01*
X44473459Y38353602D01*
X44540136Y38374480D01*
X44542350Y38374500D01*
X45574846Y38374500D01*
X45641885Y38354815D01*
X45662527Y38338181D01*
X45952196Y38048512D01*
X45985681Y37987189D01*
X45980697Y37917497D01*
X45967618Y37891941D01*
X45891608Y37778184D01*
X45891602Y37778173D01*
X45831264Y37632502D01*
X45831261Y37632490D01*
X45800500Y37477847D01*
X45800500Y37320154D01*
X45831261Y37165511D01*
X45831264Y37165499D01*
X45891602Y37019828D01*
X45891609Y37019815D01*
X45979602Y36888126D01*
X46000480Y36821449D01*
X46000500Y36819235D01*
X46000500Y29918047D01*
X45980815Y29851008D01*
X45928011Y29805253D01*
X45900692Y29796430D01*
X45766508Y29769739D01*
X45766498Y29769736D01*
X45620827Y29709398D01*
X45620814Y29709391D01*
X45489125Y29621398D01*
X45422447Y29600520D01*
X45420234Y29600500D01*
X41567266Y29600500D01*
X41500227Y29620185D01*
X41498375Y29621398D01*
X41366685Y29709391D01*
X41366672Y29709398D01*
X41221001Y29769736D01*
X41220989Y29769739D01*
X41066345Y29800500D01*
X41066342Y29800500D01*
X40942187Y29800500D01*
X40875148Y29820185D01*
X40829393Y29872989D01*
X40818187Y29924500D01*
X40818187Y30084603D01*
X40818186Y30084605D01*
X40795332Y30199500D01*
X40787424Y30239255D01*
X40780578Y30255782D01*
X40727084Y30384931D01*
X40727077Y30384944D01*
X40639476Y30516047D01*
X40639473Y30516051D01*
X40527979Y30627545D01*
X40527975Y30627548D01*
X40396872Y30715149D01*
X40396859Y30715156D01*
X40251188Y30775494D01*
X40251176Y30775497D01*
X40096532Y30806258D01*
X40096529Y30806258D01*
X39938845Y30806258D01*
X39938842Y30806258D01*
X39784197Y30775497D01*
X39784185Y30775494D01*
X39638514Y30715156D01*
X39638501Y30715149D01*
X39507398Y30627548D01*
X39507394Y30627545D01*
X39448681Y30568831D01*
X39387358Y30535346D01*
X39317666Y30540330D01*
X39261733Y30582202D01*
X39237316Y30647666D01*
X39237000Y30656512D01*
X39237000Y36274440D01*
X39237001Y36274453D01*
X39237001Y36442556D01*
X39225398Y36485858D01*
X39196077Y36595284D01*
X39181329Y36620828D01*
X39117024Y36732210D01*
X39117018Y36732218D01*
X37701954Y38147282D01*
X36236589Y39612646D01*
X36236588Y39612648D01*
X36117717Y39731519D01*
X36117716Y39731520D01*
X36030904Y39781640D01*
X36030904Y39781641D01*
X36030900Y39781642D01*
X35980785Y39810577D01*
X35828057Y39851501D01*
X35669943Y39851501D01*
X35662347Y39851501D01*
X35662331Y39851500D01*
X19709910Y39851500D01*
X19709894Y39851501D01*
X19702298Y39851501D01*
X19544183Y39851501D01*
X19467819Y39831039D01*
X19391454Y39810577D01*
X19391449Y39810574D01*
X19254530Y39731525D01*
X19254522Y39731519D01*
X18368481Y38845478D01*
X18368477Y38845473D01*
X18323874Y38768216D01*
X18323874Y38768215D01*
X18289423Y38708546D01*
X18289423Y38708545D01*
X18248499Y38555817D01*
X18248499Y38555815D01*
X18248499Y38486307D01*
X18228814Y38419268D01*
X18212180Y38398626D01*
X17942962Y38129409D01*
X17925925Y38192993D01*
X17860099Y38307007D01*
X17767007Y38400099D01*
X17652993Y38465925D01*
X17589409Y38482963D01*
X18221716Y39115272D01*
X18167550Y39154625D01*
X17978217Y39251096D01*
X17776129Y39316758D01*
X17566246Y39350000D01*
X17353754Y39350000D01*
X17143872Y39316758D01*
X17143869Y39316758D01*
X16941782Y39251096D01*
X16752439Y39154620D01*
X16698282Y39115273D01*
X16698282Y39115272D01*
X17330591Y38482963D01*
X17267007Y38465925D01*
X17152993Y38400099D01*
X17059901Y38307007D01*
X16994075Y38192993D01*
X16977037Y38129409D01*
X16344728Y38761718D01*
X16344727Y38761718D01*
X16305380Y38707561D01*
X16208904Y38518218D01*
X16143242Y38316131D01*
X16143242Y38316128D01*
X16110000Y38106247D01*
X16110000Y37893754D01*
X16143242Y37683873D01*
X16143242Y37683870D01*
X16208904Y37481783D01*
X16305375Y37292450D01*
X16344728Y37238284D01*
X16977037Y37870592D01*
X16994075Y37807007D01*
X17059901Y37692993D01*
X17152993Y37599901D01*
X17267007Y37534075D01*
X17330590Y37517038D01*
X16698282Y36884731D01*
X16698282Y36884730D01*
X16752452Y36845374D01*
X16752451Y36845374D01*
X16761495Y36840766D01*
X16812292Y36792792D01*
X16829087Y36724971D01*
X16806550Y36658836D01*
X16761499Y36619798D01*
X16752182Y36615051D01*
X16580213Y36490110D01*
X16429890Y36339787D01*
X16304951Y36167821D01*
X16208444Y35978415D01*
X16142753Y35776240D01*
X16118291Y35621790D01*
X16109500Y35566287D01*
X16109500Y35353713D01*
X16142754Y35143757D01*
X16184187Y35016239D01*
X16208444Y34941586D01*
X16304951Y34752180D01*
X16429890Y34580214D01*
X16580213Y34429891D01*
X16752179Y34304952D01*
X16752181Y34304951D01*
X16752184Y34304949D01*
X16941588Y34208443D01*
X17143757Y34142754D01*
X17353713Y34109500D01*
X17353714Y34109500D01*
X17566286Y34109500D01*
X17566287Y34109500D01*
X17776243Y34142754D01*
X17978412Y34208443D01*
X18167816Y34304949D01*
X18339792Y34429896D01*
X18453329Y34543434D01*
X18514648Y34576916D01*
X18584340Y34571932D01*
X18640274Y34530061D01*
X18657189Y34499083D01*
X18706202Y34367672D01*
X18706206Y34367665D01*
X18792452Y34252456D01*
X18792455Y34252453D01*
X18907664Y34166207D01*
X18907671Y34166203D01*
X19042517Y34115909D01*
X19042516Y34115909D01*
X19049444Y34115165D01*
X19102127Y34109500D01*
X20897872Y34109501D01*
X20957483Y34115909D01*
X21092331Y34166204D01*
X21207546Y34252454D01*
X21293796Y34367669D01*
X21344091Y34502517D01*
X21350500Y34562127D01*
X21350499Y36357872D01*
X21344091Y36417483D01*
X21341954Y36423212D01*
X21293797Y36552329D01*
X21293793Y36552336D01*
X21207547Y36667545D01*
X21207544Y36667548D01*
X21092335Y36753794D01*
X21092328Y36753798D01*
X20960917Y36802811D01*
X20904983Y36844682D01*
X20880566Y36910147D01*
X20895418Y36978420D01*
X20916563Y37006668D01*
X21030104Y37120208D01*
X21155051Y37292184D01*
X21251557Y37481588D01*
X21317246Y37683757D01*
X21350500Y37893713D01*
X21350500Y38106287D01*
X21350500Y38106288D01*
X21350118Y38111138D01*
X21351191Y38111223D01*
X21359482Y38175392D01*
X21404476Y38228845D01*
X21471227Y38249487D01*
X21473002Y38249500D01*
X35282803Y38249500D01*
X35349842Y38229815D01*
X35370484Y38213181D01*
X36668812Y36914853D01*
X36702297Y36853530D01*
X36697313Y36783838D01*
X36655441Y36727905D01*
X36628593Y36712615D01*
X36620830Y36709400D01*
X36620814Y36709391D01*
X36489711Y36621790D01*
X36489707Y36621787D01*
X36378213Y36510293D01*
X36378210Y36510289D01*
X36290609Y36379186D01*
X36290602Y36379173D01*
X36230264Y36233502D01*
X36230261Y36233490D01*
X36199500Y36078847D01*
X36199500Y35924500D01*
X36179815Y35857461D01*
X36127011Y35811706D01*
X36075500Y35800500D01*
X35921155Y35800500D01*
X35766510Y35769739D01*
X35766498Y35769736D01*
X35620827Y35709398D01*
X35620814Y35709391D01*
X35489711Y35621790D01*
X35489707Y35621787D01*
X35378213Y35510293D01*
X35378210Y35510289D01*
X35290609Y35379186D01*
X35290602Y35379173D01*
X35230264Y35233502D01*
X35230261Y35233492D01*
X35199361Y35078150D01*
X35166976Y35016239D01*
X35165425Y35014661D01*
X32186584Y32035819D01*
X32159656Y32021116D01*
X32133838Y32004523D01*
X32127637Y32003632D01*
X32125261Y32002334D01*
X32098903Y31999500D01*
X31918046Y31999500D01*
X31851007Y32019185D01*
X31805252Y32071989D01*
X31796429Y32099309D01*
X31769738Y32233490D01*
X31769738Y32233492D01*
X31769737Y32233497D01*
X31769735Y32233502D01*
X31709397Y32379173D01*
X31709390Y32379186D01*
X31621789Y32510289D01*
X31621786Y32510293D01*
X31510292Y32621787D01*
X31510288Y32621790D01*
X31379185Y32709391D01*
X31379172Y32709398D01*
X31233501Y32769736D01*
X31233489Y32769739D01*
X31122285Y32791859D01*
X31060374Y32824244D01*
X31058795Y32825795D01*
X27493150Y36391440D01*
X27485860Y36398730D01*
X27485858Y36398733D01*
X27398733Y36485858D01*
X27347509Y36520085D01*
X27296286Y36554312D01*
X27296283Y36554314D01*
X27296282Y36554314D01*
X27296281Y36554315D01*
X27206361Y36591560D01*
X27206357Y36591561D01*
X27197369Y36595284D01*
X27182452Y36601463D01*
X27085130Y36620821D01*
X27082733Y36621298D01*
X27082728Y36621299D01*
X27071778Y36623477D01*
X27061607Y36625500D01*
X27061606Y36625500D01*
X25278414Y36625500D01*
X25211375Y36645185D01*
X25165620Y36697989D01*
X25162082Y36707348D01*
X25100023Y36857173D01*
X25100016Y36857186D01*
X25012415Y36988289D01*
X25012412Y36988293D01*
X24900918Y37099787D01*
X24900914Y37099790D01*
X24769811Y37187391D01*
X24769798Y37187398D01*
X24624127Y37247736D01*
X24624115Y37247739D01*
X24469471Y37278500D01*
X24469468Y37278500D01*
X24311784Y37278500D01*
X24311781Y37278500D01*
X24157136Y37247739D01*
X24157124Y37247736D01*
X24011453Y37187398D01*
X24011440Y37187391D01*
X23880337Y37099790D01*
X23880333Y37099787D01*
X23768839Y36988293D01*
X23768836Y36988289D01*
X23681235Y36857186D01*
X23681228Y36857173D01*
X23620890Y36711502D01*
X23620887Y36711490D01*
X23590126Y36556847D01*
X23590126Y36399154D01*
X23620887Y36244511D01*
X23620890Y36244499D01*
X23681228Y36098828D01*
X23681235Y36098815D01*
X23768836Y35967712D01*
X23768839Y35967708D01*
X23880333Y35856214D01*
X23880337Y35856211D01*
X24011440Y35768610D01*
X24011453Y35768603D01*
X24098856Y35732401D01*
X24157129Y35708263D01*
X24268342Y35686142D01*
X24285096Y35677378D01*
X24303575Y35673358D01*
X24328611Y35654616D01*
X24330249Y35653759D01*
X24331829Y35652207D01*
X24379642Y35604394D01*
X24379671Y35604363D01*
X24469890Y35514144D01*
X24475653Y35510293D01*
X24506457Y35489711D01*
X24572340Y35445688D01*
X24628455Y35422445D01*
X24686174Y35398537D01*
X24746597Y35386519D01*
X24807019Y35374500D01*
X24807020Y35374500D01*
X26689548Y35374500D01*
X26756587Y35354815D01*
X26777229Y35338181D01*
X29904229Y32211181D01*
X29937714Y32149858D01*
X29932730Y32080166D01*
X29890858Y32024233D01*
X29825394Y31999816D01*
X29816548Y31999500D01*
X25751040Y31999500D01*
X25684001Y32019185D01*
X25663359Y32035819D01*
X24337533Y33361645D01*
X24337531Y33361648D01*
X24218660Y33480519D01*
X24218659Y33480520D01*
X24131847Y33530640D01*
X24131847Y33530641D01*
X24131843Y33530642D01*
X24081728Y33559577D01*
X23929000Y33600501D01*
X23770886Y33600501D01*
X23763290Y33600501D01*
X23763274Y33600500D01*
X13300097Y33600500D01*
X13233058Y33620185D01*
X13212416Y33636819D01*
X11487590Y35361645D01*
X11487588Y35361648D01*
X11368717Y35480519D01*
X11368716Y35480520D01*
X11267326Y35539057D01*
X11267325Y35539058D01*
X11231783Y35559578D01*
X11175881Y35574557D01*
X11079057Y35600501D01*
X10920943Y35600501D01*
X10913347Y35600501D01*
X10913331Y35600500D01*
X4262185Y35600500D01*
X4195146Y35620185D01*
X4161867Y35651614D01*
X4114414Y35716928D01*
X3991928Y35839414D01*
X3908975Y35899683D01*
X3866311Y35955012D01*
X3860332Y36024626D01*
X3892938Y36086421D01*
X3908976Y36100318D01*
X3991928Y36160586D01*
X4114414Y36283072D01*
X4216232Y36423212D01*
X4294873Y36577555D01*
X4348402Y36742299D01*
X4375500Y36913389D01*
X4375500Y37086611D01*
X4348402Y37257701D01*
X4294873Y37422445D01*
X4216232Y37576788D01*
X4114414Y37716928D01*
X3991928Y37839414D01*
X3851788Y37941232D01*
X3697445Y38019873D01*
X3532701Y38073402D01*
X3532699Y38073403D01*
X3532698Y38073403D01*
X3401271Y38094219D01*
X3361611Y38100500D01*
X2638389Y38100500D01*
X2598728Y38094219D01*
X2467302Y38073403D01*
X2302552Y38019872D01*
X2148211Y37941232D01*
X2104246Y37909289D01*
X2008072Y37839414D01*
X2008070Y37839412D01*
X2008069Y37839412D01*
X1885588Y37716931D01*
X1885588Y37716930D01*
X1885586Y37716928D01*
X1868196Y37692993D01*
X1783768Y37576789D01*
X1705128Y37422448D01*
X1651597Y37257698D01*
X1629821Y37120208D01*
X1624500Y37086611D01*
X1624500Y36913389D01*
X1628409Y36888711D01*
X1649776Y36753798D01*
X1651598Y36742299D01*
X1705127Y36577555D01*
X1783768Y36423212D01*
X1885586Y36283072D01*
X2008072Y36160586D01*
X2008078Y36160582D01*
X2091023Y36100317D01*
X2133689Y36044987D01*
X2139667Y35975374D01*
X2107061Y35913579D01*
X2091023Y35899683D01*
X2008078Y35839419D01*
X2008069Y35839412D01*
X1885588Y35716931D01*
X1885588Y35716930D01*
X1885586Y35716928D01*
X1841859Y35656744D01*
X1783768Y35576789D01*
X1705128Y35422448D01*
X1651597Y35257698D01*
X1624500Y35086611D01*
X1624500Y34913390D01*
X1637228Y34833024D01*
X1651598Y34742299D01*
X1705127Y34577555D01*
X1783768Y34423212D01*
X1885586Y34283072D01*
X2008072Y34160586D01*
X2091449Y34100009D01*
X2134114Y34044678D01*
X2140093Y33975065D01*
X2107487Y33913270D01*
X2091448Y33899373D01*
X2008404Y33839039D01*
X2008399Y33839035D01*
X1885967Y33716603D01*
X1784195Y33576525D01*
X1705591Y33422256D01*
X1652085Y33257585D01*
X1650884Y33250001D01*
X1650885Y33250000D01*
X2719670Y33250000D01*
X2699925Y33230255D01*
X2650556Y33144745D01*
X2625000Y33049370D01*
X2625000Y32950630D01*
X2650556Y32855255D01*
X2699925Y32769745D01*
X2719670Y32750000D01*
X1650885Y32750000D01*
X1652085Y32742416D01*
X1705591Y32577745D01*
X1784195Y32423476D01*
X1885967Y32283398D01*
X2008401Y32160964D01*
X2091447Y32100629D01*
X2134114Y32045299D01*
X2140093Y31975686D01*
X2107488Y31913891D01*
X2091450Y31899993D01*
X2008072Y31839415D01*
X1885588Y31716931D01*
X1885588Y31716930D01*
X1885586Y31716928D01*
X1841859Y31656744D01*
X1783768Y31576789D01*
X1705128Y31422448D01*
X1651597Y31257698D01*
X1638239Y31173358D01*
X1624500Y31086611D01*
X1624500Y30913389D01*
X1626542Y30900499D01*
X1642696Y30798500D01*
X1651598Y30742299D01*
X1705127Y30577555D01*
X1783768Y30423212D01*
X1885586Y30283072D01*
X2008072Y30160586D01*
X2091449Y30100009D01*
X2134114Y30044678D01*
X2140093Y29975065D01*
X2107487Y29913270D01*
X2091448Y29899373D01*
X2008404Y29839039D01*
X2008399Y29839035D01*
X1885967Y29716603D01*
X1784195Y29576525D01*
X1705591Y29422256D01*
X1652085Y29257585D01*
X1650884Y29250001D01*
X1650885Y29250000D01*
X2719670Y29250000D01*
X2699925Y29230255D01*
X2650556Y29144745D01*
X2625000Y29049370D01*
X2625000Y28950630D01*
X2650556Y28855255D01*
X2699925Y28769745D01*
X2719670Y28750000D01*
X1650885Y28750000D01*
X1652085Y28742416D01*
X1705591Y28577745D01*
X1784195Y28423476D01*
X1885967Y28283398D01*
X1993565Y28175800D01*
X2027050Y28114477D01*
X2022066Y28044785D01*
X1980194Y27988852D01*
X1970983Y27982582D01*
X1942498Y27965013D01*
X1906342Y27942711D01*
X1782289Y27818658D01*
X1690187Y27669337D01*
X1690185Y27669332D01*
X1669973Y27608335D01*
X1635001Y27502797D01*
X1635001Y27502796D01*
X1635000Y27502796D01*
X1624500Y27400017D01*
X1624500Y26599999D01*
X1624501Y26599981D01*
X1635000Y26497204D01*
X1635001Y26497201D01*
X1690185Y26330669D01*
X1690187Y26330664D01*
X1722460Y26278341D01*
X1782288Y26181344D01*
X1906344Y26057288D01*
X2055666Y25965186D01*
X2222203Y25910001D01*
X2324991Y25899500D01*
X2987769Y25899501D01*
X3054808Y25879817D01*
X3075450Y25863182D01*
X4634447Y24304185D01*
X5523463Y23415170D01*
X5556948Y23353847D01*
X5551964Y23284155D01*
X5510092Y23228222D01*
X5444628Y23203805D01*
X5376355Y23218657D01*
X5362897Y23227171D01*
X5286174Y23282913D01*
X5075802Y23390103D01*
X4851247Y23463066D01*
X4851248Y23463066D01*
X4618052Y23500000D01*
X4381948Y23500000D01*
X4148752Y23463066D01*
X3924197Y23390103D01*
X3713830Y23282916D01*
X3630894Y23222660D01*
X4329766Y22523788D01*
X4287708Y22512518D01*
X4162292Y22440110D01*
X4059890Y22337708D01*
X3987482Y22212292D01*
X3976212Y22170234D01*
X3277340Y22869106D01*
X3217084Y22786170D01*
X3109897Y22575803D01*
X3036934Y22351248D01*
X3000000Y22118053D01*
X3000000Y21881948D01*
X3036934Y21648753D01*
X3109897Y21424198D01*
X3217087Y21213826D01*
X3277338Y21130896D01*
X3277340Y21130895D01*
X3976212Y21829767D01*
X3987482Y21787708D01*
X4059890Y21662292D01*
X4162292Y21559890D01*
X4287708Y21487482D01*
X4329765Y21476213D01*
X3630893Y20777342D01*
X3713828Y20717086D01*
X3924197Y20609898D01*
X4148752Y20536935D01*
X4148751Y20536935D01*
X4381948Y20500000D01*
X4618052Y20500000D01*
X4851247Y20536935D01*
X5075802Y20609898D01*
X5286163Y20717082D01*
X5286169Y20717086D01*
X5369104Y20777342D01*
X5369105Y20777342D01*
X4670233Y21476213D01*
X4712292Y21487482D01*
X4837708Y21559890D01*
X4940110Y21662292D01*
X5012518Y21787708D01*
X5023787Y21829767D01*
X5722658Y21130895D01*
X5722658Y21130896D01*
X5782914Y21213831D01*
X5782918Y21213837D01*
X5890102Y21424198D01*
X5963065Y21648753D01*
X6000000Y21881948D01*
X6000000Y22118053D01*
X5963065Y22351248D01*
X5890102Y22575803D01*
X5782914Y22786172D01*
X5727170Y22862897D01*
X5703690Y22928704D01*
X5719515Y22996758D01*
X5769621Y23045453D01*
X5838099Y23059328D01*
X5903208Y23033979D01*
X5915169Y23023464D01*
X6213181Y22725452D01*
X6246666Y22664129D01*
X6249500Y22637771D01*
X6249500Y17998626D01*
X6229815Y17931587D01*
X6213181Y17910944D01*
X6153243Y17851007D01*
X6091919Y17817523D01*
X6022227Y17822508D01*
X5966294Y17864379D01*
X5947631Y17900371D01*
X5926575Y17965174D01*
X5890568Y18075992D01*
X5783343Y18286433D01*
X5644517Y18477510D01*
X5477510Y18644517D01*
X5286433Y18783343D01*
X5267847Y18792813D01*
X5075996Y18890567D01*
X4851368Y18963554D01*
X4618097Y19000500D01*
X4618092Y19000500D01*
X4381908Y19000500D01*
X4381903Y19000500D01*
X4148631Y18963554D01*
X3924003Y18890567D01*
X3713566Y18783343D01*
X3690383Y18766499D01*
X3522490Y18644517D01*
X3522488Y18644515D01*
X3522487Y18644515D01*
X3355485Y18477513D01*
X3355485Y18477512D01*
X3355483Y18477510D01*
X3341941Y18458871D01*
X3216657Y18286434D01*
X3109433Y18075997D01*
X3036446Y17851369D01*
X2999500Y17618098D01*
X2999500Y17381903D01*
X3036446Y17148632D01*
X3109433Y16924004D01*
X3209539Y16727536D01*
X3216657Y16713567D01*
X3355483Y16522490D01*
X3522490Y16355483D01*
X3713567Y16216657D01*
X3812991Y16165998D01*
X3924003Y16109434D01*
X3924005Y16109434D01*
X3924008Y16109432D01*
X4018139Y16078847D01*
X4148631Y16036447D01*
X4296838Y16012973D01*
X4359973Y15983044D01*
X4396904Y15923732D01*
X4395906Y15853870D01*
X4357296Y15795637D01*
X4293332Y15767523D01*
X4277440Y15766500D01*
X4079389Y15766500D01*
X4018971Y15754482D01*
X3975743Y15745884D01*
X3958546Y15742463D01*
X3844716Y15695313D01*
X3844707Y15695308D01*
X3742268Y15626860D01*
X3715910Y15600501D01*
X3655142Y15539733D01*
X3655139Y15539730D01*
X1601270Y13485861D01*
X1601267Y13485858D01*
X1578729Y13463320D01*
X1514140Y13398732D01*
X1485938Y13356524D01*
X1445689Y13296288D01*
X1445685Y13296281D01*
X1419748Y13233663D01*
X1419741Y13233644D01*
X1418341Y13230263D01*
X1398537Y13182452D01*
X1395506Y13167215D01*
X1393847Y13158874D01*
X1375720Y13067737D01*
X1375718Y13067730D01*
X1374501Y13061615D01*
X1374500Y13061602D01*
X1374500Y12132519D01*
X1370212Y12117917D01*
X1370864Y12102711D01*
X1360568Y12085073D01*
X1354815Y12065480D01*
X1342770Y12054584D01*
X1335641Y12042369D01*
X1306794Y12022034D01*
X1169229Y11951942D01*
X1100560Y11939046D01*
X1035820Y11965323D01*
X1025254Y11974746D01*
X1000000Y12000000D01*
X624500Y12000000D01*
X557461Y12019685D01*
X511706Y12072489D01*
X500500Y12124000D01*
X500500Y39558034D01*
X6499500Y39558034D01*
X6499500Y38441972D01*
X6499501Y38441966D01*
X6510113Y38322585D01*
X6566089Y38126955D01*
X6566090Y38126952D01*
X6566091Y38126951D01*
X6660302Y37946593D01*
X6681042Y37921158D01*
X6788890Y37788891D01*
X6873491Y37719909D01*
X6946593Y37660302D01*
X7126951Y37566091D01*
X7322582Y37510114D01*
X7441963Y37499500D01*
X8558036Y37499501D01*
X8677418Y37510114D01*
X8873049Y37566091D01*
X9053407Y37660302D01*
X9211109Y37788891D01*
X9339698Y37946593D01*
X9433909Y38126951D01*
X9489886Y38322582D01*
X9500500Y38441963D01*
X9500499Y39275501D01*
X9520184Y39342539D01*
X9572988Y39388294D01*
X9624499Y39399500D01*
X10420234Y39399500D01*
X10487273Y39379815D01*
X10489125Y39378602D01*
X10620814Y39290610D01*
X10620827Y39290603D01*
X10716207Y39251096D01*
X10766503Y39230263D01*
X10921153Y39199501D01*
X10921156Y39199500D01*
X10921158Y39199500D01*
X11078844Y39199500D01*
X11078845Y39199501D01*
X11233497Y39230263D01*
X11379179Y39290606D01*
X11510289Y39378211D01*
X11621789Y39489711D01*
X11709394Y39620821D01*
X11769737Y39766503D01*
X11800500Y39921158D01*
X11800500Y40078842D01*
X11800500Y40078845D01*
X11800499Y40078847D01*
X11769738Y40233490D01*
X11769737Y40233497D01*
X11769735Y40233502D01*
X11709397Y40379173D01*
X11709390Y40379186D01*
X11621789Y40510289D01*
X11621786Y40510293D01*
X11510292Y40621787D01*
X11510288Y40621790D01*
X11379185Y40709391D01*
X11379172Y40709398D01*
X11233501Y40769736D01*
X11233489Y40769739D01*
X11078845Y40800500D01*
X11078842Y40800500D01*
X10921158Y40800500D01*
X10921155Y40800500D01*
X10766510Y40769739D01*
X10766498Y40769736D01*
X10620827Y40709398D01*
X10620814Y40709391D01*
X10489125Y40621398D01*
X10422447Y40600520D01*
X10420234Y40600500D01*
X9086670Y40600500D01*
X9086654Y40600501D01*
X9079058Y40600501D01*
X8920943Y40600501D01*
X8844579Y40580039D01*
X8768214Y40559577D01*
X8768211Y40559575D01*
X8685438Y40511787D01*
X8617538Y40495316D01*
X8612461Y40495662D01*
X8581244Y40498437D01*
X8558037Y40500500D01*
X8558033Y40500500D01*
X7441971Y40500500D01*
X7441965Y40500500D01*
X7441964Y40500499D01*
X7430316Y40499464D01*
X7322584Y40489887D01*
X7126954Y40433911D01*
X7036772Y40386804D01*
X6946593Y40339698D01*
X6946591Y40339697D01*
X6946590Y40339696D01*
X6788890Y40211110D01*
X6660304Y40053410D01*
X6566089Y39873046D01*
X6525594Y39731519D01*
X6519264Y39709394D01*
X6510114Y39677417D01*
X6510113Y39677414D01*
X6499500Y39558034D01*
X500500Y39558034D01*
X500500Y41375500D01*
X520185Y41442539D01*
X572989Y41488294D01*
X624500Y41499500D01*
X82375500Y41499500D01*
X82442539Y41479815D01*
G37*
%TD.AperFunction*%
%TA.AperFunction,Conductor*%
G36*
X8556706Y14495815D02*
G01*
X8602461Y14443011D01*
X8612405Y14373853D01*
X8604229Y14344052D01*
X8592968Y14316863D01*
X8573538Y14269956D01*
X8573535Y14269944D01*
X8549500Y14149111D01*
X8549500Y13942192D01*
X8529815Y13875153D01*
X8490599Y13836655D01*
X8464152Y13820343D01*
X8342161Y13698352D01*
X8251593Y13551519D01*
X8251591Y13551514D01*
X8231635Y13491289D01*
X8197326Y13387753D01*
X8197326Y13387752D01*
X8197325Y13387752D01*
X8187000Y13286685D01*
X8187000Y12713331D01*
X8187001Y12713313D01*
X8197325Y12612248D01*
X8231373Y12509501D01*
X8238579Y12487753D01*
X8251592Y12448485D01*
X8251593Y12448482D01*
X8265213Y12426401D01*
X8342048Y12301831D01*
X8342161Y12301649D01*
X8413248Y12230562D01*
X8446733Y12169239D01*
X8441749Y12099547D01*
X8399877Y12043614D01*
X8381863Y12032397D01*
X8370803Y12026762D01*
X8217927Y11915690D01*
X8187179Y11884942D01*
X8125855Y11851458D01*
X8056164Y11856444D01*
X8000231Y11898316D01*
X7975815Y11963781D01*
X7975499Y11972606D01*
X7975499Y12386676D01*
X7965174Y12487753D01*
X7910908Y12651516D01*
X7820340Y12798350D01*
X7706017Y12912673D01*
X7672532Y12973996D01*
X7677516Y13043688D01*
X7706017Y13088036D01*
X7819948Y13201967D01*
X7910448Y13348689D01*
X7910453Y13348700D01*
X7964680Y13512348D01*
X7974999Y13613346D01*
X7975000Y13613359D01*
X7975000Y13662500D01*
X4025001Y13662500D01*
X4025001Y13613346D01*
X4035319Y13512348D01*
X4089546Y13348700D01*
X4089551Y13348689D01*
X4180052Y13201966D01*
X4180055Y13201962D01*
X4293982Y13088035D01*
X4327467Y13026712D01*
X4322483Y12957020D01*
X4293983Y12912673D01*
X4179659Y12798349D01*
X4089093Y12651519D01*
X4089091Y12651514D01*
X4078710Y12620185D01*
X4034826Y12487753D01*
X4034826Y12487752D01*
X4034825Y12487752D01*
X4024500Y12386685D01*
X4024500Y11960454D01*
X4004815Y11893415D01*
X3988181Y11872773D01*
X3497264Y11381856D01*
X3435941Y11348371D01*
X3366249Y11353355D01*
X3310316Y11395227D01*
X3297244Y11418186D01*
X3297085Y11418104D01*
X3295336Y11421536D01*
X3295014Y11422102D01*
X3294878Y11422428D01*
X3294873Y11422445D01*
X3216232Y11576788D01*
X3114414Y11716928D01*
X2991928Y11839414D01*
X2851788Y11941232D01*
X2830768Y11951942D01*
X2693205Y12022034D01*
X2642409Y12070009D01*
X2625500Y12132519D01*
X2625500Y12689548D01*
X2645185Y12756587D01*
X2661819Y12777229D01*
X4010771Y14126181D01*
X4072094Y14159666D01*
X4098452Y14162500D01*
X7974999Y14162500D01*
X7974999Y14211640D01*
X7974998Y14211655D01*
X7964680Y14312653D01*
X7951478Y14352496D01*
X7949076Y14422325D01*
X7984808Y14482366D01*
X8047328Y14513559D01*
X8069184Y14515500D01*
X8489667Y14515500D01*
X8556706Y14495815D01*
G37*
%TD.AperFunction*%
%TA.AperFunction,Conductor*%
G36*
X6749083Y34379815D02*
G01*
X6794838Y34327011D01*
X6804782Y34257853D01*
X6778146Y34197139D01*
X6660721Y34053130D01*
X6566557Y33872862D01*
X6510609Y33677329D01*
X6510608Y33677326D01*
X6500000Y33558001D01*
X6500000Y32442000D01*
X6510608Y32322675D01*
X6510609Y32322672D01*
X6566556Y32127141D01*
X6637593Y31991147D01*
X6637594Y31991146D01*
X7735543Y33089095D01*
X7796866Y33122580D01*
X7866558Y33117596D01*
X7910905Y33089095D01*
X7999999Y33000001D01*
X8089093Y33089095D01*
X8150416Y33122580D01*
X8220108Y33117596D01*
X8264456Y33089095D01*
X9362405Y31991146D01*
X9433442Y32127139D01*
X9489390Y32322672D01*
X9489391Y32322675D01*
X9499999Y32442000D01*
X9500000Y32442002D01*
X9500000Y33557998D01*
X9499999Y33558001D01*
X9489391Y33677326D01*
X9489390Y33677329D01*
X9433442Y33872862D01*
X9339278Y34053130D01*
X9221854Y34197139D01*
X9194745Y34261535D01*
X9206754Y34330365D01*
X9254069Y34381775D01*
X9317956Y34399500D01*
X10699903Y34399500D01*
X10766942Y34379815D01*
X10787584Y34363181D01*
X12421662Y32729103D01*
X12455147Y32667780D01*
X12450163Y32598088D01*
X12421662Y32553741D01*
X12378213Y32510293D01*
X12378210Y32510289D01*
X12290609Y32379186D01*
X12290602Y32379173D01*
X12230264Y32233502D01*
X12230261Y32233492D01*
X12208141Y32122286D01*
X12175756Y32060375D01*
X12174205Y32058797D01*
X8867230Y28751822D01*
X8805907Y28718337D01*
X8736215Y28723321D01*
X8691868Y28751822D01*
X8623351Y28820339D01*
X8623350Y28820340D01*
X8517143Y28885849D01*
X8476518Y28910907D01*
X8476513Y28910909D01*
X8473218Y28912001D01*
X8312753Y28965174D01*
X8312751Y28965175D01*
X8211678Y28975500D01*
X7613330Y28975500D01*
X7613312Y28975499D01*
X7512247Y28965175D01*
X7348484Y28910908D01*
X7348481Y28910907D01*
X7201648Y28820339D01*
X7087681Y28706371D01*
X7026358Y28672886D01*
X6956666Y28677870D01*
X6912319Y28706371D01*
X6798351Y28820339D01*
X6798350Y28820340D01*
X6692143Y28885849D01*
X6651518Y28910907D01*
X6651513Y28910909D01*
X6648218Y28912001D01*
X6487753Y28965174D01*
X6487751Y28965175D01*
X6386678Y28975500D01*
X5788330Y28975500D01*
X5788312Y28975499D01*
X5687247Y28965175D01*
X5523484Y28910908D01*
X5523481Y28910907D01*
X5376648Y28820339D01*
X5254661Y28698352D01*
X5164093Y28551519D01*
X5164091Y28551514D01*
X5109826Y28387753D01*
X5099500Y28286685D01*
X5099500Y28124730D01*
X5079815Y28057691D01*
X5063181Y28037049D01*
X4812951Y27786819D01*
X4751628Y27753334D01*
X4725270Y27750500D01*
X4328958Y27750500D01*
X4261919Y27770185D01*
X4223420Y27809402D01*
X4217712Y27818656D01*
X4093655Y27942713D01*
X4049988Y27969647D01*
X4029018Y27982581D01*
X3982294Y28034528D01*
X3971071Y28103490D01*
X3998914Y28167572D01*
X4006434Y28175801D01*
X4114035Y28283402D01*
X4215804Y28423476D01*
X4294408Y28577745D01*
X4347914Y28742416D01*
X4349115Y28750000D01*
X3280330Y28750000D01*
X3300075Y28769745D01*
X3349444Y28855255D01*
X3375000Y28950630D01*
X3375000Y29049370D01*
X3349444Y29144745D01*
X3300075Y29230255D01*
X3280330Y29250000D01*
X4349115Y29250000D01*
X4349115Y29250001D01*
X4347914Y29257585D01*
X4294408Y29422256D01*
X4215804Y29576525D01*
X4114032Y29716603D01*
X3991602Y29839033D01*
X3908551Y29899372D01*
X3865885Y29954702D01*
X3859906Y30024315D01*
X3892511Y30086111D01*
X3908551Y30100009D01*
X3991928Y30160586D01*
X4114414Y30283072D01*
X4216232Y30423212D01*
X4294873Y30577555D01*
X4348402Y30742299D01*
X4375500Y30913389D01*
X4375500Y31086611D01*
X4348402Y31257701D01*
X4294873Y31422445D01*
X4216232Y31576788D01*
X4172053Y31637595D01*
X6991145Y31637595D01*
X7127140Y31566557D01*
X7322671Y31510610D01*
X7322674Y31510609D01*
X7441999Y31500001D01*
X7442002Y31500000D01*
X8557998Y31500000D01*
X8558000Y31500001D01*
X8677325Y31510609D01*
X8677328Y31510610D01*
X8872861Y31566558D01*
X9008854Y31637595D01*
X8000000Y32646448D01*
X6991145Y31637595D01*
X4172053Y31637595D01*
X4114414Y31716928D01*
X3991928Y31839414D01*
X3908550Y31899992D01*
X3865885Y31955323D01*
X3859906Y32024936D01*
X3892512Y32086731D01*
X3908552Y32100629D01*
X3991598Y32160964D01*
X4114032Y32283398D01*
X4215804Y32423476D01*
X4294408Y32577745D01*
X4347914Y32742416D01*
X4349115Y32750000D01*
X3280330Y32750000D01*
X3300075Y32769745D01*
X3349444Y32855255D01*
X3375000Y32950630D01*
X3375000Y33049370D01*
X3349444Y33144745D01*
X3300075Y33230255D01*
X3280330Y33250000D01*
X4349115Y33250000D01*
X4349115Y33250001D01*
X4347914Y33257585D01*
X4294408Y33422256D01*
X4215804Y33576525D01*
X4114032Y33716603D01*
X3991602Y33839033D01*
X3908551Y33899372D01*
X3865885Y33954702D01*
X3859906Y34024315D01*
X3892511Y34086111D01*
X3908551Y34100009D01*
X3991928Y34160586D01*
X4114414Y34283072D01*
X4161868Y34348387D01*
X4217197Y34391051D01*
X4262185Y34399500D01*
X6682044Y34399500D01*
X6749083Y34379815D01*
G37*
%TD.AperFunction*%
%TA.AperFunction,Conductor*%
G36*
X23174255Y31354815D02*
G01*
X23220010Y31302011D01*
X23229954Y31232853D01*
X23228833Y31226308D01*
X23208141Y31122286D01*
X23175756Y31060375D01*
X23174205Y31058797D01*
X20998480Y28883072D01*
X20990534Y28878734D01*
X20985109Y28871486D01*
X20960349Y28862252D01*
X20937157Y28849587D01*
X20928127Y28850233D01*
X20919645Y28847069D01*
X20893824Y28852686D01*
X20867465Y28854571D01*
X20858411Y28860390D01*
X20851372Y28861921D01*
X20823118Y28883072D01*
X20706371Y28999819D01*
X20672886Y29061142D01*
X20677870Y29130834D01*
X20706371Y29175181D01*
X20761445Y29230255D01*
X20820340Y29289150D01*
X20910908Y29435984D01*
X20965174Y29599747D01*
X20975500Y29700823D01*
X20975499Y30299176D01*
X20965174Y30400253D01*
X20910908Y30564016D01*
X20820340Y30710850D01*
X20698350Y30832840D01*
X20698347Y30832843D01*
X20684402Y30841444D01*
X20681581Y30844580D01*
X20677594Y30845959D01*
X20658414Y30870338D01*
X20637679Y30893392D01*
X20636259Y30898499D01*
X20634393Y30900871D01*
X20631660Y30915043D01*
X20626065Y30935169D01*
X20625501Y30941063D01*
X20625501Y31061606D01*
X20604494Y31167215D01*
X20601463Y31182452D01*
X20592933Y31203045D01*
X20585463Y31272515D01*
X20616737Y31334994D01*
X20676825Y31370648D01*
X20707493Y31374500D01*
X23107216Y31374500D01*
X23174255Y31354815D01*
G37*
%TD.AperFunction*%
%TD*%
%TA.AperFunction,Conductor*%
%TO.N,Net-(J6-Pin_4)*%
G36*
X15216326Y16226103D02*
G01*
X15261522Y16195788D01*
X15901909Y15520302D01*
X15907952Y15508498D01*
X15917770Y15499581D01*
X15923564Y15478000D01*
X15933747Y15458108D01*
X15932448Y15444909D01*
X15935887Y15432101D01*
X15929094Y15410814D01*
X15926906Y15388574D01*
X15918677Y15378173D01*
X15914646Y15365538D01*
X15897420Y15351301D01*
X15883558Y15333777D01*
X15869810Y15328481D01*
X15860791Y15321026D01*
X15826704Y15311875D01*
X15816055Y15310596D01*
X15764783Y15304439D01*
X15735217Y15304439D01*
X15686559Y15310282D01*
X15643102Y15315500D01*
X15356898Y15315500D01*
X15317853Y15310812D01*
X15268438Y15304878D01*
X15127658Y15249362D01*
X15046367Y15187717D01*
X15007078Y15157922D01*
X15007077Y15157921D01*
X15007076Y15157920D01*
X15001078Y15151922D01*
X14998724Y15154277D01*
X14955204Y15122152D01*
X14907651Y15114724D01*
X14297713Y15139346D01*
X14231523Y15161719D01*
X14187935Y15216325D01*
X14180789Y15285828D01*
X14212354Y15348162D01*
X14216119Y15351998D01*
X15084964Y16199254D01*
X15146702Y16231964D01*
X15216326Y16226103D01*
G37*
%TD.AperFunction*%
%TD*%
M02*
