%TF.GenerationSoftware,KiCad,Pcbnew,9.0.1*%
%TF.CreationDate,2025-07-30T18:50:42+03:00*%
%TF.ProjectId,FlameSensorSender,466c616d-6553-4656-9e73-6f7253656e64,1*%
%TF.SameCoordinates,PX38aa39cPY518a060*%
%TF.FileFunction,Legend,Top*%
%TF.FilePolarity,Positive*%
%FSLAX46Y46*%
G04 Gerber Fmt 4.6, Leading zero omitted, Abs format (unit mm)*
G04 Created by KiCad (PCBNEW 9.0.1) date 2025-07-30 18:50:42*
%MOMM*%
%LPD*%
G01*
G04 APERTURE LIST*
%ADD10C,0.150000*%
%ADD11C,0.100000*%
%ADD12C,0.120000*%
%ADD13C,0.127000*%
%ADD14C,0.200000*%
G04 APERTURE END LIST*
D10*
X1502438Y2261905D02*
X1454819Y2166667D01*
X1454819Y2166667D02*
X1454819Y2023810D01*
X1454819Y2023810D02*
X1502438Y1880953D01*
X1502438Y1880953D02*
X1597676Y1785715D01*
X1597676Y1785715D02*
X1692914Y1738096D01*
X1692914Y1738096D02*
X1883390Y1690477D01*
X1883390Y1690477D02*
X2026247Y1690477D01*
X2026247Y1690477D02*
X2216723Y1738096D01*
X2216723Y1738096D02*
X2311961Y1785715D01*
X2311961Y1785715D02*
X2407200Y1880953D01*
X2407200Y1880953D02*
X2454819Y2023810D01*
X2454819Y2023810D02*
X2454819Y2119048D01*
X2454819Y2119048D02*
X2407200Y2261905D01*
X2407200Y2261905D02*
X2359580Y2309524D01*
X2359580Y2309524D02*
X2026247Y2309524D01*
X2026247Y2309524D02*
X2026247Y2119048D01*
X694678Y24105444D02*
X1694678Y24438777D01*
X1694678Y24438777D02*
X694678Y24772110D01*
X1313725Y25105444D02*
X1313725Y25867348D01*
X1694678Y26819729D02*
X1694678Y26343539D01*
X1694678Y26343539D02*
X694678Y26343539D01*
X1170868Y27153063D02*
X1170868Y27486396D01*
X1694678Y27629253D02*
X1694678Y27153063D01*
X1694678Y27153063D02*
X694678Y27153063D01*
X694678Y27153063D02*
X694678Y27629253D01*
X1694678Y28057825D02*
X694678Y28057825D01*
X694678Y28057825D02*
X694678Y28295920D01*
X694678Y28295920D02*
X742297Y28438777D01*
X742297Y28438777D02*
X837535Y28534015D01*
X837535Y28534015D02*
X932773Y28581634D01*
X932773Y28581634D02*
X1123249Y28629253D01*
X1123249Y28629253D02*
X1266106Y28629253D01*
X1266106Y28629253D02*
X1456582Y28581634D01*
X1456582Y28581634D02*
X1551820Y28534015D01*
X1551820Y28534015D02*
X1647059Y28438777D01*
X1647059Y28438777D02*
X1694678Y28295920D01*
X1694678Y28295920D02*
X1694678Y28057825D01*
X1231068Y34238096D02*
X1231068Y35000000D01*
X1612021Y34619048D02*
X850116Y34619048D01*
X612021Y35952381D02*
X612021Y35476191D01*
X612021Y35476191D02*
X1088211Y35428572D01*
X1088211Y35428572D02*
X1040592Y35476191D01*
X1040592Y35476191D02*
X992973Y35571429D01*
X992973Y35571429D02*
X992973Y35809524D01*
X992973Y35809524D02*
X1040592Y35904762D01*
X1040592Y35904762D02*
X1088211Y35952381D01*
X1088211Y35952381D02*
X1183449Y36000000D01*
X1183449Y36000000D02*
X1421544Y36000000D01*
X1421544Y36000000D02*
X1516782Y35952381D01*
X1516782Y35952381D02*
X1564402Y35904762D01*
X1564402Y35904762D02*
X1612021Y35809524D01*
X1612021Y35809524D02*
X1612021Y35571429D01*
X1612021Y35571429D02*
X1564402Y35476191D01*
X1564402Y35476191D02*
X1516782Y35428572D01*
X612021Y36285715D02*
X1612021Y36619048D01*
X1612021Y36619048D02*
X612021Y36952381D01*
X612021Y37476191D02*
X612021Y37571429D01*
X612021Y37571429D02*
X659640Y37666667D01*
X659640Y37666667D02*
X707259Y37714286D01*
X707259Y37714286D02*
X802497Y37761905D01*
X802497Y37761905D02*
X992973Y37809524D01*
X992973Y37809524D02*
X1231068Y37809524D01*
X1231068Y37809524D02*
X1421544Y37761905D01*
X1421544Y37761905D02*
X1516782Y37714286D01*
X1516782Y37714286D02*
X1564402Y37666667D01*
X1564402Y37666667D02*
X1612021Y37571429D01*
X1612021Y37571429D02*
X1612021Y37476191D01*
X1612021Y37476191D02*
X1564402Y37380953D01*
X1564402Y37380953D02*
X1516782Y37333334D01*
X1516782Y37333334D02*
X1421544Y37285715D01*
X1421544Y37285715D02*
X1231068Y37238096D01*
X1231068Y37238096D02*
X992973Y37238096D01*
X992973Y37238096D02*
X802497Y37285715D01*
X802497Y37285715D02*
X707259Y37333334D01*
X707259Y37333334D02*
X659640Y37380953D01*
X659640Y37380953D02*
X612021Y37476191D01*
X65169104Y10425126D02*
X65169104Y10901316D01*
X65454819Y10329888D02*
X64454819Y10663221D01*
X64454819Y10663221D02*
X65454819Y10996554D01*
X65454819Y11329888D02*
X64454819Y11329888D01*
X64454819Y11329888D02*
X65454819Y11901316D01*
X65454819Y11901316D02*
X64454819Y11901316D01*
X64454819Y12234650D02*
X64454819Y12806078D01*
X65454819Y12520364D02*
X64454819Y12520364D01*
X69454819Y33336780D02*
X68454819Y33336780D01*
X68454819Y33336780D02*
X69169104Y33670113D01*
X69169104Y33670113D02*
X68454819Y34003446D01*
X68454819Y34003446D02*
X69454819Y34003446D01*
X68454819Y34670113D02*
X68454819Y34860589D01*
X68454819Y34860589D02*
X68502438Y34955827D01*
X68502438Y34955827D02*
X68597676Y35051065D01*
X68597676Y35051065D02*
X68788152Y35098684D01*
X68788152Y35098684D02*
X69121485Y35098684D01*
X69121485Y35098684D02*
X69311961Y35051065D01*
X69311961Y35051065D02*
X69407200Y34955827D01*
X69407200Y34955827D02*
X69454819Y34860589D01*
X69454819Y34860589D02*
X69454819Y34670113D01*
X69454819Y34670113D02*
X69407200Y34574875D01*
X69407200Y34574875D02*
X69311961Y34479637D01*
X69311961Y34479637D02*
X69121485Y34432018D01*
X69121485Y34432018D02*
X68788152Y34432018D01*
X68788152Y34432018D02*
X68597676Y34479637D01*
X68597676Y34479637D02*
X68502438Y34574875D01*
X68502438Y34574875D02*
X68454819Y34670113D01*
X69407200Y35479637D02*
X69454819Y35622494D01*
X69454819Y35622494D02*
X69454819Y35860589D01*
X69454819Y35860589D02*
X69407200Y35955827D01*
X69407200Y35955827D02*
X69359580Y36003446D01*
X69359580Y36003446D02*
X69264342Y36051065D01*
X69264342Y36051065D02*
X69169104Y36051065D01*
X69169104Y36051065D02*
X69073866Y36003446D01*
X69073866Y36003446D02*
X69026247Y35955827D01*
X69026247Y35955827D02*
X68978628Y35860589D01*
X68978628Y35860589D02*
X68931009Y35670113D01*
X68931009Y35670113D02*
X68883390Y35574875D01*
X68883390Y35574875D02*
X68835771Y35527256D01*
X68835771Y35527256D02*
X68740533Y35479637D01*
X68740533Y35479637D02*
X68645295Y35479637D01*
X68645295Y35479637D02*
X68550057Y35527256D01*
X68550057Y35527256D02*
X68502438Y35574875D01*
X68502438Y35574875D02*
X68454819Y35670113D01*
X68454819Y35670113D02*
X68454819Y35908208D01*
X68454819Y35908208D02*
X68502438Y36051065D01*
X69454819Y36479637D02*
X68454819Y36479637D01*
X76931009Y33670113D02*
X76978628Y33812970D01*
X76978628Y33812970D02*
X77026247Y33860589D01*
X77026247Y33860589D02*
X77121485Y33908208D01*
X77121485Y33908208D02*
X77264342Y33908208D01*
X77264342Y33908208D02*
X77359580Y33860589D01*
X77359580Y33860589D02*
X77407200Y33812970D01*
X77407200Y33812970D02*
X77454819Y33717732D01*
X77454819Y33717732D02*
X77454819Y33336780D01*
X77454819Y33336780D02*
X76454819Y33336780D01*
X76454819Y33336780D02*
X76454819Y33670113D01*
X76454819Y33670113D02*
X76502438Y33765351D01*
X76502438Y33765351D02*
X76550057Y33812970D01*
X76550057Y33812970D02*
X76645295Y33860589D01*
X76645295Y33860589D02*
X76740533Y33860589D01*
X76740533Y33860589D02*
X76835771Y33812970D01*
X76835771Y33812970D02*
X76883390Y33765351D01*
X76883390Y33765351D02*
X76931009Y33670113D01*
X76931009Y33670113D02*
X76931009Y33336780D01*
X76454819Y34336780D02*
X77264342Y34336780D01*
X77264342Y34336780D02*
X77359580Y34384399D01*
X77359580Y34384399D02*
X77407200Y34432018D01*
X77407200Y34432018D02*
X77454819Y34527256D01*
X77454819Y34527256D02*
X77454819Y34717732D01*
X77454819Y34717732D02*
X77407200Y34812970D01*
X77407200Y34812970D02*
X77359580Y34860589D01*
X77359580Y34860589D02*
X77264342Y34908208D01*
X77264342Y34908208D02*
X76454819Y34908208D01*
X77407200Y35336780D02*
X77454819Y35479637D01*
X77454819Y35479637D02*
X77454819Y35717732D01*
X77454819Y35717732D02*
X77407200Y35812970D01*
X77407200Y35812970D02*
X77359580Y35860589D01*
X77359580Y35860589D02*
X77264342Y35908208D01*
X77264342Y35908208D02*
X77169104Y35908208D01*
X77169104Y35908208D02*
X77073866Y35860589D01*
X77073866Y35860589D02*
X77026247Y35812970D01*
X77026247Y35812970D02*
X76978628Y35717732D01*
X76978628Y35717732D02*
X76931009Y35527256D01*
X76931009Y35527256D02*
X76883390Y35432018D01*
X76883390Y35432018D02*
X76835771Y35384399D01*
X76835771Y35384399D02*
X76740533Y35336780D01*
X76740533Y35336780D02*
X76645295Y35336780D01*
X76645295Y35336780D02*
X76550057Y35384399D01*
X76550057Y35384399D02*
X76502438Y35432018D01*
X76502438Y35432018D02*
X76454819Y35527256D01*
X76454819Y35527256D02*
X76454819Y35765351D01*
X76454819Y35765351D02*
X76502438Y35908208D01*
X76978628Y36527256D02*
X77454819Y36527256D01*
X76454819Y36193923D02*
X76978628Y36527256D01*
X76978628Y36527256D02*
X76454819Y36860589D01*
X71454819Y33336780D02*
X70454819Y33336780D01*
X70454819Y33336780D02*
X71169104Y33670113D01*
X71169104Y33670113D02*
X70454819Y34003446D01*
X70454819Y34003446D02*
X71454819Y34003446D01*
X71454819Y34479637D02*
X70454819Y34479637D01*
X71407200Y34908208D02*
X71454819Y35051065D01*
X71454819Y35051065D02*
X71454819Y35289160D01*
X71454819Y35289160D02*
X71407200Y35384398D01*
X71407200Y35384398D02*
X71359580Y35432017D01*
X71359580Y35432017D02*
X71264342Y35479636D01*
X71264342Y35479636D02*
X71169104Y35479636D01*
X71169104Y35479636D02*
X71073866Y35432017D01*
X71073866Y35432017D02*
X71026247Y35384398D01*
X71026247Y35384398D02*
X70978628Y35289160D01*
X70978628Y35289160D02*
X70931009Y35098684D01*
X70931009Y35098684D02*
X70883390Y35003446D01*
X70883390Y35003446D02*
X70835771Y34955827D01*
X70835771Y34955827D02*
X70740533Y34908208D01*
X70740533Y34908208D02*
X70645295Y34908208D01*
X70645295Y34908208D02*
X70550057Y34955827D01*
X70550057Y34955827D02*
X70502438Y35003446D01*
X70502438Y35003446D02*
X70454819Y35098684D01*
X70454819Y35098684D02*
X70454819Y35336779D01*
X70454819Y35336779D02*
X70502438Y35479636D01*
X70454819Y36098684D02*
X70454819Y36289160D01*
X70454819Y36289160D02*
X70502438Y36384398D01*
X70502438Y36384398D02*
X70597676Y36479636D01*
X70597676Y36479636D02*
X70788152Y36527255D01*
X70788152Y36527255D02*
X71121485Y36527255D01*
X71121485Y36527255D02*
X71311961Y36479636D01*
X71311961Y36479636D02*
X71407200Y36384398D01*
X71407200Y36384398D02*
X71454819Y36289160D01*
X71454819Y36289160D02*
X71454819Y36098684D01*
X71454819Y36098684D02*
X71407200Y36003446D01*
X71407200Y36003446D02*
X71311961Y35908208D01*
X71311961Y35908208D02*
X71121485Y35860589D01*
X71121485Y35860589D02*
X70788152Y35860589D01*
X70788152Y35860589D02*
X70597676Y35908208D01*
X70597676Y35908208D02*
X70502438Y36003446D01*
X70502438Y36003446D02*
X70454819Y36098684D01*
X72454819Y8282269D02*
X73454819Y8615602D01*
X73454819Y8615602D02*
X72454819Y8948935D01*
X73359580Y9853697D02*
X73407200Y9806078D01*
X73407200Y9806078D02*
X73454819Y9663221D01*
X73454819Y9663221D02*
X73454819Y9567983D01*
X73454819Y9567983D02*
X73407200Y9425126D01*
X73407200Y9425126D02*
X73311961Y9329888D01*
X73311961Y9329888D02*
X73216723Y9282269D01*
X73216723Y9282269D02*
X73026247Y9234650D01*
X73026247Y9234650D02*
X72883390Y9234650D01*
X72883390Y9234650D02*
X72692914Y9282269D01*
X72692914Y9282269D02*
X72597676Y9329888D01*
X72597676Y9329888D02*
X72502438Y9425126D01*
X72502438Y9425126D02*
X72454819Y9567983D01*
X72454819Y9567983D02*
X72454819Y9663221D01*
X72454819Y9663221D02*
X72502438Y9806078D01*
X72502438Y9806078D02*
X72550057Y9853697D01*
X73359580Y10853697D02*
X73407200Y10806078D01*
X73407200Y10806078D02*
X73454819Y10663221D01*
X73454819Y10663221D02*
X73454819Y10567983D01*
X73454819Y10567983D02*
X73407200Y10425126D01*
X73407200Y10425126D02*
X73311961Y10329888D01*
X73311961Y10329888D02*
X73216723Y10282269D01*
X73216723Y10282269D02*
X73026247Y10234650D01*
X73026247Y10234650D02*
X72883390Y10234650D01*
X72883390Y10234650D02*
X72692914Y10282269D01*
X72692914Y10282269D02*
X72597676Y10329888D01*
X72597676Y10329888D02*
X72502438Y10425126D01*
X72502438Y10425126D02*
X72454819Y10567983D01*
X72454819Y10567983D02*
X72454819Y10663221D01*
X72454819Y10663221D02*
X72502438Y10806078D01*
X72502438Y10806078D02*
X72550057Y10853697D01*
X73454819Y11282269D02*
X72454819Y11282269D01*
X72454819Y11282269D02*
X72454819Y11663221D01*
X72454819Y11663221D02*
X72502438Y11758459D01*
X72502438Y11758459D02*
X72550057Y11806078D01*
X72550057Y11806078D02*
X72645295Y11853697D01*
X72645295Y11853697D02*
X72788152Y11853697D01*
X72788152Y11853697D02*
X72883390Y11806078D01*
X72883390Y11806078D02*
X72931009Y11758459D01*
X72931009Y11758459D02*
X72978628Y11663221D01*
X72978628Y11663221D02*
X72978628Y11282269D01*
X73169104Y12234650D02*
X73169104Y12710840D01*
X73454819Y12139412D02*
X72454819Y12472745D01*
X72454819Y12472745D02*
X73454819Y12806078D01*
X78502438Y33860589D02*
X78454819Y33765351D01*
X78454819Y33765351D02*
X78454819Y33622494D01*
X78454819Y33622494D02*
X78502438Y33479637D01*
X78502438Y33479637D02*
X78597676Y33384399D01*
X78597676Y33384399D02*
X78692914Y33336780D01*
X78692914Y33336780D02*
X78883390Y33289161D01*
X78883390Y33289161D02*
X79026247Y33289161D01*
X79026247Y33289161D02*
X79216723Y33336780D01*
X79216723Y33336780D02*
X79311961Y33384399D01*
X79311961Y33384399D02*
X79407200Y33479637D01*
X79407200Y33479637D02*
X79454819Y33622494D01*
X79454819Y33622494D02*
X79454819Y33717732D01*
X79454819Y33717732D02*
X79407200Y33860589D01*
X79407200Y33860589D02*
X79359580Y33908208D01*
X79359580Y33908208D02*
X79026247Y33908208D01*
X79026247Y33908208D02*
X79026247Y33717732D01*
X79454819Y34336780D02*
X78454819Y34336780D01*
X78454819Y34336780D02*
X79454819Y34908208D01*
X79454819Y34908208D02*
X78454819Y34908208D01*
X79454819Y35384399D02*
X78454819Y35384399D01*
X78454819Y35384399D02*
X78454819Y35622494D01*
X78454819Y35622494D02*
X78502438Y35765351D01*
X78502438Y35765351D02*
X78597676Y35860589D01*
X78597676Y35860589D02*
X78692914Y35908208D01*
X78692914Y35908208D02*
X78883390Y35955827D01*
X78883390Y35955827D02*
X79026247Y35955827D01*
X79026247Y35955827D02*
X79216723Y35908208D01*
X79216723Y35908208D02*
X79311961Y35860589D01*
X79311961Y35860589D02*
X79407200Y35765351D01*
X79407200Y35765351D02*
X79454819Y35622494D01*
X79454819Y35622494D02*
X79454819Y35384399D01*
D11*
G36*
X58613239Y26453869D02*
G01*
X58692945Y26374163D01*
X58735713Y26203093D01*
X58735713Y25882070D01*
X58692945Y25711001D01*
X58613237Y25631292D01*
X58535815Y25592581D01*
X58368946Y25592581D01*
X58291523Y25631293D01*
X58211814Y25711002D01*
X58169047Y25882070D01*
X58169047Y26203093D01*
X58211814Y26374163D01*
X58291520Y26453869D01*
X58368946Y26492581D01*
X58535815Y26492581D01*
X58613239Y26453869D01*
G37*
G36*
X62044419Y26451261D02*
G01*
X62125572Y26370108D01*
X62167109Y26287034D01*
X62211904Y26107855D01*
X62211904Y25977308D01*
X62167109Y25798130D01*
X62125572Y25715056D01*
X62044418Y25633902D01*
X61920458Y25592581D01*
X61740476Y25592581D01*
X61740476Y26492581D01*
X61920458Y26492581D01*
X62044419Y26451261D01*
G37*
G36*
X62423015Y25381470D02*
G01*
X55624603Y25381470D01*
X55624603Y26542581D01*
X55735714Y26542581D01*
X55735714Y25542581D01*
X55739520Y25523447D01*
X55766580Y25496387D01*
X55804848Y25496387D01*
X55831908Y25523447D01*
X55835714Y25542581D01*
X55835714Y26542581D01*
X56211904Y26542581D01*
X56211904Y25542581D01*
X56215710Y25523447D01*
X56242770Y25496387D01*
X56281038Y25496387D01*
X56308098Y25523447D01*
X56311904Y25542581D01*
X56311904Y26354303D01*
X56789920Y25517774D01*
X56802718Y25503049D01*
X56809342Y25501243D01*
X56814198Y25496387D01*
X56827146Y25496387D01*
X56839638Y25492980D01*
X56845600Y25496387D01*
X56852466Y25496387D01*
X56861619Y25505541D01*
X56872864Y25511966D01*
X56874671Y25518593D01*
X56879526Y25523447D01*
X56883332Y25542581D01*
X56883332Y26542581D01*
X57259523Y26542581D01*
X57259523Y25542581D01*
X57263329Y25523447D01*
X57290389Y25496387D01*
X57328657Y25496387D01*
X57355717Y25523447D01*
X57359523Y25542581D01*
X57359523Y26016391D01*
X57642856Y26016391D01*
X57661990Y26020197D01*
X57689050Y26047257D01*
X57689050Y26085525D01*
X57661990Y26112585D01*
X57642856Y26116391D01*
X57359523Y26116391D01*
X57359523Y26209248D01*
X58069047Y26209248D01*
X58069047Y25875915D01*
X58070242Y25869906D01*
X58070540Y25863788D01*
X58118159Y25673312D01*
X58120472Y25668416D01*
X58120472Y25666305D01*
X58123876Y25661210D01*
X58126492Y25655673D01*
X58128300Y25654588D01*
X58131310Y25650084D01*
X58226549Y25554845D01*
X58233208Y25550395D01*
X58239543Y25545479D01*
X58334781Y25497860D01*
X58337196Y25497199D01*
X58338008Y25496387D01*
X58345869Y25494824D01*
X58353597Y25492707D01*
X58354685Y25493070D01*
X58357142Y25492581D01*
X58547618Y25492581D01*
X58550074Y25493070D01*
X58551163Y25492707D01*
X58558890Y25494824D01*
X58566752Y25496387D01*
X58567563Y25497199D01*
X58569979Y25497860D01*
X58665216Y25545478D01*
X58671543Y25550389D01*
X58678212Y25554845D01*
X58773450Y25650084D01*
X58776459Y25654588D01*
X58778268Y25655673D01*
X58780883Y25661210D01*
X58784288Y25666305D01*
X58784288Y25668416D01*
X58786601Y25673312D01*
X58834220Y25863788D01*
X58834517Y25869906D01*
X58835713Y25875915D01*
X58835713Y26209248D01*
X58834517Y26215258D01*
X58834220Y26221375D01*
X58786601Y26411851D01*
X58784288Y26416748D01*
X58784288Y26418858D01*
X58780884Y26423952D01*
X58778268Y26429490D01*
X58776457Y26430577D01*
X58773449Y26435079D01*
X58678211Y26530317D01*
X58671549Y26534769D01*
X58665216Y26539684D01*
X58659422Y26542581D01*
X59926190Y26542581D01*
X59926190Y25542581D01*
X59929996Y25523447D01*
X59957056Y25496387D01*
X59976190Y25492581D01*
X60452380Y25492581D01*
X60471514Y25496387D01*
X60498574Y25523447D01*
X60498574Y25561715D01*
X60471514Y25588775D01*
X60452380Y25592581D01*
X60026190Y25592581D01*
X60026190Y26542581D01*
X60735714Y26542581D01*
X60735714Y25542581D01*
X60739520Y25523447D01*
X60766580Y25496387D01*
X60785714Y25492581D01*
X61261904Y25492581D01*
X61281038Y25496387D01*
X61308098Y25523447D01*
X61308098Y25561715D01*
X61281038Y25588775D01*
X61261904Y25592581D01*
X60835714Y25592581D01*
X60835714Y26016391D01*
X61119047Y26016391D01*
X61138181Y26020197D01*
X61165241Y26047257D01*
X61165241Y26085525D01*
X61138181Y26112585D01*
X61119047Y26116391D01*
X60835714Y26116391D01*
X60835714Y26492581D01*
X61261904Y26492581D01*
X61281038Y26496387D01*
X61308098Y26523447D01*
X61308098Y26542581D01*
X61640476Y26542581D01*
X61640476Y25542581D01*
X61644282Y25523447D01*
X61671342Y25496387D01*
X61690476Y25492581D01*
X61928571Y25492581D01*
X61936433Y25494145D01*
X61944382Y25495147D01*
X62087239Y25542766D01*
X62089414Y25544006D01*
X62090563Y25544006D01*
X62097233Y25548464D01*
X62104187Y25552427D01*
X62104699Y25553453D01*
X62106784Y25554845D01*
X62202022Y25650084D01*
X62206475Y25656750D01*
X62211387Y25663078D01*
X62259006Y25758316D01*
X62260452Y25763598D01*
X62262792Y25768550D01*
X62310411Y25959026D01*
X62310708Y25965144D01*
X62311904Y25971153D01*
X62311904Y26114010D01*
X62310708Y26120020D01*
X62310411Y26126137D01*
X62262792Y26316613D01*
X62260452Y26321566D01*
X62259006Y26326847D01*
X62211387Y26422085D01*
X62206471Y26428420D01*
X62202021Y26435079D01*
X62106783Y26530317D01*
X62104700Y26531709D01*
X62104187Y26532735D01*
X62097226Y26536703D01*
X62090562Y26541156D01*
X62089414Y26541156D01*
X62087239Y26542396D01*
X61944382Y26590015D01*
X61936433Y26591018D01*
X61928571Y26592581D01*
X61690476Y26592581D01*
X61671342Y26588775D01*
X61644282Y26561715D01*
X61640476Y26542581D01*
X61308098Y26542581D01*
X61308098Y26561715D01*
X61281038Y26588775D01*
X61261904Y26592581D01*
X60785714Y26592581D01*
X60766580Y26588775D01*
X60739520Y26561715D01*
X60735714Y26542581D01*
X60026190Y26542581D01*
X60022384Y26561715D01*
X59995324Y26588775D01*
X59957056Y26588775D01*
X59929996Y26561715D01*
X59926190Y26542581D01*
X58659422Y26542581D01*
X58569979Y26587302D01*
X58567563Y26587964D01*
X58566752Y26588775D01*
X58558890Y26590339D01*
X58551163Y26592455D01*
X58550074Y26592093D01*
X58547618Y26592581D01*
X58357142Y26592581D01*
X58354685Y26592093D01*
X58353597Y26592455D01*
X58345869Y26590339D01*
X58338008Y26588775D01*
X58337196Y26587964D01*
X58334781Y26587302D01*
X58239543Y26539683D01*
X58233208Y26534768D01*
X58226549Y26530317D01*
X58131311Y26435079D01*
X58128302Y26430577D01*
X58126492Y26429490D01*
X58123875Y26423952D01*
X58120472Y26418858D01*
X58120472Y26416748D01*
X58118159Y26411851D01*
X58070540Y26221375D01*
X58070242Y26215258D01*
X58069047Y26209248D01*
X57359523Y26209248D01*
X57359523Y26492581D01*
X57785713Y26492581D01*
X57804847Y26496387D01*
X57831907Y26523447D01*
X57831907Y26561715D01*
X57804847Y26588775D01*
X57785713Y26592581D01*
X57309523Y26592581D01*
X57290389Y26588775D01*
X57263329Y26561715D01*
X57259523Y26542581D01*
X56883332Y26542581D01*
X56879526Y26561715D01*
X56852466Y26588775D01*
X56814198Y26588775D01*
X56787138Y26561715D01*
X56783332Y26542581D01*
X56783332Y25730860D01*
X56305316Y26567388D01*
X56292519Y26582113D01*
X56285892Y26583921D01*
X56281038Y26588775D01*
X56268091Y26588775D01*
X56255598Y26592182D01*
X56249636Y26588775D01*
X56242770Y26588775D01*
X56233616Y26579622D01*
X56222372Y26573196D01*
X56220564Y26566570D01*
X56215710Y26561715D01*
X56211904Y26542581D01*
X55835714Y26542581D01*
X55831908Y26561715D01*
X55804848Y26588775D01*
X55766580Y26588775D01*
X55739520Y26561715D01*
X55735714Y26542581D01*
X55624603Y26542581D01*
X55624603Y26703692D01*
X62423015Y26703692D01*
X62423015Y25381470D01*
G37*
D10*
X20833333Y13545181D02*
X20357143Y13545181D01*
X20357143Y13545181D02*
X20357143Y14545181D01*
X21690476Y13545181D02*
X21119048Y13545181D01*
X21404762Y13545181D02*
X21404762Y14545181D01*
X21404762Y14545181D02*
X21309524Y14402324D01*
X21309524Y14402324D02*
X21214286Y14307086D01*
X21214286Y14307086D02*
X21119048Y14259467D01*
D11*
G36*
X9223753Y4738983D02*
G01*
X9259897Y4702838D01*
X9298609Y4625415D01*
X9298609Y4353885D01*
X8922419Y4353885D01*
X8922419Y4625415D01*
X8961130Y4702839D01*
X8997275Y4738983D01*
X9074699Y4777694D01*
X9146330Y4777694D01*
X9223753Y4738983D01*
G37*
G36*
X9747561Y4786602D02*
G01*
X9783708Y4750456D01*
X9822419Y4673034D01*
X9822419Y4353885D01*
X9398609Y4353885D01*
X9398609Y4629105D01*
X9439929Y4753067D01*
X9473465Y4786602D01*
X9550889Y4825313D01*
X9670139Y4825313D01*
X9747561Y4786602D01*
G37*
G36*
X9271372Y8786602D02*
G01*
X9307516Y8750457D01*
X9346228Y8673034D01*
X9346228Y8353885D01*
X8922419Y8353885D01*
X8922419Y8673034D01*
X8961130Y8750458D01*
X8997275Y8786602D01*
X9074699Y8825313D01*
X9193949Y8825313D01*
X9271372Y8786602D01*
G37*
G36*
X9747561Y9691364D02*
G01*
X9783708Y9655218D01*
X9822419Y9577796D01*
X9822419Y9458546D01*
X9783708Y9381124D01*
X9747561Y9344978D01*
X9670139Y9306266D01*
X9408032Y9306266D01*
X9330608Y9344978D01*
X9294463Y9381122D01*
X9255752Y9458545D01*
X9255752Y9577796D01*
X9294463Y9655220D01*
X9330608Y9691364D01*
X9408032Y9730075D01*
X9670139Y9730075D01*
X9747561Y9691364D01*
G37*
G36*
X9478095Y11258647D02*
G01*
X9360413Y11258647D01*
X9290638Y11293534D01*
X9255752Y11363307D01*
X9255752Y11530177D01*
X9290638Y11599951D01*
X9360413Y11634837D01*
X9402857Y11634837D01*
X9478095Y11258647D01*
G37*
G36*
X10033530Y2142774D02*
G01*
X8711308Y2142774D01*
X8711308Y2894447D01*
X8826225Y2894447D01*
X8826225Y2856179D01*
X8853285Y2829119D01*
X8872419Y2825313D01*
X9670139Y2825313D01*
X9747561Y2786602D01*
X9783708Y2750456D01*
X9822419Y2673034D01*
X9822419Y2506165D01*
X9783708Y2428743D01*
X9747561Y2392597D01*
X9670139Y2353885D01*
X8872419Y2353885D01*
X8853285Y2350079D01*
X8826225Y2323019D01*
X8826225Y2284751D01*
X8853285Y2257691D01*
X8872419Y2253885D01*
X9681942Y2253885D01*
X9684398Y2254374D01*
X9685487Y2254011D01*
X9693214Y2256128D01*
X9701076Y2257691D01*
X9701887Y2258503D01*
X9704303Y2259164D01*
X9799540Y2306782D01*
X9805868Y2311694D01*
X9812535Y2316148D01*
X9860155Y2363767D01*
X9864609Y2370434D01*
X9869521Y2376762D01*
X9917140Y2472000D01*
X9917801Y2474416D01*
X9918613Y2475227D01*
X9920176Y2483089D01*
X9922293Y2490816D01*
X9921930Y2491905D01*
X9922419Y2494361D01*
X9922419Y2684837D01*
X9921930Y2687294D01*
X9922293Y2688382D01*
X9920176Y2696110D01*
X9918613Y2703971D01*
X9917801Y2704783D01*
X9917140Y2707198D01*
X9869521Y2802436D01*
X9864609Y2808765D01*
X9860155Y2815431D01*
X9812535Y2863050D01*
X9805868Y2867505D01*
X9799540Y2872416D01*
X9704303Y2920034D01*
X9701887Y2920696D01*
X9701076Y2921507D01*
X9693214Y2923071D01*
X9685487Y2925187D01*
X9684398Y2924825D01*
X9681942Y2925313D01*
X8872419Y2925313D01*
X8853285Y2921507D01*
X8826225Y2894447D01*
X8711308Y2894447D01*
X8711308Y3732456D01*
X8822419Y3732456D01*
X8822419Y3494361D01*
X8822907Y3491905D01*
X8822545Y3490816D01*
X8824661Y3483089D01*
X8826225Y3475227D01*
X8827036Y3474416D01*
X8827698Y3472000D01*
X8875316Y3376763D01*
X8880231Y3370430D01*
X8884683Y3363768D01*
X8932301Y3316149D01*
X8938967Y3311695D01*
X8945296Y3306783D01*
X9040534Y3259164D01*
X9042949Y3258503D01*
X9043761Y3257691D01*
X9051622Y3256128D01*
X9059350Y3254011D01*
X9060438Y3254374D01*
X9062895Y3253885D01*
X9158133Y3253885D01*
X9160589Y3254374D01*
X9161678Y3254011D01*
X9169405Y3256128D01*
X9177267Y3257691D01*
X9178078Y3258503D01*
X9180494Y3259164D01*
X9275731Y3306782D01*
X9282064Y3311698D01*
X9288726Y3316149D01*
X9336345Y3363767D01*
X9340799Y3370434D01*
X9345711Y3376762D01*
X9393330Y3472000D01*
X9394776Y3477282D01*
X9397116Y3482234D01*
X9443404Y3667386D01*
X9484939Y3750458D01*
X9521084Y3786602D01*
X9598508Y3825313D01*
X9670139Y3825313D01*
X9747561Y3786602D01*
X9783708Y3750456D01*
X9822419Y3673034D01*
X9822419Y3454855D01*
X9777366Y3319696D01*
X9774926Y3300341D01*
X9792040Y3266112D01*
X9828344Y3254011D01*
X9862573Y3271125D01*
X9872234Y3288074D01*
X9919853Y3430930D01*
X9920855Y3438881D01*
X9922419Y3446742D01*
X9922419Y3684837D01*
X9921930Y3687294D01*
X9922293Y3688382D01*
X9920176Y3696110D01*
X9918613Y3703971D01*
X9917801Y3704783D01*
X9917140Y3707198D01*
X9869521Y3802436D01*
X9864609Y3808765D01*
X9860155Y3815431D01*
X9812535Y3863050D01*
X9805868Y3867505D01*
X9799540Y3872416D01*
X9704303Y3920034D01*
X9701887Y3920696D01*
X9701076Y3921507D01*
X9693214Y3923071D01*
X9685487Y3925187D01*
X9684398Y3924825D01*
X9681942Y3925313D01*
X9586704Y3925313D01*
X9584247Y3924825D01*
X9583159Y3925187D01*
X9575431Y3923071D01*
X9567570Y3921507D01*
X9566758Y3920696D01*
X9564343Y3920034D01*
X9469105Y3872415D01*
X9462776Y3867504D01*
X9456110Y3863049D01*
X9408492Y3815430D01*
X9404040Y3808769D01*
X9399125Y3802435D01*
X9351507Y3707198D01*
X9350060Y3701917D01*
X9347721Y3696964D01*
X9301433Y3511814D01*
X9259897Y3428742D01*
X9223753Y3392597D01*
X9146330Y3353885D01*
X9074699Y3353885D01*
X8997275Y3392597D01*
X8961130Y3428741D01*
X8922419Y3506164D01*
X8922419Y3724343D01*
X8967472Y3859501D01*
X8969912Y3878857D01*
X8952798Y3913085D01*
X8916494Y3925187D01*
X8882265Y3908072D01*
X8872604Y3891124D01*
X8824985Y3748267D01*
X8823982Y3740319D01*
X8822419Y3732456D01*
X8711308Y3732456D01*
X8711308Y4637218D01*
X8822419Y4637218D01*
X8822419Y4303885D01*
X8826225Y4284751D01*
X8853285Y4257691D01*
X8872419Y4253885D01*
X9872419Y4253885D01*
X9891553Y4257691D01*
X9918613Y4284751D01*
X9922419Y4303885D01*
X9922419Y4684837D01*
X9921930Y4687294D01*
X9922293Y4688382D01*
X9920176Y4696110D01*
X9918613Y4703971D01*
X9917801Y4704783D01*
X9917140Y4707198D01*
X9869521Y4802436D01*
X9864609Y4808765D01*
X9860155Y4815431D01*
X9812535Y4863050D01*
X9805868Y4867505D01*
X9799540Y4872416D01*
X9704303Y4920034D01*
X9701887Y4920696D01*
X9701076Y4921507D01*
X9693214Y4923071D01*
X9685487Y4925187D01*
X9684398Y4924825D01*
X9681942Y4925313D01*
X9539085Y4925313D01*
X9536628Y4924825D01*
X9535540Y4925187D01*
X9527812Y4923071D01*
X9519951Y4921507D01*
X9519139Y4920696D01*
X9516724Y4920034D01*
X9421486Y4872415D01*
X9415157Y4867504D01*
X9408491Y4863049D01*
X9360873Y4815430D01*
X9359481Y4813348D01*
X9358455Y4812834D01*
X9354487Y4805874D01*
X9350034Y4799209D01*
X9350034Y4798062D01*
X9348794Y4795886D01*
X9338407Y4764726D01*
X9336345Y4767812D01*
X9288726Y4815430D01*
X9282064Y4819882D01*
X9275731Y4824797D01*
X9180494Y4872415D01*
X9178078Y4873077D01*
X9177267Y4873888D01*
X9169405Y4875452D01*
X9161678Y4877568D01*
X9160589Y4877206D01*
X9158133Y4877694D01*
X9062895Y4877694D01*
X9060438Y4877206D01*
X9059350Y4877568D01*
X9051622Y4875452D01*
X9043761Y4873888D01*
X9042949Y4873077D01*
X9040534Y4872415D01*
X8945296Y4824796D01*
X8938967Y4819885D01*
X8932301Y4815430D01*
X8884683Y4767811D01*
X8880231Y4761150D01*
X8875316Y4754816D01*
X8827698Y4659579D01*
X8827036Y4657164D01*
X8826225Y4656352D01*
X8824661Y4648491D01*
X8822545Y4640763D01*
X8822907Y4639675D01*
X8822419Y4637218D01*
X8711308Y4637218D01*
X8711308Y6065789D01*
X9441466Y6065789D01*
X9441466Y5303885D01*
X9445272Y5284751D01*
X9472332Y5257691D01*
X9510600Y5257691D01*
X9537660Y5284751D01*
X9541466Y5303885D01*
X9541466Y6065789D01*
X9537660Y6084923D01*
X9510600Y6111983D01*
X9472332Y6111983D01*
X9445272Y6084923D01*
X9441466Y6065789D01*
X8711308Y6065789D01*
X8711308Y6922932D01*
X8822419Y6922932D01*
X8822419Y6827694D01*
X8823982Y6819832D01*
X8824985Y6811883D01*
X8872604Y6669026D01*
X8873844Y6666851D01*
X8873844Y6665703D01*
X8878297Y6659039D01*
X8882265Y6652078D01*
X8883291Y6651565D01*
X8884683Y6649482D01*
X8979921Y6554244D01*
X8986580Y6549794D01*
X8992915Y6544878D01*
X9088153Y6497259D01*
X9093434Y6495813D01*
X9098387Y6493473D01*
X9288863Y6445854D01*
X9294980Y6445557D01*
X9300990Y6444361D01*
X9443847Y6444361D01*
X9449856Y6445557D01*
X9455974Y6445854D01*
X9646450Y6493473D01*
X9651402Y6495813D01*
X9656684Y6497259D01*
X9751921Y6544877D01*
X9758249Y6549789D01*
X9764916Y6554243D01*
X9860155Y6649482D01*
X9861545Y6651564D01*
X9862573Y6652077D01*
X9866543Y6659043D01*
X9870994Y6665703D01*
X9870994Y6666851D01*
X9872234Y6669026D01*
X9919853Y6811882D01*
X9920855Y6819833D01*
X9922419Y6827694D01*
X9922419Y6922932D01*
X9920855Y6930794D01*
X9919853Y6938744D01*
X9872234Y7081600D01*
X9870994Y7083776D01*
X9870994Y7084924D01*
X9866539Y7091591D01*
X9862573Y7098549D01*
X9861546Y7099063D01*
X9860155Y7101145D01*
X9812535Y7148764D01*
X9796314Y7159602D01*
X9758045Y7159602D01*
X9730986Y7132542D01*
X9730986Y7094273D01*
X9741825Y7078052D01*
X9781099Y7038779D01*
X9822419Y6914819D01*
X9822419Y6835807D01*
X9781099Y6711848D01*
X9699942Y6630692D01*
X9616872Y6589156D01*
X9437692Y6544361D01*
X9307145Y6544361D01*
X9127966Y6589156D01*
X9044892Y6630693D01*
X8963739Y6711846D01*
X8922419Y6835808D01*
X8922419Y6914819D01*
X8963739Y7038781D01*
X9003012Y7078052D01*
X9013851Y7094273D01*
X9013851Y7132542D01*
X8986791Y7159602D01*
X8948522Y7159602D01*
X8932301Y7148763D01*
X8884683Y7101144D01*
X8883291Y7099062D01*
X8882265Y7098548D01*
X8878297Y7091588D01*
X8873844Y7084923D01*
X8873844Y7083776D01*
X8872604Y7081600D01*
X8824985Y6938743D01*
X8823982Y6930795D01*
X8822419Y6922932D01*
X8711308Y6922932D01*
X8711308Y8684837D01*
X8822419Y8684837D01*
X8822419Y8303885D01*
X8826225Y8284751D01*
X8853285Y8257691D01*
X8872419Y8253885D01*
X9872419Y8253885D01*
X9891553Y8257691D01*
X9918613Y8284751D01*
X9918613Y8323019D01*
X9891553Y8350079D01*
X9872419Y8353885D01*
X9446228Y8353885D01*
X9446228Y8684837D01*
X9445739Y8687294D01*
X9446102Y8688382D01*
X9443985Y8696110D01*
X9442422Y8703971D01*
X9441610Y8704783D01*
X9440949Y8707198D01*
X9393330Y8802436D01*
X9388418Y8808765D01*
X9383964Y8815431D01*
X9336345Y8863049D01*
X9329683Y8867501D01*
X9323350Y8872416D01*
X9228113Y8920034D01*
X9225697Y8920696D01*
X9224886Y8921507D01*
X9217024Y8923071D01*
X9209297Y8925187D01*
X9208208Y8924825D01*
X9205752Y8925313D01*
X9062895Y8925313D01*
X9060438Y8924825D01*
X9059350Y8925187D01*
X9051622Y8923071D01*
X9043761Y8921507D01*
X9042949Y8920696D01*
X9040534Y8920034D01*
X8945296Y8872415D01*
X8938967Y8867504D01*
X8932301Y8863049D01*
X8884683Y8815430D01*
X8880231Y8808769D01*
X8875316Y8802435D01*
X8827698Y8707198D01*
X8827036Y8704783D01*
X8826225Y8703971D01*
X8824661Y8696110D01*
X8822545Y8688382D01*
X8822907Y8687294D01*
X8822419Y8684837D01*
X8711308Y8684837D01*
X8711308Y9589599D01*
X9155752Y9589599D01*
X9155752Y9446742D01*
X9156240Y9444286D01*
X9155878Y9443197D01*
X9157994Y9435470D01*
X9159558Y9427608D01*
X9160369Y9426797D01*
X9161031Y9424381D01*
X9208649Y9329144D01*
X9213564Y9322811D01*
X9218016Y9316149D01*
X9265634Y9268530D01*
X9272300Y9264076D01*
X9278629Y9259164D01*
X9373867Y9211545D01*
X9376282Y9210884D01*
X9377094Y9210072D01*
X9384955Y9208509D01*
X9392683Y9206392D01*
X9393771Y9206755D01*
X9396228Y9206266D01*
X9681942Y9206266D01*
X9684398Y9206755D01*
X9685487Y9206392D01*
X9693214Y9208509D01*
X9701076Y9210072D01*
X9701887Y9210884D01*
X9704303Y9211545D01*
X9799540Y9259163D01*
X9805868Y9264075D01*
X9812535Y9268529D01*
X9860155Y9316148D01*
X9864609Y9322815D01*
X9869521Y9329143D01*
X9917140Y9424381D01*
X9917801Y9426797D01*
X9918613Y9427608D01*
X9920176Y9435470D01*
X9922293Y9443197D01*
X9921930Y9444286D01*
X9922419Y9446742D01*
X9922419Y9589599D01*
X9921930Y9592056D01*
X9922293Y9593144D01*
X9920176Y9600872D01*
X9918613Y9608733D01*
X9917801Y9609545D01*
X9917140Y9611960D01*
X9869521Y9707198D01*
X9864609Y9713527D01*
X9860155Y9720193D01*
X9812535Y9767812D01*
X9805868Y9772267D01*
X9799540Y9777178D01*
X9704303Y9824796D01*
X9701887Y9825458D01*
X9701076Y9826269D01*
X9693214Y9827833D01*
X9685487Y9829949D01*
X9684398Y9829587D01*
X9681942Y9830075D01*
X9396228Y9830075D01*
X9393771Y9829587D01*
X9392683Y9829949D01*
X9384955Y9827833D01*
X9377094Y9826269D01*
X9376282Y9825458D01*
X9373867Y9824796D01*
X9278629Y9777177D01*
X9272300Y9772266D01*
X9265634Y9767811D01*
X9218016Y9720192D01*
X9213564Y9713531D01*
X9208649Y9707197D01*
X9161031Y9611960D01*
X9160369Y9609545D01*
X9159558Y9608733D01*
X9157994Y9600872D01*
X9155878Y9593144D01*
X9156240Y9592056D01*
X9155752Y9589599D01*
X8711308Y9589599D01*
X8711308Y10869606D01*
X9156079Y10869606D01*
X9174664Y10836153D01*
X9192016Y10827237D01*
X9718050Y10676942D01*
X9377658Y10540785D01*
X9361307Y10530145D01*
X9361048Y10529541D01*
X9360444Y10529282D01*
X9353540Y10512022D01*
X9346232Y10494970D01*
X9346475Y10494361D01*
X9346232Y10493752D01*
X9353540Y10476700D01*
X9360444Y10459440D01*
X9361048Y10459182D01*
X9361307Y10458577D01*
X9377658Y10447937D01*
X9718050Y10311781D01*
X9192016Y10161485D01*
X9174664Y10152569D01*
X9156079Y10119116D01*
X9166592Y10082321D01*
X9200045Y10063736D01*
X9219488Y10065333D01*
X9886155Y10255809D01*
X9903507Y10264725D01*
X9905130Y10267648D01*
X9908203Y10268964D01*
X9914222Y10284013D01*
X9922092Y10298178D01*
X9921173Y10301392D01*
X9922415Y10304495D01*
X9916031Y10319390D01*
X9911579Y10334973D01*
X9908656Y10336597D01*
X9907340Y10339669D01*
X9890988Y10350309D01*
X9530858Y10494361D01*
X9890988Y10638413D01*
X9907340Y10649053D01*
X9908656Y10652126D01*
X9911579Y10653749D01*
X9916031Y10669333D01*
X9922415Y10684227D01*
X9921173Y10687331D01*
X9922092Y10690544D01*
X9914222Y10704710D01*
X9908203Y10719758D01*
X9905130Y10721075D01*
X9903507Y10723997D01*
X9886155Y10732913D01*
X9219488Y10923389D01*
X9200045Y10924986D01*
X9166592Y10906401D01*
X9156079Y10869606D01*
X8711308Y10869606D01*
X8711308Y11541980D01*
X9155752Y11541980D01*
X9155752Y11351504D01*
X9156240Y11349048D01*
X9155878Y11347959D01*
X9157994Y11340232D01*
X9159558Y11332370D01*
X9160369Y11331559D01*
X9161031Y11329143D01*
X9208649Y11233906D01*
X9214752Y11226042D01*
X9215598Y11223506D01*
X9218421Y11221315D01*
X9220611Y11218494D01*
X9223144Y11217650D01*
X9231010Y11211545D01*
X9326248Y11163926D01*
X9328663Y11163265D01*
X9329475Y11162453D01*
X9337336Y11160890D01*
X9345064Y11158773D01*
X9346152Y11159136D01*
X9348609Y11158647D01*
X9729561Y11158647D01*
X9732017Y11159136D01*
X9733105Y11158773D01*
X9740829Y11160889D01*
X9748695Y11162453D01*
X9749506Y11163265D01*
X9751921Y11163926D01*
X9847160Y11211544D01*
X9855024Y11217648D01*
X9857560Y11218493D01*
X9859751Y11221317D01*
X9862572Y11223506D01*
X9863416Y11226040D01*
X9869521Y11233905D01*
X9917140Y11329143D01*
X9917801Y11331559D01*
X9918613Y11332370D01*
X9920176Y11340232D01*
X9922293Y11347959D01*
X9921930Y11349048D01*
X9922419Y11351504D01*
X9922419Y11541980D01*
X9921930Y11544437D01*
X9922293Y11545525D01*
X9920176Y11553253D01*
X9918613Y11561114D01*
X9917801Y11561926D01*
X9917140Y11564341D01*
X9869521Y11659579D01*
X9857560Y11674991D01*
X9821255Y11687092D01*
X9787027Y11669978D01*
X9774926Y11633673D01*
X9780079Y11614857D01*
X9822419Y11530177D01*
X9822419Y11363308D01*
X9787532Y11293534D01*
X9717759Y11258647D01*
X9580075Y11258647D01*
X9492876Y11694643D01*
X9490041Y11701467D01*
X9490041Y11703971D01*
X9488261Y11705751D01*
X9485391Y11712659D01*
X9473277Y11720735D01*
X9462981Y11731031D01*
X9455643Y11732491D01*
X9453550Y11733886D01*
X9451095Y11733396D01*
X9443847Y11734837D01*
X9348609Y11734837D01*
X9346152Y11734349D01*
X9345064Y11734711D01*
X9337336Y11732595D01*
X9329475Y11731031D01*
X9328663Y11730220D01*
X9326248Y11729558D01*
X9231010Y11681939D01*
X9223144Y11675835D01*
X9220611Y11674990D01*
X9218421Y11672170D01*
X9215598Y11669978D01*
X9214752Y11667443D01*
X9208649Y11659578D01*
X9161031Y11564341D01*
X9160369Y11561926D01*
X9159558Y11561114D01*
X9157994Y11553253D01*
X9155878Y11545525D01*
X9156240Y11544437D01*
X9155752Y11541980D01*
X8711308Y11541980D01*
X8711308Y12399123D01*
X9155752Y12399123D01*
X9155752Y12303885D01*
X9156240Y12301429D01*
X9155878Y12300340D01*
X9157994Y12292613D01*
X9159558Y12284751D01*
X9160369Y12283940D01*
X9161031Y12281524D01*
X9208649Y12186287D01*
X9213564Y12179954D01*
X9218016Y12173292D01*
X9227899Y12163409D01*
X9205752Y12163409D01*
X9186618Y12159603D01*
X9159558Y12132543D01*
X9159558Y12094275D01*
X9186618Y12067215D01*
X9205752Y12063409D01*
X9872419Y12063409D01*
X9891553Y12067215D01*
X9918613Y12094275D01*
X9918613Y12132543D01*
X9891553Y12159603D01*
X9872419Y12163409D01*
X9408032Y12163409D01*
X9330608Y12202121D01*
X9294463Y12238265D01*
X9255752Y12315688D01*
X9255752Y12399123D01*
X9251946Y12418257D01*
X9224886Y12445317D01*
X9186618Y12445317D01*
X9159558Y12418257D01*
X9155752Y12399123D01*
X8711308Y12399123D01*
X8711308Y12556428D01*
X10033530Y12556428D01*
X10033530Y2142774D01*
G37*
D10*
X73407200Y33289161D02*
X73454819Y33432018D01*
X73454819Y33432018D02*
X73454819Y33670113D01*
X73454819Y33670113D02*
X73407200Y33765351D01*
X73407200Y33765351D02*
X73359580Y33812970D01*
X73359580Y33812970D02*
X73264342Y33860589D01*
X73264342Y33860589D02*
X73169104Y33860589D01*
X73169104Y33860589D02*
X73073866Y33812970D01*
X73073866Y33812970D02*
X73026247Y33765351D01*
X73026247Y33765351D02*
X72978628Y33670113D01*
X72978628Y33670113D02*
X72931009Y33479637D01*
X72931009Y33479637D02*
X72883390Y33384399D01*
X72883390Y33384399D02*
X72835771Y33336780D01*
X72835771Y33336780D02*
X72740533Y33289161D01*
X72740533Y33289161D02*
X72645295Y33289161D01*
X72645295Y33289161D02*
X72550057Y33336780D01*
X72550057Y33336780D02*
X72502438Y33384399D01*
X72502438Y33384399D02*
X72454819Y33479637D01*
X72454819Y33479637D02*
X72454819Y33717732D01*
X72454819Y33717732D02*
X72502438Y33860589D01*
X73359580Y34860589D02*
X73407200Y34812970D01*
X73407200Y34812970D02*
X73454819Y34670113D01*
X73454819Y34670113D02*
X73454819Y34574875D01*
X73454819Y34574875D02*
X73407200Y34432018D01*
X73407200Y34432018D02*
X73311961Y34336780D01*
X73311961Y34336780D02*
X73216723Y34289161D01*
X73216723Y34289161D02*
X73026247Y34241542D01*
X73026247Y34241542D02*
X72883390Y34241542D01*
X72883390Y34241542D02*
X72692914Y34289161D01*
X72692914Y34289161D02*
X72597676Y34336780D01*
X72597676Y34336780D02*
X72502438Y34432018D01*
X72502438Y34432018D02*
X72454819Y34574875D01*
X72454819Y34574875D02*
X72454819Y34670113D01*
X72454819Y34670113D02*
X72502438Y34812970D01*
X72502438Y34812970D02*
X72550057Y34860589D01*
X73454819Y35289161D02*
X72454819Y35289161D01*
X73454819Y35860589D02*
X72883390Y35432018D01*
X72454819Y35860589D02*
X73026247Y35289161D01*
X64502438Y33860589D02*
X64454819Y33765351D01*
X64454819Y33765351D02*
X64454819Y33622494D01*
X64454819Y33622494D02*
X64502438Y33479637D01*
X64502438Y33479637D02*
X64597676Y33384399D01*
X64597676Y33384399D02*
X64692914Y33336780D01*
X64692914Y33336780D02*
X64883390Y33289161D01*
X64883390Y33289161D02*
X65026247Y33289161D01*
X65026247Y33289161D02*
X65216723Y33336780D01*
X65216723Y33336780D02*
X65311961Y33384399D01*
X65311961Y33384399D02*
X65407200Y33479637D01*
X65407200Y33479637D02*
X65454819Y33622494D01*
X65454819Y33622494D02*
X65454819Y33717732D01*
X65454819Y33717732D02*
X65407200Y33860589D01*
X65407200Y33860589D02*
X65359580Y33908208D01*
X65359580Y33908208D02*
X65026247Y33908208D01*
X65026247Y33908208D02*
X65026247Y33717732D01*
X65454819Y34336780D02*
X64454819Y34336780D01*
X64454819Y34336780D02*
X65454819Y34908208D01*
X65454819Y34908208D02*
X64454819Y34908208D01*
X65454819Y35384399D02*
X64454819Y35384399D01*
X64454819Y35384399D02*
X64454819Y35622494D01*
X64454819Y35622494D02*
X64502438Y35765351D01*
X64502438Y35765351D02*
X64597676Y35860589D01*
X64597676Y35860589D02*
X64692914Y35908208D01*
X64692914Y35908208D02*
X64883390Y35955827D01*
X64883390Y35955827D02*
X65026247Y35955827D01*
X65026247Y35955827D02*
X65216723Y35908208D01*
X65216723Y35908208D02*
X65311961Y35860589D01*
X65311961Y35860589D02*
X65407200Y35765351D01*
X65407200Y35765351D02*
X65454819Y35622494D01*
X65454819Y35622494D02*
X65454819Y35384399D01*
X75454819Y33908208D02*
X74978628Y33574875D01*
X75454819Y33336780D02*
X74454819Y33336780D01*
X74454819Y33336780D02*
X74454819Y33717732D01*
X74454819Y33717732D02*
X74502438Y33812970D01*
X74502438Y33812970D02*
X74550057Y33860589D01*
X74550057Y33860589D02*
X74645295Y33908208D01*
X74645295Y33908208D02*
X74788152Y33908208D01*
X74788152Y33908208D02*
X74883390Y33860589D01*
X74883390Y33860589D02*
X74931009Y33812970D01*
X74931009Y33812970D02*
X74978628Y33717732D01*
X74978628Y33717732D02*
X74978628Y33336780D01*
X74931009Y34670113D02*
X74931009Y34336780D01*
X75454819Y34336780D02*
X74454819Y34336780D01*
X74454819Y34336780D02*
X74454819Y34812970D01*
X75550057Y34955827D02*
X75550057Y35717732D01*
X74931009Y35955828D02*
X74931009Y36289161D01*
X75454819Y36432018D02*
X75454819Y35955828D01*
X75454819Y35955828D02*
X74454819Y35955828D01*
X74454819Y35955828D02*
X74454819Y36432018D01*
X75454819Y36860590D02*
X74454819Y36860590D01*
X74454819Y36860590D02*
X75454819Y37432018D01*
X75454819Y37432018D02*
X74454819Y37432018D01*
X75454819Y9663222D02*
X74454819Y9663222D01*
X74454819Y9663222D02*
X74454819Y9901317D01*
X74454819Y9901317D02*
X74502438Y10044174D01*
X74502438Y10044174D02*
X74597676Y10139412D01*
X74597676Y10139412D02*
X74692914Y10187031D01*
X74692914Y10187031D02*
X74883390Y10234650D01*
X74883390Y10234650D02*
X75026247Y10234650D01*
X75026247Y10234650D02*
X75216723Y10187031D01*
X75216723Y10187031D02*
X75311961Y10139412D01*
X75311961Y10139412D02*
X75407200Y10044174D01*
X75407200Y10044174D02*
X75454819Y9901317D01*
X75454819Y9901317D02*
X75454819Y9663222D01*
X75454819Y10663222D02*
X74454819Y10663222D01*
X74454819Y11329888D02*
X74454819Y11520364D01*
X74454819Y11520364D02*
X74502438Y11615602D01*
X74502438Y11615602D02*
X74597676Y11710840D01*
X74597676Y11710840D02*
X74788152Y11758459D01*
X74788152Y11758459D02*
X75121485Y11758459D01*
X75121485Y11758459D02*
X75311961Y11710840D01*
X75311961Y11710840D02*
X75407200Y11615602D01*
X75407200Y11615602D02*
X75454819Y11520364D01*
X75454819Y11520364D02*
X75454819Y11329888D01*
X75454819Y11329888D02*
X75407200Y11234650D01*
X75407200Y11234650D02*
X75311961Y11139412D01*
X75311961Y11139412D02*
X75121485Y11091793D01*
X75121485Y11091793D02*
X74788152Y11091793D01*
X74788152Y11091793D02*
X74597676Y11139412D01*
X74597676Y11139412D02*
X74502438Y11234650D01*
X74502438Y11234650D02*
X74454819Y11329888D01*
X75454819Y12710840D02*
X75454819Y12139412D01*
X75454819Y12425126D02*
X74454819Y12425126D01*
X74454819Y12425126D02*
X74597676Y12329888D01*
X74597676Y12329888D02*
X74692914Y12234650D01*
X74692914Y12234650D02*
X74740533Y12139412D01*
X68454819Y10282269D02*
X68454819Y10901316D01*
X68454819Y10901316D02*
X68835771Y10567983D01*
X68835771Y10567983D02*
X68835771Y10710840D01*
X68835771Y10710840D02*
X68883390Y10806078D01*
X68883390Y10806078D02*
X68931009Y10853697D01*
X68931009Y10853697D02*
X69026247Y10901316D01*
X69026247Y10901316D02*
X69264342Y10901316D01*
X69264342Y10901316D02*
X69359580Y10853697D01*
X69359580Y10853697D02*
X69407200Y10806078D01*
X69407200Y10806078D02*
X69454819Y10710840D01*
X69454819Y10710840D02*
X69454819Y10425126D01*
X69454819Y10425126D02*
X69407200Y10329888D01*
X69407200Y10329888D02*
X69359580Y10282269D01*
X68454819Y11187031D02*
X69454819Y11520364D01*
X69454819Y11520364D02*
X68454819Y11853697D01*
X68454819Y12091793D02*
X68454819Y12710840D01*
X68454819Y12710840D02*
X68835771Y12377507D01*
X68835771Y12377507D02*
X68835771Y12520364D01*
X68835771Y12520364D02*
X68883390Y12615602D01*
X68883390Y12615602D02*
X68931009Y12663221D01*
X68931009Y12663221D02*
X69026247Y12710840D01*
X69026247Y12710840D02*
X69264342Y12710840D01*
X69264342Y12710840D02*
X69359580Y12663221D01*
X69359580Y12663221D02*
X69407200Y12615602D01*
X69407200Y12615602D02*
X69454819Y12520364D01*
X69454819Y12520364D02*
X69454819Y12234650D01*
X69454819Y12234650D02*
X69407200Y12139412D01*
X69407200Y12139412D02*
X69359580Y12091793D01*
X71454819Y9187030D02*
X70978628Y8853697D01*
X71454819Y8615602D02*
X70454819Y8615602D01*
X70454819Y8615602D02*
X70454819Y8996554D01*
X70454819Y8996554D02*
X70502438Y9091792D01*
X70502438Y9091792D02*
X70550057Y9139411D01*
X70550057Y9139411D02*
X70645295Y9187030D01*
X70645295Y9187030D02*
X70788152Y9187030D01*
X70788152Y9187030D02*
X70883390Y9139411D01*
X70883390Y9139411D02*
X70931009Y9091792D01*
X70931009Y9091792D02*
X70978628Y8996554D01*
X70978628Y8996554D02*
X70978628Y8615602D01*
X70931009Y9615602D02*
X70931009Y9948935D01*
X71454819Y10091792D02*
X71454819Y9615602D01*
X71454819Y9615602D02*
X70454819Y9615602D01*
X70454819Y9615602D02*
X70454819Y10091792D01*
X71407200Y10472745D02*
X71454819Y10615602D01*
X71454819Y10615602D02*
X71454819Y10853697D01*
X71454819Y10853697D02*
X71407200Y10948935D01*
X71407200Y10948935D02*
X71359580Y10996554D01*
X71359580Y10996554D02*
X71264342Y11044173D01*
X71264342Y11044173D02*
X71169104Y11044173D01*
X71169104Y11044173D02*
X71073866Y10996554D01*
X71073866Y10996554D02*
X71026247Y10948935D01*
X71026247Y10948935D02*
X70978628Y10853697D01*
X70978628Y10853697D02*
X70931009Y10663221D01*
X70931009Y10663221D02*
X70883390Y10567983D01*
X70883390Y10567983D02*
X70835771Y10520364D01*
X70835771Y10520364D02*
X70740533Y10472745D01*
X70740533Y10472745D02*
X70645295Y10472745D01*
X70645295Y10472745D02*
X70550057Y10520364D01*
X70550057Y10520364D02*
X70502438Y10567983D01*
X70502438Y10567983D02*
X70454819Y10663221D01*
X70454819Y10663221D02*
X70454819Y10901316D01*
X70454819Y10901316D02*
X70502438Y11044173D01*
X70931009Y11472745D02*
X70931009Y11806078D01*
X71454819Y11948935D02*
X71454819Y11472745D01*
X71454819Y11472745D02*
X70454819Y11472745D01*
X70454819Y11472745D02*
X70454819Y11948935D01*
X70454819Y12234650D02*
X70454819Y12806078D01*
X71454819Y12520364D02*
X70454819Y12520364D01*
D11*
G36*
X37223753Y2738983D02*
G01*
X37259897Y2702838D01*
X37298609Y2625415D01*
X37298609Y2353885D01*
X36922419Y2353885D01*
X36922419Y2625415D01*
X36961130Y2702839D01*
X36997275Y2738983D01*
X37074699Y2777694D01*
X37146330Y2777694D01*
X37223753Y2738983D01*
G37*
G36*
X37747561Y2786602D02*
G01*
X37783708Y2750456D01*
X37822419Y2673034D01*
X37822419Y2353885D01*
X37398609Y2353885D01*
X37398609Y2629105D01*
X37439929Y2753067D01*
X37473465Y2786602D01*
X37550889Y2825313D01*
X37670139Y2825313D01*
X37747561Y2786602D01*
G37*
G36*
X37271372Y7643745D02*
G01*
X37307516Y7607600D01*
X37346228Y7530177D01*
X37346228Y7211028D01*
X36922419Y7211028D01*
X36922419Y7530177D01*
X36961130Y7607601D01*
X36997275Y7643745D01*
X37074699Y7682456D01*
X37193949Y7682456D01*
X37271372Y7643745D01*
G37*
G36*
X38033530Y2142774D02*
G01*
X36711308Y2142774D01*
X36711308Y2637218D01*
X36822419Y2637218D01*
X36822419Y2303885D01*
X36826225Y2284751D01*
X36853285Y2257691D01*
X36872419Y2253885D01*
X37872419Y2253885D01*
X37891553Y2257691D01*
X37918613Y2284751D01*
X37922419Y2303885D01*
X37922419Y2684837D01*
X37921930Y2687294D01*
X37922293Y2688382D01*
X37920176Y2696110D01*
X37918613Y2703971D01*
X37917801Y2704783D01*
X37917140Y2707198D01*
X37869521Y2802436D01*
X37864609Y2808765D01*
X37860155Y2815431D01*
X37812535Y2863050D01*
X37805868Y2867505D01*
X37799540Y2872416D01*
X37704303Y2920034D01*
X37701887Y2920696D01*
X37701076Y2921507D01*
X37693214Y2923071D01*
X37685487Y2925187D01*
X37684398Y2924825D01*
X37681942Y2925313D01*
X37539085Y2925313D01*
X37536628Y2924825D01*
X37535540Y2925187D01*
X37527812Y2923071D01*
X37519951Y2921507D01*
X37519139Y2920696D01*
X37516724Y2920034D01*
X37421486Y2872415D01*
X37415157Y2867504D01*
X37408491Y2863049D01*
X37360873Y2815430D01*
X37359481Y2813348D01*
X37358455Y2812834D01*
X37354487Y2805874D01*
X37350034Y2799209D01*
X37350034Y2798062D01*
X37348794Y2795886D01*
X37338407Y2764726D01*
X37336345Y2767812D01*
X37288726Y2815430D01*
X37282064Y2819882D01*
X37275731Y2824797D01*
X37180494Y2872415D01*
X37178078Y2873077D01*
X37177267Y2873888D01*
X37169405Y2875452D01*
X37161678Y2877568D01*
X37160589Y2877206D01*
X37158133Y2877694D01*
X37062895Y2877694D01*
X37060438Y2877206D01*
X37059350Y2877568D01*
X37051622Y2875452D01*
X37043761Y2873888D01*
X37042949Y2873077D01*
X37040534Y2872415D01*
X36945296Y2824796D01*
X36938967Y2819885D01*
X36932301Y2815430D01*
X36884683Y2767811D01*
X36880231Y2761150D01*
X36875316Y2754816D01*
X36827698Y2659579D01*
X36827036Y2657164D01*
X36826225Y2656352D01*
X36824661Y2648491D01*
X36822545Y2640763D01*
X36822907Y2639675D01*
X36822419Y2637218D01*
X36711308Y2637218D01*
X36711308Y3894447D01*
X36826225Y3894447D01*
X36826225Y3856179D01*
X36853285Y3829119D01*
X36872419Y3825313D01*
X37670139Y3825313D01*
X37747561Y3786602D01*
X37783708Y3750456D01*
X37822419Y3673034D01*
X37822419Y3506165D01*
X37783708Y3428743D01*
X37747561Y3392597D01*
X37670139Y3353885D01*
X36872419Y3353885D01*
X36853285Y3350079D01*
X36826225Y3323019D01*
X36826225Y3284751D01*
X36853285Y3257691D01*
X36872419Y3253885D01*
X37681942Y3253885D01*
X37684398Y3254374D01*
X37685487Y3254011D01*
X37693214Y3256128D01*
X37701076Y3257691D01*
X37701887Y3258503D01*
X37704303Y3259164D01*
X37799540Y3306782D01*
X37805868Y3311694D01*
X37812535Y3316148D01*
X37860155Y3363767D01*
X37864609Y3370434D01*
X37869521Y3376762D01*
X37917140Y3472000D01*
X37917801Y3474416D01*
X37918613Y3475227D01*
X37920176Y3483089D01*
X37922293Y3490816D01*
X37921930Y3491905D01*
X37922419Y3494361D01*
X37922419Y3684837D01*
X37921930Y3687294D01*
X37922293Y3688382D01*
X37920176Y3696110D01*
X37918613Y3703971D01*
X37917801Y3704783D01*
X37917140Y3707198D01*
X37869521Y3802436D01*
X37864609Y3808765D01*
X37860155Y3815431D01*
X37812535Y3863050D01*
X37805868Y3867505D01*
X37799540Y3872416D01*
X37704303Y3920034D01*
X37701887Y3920696D01*
X37701076Y3921507D01*
X37693214Y3923071D01*
X37685487Y3925187D01*
X37684398Y3924825D01*
X37681942Y3925313D01*
X36872419Y3925313D01*
X36853285Y3921507D01*
X36826225Y3894447D01*
X36711308Y3894447D01*
X36711308Y4922932D01*
X36822419Y4922932D01*
X36822419Y4256266D01*
X36826225Y4237132D01*
X36853285Y4210072D01*
X36891553Y4210072D01*
X36918613Y4237132D01*
X36922419Y4256266D01*
X36922419Y4829506D01*
X37844684Y4214664D01*
X37851513Y4211844D01*
X37853285Y4210072D01*
X37855803Y4210072D01*
X37862716Y4207217D01*
X37876991Y4210072D01*
X37891553Y4210072D01*
X37895193Y4213713D01*
X37900241Y4214722D01*
X37908316Y4226836D01*
X37918613Y4237132D01*
X37920072Y4244470D01*
X37921468Y4246563D01*
X37920977Y4249018D01*
X37922419Y4256266D01*
X37922419Y4922932D01*
X37918613Y4942066D01*
X37891553Y4969126D01*
X37853285Y4969126D01*
X37826225Y4942066D01*
X37822419Y4922932D01*
X37822419Y4349693D01*
X36900154Y4964535D01*
X36893323Y4967356D01*
X36891553Y4969126D01*
X36889036Y4969126D01*
X36882122Y4971981D01*
X36867847Y4969126D01*
X36853285Y4969126D01*
X36849644Y4965486D01*
X36844597Y4964476D01*
X36836521Y4952363D01*
X36826225Y4942066D01*
X36824765Y4934729D01*
X36823370Y4932635D01*
X36823860Y4930181D01*
X36822419Y4922932D01*
X36711308Y4922932D01*
X36711308Y5875313D01*
X36822419Y5875313D01*
X36822419Y5208647D01*
X36826225Y5189513D01*
X36853285Y5162453D01*
X36891553Y5162453D01*
X36918613Y5189513D01*
X36922419Y5208647D01*
X36922419Y5781887D01*
X37844684Y5167045D01*
X37851513Y5164225D01*
X37853285Y5162453D01*
X37855803Y5162453D01*
X37862716Y5159598D01*
X37876991Y5162453D01*
X37891553Y5162453D01*
X37895193Y5166094D01*
X37900241Y5167103D01*
X37908316Y5179217D01*
X37918613Y5189513D01*
X37920072Y5196851D01*
X37921468Y5198944D01*
X37920977Y5201399D01*
X37922419Y5208647D01*
X37922419Y5875313D01*
X37918613Y5894447D01*
X37891553Y5921507D01*
X37853285Y5921507D01*
X37826225Y5894447D01*
X37822419Y5875313D01*
X37822419Y5302074D01*
X36900154Y5916916D01*
X36893323Y5919737D01*
X36891553Y5921507D01*
X36889036Y5921507D01*
X36882122Y5924362D01*
X36867847Y5921507D01*
X36853285Y5921507D01*
X36849644Y5917867D01*
X36844597Y5916857D01*
X36836521Y5904744D01*
X36826225Y5894447D01*
X36824765Y5887110D01*
X36823370Y5885016D01*
X36823860Y5882562D01*
X36822419Y5875313D01*
X36711308Y5875313D01*
X36711308Y6732456D01*
X36822419Y6732456D01*
X36822419Y6256266D01*
X36826225Y6237132D01*
X36853285Y6210072D01*
X36872419Y6206266D01*
X37872419Y6206266D01*
X37891553Y6210072D01*
X37918613Y6237132D01*
X37922419Y6256266D01*
X37922419Y6732456D01*
X37918613Y6751590D01*
X37891553Y6778650D01*
X37853285Y6778650D01*
X37826225Y6751590D01*
X37822419Y6732456D01*
X37822419Y6306266D01*
X37398609Y6306266D01*
X37398609Y6589599D01*
X37394803Y6608733D01*
X37367743Y6635793D01*
X37329475Y6635793D01*
X37302415Y6608733D01*
X37298609Y6589599D01*
X37298609Y6306266D01*
X36922419Y6306266D01*
X36922419Y6732456D01*
X36918613Y6751590D01*
X36891553Y6778650D01*
X36853285Y6778650D01*
X36826225Y6751590D01*
X36822419Y6732456D01*
X36711308Y6732456D01*
X36711308Y7541980D01*
X36822419Y7541980D01*
X36822419Y7161028D01*
X36826225Y7141894D01*
X36853285Y7114834D01*
X36872419Y7111028D01*
X37872419Y7111028D01*
X37891553Y7114834D01*
X37918613Y7141894D01*
X37918613Y7180162D01*
X37891553Y7207222D01*
X37872419Y7211028D01*
X37446228Y7211028D01*
X37446228Y7373090D01*
X37901092Y7691494D01*
X37914585Y7705585D01*
X37921235Y7743271D01*
X37899290Y7774622D01*
X37861604Y7781272D01*
X37843746Y7773418D01*
X37446228Y7495156D01*
X37446228Y7541980D01*
X37445739Y7544437D01*
X37446102Y7545525D01*
X37443985Y7553253D01*
X37442422Y7561114D01*
X37441610Y7561926D01*
X37440949Y7564341D01*
X37393330Y7659579D01*
X37388418Y7665908D01*
X37383964Y7672574D01*
X37336345Y7720192D01*
X37329683Y7724644D01*
X37323350Y7729559D01*
X37228113Y7777177D01*
X37225697Y7777839D01*
X37224886Y7778650D01*
X37217024Y7780214D01*
X37209297Y7782330D01*
X37208208Y7781968D01*
X37205752Y7782456D01*
X37062895Y7782456D01*
X37060438Y7781968D01*
X37059350Y7782330D01*
X37051622Y7780214D01*
X37043761Y7778650D01*
X37042949Y7777839D01*
X37040534Y7777177D01*
X36945296Y7729558D01*
X36938967Y7724647D01*
X36932301Y7720192D01*
X36884683Y7672573D01*
X36880231Y7665912D01*
X36875316Y7659578D01*
X36827698Y7564341D01*
X36827036Y7561926D01*
X36826225Y7561114D01*
X36824661Y7553253D01*
X36822545Y7545525D01*
X36822907Y7544437D01*
X36822419Y7541980D01*
X36711308Y7541980D01*
X36711308Y7893567D01*
X38033530Y7893567D01*
X38033530Y2142774D01*
G37*
D10*
X67454819Y33336780D02*
X66454819Y33336780D01*
X66454819Y33336780D02*
X67454819Y33908208D01*
X67454819Y33908208D02*
X66454819Y33908208D01*
X67407200Y34336780D02*
X67454819Y34479637D01*
X67454819Y34479637D02*
X67454819Y34717732D01*
X67454819Y34717732D02*
X67407200Y34812970D01*
X67407200Y34812970D02*
X67359580Y34860589D01*
X67359580Y34860589D02*
X67264342Y34908208D01*
X67264342Y34908208D02*
X67169104Y34908208D01*
X67169104Y34908208D02*
X67073866Y34860589D01*
X67073866Y34860589D02*
X67026247Y34812970D01*
X67026247Y34812970D02*
X66978628Y34717732D01*
X66978628Y34717732D02*
X66931009Y34527256D01*
X66931009Y34527256D02*
X66883390Y34432018D01*
X66883390Y34432018D02*
X66835771Y34384399D01*
X66835771Y34384399D02*
X66740533Y34336780D01*
X66740533Y34336780D02*
X66645295Y34336780D01*
X66645295Y34336780D02*
X66550057Y34384399D01*
X66550057Y34384399D02*
X66502438Y34432018D01*
X66502438Y34432018D02*
X66454819Y34527256D01*
X66454819Y34527256D02*
X66454819Y34765351D01*
X66454819Y34765351D02*
X66502438Y34908208D01*
X67407200Y35289161D02*
X67454819Y35432018D01*
X67454819Y35432018D02*
X67454819Y35670113D01*
X67454819Y35670113D02*
X67407200Y35765351D01*
X67407200Y35765351D02*
X67359580Y35812970D01*
X67359580Y35812970D02*
X67264342Y35860589D01*
X67264342Y35860589D02*
X67169104Y35860589D01*
X67169104Y35860589D02*
X67073866Y35812970D01*
X67073866Y35812970D02*
X67026247Y35765351D01*
X67026247Y35765351D02*
X66978628Y35670113D01*
X66978628Y35670113D02*
X66931009Y35479637D01*
X66931009Y35479637D02*
X66883390Y35384399D01*
X66883390Y35384399D02*
X66835771Y35336780D01*
X66835771Y35336780D02*
X66740533Y35289161D01*
X66740533Y35289161D02*
X66645295Y35289161D01*
X66645295Y35289161D02*
X66550057Y35336780D01*
X66550057Y35336780D02*
X66502438Y35384399D01*
X66502438Y35384399D02*
X66454819Y35479637D01*
X66454819Y35479637D02*
X66454819Y35717732D01*
X66454819Y35717732D02*
X66502438Y35860589D01*
X79454819Y9663222D02*
X78454819Y9663222D01*
X78454819Y9663222D02*
X78454819Y9901317D01*
X78454819Y9901317D02*
X78502438Y10044174D01*
X78502438Y10044174D02*
X78597676Y10139412D01*
X78597676Y10139412D02*
X78692914Y10187031D01*
X78692914Y10187031D02*
X78883390Y10234650D01*
X78883390Y10234650D02*
X79026247Y10234650D01*
X79026247Y10234650D02*
X79216723Y10187031D01*
X79216723Y10187031D02*
X79311961Y10139412D01*
X79311961Y10139412D02*
X79407200Y10044174D01*
X79407200Y10044174D02*
X79454819Y9901317D01*
X79454819Y9901317D02*
X79454819Y9663222D01*
X79454819Y10663222D02*
X78454819Y10663222D01*
X78454819Y11329888D02*
X78454819Y11520364D01*
X78454819Y11520364D02*
X78502438Y11615602D01*
X78502438Y11615602D02*
X78597676Y11710840D01*
X78597676Y11710840D02*
X78788152Y11758459D01*
X78788152Y11758459D02*
X79121485Y11758459D01*
X79121485Y11758459D02*
X79311961Y11710840D01*
X79311961Y11710840D02*
X79407200Y11615602D01*
X79407200Y11615602D02*
X79454819Y11520364D01*
X79454819Y11520364D02*
X79454819Y11329888D01*
X79454819Y11329888D02*
X79407200Y11234650D01*
X79407200Y11234650D02*
X79311961Y11139412D01*
X79311961Y11139412D02*
X79121485Y11091793D01*
X79121485Y11091793D02*
X78788152Y11091793D01*
X78788152Y11091793D02*
X78597676Y11139412D01*
X78597676Y11139412D02*
X78502438Y11234650D01*
X78502438Y11234650D02*
X78454819Y11329888D01*
X78454819Y12091793D02*
X78454819Y12710840D01*
X78454819Y12710840D02*
X78835771Y12377507D01*
X78835771Y12377507D02*
X78835771Y12520364D01*
X78835771Y12520364D02*
X78883390Y12615602D01*
X78883390Y12615602D02*
X78931009Y12663221D01*
X78931009Y12663221D02*
X79026247Y12710840D01*
X79026247Y12710840D02*
X79264342Y12710840D01*
X79264342Y12710840D02*
X79359580Y12663221D01*
X79359580Y12663221D02*
X79407200Y12615602D01*
X79407200Y12615602D02*
X79454819Y12520364D01*
X79454819Y12520364D02*
X79454819Y12234650D01*
X79454819Y12234650D02*
X79407200Y12139412D01*
X79407200Y12139412D02*
X79359580Y12091793D01*
X77454819Y9663222D02*
X76454819Y9663222D01*
X76454819Y9663222D02*
X76454819Y9901317D01*
X76454819Y9901317D02*
X76502438Y10044174D01*
X76502438Y10044174D02*
X76597676Y10139412D01*
X76597676Y10139412D02*
X76692914Y10187031D01*
X76692914Y10187031D02*
X76883390Y10234650D01*
X76883390Y10234650D02*
X77026247Y10234650D01*
X77026247Y10234650D02*
X77216723Y10187031D01*
X77216723Y10187031D02*
X77311961Y10139412D01*
X77311961Y10139412D02*
X77407200Y10044174D01*
X77407200Y10044174D02*
X77454819Y9901317D01*
X77454819Y9901317D02*
X77454819Y9663222D01*
X77454819Y10663222D02*
X76454819Y10663222D01*
X76454819Y11329888D02*
X76454819Y11520364D01*
X76454819Y11520364D02*
X76502438Y11615602D01*
X76502438Y11615602D02*
X76597676Y11710840D01*
X76597676Y11710840D02*
X76788152Y11758459D01*
X76788152Y11758459D02*
X77121485Y11758459D01*
X77121485Y11758459D02*
X77311961Y11710840D01*
X77311961Y11710840D02*
X77407200Y11615602D01*
X77407200Y11615602D02*
X77454819Y11520364D01*
X77454819Y11520364D02*
X77454819Y11329888D01*
X77454819Y11329888D02*
X77407200Y11234650D01*
X77407200Y11234650D02*
X77311961Y11139412D01*
X77311961Y11139412D02*
X77121485Y11091793D01*
X77121485Y11091793D02*
X76788152Y11091793D01*
X76788152Y11091793D02*
X76597676Y11139412D01*
X76597676Y11139412D02*
X76502438Y11234650D01*
X76502438Y11234650D02*
X76454819Y11329888D01*
X76550057Y12139412D02*
X76502438Y12187031D01*
X76502438Y12187031D02*
X76454819Y12282269D01*
X76454819Y12282269D02*
X76454819Y12520364D01*
X76454819Y12520364D02*
X76502438Y12615602D01*
X76502438Y12615602D02*
X76550057Y12663221D01*
X76550057Y12663221D02*
X76645295Y12710840D01*
X76645295Y12710840D02*
X76740533Y12710840D01*
X76740533Y12710840D02*
X76883390Y12663221D01*
X76883390Y12663221D02*
X77454819Y12091793D01*
X77454819Y12091793D02*
X77454819Y12710840D01*
X66502438Y10615602D02*
X66454819Y10520364D01*
X66454819Y10520364D02*
X66454819Y10377507D01*
X66454819Y10377507D02*
X66502438Y10234650D01*
X66502438Y10234650D02*
X66597676Y10139412D01*
X66597676Y10139412D02*
X66692914Y10091793D01*
X66692914Y10091793D02*
X66883390Y10044174D01*
X66883390Y10044174D02*
X67026247Y10044174D01*
X67026247Y10044174D02*
X67216723Y10091793D01*
X67216723Y10091793D02*
X67311961Y10139412D01*
X67311961Y10139412D02*
X67407200Y10234650D01*
X67407200Y10234650D02*
X67454819Y10377507D01*
X67454819Y10377507D02*
X67454819Y10472745D01*
X67454819Y10472745D02*
X67407200Y10615602D01*
X67407200Y10615602D02*
X67359580Y10663221D01*
X67359580Y10663221D02*
X67026247Y10663221D01*
X67026247Y10663221D02*
X67026247Y10472745D01*
X67454819Y11091793D02*
X66454819Y11091793D01*
X66454819Y11091793D02*
X67454819Y11663221D01*
X67454819Y11663221D02*
X66454819Y11663221D01*
X67454819Y12139412D02*
X66454819Y12139412D01*
X66454819Y12139412D02*
X66454819Y12377507D01*
X66454819Y12377507D02*
X66502438Y12520364D01*
X66502438Y12520364D02*
X66597676Y12615602D01*
X66597676Y12615602D02*
X66692914Y12663221D01*
X66692914Y12663221D02*
X66883390Y12710840D01*
X66883390Y12710840D02*
X67026247Y12710840D01*
X67026247Y12710840D02*
X67216723Y12663221D01*
X67216723Y12663221D02*
X67311961Y12615602D01*
X67311961Y12615602D02*
X67407200Y12520364D01*
X67407200Y12520364D02*
X67454819Y12377507D01*
X67454819Y12377507D02*
X67454819Y12139412D01*
D11*
G36*
X10616872Y27780518D02*
G01*
X10699942Y27738983D01*
X10781099Y27657827D01*
X10822419Y27533867D01*
X10822419Y27353885D01*
X9922419Y27353885D01*
X9922419Y27533867D01*
X9963739Y27657829D01*
X10044892Y27738982D01*
X10127966Y27780519D01*
X10307145Y27825313D01*
X10437692Y27825313D01*
X10616872Y27780518D01*
G37*
G36*
X10478095Y32306267D02*
G01*
X10360413Y32306267D01*
X10290638Y32341154D01*
X10255752Y32410927D01*
X10255752Y32577797D01*
X10290638Y32647571D01*
X10360413Y32682457D01*
X10402857Y32682457D01*
X10478095Y32306267D01*
G37*
G36*
X10747561Y35262794D02*
G01*
X10783708Y35226648D01*
X10822419Y35149226D01*
X10822419Y35029976D01*
X10783708Y34952554D01*
X10747561Y34916408D01*
X10670139Y34877696D01*
X10408032Y34877696D01*
X10330608Y34916408D01*
X10294463Y34952552D01*
X10255752Y35029975D01*
X10255752Y35149226D01*
X10294463Y35226650D01*
X10330608Y35262794D01*
X10408032Y35301505D01*
X10670139Y35301505D01*
X10747561Y35262794D01*
G37*
G36*
X11033530Y27142774D02*
G01*
X9711308Y27142774D01*
X9711308Y27541980D01*
X9822419Y27541980D01*
X9822419Y27303885D01*
X9826225Y27284751D01*
X9853285Y27257691D01*
X9872419Y27253885D01*
X10872419Y27253885D01*
X10891553Y27257691D01*
X10918613Y27284751D01*
X10922419Y27303885D01*
X10922419Y27541980D01*
X10920855Y27549842D01*
X10919853Y27557792D01*
X10872234Y27700648D01*
X10870994Y27702824D01*
X10870994Y27703971D01*
X10866543Y27710632D01*
X10862573Y27717597D01*
X10861545Y27718111D01*
X10860155Y27720192D01*
X10764916Y27815431D01*
X10758249Y27819886D01*
X10751921Y27824797D01*
X10656684Y27872415D01*
X10651402Y27873862D01*
X10646450Y27876201D01*
X10455974Y27923820D01*
X10449856Y27924118D01*
X10443847Y27925313D01*
X10300990Y27925313D01*
X10294980Y27924118D01*
X10288863Y27923820D01*
X10098387Y27876201D01*
X10093434Y27873862D01*
X10088153Y27872415D01*
X9992915Y27824796D01*
X9986580Y27819881D01*
X9979921Y27815430D01*
X9884683Y27720192D01*
X9883291Y27718110D01*
X9882265Y27717596D01*
X9878297Y27710636D01*
X9873844Y27703971D01*
X9873844Y27702824D01*
X9872604Y27700648D01*
X9824985Y27557791D01*
X9823982Y27549843D01*
X9822419Y27541980D01*
X9711308Y27541980D01*
X9711308Y28751590D01*
X10159558Y28751590D01*
X10159558Y28713322D01*
X10186618Y28686262D01*
X10205752Y28682456D01*
X10756469Y28682456D01*
X10783708Y28655218D01*
X10822419Y28577796D01*
X10822419Y28458546D01*
X10787532Y28388772D01*
X10717759Y28353885D01*
X10205752Y28353885D01*
X10186618Y28350079D01*
X10159558Y28323019D01*
X10159558Y28284751D01*
X10186618Y28257691D01*
X10205752Y28253885D01*
X10729561Y28253885D01*
X10732017Y28254374D01*
X10733105Y28254011D01*
X10740829Y28256127D01*
X10748695Y28257691D01*
X10749506Y28258503D01*
X10751921Y28259164D01*
X10847160Y28306782D01*
X10855024Y28312886D01*
X10857560Y28313731D01*
X10859751Y28316555D01*
X10862572Y28318744D01*
X10863416Y28321278D01*
X10869521Y28329143D01*
X10917140Y28424381D01*
X10917801Y28426797D01*
X10918613Y28427608D01*
X10920176Y28435470D01*
X10922293Y28443197D01*
X10921930Y28444286D01*
X10922419Y28446742D01*
X10922419Y28589599D01*
X10921930Y28592056D01*
X10922293Y28593144D01*
X10920176Y28600872D01*
X10918613Y28608733D01*
X10917801Y28609545D01*
X10917140Y28611960D01*
X10881035Y28684170D01*
X10891553Y28686262D01*
X10918613Y28713322D01*
X10918613Y28751590D01*
X10891553Y28778650D01*
X10872419Y28782456D01*
X10205752Y28782456D01*
X10186618Y28778650D01*
X10159558Y28751590D01*
X9711308Y28751590D01*
X9711308Y29446742D01*
X10155752Y29446742D01*
X10155752Y29303885D01*
X10156240Y29301429D01*
X10155878Y29300340D01*
X10157994Y29292613D01*
X10159558Y29284751D01*
X10160369Y29283940D01*
X10161031Y29281524D01*
X10208649Y29186287D01*
X10214752Y29178423D01*
X10215598Y29175887D01*
X10218421Y29173696D01*
X10220611Y29170875D01*
X10223144Y29170031D01*
X10231010Y29163926D01*
X10326248Y29116307D01*
X10328663Y29115646D01*
X10329475Y29114834D01*
X10337336Y29113271D01*
X10345064Y29111154D01*
X10346152Y29111517D01*
X10348609Y29111028D01*
X10396228Y29111028D01*
X10398684Y29111517D01*
X10399773Y29111154D01*
X10407500Y29113271D01*
X10415362Y29114834D01*
X10416173Y29115646D01*
X10418589Y29116307D01*
X10513826Y29163925D01*
X10521690Y29170029D01*
X10524226Y29170874D01*
X10526417Y29173698D01*
X10529238Y29175887D01*
X10530082Y29178421D01*
X10536187Y29186286D01*
X10583806Y29281524D01*
X10584467Y29283940D01*
X10585279Y29284751D01*
X10586842Y29292613D01*
X10588959Y29300340D01*
X10588596Y29301429D01*
X10589085Y29303885D01*
X10589085Y29434939D01*
X10623971Y29504713D01*
X10693746Y29539599D01*
X10717759Y29539599D01*
X10787532Y29504713D01*
X10822419Y29434939D01*
X10822419Y29268070D01*
X10780079Y29183389D01*
X10774926Y29164573D01*
X10787027Y29128268D01*
X10821255Y29111154D01*
X10857560Y29123255D01*
X10869521Y29138667D01*
X10917140Y29233905D01*
X10917801Y29236321D01*
X10918613Y29237132D01*
X10920176Y29244994D01*
X10922293Y29252721D01*
X10921930Y29253810D01*
X10922419Y29256266D01*
X10922419Y29446742D01*
X10921930Y29449199D01*
X10922293Y29450287D01*
X10920176Y29458015D01*
X10918613Y29465876D01*
X10917801Y29466688D01*
X10917140Y29469103D01*
X10869521Y29564341D01*
X10863416Y29572207D01*
X10862572Y29574740D01*
X10859751Y29576930D01*
X10857560Y29579753D01*
X10855024Y29580599D01*
X10847160Y29586702D01*
X10751921Y29634320D01*
X10749506Y29634982D01*
X10748695Y29635793D01*
X10740829Y29637358D01*
X10733105Y29639473D01*
X10732017Y29639111D01*
X10729561Y29639599D01*
X10681942Y29639599D01*
X10679485Y29639111D01*
X10678397Y29639473D01*
X10670669Y29637357D01*
X10662808Y29635793D01*
X10661996Y29634982D01*
X10659581Y29634320D01*
X10564343Y29586701D01*
X10556477Y29580597D01*
X10553944Y29579752D01*
X10551754Y29576932D01*
X10548931Y29574740D01*
X10548085Y29572205D01*
X10541982Y29564340D01*
X10494364Y29469103D01*
X10493702Y29466688D01*
X10492891Y29465876D01*
X10491327Y29458015D01*
X10489211Y29450287D01*
X10489573Y29449199D01*
X10489085Y29446742D01*
X10489085Y29315689D01*
X10454198Y29245915D01*
X10384425Y29211028D01*
X10360413Y29211028D01*
X10290638Y29245915D01*
X10255752Y29315688D01*
X10255752Y29434939D01*
X10298092Y29519619D01*
X10303245Y29538435D01*
X10291143Y29574740D01*
X10256915Y29591854D01*
X10220611Y29579752D01*
X10208649Y29564340D01*
X10161031Y29469103D01*
X10160369Y29466688D01*
X10159558Y29465876D01*
X10157994Y29458015D01*
X10155878Y29450287D01*
X10156240Y29449199D01*
X10155752Y29446742D01*
X9711308Y29446742D01*
X9711308Y30037305D01*
X9826225Y30037305D01*
X9826225Y29999037D01*
X9853285Y29971977D01*
X9872419Y29968171D01*
X10155752Y29968171D01*
X10155752Y29875314D01*
X10159558Y29856180D01*
X10186618Y29829120D01*
X10224886Y29829120D01*
X10251946Y29856180D01*
X10255752Y29875314D01*
X10255752Y29968171D01*
X10729561Y29968171D01*
X10732017Y29968660D01*
X10733105Y29968297D01*
X10740829Y29970413D01*
X10748695Y29971977D01*
X10749506Y29972789D01*
X10751921Y29973450D01*
X10847160Y30021068D01*
X10855024Y30027172D01*
X10857560Y30028017D01*
X10859751Y30030841D01*
X10862572Y30033030D01*
X10863416Y30035564D01*
X10869521Y30043429D01*
X10917140Y30138667D01*
X10917801Y30141083D01*
X10918613Y30141894D01*
X10920176Y30149756D01*
X10922293Y30157483D01*
X10921930Y30158572D01*
X10922419Y30161028D01*
X10922419Y30256266D01*
X10918613Y30275400D01*
X10891553Y30302460D01*
X10853285Y30302460D01*
X10826225Y30275400D01*
X10822419Y30256266D01*
X10822419Y30172832D01*
X10787532Y30103058D01*
X10717759Y30068171D01*
X10255752Y30068171D01*
X10255752Y30256266D01*
X10251946Y30275400D01*
X10224886Y30302460D01*
X10186618Y30302460D01*
X10159558Y30275400D01*
X10155752Y30256266D01*
X10155752Y30068171D01*
X9872419Y30068171D01*
X9853285Y30064365D01*
X9826225Y30037305D01*
X9711308Y30037305D01*
X9711308Y31732457D01*
X9822419Y31732457D01*
X9822419Y31494362D01*
X9822907Y31491906D01*
X9822545Y31490817D01*
X9824661Y31483090D01*
X9826225Y31475228D01*
X9827036Y31474417D01*
X9827698Y31472001D01*
X9875316Y31376764D01*
X9880231Y31370431D01*
X9884683Y31363769D01*
X9932301Y31316150D01*
X9938967Y31311696D01*
X9945296Y31306784D01*
X10040534Y31259165D01*
X10042949Y31258504D01*
X10043761Y31257692D01*
X10051622Y31256129D01*
X10059350Y31254012D01*
X10060438Y31254375D01*
X10062895Y31253886D01*
X10158133Y31253886D01*
X10160589Y31254375D01*
X10161678Y31254012D01*
X10169405Y31256129D01*
X10177267Y31257692D01*
X10178078Y31258504D01*
X10180494Y31259165D01*
X10275731Y31306783D01*
X10282064Y31311699D01*
X10288726Y31316150D01*
X10336345Y31363768D01*
X10340799Y31370435D01*
X10345711Y31376763D01*
X10393330Y31472001D01*
X10394776Y31477283D01*
X10397116Y31482235D01*
X10443404Y31667387D01*
X10484939Y31750459D01*
X10521084Y31786603D01*
X10598508Y31825314D01*
X10670139Y31825314D01*
X10747561Y31786603D01*
X10783708Y31750457D01*
X10822419Y31673035D01*
X10822419Y31454856D01*
X10777366Y31319697D01*
X10774926Y31300342D01*
X10792040Y31266113D01*
X10828344Y31254012D01*
X10862573Y31271126D01*
X10872234Y31288075D01*
X10919853Y31430931D01*
X10920855Y31438882D01*
X10922419Y31446743D01*
X10922419Y31684838D01*
X10921930Y31687295D01*
X10922293Y31688383D01*
X10920176Y31696111D01*
X10918613Y31703972D01*
X10917801Y31704784D01*
X10917140Y31707199D01*
X10869521Y31802437D01*
X10864609Y31808766D01*
X10860155Y31815432D01*
X10812535Y31863051D01*
X10805868Y31867506D01*
X10799540Y31872417D01*
X10704303Y31920035D01*
X10701887Y31920697D01*
X10701076Y31921508D01*
X10693214Y31923072D01*
X10685487Y31925188D01*
X10684398Y31924826D01*
X10681942Y31925314D01*
X10586704Y31925314D01*
X10584247Y31924826D01*
X10583159Y31925188D01*
X10575431Y31923072D01*
X10567570Y31921508D01*
X10566758Y31920697D01*
X10564343Y31920035D01*
X10469105Y31872416D01*
X10462776Y31867505D01*
X10456110Y31863050D01*
X10408492Y31815431D01*
X10404040Y31808770D01*
X10399125Y31802436D01*
X10351507Y31707199D01*
X10350060Y31701918D01*
X10347721Y31696965D01*
X10301433Y31511815D01*
X10259897Y31428743D01*
X10223753Y31392598D01*
X10146330Y31353886D01*
X10074699Y31353886D01*
X9997275Y31392598D01*
X9961130Y31428742D01*
X9922419Y31506165D01*
X9922419Y31724344D01*
X9967472Y31859502D01*
X9969912Y31878858D01*
X9952798Y31913086D01*
X9916494Y31925188D01*
X9882265Y31908073D01*
X9872604Y31891125D01*
X9824985Y31748268D01*
X9823982Y31740320D01*
X9822419Y31732457D01*
X9711308Y31732457D01*
X9711308Y32589600D01*
X10155752Y32589600D01*
X10155752Y32399124D01*
X10156240Y32396668D01*
X10155878Y32395579D01*
X10157994Y32387852D01*
X10159558Y32379990D01*
X10160369Y32379179D01*
X10161031Y32376763D01*
X10208649Y32281526D01*
X10214752Y32273662D01*
X10215598Y32271126D01*
X10218421Y32268935D01*
X10220611Y32266114D01*
X10223144Y32265270D01*
X10231010Y32259165D01*
X10326248Y32211546D01*
X10328663Y32210885D01*
X10329475Y32210073D01*
X10337336Y32208510D01*
X10345064Y32206393D01*
X10346152Y32206756D01*
X10348609Y32206267D01*
X10729561Y32206267D01*
X10732017Y32206756D01*
X10733105Y32206393D01*
X10740829Y32208509D01*
X10748695Y32210073D01*
X10749506Y32210885D01*
X10751921Y32211546D01*
X10847160Y32259164D01*
X10855024Y32265268D01*
X10857560Y32266113D01*
X10859751Y32268937D01*
X10862572Y32271126D01*
X10863416Y32273660D01*
X10869521Y32281525D01*
X10917140Y32376763D01*
X10917801Y32379179D01*
X10918613Y32379990D01*
X10920176Y32387852D01*
X10922293Y32395579D01*
X10921930Y32396668D01*
X10922419Y32399124D01*
X10922419Y32589600D01*
X10921930Y32592057D01*
X10922293Y32593145D01*
X10920176Y32600873D01*
X10918613Y32608734D01*
X10917801Y32609546D01*
X10917140Y32611961D01*
X10869521Y32707199D01*
X10857560Y32722611D01*
X10821255Y32734712D01*
X10787027Y32717598D01*
X10774926Y32681293D01*
X10780079Y32662477D01*
X10822419Y32577797D01*
X10822419Y32410928D01*
X10787532Y32341154D01*
X10717759Y32306267D01*
X10580075Y32306267D01*
X10492876Y32742263D01*
X10490041Y32749087D01*
X10490041Y32751591D01*
X10488261Y32753371D01*
X10485391Y32760279D01*
X10473277Y32768355D01*
X10462981Y32778651D01*
X10455643Y32780111D01*
X10453550Y32781506D01*
X10451095Y32781016D01*
X10443847Y32782457D01*
X10348609Y32782457D01*
X10346152Y32781969D01*
X10345064Y32782331D01*
X10337336Y32780215D01*
X10329475Y32778651D01*
X10328663Y32777840D01*
X10326248Y32777178D01*
X10231010Y32729559D01*
X10223144Y32723455D01*
X10220611Y32722610D01*
X10218421Y32719790D01*
X10215598Y32717598D01*
X10214752Y32715063D01*
X10208649Y32707198D01*
X10161031Y32611961D01*
X10160369Y32609546D01*
X10159558Y32608734D01*
X10157994Y32600873D01*
X10155878Y32593145D01*
X10156240Y32592057D01*
X10155752Y32589600D01*
X9711308Y32589600D01*
X9711308Y33446743D01*
X10155752Y33446743D01*
X10155752Y33303886D01*
X10156240Y33301430D01*
X10155878Y33300341D01*
X10157994Y33292614D01*
X10159558Y33284752D01*
X10160369Y33283941D01*
X10161031Y33281525D01*
X10197135Y33209316D01*
X10186618Y33207223D01*
X10159558Y33180163D01*
X10159558Y33141895D01*
X10186618Y33114835D01*
X10205752Y33111029D01*
X10872419Y33111029D01*
X10891553Y33114835D01*
X10918613Y33141895D01*
X10918613Y33180163D01*
X10891553Y33207223D01*
X10872419Y33211029D01*
X10321701Y33211029D01*
X10294463Y33238266D01*
X10255752Y33315689D01*
X10255752Y33434940D01*
X10290638Y33504714D01*
X10360413Y33539600D01*
X10872419Y33539600D01*
X10891553Y33543406D01*
X10918613Y33570466D01*
X10918613Y33608734D01*
X10891553Y33635794D01*
X10872419Y33639600D01*
X10348609Y33639600D01*
X10346152Y33639112D01*
X10345064Y33639474D01*
X10337336Y33637358D01*
X10329475Y33635794D01*
X10328663Y33634983D01*
X10326248Y33634321D01*
X10231010Y33586702D01*
X10223144Y33580598D01*
X10220611Y33579753D01*
X10218421Y33576933D01*
X10215598Y33574741D01*
X10214752Y33572206D01*
X10208649Y33564341D01*
X10161031Y33469104D01*
X10160369Y33466689D01*
X10159558Y33465877D01*
X10157994Y33458016D01*
X10155878Y33450288D01*
X10156240Y33449200D01*
X10155752Y33446743D01*
X9711308Y33446743D01*
X9711308Y34303886D01*
X10155752Y34303886D01*
X10155752Y34161029D01*
X10156240Y34158573D01*
X10155878Y34157484D01*
X10157994Y34149757D01*
X10159558Y34141895D01*
X10160369Y34141084D01*
X10161031Y34138668D01*
X10208649Y34043431D01*
X10214752Y34035567D01*
X10215598Y34033031D01*
X10218421Y34030840D01*
X10220611Y34028019D01*
X10223144Y34027175D01*
X10231010Y34021070D01*
X10326248Y33973451D01*
X10328663Y33972790D01*
X10329475Y33971978D01*
X10337336Y33970415D01*
X10345064Y33968298D01*
X10346152Y33968661D01*
X10348609Y33968172D01*
X10396228Y33968172D01*
X10398684Y33968661D01*
X10399773Y33968298D01*
X10407500Y33970415D01*
X10415362Y33971978D01*
X10416173Y33972790D01*
X10418589Y33973451D01*
X10513826Y34021069D01*
X10521690Y34027173D01*
X10524226Y34028018D01*
X10526417Y34030842D01*
X10529238Y34033031D01*
X10530082Y34035565D01*
X10536187Y34043430D01*
X10583806Y34138668D01*
X10584467Y34141084D01*
X10585279Y34141895D01*
X10586842Y34149757D01*
X10588959Y34157484D01*
X10588596Y34158573D01*
X10589085Y34161029D01*
X10589085Y34292083D01*
X10623971Y34361857D01*
X10693746Y34396743D01*
X10717759Y34396743D01*
X10787532Y34361857D01*
X10822419Y34292083D01*
X10822419Y34125214D01*
X10780079Y34040533D01*
X10774926Y34021717D01*
X10787027Y33985412D01*
X10821255Y33968298D01*
X10857560Y33980399D01*
X10869521Y33995811D01*
X10917140Y34091049D01*
X10917801Y34093465D01*
X10918613Y34094276D01*
X10920176Y34102138D01*
X10922293Y34109865D01*
X10921930Y34110954D01*
X10922419Y34113410D01*
X10922419Y34303886D01*
X10921930Y34306343D01*
X10922293Y34307431D01*
X10920176Y34315159D01*
X10918613Y34323020D01*
X10917801Y34323832D01*
X10917140Y34326247D01*
X10869521Y34421485D01*
X10863416Y34429351D01*
X10862572Y34431884D01*
X10859751Y34434074D01*
X10857560Y34436897D01*
X10855024Y34437743D01*
X10847160Y34443846D01*
X10751921Y34491464D01*
X10749506Y34492126D01*
X10748695Y34492937D01*
X10740829Y34494502D01*
X10733105Y34496617D01*
X10732017Y34496255D01*
X10729561Y34496743D01*
X10681942Y34496743D01*
X10679485Y34496255D01*
X10678397Y34496617D01*
X10670669Y34494501D01*
X10662808Y34492937D01*
X10661996Y34492126D01*
X10659581Y34491464D01*
X10564343Y34443845D01*
X10556477Y34437741D01*
X10553944Y34436896D01*
X10551754Y34434076D01*
X10548931Y34431884D01*
X10548085Y34429349D01*
X10541982Y34421484D01*
X10494364Y34326247D01*
X10493702Y34323832D01*
X10492891Y34323020D01*
X10491327Y34315159D01*
X10489211Y34307431D01*
X10489573Y34306343D01*
X10489085Y34303886D01*
X10489085Y34172833D01*
X10454198Y34103059D01*
X10384425Y34068172D01*
X10360413Y34068172D01*
X10290638Y34103059D01*
X10255752Y34172832D01*
X10255752Y34292083D01*
X10298092Y34376763D01*
X10303245Y34395579D01*
X10291143Y34431884D01*
X10256915Y34448998D01*
X10220611Y34436896D01*
X10208649Y34421484D01*
X10161031Y34326247D01*
X10160369Y34323832D01*
X10159558Y34323020D01*
X10157994Y34315159D01*
X10155878Y34307431D01*
X10156240Y34306343D01*
X10155752Y34303886D01*
X9711308Y34303886D01*
X9711308Y35161029D01*
X10155752Y35161029D01*
X10155752Y35018172D01*
X10156240Y35015716D01*
X10155878Y35014627D01*
X10157994Y35006900D01*
X10159558Y34999038D01*
X10160369Y34998227D01*
X10161031Y34995811D01*
X10208649Y34900574D01*
X10213564Y34894241D01*
X10218016Y34887579D01*
X10265634Y34839960D01*
X10272300Y34835506D01*
X10278629Y34830594D01*
X10373867Y34782975D01*
X10376282Y34782314D01*
X10377094Y34781502D01*
X10384955Y34779939D01*
X10392683Y34777822D01*
X10393771Y34778185D01*
X10396228Y34777696D01*
X10681942Y34777696D01*
X10684398Y34778185D01*
X10685487Y34777822D01*
X10693214Y34779939D01*
X10701076Y34781502D01*
X10701887Y34782314D01*
X10704303Y34782975D01*
X10799540Y34830593D01*
X10805868Y34835505D01*
X10812535Y34839959D01*
X10860155Y34887578D01*
X10864609Y34894245D01*
X10869521Y34900573D01*
X10917140Y34995811D01*
X10917801Y34998227D01*
X10918613Y34999038D01*
X10920176Y35006900D01*
X10922293Y35014627D01*
X10921930Y35015716D01*
X10922419Y35018172D01*
X10922419Y35161029D01*
X10921930Y35163486D01*
X10922293Y35164574D01*
X10920176Y35172302D01*
X10918613Y35180163D01*
X10917801Y35180975D01*
X10917140Y35183390D01*
X10869521Y35278628D01*
X10864609Y35284957D01*
X10860155Y35291623D01*
X10812535Y35339242D01*
X10805868Y35343697D01*
X10799540Y35348608D01*
X10704303Y35396226D01*
X10701887Y35396888D01*
X10701076Y35397699D01*
X10693214Y35399263D01*
X10685487Y35401379D01*
X10684398Y35401017D01*
X10681942Y35401505D01*
X10396228Y35401505D01*
X10393771Y35401017D01*
X10392683Y35401379D01*
X10384955Y35399263D01*
X10377094Y35397699D01*
X10376282Y35396888D01*
X10373867Y35396226D01*
X10278629Y35348607D01*
X10272300Y35343696D01*
X10265634Y35339241D01*
X10218016Y35291622D01*
X10213564Y35284961D01*
X10208649Y35278627D01*
X10161031Y35183390D01*
X10160369Y35180975D01*
X10159558Y35180163D01*
X10157994Y35172302D01*
X10155878Y35164574D01*
X10156240Y35163486D01*
X10155752Y35161029D01*
X9711308Y35161029D01*
X9711308Y36065791D01*
X10155752Y36065791D01*
X10155752Y35970553D01*
X10156240Y35968097D01*
X10155878Y35967008D01*
X10157994Y35959281D01*
X10159558Y35951419D01*
X10160369Y35950608D01*
X10161031Y35948192D01*
X10208649Y35852955D01*
X10213564Y35846622D01*
X10218016Y35839960D01*
X10227899Y35830077D01*
X10205752Y35830077D01*
X10186618Y35826271D01*
X10159558Y35799211D01*
X10159558Y35760943D01*
X10186618Y35733883D01*
X10205752Y35730077D01*
X10872419Y35730077D01*
X10891553Y35733883D01*
X10918613Y35760943D01*
X10918613Y35799211D01*
X10891553Y35826271D01*
X10872419Y35830077D01*
X10408032Y35830077D01*
X10330608Y35868789D01*
X10294463Y35904933D01*
X10255752Y35982356D01*
X10255752Y36065791D01*
X10251946Y36084925D01*
X10224886Y36111985D01*
X10186618Y36111985D01*
X10159558Y36084925D01*
X10155752Y36065791D01*
X9711308Y36065791D01*
X9711308Y36223096D01*
X11033530Y36223096D01*
X11033530Y27142774D01*
G37*
D10*
X706597Y14126437D02*
X1420882Y14126437D01*
X1420882Y14126437D02*
X1563739Y14078818D01*
X1563739Y14078818D02*
X1658978Y13983580D01*
X1658978Y13983580D02*
X1706597Y13840723D01*
X1706597Y13840723D02*
X1706597Y13745485D01*
X706597Y15031199D02*
X706597Y14840723D01*
X706597Y14840723D02*
X754216Y14745485D01*
X754216Y14745485D02*
X801835Y14697866D01*
X801835Y14697866D02*
X944692Y14602628D01*
X944692Y14602628D02*
X1135168Y14555009D01*
X1135168Y14555009D02*
X1516120Y14555009D01*
X1516120Y14555009D02*
X1611358Y14602628D01*
X1611358Y14602628D02*
X1658978Y14650247D01*
X1658978Y14650247D02*
X1706597Y14745485D01*
X1706597Y14745485D02*
X1706597Y14935961D01*
X1706597Y14935961D02*
X1658978Y15031199D01*
X1658978Y15031199D02*
X1611358Y15078818D01*
X1611358Y15078818D02*
X1516120Y15126437D01*
X1516120Y15126437D02*
X1278025Y15126437D01*
X1278025Y15126437D02*
X1182787Y15078818D01*
X1182787Y15078818D02*
X1135168Y15031199D01*
X1135168Y15031199D02*
X1087549Y14935961D01*
X1087549Y14935961D02*
X1087549Y14745485D01*
X1087549Y14745485D02*
X1135168Y14650247D01*
X1135168Y14650247D02*
X1182787Y14602628D01*
X1182787Y14602628D02*
X1278025Y14555009D01*
X54833333Y9545181D02*
X54500000Y10021372D01*
X54261905Y9545181D02*
X54261905Y10545181D01*
X54261905Y10545181D02*
X54642857Y10545181D01*
X54642857Y10545181D02*
X54738095Y10497562D01*
X54738095Y10497562D02*
X54785714Y10449943D01*
X54785714Y10449943D02*
X54833333Y10354705D01*
X54833333Y10354705D02*
X54833333Y10211848D01*
X54833333Y10211848D02*
X54785714Y10116610D01*
X54785714Y10116610D02*
X54738095Y10068991D01*
X54738095Y10068991D02*
X54642857Y10021372D01*
X54642857Y10021372D02*
X54261905Y10021372D01*
X55214286Y10449943D02*
X55261905Y10497562D01*
X55261905Y10497562D02*
X55357143Y10545181D01*
X55357143Y10545181D02*
X55595238Y10545181D01*
X55595238Y10545181D02*
X55690476Y10497562D01*
X55690476Y10497562D02*
X55738095Y10449943D01*
X55738095Y10449943D02*
X55785714Y10354705D01*
X55785714Y10354705D02*
X55785714Y10259467D01*
X55785714Y10259467D02*
X55738095Y10116610D01*
X55738095Y10116610D02*
X55166667Y9545181D01*
X55166667Y9545181D02*
X55785714Y9545181D01*
X24454819Y1357143D02*
X23978628Y1023810D01*
X24454819Y785715D02*
X23454819Y785715D01*
X23454819Y785715D02*
X23454819Y1166667D01*
X23454819Y1166667D02*
X23502438Y1261905D01*
X23502438Y1261905D02*
X23550057Y1309524D01*
X23550057Y1309524D02*
X23645295Y1357143D01*
X23645295Y1357143D02*
X23788152Y1357143D01*
X23788152Y1357143D02*
X23883390Y1309524D01*
X23883390Y1309524D02*
X23931009Y1261905D01*
X23931009Y1261905D02*
X23978628Y1166667D01*
X23978628Y1166667D02*
X23978628Y785715D01*
X24454819Y2309524D02*
X24454819Y1738096D01*
X24454819Y2023810D02*
X23454819Y2023810D01*
X23454819Y2023810D02*
X23597676Y1928572D01*
X23597676Y1928572D02*
X23692914Y1833334D01*
X23692914Y1833334D02*
X23740533Y1738096D01*
X23454819Y2642858D02*
X23454819Y3261905D01*
X23454819Y3261905D02*
X23835771Y2928572D01*
X23835771Y2928572D02*
X23835771Y3071429D01*
X23835771Y3071429D02*
X23883390Y3166667D01*
X23883390Y3166667D02*
X23931009Y3214286D01*
X23931009Y3214286D02*
X24026247Y3261905D01*
X24026247Y3261905D02*
X24264342Y3261905D01*
X24264342Y3261905D02*
X24359580Y3214286D01*
X24359580Y3214286D02*
X24407200Y3166667D01*
X24407200Y3166667D02*
X24454819Y3071429D01*
X24454819Y3071429D02*
X24454819Y2785715D01*
X24454819Y2785715D02*
X24407200Y2690477D01*
X24407200Y2690477D02*
X24359580Y2642858D01*
X43359580Y11833334D02*
X43407200Y11785715D01*
X43407200Y11785715D02*
X43454819Y11642858D01*
X43454819Y11642858D02*
X43454819Y11547620D01*
X43454819Y11547620D02*
X43407200Y11404763D01*
X43407200Y11404763D02*
X43311961Y11309525D01*
X43311961Y11309525D02*
X43216723Y11261906D01*
X43216723Y11261906D02*
X43026247Y11214287D01*
X43026247Y11214287D02*
X42883390Y11214287D01*
X42883390Y11214287D02*
X42692914Y11261906D01*
X42692914Y11261906D02*
X42597676Y11309525D01*
X42597676Y11309525D02*
X42502438Y11404763D01*
X42502438Y11404763D02*
X42454819Y11547620D01*
X42454819Y11547620D02*
X42454819Y11642858D01*
X42454819Y11642858D02*
X42502438Y11785715D01*
X42502438Y11785715D02*
X42550057Y11833334D01*
X42550057Y12214287D02*
X42502438Y12261906D01*
X42502438Y12261906D02*
X42454819Y12357144D01*
X42454819Y12357144D02*
X42454819Y12595239D01*
X42454819Y12595239D02*
X42502438Y12690477D01*
X42502438Y12690477D02*
X42550057Y12738096D01*
X42550057Y12738096D02*
X42645295Y12785715D01*
X42645295Y12785715D02*
X42740533Y12785715D01*
X42740533Y12785715D02*
X42883390Y12738096D01*
X42883390Y12738096D02*
X43454819Y12166668D01*
X43454819Y12166668D02*
X43454819Y12785715D01*
X30089819Y30988096D02*
X30899342Y30988096D01*
X30899342Y30988096D02*
X30994580Y31035715D01*
X30994580Y31035715D02*
X31042200Y31083334D01*
X31042200Y31083334D02*
X31089819Y31178572D01*
X31089819Y31178572D02*
X31089819Y31369048D01*
X31089819Y31369048D02*
X31042200Y31464286D01*
X31042200Y31464286D02*
X30994580Y31511905D01*
X30994580Y31511905D02*
X30899342Y31559524D01*
X30899342Y31559524D02*
X30089819Y31559524D01*
X30089819Y32464286D02*
X30089819Y32273810D01*
X30089819Y32273810D02*
X30137438Y32178572D01*
X30137438Y32178572D02*
X30185057Y32130953D01*
X30185057Y32130953D02*
X30327914Y32035715D01*
X30327914Y32035715D02*
X30518390Y31988096D01*
X30518390Y31988096D02*
X30899342Y31988096D01*
X30899342Y31988096D02*
X30994580Y32035715D01*
X30994580Y32035715D02*
X31042200Y32083334D01*
X31042200Y32083334D02*
X31089819Y32178572D01*
X31089819Y32178572D02*
X31089819Y32369048D01*
X31089819Y32369048D02*
X31042200Y32464286D01*
X31042200Y32464286D02*
X30994580Y32511905D01*
X30994580Y32511905D02*
X30899342Y32559524D01*
X30899342Y32559524D02*
X30661247Y32559524D01*
X30661247Y32559524D02*
X30566009Y32511905D01*
X30566009Y32511905D02*
X30518390Y32464286D01*
X30518390Y32464286D02*
X30470771Y32369048D01*
X30470771Y32369048D02*
X30470771Y32178572D01*
X30470771Y32178572D02*
X30518390Y32083334D01*
X30518390Y32083334D02*
X30566009Y32035715D01*
X30566009Y32035715D02*
X30661247Y31988096D01*
X23359580Y39833334D02*
X23407200Y39785715D01*
X23407200Y39785715D02*
X23454819Y39642858D01*
X23454819Y39642858D02*
X23454819Y39547620D01*
X23454819Y39547620D02*
X23407200Y39404763D01*
X23407200Y39404763D02*
X23311961Y39309525D01*
X23311961Y39309525D02*
X23216723Y39261906D01*
X23216723Y39261906D02*
X23026247Y39214287D01*
X23026247Y39214287D02*
X22883390Y39214287D01*
X22883390Y39214287D02*
X22692914Y39261906D01*
X22692914Y39261906D02*
X22597676Y39309525D01*
X22597676Y39309525D02*
X22502438Y39404763D01*
X22502438Y39404763D02*
X22454819Y39547620D01*
X22454819Y39547620D02*
X22454819Y39642858D01*
X22454819Y39642858D02*
X22502438Y39785715D01*
X22502438Y39785715D02*
X22550057Y39833334D01*
X22454819Y40166668D02*
X22454819Y40833334D01*
X22454819Y40833334D02*
X23454819Y40404763D01*
X57904761Y3449943D02*
X57809523Y3497562D01*
X57809523Y3497562D02*
X57714285Y3592800D01*
X57714285Y3592800D02*
X57571428Y3735658D01*
X57571428Y3735658D02*
X57476190Y3783277D01*
X57476190Y3783277D02*
X57380952Y3783277D01*
X57428571Y3545181D02*
X57333333Y3592800D01*
X57333333Y3592800D02*
X57238095Y3688039D01*
X57238095Y3688039D02*
X57190476Y3878515D01*
X57190476Y3878515D02*
X57190476Y4211848D01*
X57190476Y4211848D02*
X57238095Y4402324D01*
X57238095Y4402324D02*
X57333333Y4497562D01*
X57333333Y4497562D02*
X57428571Y4545181D01*
X57428571Y4545181D02*
X57619047Y4545181D01*
X57619047Y4545181D02*
X57714285Y4497562D01*
X57714285Y4497562D02*
X57809523Y4402324D01*
X57809523Y4402324D02*
X57857142Y4211848D01*
X57857142Y4211848D02*
X57857142Y3878515D01*
X57857142Y3878515D02*
X57809523Y3688039D01*
X57809523Y3688039D02*
X57714285Y3592800D01*
X57714285Y3592800D02*
X57619047Y3545181D01*
X57619047Y3545181D02*
X57428571Y3545181D01*
X58809523Y3545181D02*
X58238095Y3545181D01*
X58523809Y3545181D02*
X58523809Y4545181D01*
X58523809Y4545181D02*
X58428571Y4402324D01*
X58428571Y4402324D02*
X58333333Y4307086D01*
X58333333Y4307086D02*
X58238095Y4259467D01*
X42904761Y1449943D02*
X42809523Y1497562D01*
X42809523Y1497562D02*
X42714285Y1592800D01*
X42714285Y1592800D02*
X42571428Y1735658D01*
X42571428Y1735658D02*
X42476190Y1783277D01*
X42476190Y1783277D02*
X42380952Y1783277D01*
X42428571Y1545181D02*
X42333333Y1592800D01*
X42333333Y1592800D02*
X42238095Y1688039D01*
X42238095Y1688039D02*
X42190476Y1878515D01*
X42190476Y1878515D02*
X42190476Y2211848D01*
X42190476Y2211848D02*
X42238095Y2402324D01*
X42238095Y2402324D02*
X42333333Y2497562D01*
X42333333Y2497562D02*
X42428571Y2545181D01*
X42428571Y2545181D02*
X42619047Y2545181D01*
X42619047Y2545181D02*
X42714285Y2497562D01*
X42714285Y2497562D02*
X42809523Y2402324D01*
X42809523Y2402324D02*
X42857142Y2211848D01*
X42857142Y2211848D02*
X42857142Y1878515D01*
X42857142Y1878515D02*
X42809523Y1688039D01*
X42809523Y1688039D02*
X42714285Y1592800D01*
X42714285Y1592800D02*
X42619047Y1545181D01*
X42619047Y1545181D02*
X42428571Y1545181D01*
X43190476Y2545181D02*
X43809523Y2545181D01*
X43809523Y2545181D02*
X43476190Y2164229D01*
X43476190Y2164229D02*
X43619047Y2164229D01*
X43619047Y2164229D02*
X43714285Y2116610D01*
X43714285Y2116610D02*
X43761904Y2068991D01*
X43761904Y2068991D02*
X43809523Y1973753D01*
X43809523Y1973753D02*
X43809523Y1735658D01*
X43809523Y1735658D02*
X43761904Y1640420D01*
X43761904Y1640420D02*
X43714285Y1592800D01*
X43714285Y1592800D02*
X43619047Y1545181D01*
X43619047Y1545181D02*
X43333333Y1545181D01*
X43333333Y1545181D02*
X43238095Y1592800D01*
X43238095Y1592800D02*
X43190476Y1640420D01*
X35454819Y38357143D02*
X34978628Y38023810D01*
X35454819Y37785715D02*
X34454819Y37785715D01*
X34454819Y37785715D02*
X34454819Y38166667D01*
X34454819Y38166667D02*
X34502438Y38261905D01*
X34502438Y38261905D02*
X34550057Y38309524D01*
X34550057Y38309524D02*
X34645295Y38357143D01*
X34645295Y38357143D02*
X34788152Y38357143D01*
X34788152Y38357143D02*
X34883390Y38309524D01*
X34883390Y38309524D02*
X34931009Y38261905D01*
X34931009Y38261905D02*
X34978628Y38166667D01*
X34978628Y38166667D02*
X34978628Y37785715D01*
X35454819Y39309524D02*
X35454819Y38738096D01*
X35454819Y39023810D02*
X34454819Y39023810D01*
X34454819Y39023810D02*
X34597676Y38928572D01*
X34597676Y38928572D02*
X34692914Y38833334D01*
X34692914Y38833334D02*
X34740533Y38738096D01*
X34883390Y39880953D02*
X34835771Y39785715D01*
X34835771Y39785715D02*
X34788152Y39738096D01*
X34788152Y39738096D02*
X34692914Y39690477D01*
X34692914Y39690477D02*
X34645295Y39690477D01*
X34645295Y39690477D02*
X34550057Y39738096D01*
X34550057Y39738096D02*
X34502438Y39785715D01*
X34502438Y39785715D02*
X34454819Y39880953D01*
X34454819Y39880953D02*
X34454819Y40071429D01*
X34454819Y40071429D02*
X34502438Y40166667D01*
X34502438Y40166667D02*
X34550057Y40214286D01*
X34550057Y40214286D02*
X34645295Y40261905D01*
X34645295Y40261905D02*
X34692914Y40261905D01*
X34692914Y40261905D02*
X34788152Y40214286D01*
X34788152Y40214286D02*
X34835771Y40166667D01*
X34835771Y40166667D02*
X34883390Y40071429D01*
X34883390Y40071429D02*
X34883390Y39880953D01*
X34883390Y39880953D02*
X34931009Y39785715D01*
X34931009Y39785715D02*
X34978628Y39738096D01*
X34978628Y39738096D02*
X35073866Y39690477D01*
X35073866Y39690477D02*
X35264342Y39690477D01*
X35264342Y39690477D02*
X35359580Y39738096D01*
X35359580Y39738096D02*
X35407200Y39785715D01*
X35407200Y39785715D02*
X35454819Y39880953D01*
X35454819Y39880953D02*
X35454819Y40071429D01*
X35454819Y40071429D02*
X35407200Y40166667D01*
X35407200Y40166667D02*
X35359580Y40214286D01*
X35359580Y40214286D02*
X35264342Y40261905D01*
X35264342Y40261905D02*
X35073866Y40261905D01*
X35073866Y40261905D02*
X34978628Y40214286D01*
X34978628Y40214286D02*
X34931009Y40166667D01*
X34931009Y40166667D02*
X34883390Y40071429D01*
X50833333Y22640420D02*
X50785714Y22592800D01*
X50785714Y22592800D02*
X50642857Y22545181D01*
X50642857Y22545181D02*
X50547619Y22545181D01*
X50547619Y22545181D02*
X50404762Y22592800D01*
X50404762Y22592800D02*
X50309524Y22688039D01*
X50309524Y22688039D02*
X50261905Y22783277D01*
X50261905Y22783277D02*
X50214286Y22973753D01*
X50214286Y22973753D02*
X50214286Y23116610D01*
X50214286Y23116610D02*
X50261905Y23307086D01*
X50261905Y23307086D02*
X50309524Y23402324D01*
X50309524Y23402324D02*
X50404762Y23497562D01*
X50404762Y23497562D02*
X50547619Y23545181D01*
X50547619Y23545181D02*
X50642857Y23545181D01*
X50642857Y23545181D02*
X50785714Y23497562D01*
X50785714Y23497562D02*
X50833333Y23449943D01*
X51738095Y23545181D02*
X51261905Y23545181D01*
X51261905Y23545181D02*
X51214286Y23068991D01*
X51214286Y23068991D02*
X51261905Y23116610D01*
X51261905Y23116610D02*
X51357143Y23164229D01*
X51357143Y23164229D02*
X51595238Y23164229D01*
X51595238Y23164229D02*
X51690476Y23116610D01*
X51690476Y23116610D02*
X51738095Y23068991D01*
X51738095Y23068991D02*
X51785714Y22973753D01*
X51785714Y22973753D02*
X51785714Y22735658D01*
X51785714Y22735658D02*
X51738095Y22640420D01*
X51738095Y22640420D02*
X51690476Y22592800D01*
X51690476Y22592800D02*
X51595238Y22545181D01*
X51595238Y22545181D02*
X51357143Y22545181D01*
X51357143Y22545181D02*
X51261905Y22592800D01*
X51261905Y22592800D02*
X51214286Y22640420D01*
X39454819Y1269643D02*
X38978628Y936310D01*
X39454819Y698215D02*
X38454819Y698215D01*
X38454819Y698215D02*
X38454819Y1079167D01*
X38454819Y1079167D02*
X38502438Y1174405D01*
X38502438Y1174405D02*
X38550057Y1222024D01*
X38550057Y1222024D02*
X38645295Y1269643D01*
X38645295Y1269643D02*
X38788152Y1269643D01*
X38788152Y1269643D02*
X38883390Y1222024D01*
X38883390Y1222024D02*
X38931009Y1174405D01*
X38931009Y1174405D02*
X38978628Y1079167D01*
X38978628Y1079167D02*
X38978628Y698215D01*
X39454819Y2222024D02*
X39454819Y1650596D01*
X39454819Y1936310D02*
X38454819Y1936310D01*
X38454819Y1936310D02*
X38597676Y1841072D01*
X38597676Y1841072D02*
X38692914Y1745834D01*
X38692914Y1745834D02*
X38740533Y1650596D01*
X38454819Y2841072D02*
X38454819Y2936310D01*
X38454819Y2936310D02*
X38502438Y3031548D01*
X38502438Y3031548D02*
X38550057Y3079167D01*
X38550057Y3079167D02*
X38645295Y3126786D01*
X38645295Y3126786D02*
X38835771Y3174405D01*
X38835771Y3174405D02*
X39073866Y3174405D01*
X39073866Y3174405D02*
X39264342Y3126786D01*
X39264342Y3126786D02*
X39359580Y3079167D01*
X39359580Y3079167D02*
X39407200Y3031548D01*
X39407200Y3031548D02*
X39454819Y2936310D01*
X39454819Y2936310D02*
X39454819Y2841072D01*
X39454819Y2841072D02*
X39407200Y2745834D01*
X39407200Y2745834D02*
X39359580Y2698215D01*
X39359580Y2698215D02*
X39264342Y2650596D01*
X39264342Y2650596D02*
X39073866Y2602977D01*
X39073866Y2602977D02*
X38835771Y2602977D01*
X38835771Y2602977D02*
X38645295Y2650596D01*
X38645295Y2650596D02*
X38550057Y2698215D01*
X38550057Y2698215D02*
X38502438Y2745834D01*
X38502438Y2745834D02*
X38454819Y2841072D01*
X50904761Y1449943D02*
X50809523Y1497562D01*
X50809523Y1497562D02*
X50714285Y1592800D01*
X50714285Y1592800D02*
X50571428Y1735658D01*
X50571428Y1735658D02*
X50476190Y1783277D01*
X50476190Y1783277D02*
X50380952Y1783277D01*
X50428571Y1545181D02*
X50333333Y1592800D01*
X50333333Y1592800D02*
X50238095Y1688039D01*
X50238095Y1688039D02*
X50190476Y1878515D01*
X50190476Y1878515D02*
X50190476Y2211848D01*
X50190476Y2211848D02*
X50238095Y2402324D01*
X50238095Y2402324D02*
X50333333Y2497562D01*
X50333333Y2497562D02*
X50428571Y2545181D01*
X50428571Y2545181D02*
X50619047Y2545181D01*
X50619047Y2545181D02*
X50714285Y2497562D01*
X50714285Y2497562D02*
X50809523Y2402324D01*
X50809523Y2402324D02*
X50857142Y2211848D01*
X50857142Y2211848D02*
X50857142Y1878515D01*
X50857142Y1878515D02*
X50809523Y1688039D01*
X50809523Y1688039D02*
X50714285Y1592800D01*
X50714285Y1592800D02*
X50619047Y1545181D01*
X50619047Y1545181D02*
X50428571Y1545181D01*
X51714285Y2211848D02*
X51714285Y1545181D01*
X51476190Y2592800D02*
X51238095Y1878515D01*
X51238095Y1878515D02*
X51857142Y1878515D01*
X23447868Y29095144D02*
X22971677Y28761811D01*
X23447868Y28523716D02*
X22447868Y28523716D01*
X22447868Y28523716D02*
X22447868Y28904668D01*
X22447868Y28904668D02*
X22495487Y28999906D01*
X22495487Y28999906D02*
X22543106Y29047525D01*
X22543106Y29047525D02*
X22638344Y29095144D01*
X22638344Y29095144D02*
X22781201Y29095144D01*
X22781201Y29095144D02*
X22876439Y29047525D01*
X22876439Y29047525D02*
X22924058Y28999906D01*
X22924058Y28999906D02*
X22971677Y28904668D01*
X22971677Y28904668D02*
X22971677Y28523716D01*
X22543106Y29476097D02*
X22495487Y29523716D01*
X22495487Y29523716D02*
X22447868Y29618954D01*
X22447868Y29618954D02*
X22447868Y29857049D01*
X22447868Y29857049D02*
X22495487Y29952287D01*
X22495487Y29952287D02*
X22543106Y29999906D01*
X22543106Y29999906D02*
X22638344Y30047525D01*
X22638344Y30047525D02*
X22733582Y30047525D01*
X22733582Y30047525D02*
X22876439Y29999906D01*
X22876439Y29999906D02*
X23447868Y29428478D01*
X23447868Y29428478D02*
X23447868Y30047525D01*
X22543106Y30428478D02*
X22495487Y30476097D01*
X22495487Y30476097D02*
X22447868Y30571335D01*
X22447868Y30571335D02*
X22447868Y30809430D01*
X22447868Y30809430D02*
X22495487Y30904668D01*
X22495487Y30904668D02*
X22543106Y30952287D01*
X22543106Y30952287D02*
X22638344Y30999906D01*
X22638344Y30999906D02*
X22733582Y30999906D01*
X22733582Y30999906D02*
X22876439Y30952287D01*
X22876439Y30952287D02*
X23447868Y30380859D01*
X23447868Y30380859D02*
X23447868Y30999906D01*
X54261905Y22545181D02*
X54261905Y23545181D01*
X54261905Y23545181D02*
X54500000Y23545181D01*
X54500000Y23545181D02*
X54642857Y23497562D01*
X54642857Y23497562D02*
X54738095Y23402324D01*
X54738095Y23402324D02*
X54785714Y23307086D01*
X54785714Y23307086D02*
X54833333Y23116610D01*
X54833333Y23116610D02*
X54833333Y22973753D01*
X54833333Y22973753D02*
X54785714Y22783277D01*
X54785714Y22783277D02*
X54738095Y22688039D01*
X54738095Y22688039D02*
X54642857Y22592800D01*
X54642857Y22592800D02*
X54500000Y22545181D01*
X54500000Y22545181D02*
X54261905Y22545181D01*
X55785714Y22545181D02*
X55214286Y22545181D01*
X55500000Y22545181D02*
X55500000Y23545181D01*
X55500000Y23545181D02*
X55404762Y23402324D01*
X55404762Y23402324D02*
X55309524Y23307086D01*
X55309524Y23307086D02*
X55214286Y23259467D01*
X23238095Y9069181D02*
X23238095Y8259658D01*
X23238095Y8259658D02*
X23285714Y8164420D01*
X23285714Y8164420D02*
X23333333Y8116800D01*
X23333333Y8116800D02*
X23428571Y8069181D01*
X23428571Y8069181D02*
X23619047Y8069181D01*
X23619047Y8069181D02*
X23714285Y8116800D01*
X23714285Y8116800D02*
X23761904Y8164420D01*
X23761904Y8164420D02*
X23809523Y8259658D01*
X23809523Y8259658D02*
X23809523Y9069181D01*
X24714285Y8735848D02*
X24714285Y8069181D01*
X24476190Y9116800D02*
X24238095Y8402515D01*
X24238095Y8402515D02*
X24857142Y8402515D01*
X25524693Y19546404D02*
X25191360Y20022595D01*
X24953265Y19546404D02*
X24953265Y20546404D01*
X24953265Y20546404D02*
X25334217Y20546404D01*
X25334217Y20546404D02*
X25429455Y20498785D01*
X25429455Y20498785D02*
X25477074Y20451166D01*
X25477074Y20451166D02*
X25524693Y20355928D01*
X25524693Y20355928D02*
X25524693Y20213071D01*
X25524693Y20213071D02*
X25477074Y20117833D01*
X25477074Y20117833D02*
X25429455Y20070214D01*
X25429455Y20070214D02*
X25334217Y20022595D01*
X25334217Y20022595D02*
X24953265Y20022595D01*
X26477074Y19546404D02*
X25905646Y19546404D01*
X26191360Y19546404D02*
X26191360Y20546404D01*
X26191360Y20546404D02*
X26096122Y20403547D01*
X26096122Y20403547D02*
X26000884Y20308309D01*
X26000884Y20308309D02*
X25905646Y20260690D01*
X27429455Y19546404D02*
X26858027Y19546404D01*
X27143741Y19546404D02*
X27143741Y20546404D01*
X27143741Y20546404D02*
X27048503Y20403547D01*
X27048503Y20403547D02*
X26953265Y20308309D01*
X26953265Y20308309D02*
X26858027Y20260690D01*
X31904761Y38449943D02*
X31809523Y38497562D01*
X31809523Y38497562D02*
X31714285Y38592800D01*
X31714285Y38592800D02*
X31571428Y38735658D01*
X31571428Y38735658D02*
X31476190Y38783277D01*
X31476190Y38783277D02*
X31380952Y38783277D01*
X31428571Y38545181D02*
X31333333Y38592800D01*
X31333333Y38592800D02*
X31238095Y38688039D01*
X31238095Y38688039D02*
X31190476Y38878515D01*
X31190476Y38878515D02*
X31190476Y39211848D01*
X31190476Y39211848D02*
X31238095Y39402324D01*
X31238095Y39402324D02*
X31333333Y39497562D01*
X31333333Y39497562D02*
X31428571Y39545181D01*
X31428571Y39545181D02*
X31619047Y39545181D01*
X31619047Y39545181D02*
X31714285Y39497562D01*
X31714285Y39497562D02*
X31809523Y39402324D01*
X31809523Y39402324D02*
X31857142Y39211848D01*
X31857142Y39211848D02*
X31857142Y38878515D01*
X31857142Y38878515D02*
X31809523Y38688039D01*
X31809523Y38688039D02*
X31714285Y38592800D01*
X31714285Y38592800D02*
X31619047Y38545181D01*
X31619047Y38545181D02*
X31428571Y38545181D01*
X32761904Y39545181D02*
X32285714Y39545181D01*
X32285714Y39545181D02*
X32238095Y39068991D01*
X32238095Y39068991D02*
X32285714Y39116610D01*
X32285714Y39116610D02*
X32380952Y39164229D01*
X32380952Y39164229D02*
X32619047Y39164229D01*
X32619047Y39164229D02*
X32714285Y39116610D01*
X32714285Y39116610D02*
X32761904Y39068991D01*
X32761904Y39068991D02*
X32809523Y38973753D01*
X32809523Y38973753D02*
X32809523Y38735658D01*
X32809523Y38735658D02*
X32761904Y38640420D01*
X32761904Y38640420D02*
X32714285Y38592800D01*
X32714285Y38592800D02*
X32619047Y38545181D01*
X32619047Y38545181D02*
X32380952Y38545181D01*
X32380952Y38545181D02*
X32285714Y38592800D01*
X32285714Y38592800D02*
X32238095Y38640420D01*
X28288399Y40069072D02*
X27955066Y40545263D01*
X27716971Y40069072D02*
X27716971Y41069072D01*
X27716971Y41069072D02*
X28097923Y41069072D01*
X28097923Y41069072D02*
X28193161Y41021453D01*
X28193161Y41021453D02*
X28240780Y40973834D01*
X28240780Y40973834D02*
X28288399Y40878596D01*
X28288399Y40878596D02*
X28288399Y40735739D01*
X28288399Y40735739D02*
X28240780Y40640501D01*
X28240780Y40640501D02*
X28193161Y40592882D01*
X28193161Y40592882D02*
X28097923Y40545263D01*
X28097923Y40545263D02*
X27716971Y40545263D01*
X29240780Y40069072D02*
X28669352Y40069072D01*
X28955066Y40069072D02*
X28955066Y41069072D01*
X28955066Y41069072D02*
X28859828Y40926215D01*
X28859828Y40926215D02*
X28764590Y40830977D01*
X28764590Y40830977D02*
X28669352Y40783358D01*
X29716971Y40069072D02*
X29907447Y40069072D01*
X29907447Y40069072D02*
X30002685Y40116691D01*
X30002685Y40116691D02*
X30050304Y40164311D01*
X30050304Y40164311D02*
X30145542Y40307168D01*
X30145542Y40307168D02*
X30193161Y40497644D01*
X30193161Y40497644D02*
X30193161Y40878596D01*
X30193161Y40878596D02*
X30145542Y40973834D01*
X30145542Y40973834D02*
X30097923Y41021453D01*
X30097923Y41021453D02*
X30002685Y41069072D01*
X30002685Y41069072D02*
X29812209Y41069072D01*
X29812209Y41069072D02*
X29716971Y41021453D01*
X29716971Y41021453D02*
X29669352Y40973834D01*
X29669352Y40973834D02*
X29621733Y40878596D01*
X29621733Y40878596D02*
X29621733Y40640501D01*
X29621733Y40640501D02*
X29669352Y40545263D01*
X29669352Y40545263D02*
X29716971Y40497644D01*
X29716971Y40497644D02*
X29812209Y40450025D01*
X29812209Y40450025D02*
X30002685Y40450025D01*
X30002685Y40450025D02*
X30097923Y40497644D01*
X30097923Y40497644D02*
X30145542Y40545263D01*
X30145542Y40545263D02*
X30193161Y40640501D01*
X68931009Y3663221D02*
X68931009Y3329888D01*
X69454819Y3329888D02*
X68454819Y3329888D01*
X68454819Y3329888D02*
X68454819Y3806078D01*
X68931009Y4520364D02*
X68978628Y4663221D01*
X68978628Y4663221D02*
X69026247Y4710840D01*
X69026247Y4710840D02*
X69121485Y4758459D01*
X69121485Y4758459D02*
X69264342Y4758459D01*
X69264342Y4758459D02*
X69359580Y4710840D01*
X69359580Y4710840D02*
X69407200Y4663221D01*
X69407200Y4663221D02*
X69454819Y4567983D01*
X69454819Y4567983D02*
X69454819Y4187031D01*
X69454819Y4187031D02*
X68454819Y4187031D01*
X68454819Y4187031D02*
X68454819Y4520364D01*
X68454819Y4520364D02*
X68502438Y4615602D01*
X68502438Y4615602D02*
X68550057Y4663221D01*
X68550057Y4663221D02*
X68645295Y4710840D01*
X68645295Y4710840D02*
X68740533Y4710840D01*
X68740533Y4710840D02*
X68835771Y4663221D01*
X68835771Y4663221D02*
X68883390Y4615602D01*
X68883390Y4615602D02*
X68931009Y4520364D01*
X68931009Y4520364D02*
X68931009Y4187031D01*
X69454819Y5710840D02*
X69454819Y5139412D01*
X69454819Y5425126D02*
X68454819Y5425126D01*
X68454819Y5425126D02*
X68597676Y5329888D01*
X68597676Y5329888D02*
X68692914Y5234650D01*
X68692914Y5234650D02*
X68740533Y5139412D01*
X70454819Y22238096D02*
X71264342Y22238096D01*
X71264342Y22238096D02*
X71359580Y22285715D01*
X71359580Y22285715D02*
X71407200Y22333334D01*
X71407200Y22333334D02*
X71454819Y22428572D01*
X71454819Y22428572D02*
X71454819Y22619048D01*
X71454819Y22619048D02*
X71407200Y22714286D01*
X71407200Y22714286D02*
X71359580Y22761905D01*
X71359580Y22761905D02*
X71264342Y22809524D01*
X71264342Y22809524D02*
X70454819Y22809524D01*
X70550057Y23238096D02*
X70502438Y23285715D01*
X70502438Y23285715D02*
X70454819Y23380953D01*
X70454819Y23380953D02*
X70454819Y23619048D01*
X70454819Y23619048D02*
X70502438Y23714286D01*
X70502438Y23714286D02*
X70550057Y23761905D01*
X70550057Y23761905D02*
X70645295Y23809524D01*
X70645295Y23809524D02*
X70740533Y23809524D01*
X70740533Y23809524D02*
X70883390Y23761905D01*
X70883390Y23761905D02*
X71454819Y23190477D01*
X71454819Y23190477D02*
X71454819Y23809524D01*
X57833333Y18545181D02*
X57500000Y19021372D01*
X57261905Y18545181D02*
X57261905Y19545181D01*
X57261905Y19545181D02*
X57642857Y19545181D01*
X57642857Y19545181D02*
X57738095Y19497562D01*
X57738095Y19497562D02*
X57785714Y19449943D01*
X57785714Y19449943D02*
X57833333Y19354705D01*
X57833333Y19354705D02*
X57833333Y19211848D01*
X57833333Y19211848D02*
X57785714Y19116610D01*
X57785714Y19116610D02*
X57738095Y19068991D01*
X57738095Y19068991D02*
X57642857Y19021372D01*
X57642857Y19021372D02*
X57261905Y19021372D01*
X58690476Y19211848D02*
X58690476Y18545181D01*
X58452381Y19592800D02*
X58214286Y18878515D01*
X58214286Y18878515D02*
X58833333Y18878515D01*
X1666666Y40545181D02*
X1666666Y39830896D01*
X1666666Y39830896D02*
X1619047Y39688039D01*
X1619047Y39688039D02*
X1523809Y39592800D01*
X1523809Y39592800D02*
X1380952Y39545181D01*
X1380952Y39545181D02*
X1285714Y39545181D01*
X2047619Y40545181D02*
X2666666Y40545181D01*
X2666666Y40545181D02*
X2333333Y40164229D01*
X2333333Y40164229D02*
X2476190Y40164229D01*
X2476190Y40164229D02*
X2571428Y40116610D01*
X2571428Y40116610D02*
X2619047Y40068991D01*
X2619047Y40068991D02*
X2666666Y39973753D01*
X2666666Y39973753D02*
X2666666Y39735658D01*
X2666666Y39735658D02*
X2619047Y39640420D01*
X2619047Y39640420D02*
X2571428Y39592800D01*
X2571428Y39592800D02*
X2476190Y39545181D01*
X2476190Y39545181D02*
X2190476Y39545181D01*
X2190476Y39545181D02*
X2095238Y39592800D01*
X2095238Y39592800D02*
X2047619Y39640420D01*
X28359580Y1357143D02*
X28407200Y1309524D01*
X28407200Y1309524D02*
X28454819Y1166667D01*
X28454819Y1166667D02*
X28454819Y1071429D01*
X28454819Y1071429D02*
X28407200Y928572D01*
X28407200Y928572D02*
X28311961Y833334D01*
X28311961Y833334D02*
X28216723Y785715D01*
X28216723Y785715D02*
X28026247Y738096D01*
X28026247Y738096D02*
X27883390Y738096D01*
X27883390Y738096D02*
X27692914Y785715D01*
X27692914Y785715D02*
X27597676Y833334D01*
X27597676Y833334D02*
X27502438Y928572D01*
X27502438Y928572D02*
X27454819Y1071429D01*
X27454819Y1071429D02*
X27454819Y1166667D01*
X27454819Y1166667D02*
X27502438Y1309524D01*
X27502438Y1309524D02*
X27550057Y1357143D01*
X28454819Y2309524D02*
X28454819Y1738096D01*
X28454819Y2023810D02*
X27454819Y2023810D01*
X27454819Y2023810D02*
X27597676Y1928572D01*
X27597676Y1928572D02*
X27692914Y1833334D01*
X27692914Y1833334D02*
X27740533Y1738096D01*
X27454819Y2928572D02*
X27454819Y3023810D01*
X27454819Y3023810D02*
X27502438Y3119048D01*
X27502438Y3119048D02*
X27550057Y3166667D01*
X27550057Y3166667D02*
X27645295Y3214286D01*
X27645295Y3214286D02*
X27835771Y3261905D01*
X27835771Y3261905D02*
X28073866Y3261905D01*
X28073866Y3261905D02*
X28264342Y3214286D01*
X28264342Y3214286D02*
X28359580Y3166667D01*
X28359580Y3166667D02*
X28407200Y3119048D01*
X28407200Y3119048D02*
X28454819Y3023810D01*
X28454819Y3023810D02*
X28454819Y2928572D01*
X28454819Y2928572D02*
X28407200Y2833334D01*
X28407200Y2833334D02*
X28359580Y2785715D01*
X28359580Y2785715D02*
X28264342Y2738096D01*
X28264342Y2738096D02*
X28073866Y2690477D01*
X28073866Y2690477D02*
X27835771Y2690477D01*
X27835771Y2690477D02*
X27645295Y2738096D01*
X27645295Y2738096D02*
X27550057Y2785715D01*
X27550057Y2785715D02*
X27502438Y2833334D01*
X27502438Y2833334D02*
X27454819Y2928572D01*
X67454819Y4758459D02*
X66978628Y4425126D01*
X67454819Y4187031D02*
X66454819Y4187031D01*
X66454819Y4187031D02*
X66454819Y4567983D01*
X66454819Y4567983D02*
X66502438Y4663221D01*
X66502438Y4663221D02*
X66550057Y4710840D01*
X66550057Y4710840D02*
X66645295Y4758459D01*
X66645295Y4758459D02*
X66788152Y4758459D01*
X66788152Y4758459D02*
X66883390Y4710840D01*
X66883390Y4710840D02*
X66931009Y4663221D01*
X66931009Y4663221D02*
X66978628Y4567983D01*
X66978628Y4567983D02*
X66978628Y4187031D01*
X66454819Y5091793D02*
X66454819Y5710840D01*
X66454819Y5710840D02*
X66835771Y5377507D01*
X66835771Y5377507D02*
X66835771Y5520364D01*
X66835771Y5520364D02*
X66883390Y5615602D01*
X66883390Y5615602D02*
X66931009Y5663221D01*
X66931009Y5663221D02*
X67026247Y5710840D01*
X67026247Y5710840D02*
X67264342Y5710840D01*
X67264342Y5710840D02*
X67359580Y5663221D01*
X67359580Y5663221D02*
X67407200Y5615602D01*
X67407200Y5615602D02*
X67454819Y5520364D01*
X67454819Y5520364D02*
X67454819Y5234650D01*
X67454819Y5234650D02*
X67407200Y5139412D01*
X67407200Y5139412D02*
X67359580Y5091793D01*
X32666666Y10545181D02*
X32666666Y9830896D01*
X32666666Y9830896D02*
X32619047Y9688039D01*
X32619047Y9688039D02*
X32523809Y9592800D01*
X32523809Y9592800D02*
X32380952Y9545181D01*
X32380952Y9545181D02*
X32285714Y9545181D01*
X33619047Y10545181D02*
X33142857Y10545181D01*
X33142857Y10545181D02*
X33095238Y10068991D01*
X33095238Y10068991D02*
X33142857Y10116610D01*
X33142857Y10116610D02*
X33238095Y10164229D01*
X33238095Y10164229D02*
X33476190Y10164229D01*
X33476190Y10164229D02*
X33571428Y10116610D01*
X33571428Y10116610D02*
X33619047Y10068991D01*
X33619047Y10068991D02*
X33666666Y9973753D01*
X33666666Y9973753D02*
X33666666Y9735658D01*
X33666666Y9735658D02*
X33619047Y9640420D01*
X33619047Y9640420D02*
X33571428Y9592800D01*
X33571428Y9592800D02*
X33476190Y9545181D01*
X33476190Y9545181D02*
X33238095Y9545181D01*
X33238095Y9545181D02*
X33142857Y9592800D01*
X33142857Y9592800D02*
X33095238Y9640420D01*
X31833333Y17640420D02*
X31785714Y17592800D01*
X31785714Y17592800D02*
X31642857Y17545181D01*
X31642857Y17545181D02*
X31547619Y17545181D01*
X31547619Y17545181D02*
X31404762Y17592800D01*
X31404762Y17592800D02*
X31309524Y17688039D01*
X31309524Y17688039D02*
X31261905Y17783277D01*
X31261905Y17783277D02*
X31214286Y17973753D01*
X31214286Y17973753D02*
X31214286Y18116610D01*
X31214286Y18116610D02*
X31261905Y18307086D01*
X31261905Y18307086D02*
X31309524Y18402324D01*
X31309524Y18402324D02*
X31404762Y18497562D01*
X31404762Y18497562D02*
X31547619Y18545181D01*
X31547619Y18545181D02*
X31642857Y18545181D01*
X31642857Y18545181D02*
X31785714Y18497562D01*
X31785714Y18497562D02*
X31833333Y18449943D01*
X32785714Y17545181D02*
X32214286Y17545181D01*
X32500000Y17545181D02*
X32500000Y18545181D01*
X32500000Y18545181D02*
X32404762Y18402324D01*
X32404762Y18402324D02*
X32309524Y18307086D01*
X32309524Y18307086D02*
X32214286Y18259467D01*
X44454819Y32920834D02*
X43978628Y32587501D01*
X44454819Y32349406D02*
X43454819Y32349406D01*
X43454819Y32349406D02*
X43454819Y32730358D01*
X43454819Y32730358D02*
X43502438Y32825596D01*
X43502438Y32825596D02*
X43550057Y32873215D01*
X43550057Y32873215D02*
X43645295Y32920834D01*
X43645295Y32920834D02*
X43788152Y32920834D01*
X43788152Y32920834D02*
X43883390Y32873215D01*
X43883390Y32873215D02*
X43931009Y32825596D01*
X43931009Y32825596D02*
X43978628Y32730358D01*
X43978628Y32730358D02*
X43978628Y32349406D01*
X43454819Y33777977D02*
X43454819Y33587501D01*
X43454819Y33587501D02*
X43502438Y33492263D01*
X43502438Y33492263D02*
X43550057Y33444644D01*
X43550057Y33444644D02*
X43692914Y33349406D01*
X43692914Y33349406D02*
X43883390Y33301787D01*
X43883390Y33301787D02*
X44264342Y33301787D01*
X44264342Y33301787D02*
X44359580Y33349406D01*
X44359580Y33349406D02*
X44407200Y33397025D01*
X44407200Y33397025D02*
X44454819Y33492263D01*
X44454819Y33492263D02*
X44454819Y33682739D01*
X44454819Y33682739D02*
X44407200Y33777977D01*
X44407200Y33777977D02*
X44359580Y33825596D01*
X44359580Y33825596D02*
X44264342Y33873215D01*
X44264342Y33873215D02*
X44026247Y33873215D01*
X44026247Y33873215D02*
X43931009Y33825596D01*
X43931009Y33825596D02*
X43883390Y33777977D01*
X43883390Y33777977D02*
X43835771Y33682739D01*
X43835771Y33682739D02*
X43835771Y33492263D01*
X43835771Y33492263D02*
X43883390Y33397025D01*
X43883390Y33397025D02*
X43931009Y33349406D01*
X43931009Y33349406D02*
X44026247Y33301787D01*
X55454819Y1833334D02*
X54978628Y1500001D01*
X55454819Y1261906D02*
X54454819Y1261906D01*
X54454819Y1261906D02*
X54454819Y1642858D01*
X54454819Y1642858D02*
X54502438Y1738096D01*
X54502438Y1738096D02*
X54550057Y1785715D01*
X54550057Y1785715D02*
X54645295Y1833334D01*
X54645295Y1833334D02*
X54788152Y1833334D01*
X54788152Y1833334D02*
X54883390Y1785715D01*
X54883390Y1785715D02*
X54931009Y1738096D01*
X54931009Y1738096D02*
X54978628Y1642858D01*
X54978628Y1642858D02*
X54978628Y1261906D01*
X54883390Y2404763D02*
X54835771Y2309525D01*
X54835771Y2309525D02*
X54788152Y2261906D01*
X54788152Y2261906D02*
X54692914Y2214287D01*
X54692914Y2214287D02*
X54645295Y2214287D01*
X54645295Y2214287D02*
X54550057Y2261906D01*
X54550057Y2261906D02*
X54502438Y2309525D01*
X54502438Y2309525D02*
X54454819Y2404763D01*
X54454819Y2404763D02*
X54454819Y2595239D01*
X54454819Y2595239D02*
X54502438Y2690477D01*
X54502438Y2690477D02*
X54550057Y2738096D01*
X54550057Y2738096D02*
X54645295Y2785715D01*
X54645295Y2785715D02*
X54692914Y2785715D01*
X54692914Y2785715D02*
X54788152Y2738096D01*
X54788152Y2738096D02*
X54835771Y2690477D01*
X54835771Y2690477D02*
X54883390Y2595239D01*
X54883390Y2595239D02*
X54883390Y2404763D01*
X54883390Y2404763D02*
X54931009Y2309525D01*
X54931009Y2309525D02*
X54978628Y2261906D01*
X54978628Y2261906D02*
X55073866Y2214287D01*
X55073866Y2214287D02*
X55264342Y2214287D01*
X55264342Y2214287D02*
X55359580Y2261906D01*
X55359580Y2261906D02*
X55407200Y2309525D01*
X55407200Y2309525D02*
X55454819Y2404763D01*
X55454819Y2404763D02*
X55454819Y2595239D01*
X55454819Y2595239D02*
X55407200Y2690477D01*
X55407200Y2690477D02*
X55359580Y2738096D01*
X55359580Y2738096D02*
X55264342Y2785715D01*
X55264342Y2785715D02*
X55073866Y2785715D01*
X55073866Y2785715D02*
X54978628Y2738096D01*
X54978628Y2738096D02*
X54931009Y2690477D01*
X54931009Y2690477D02*
X54883390Y2595239D01*
X47454819Y1833334D02*
X46978628Y1500001D01*
X47454819Y1261906D02*
X46454819Y1261906D01*
X46454819Y1261906D02*
X46454819Y1642858D01*
X46454819Y1642858D02*
X46502438Y1738096D01*
X46502438Y1738096D02*
X46550057Y1785715D01*
X46550057Y1785715D02*
X46645295Y1833334D01*
X46645295Y1833334D02*
X46788152Y1833334D01*
X46788152Y1833334D02*
X46883390Y1785715D01*
X46883390Y1785715D02*
X46931009Y1738096D01*
X46931009Y1738096D02*
X46978628Y1642858D01*
X46978628Y1642858D02*
X46978628Y1261906D01*
X46454819Y2166668D02*
X46454819Y2833334D01*
X46454819Y2833334D02*
X47454819Y2404763D01*
X26454819Y1357143D02*
X25978628Y1023810D01*
X26454819Y785715D02*
X25454819Y785715D01*
X25454819Y785715D02*
X25454819Y1166667D01*
X25454819Y1166667D02*
X25502438Y1261905D01*
X25502438Y1261905D02*
X25550057Y1309524D01*
X25550057Y1309524D02*
X25645295Y1357143D01*
X25645295Y1357143D02*
X25788152Y1357143D01*
X25788152Y1357143D02*
X25883390Y1309524D01*
X25883390Y1309524D02*
X25931009Y1261905D01*
X25931009Y1261905D02*
X25978628Y1166667D01*
X25978628Y1166667D02*
X25978628Y785715D01*
X26454819Y2309524D02*
X26454819Y1738096D01*
X26454819Y2023810D02*
X25454819Y2023810D01*
X25454819Y2023810D02*
X25597676Y1928572D01*
X25597676Y1928572D02*
X25692914Y1833334D01*
X25692914Y1833334D02*
X25740533Y1738096D01*
X25788152Y3166667D02*
X26454819Y3166667D01*
X25407200Y2928572D02*
X26121485Y2690477D01*
X26121485Y2690477D02*
X26121485Y3309524D01*
X19357142Y827298D02*
X19023809Y1303489D01*
X18785714Y827298D02*
X18785714Y1827298D01*
X18785714Y1827298D02*
X19166666Y1827298D01*
X19166666Y1827298D02*
X19261904Y1779679D01*
X19261904Y1779679D02*
X19309523Y1732060D01*
X19309523Y1732060D02*
X19357142Y1636822D01*
X19357142Y1636822D02*
X19357142Y1493965D01*
X19357142Y1493965D02*
X19309523Y1398727D01*
X19309523Y1398727D02*
X19261904Y1351108D01*
X19261904Y1351108D02*
X19166666Y1303489D01*
X19166666Y1303489D02*
X18785714Y1303489D01*
X20309523Y827298D02*
X19738095Y827298D01*
X20023809Y827298D02*
X20023809Y1827298D01*
X20023809Y1827298D02*
X19928571Y1684441D01*
X19928571Y1684441D02*
X19833333Y1589203D01*
X19833333Y1589203D02*
X19738095Y1541584D01*
X21214285Y1827298D02*
X20738095Y1827298D01*
X20738095Y1827298D02*
X20690476Y1351108D01*
X20690476Y1351108D02*
X20738095Y1398727D01*
X20738095Y1398727D02*
X20833333Y1446346D01*
X20833333Y1446346D02*
X21071428Y1446346D01*
X21071428Y1446346D02*
X21166666Y1398727D01*
X21166666Y1398727D02*
X21214285Y1351108D01*
X21214285Y1351108D02*
X21261904Y1255870D01*
X21261904Y1255870D02*
X21261904Y1017775D01*
X21261904Y1017775D02*
X21214285Y922537D01*
X21214285Y922537D02*
X21166666Y874917D01*
X21166666Y874917D02*
X21071428Y827298D01*
X21071428Y827298D02*
X20833333Y827298D01*
X20833333Y827298D02*
X20738095Y874917D01*
X20738095Y874917D02*
X20690476Y922537D01*
X40075595Y16770181D02*
X40075595Y15960658D01*
X40075595Y15960658D02*
X40123214Y15865420D01*
X40123214Y15865420D02*
X40170833Y15817800D01*
X40170833Y15817800D02*
X40266071Y15770181D01*
X40266071Y15770181D02*
X40456547Y15770181D01*
X40456547Y15770181D02*
X40551785Y15817800D01*
X40551785Y15817800D02*
X40599404Y15865420D01*
X40599404Y15865420D02*
X40647023Y15960658D01*
X40647023Y15960658D02*
X40647023Y16770181D01*
X41647023Y15770181D02*
X41075595Y15770181D01*
X41361309Y15770181D02*
X41361309Y16770181D01*
X41361309Y16770181D02*
X41266071Y16627324D01*
X41266071Y16627324D02*
X41170833Y16532086D01*
X41170833Y16532086D02*
X41075595Y16484467D01*
X26874330Y39068874D02*
X26826711Y38973636D01*
X26826711Y38973636D02*
X26731473Y38878398D01*
X26731473Y38878398D02*
X26588615Y38735541D01*
X26588615Y38735541D02*
X26540996Y38640303D01*
X26540996Y38640303D02*
X26540996Y38545065D01*
X26779092Y38592684D02*
X26731473Y38497446D01*
X26731473Y38497446D02*
X26636234Y38402208D01*
X26636234Y38402208D02*
X26445758Y38354589D01*
X26445758Y38354589D02*
X26112425Y38354589D01*
X26112425Y38354589D02*
X25921949Y38402208D01*
X25921949Y38402208D02*
X25826711Y38497446D01*
X25826711Y38497446D02*
X25779092Y38592684D01*
X25779092Y38592684D02*
X25779092Y38783160D01*
X25779092Y38783160D02*
X25826711Y38878398D01*
X25826711Y38878398D02*
X25921949Y38973636D01*
X25921949Y38973636D02*
X26112425Y39021255D01*
X26112425Y39021255D02*
X26445758Y39021255D01*
X26445758Y39021255D02*
X26636234Y38973636D01*
X26636234Y38973636D02*
X26731473Y38878398D01*
X26731473Y38878398D02*
X26779092Y38783160D01*
X26779092Y38783160D02*
X26779092Y38592684D01*
X25779092Y39878398D02*
X25779092Y39687922D01*
X25779092Y39687922D02*
X25826711Y39592684D01*
X25826711Y39592684D02*
X25874330Y39545065D01*
X25874330Y39545065D02*
X26017187Y39449827D01*
X26017187Y39449827D02*
X26207663Y39402208D01*
X26207663Y39402208D02*
X26588615Y39402208D01*
X26588615Y39402208D02*
X26683853Y39449827D01*
X26683853Y39449827D02*
X26731473Y39497446D01*
X26731473Y39497446D02*
X26779092Y39592684D01*
X26779092Y39592684D02*
X26779092Y39783160D01*
X26779092Y39783160D02*
X26731473Y39878398D01*
X26731473Y39878398D02*
X26683853Y39926017D01*
X26683853Y39926017D02*
X26588615Y39973636D01*
X26588615Y39973636D02*
X26350520Y39973636D01*
X26350520Y39973636D02*
X26255282Y39926017D01*
X26255282Y39926017D02*
X26207663Y39878398D01*
X26207663Y39878398D02*
X26160044Y39783160D01*
X26160044Y39783160D02*
X26160044Y39592684D01*
X26160044Y39592684D02*
X26207663Y39497446D01*
X26207663Y39497446D02*
X26255282Y39449827D01*
X26255282Y39449827D02*
X26350520Y39402208D01*
X25359580Y36469115D02*
X25407200Y36421496D01*
X25407200Y36421496D02*
X25454819Y36278639D01*
X25454819Y36278639D02*
X25454819Y36183401D01*
X25454819Y36183401D02*
X25407200Y36040544D01*
X25407200Y36040544D02*
X25311961Y35945306D01*
X25311961Y35945306D02*
X25216723Y35897687D01*
X25216723Y35897687D02*
X25026247Y35850068D01*
X25026247Y35850068D02*
X24883390Y35850068D01*
X24883390Y35850068D02*
X24692914Y35897687D01*
X24692914Y35897687D02*
X24597676Y35945306D01*
X24597676Y35945306D02*
X24502438Y36040544D01*
X24502438Y36040544D02*
X24454819Y36183401D01*
X24454819Y36183401D02*
X24454819Y36278639D01*
X24454819Y36278639D02*
X24502438Y36421496D01*
X24502438Y36421496D02*
X24550057Y36469115D01*
X25454819Y37421496D02*
X25454819Y36850068D01*
X25454819Y37135782D02*
X24454819Y37135782D01*
X24454819Y37135782D02*
X24597676Y37040544D01*
X24597676Y37040544D02*
X24692914Y36945306D01*
X24692914Y36945306D02*
X24740533Y36850068D01*
X24550057Y37802449D02*
X24502438Y37850068D01*
X24502438Y37850068D02*
X24454819Y37945306D01*
X24454819Y37945306D02*
X24454819Y38183401D01*
X24454819Y38183401D02*
X24502438Y38278639D01*
X24502438Y38278639D02*
X24550057Y38326258D01*
X24550057Y38326258D02*
X24645295Y38373877D01*
X24645295Y38373877D02*
X24740533Y38373877D01*
X24740533Y38373877D02*
X24883390Y38326258D01*
X24883390Y38326258D02*
X25454819Y37754830D01*
X25454819Y37754830D02*
X25454819Y38373877D01*
X50833333Y17571843D02*
X50785714Y17524223D01*
X50785714Y17524223D02*
X50642857Y17476604D01*
X50642857Y17476604D02*
X50547619Y17476604D01*
X50547619Y17476604D02*
X50404762Y17524223D01*
X50404762Y17524223D02*
X50309524Y17619462D01*
X50309524Y17619462D02*
X50261905Y17714700D01*
X50261905Y17714700D02*
X50214286Y17905176D01*
X50214286Y17905176D02*
X50214286Y18048033D01*
X50214286Y18048033D02*
X50261905Y18238509D01*
X50261905Y18238509D02*
X50309524Y18333747D01*
X50309524Y18333747D02*
X50404762Y18428985D01*
X50404762Y18428985D02*
X50547619Y18476604D01*
X50547619Y18476604D02*
X50642857Y18476604D01*
X50642857Y18476604D02*
X50785714Y18428985D01*
X50785714Y18428985D02*
X50833333Y18381366D01*
X51166667Y18476604D02*
X51785714Y18476604D01*
X51785714Y18476604D02*
X51452381Y18095652D01*
X51452381Y18095652D02*
X51595238Y18095652D01*
X51595238Y18095652D02*
X51690476Y18048033D01*
X51690476Y18048033D02*
X51738095Y18000414D01*
X51738095Y18000414D02*
X51785714Y17905176D01*
X51785714Y17905176D02*
X51785714Y17667081D01*
X51785714Y17667081D02*
X51738095Y17571843D01*
X51738095Y17571843D02*
X51690476Y17524223D01*
X51690476Y17524223D02*
X51595238Y17476604D01*
X51595238Y17476604D02*
X51309524Y17476604D01*
X51309524Y17476604D02*
X51214286Y17524223D01*
X51214286Y17524223D02*
X51166667Y17571843D01*
X18359580Y10833334D02*
X18407200Y10785715D01*
X18407200Y10785715D02*
X18454819Y10642858D01*
X18454819Y10642858D02*
X18454819Y10547620D01*
X18454819Y10547620D02*
X18407200Y10404763D01*
X18407200Y10404763D02*
X18311961Y10309525D01*
X18311961Y10309525D02*
X18216723Y10261906D01*
X18216723Y10261906D02*
X18026247Y10214287D01*
X18026247Y10214287D02*
X17883390Y10214287D01*
X17883390Y10214287D02*
X17692914Y10261906D01*
X17692914Y10261906D02*
X17597676Y10309525D01*
X17597676Y10309525D02*
X17502438Y10404763D01*
X17502438Y10404763D02*
X17454819Y10547620D01*
X17454819Y10547620D02*
X17454819Y10642858D01*
X17454819Y10642858D02*
X17502438Y10785715D01*
X17502438Y10785715D02*
X17550057Y10833334D01*
X18454819Y11309525D02*
X18454819Y11500001D01*
X18454819Y11500001D02*
X18407200Y11595239D01*
X18407200Y11595239D02*
X18359580Y11642858D01*
X18359580Y11642858D02*
X18216723Y11738096D01*
X18216723Y11738096D02*
X18026247Y11785715D01*
X18026247Y11785715D02*
X17645295Y11785715D01*
X17645295Y11785715D02*
X17550057Y11738096D01*
X17550057Y11738096D02*
X17502438Y11690477D01*
X17502438Y11690477D02*
X17454819Y11595239D01*
X17454819Y11595239D02*
X17454819Y11404763D01*
X17454819Y11404763D02*
X17502438Y11309525D01*
X17502438Y11309525D02*
X17550057Y11261906D01*
X17550057Y11261906D02*
X17645295Y11214287D01*
X17645295Y11214287D02*
X17883390Y11214287D01*
X17883390Y11214287D02*
X17978628Y11261906D01*
X17978628Y11261906D02*
X18026247Y11309525D01*
X18026247Y11309525D02*
X18073866Y11404763D01*
X18073866Y11404763D02*
X18073866Y11595239D01*
X18073866Y11595239D02*
X18026247Y11690477D01*
X18026247Y11690477D02*
X17978628Y11738096D01*
X17978628Y11738096D02*
X17883390Y11785715D01*
X62904761Y3449943D02*
X62809523Y3497562D01*
X62809523Y3497562D02*
X62714285Y3592800D01*
X62714285Y3592800D02*
X62571428Y3735658D01*
X62571428Y3735658D02*
X62476190Y3783277D01*
X62476190Y3783277D02*
X62380952Y3783277D01*
X62428571Y3545181D02*
X62333333Y3592800D01*
X62333333Y3592800D02*
X62238095Y3688039D01*
X62238095Y3688039D02*
X62190476Y3878515D01*
X62190476Y3878515D02*
X62190476Y4211848D01*
X62190476Y4211848D02*
X62238095Y4402324D01*
X62238095Y4402324D02*
X62333333Y4497562D01*
X62333333Y4497562D02*
X62428571Y4545181D01*
X62428571Y4545181D02*
X62619047Y4545181D01*
X62619047Y4545181D02*
X62714285Y4497562D01*
X62714285Y4497562D02*
X62809523Y4402324D01*
X62809523Y4402324D02*
X62857142Y4211848D01*
X62857142Y4211848D02*
X62857142Y3878515D01*
X62857142Y3878515D02*
X62809523Y3688039D01*
X62809523Y3688039D02*
X62714285Y3592800D01*
X62714285Y3592800D02*
X62619047Y3545181D01*
X62619047Y3545181D02*
X62428571Y3545181D01*
X63238095Y4449943D02*
X63285714Y4497562D01*
X63285714Y4497562D02*
X63380952Y4545181D01*
X63380952Y4545181D02*
X63619047Y4545181D01*
X63619047Y4545181D02*
X63714285Y4497562D01*
X63714285Y4497562D02*
X63761904Y4449943D01*
X63761904Y4449943D02*
X63809523Y4354705D01*
X63809523Y4354705D02*
X63809523Y4259467D01*
X63809523Y4259467D02*
X63761904Y4116610D01*
X63761904Y4116610D02*
X63190476Y3545181D01*
X63190476Y3545181D02*
X63809523Y3545181D01*
X25532142Y17545181D02*
X25198809Y18021372D01*
X24960714Y17545181D02*
X24960714Y18545181D01*
X24960714Y18545181D02*
X25341666Y18545181D01*
X25341666Y18545181D02*
X25436904Y18497562D01*
X25436904Y18497562D02*
X25484523Y18449943D01*
X25484523Y18449943D02*
X25532142Y18354705D01*
X25532142Y18354705D02*
X25532142Y18211848D01*
X25532142Y18211848D02*
X25484523Y18116610D01*
X25484523Y18116610D02*
X25436904Y18068991D01*
X25436904Y18068991D02*
X25341666Y18021372D01*
X25341666Y18021372D02*
X24960714Y18021372D01*
X26484523Y17545181D02*
X25913095Y17545181D01*
X26198809Y17545181D02*
X26198809Y18545181D01*
X26198809Y18545181D02*
X26103571Y18402324D01*
X26103571Y18402324D02*
X26008333Y18307086D01*
X26008333Y18307086D02*
X25913095Y18259467D01*
X26865476Y18449943D02*
X26913095Y18497562D01*
X26913095Y18497562D02*
X27008333Y18545181D01*
X27008333Y18545181D02*
X27246428Y18545181D01*
X27246428Y18545181D02*
X27341666Y18497562D01*
X27341666Y18497562D02*
X27389285Y18449943D01*
X27389285Y18449943D02*
X27436904Y18354705D01*
X27436904Y18354705D02*
X27436904Y18259467D01*
X27436904Y18259467D02*
X27389285Y18116610D01*
X27389285Y18116610D02*
X26817857Y17545181D01*
X26817857Y17545181D02*
X27436904Y17545181D01*
X7359580Y22883334D02*
X7407200Y22835715D01*
X7407200Y22835715D02*
X7454819Y22692858D01*
X7454819Y22692858D02*
X7454819Y22597620D01*
X7454819Y22597620D02*
X7407200Y22454763D01*
X7407200Y22454763D02*
X7311961Y22359525D01*
X7311961Y22359525D02*
X7216723Y22311906D01*
X7216723Y22311906D02*
X7026247Y22264287D01*
X7026247Y22264287D02*
X6883390Y22264287D01*
X6883390Y22264287D02*
X6692914Y22311906D01*
X6692914Y22311906D02*
X6597676Y22359525D01*
X6597676Y22359525D02*
X6502438Y22454763D01*
X6502438Y22454763D02*
X6454819Y22597620D01*
X6454819Y22597620D02*
X6454819Y22692858D01*
X6454819Y22692858D02*
X6502438Y22835715D01*
X6502438Y22835715D02*
X6550057Y22883334D01*
X6788152Y23740477D02*
X7454819Y23740477D01*
X6407200Y23502382D02*
X7121485Y23264287D01*
X7121485Y23264287D02*
X7121485Y23883334D01*
X41454819Y32920834D02*
X40978628Y32587501D01*
X41454819Y32349406D02*
X40454819Y32349406D01*
X40454819Y32349406D02*
X40454819Y32730358D01*
X40454819Y32730358D02*
X40502438Y32825596D01*
X40502438Y32825596D02*
X40550057Y32873215D01*
X40550057Y32873215D02*
X40645295Y32920834D01*
X40645295Y32920834D02*
X40788152Y32920834D01*
X40788152Y32920834D02*
X40883390Y32873215D01*
X40883390Y32873215D02*
X40931009Y32825596D01*
X40931009Y32825596D02*
X40978628Y32730358D01*
X40978628Y32730358D02*
X40978628Y32349406D01*
X40454819Y33825596D02*
X40454819Y33349406D01*
X40454819Y33349406D02*
X40931009Y33301787D01*
X40931009Y33301787D02*
X40883390Y33349406D01*
X40883390Y33349406D02*
X40835771Y33444644D01*
X40835771Y33444644D02*
X40835771Y33682739D01*
X40835771Y33682739D02*
X40883390Y33777977D01*
X40883390Y33777977D02*
X40931009Y33825596D01*
X40931009Y33825596D02*
X41026247Y33873215D01*
X41026247Y33873215D02*
X41264342Y33873215D01*
X41264342Y33873215D02*
X41359580Y33825596D01*
X41359580Y33825596D02*
X41407200Y33777977D01*
X41407200Y33777977D02*
X41454819Y33682739D01*
X41454819Y33682739D02*
X41454819Y33444644D01*
X41454819Y33444644D02*
X41407200Y33349406D01*
X41407200Y33349406D02*
X41359580Y33301787D01*
X9454819Y22883334D02*
X8978628Y22550001D01*
X9454819Y22311906D02*
X8454819Y22311906D01*
X8454819Y22311906D02*
X8454819Y22692858D01*
X8454819Y22692858D02*
X8502438Y22788096D01*
X8502438Y22788096D02*
X8550057Y22835715D01*
X8550057Y22835715D02*
X8645295Y22883334D01*
X8645295Y22883334D02*
X8788152Y22883334D01*
X8788152Y22883334D02*
X8883390Y22835715D01*
X8883390Y22835715D02*
X8931009Y22788096D01*
X8931009Y22788096D02*
X8978628Y22692858D01*
X8978628Y22692858D02*
X8978628Y22311906D01*
X9454819Y23835715D02*
X9454819Y23264287D01*
X9454819Y23550001D02*
X8454819Y23550001D01*
X8454819Y23550001D02*
X8597676Y23454763D01*
X8597676Y23454763D02*
X8692914Y23359525D01*
X8692914Y23359525D02*
X8740533Y23264287D01*
X36359580Y30721437D02*
X36407200Y30673818D01*
X36407200Y30673818D02*
X36454819Y30530961D01*
X36454819Y30530961D02*
X36454819Y30435723D01*
X36454819Y30435723D02*
X36407200Y30292866D01*
X36407200Y30292866D02*
X36311961Y30197628D01*
X36311961Y30197628D02*
X36216723Y30150009D01*
X36216723Y30150009D02*
X36026247Y30102390D01*
X36026247Y30102390D02*
X35883390Y30102390D01*
X35883390Y30102390D02*
X35692914Y30150009D01*
X35692914Y30150009D02*
X35597676Y30197628D01*
X35597676Y30197628D02*
X35502438Y30292866D01*
X35502438Y30292866D02*
X35454819Y30435723D01*
X35454819Y30435723D02*
X35454819Y30530961D01*
X35454819Y30530961D02*
X35502438Y30673818D01*
X35502438Y30673818D02*
X35550057Y30721437D01*
X35454819Y31578580D02*
X35454819Y31388104D01*
X35454819Y31388104D02*
X35502438Y31292866D01*
X35502438Y31292866D02*
X35550057Y31245247D01*
X35550057Y31245247D02*
X35692914Y31150009D01*
X35692914Y31150009D02*
X35883390Y31102390D01*
X35883390Y31102390D02*
X36264342Y31102390D01*
X36264342Y31102390D02*
X36359580Y31150009D01*
X36359580Y31150009D02*
X36407200Y31197628D01*
X36407200Y31197628D02*
X36454819Y31292866D01*
X36454819Y31292866D02*
X36454819Y31483342D01*
X36454819Y31483342D02*
X36407200Y31578580D01*
X36407200Y31578580D02*
X36359580Y31626199D01*
X36359580Y31626199D02*
X36264342Y31673818D01*
X36264342Y31673818D02*
X36026247Y31673818D01*
X36026247Y31673818D02*
X35931009Y31626199D01*
X35931009Y31626199D02*
X35883390Y31578580D01*
X35883390Y31578580D02*
X35835771Y31483342D01*
X35835771Y31483342D02*
X35835771Y31292866D01*
X35835771Y31292866D02*
X35883390Y31197628D01*
X35883390Y31197628D02*
X35931009Y31150009D01*
X35931009Y31150009D02*
X36026247Y31102390D01*
D12*
%TO.C,J6*%
X540000Y2940000D02*
X8360000Y2940000D01*
X2140000Y2940000D02*
X2140000Y3860000D01*
X8360000Y2940000D02*
X8360000Y13060000D01*
X4500000Y3700000D02*
X6100000Y3700000D01*
X6100000Y3700000D02*
X6100000Y4700000D01*
X540000Y3860000D02*
X540000Y2940000D01*
X2140000Y3860000D02*
X540000Y3860000D01*
X2140000Y4140000D02*
X2140000Y3860000D01*
X2140000Y4140000D02*
X925000Y4140000D01*
X6100000Y4200000D02*
X8360000Y4200000D01*
X4500000Y4700000D02*
X4500000Y3700000D01*
X6100000Y4700000D02*
X4500000Y4700000D01*
X6100000Y4700000D02*
X8360000Y4700000D01*
X4000000Y5500000D02*
X4000000Y10500000D01*
X8360000Y5500000D02*
X4000000Y5500000D01*
X4000000Y10500000D02*
X8360000Y10500000D01*
X4500000Y11300000D02*
X4500000Y12300000D01*
X6100000Y11300000D02*
X4500000Y11300000D01*
X540000Y12140000D02*
X2140000Y12140000D01*
X2140000Y12140000D02*
X2140000Y11860000D01*
X4500000Y12300000D02*
X6100000Y12300000D01*
X6100000Y12300000D02*
X6100000Y11300000D01*
X540000Y13060000D02*
X540000Y12140000D01*
X2140000Y13060000D02*
X2140000Y12140000D01*
X8360000Y13060000D02*
X540000Y13060000D01*
%TO.C,R2*%
X58167224Y10522500D02*
X57657776Y10522500D01*
X58167224Y9477500D02*
X57657776Y9477500D01*
%TO.C,R13*%
X23477500Y5342224D02*
X23477500Y4832776D01*
X24522500Y5342224D02*
X24522500Y4832776D01*
%TO.C,C2*%
X42490000Y15283767D02*
X42490000Y14991233D01*
X43510000Y15283767D02*
X43510000Y14991233D01*
D13*
%TO.C,U6*%
X26500000Y32750000D02*
X26500000Y30750000D01*
X29500000Y32750000D02*
X29500000Y30750000D01*
D14*
X29350000Y33500000D02*
G75*
G02*
X29150000Y33500000I-100000J0D01*
G01*
X29150000Y33500000D02*
G75*
G02*
X29350000Y33500000I100000J0D01*
G01*
D12*
%TO.C,C7*%
X22490000Y37146267D02*
X22490000Y36853733D01*
X23510000Y37146267D02*
X23510000Y36853733D01*
%TO.C,Q1*%
X56440000Y7062500D02*
X56440000Y7862500D01*
X56440000Y7062500D02*
X56440000Y6262500D01*
X59560000Y7062500D02*
X59560000Y7862500D01*
X59560000Y7062500D02*
X59560000Y6262500D01*
X59840000Y8122500D02*
X59510000Y8362500D01*
X59840000Y8602500D01*
X59840000Y8122500D01*
G36*
X59840000Y8122500D02*
G01*
X59510000Y8362500D01*
X59840000Y8602500D01*
X59840000Y8122500D01*
G37*
%TO.C,Q3*%
X41490000Y4862500D02*
X41490000Y5662500D01*
X41490000Y4862500D02*
X41490000Y4062500D01*
X44610000Y4862500D02*
X44610000Y5662500D01*
X44610000Y4862500D02*
X44610000Y4062500D01*
X44890000Y5922500D02*
X44560000Y6162500D01*
X44890000Y6402500D01*
X44890000Y5922500D01*
G36*
X44890000Y5922500D02*
G01*
X44560000Y6162500D01*
X44890000Y6402500D01*
X44890000Y5922500D01*
G37*
%TO.C,R18*%
X34477500Y35657776D02*
X34477500Y36167224D01*
X35522500Y35657776D02*
X35522500Y36167224D01*
%TO.C,C5*%
X47853733Y23510000D02*
X48146267Y23510000D01*
X47853733Y22490000D02*
X48146267Y22490000D01*
%TO.C,R10*%
X38477500Y5254724D02*
X38477500Y4745276D01*
X39522500Y5254724D02*
X39522500Y4745276D01*
%TO.C,Q4*%
X49390000Y4862500D02*
X49390000Y5662500D01*
X49390000Y4862500D02*
X49390000Y4062500D01*
X52510000Y4862500D02*
X52510000Y5662500D01*
X52510000Y4862500D02*
X52510000Y4062500D01*
X52790000Y5922500D02*
X52460000Y6162500D01*
X52790000Y6402500D01*
X52790000Y5922500D01*
G36*
X52790000Y5922500D02*
G01*
X52460000Y6162500D01*
X52790000Y6402500D01*
X52790000Y5922500D01*
G37*
%TO.C,R22*%
X22477500Y33167224D02*
X22477500Y32657776D01*
X23522500Y33167224D02*
X23522500Y32657776D01*
%TO.C,D1*%
X56540000Y24135000D02*
X56540000Y21865000D01*
X56540000Y21865000D02*
X60600000Y21865000D01*
X60600000Y24135000D02*
X56540000Y24135000D01*
D13*
%TO.C,U4*%
X19587500Y5250000D02*
X19587500Y7250000D01*
X22587500Y5250000D02*
X22587500Y7250000D01*
D14*
X19937500Y4500000D02*
G75*
G02*
X19737500Y4500000I-100000J0D01*
G01*
X19737500Y4500000D02*
G75*
G02*
X19937500Y4500000I100000J0D01*
G01*
D12*
%TO.C,R11*%
X23254724Y20522500D02*
X22745276Y20522500D01*
X23254724Y19477500D02*
X22745276Y19477500D01*
%TO.C,Q5*%
X30440000Y35862500D02*
X30440000Y36662500D01*
X30440000Y35862500D02*
X30440000Y35062500D01*
X33560000Y35862500D02*
X33560000Y36662500D01*
X33560000Y35862500D02*
X33560000Y35062500D01*
X33840000Y36922500D02*
X33510000Y37162500D01*
X33840000Y37402500D01*
X33840000Y36922500D01*
G36*
X33840000Y36922500D02*
G01*
X33510000Y37162500D01*
X33840000Y37402500D01*
X33840000Y36922500D01*
G37*
%TO.C,R19*%
X29254724Y39522500D02*
X28745276Y39522500D01*
X29254724Y38477500D02*
X28745276Y38477500D01*
%TO.C,FB1*%
X68490000Y7953733D02*
X68490000Y8296267D01*
X69510000Y7953733D02*
X69510000Y8296267D01*
D10*
%TO.C,U2*%
X63250000Y31250000D02*
X64000000Y31250000D01*
X63250000Y14750000D02*
X63250000Y31250000D01*
X64000000Y14750000D02*
X63250000Y14750000D01*
X80000000Y14750000D02*
X80750000Y14750000D01*
X80750000Y31250000D02*
X80000000Y31250000D01*
X80750000Y14750000D02*
X80750000Y31250000D01*
D12*
X64000000Y13950000D02*
X63500000Y14450000D01*
X64000000Y14450000D01*
X64000000Y13950000D01*
G36*
X64000000Y13950000D02*
G01*
X63500000Y14450000D01*
X64000000Y14450000D01*
X64000000Y13950000D01*
G37*
%TO.C,R4*%
X60745276Y19522500D02*
X61254724Y19522500D01*
X60745276Y18477500D02*
X61254724Y18477500D01*
%TO.C,J3*%
X1540000Y39060000D02*
X1540000Y38140000D01*
X1540000Y38140000D02*
X3140000Y38140000D01*
X1540000Y25860000D02*
X1540000Y24940000D01*
X1540000Y24940000D02*
X9360000Y24940000D01*
X3140000Y39060000D02*
X3140000Y38140000D01*
X3140000Y38140000D02*
X3140000Y37860000D01*
X3140000Y26140000D02*
X1925000Y26140000D01*
X3140000Y26140000D02*
X3140000Y25860000D01*
X3140000Y25860000D02*
X1540000Y25860000D01*
X3140000Y24940000D02*
X3140000Y25860000D01*
X5000000Y36500000D02*
X9360000Y36500000D01*
X5000000Y27500000D02*
X5000000Y36500000D01*
X5500000Y38300000D02*
X7100000Y38300000D01*
X5500000Y37300000D02*
X5500000Y38300000D01*
X5500000Y26700000D02*
X5500000Y25700000D01*
X5500000Y25700000D02*
X7100000Y25700000D01*
X7100000Y38300000D02*
X7100000Y37300000D01*
X7100000Y37300000D02*
X5500000Y37300000D01*
X7100000Y26700000D02*
X5500000Y26700000D01*
X7100000Y26700000D02*
X9360000Y26700000D01*
X7100000Y26200000D02*
X9360000Y26200000D01*
X7100000Y25700000D02*
X7100000Y26700000D01*
X9360000Y39060000D02*
X1540000Y39060000D01*
X9360000Y27500000D02*
X5000000Y27500000D01*
X9360000Y24940000D02*
X9360000Y39060000D01*
%TO.C,C10*%
X27490000Y5283767D02*
X27490000Y4991233D01*
X28510000Y5283767D02*
X28510000Y4991233D01*
%TO.C,R3*%
X66477500Y8342224D02*
X66477500Y7832776D01*
X67522500Y8342224D02*
X67522500Y7832776D01*
%TO.C,J5*%
X29940000Y8910000D02*
X29940000Y1090000D01*
X29940000Y2690000D02*
X30860000Y2690000D01*
X29940000Y1090000D02*
X30860000Y1090000D01*
X30700000Y6650000D02*
X31700000Y6650000D01*
X30700000Y5050000D02*
X30700000Y6650000D01*
X30860000Y2690000D02*
X31140000Y2690000D01*
X30860000Y1090000D02*
X30860000Y2690000D01*
X31700000Y6650000D02*
X31700000Y5050000D01*
X31700000Y5050000D02*
X30700000Y5050000D01*
X32500000Y4550000D02*
X32500000Y8910000D01*
X33500000Y8910000D02*
X33500000Y4550000D01*
X33500000Y4550000D02*
X32500000Y4550000D01*
X34300000Y6650000D02*
X34300000Y8910000D01*
X34300000Y6650000D02*
X34300000Y5050000D01*
X34300000Y5050000D02*
X35300000Y5050000D01*
X34800000Y6650000D02*
X34800000Y8910000D01*
X34860000Y2690000D02*
X34860000Y1475000D01*
X34860000Y2690000D02*
X35140000Y2690000D01*
X35140000Y2690000D02*
X35140000Y1090000D01*
X35140000Y1090000D02*
X36060000Y1090000D01*
X35300000Y6650000D02*
X34300000Y6650000D01*
X35300000Y5050000D02*
X35300000Y6650000D01*
X36060000Y8910000D02*
X29940000Y8910000D01*
X36060000Y2690000D02*
X35140000Y2690000D01*
X36060000Y1090000D02*
X36060000Y8910000D01*
%TO.C,C1*%
X35283767Y18510000D02*
X34991233Y18510000D01*
X35283767Y17490000D02*
X34991233Y17490000D01*
%TO.C,R6*%
X43477500Y35745276D02*
X43477500Y36254724D01*
X44522500Y35745276D02*
X44522500Y36254724D01*
%TO.C,R8*%
X54477500Y4745276D02*
X54477500Y5254724D01*
X55522500Y4745276D02*
X55522500Y5254724D01*
%TO.C,R7*%
X46477500Y4745276D02*
X46477500Y5254724D01*
X47522500Y4745276D02*
X47522500Y5254724D01*
%TO.C,R14*%
X25477500Y5342224D02*
X25477500Y4832776D01*
X26522500Y5342224D02*
X26522500Y4832776D01*
%TO.C,R15*%
X20342224Y3522500D02*
X19832776Y3522500D01*
X20342224Y2477500D02*
X19832776Y2477500D01*
%TO.C,U1*%
X37227500Y25685000D02*
X37227500Y25235000D01*
X37227500Y18465000D02*
X37227500Y18915000D01*
X37677500Y25685000D02*
X37227500Y25685000D01*
X37677500Y18465000D02*
X37227500Y18465000D01*
X43997500Y25685000D02*
X44447500Y25685000D01*
X43997500Y18465000D02*
X44447500Y18465000D01*
X44447500Y25685000D02*
X44447500Y25235000D01*
X44447500Y18465000D02*
X44447500Y18915000D01*
X45377500Y18445000D02*
X44697500Y18445000D01*
X45037500Y18915000D01*
X45377500Y18445000D01*
G36*
X45377500Y18445000D02*
G01*
X44697500Y18445000D01*
X45037500Y18915000D01*
X45377500Y18445000D01*
G37*
%TO.C,Q6*%
X26390000Y35862500D02*
X26390000Y36662500D01*
X26390000Y35862500D02*
X26390000Y35062500D01*
X29510000Y35862500D02*
X29510000Y36662500D01*
X29510000Y35862500D02*
X29510000Y35062500D01*
X29790000Y36922500D02*
X29460000Y37162500D01*
X29790000Y37402500D01*
X29790000Y36922500D01*
G36*
X29790000Y36922500D02*
G01*
X29460000Y37162500D01*
X29790000Y37402500D01*
X29790000Y36922500D01*
G37*
%TO.C,C12*%
X24490000Y34146267D02*
X24490000Y33853733D01*
X25510000Y34146267D02*
X25510000Y33853733D01*
%TO.C,C3*%
X47716233Y18510000D02*
X48008767Y18510000D01*
X47716233Y17490000D02*
X48008767Y17490000D01*
%TO.C,C9*%
X17490000Y7853733D02*
X17490000Y8146267D01*
X18510000Y7853733D02*
X18510000Y8146267D01*
%TO.C,Q2*%
X61440000Y7137500D02*
X61440000Y7937500D01*
X61440000Y7137500D02*
X61440000Y6337500D01*
X64560000Y7137500D02*
X64560000Y7937500D01*
X64560000Y7137500D02*
X64560000Y6337500D01*
X64840000Y8197500D02*
X64510000Y8437500D01*
X64840000Y8677500D01*
X64840000Y8197500D01*
G36*
X64840000Y8197500D02*
G01*
X64510000Y8437500D01*
X64840000Y8677500D01*
X64840000Y8197500D01*
G37*
%TO.C,R12*%
X23342224Y18522500D02*
X22832776Y18522500D01*
X23342224Y17477500D02*
X22832776Y17477500D01*
%TO.C,C4*%
X7510000Y19991233D02*
X7510000Y20283767D01*
X6490000Y19991233D02*
X6490000Y20283767D01*
%TO.C,R5*%
X40477500Y35745276D02*
X40477500Y36254724D01*
X41522500Y35745276D02*
X41522500Y36254724D01*
%TO.C,R1*%
X8477500Y20392224D02*
X8477500Y19882776D01*
X9522500Y20392224D02*
X9522500Y19882776D01*
%TO.C,C6*%
X35490000Y27853733D02*
X35490000Y28146267D01*
X36510000Y27853733D02*
X36510000Y28146267D01*
%TD*%
M02*
