%TF.GenerationSoftware,KiCad,Pcbnew,9.0.1*%
%TF.CreationDate,2025-07-30T18:50:42+03:00*%
%TF.ProjectId,FlameSensorSender,466c616d-6553-4656-9e73-6f7253656e64,1*%
%TF.SameCoordinates,PX38aa39cPY518a060*%
%TF.FileFunction,Copper,L1,Top*%
%TF.FilePolarity,Positive*%
%FSLAX46Y46*%
G04 Gerber Fmt 4.6, Leading zero omitted, Abs format (unit mm)*
G04 Created by KiCad (PCBNEW 9.0.1) date 2025-07-30 18:50:42*
%MOMM*%
%LPD*%
G01*
G04 APERTURE LIST*
G04 Aperture macros list*
%AMRoundRect*
0 Rectangle with rounded corners*
0 $1 Rounding radius*
0 $2 $3 $4 $5 $6 $7 $8 $9 X,Y pos of 4 corners*
0 Add a 4 corners polygon primitive as box body*
4,1,4,$2,$3,$4,$5,$6,$7,$8,$9,$2,$3,0*
0 Add four circle primitives for the rounded corners*
1,1,$1+$1,$2,$3*
1,1,$1+$1,$4,$5*
1,1,$1+$1,$6,$7*
1,1,$1+$1,$8,$9*
0 Add four rect primitives between the rounded corners*
20,1,$1+$1,$2,$3,$4,$5,0*
20,1,$1+$1,$4,$5,$6,$7,0*
20,1,$1+$1,$6,$7,$8,$9,0*
20,1,$1+$1,$8,$9,$2,$3,0*%
G04 Aperture macros list end*
%TA.AperFunction,SMDPad,CuDef*%
%ADD10R,1.200000X1.820000*%
%TD*%
%TA.AperFunction,ComponentPad*%
%ADD11RoundRect,0.250000X0.625000X-0.350000X0.625000X0.350000X-0.625000X0.350000X-0.625000X-0.350000X0*%
%TD*%
%TA.AperFunction,ComponentPad*%
%ADD12O,1.750000X1.200000*%
%TD*%
%TA.AperFunction,SMDPad,CuDef*%
%ADD13RoundRect,0.237500X0.250000X0.237500X-0.250000X0.237500X-0.250000X-0.237500X0.250000X-0.237500X0*%
%TD*%
%TA.AperFunction,SMDPad,CuDef*%
%ADD14RoundRect,0.237500X-0.237500X0.250000X-0.237500X-0.250000X0.237500X-0.250000X0.237500X0.250000X0*%
%TD*%
%TA.AperFunction,SMDPad,CuDef*%
%ADD15RoundRect,0.237500X-0.237500X0.300000X-0.237500X-0.300000X0.237500X-0.300000X0.237500X0.300000X0*%
%TD*%
%TA.AperFunction,SMDPad,CuDef*%
%ADD16RoundRect,0.050000X-0.075000X0.250000X-0.075000X-0.250000X0.075000X-0.250000X0.075000X0.250000X0*%
%TD*%
%TA.AperFunction,SMDPad,CuDef*%
%ADD17RoundRect,0.050000X-0.075000X0.400000X-0.075000X-0.400000X0.075000X-0.400000X0.075000X0.400000X0*%
%TD*%
%TA.AperFunction,SMDPad,CuDef*%
%ADD18RoundRect,0.050000X-0.075000X0.600000X-0.075000X-0.600000X0.075000X-0.600000X0.075000X0.600000X0*%
%TD*%
%TA.AperFunction,SMDPad,CuDef*%
%ADD19RoundRect,0.150000X-0.150000X0.512500X-0.150000X-0.512500X0.150000X-0.512500X0.150000X0.512500X0*%
%TD*%
%TA.AperFunction,SMDPad,CuDef*%
%ADD20RoundRect,0.237500X0.237500X-0.250000X0.237500X0.250000X-0.237500X0.250000X-0.237500X-0.250000X0*%
%TD*%
%TA.AperFunction,SMDPad,CuDef*%
%ADD21RoundRect,0.237500X-0.300000X-0.237500X0.300000X-0.237500X0.300000X0.237500X-0.300000X0.237500X0*%
%TD*%
%TA.AperFunction,SMDPad,CuDef*%
%ADD22RoundRect,0.250001X-0.462499X-0.624999X0.462499X-0.624999X0.462499X0.624999X-0.462499X0.624999X0*%
%TD*%
%TA.AperFunction,SMDPad,CuDef*%
%ADD23RoundRect,0.050000X0.075000X-0.250000X0.075000X0.250000X-0.075000X0.250000X-0.075000X-0.250000X0*%
%TD*%
%TA.AperFunction,SMDPad,CuDef*%
%ADD24RoundRect,0.050000X0.075000X-0.400000X0.075000X0.400000X-0.075000X0.400000X-0.075000X-0.400000X0*%
%TD*%
%TA.AperFunction,SMDPad,CuDef*%
%ADD25RoundRect,0.050000X0.075000X-0.600000X0.075000X0.600000X-0.075000X0.600000X-0.075000X-0.600000X0*%
%TD*%
%TA.AperFunction,SMDPad,CuDef*%
%ADD26RoundRect,0.237500X0.237500X-0.287500X0.237500X0.287500X-0.237500X0.287500X-0.237500X-0.287500X0*%
%TD*%
%TA.AperFunction,SMDPad,CuDef*%
%ADD27R,1.500000X2.000000*%
%TD*%
%TA.AperFunction,SMDPad,CuDef*%
%ADD28RoundRect,0.237500X-0.250000X-0.237500X0.250000X-0.237500X0.250000X0.237500X-0.250000X0.237500X0*%
%TD*%
%TA.AperFunction,ComponentPad*%
%ADD29RoundRect,0.250000X0.350000X0.625000X-0.350000X0.625000X-0.350000X-0.625000X0.350000X-0.625000X0*%
%TD*%
%TA.AperFunction,ComponentPad*%
%ADD30O,1.200000X1.750000*%
%TD*%
%TA.AperFunction,SMDPad,CuDef*%
%ADD31RoundRect,0.237500X0.300000X0.237500X-0.300000X0.237500X-0.300000X-0.237500X0.300000X-0.237500X0*%
%TD*%
%TA.AperFunction,SMDPad,CuDef*%
%ADD32RoundRect,0.075000X0.662500X0.075000X-0.662500X0.075000X-0.662500X-0.075000X0.662500X-0.075000X0*%
%TD*%
%TA.AperFunction,SMDPad,CuDef*%
%ADD33RoundRect,0.075000X0.075000X0.662500X-0.075000X0.662500X-0.075000X-0.662500X0.075000X-0.662500X0*%
%TD*%
%TA.AperFunction,SMDPad,CuDef*%
%ADD34RoundRect,0.237500X0.237500X-0.300000X0.237500X0.300000X-0.237500X0.300000X-0.237500X-0.300000X0*%
%TD*%
%TA.AperFunction,ComponentPad*%
%ADD35R,1.700000X1.700000*%
%TD*%
%TA.AperFunction,ComponentPad*%
%ADD36C,1.700000*%
%TD*%
%TA.AperFunction,ComponentPad*%
%ADD37R,2.000000X2.000000*%
%TD*%
%TA.AperFunction,ComponentPad*%
%ADD38C,2.000000*%
%TD*%
%TA.AperFunction,ViaPad*%
%ADD39C,0.600000*%
%TD*%
%TA.AperFunction,ViaPad*%
%ADD40C,0.800000*%
%TD*%
%TA.AperFunction,ViaPad*%
%ADD41C,1.000000*%
%TD*%
%TA.AperFunction,ViaPad*%
%ADD42C,1.400000*%
%TD*%
%TA.AperFunction,Conductor*%
%ADD43C,0.200000*%
%TD*%
%TA.AperFunction,Conductor*%
%ADD44C,0.250000*%
%TD*%
%TA.AperFunction,Conductor*%
%ADD45C,0.500000*%
%TD*%
%TA.AperFunction,Conductor*%
%ADD46C,1.000000*%
%TD*%
G04 APERTURE END LIST*
D10*
%TO.P,L1,1,1*%
%TO.N,Net-(U4-L2)*%
X21860000Y12000000D03*
%TO.P,L1,2,2*%
%TO.N,Net-(U4-L1)*%
X20140000Y12000000D03*
%TD*%
%TO.P,L2,1,1*%
%TO.N,Net-(U6-L2)*%
X29140000Y27000000D03*
%TO.P,L2,2,2*%
%TO.N,Net-(U6-L1)*%
X30860000Y27000000D03*
%TD*%
D11*
%TO.P,J6,1,Pin_1*%
%TO.N,GNDD*%
X2000000Y5000000D03*
D12*
%TO.P,J6,2,Pin_2*%
%TO.N,Net-(J6-Pin_2)*%
X2000000Y7000000D03*
%TO.P,J6,3,Pin_3*%
%TO.N,Net-(J6-Pin_3)*%
X2000000Y9000000D03*
%TO.P,J6,4,Pin_4*%
%TO.N,Net-(J6-Pin_4)*%
X2000000Y11000000D03*
%TD*%
D13*
%TO.P,R2,1*%
%TO.N,Net-(Q1-G)*%
X58825000Y10000000D03*
%TO.P,R2,2*%
%TO.N,+3V3*%
X57000000Y10000000D03*
%TD*%
D14*
%TO.P,R13,1*%
%TO.N,VRAW*%
X24000000Y6000000D03*
%TO.P,R13,2*%
%TO.N,Net-(U4-PG)*%
X24000000Y4175000D03*
%TD*%
D15*
%TO.P,C2,1*%
%TO.N,+3V3*%
X43000000Y16000000D03*
%TO.P,C2,2*%
%TO.N,GNDD*%
X43000000Y14275000D03*
%TD*%
D16*
%TO.P,U6,1,EN*%
%TO.N,Net-(Q6-D)*%
X29000000Y32650000D03*
%TO.P,U6,2,MODE*%
X28500000Y32650000D03*
%TO.P,U6,3,AGND*%
%TO.N,GNDD*%
X28000000Y32650000D03*
%TO.P,U6,4,FB*%
%TO.N,Net-(U6-FB)*%
X27500000Y32650000D03*
%TO.P,U6,5,PG*%
%TO.N,Net-(U6-PG)*%
X27000000Y32650000D03*
D17*
%TO.P,U6,6,VOUT*%
%TO.N,+5V0*%
X27000000Y31000000D03*
%TO.P,U6,7,L2*%
%TO.N,Net-(U6-L2)*%
X27500000Y31000000D03*
D18*
%TO.P,U6,8,GND*%
%TO.N,GNDD*%
X28000000Y31200000D03*
D17*
%TO.P,U6,9,L1*%
%TO.N,Net-(U6-L1)*%
X28500000Y31000000D03*
%TO.P,U6,10,VIN*%
%TO.N,Net-(Q6-D)*%
X29000000Y31000000D03*
%TD*%
D15*
%TO.P,C7,1*%
%TO.N,GNDD*%
X23000000Y37862500D03*
%TO.P,C7,2*%
%TO.N,+3V3*%
X23000000Y36137500D03*
%TD*%
D19*
%TO.P,Q1,1,G*%
%TO.N,Net-(Q1-G)*%
X58950000Y8200000D03*
%TO.P,Q1,2,S*%
%TO.N,+3V3*%
X57050000Y8200000D03*
%TO.P,Q1,3,D*%
%TO.N,Net-(Q1-D)*%
X58000000Y5925000D03*
%TD*%
%TO.P,Q3,1,G*%
%TO.N,Net-(Q3-G)*%
X44000000Y6000000D03*
%TO.P,Q3,2,S*%
%TO.N,+5V0*%
X42100000Y6000000D03*
%TO.P,Q3,3,D*%
%TO.N,Net-(Q3-D)*%
X43050000Y3725000D03*
%TD*%
D20*
%TO.P,R18,1*%
%TO.N,MOSFET_GATE_SENSOR*%
X35000000Y35000000D03*
%TO.P,R18,2*%
%TO.N,Net-(Q5-G)*%
X35000000Y36825000D03*
%TD*%
D21*
%TO.P,C5,1*%
%TO.N,+3V3*%
X47137500Y23000000D03*
%TO.P,C5,2*%
%TO.N,GNDD*%
X48862500Y23000000D03*
%TD*%
D14*
%TO.P,R10,1*%
%TO.N,Net-(Q3-D)*%
X39000000Y5912500D03*
%TO.P,R10,2*%
%TO.N,Net-(J5-Pin_1)*%
X39000000Y4087500D03*
%TD*%
D19*
%TO.P,Q4,1,G*%
%TO.N,Net-(Q4-G)*%
X51900000Y6000000D03*
%TO.P,Q4,2,S*%
%TO.N,GNDD*%
X50000000Y6000000D03*
%TO.P,Q4,3,D*%
%TO.N,Net-(Q3-G)*%
X50950000Y3725000D03*
%TD*%
D14*
%TO.P,R22,1*%
%TO.N,Net-(Q6-D)*%
X23000000Y33825000D03*
%TO.P,R22,2*%
%TO.N,Net-(U6-PG)*%
X23000000Y32000000D03*
%TD*%
D22*
%TO.P,D1,1,K*%
%TO.N,GNDD*%
X57512500Y23000000D03*
%TO.P,D1,2,A*%
%TO.N,Net-(D1-A)*%
X60487500Y23000000D03*
%TD*%
D23*
%TO.P,U4,1,EN*%
%TO.N,VRAW*%
X20087500Y5350000D03*
%TO.P,U4,2,MODE*%
X20587500Y5350000D03*
%TO.P,U4,3,AGND*%
%TO.N,GNDD*%
X21087500Y5350000D03*
%TO.P,U4,4,FB*%
%TO.N,Net-(U4-FB)*%
X21587500Y5350000D03*
%TO.P,U4,5,PG*%
%TO.N,Net-(U4-PG)*%
X22087500Y5350000D03*
D24*
%TO.P,U4,6,VOUT*%
%TO.N,+3V3*%
X22087500Y7000000D03*
%TO.P,U4,7,L2*%
%TO.N,Net-(U4-L2)*%
X21587500Y7000000D03*
D25*
%TO.P,U4,8,GND*%
%TO.N,GNDD*%
X21087500Y6800000D03*
D24*
%TO.P,U4,9,L1*%
%TO.N,Net-(U4-L1)*%
X20587500Y7000000D03*
%TO.P,U4,10,VIN*%
%TO.N,VRAW*%
X20087500Y7000000D03*
%TD*%
D13*
%TO.P,R11,1*%
%TO.N,GNDD*%
X23912500Y20000000D03*
%TO.P,R11,2*%
%TO.N,VCC_BAT*%
X22087500Y20000000D03*
%TD*%
D19*
%TO.P,Q5,1,G*%
%TO.N,Net-(Q5-G)*%
X32950000Y37000000D03*
%TO.P,Q5,2,S*%
%TO.N,GNDD*%
X31050000Y37000000D03*
%TO.P,Q5,3,D*%
%TO.N,Net-(Q5-D)*%
X32000000Y34725000D03*
%TD*%
D13*
%TO.P,R19,1*%
%TO.N,Net-(Q5-D)*%
X29912500Y39000000D03*
%TO.P,R19,2*%
%TO.N,VRAW*%
X28087500Y39000000D03*
%TD*%
D26*
%TO.P,FB1,1*%
%TO.N,Net-(Q1-D)*%
X69000000Y7250000D03*
%TO.P,FB1,2*%
%TO.N,Net-(U2-VDD)*%
X69000000Y9000000D03*
%TD*%
D27*
%TO.P,U2,1,ANT*%
%TO.N,unconnected-(U2-ANT-Pad1)*%
X65000000Y15000000D03*
%TO.P,U2,2,GND*%
%TO.N,GNDD*%
X67000000Y15000000D03*
%TO.P,U2,3,VDD*%
%TO.N,Net-(U2-VDD)*%
X69000000Y15000000D03*
%TO.P,U2,4,~{RESET}*%
%TO.N,/LORA_NRST*%
X71000000Y15000000D03*
%TO.P,U2,5,VCCPA*%
%TO.N,unconnected-(U2-VCCPA-Pad5)*%
X73000000Y15000000D03*
%TO.P,U2,6,DIO1*%
%TO.N,/LORA_DIO1*%
X75000000Y15000000D03*
%TO.P,U2,7,DIO2*%
%TO.N,unconnected-(U2-DIO2-Pad7)*%
X77000000Y15000000D03*
%TO.P,U2,8,DIO3*%
%TO.N,unconnected-(U2-DIO3-Pad8)*%
X79000000Y15000000D03*
%TO.P,U2,9,GND*%
%TO.N,GNDD*%
X79000000Y31000000D03*
%TO.P,U2,10,BUSY*%
%TO.N,/LORA_BUSY*%
X77000000Y31000000D03*
%TO.P,U2,11,RF_EN*%
%TO.N,unconnected-(U2-RF_EN-Pad11)*%
X75000000Y31000000D03*
%TO.P,U2,12,SCK*%
%TO.N,/LORA_SCK*%
X73000000Y31000000D03*
%TO.P,U2,13,MISO*%
%TO.N,/LORA_MISO*%
X71000000Y31000000D03*
%TO.P,U2,14,MOSI*%
%TO.N,/LORA_MOSI*%
X69000000Y31000000D03*
%TO.P,U2,15,~{NSS}*%
%TO.N,/LORA_NSS*%
X67000000Y31000000D03*
%TO.P,U2,16,GND*%
%TO.N,GNDD*%
X65000000Y31000000D03*
%TD*%
D28*
%TO.P,R4,1*%
%TO.N,/INFO_LED*%
X60087500Y19000000D03*
%TO.P,R4,2*%
%TO.N,Net-(D1-A)*%
X61912500Y19000000D03*
%TD*%
D11*
%TO.P,J3,1,Pin_1*%
%TO.N,/V-LED*%
X3000000Y27000000D03*
D12*
%TO.P,J3,2,Pin_2*%
%TO.N,GNDD*%
X3000000Y29000000D03*
%TO.P,J3,3,Pin_3*%
%TO.N,/SENSOR_LED*%
X3000000Y31000000D03*
%TO.P,J3,4,Pin_4*%
%TO.N,GNDD*%
X3000000Y33000000D03*
%TO.P,J3,5,Pin_5*%
%TO.N,/Vo*%
X3000000Y35000000D03*
%TO.P,J3,6,Pin_6*%
%TO.N,+5V0*%
X3000000Y37000000D03*
%TD*%
D15*
%TO.P,C10,1*%
%TO.N,+3V3*%
X28000000Y6000000D03*
%TO.P,C10,2*%
%TO.N,GNDD*%
X28000000Y4275000D03*
%TD*%
D14*
%TO.P,R3,1*%
%TO.N,/MOSFET_GATE_LORA*%
X67000000Y9000000D03*
%TO.P,R3,2*%
%TO.N,Net-(Q2-G)*%
X67000000Y7175000D03*
%TD*%
D29*
%TO.P,J5,1,Pin_1*%
%TO.N,Net-(J5-Pin_1)*%
X34000000Y2550000D03*
D30*
%TO.P,J5,2,Pin_2*%
%TO.N,GNDD*%
X32000000Y2550000D03*
%TD*%
D31*
%TO.P,C1,1*%
%TO.N,+3V3*%
X36000000Y18000000D03*
%TO.P,C1,2*%
%TO.N,GNDD*%
X34275000Y18000000D03*
%TD*%
D20*
%TO.P,R6,1*%
%TO.N,/SENSOR DATA Vo*%
X44000000Y35087500D03*
%TO.P,R6,2*%
%TO.N,GNDD*%
X44000000Y36912500D03*
%TD*%
%TO.P,R8,1*%
%TO.N,Net-(Q4-G)*%
X55000000Y4087500D03*
%TO.P,R8,2*%
%TO.N,/BUZZER*%
X55000000Y5912500D03*
%TD*%
%TO.P,R7,1*%
%TO.N,+5V0*%
X47000000Y4087500D03*
%TO.P,R7,2*%
%TO.N,Net-(Q3-G)*%
X47000000Y5912500D03*
%TD*%
D14*
%TO.P,R14,1*%
%TO.N,+3V3*%
X26000000Y6000000D03*
%TO.P,R14,2*%
%TO.N,Net-(U4-FB)*%
X26000000Y4175000D03*
%TD*%
D13*
%TO.P,R15,1*%
%TO.N,Net-(U4-FB)*%
X21000000Y3000000D03*
%TO.P,R15,2*%
%TO.N,GNDD*%
X19175000Y3000000D03*
%TD*%
D32*
%TO.P,U1,1,VBAT*%
%TO.N,+3V3*%
X45000000Y19325000D03*
%TO.P,U1,2,PC13*%
%TO.N,unconnected-(U1-PC13-Pad2)*%
X45000000Y19825000D03*
%TO.P,U1,3,PC14*%
%TO.N,/INFO_LED*%
X45000000Y20325000D03*
%TO.P,U1,4,PC15*%
%TO.N,unconnected-(U1-PC15-Pad4)*%
X45000000Y20825000D03*
%TO.P,U1,5,PD0*%
%TO.N,unconnected-(U1-PD0-Pad5)*%
X45000000Y21325000D03*
%TO.P,U1,6,PD1*%
%TO.N,unconnected-(U1-PD1-Pad6)*%
X45000000Y21825000D03*
%TO.P,U1,7,NRST*%
%TO.N,/RESET_PIN*%
X45000000Y22325000D03*
%TO.P,U1,8,VSSA*%
%TO.N,GNDD*%
X45000000Y22825000D03*
%TO.P,U1,9,VDDA*%
%TO.N,+3V3*%
X45000000Y23325000D03*
%TO.P,U1,10,PA0*%
%TO.N,/SENSOR DATA Vo*%
X45000000Y23825000D03*
%TO.P,U1,11,PA1*%
%TO.N,VCC_BAT*%
X45000000Y24325000D03*
%TO.P,U1,12,PA2*%
%TO.N,/LINK_BUTTON*%
X45000000Y24825000D03*
D33*
%TO.P,U1,13,PA3*%
%TO.N,/LORA_BUSY*%
X43587500Y26237500D03*
%TO.P,U1,14,PA4*%
%TO.N,/LORA_NSS*%
X43087500Y26237500D03*
%TO.P,U1,15,PA5*%
%TO.N,/LORA_SCK*%
X42587500Y26237500D03*
%TO.P,U1,16,PA6*%
%TO.N,/LORA_MISO*%
X42087500Y26237500D03*
%TO.P,U1,17,PA7*%
%TO.N,/LORA_MOSI*%
X41587500Y26237500D03*
%TO.P,U1,18,PB0*%
%TO.N,/LORA_DIO1*%
X41087500Y26237500D03*
%TO.P,U1,19,PB1*%
%TO.N,/LORA_NRST*%
X40587500Y26237500D03*
%TO.P,U1,20,PB2*%
%TO.N,unconnected-(U1-PB2-Pad20)*%
X40087500Y26237500D03*
%TO.P,U1,21,PB10*%
%TO.N,MOSFET_GATE_SENSOR*%
X39587500Y26237500D03*
%TO.P,U1,22,PB11*%
%TO.N,/MOSFET_GATE_LORA*%
X39087500Y26237500D03*
%TO.P,U1,23,VSS*%
%TO.N,GNDD*%
X38587500Y26237500D03*
%TO.P,U1,24,VDD*%
%TO.N,+3V3*%
X38087500Y26237500D03*
D32*
%TO.P,U1,25,PB12*%
%TO.N,/SENSOR_LED*%
X36675000Y24825000D03*
%TO.P,U1,26,PB13*%
%TO.N,unconnected-(U1-PB13-Pad26)*%
X36675000Y24325000D03*
%TO.P,U1,27,PB14*%
%TO.N,unconnected-(U1-PB14-Pad27)*%
X36675000Y23825000D03*
%TO.P,U1,28,PB15*%
%TO.N,unconnected-(U1-PB15-Pad28)*%
X36675000Y23325000D03*
%TO.P,U1,29,PA8*%
%TO.N,unconnected-(U1-PA8-Pad29)*%
X36675000Y22825000D03*
%TO.P,U1,30,PA9*%
%TO.N,/USART1_TX*%
X36675000Y22325000D03*
%TO.P,U1,31,PA10*%
%TO.N,/USART1_RX*%
X36675000Y21825000D03*
%TO.P,U1,32,PA11*%
%TO.N,unconnected-(U1-PA11-Pad32)*%
X36675000Y21325000D03*
%TO.P,U1,33,PA12*%
%TO.N,unconnected-(U1-PA12-Pad33)*%
X36675000Y20825000D03*
%TO.P,U1,34,PA13*%
%TO.N,/SWDIO*%
X36675000Y20325000D03*
%TO.P,U1,35,VSS*%
%TO.N,GNDD*%
X36675000Y19825000D03*
%TO.P,U1,36,VDD*%
%TO.N,+3V3*%
X36675000Y19325000D03*
D33*
%TO.P,U1,37,PA14*%
%TO.N,/SWCLK*%
X38087500Y17912500D03*
%TO.P,U1,38,PA15*%
%TO.N,/BUZZER*%
X38587500Y17912500D03*
%TO.P,U1,39,PB3*%
%TO.N,unconnected-(U1-PB3-Pad39)*%
X39087500Y17912500D03*
%TO.P,U1,40,PB4*%
%TO.N,unconnected-(U1-PB4-Pad40)*%
X39587500Y17912500D03*
%TO.P,U1,41,PB5*%
%TO.N,unconnected-(U1-PB5-Pad41)*%
X40087500Y17912500D03*
%TO.P,U1,42,PB6*%
%TO.N,INFO_SUPPLY*%
X40587500Y17912500D03*
%TO.P,U1,43,PB7*%
%TO.N,unconnected-(U1-PB7-Pad43)*%
X41087500Y17912500D03*
%TO.P,U1,44,BOOT0*%
%TO.N,unconnected-(U1-BOOT0-Pad44)*%
X41587500Y17912500D03*
%TO.P,U1,45,PB8*%
%TO.N,unconnected-(U1-PB8-Pad45)*%
X42087500Y17912500D03*
%TO.P,U1,46,PB9*%
%TO.N,unconnected-(U1-PB9-Pad46)*%
X42587500Y17912500D03*
%TO.P,U1,47,VSS*%
%TO.N,GNDD*%
X43087500Y17912500D03*
%TO.P,U1,48,VDD*%
%TO.N,+3V3*%
X43587500Y17912500D03*
%TD*%
D19*
%TO.P,Q6,1,G*%
%TO.N,Net-(Q5-D)*%
X28900000Y37000000D03*
%TO.P,Q6,2,S*%
%TO.N,VRAW*%
X27000000Y37000000D03*
%TO.P,Q6,3,D*%
%TO.N,Net-(Q6-D)*%
X27950000Y34725000D03*
%TD*%
D15*
%TO.P,C12,1*%
%TO.N,Net-(Q6-D)*%
X25000000Y34862500D03*
%TO.P,C12,2*%
%TO.N,GNDD*%
X25000000Y33137500D03*
%TD*%
D21*
%TO.P,C3,1*%
%TO.N,+3V3*%
X47000000Y18000000D03*
%TO.P,C3,2*%
%TO.N,GNDD*%
X48725000Y18000000D03*
%TD*%
D34*
%TO.P,C9,1*%
%TO.N,VRAW*%
X18000000Y7137500D03*
%TO.P,C9,2*%
%TO.N,GNDD*%
X18000000Y8862500D03*
%TD*%
D19*
%TO.P,Q2,1,G*%
%TO.N,Net-(Q2-G)*%
X63950000Y8275000D03*
%TO.P,Q2,2,S*%
%TO.N,GNDD*%
X62050000Y8275000D03*
%TO.P,Q2,3,D*%
%TO.N,Net-(Q1-G)*%
X63000000Y6000000D03*
%TD*%
D13*
%TO.P,R12,1*%
%TO.N,Net-(BT1-+)*%
X24000000Y18000000D03*
%TO.P,R12,2*%
%TO.N,VCC_BAT*%
X22175000Y18000000D03*
%TD*%
D34*
%TO.P,C4,2*%
%TO.N,GNDD*%
X7000000Y21000000D03*
%TO.P,C4,1*%
%TO.N,/RESET_PIN*%
X7000000Y19275000D03*
%TD*%
D20*
%TO.P,R5,1*%
%TO.N,/SENSOR DATA Vo*%
X41000000Y35087500D03*
%TO.P,R5,2*%
%TO.N,/Vo*%
X41000000Y36912500D03*
%TD*%
D14*
%TO.P,R1,1*%
%TO.N,+3V3*%
X9000000Y21050000D03*
%TO.P,R1,2*%
%TO.N,/RESET_PIN*%
X9000000Y19225000D03*
%TD*%
D34*
%TO.P,C6,1*%
%TO.N,+3V3*%
X36000000Y27137500D03*
%TO.P,C6,2*%
%TO.N,GNDD*%
X36000000Y28862500D03*
%TD*%
D35*
%TO.P,J1,1,Pin_1*%
%TO.N,+3V3*%
X20000000Y35460000D03*
D36*
%TO.P,J1,2,Pin_2*%
%TO.N,/SWDIO*%
X20000000Y38000000D03*
%TO.P,J1,3,Pin_3*%
%TO.N,/SWCLK*%
X17460000Y35460000D03*
%TO.P,J1,4,Pin_4*%
%TO.N,GNDD*%
X17460000Y38000000D03*
%TD*%
D37*
%TO.P,BT1,1,+*%
%TO.N,Net-(BT1-+)*%
X24835000Y14010000D03*
D38*
%TO.P,BT1,2,-*%
%TO.N,GNDD*%
X24835000Y29000000D03*
%TD*%
D35*
%TO.P,J2,1,Pin_1*%
%TO.N,GNDD*%
X16460000Y20000000D03*
D36*
%TO.P,J2,2,Pin_2*%
%TO.N,/USART1_TX*%
X19000000Y20000000D03*
%TO.P,J2,3,Pin_3*%
%TO.N,unconnected-(J2-Pin_3-Pad3)*%
X16460000Y22540000D03*
%TO.P,J2,4,Pin_4*%
%TO.N,/USART1_RX*%
X19000000Y22540000D03*
%TD*%
D38*
%TO.P,SW1,1,1*%
%TO.N,GNDD*%
X11000000Y22000000D03*
X4500000Y22000000D03*
%TO.P,SW1,2,2*%
%TO.N,/RESET_PIN*%
X11000000Y17500000D03*
X4500000Y17500000D03*
%TD*%
D39*
%TO.N,GNDD*%
X63000000Y10000000D03*
X43000000Y38000000D03*
X28000000Y3000000D03*
X17000000Y10000000D03*
D40*
X40000000Y20000000D03*
D39*
X2000000Y15000000D03*
D41*
X72000000Y27000000D03*
D39*
X8000000Y23050000D03*
D40*
X41000000Y20000000D03*
X43000000Y23000000D03*
D39*
X21000000Y31000000D03*
X4000000Y13000000D03*
X26000000Y20000000D03*
D41*
X77000000Y19000000D03*
X77000000Y27000000D03*
D40*
X42000000Y22000000D03*
D39*
X34216892Y20000000D03*
X48000000Y7000000D03*
X24500000Y37500000D03*
D41*
X69000000Y25000000D03*
X77000000Y23000000D03*
D40*
X43000000Y21000000D03*
D41*
X67000000Y27000000D03*
D39*
X51000000Y17000000D03*
D41*
X69000000Y21000000D03*
X72000000Y23000000D03*
X75000000Y21000000D03*
D40*
X40000000Y21000000D03*
D39*
X38011765Y32011765D03*
X30000000Y36000000D03*
X55000000Y24000000D03*
X17000000Y3000000D03*
X27600000Y29480234D03*
D41*
X67000000Y23000000D03*
X75000000Y25000000D03*
D39*
X51000000Y22000000D03*
D41*
X67000000Y19000000D03*
D40*
X42000000Y23000000D03*
D39*
X42000000Y11000000D03*
X21000000Y9000000D03*
X37000000Y30000000D03*
X19000000Y31000000D03*
D41*
X72000000Y19000000D03*
D39*
X40000000Y32000000D03*
D40*
X41000000Y23000000D03*
D39*
%TO.N,+3V3*%
X31000000Y32000000D03*
X24390626Y36478000D03*
X23000000Y17000000D03*
X25000000Y17000000D03*
%TO.N,/RESET_PIN*%
X25000000Y19000000D03*
X21000000Y19000000D03*
X41000000Y13399000D03*
X28000000Y18000000D03*
X36000000Y12000000D03*
X13000000Y19000000D03*
X43762500Y21878617D03*
%TO.N,VRAW*%
X25000000Y7000000D03*
D42*
X29000000Y10000000D03*
X18000000Y5000000D03*
D39*
%TO.N,/SWDIO*%
X35000000Y21000000D03*
X35000000Y29000000D03*
X36000000Y31000000D03*
%TO.N,+5V0*%
X31000000Y12000000D03*
X41000000Y7000000D03*
X13000000Y32000000D03*
X25000000Y31000000D03*
%TO.N,/SWCLK*%
X38087500Y19168261D03*
%TO.N,/INFO_LED*%
X47000000Y20325000D03*
X58000000Y19000000D03*
X51000000Y20325000D03*
X56000000Y19000000D03*
%TO.N,/LORA_MOSI*%
X64000000Y37000000D03*
X67000000Y34000000D03*
%TO.N,/LORA_MISO*%
X67000000Y36000000D03*
X69000000Y34000000D03*
%TO.N,/LINK_BUTTON*%
X11000000Y40000000D03*
X46575735Y27575735D03*
X46601000Y37399000D03*
%TO.N,INFO_SUPPLY*%
X34281884Y12773000D03*
X19000000Y16000000D03*
X12000000Y12000000D03*
X15000000Y12000000D03*
%TO.N,/LORA_DIO1*%
X63000000Y13000000D03*
X51000000Y24000000D03*
X42000000Y24000000D03*
X75000000Y13000000D03*
%TO.N,/LORA_BUSY*%
X49000000Y33000000D03*
X54000000Y38000000D03*
%TO.N,/LORA_NRST*%
X69566393Y17566393D03*
X46000000Y29000000D03*
X40987500Y29000000D03*
X64066393Y23066393D03*
%TO.N,Net-(U6-FB)*%
X24000000Y31000000D03*
D42*
%TO.N,/V-LED*%
X9000000Y11000000D03*
X7000000Y17000000D03*
D39*
%TO.N,/MOSFET_GATE_LORA*%
X39237500Y25000000D03*
X48000000Y14000000D03*
%TO.N,/BUZZER*%
X52000000Y9000000D03*
X54000000Y7000000D03*
X38587500Y16412500D03*
X49000000Y12000000D03*
%TO.N,VCC_BAT*%
X47189235Y26962235D03*
X37000000Y36000000D03*
X22000000Y21339000D03*
X44000000Y39000000D03*
%TO.N,/USART1_RX*%
X25510263Y21661733D03*
X34000000Y22000000D03*
%TO.N,/USART1_TX*%
X34000000Y23000000D03*
X24000000Y21939000D03*
%TO.N,/SENSOR_LED*%
X34000000Y25000000D03*
X24000000Y24000000D03*
%TO.N,/SENSOR DATA Vo*%
X43000000Y25000000D03*
%TO.N,/Vo*%
X36000000Y35000000D03*
%TO.N,/SENSOR DATA Vo*%
X40017687Y30005758D03*
%TD*%
D43*
%TO.N,Net-(U6-L2)*%
X29070000Y27000000D02*
X29140000Y27000000D01*
X27000000Y29070000D02*
X29070000Y27000000D01*
X27000000Y29730177D02*
X27000000Y29070000D01*
X27500000Y31000000D02*
X27500000Y30230177D01*
X27500000Y30230177D02*
X27000000Y29730177D01*
D44*
%TO.N,Net-(U6-L1)*%
X30860000Y28131870D02*
X30860000Y27000000D01*
X28500000Y31000000D02*
X28500000Y30491870D01*
X28500000Y30491870D02*
X30860000Y28131870D01*
D43*
%TO.N,Net-(U4-L2)*%
X21661500Y11801500D02*
X21860000Y12000000D01*
X21661500Y7074000D02*
X21661500Y11801500D01*
X21587500Y7000000D02*
X21661500Y7074000D01*
D44*
%TO.N,Net-(U4-L1)*%
X20140000Y8860000D02*
X20140000Y12000000D01*
X20587500Y7000000D02*
X20587500Y8412500D01*
X20587500Y8412500D02*
X20140000Y8860000D01*
D43*
%TO.N,/LORA_BUSY*%
X77000000Y33000000D02*
X77000000Y31000000D01*
X54000000Y38000000D02*
X72000000Y38000000D01*
X72000000Y38000000D02*
X77000000Y33000000D01*
D44*
%TO.N,GNDD*%
X30000000Y36000000D02*
X31000000Y37000000D01*
X31000000Y37000000D02*
X31050000Y37000000D01*
X63000000Y9225000D02*
X62050000Y8275000D01*
X63000000Y10000000D02*
X63000000Y9225000D01*
D45*
%TO.N,/V-LED*%
X9000000Y13000000D02*
X7000000Y15000000D01*
X9000000Y11000000D02*
X9000000Y13000000D01*
X7000000Y15000000D02*
X7000000Y17000000D01*
D43*
%TO.N,/RESET_PIN*%
X9275000Y19225000D02*
X11000000Y17500000D01*
X9000000Y19225000D02*
X9275000Y19225000D01*
X7775000Y19225000D02*
X9000000Y19225000D01*
X7725000Y19275000D02*
X7775000Y19225000D01*
X7000000Y19275000D02*
X7725000Y19275000D01*
X6275000Y19275000D02*
X7000000Y19275000D01*
X4500000Y17500000D02*
X6275000Y19275000D01*
D44*
%TO.N,+3V3*%
X9950000Y21050000D02*
X9000000Y21050000D01*
X14000000Y17000000D02*
X9950000Y21050000D01*
%TO.N,GNDD*%
X44000000Y37000000D02*
X44000000Y36912500D01*
X43000000Y38000000D02*
X44000000Y37000000D01*
D43*
%TO.N,/Vo*%
X40912500Y36912500D02*
X41000000Y36912500D01*
X39000000Y35000000D02*
X40912500Y36912500D01*
X36000000Y35000000D02*
X39000000Y35000000D01*
%TO.N,/SENSOR DATA Vo*%
X41000000Y30988071D02*
X41000000Y35087500D01*
X41000000Y35087500D02*
X44000000Y35087500D01*
D44*
%TO.N,Net-(BT1-+)*%
X24000000Y18000000D02*
X24000000Y14835000D01*
X24000000Y14835000D02*
X24835000Y14000000D01*
%TO.N,GNDD*%
X7000000Y21000000D02*
X7000000Y22050000D01*
X27732130Y33276000D02*
X27950000Y33058130D01*
X28000000Y33008130D02*
X28000000Y32650000D01*
X43087500Y17912500D02*
X43087500Y19912500D01*
D46*
X79000000Y29000000D02*
X78000000Y28000000D01*
D44*
X43000000Y12000000D02*
X42000000Y11000000D01*
X37825000Y19825000D02*
X39000000Y21000000D01*
X2000000Y15000000D02*
X4000000Y13000000D01*
X38587500Y26237500D02*
X38587500Y23412500D01*
X49000000Y6000000D02*
X48000000Y7000000D01*
X27950000Y33058130D02*
X28000000Y33008130D01*
X28000000Y31200000D02*
X28000000Y29880234D01*
X50000000Y18000000D02*
X51000000Y17000000D01*
D46*
X67000000Y15000000D02*
X67000000Y18000000D01*
D44*
X7000000Y22050000D02*
X8000000Y23050000D01*
X19175000Y3000000D02*
X17000000Y3000000D01*
X38587500Y23412500D02*
X39000000Y23000000D01*
X57512500Y23000000D02*
X56000000Y23000000D01*
X18000000Y9000000D02*
X17000000Y10000000D01*
X34275000Y19941892D02*
X34275000Y18000000D01*
X45000000Y22825000D02*
X43825000Y22825000D01*
D46*
X65000000Y29000000D02*
X66000000Y28000000D01*
D44*
X34216892Y20000000D02*
X34275000Y19941892D01*
X36000000Y29000000D02*
X37000000Y30000000D01*
D46*
X79000000Y31000000D02*
X79000000Y29000000D01*
D44*
X21000000Y9000000D02*
X21087500Y8912500D01*
X28000000Y29880234D02*
X27600000Y29480234D01*
X48862500Y23000000D02*
X49862500Y22000000D01*
X28000000Y32650000D02*
X28000000Y31200000D01*
X21087500Y8912500D02*
X21087500Y6800000D01*
X24500000Y37500000D02*
X24137500Y37862500D01*
X50000000Y6000000D02*
X49000000Y6000000D01*
D46*
X65000000Y31000000D02*
X65000000Y29000000D01*
D44*
X28000000Y3000000D02*
X28000000Y4275000D01*
X18000000Y8862500D02*
X18000000Y9000000D01*
X36675000Y19825000D02*
X37825000Y19825000D01*
X21087500Y6800000D02*
X21087500Y5350000D01*
X49862500Y22000000D02*
X51000000Y22000000D01*
X24137500Y37862500D02*
X23000000Y37862500D01*
X40000000Y32000000D02*
X39988235Y32011765D01*
X39988235Y32011765D02*
X38011765Y32011765D01*
X25000000Y33137500D02*
X25138500Y33276000D01*
X25138500Y33276000D02*
X27732130Y33276000D01*
X21000000Y31000000D02*
X19000000Y31000000D01*
X36000000Y29000000D02*
X36000000Y28862500D01*
X56000000Y23000000D02*
X55000000Y24000000D01*
X23912500Y20000000D02*
X26000000Y20000000D01*
X43000000Y14275000D02*
X43000000Y12000000D01*
X48725000Y18000000D02*
X50000000Y18000000D01*
X43825000Y22825000D02*
X43000000Y22000000D01*
D46*
%TO.N,+3V3*%
X23087500Y8000000D02*
X25000000Y8000000D01*
D44*
X44250000Y17912500D02*
X43587500Y17912500D01*
X45000000Y18662500D02*
X44250000Y17912500D01*
X24390626Y36478000D02*
X23478000Y36478000D01*
X22087500Y7000000D02*
X23087500Y8000000D01*
X33000000Y20650000D02*
X33000000Y23000000D01*
D46*
X46000000Y11000000D02*
X46000000Y16000000D01*
D44*
X45000000Y23325000D02*
X45812500Y23325000D01*
X23478000Y36478000D02*
X23137500Y36137500D01*
X45000000Y19325000D02*
X46675000Y19325000D01*
X20677500Y36137500D02*
X20000000Y35460000D01*
X46675000Y19325000D02*
X47000000Y19000000D01*
D46*
X27000000Y8000000D02*
X30000000Y8000000D01*
D44*
X23000000Y36137500D02*
X20677500Y36137500D01*
X36000000Y27137500D02*
X37187500Y27137500D01*
X23137500Y36137500D02*
X23000000Y36137500D01*
D46*
X33000000Y11000000D02*
X30000000Y8000000D01*
D44*
X23000000Y17000000D02*
X14000000Y17000000D01*
D46*
X43000000Y8000000D02*
X46000000Y11000000D01*
D44*
X28000000Y7000000D02*
X27000000Y8000000D01*
X57000000Y10000000D02*
X57000000Y8250000D01*
X46137500Y23000000D02*
X47137500Y23000000D01*
X28000000Y6000000D02*
X28000000Y7000000D01*
D46*
X56850000Y8000000D02*
X30000000Y8000000D01*
D44*
X43587500Y16587500D02*
X43000000Y16000000D01*
D45*
X57050000Y8200000D02*
X56850000Y8000000D01*
D44*
X26000000Y7000000D02*
X25000000Y8000000D01*
X33000000Y30000000D02*
X31000000Y32000000D01*
X33000000Y29000000D02*
X33000000Y28000000D01*
X43587500Y17912500D02*
X43587500Y16587500D01*
D46*
X33000000Y11000000D02*
X33000000Y23000000D01*
D44*
X45000000Y19325000D02*
X45000000Y18662500D01*
X45812500Y23325000D02*
X46137500Y23000000D01*
D46*
X33000000Y23000000D02*
X33000000Y29000000D01*
X25000000Y8000000D02*
X27000000Y8000000D01*
D44*
X25000000Y17000000D02*
X27000000Y15000000D01*
X27000000Y15000000D02*
X27000000Y10000000D01*
X36675000Y18675000D02*
X36000000Y18000000D01*
X37187500Y27137500D02*
X38087500Y26237500D01*
D46*
X33000000Y29000000D02*
X33000000Y30000000D01*
D44*
X27000000Y10000000D02*
X25000000Y8000000D01*
X36675000Y19325000D02*
X36675000Y18675000D01*
X26000000Y6000000D02*
X26000000Y7000000D01*
D43*
%TO.N,Net-(Q1-G)*%
X61150000Y6000000D02*
X63000000Y6000000D01*
X58825000Y8325000D02*
X58950000Y8200000D01*
X58950000Y8200000D02*
X61150000Y6000000D01*
X58825000Y10000000D02*
X58825000Y8325000D01*
%TO.N,Net-(Q2-G)*%
X65050000Y7175000D02*
X67000000Y7175000D01*
X63950000Y8275000D02*
X65050000Y7175000D01*
%TO.N,/RESET_PIN*%
X39399000Y13399000D02*
X41000000Y13399000D01*
X27000000Y19000000D02*
X28000000Y18000000D01*
X14000000Y18000000D02*
X20000000Y18000000D01*
X13000000Y19000000D02*
X14000000Y18000000D01*
X44208883Y22325000D02*
X43762500Y21878617D01*
X20000000Y18000000D02*
X21000000Y19000000D01*
X45000000Y22325000D02*
X44208883Y22325000D01*
X25000000Y19000000D02*
X27000000Y19000000D01*
X36000000Y12000000D02*
X38000000Y12000000D01*
X38000000Y12000000D02*
X39399000Y13399000D01*
D46*
%TO.N,VRAW*%
X22000000Y28000000D02*
X22000000Y30000000D01*
D44*
X27000000Y37000000D02*
X27000000Y37912500D01*
X23522510Y34726000D02*
X25796510Y37000000D01*
X22000000Y34203490D02*
X22000000Y30000000D01*
X27000000Y37912500D02*
X28087500Y39000000D01*
D46*
X29000000Y21000000D02*
X22000000Y28000000D01*
D44*
X20087500Y5350000D02*
X18350000Y5350000D01*
X25796510Y37000000D02*
X27000000Y37000000D01*
X23522510Y34726000D02*
X22522510Y34726000D01*
X20087500Y5350000D02*
X20587500Y5350000D01*
X18137500Y7000000D02*
X18000000Y7137500D01*
X18350000Y5350000D02*
X18000000Y5000000D01*
X20087500Y7000000D02*
X18137500Y7000000D01*
X24000000Y6000000D02*
X25000000Y7000000D01*
X22522510Y34726000D02*
X22000000Y34203490D01*
D46*
X29000000Y10000000D02*
X29000000Y21000000D01*
D44*
X18000000Y7137500D02*
X18000000Y5000000D01*
D43*
%TO.N,/SWDIO*%
X35000000Y30000000D02*
X36000000Y31000000D01*
X35000000Y21000000D02*
X35675000Y20325000D01*
X35000000Y29000000D02*
X35000000Y30000000D01*
X35675000Y20325000D02*
X36675000Y20325000D01*
D44*
%TO.N,+5V0*%
X26161000Y30161000D02*
X25839000Y30161000D01*
X8000000Y37000000D02*
X13000000Y32000000D01*
X3000000Y37000000D02*
X8000000Y37000000D01*
X31000000Y12000000D02*
X31000000Y20500000D01*
X47000000Y4087500D02*
X46374000Y4713500D01*
X26161000Y25339000D02*
X26161000Y30161000D01*
X31000000Y20500000D02*
X26161000Y25339000D01*
X41000000Y7000000D02*
X42000000Y6000000D01*
X46374000Y4713500D02*
X43386500Y4713500D01*
X42000000Y6000000D02*
X42100000Y6000000D01*
X43386500Y4713500D02*
X42100000Y6000000D01*
X26161000Y30161000D02*
X27000000Y31000000D01*
X25839000Y30161000D02*
X25000000Y31000000D01*
D43*
%TO.N,/SWCLK*%
X38087500Y19168261D02*
X38087500Y17912500D01*
D45*
%TO.N,Net-(U2-VDD)*%
X69000000Y9000000D02*
X69000000Y15000000D01*
D43*
%TO.N,Net-(D1-A)*%
X61912500Y19000000D02*
X61912500Y21575000D01*
X61912500Y21575000D02*
X60487500Y23000000D01*
%TO.N,/INFO_LED*%
X54675000Y20325000D02*
X56000000Y19000000D01*
X58000000Y19000000D02*
X60087500Y19000000D01*
X51000000Y20325000D02*
X54675000Y20325000D01*
X45000000Y20325000D02*
X47000000Y20325000D01*
%TO.N,/LORA_MOSI*%
X64000000Y37000000D02*
X48000000Y37000000D01*
X69000000Y32000000D02*
X69000000Y31000000D01*
X41587500Y30587500D02*
X41587500Y26237500D01*
X67000000Y34000000D02*
X69000000Y32000000D01*
X48000000Y37000000D02*
X41587500Y30587500D01*
%TO.N,/LORA_NSS*%
X67000000Y31352000D02*
X67000000Y31000000D01*
X43087500Y29000000D02*
X43087500Y26237500D01*
X60170000Y33000000D02*
X60050000Y33000000D01*
X62570000Y33000000D02*
X62450000Y33000000D01*
X63770000Y33000000D02*
X63650000Y33000000D01*
X59810000Y33240000D02*
X59810000Y33760000D01*
X63410000Y33240000D02*
X63410000Y34360000D01*
X61010000Y33240000D02*
X61010000Y34360000D01*
X62810000Y34360000D02*
X62810000Y33240000D01*
X61370000Y33000000D02*
X61250000Y33000000D01*
X62210000Y33240000D02*
X62210000Y34360000D01*
X60770000Y34600000D02*
X60650000Y34600000D01*
X63170000Y34600000D02*
X63050000Y34600000D01*
X48087500Y34000000D02*
X43087500Y29000000D01*
X60410000Y34360000D02*
X60410000Y33240000D01*
X48087500Y34000000D02*
X59570000Y34000000D01*
X67000000Y31000000D02*
X67000000Y31250000D01*
X61610000Y34360000D02*
X61610000Y33240000D01*
X64010000Y33760000D02*
X64010000Y33240000D01*
X61970000Y34600000D02*
X61850000Y34600000D01*
X67000000Y31250000D02*
X64250000Y34000000D01*
X64010000Y33240000D02*
G75*
G02*
X63770000Y33000000I-240000J0D01*
G01*
X62210000Y34360000D02*
G75*
G03*
X61970000Y34600000I-240000J0D01*
G01*
X60410000Y33240000D02*
G75*
G02*
X60170000Y33000000I-240000J0D01*
G01*
X61250000Y33000000D02*
G75*
G02*
X61010000Y33240000I0J240000D01*
G01*
X60650000Y34600000D02*
G75*
G03*
X60410000Y34360000I0J-240000D01*
G01*
X60050000Y33000000D02*
G75*
G02*
X59810000Y33240000I0J240000D01*
G01*
X62810000Y33240000D02*
G75*
G02*
X62570000Y33000000I-240000J0D01*
G01*
X61850000Y34600000D02*
G75*
G03*
X61610000Y34360000I0J-240000D01*
G01*
X61010000Y34360000D02*
G75*
G03*
X60770000Y34600000I-240000J0D01*
G01*
X64250000Y34000000D02*
G75*
G03*
X64010000Y33760000I0J-240000D01*
G01*
X63050000Y34600000D02*
G75*
G03*
X62810000Y34360000I0J-240000D01*
G01*
X63410000Y34360000D02*
G75*
G03*
X63170000Y34600000I-240000J0D01*
G01*
X59810000Y33760000D02*
G75*
G03*
X59570000Y34000000I-240000J0D01*
G01*
X63650000Y33000000D02*
G75*
G02*
X63410000Y33240000I0J240000D01*
G01*
X61610000Y33240000D02*
G75*
G02*
X61370000Y33000000I-240000J0D01*
G01*
X62450000Y33000000D02*
G75*
G02*
X62210000Y33240000I0J240000D01*
G01*
%TO.N,/LORA_SCK*%
X48000000Y35000000D02*
X42587500Y29587500D01*
X56702032Y35360000D02*
X56702032Y34640000D01*
X56462032Y34400000D02*
X56342032Y34400000D01*
X73000000Y31000000D02*
X73000000Y31250000D01*
X57902032Y34760000D02*
X57902032Y34640000D01*
X57662032Y34400000D02*
X57542032Y34400000D01*
X56102032Y34640000D02*
X56102032Y34760000D01*
X57302032Y34640000D02*
X57302032Y35360000D01*
X73000000Y31250000D02*
X69250000Y35000000D01*
X48000000Y35000000D02*
X55862032Y35000000D01*
X57062032Y35600000D02*
X56942032Y35600000D01*
X69250000Y35000000D02*
X58142032Y35000000D01*
X42587500Y29587500D02*
X42587500Y26237500D01*
X58142032Y35000000D02*
G75*
G03*
X57902000Y34760000I-32J-240000D01*
G01*
X56342032Y34400000D02*
G75*
G02*
X56102000Y34640000I-32J240000D01*
G01*
X57302032Y35360000D02*
G75*
G03*
X57062032Y35600032I-240032J0D01*
G01*
X57902032Y34640000D02*
G75*
G02*
X57662032Y34399968I-240032J0D01*
G01*
X57542032Y34400000D02*
G75*
G02*
X57302000Y34640000I-32J240000D01*
G01*
X56102032Y34760000D02*
G75*
G03*
X55862032Y35000032I-240032J0D01*
G01*
X56942032Y35600000D02*
G75*
G03*
X56702000Y35360000I-32J-240000D01*
G01*
X56702032Y34640000D02*
G75*
G02*
X56462032Y34399968I-240032J0D01*
G01*
%TO.N,/LORA_MISO*%
X42087500Y30087500D02*
X48000000Y36000000D01*
X69000000Y34000000D02*
X71000000Y32000000D01*
X48000000Y36000000D02*
X67000000Y36000000D01*
X71000000Y32000000D02*
X71000000Y31000000D01*
X42087500Y26237500D02*
X42087500Y30087500D01*
D45*
%TO.N,Net-(Q1-D)*%
X58000000Y5000000D02*
X60000000Y3000000D01*
X60000000Y3000000D02*
X66000000Y3000000D01*
X66000000Y3000000D02*
X69000000Y6000000D01*
X69000000Y6000000D02*
X69000000Y7250000D01*
X58000000Y5925000D02*
X58000000Y5000000D01*
D43*
%TO.N,Net-(Q3-G)*%
X47000000Y5912500D02*
X44087500Y5912500D01*
X44087500Y5912500D02*
X44000000Y6000000D01*
X50950000Y3725000D02*
X49187500Y3725000D01*
X49187500Y3725000D02*
X47000000Y5912500D01*
%TO.N,/LINK_BUTTON*%
X45000000Y26000000D02*
X45000000Y24825000D01*
X46575735Y27575735D02*
X45000000Y26000000D01*
X46601000Y37399000D02*
X44000000Y40000000D01*
X44000000Y40000000D02*
X11000000Y40000000D01*
D44*
%TO.N,INFO_SUPPLY*%
X36254678Y12773000D02*
X40587500Y17105822D01*
X34281884Y12773000D02*
X36254678Y12773000D01*
X12000000Y12000000D02*
X15000000Y12000000D01*
X40587500Y17105822D02*
X40587500Y17912500D01*
X19000000Y16000000D02*
X15000000Y12000000D01*
D43*
%TO.N,/LORA_DIO1*%
X52000000Y24000000D02*
X51000000Y24000000D01*
X75000000Y13000000D02*
X75000000Y15000000D01*
X63000000Y13000000D02*
X52000000Y24000000D01*
X41087500Y24912500D02*
X42000000Y24000000D01*
X41087500Y26237500D02*
X41087500Y24912500D01*
%TO.N,/LORA_BUSY*%
X43587500Y27587500D02*
X43587500Y26237500D01*
X49000000Y33000000D02*
X43587500Y27587500D01*
%TO.N,/LORA_NRST*%
X40987500Y28975735D02*
X40587500Y28575735D01*
X62132786Y25000000D02*
X50000000Y25000000D01*
X40587500Y28575735D02*
X40587500Y26237500D01*
X50000000Y25000000D02*
X46000000Y29000000D01*
X40987500Y29000000D02*
X40987500Y28975735D01*
X69566393Y17566393D02*
X71000000Y16132786D01*
X71000000Y16132786D02*
X71000000Y15000000D01*
X64066393Y23066393D02*
X62132786Y25000000D01*
D44*
%TO.N,Net-(U4-PG)*%
X24000000Y4175000D02*
X23262500Y4175000D01*
X23262500Y4175000D02*
X22087500Y5350000D01*
%TO.N,Net-(U4-FB)*%
X24825000Y3000000D02*
X23262500Y3000000D01*
X21587500Y5350000D02*
X21587500Y3587500D01*
X23262500Y3000000D02*
X21587500Y4675000D01*
X21587500Y3587500D02*
X21000000Y3000000D01*
X21587500Y4675000D02*
X21587500Y5350000D01*
X26000000Y4175000D02*
X24825000Y3000000D01*
%TO.N,Net-(U6-PG)*%
X23274000Y32274000D02*
X23000000Y32000000D01*
X26624000Y32274000D02*
X23274000Y32274000D01*
X27000000Y32650000D02*
X26624000Y32274000D01*
X23186500Y32274000D02*
X23000000Y32087500D01*
%TO.N,Net-(U6-FB)*%
X27500000Y32291870D02*
X27500000Y32650000D01*
X27031130Y31823000D02*
X27500000Y32291870D01*
X24000000Y31000000D02*
X24823000Y31823000D01*
X24823000Y31823000D02*
X27031130Y31823000D01*
D43*
%TO.N,/MOSFET_GATE_LORA*%
X67000000Y9000000D02*
X67000000Y10000000D01*
X39087500Y25150000D02*
X39087500Y26237500D01*
X66000000Y11000000D02*
X67000000Y10000000D01*
X39237500Y25000000D02*
X39087500Y25150000D01*
X51000000Y11000000D02*
X66000000Y11000000D01*
X48000000Y14000000D02*
X51000000Y11000000D01*
%TO.N,/BUZZER*%
X49000000Y12000000D02*
X52000000Y9000000D01*
X54000000Y6912500D02*
X55000000Y5912500D01*
X54000000Y7000000D02*
X54000000Y6912500D01*
X38587500Y16412500D02*
X38587500Y17912500D01*
D44*
%TO.N,VCC_BAT*%
X22087500Y20000000D02*
X22087500Y18087500D01*
X22000000Y21339000D02*
X22000000Y20087500D01*
X47189235Y25189235D02*
X46325000Y24325000D01*
X46325000Y24325000D02*
X45000000Y24325000D01*
X47189235Y26962235D02*
X47189235Y25189235D01*
X22087500Y18087500D02*
X22175000Y18000000D01*
X22000000Y20087500D02*
X22087500Y20000000D01*
X40000000Y39000000D02*
X44000000Y39000000D01*
X37000000Y36000000D02*
X40000000Y39000000D01*
D43*
%TO.N,MOSFET_GATE_SENSOR*%
X39587500Y26237500D02*
X39587500Y29500000D01*
X39587500Y29500000D02*
X35000000Y34087500D01*
X35000000Y34087500D02*
X35000000Y35000000D01*
%TO.N,Net-(J5-Pin_1)*%
X35537500Y4087500D02*
X34000000Y2550000D01*
X39000000Y4087500D02*
X35537500Y4087500D01*
D44*
%TO.N,Net-(Q6-D)*%
X23962500Y33825000D02*
X23000000Y33825000D01*
X27950000Y34725000D02*
X25137500Y34725000D01*
X28500000Y32650000D02*
X29000000Y32650000D01*
X28500000Y34175000D02*
X27950000Y34725000D01*
X25000000Y34862500D02*
X23962500Y33825000D01*
X28500000Y32650000D02*
X28500000Y34175000D01*
X25137500Y34725000D02*
X25000000Y34862500D01*
X29000000Y32650000D02*
X29000000Y31000000D01*
D43*
%TO.N,/USART1_RX*%
X25510263Y21661733D02*
X25500499Y21671497D01*
X24631497Y22540000D02*
X19000000Y22540000D01*
X36675000Y21825000D02*
X34175000Y21825000D01*
X25500499Y21671497D02*
X25500000Y21671497D01*
X25500000Y21671497D02*
X24631497Y22540000D01*
X34175000Y21825000D02*
X34000000Y22000000D01*
%TO.N,/USART1_TX*%
X36675000Y22325000D02*
X34675000Y22325000D01*
X24000000Y21939000D02*
X20939000Y21939000D01*
X34675000Y22325000D02*
X34000000Y23000000D01*
X20939000Y21939000D02*
X19000000Y20000000D01*
%TO.N,Net-(Q3-D)*%
X39087500Y5912500D02*
X39000000Y5912500D01*
X41275000Y3725000D02*
X39087500Y5912500D01*
X43050000Y3725000D02*
X41275000Y3725000D01*
%TO.N,Net-(Q4-G)*%
X55000000Y4087500D02*
X53812500Y4087500D01*
X53812500Y4087500D02*
X51900000Y6000000D01*
%TO.N,Net-(Q5-D)*%
X30275000Y34725000D02*
X28900000Y36100000D01*
X28900000Y37000000D02*
X28900000Y37987500D01*
X28900000Y36100000D02*
X28900000Y37000000D01*
X28900000Y37987500D02*
X29912500Y39000000D01*
X32000000Y34725000D02*
X30275000Y34725000D01*
%TO.N,Net-(Q5-G)*%
X33125000Y36825000D02*
X32950000Y37000000D01*
X35000000Y36825000D02*
X33125000Y36825000D01*
%TO.N,/SENSOR_LED*%
X35175000Y24825000D02*
X36675000Y24825000D01*
X14000000Y25000000D02*
X8000000Y31000000D01*
X8000000Y31000000D02*
X3000000Y31000000D01*
X35000000Y25000000D02*
X35175000Y24825000D01*
X24000000Y24000000D02*
X22000000Y24000000D01*
X34000000Y25000000D02*
X35000000Y25000000D01*
X21000000Y25000000D02*
X14000000Y25000000D01*
X22000000Y24000000D02*
X21000000Y25000000D01*
%TO.N,/SENSOR DATA Vo*%
X41000000Y30988071D02*
X40017687Y30005758D01*
X45000000Y23825000D02*
X44175000Y23825000D01*
X44175000Y23825000D02*
X43000000Y25000000D01*
%TD*%
%TA.AperFunction,Conductor*%
%TO.N,GNDD*%
G36*
X41088942Y24057815D02*
G01*
X41109584Y24041181D01*
X41165425Y23985340D01*
X41198910Y23924017D01*
X41199361Y23921851D01*
X41230261Y23766509D01*
X41230264Y23766499D01*
X41290602Y23620828D01*
X41290609Y23620815D01*
X41378210Y23489712D01*
X41378213Y23489708D01*
X41489707Y23378214D01*
X41489711Y23378211D01*
X41620814Y23290610D01*
X41620827Y23290603D01*
X41766498Y23230265D01*
X41766503Y23230263D01*
X41921153Y23199501D01*
X41921156Y23199500D01*
X41921158Y23199500D01*
X42078844Y23199500D01*
X42078845Y23199501D01*
X42233497Y23230263D01*
X42379179Y23290606D01*
X42510289Y23378211D01*
X42621789Y23489711D01*
X42709394Y23620821D01*
X42769737Y23766503D01*
X42800500Y23921158D01*
X42800500Y23953500D01*
X42803050Y23962186D01*
X42801762Y23971147D01*
X42812740Y23995188D01*
X42820185Y24020539D01*
X42827025Y24026467D01*
X42830787Y24034703D01*
X42853021Y24048993D01*
X42872989Y24066294D01*
X42883503Y24068582D01*
X42889565Y24072477D01*
X42924500Y24077500D01*
X43021903Y24077500D01*
X43088942Y24057815D01*
X43109584Y24041181D01*
X43551181Y23599584D01*
X43584666Y23538261D01*
X43587500Y23511903D01*
X43587500Y22755439D01*
X43567815Y22688400D01*
X43515011Y22642645D01*
X43510953Y22640878D01*
X43383323Y22588013D01*
X43383314Y22588008D01*
X43252211Y22500407D01*
X43252207Y22500404D01*
X43140713Y22388910D01*
X43140710Y22388906D01*
X43053109Y22257803D01*
X43053102Y22257790D01*
X42992764Y22112119D01*
X42992761Y22112107D01*
X42962000Y21957464D01*
X42962000Y21799771D01*
X42992761Y21645128D01*
X42992764Y21645116D01*
X43053102Y21499445D01*
X43053109Y21499432D01*
X43140710Y21368329D01*
X43140713Y21368325D01*
X43252207Y21256831D01*
X43252211Y21256828D01*
X43383314Y21169227D01*
X43383327Y21169220D01*
X43510952Y21116357D01*
X43565356Y21072517D01*
X43587421Y21006223D01*
X43587500Y21001796D01*
X43587500Y19274027D01*
X43567815Y19206988D01*
X43515011Y19161233D01*
X43478668Y19152067D01*
X43478805Y19151030D01*
X43362264Y19135687D01*
X43362263Y19135687D01*
X43244576Y19086939D01*
X43236398Y19085313D01*
X43232058Y19082523D01*
X43197123Y19077500D01*
X42977877Y19077500D01*
X42930424Y19086939D01*
X42815297Y19134626D01*
X42812736Y19135687D01*
X42798198Y19137601D01*
X42700227Y19150500D01*
X42700220Y19150500D01*
X42474780Y19150500D01*
X42474772Y19150500D01*
X42388006Y19139076D01*
X42362264Y19135687D01*
X42362262Y19135687D01*
X42354208Y19134626D01*
X42353816Y19137601D01*
X42321184Y19137601D01*
X42320792Y19134626D01*
X42312737Y19135687D01*
X42312736Y19135687D01*
X42283771Y19139501D01*
X42200227Y19150500D01*
X42200220Y19150500D01*
X41974780Y19150500D01*
X41974772Y19150500D01*
X41888006Y19139076D01*
X41862264Y19135687D01*
X41862262Y19135687D01*
X41854208Y19134626D01*
X41853816Y19137601D01*
X41821184Y19137601D01*
X41820792Y19134626D01*
X41812737Y19135687D01*
X41812736Y19135687D01*
X41783771Y19139501D01*
X41700227Y19150500D01*
X41700220Y19150500D01*
X41474780Y19150500D01*
X41474772Y19150500D01*
X41388006Y19139076D01*
X41362264Y19135687D01*
X41362262Y19135687D01*
X41354208Y19134626D01*
X41353816Y19137601D01*
X41321184Y19137601D01*
X41320792Y19134626D01*
X41312737Y19135687D01*
X41312736Y19135687D01*
X41283771Y19139501D01*
X41200227Y19150500D01*
X41200220Y19150500D01*
X40974780Y19150500D01*
X40974772Y19150500D01*
X40888006Y19139076D01*
X40862264Y19135687D01*
X40862262Y19135687D01*
X40854208Y19134626D01*
X40853816Y19137601D01*
X40821184Y19137601D01*
X40820792Y19134626D01*
X40812737Y19135687D01*
X40812736Y19135687D01*
X40783771Y19139501D01*
X40700227Y19150500D01*
X40700220Y19150500D01*
X40474780Y19150500D01*
X40474772Y19150500D01*
X40388006Y19139076D01*
X40362264Y19135687D01*
X40362262Y19135687D01*
X40354208Y19134626D01*
X40353816Y19137601D01*
X40321184Y19137601D01*
X40320792Y19134626D01*
X40312737Y19135687D01*
X40312736Y19135687D01*
X40283771Y19139501D01*
X40200227Y19150500D01*
X40200220Y19150500D01*
X39974780Y19150500D01*
X39974772Y19150500D01*
X39888006Y19139076D01*
X39862264Y19135687D01*
X39862262Y19135687D01*
X39854208Y19134626D01*
X39853816Y19137601D01*
X39821184Y19137601D01*
X39820792Y19134626D01*
X39812737Y19135687D01*
X39812736Y19135687D01*
X39783771Y19139501D01*
X39700227Y19150500D01*
X39700220Y19150500D01*
X39474780Y19150500D01*
X39474772Y19150500D01*
X39388006Y19139076D01*
X39362264Y19135687D01*
X39362262Y19135687D01*
X39354208Y19134626D01*
X39353816Y19137601D01*
X39321184Y19137601D01*
X39320792Y19134626D01*
X39312737Y19135687D01*
X39312736Y19135687D01*
X39283771Y19139501D01*
X39200227Y19150500D01*
X39200220Y19150500D01*
X39008980Y19150500D01*
X38941941Y19170185D01*
X38896186Y19222989D01*
X38887363Y19250308D01*
X38857238Y19401753D01*
X38857237Y19401754D01*
X38857237Y19401758D01*
X38857235Y19401763D01*
X38796897Y19547434D01*
X38796890Y19547447D01*
X38709289Y19678550D01*
X38709286Y19678554D01*
X38623819Y19764021D01*
X38590334Y19825344D01*
X38587500Y19851702D01*
X38587500Y23953500D01*
X38607185Y24020539D01*
X38659989Y24066294D01*
X38711500Y24077500D01*
X41021903Y24077500D01*
X41088942Y24057815D01*
G37*
%TD.AperFunction*%
%TD*%
%TA.AperFunction,Conductor*%
%TO.N,+3V3*%
G36*
X48000001Y21999999D02*
G01*
X49931454Y21034273D01*
X49982613Y20986686D01*
X50000000Y20923364D01*
X50000000Y20076637D01*
X49980315Y20009598D01*
X49931455Y19965728D01*
X48000000Y19000001D01*
X48000000Y22000000D01*
X48000001Y21999999D01*
G37*
%TD.AperFunction*%
%TD*%
%TA.AperFunction,Conductor*%
%TO.N,GNDD*%
G36*
X78943039Y28980315D02*
G01*
X78988794Y28927511D01*
X79000000Y28876000D01*
X79000000Y17124000D01*
X78980315Y17056961D01*
X78927511Y17011206D01*
X78876000Y17000000D01*
X71033383Y17000000D01*
X70966344Y17019685D01*
X70945702Y17036319D01*
X70400967Y17581054D01*
X70367482Y17642377D01*
X70367031Y17644544D01*
X70336131Y17799883D01*
X70336130Y17799890D01*
X70336128Y17799895D01*
X70275790Y17945566D01*
X70275783Y17945579D01*
X70188182Y18076682D01*
X70188179Y18076686D01*
X70076685Y18188180D01*
X70076681Y18188183D01*
X69945578Y18275784D01*
X69945565Y18275791D01*
X69799894Y18336129D01*
X69799882Y18336132D01*
X69645238Y18366893D01*
X69645235Y18366893D01*
X69487551Y18366893D01*
X69487548Y18366893D01*
X69332903Y18336132D01*
X69332891Y18336129D01*
X69187220Y18275791D01*
X69187207Y18275784D01*
X69056104Y18188183D01*
X69056100Y18188180D01*
X68944606Y18076686D01*
X68944603Y18076682D01*
X68857002Y17945579D01*
X68856995Y17945566D01*
X68796657Y17799895D01*
X68796654Y17799883D01*
X68765893Y17645240D01*
X68765893Y17487547D01*
X68796654Y17332904D01*
X68796657Y17332892D01*
X68856997Y17187217D01*
X68859544Y17182452D01*
X68873785Y17114049D01*
X68848784Y17048805D01*
X68792478Y17007435D01*
X68750185Y17000000D01*
X65124000Y17000000D01*
X65056961Y17019685D01*
X65011206Y17072489D01*
X65000000Y17124000D01*
X65000000Y28876000D01*
X65019685Y28943039D01*
X65072489Y28988794D01*
X65124000Y29000000D01*
X78876000Y29000000D01*
X78943039Y28980315D01*
G37*
%TD.AperFunction*%
%TD*%
%TA.AperFunction,Conductor*%
%TO.N,+3V3*%
G36*
X37380039Y18655315D02*
G01*
X37425794Y18602511D01*
X37437000Y18551000D01*
X37437000Y17212273D01*
X37451813Y17099765D01*
X37451813Y17099764D01*
X37482988Y17024500D01*
X37509802Y16959767D01*
X37602049Y16839549D01*
X37722267Y16747302D01*
X37722268Y16747302D01*
X37722269Y16747301D01*
X37735091Y16741990D01*
X37789495Y16698150D01*
X37811560Y16631856D01*
X37809257Y16603239D01*
X37787000Y16491342D01*
X37787000Y16333654D01*
X37817761Y16179011D01*
X37817764Y16178999D01*
X37878102Y16033328D01*
X37878109Y16033315D01*
X37965710Y15902212D01*
X37965713Y15902208D01*
X38077207Y15790714D01*
X38077211Y15790711D01*
X38137763Y15750251D01*
X38182568Y15696639D01*
X38191275Y15627314D01*
X38161121Y15564286D01*
X38156553Y15559468D01*
X37983286Y15386200D01*
X37647260Y15050173D01*
X37633406Y15036319D01*
X37572083Y15002834D01*
X37545725Y15000000D01*
X33124000Y15000000D01*
X33056961Y15019685D01*
X33011206Y15072489D01*
X33000000Y15124000D01*
X33000000Y17599333D01*
X33019685Y17666372D01*
X33072489Y17712127D01*
X33141647Y17722071D01*
X33205203Y17693046D01*
X33242977Y17634268D01*
X33246973Y17613894D01*
X33247325Y17612248D01*
X33251605Y17599333D01*
X33301592Y17448484D01*
X33392160Y17301650D01*
X33514150Y17179660D01*
X33660984Y17089092D01*
X33824747Y17034826D01*
X33925823Y17024500D01*
X34624176Y17024501D01*
X34624184Y17024502D01*
X34624187Y17024502D01*
X34679530Y17030156D01*
X34725253Y17034826D01*
X34889016Y17089092D01*
X35035850Y17179660D01*
X35050171Y17193982D01*
X35111489Y17227467D01*
X35181181Y17222486D01*
X35225534Y17193983D01*
X35239461Y17180056D01*
X35239465Y17180053D01*
X35386188Y17089552D01*
X35386199Y17089547D01*
X35549847Y17035320D01*
X35650851Y17025001D01*
X36250000Y17025001D01*
X36349140Y17025001D01*
X36349154Y17025002D01*
X36450152Y17035320D01*
X36613800Y17089547D01*
X36613811Y17089552D01*
X36760534Y17180053D01*
X36760538Y17180056D01*
X36882444Y17301962D01*
X36882447Y17301966D01*
X36972948Y17448689D01*
X36972953Y17448700D01*
X37027180Y17612348D01*
X37037499Y17713346D01*
X37037500Y17713359D01*
X37037500Y17750000D01*
X36250000Y17750000D01*
X36250000Y17025001D01*
X35650851Y17025001D01*
X35750000Y17025002D01*
X35750000Y17876000D01*
X35769685Y17943039D01*
X35822489Y17988794D01*
X35874000Y18000000D01*
X36000000Y18000000D01*
X36000000Y18126000D01*
X36019685Y18193039D01*
X36072489Y18238794D01*
X36124000Y18250000D01*
X37037499Y18250000D01*
X37037499Y18286640D01*
X37037498Y18286655D01*
X37027180Y18387654D01*
X36985978Y18511997D01*
X36983576Y18581825D01*
X37019308Y18641867D01*
X37081829Y18673059D01*
X37103684Y18675000D01*
X37313000Y18675000D01*
X37380039Y18655315D01*
G37*
%TD.AperFunction*%
%TA.AperFunction,Conductor*%
G36*
X47939272Y24995335D02*
G01*
X47986883Y24944199D01*
X48000000Y24888693D01*
X48000000Y23979230D01*
X47980315Y23912191D01*
X47927511Y23866436D01*
X47858353Y23856492D01*
X47810903Y23873691D01*
X47751305Y23910452D01*
X47751300Y23910454D01*
X47587652Y23964681D01*
X47486654Y23975000D01*
X47387500Y23975000D01*
X47387500Y22025001D01*
X47486640Y22025001D01*
X47486654Y22025002D01*
X47587652Y22035320D01*
X47751300Y22089547D01*
X47751307Y22089550D01*
X47810902Y22126309D01*
X47878294Y22144750D01*
X47944958Y22123828D01*
X47989728Y22070187D01*
X48000000Y22020771D01*
X48000000Y19000001D01*
X48000000Y18907553D01*
X47991355Y18878113D01*
X47984832Y18848126D01*
X47981077Y18843111D01*
X47980315Y18840514D01*
X47963681Y18819872D01*
X47949827Y18806018D01*
X47888504Y18772533D01*
X47818812Y18777517D01*
X47774465Y18806018D01*
X47760538Y18819945D01*
X47760534Y18819948D01*
X47613811Y18910449D01*
X47613800Y18910454D01*
X47450152Y18964681D01*
X47349154Y18975000D01*
X47250000Y18975000D01*
X47250000Y17025001D01*
X47349140Y17025001D01*
X47349154Y17025002D01*
X47450152Y17035320D01*
X47613800Y17089547D01*
X47613811Y17089552D01*
X47760535Y17180053D01*
X47774460Y17193979D01*
X47782409Y17198321D01*
X47787836Y17205569D01*
X47812590Y17214802D01*
X47835782Y17227467D01*
X47844815Y17226822D01*
X47853300Y17229986D01*
X47879117Y17224370D01*
X47905473Y17222486D01*
X47914529Y17216667D01*
X47921573Y17215134D01*
X47949827Y17193983D01*
X47963681Y17180129D01*
X47997166Y17118806D01*
X48000000Y17092448D01*
X48000000Y15124000D01*
X47980315Y15056961D01*
X47927511Y15011206D01*
X47876000Y15000000D01*
X43907552Y15000000D01*
X43840513Y15019685D01*
X43819871Y15036319D01*
X43806017Y15050173D01*
X43772532Y15111496D01*
X43777516Y15181188D01*
X43806021Y15225540D01*
X43819947Y15239465D01*
X43910448Y15386189D01*
X43910453Y15386200D01*
X43964680Y15549848D01*
X43974999Y15650846D01*
X43975000Y15650859D01*
X43975000Y15750000D01*
X42025001Y15750000D01*
X42025001Y15650846D01*
X42035319Y15549848D01*
X42089546Y15386200D01*
X42089551Y15386189D01*
X42180052Y15239466D01*
X42180055Y15239462D01*
X42193981Y15225536D01*
X42198316Y15217596D01*
X42205562Y15212173D01*
X42214800Y15187408D01*
X42227466Y15164213D01*
X42226820Y15155188D01*
X42229983Y15146710D01*
X42224367Y15120888D01*
X42222482Y15094521D01*
X42216665Y15085470D01*
X42215136Y15078436D01*
X42193988Y15050180D01*
X42180135Y15036325D01*
X42118814Y15002836D01*
X42092447Y15000000D01*
X39665631Y15000000D01*
X39598592Y15019685D01*
X39552837Y15072489D01*
X39542893Y15141647D01*
X39571918Y15205203D01*
X39577950Y15211681D01*
X41004450Y16638181D01*
X41065773Y16671666D01*
X41092131Y16674500D01*
X41200213Y16674500D01*
X41200220Y16674500D01*
X41312736Y16689313D01*
X41312736Y16689314D01*
X41320795Y16690374D01*
X41321198Y16687311D01*
X41353802Y16687311D01*
X41354205Y16690374D01*
X41362263Y16689314D01*
X41362264Y16689313D01*
X41474780Y16674500D01*
X41474787Y16674500D01*
X41700213Y16674500D01*
X41700220Y16674500D01*
X41812736Y16689313D01*
X41812739Y16689315D01*
X41818365Y16690055D01*
X41818478Y16690107D01*
X41818682Y16690096D01*
X41820795Y16690374D01*
X41820847Y16689978D01*
X41834484Y16689234D01*
X41853769Y16690503D01*
X41862030Y16689410D01*
X41862264Y16689313D01*
X41955411Y16677050D01*
X41987834Y16662681D01*
X42019221Y16648796D01*
X42019245Y16648760D01*
X42019287Y16648741D01*
X42038708Y16619253D01*
X42057693Y16590472D01*
X42057693Y16590428D01*
X42057718Y16590390D01*
X42058101Y16556137D01*
X42058525Y16520607D01*
X42058500Y16520529D01*
X42058501Y16520525D01*
X42058498Y16520522D01*
X42056846Y16515121D01*
X42035320Y16450158D01*
X42035319Y16450154D01*
X42025000Y16349155D01*
X42025000Y16250000D01*
X43974999Y16250000D01*
X43974999Y16349140D01*
X43974998Y16349155D01*
X43964680Y16450153D01*
X43911323Y16611174D01*
X43908921Y16681002D01*
X43944653Y16741044D01*
X43953543Y16748554D01*
X44072593Y16839904D01*
X44164763Y16960022D01*
X44222698Y17099892D01*
X44222699Y17099896D01*
X44237499Y17212303D01*
X44237500Y17212317D01*
X44237500Y17713346D01*
X45962501Y17713346D01*
X45972819Y17612348D01*
X46027046Y17448700D01*
X46027051Y17448689D01*
X46117552Y17301966D01*
X46117555Y17301962D01*
X46239461Y17180056D01*
X46239465Y17180053D01*
X46386188Y17089552D01*
X46386199Y17089547D01*
X46549847Y17035320D01*
X46650851Y17025001D01*
X46750000Y17025002D01*
X46750000Y17750000D01*
X45962501Y17750000D01*
X45962501Y17713346D01*
X44237500Y17713346D01*
X44237500Y17762500D01*
X43862000Y17762500D01*
X43853314Y17765051D01*
X43844353Y17763762D01*
X43820312Y17774741D01*
X43794961Y17782185D01*
X43789033Y17789026D01*
X43780797Y17792787D01*
X43766507Y17815022D01*
X43749206Y17834989D01*
X43746918Y17845504D01*
X43743023Y17851565D01*
X43738000Y17886500D01*
X43738000Y17938500D01*
X43757685Y18005539D01*
X43810489Y18051294D01*
X43862000Y18062500D01*
X44237500Y18062500D01*
X44237500Y18551000D01*
X44257185Y18618039D01*
X44309989Y18663794D01*
X44361500Y18675000D01*
X44850000Y18675000D01*
X44850000Y19050500D01*
X44852550Y19059186D01*
X44851262Y19068147D01*
X44862240Y19092188D01*
X44869685Y19117539D01*
X44876525Y19123467D01*
X44880287Y19131703D01*
X44902521Y19145993D01*
X44922489Y19163294D01*
X44933003Y19165582D01*
X44939065Y19169477D01*
X44974000Y19174500D01*
X45026000Y19174500D01*
X45093039Y19154815D01*
X45138794Y19102011D01*
X45150000Y19050500D01*
X45150000Y18675000D01*
X45700183Y18675000D01*
X45700197Y18675001D01*
X45812602Y18689800D01*
X45863940Y18711065D01*
X45933410Y18718534D01*
X45995889Y18687260D01*
X46031542Y18627171D01*
X46029100Y18557501D01*
X45972819Y18387655D01*
X45972819Y18387654D01*
X45962500Y18286655D01*
X45962500Y18250000D01*
X46750000Y18250000D01*
X46750000Y18975001D01*
X46650860Y18975000D01*
X46650844Y18974999D01*
X46549847Y18964681D01*
X46386199Y18910454D01*
X46379649Y18907399D01*
X46378925Y18908952D01*
X46320225Y18892893D01*
X46253563Y18913819D01*
X46208796Y18967463D01*
X46200138Y19036794D01*
X46207966Y19064325D01*
X46222699Y19099895D01*
X46222699Y19099897D01*
X46232588Y19175000D01*
X46198135Y19175000D01*
X46184511Y19179001D01*
X46170337Y19178156D01*
X46151652Y19188649D01*
X46131096Y19194685D01*
X46121798Y19205415D01*
X46109417Y19212368D01*
X46099371Y19231297D01*
X46085341Y19247489D01*
X46083320Y19261544D01*
X46076664Y19274086D01*
X46078446Y19295438D01*
X46075397Y19316647D01*
X46081408Y19330921D01*
X46082477Y19343713D01*
X46099759Y19374486D01*
X46139660Y19426486D01*
X46196088Y19467689D01*
X46231605Y19473880D01*
X46232588Y19475001D01*
X46221696Y19557730D01*
X46221831Y19591096D01*
X46222970Y19599242D01*
X46223187Y19599764D01*
X46225476Y19617157D01*
X46225550Y19617680D01*
X46239728Y19649041D01*
X46253682Y19680583D01*
X46254118Y19680871D01*
X46254333Y19681346D01*
X46283234Y19700076D01*
X46312007Y19719053D01*
X46312673Y19719153D01*
X46312967Y19719343D01*
X46313967Y19719347D01*
X46348354Y19724500D01*
X46420234Y19724500D01*
X46487273Y19704815D01*
X46489125Y19703602D01*
X46620814Y19615610D01*
X46620827Y19615603D01*
X46701398Y19582230D01*
X46766503Y19555263D01*
X46921153Y19524501D01*
X46921156Y19524500D01*
X46921158Y19524500D01*
X47078844Y19524500D01*
X47078845Y19524501D01*
X47233497Y19555263D01*
X47346166Y19601933D01*
X47379172Y19615603D01*
X47379172Y19615604D01*
X47379179Y19615606D01*
X47510289Y19703211D01*
X47621789Y19814711D01*
X47709394Y19945821D01*
X47769737Y20091503D01*
X47800500Y20246158D01*
X47800500Y20403842D01*
X47800500Y20403845D01*
X47800499Y20403847D01*
X47769738Y20558490D01*
X47769737Y20558497D01*
X47743521Y20621789D01*
X47709397Y20704173D01*
X47709390Y20704186D01*
X47621789Y20835289D01*
X47621786Y20835293D01*
X47510292Y20946787D01*
X47510288Y20946790D01*
X47379185Y21034391D01*
X47379172Y21034398D01*
X47233501Y21094736D01*
X47233489Y21094739D01*
X47078845Y21125500D01*
X47078842Y21125500D01*
X46921158Y21125500D01*
X46921155Y21125500D01*
X46766510Y21094739D01*
X46766498Y21094736D01*
X46620827Y21034398D01*
X46620814Y21034391D01*
X46489125Y20946398D01*
X46471078Y20940748D01*
X46455169Y20930523D01*
X46424207Y20926072D01*
X46422447Y20925520D01*
X46420234Y20925500D01*
X46348354Y20925500D01*
X46281315Y20945185D01*
X46235560Y20997989D01*
X46225415Y21033313D01*
X46222126Y21058293D01*
X46225189Y21058697D01*
X46225189Y21091302D01*
X46222126Y21091705D01*
X46229405Y21146994D01*
X46238000Y21212280D01*
X46238000Y21437720D01*
X46223187Y21550236D01*
X46223186Y21550237D01*
X46222126Y21558295D01*
X46225189Y21558699D01*
X46225189Y21591302D01*
X46222126Y21591705D01*
X46225960Y21620828D01*
X46238000Y21712280D01*
X46238000Y21937720D01*
X46225055Y22036047D01*
X46235820Y22105082D01*
X46282200Y22157338D01*
X46349469Y22176223D01*
X46413092Y22157770D01*
X46523692Y22089550D01*
X46523699Y22089547D01*
X46687347Y22035320D01*
X46788351Y22025001D01*
X46887500Y22025002D01*
X46887500Y23951550D01*
X46907185Y24018589D01*
X46923814Y24039226D01*
X47587964Y24703375D01*
X47587968Y24703377D01*
X47675093Y24790502D01*
X47726491Y24867426D01*
X47743547Y24892950D01*
X47761439Y24936147D01*
X47805279Y24990548D01*
X47871573Y25012614D01*
X47939272Y24995335D01*
G37*
%TD.AperFunction*%
%TA.AperFunction,Conductor*%
G36*
X33205203Y21792730D02*
G01*
X33238561Y21746469D01*
X33290602Y21620828D01*
X33290609Y21620815D01*
X33378210Y21489712D01*
X33378213Y21489708D01*
X33489707Y21378214D01*
X33489711Y21378211D01*
X33620814Y21290610D01*
X33620827Y21290603D01*
X33766498Y21230265D01*
X33766503Y21230263D01*
X33921153Y21199501D01*
X33921156Y21199500D01*
X34075500Y21199500D01*
X34084165Y21196956D01*
X34093105Y21198244D01*
X34117168Y21187265D01*
X34142539Y21179815D01*
X34148451Y21172992D01*
X34156671Y21169241D01*
X34170978Y21146994D01*
X34188294Y21127011D01*
X34190578Y21116519D01*
X34194465Y21110475D01*
X34199482Y21075624D01*
X34199500Y21075542D01*
X34199500Y20921158D01*
X34199552Y20920893D01*
X34199555Y20914541D01*
X34191339Y20886527D01*
X34185856Y20857844D01*
X34181621Y20853390D01*
X34179893Y20847495D01*
X34157834Y20828368D01*
X34137716Y20807205D01*
X34130126Y20804343D01*
X34127105Y20801722D01*
X34120754Y20800807D01*
X34099747Y20792882D01*
X33983400Y20769739D01*
X33983390Y20769736D01*
X33837719Y20709398D01*
X33837706Y20709391D01*
X33706603Y20621790D01*
X33706599Y20621787D01*
X33595105Y20510293D01*
X33595102Y20510289D01*
X33507501Y20379186D01*
X33507494Y20379173D01*
X33447156Y20233502D01*
X33447153Y20233490D01*
X33416392Y20078847D01*
X33416392Y19921154D01*
X33447153Y19766511D01*
X33447156Y19766499D01*
X33507494Y19620828D01*
X33507501Y19620815D01*
X33595102Y19489712D01*
X33595104Y19489709D01*
X33613179Y19471635D01*
X33646666Y19410313D01*
X33649500Y19383952D01*
X33649500Y18973032D01*
X33629815Y18905993D01*
X33590597Y18867494D01*
X33514153Y18820343D01*
X33514149Y18820340D01*
X33392161Y18698352D01*
X33301593Y18551519D01*
X33301591Y18551514D01*
X33247326Y18387752D01*
X33245908Y18381129D01*
X33244638Y18381401D01*
X33220962Y18323375D01*
X33163781Y18283223D01*
X33093970Y18280360D01*
X33033693Y18315694D01*
X33002088Y18378007D01*
X33000000Y18400669D01*
X33000000Y21699017D01*
X33019685Y21766056D01*
X33072489Y21811811D01*
X33141647Y21821755D01*
X33205203Y21792730D01*
G37*
%TD.AperFunction*%
%TA.AperFunction,Conductor*%
G36*
X33205203Y22792730D02*
G01*
X33238561Y22746469D01*
X33290602Y22620828D01*
X33290609Y22620815D01*
X33325304Y22568891D01*
X33328895Y22557423D01*
X33336490Y22548107D01*
X33339142Y22524696D01*
X33346182Y22502214D01*
X33343199Y22488892D01*
X33344356Y22478681D01*
X33336547Y22459184D01*
X33333401Y22445130D01*
X33329808Y22437851D01*
X33290606Y22379179D01*
X33237005Y22249776D01*
X33235199Y22246114D01*
X33214189Y22223289D01*
X33194720Y22199128D01*
X33190729Y22197800D01*
X33187882Y22194706D01*
X33157868Y22186863D01*
X33128426Y22177063D01*
X33124350Y22178104D01*
X33120282Y22177040D01*
X33090787Y22186670D01*
X33060727Y22194342D01*
X33057861Y22197420D01*
X33053863Y22198725D01*
X33034255Y22222774D01*
X33013116Y22245479D01*
X33012043Y22250018D01*
X33009712Y22252877D01*
X33008186Y22266339D01*
X33000000Y22300984D01*
X33000000Y22699017D01*
X33019685Y22766056D01*
X33072489Y22811811D01*
X33141647Y22821755D01*
X33205203Y22792730D01*
G37*
%TD.AperFunction*%
%TA.AperFunction,Conductor*%
G36*
X33205203Y24792730D02*
G01*
X33238561Y24746469D01*
X33290602Y24620828D01*
X33290609Y24620815D01*
X33378210Y24489712D01*
X33378213Y24489708D01*
X33489707Y24378214D01*
X33489711Y24378211D01*
X33620814Y24290610D01*
X33620827Y24290603D01*
X33751460Y24236494D01*
X33766503Y24230263D01*
X33894438Y24204815D01*
X33921153Y24199501D01*
X33921156Y24199500D01*
X33921158Y24199500D01*
X34078844Y24199500D01*
X34078845Y24199501D01*
X34233497Y24230263D01*
X34379179Y24290606D01*
X34379185Y24290610D01*
X34510875Y24378602D01*
X34528921Y24384253D01*
X34544831Y24394477D01*
X34575792Y24398929D01*
X34577553Y24399480D01*
X34579766Y24399500D01*
X34699902Y24399500D01*
X34766941Y24379815D01*
X34787583Y24363181D01*
X34806284Y24344480D01*
X34806286Y24344479D01*
X34806290Y24344476D01*
X34943209Y24265427D01*
X34943216Y24265423D01*
X35051181Y24236494D01*
X35095942Y24224500D01*
X35095943Y24224500D01*
X35326646Y24224500D01*
X35327213Y24224334D01*
X35327783Y24224495D01*
X35360709Y24214498D01*
X35393685Y24204815D01*
X35394072Y24204369D01*
X35394639Y24204196D01*
X35416951Y24177965D01*
X35439440Y24152011D01*
X35439652Y24151276D01*
X35439908Y24150975D01*
X35447302Y24124774D01*
X35449541Y24117021D01*
X35451813Y24099764D01*
X35451883Y24099593D01*
X35452969Y24091521D01*
X35449899Y24071477D01*
X35449899Y24058684D01*
X35452874Y24058292D01*
X35437000Y23937728D01*
X35437000Y23712273D01*
X35452874Y23591708D01*
X35449899Y23591317D01*
X35449899Y23558684D01*
X35452874Y23558292D01*
X35437000Y23437728D01*
X35437000Y23212273D01*
X35452585Y23093900D01*
X35452645Y23093772D01*
X35452632Y23093543D01*
X35452874Y23091708D01*
X35452530Y23091663D01*
X35451763Y23077500D01*
X35452969Y23058479D01*
X35451883Y23050408D01*
X35451813Y23050236D01*
X35449544Y23033006D01*
X35449541Y23032979D01*
X35435349Y23001135D01*
X35421317Y22969416D01*
X35421171Y22969320D01*
X35421100Y22969160D01*
X35391994Y22950076D01*
X35362991Y22930946D01*
X35362768Y22930913D01*
X35362670Y22930848D01*
X35362315Y22930845D01*
X35326646Y22925500D01*
X34975097Y22925500D01*
X34908058Y22945185D01*
X34887416Y22961819D01*
X34834574Y23014661D01*
X34801089Y23075984D01*
X34800638Y23078151D01*
X34776573Y23199128D01*
X34769737Y23233497D01*
X34747710Y23286676D01*
X34709397Y23379173D01*
X34709390Y23379186D01*
X34621789Y23510289D01*
X34621786Y23510293D01*
X34510292Y23621787D01*
X34510288Y23621790D01*
X34379185Y23709391D01*
X34379172Y23709398D01*
X34233501Y23769736D01*
X34233489Y23769739D01*
X34078845Y23800500D01*
X34078842Y23800500D01*
X33921158Y23800500D01*
X33921155Y23800500D01*
X33766510Y23769739D01*
X33766498Y23769736D01*
X33620827Y23709398D01*
X33620814Y23709391D01*
X33489711Y23621790D01*
X33489707Y23621787D01*
X33378213Y23510293D01*
X33378210Y23510289D01*
X33290609Y23379186D01*
X33290604Y23379177D01*
X33238561Y23253531D01*
X33194720Y23199128D01*
X33128426Y23177063D01*
X33060727Y23194342D01*
X33013116Y23245479D01*
X33000000Y23300984D01*
X33000000Y24699017D01*
X33019685Y24766056D01*
X33072489Y24811811D01*
X33141647Y24821755D01*
X33205203Y24792730D01*
G37*
%TD.AperFunction*%
%TA.AperFunction,Conductor*%
G36*
X35087810Y27980315D02*
G01*
X35133565Y27927511D01*
X35143509Y27858353D01*
X35126309Y27810902D01*
X35089549Y27751308D01*
X35089546Y27751301D01*
X35035319Y27587653D01*
X35025000Y27486655D01*
X35025000Y27387500D01*
X36974999Y27387500D01*
X36974999Y27486640D01*
X36974998Y27486655D01*
X36964680Y27587653D01*
X36910453Y27751301D01*
X36910450Y27751308D01*
X36873691Y27810902D01*
X36855250Y27878294D01*
X36876172Y27944958D01*
X36929813Y27989728D01*
X36979229Y28000000D01*
X38863000Y28000000D01*
X38930039Y27980315D01*
X38975794Y27927511D01*
X38987000Y27876000D01*
X38987000Y27585854D01*
X38986833Y27585287D01*
X38986995Y27584717D01*
X38976997Y27551791D01*
X38967315Y27518815D01*
X38966868Y27518428D01*
X38966696Y27517861D01*
X38940464Y27495549D01*
X38914511Y27473060D01*
X38913775Y27472848D01*
X38913475Y27472592D01*
X38887273Y27465198D01*
X38879521Y27462959D01*
X38879494Y27462956D01*
X38862264Y27460687D01*
X38862092Y27460617D01*
X38854021Y27459531D01*
X38833977Y27462601D01*
X38821184Y27462601D01*
X38820792Y27459626D01*
X38812737Y27460687D01*
X38812736Y27460687D01*
X38778472Y27465198D01*
X38700227Y27475500D01*
X38700220Y27475500D01*
X38474780Y27475500D01*
X38474772Y27475500D01*
X38372765Y27462070D01*
X38372763Y27462070D01*
X38362264Y27460687D01*
X38222267Y27402698D01*
X38178700Y27369269D01*
X38178696Y27369266D01*
X38136986Y27337260D01*
X38071817Y27312066D01*
X38003372Y27326104D01*
X37953383Y27374918D01*
X37937500Y27435636D01*
X37937500Y27470089D01*
X37937499Y27470089D01*
X37862396Y27460200D01*
X37862391Y27460199D01*
X37722521Y27402264D01*
X37602405Y27310095D01*
X37510236Y27189979D01*
X37452301Y27050109D01*
X37452300Y27050105D01*
X37437500Y26937698D01*
X37437500Y26387500D01*
X37813000Y26387500D01*
X37821685Y26384950D01*
X37830647Y26386238D01*
X37854687Y26375260D01*
X37880039Y26367815D01*
X37885966Y26360975D01*
X37894203Y26357213D01*
X37908492Y26334979D01*
X37925794Y26315011D01*
X37928081Y26304497D01*
X37931977Y26298435D01*
X37937000Y26263500D01*
X37937000Y26211500D01*
X37917315Y26144461D01*
X37864511Y26098706D01*
X37813000Y26087500D01*
X37437500Y26087500D01*
X37437500Y25599500D01*
X37417815Y25532461D01*
X37365011Y25486706D01*
X37313500Y25475500D01*
X35974772Y25475500D01*
X35862264Y25460687D01*
X35862263Y25460687D01*
X35800104Y25434939D01*
X35752651Y25425500D01*
X35475098Y25425500D01*
X35408059Y25445185D01*
X35406296Y25446338D01*
X35396093Y25453143D01*
X35368716Y25480520D01*
X35270404Y25537280D01*
X35231785Y25559577D01*
X35079057Y25600501D01*
X34920943Y25600501D01*
X34913347Y25600501D01*
X34913331Y25600500D01*
X34579766Y25600500D01*
X34512727Y25620185D01*
X34510875Y25621398D01*
X34379185Y25709391D01*
X34379172Y25709398D01*
X34233501Y25769736D01*
X34233489Y25769739D01*
X34078845Y25800500D01*
X34078842Y25800500D01*
X33921158Y25800500D01*
X33921155Y25800500D01*
X33766510Y25769739D01*
X33766498Y25769736D01*
X33620827Y25709398D01*
X33620814Y25709391D01*
X33489711Y25621790D01*
X33489707Y25621787D01*
X33378213Y25510293D01*
X33378210Y25510289D01*
X33290609Y25379186D01*
X33290604Y25379177D01*
X33238561Y25253531D01*
X33194720Y25199128D01*
X33128426Y25177063D01*
X33060727Y25194342D01*
X33013116Y25245479D01*
X33000000Y25300984D01*
X33000000Y26788346D01*
X35025001Y26788346D01*
X35035319Y26687348D01*
X35089546Y26523700D01*
X35089551Y26523689D01*
X35180052Y26376966D01*
X35180055Y26376962D01*
X35301961Y26255056D01*
X35301965Y26255053D01*
X35448688Y26164552D01*
X35448699Y26164547D01*
X35612347Y26110320D01*
X35713352Y26100001D01*
X35750000Y26100001D01*
X36250000Y26100001D01*
X36286640Y26100001D01*
X36286654Y26100002D01*
X36387652Y26110320D01*
X36551300Y26164547D01*
X36551311Y26164552D01*
X36698034Y26255053D01*
X36698038Y26255056D01*
X36819944Y26376962D01*
X36819947Y26376966D01*
X36910448Y26523689D01*
X36910453Y26523700D01*
X36964680Y26687348D01*
X36974999Y26788346D01*
X36975000Y26788359D01*
X36975000Y26887500D01*
X36250000Y26887500D01*
X36250000Y26100001D01*
X35750000Y26100001D01*
X35750000Y26887500D01*
X35025001Y26887500D01*
X35025001Y26788346D01*
X33000000Y26788346D01*
X33000000Y27876000D01*
X33019685Y27943039D01*
X33072489Y27988794D01*
X33124000Y28000000D01*
X35020771Y28000000D01*
X35087810Y27980315D01*
G37*
%TD.AperFunction*%
%TD*%
M02*
