%TF.GenerationSoftware,KiCad,Pcbnew,9.0.4*%
%TF.CreationDate,2025-12-12T13:11:14+03:00*%
%TF.ProjectId,FlameSensorSender,466c616d-6553-4656-9e73-6f7253656e64,1*%
%TF.SameCoordinates,PX3abc02cPY73c9b94*%
%TF.FileFunction,Soldermask,Bot*%
%TF.FilePolarity,Negative*%
%FSLAX46Y46*%
G04 Gerber Fmt 4.6, Leading zero omitted, Abs format (unit mm)*
G04 Created by KiCad (PCBNEW 9.0.4) date 2025-12-12 13:11:14*
%MOMM*%
%LPD*%
G01*
G04 APERTURE LIST*
G04 Aperture macros list*
%AMRoundRect*
0 Rectangle with rounded corners*
0 $1 Rounding radius*
0 $2 $3 $4 $5 $6 $7 $8 $9 X,Y pos of 4 corners*
0 Add a 4 corners polygon primitive as box body*
4,1,4,$2,$3,$4,$5,$6,$7,$8,$9,$2,$3,0*
0 Add four circle primitives for the rounded corners*
1,1,$1+$1,$2,$3*
1,1,$1+$1,$4,$5*
1,1,$1+$1,$6,$7*
1,1,$1+$1,$8,$9*
0 Add four rect primitives between the rounded corners*
20,1,$1+$1,$2,$3,$4,$5,0*
20,1,$1+$1,$4,$5,$6,$7,0*
20,1,$1+$1,$6,$7,$8,$9,0*
20,1,$1+$1,$8,$9,$2,$3,0*%
G04 Aperture macros list end*
%ADD10R,1.700000X1.700000*%
%ADD11C,1.700000*%
%ADD12C,3.000000*%
%ADD13RoundRect,0.250000X0.350000X0.625000X-0.350000X0.625000X-0.350000X-0.625000X0.350000X-0.625000X0*%
%ADD14O,1.200000X1.750000*%
%ADD15C,3.300000*%
%ADD16R,2.000000X2.000000*%
%ADD17C,2.000000*%
%ADD18C,1.500000*%
G04 APERTURE END LIST*
D10*
%TO.C,J1*%
X32460000Y16000000D03*
D11*
X32460000Y18540000D03*
X35000000Y16000000D03*
X35000000Y18540000D03*
%TD*%
D12*
%TO.C,REF\u002A\u002A*%
X5000000Y73000000D03*
%TD*%
D13*
%TO.C,J7*%
X21212500Y73212500D03*
D14*
X19212500Y73212500D03*
X17212500Y73212500D03*
X15212500Y73212500D03*
X13212500Y73212500D03*
X11212500Y73212500D03*
%TD*%
D12*
%TO.C,REF\u002A\u002A*%
X81000000Y73000000D03*
%TD*%
D15*
%TO.C,BT1*%
X54577500Y67402500D03*
X54577500Y52412500D03*
D16*
X27412500Y67402500D03*
D17*
X27412500Y52412500D03*
%TD*%
D10*
%TO.C,J2*%
X32460000Y28540000D03*
D11*
X35000000Y28540000D03*
X32460000Y26000000D03*
X35000000Y26000000D03*
%TD*%
D12*
%TO.C,REF\u002A\u002A*%
X81000000Y5000000D03*
%TD*%
D17*
%TO.C,SW1*%
X9962500Y50112500D03*
X16462500Y50112500D03*
X9962500Y45612500D03*
X16462500Y45612500D03*
%TD*%
D18*
X5212500Y51612500D03*
X39412500Y32812500D03*
X39412500Y16412500D03*
X23212500Y46812500D03*
X55412500Y23225000D03*
X43012500Y41812500D03*
X44668277Y13668277D03*
X55393077Y20431923D03*
X58812500Y20412500D03*
X65112500Y37312500D03*
X69912500Y32512500D03*
X70156250Y35756250D03*
X73356250Y32556250D03*
X46612500Y38212500D03*
X21412500Y55412500D03*
X47687500Y16812500D03*
X11162500Y62425000D03*
X50112500Y31712500D03*
X75512500Y5312500D03*
X72612500Y6412500D03*
X51812500Y33612500D03*
X61412500Y10612500D03*
X45475673Y29475673D03*
X51212500Y8412500D03*
X47212500Y13612500D03*
X59412500Y29099327D03*
X39612500Y54212500D03*
X45012500Y34812500D03*
X6812500Y53612500D03*
X7412500Y63212500D03*
X12162500Y56425000D03*
X38262500Y29862500D03*
X28612500Y33212500D03*
X58412500Y27412500D03*
X52812500Y36712492D03*
M02*
