%TF.GenerationSoftware,KiCad,Pcbnew,9.0.4*%
%TF.CreationDate,2025-12-12T13:11:34+03:00*%
%TF.ProjectId,FlameSensorSender,466c616d-6553-4656-9e73-6f7253656e64,1*%
%TF.SameCoordinates,PX3abc02cPY73c9b94*%
%TF.FileFunction,Drillmap*%
%TF.FilePolarity,Positive*%
%FSLAX45Y45*%
G04 Gerber Fmt 4.5, Leading zero omitted, Abs format (unit mm)*
G04 Created by KiCad (PCBNEW 9.0.4) date 2025-12-12 13:11:34*
%MOMM*%
%LPD*%
G01*
G04 APERTURE LIST*
%ADD10C,0.050000*%
%ADD11C,0.200000*%
%ADD12C,0.100000*%
%ADD13C,0.102000*%
%ADD14C,0.110000*%
%ADD15C,0.300000*%
%ADD16C,0.330000*%
G04 APERTURE END LIST*
D10*
X500000Y0D02*
G75*
G02*
X0Y500000I0J500000D01*
G01*
X500000Y7800000D02*
X8100000Y7800000D01*
X8600000Y7300000D02*
X8600000Y500000D01*
X8600000Y500000D02*
G75*
G02*
X8100000Y0I-500000J0D01*
G01*
X0Y500000D02*
X0Y7300000D01*
X8100000Y0D02*
X500000Y0D01*
X0Y7300000D02*
G75*
G02*
X500000Y7800000I500000J0D01*
G01*
X8100000Y7800000D02*
G75*
G02*
X8600000Y7300000I0J-500000D01*
G01*
D11*
D12*
X1083750Y7358750D02*
X1158750Y7283750D01*
X1158750Y7358750D02*
X1083750Y7283750D01*
X1283750Y7358750D02*
X1358750Y7283750D01*
X1358750Y7358750D02*
X1283750Y7283750D01*
X1483750Y7358750D02*
X1558750Y7283750D01*
X1558750Y7358750D02*
X1483750Y7283750D01*
X1683750Y7358750D02*
X1758750Y7283750D01*
X1758750Y7358750D02*
X1683750Y7283750D01*
X1883750Y7358750D02*
X1958750Y7283750D01*
X1958750Y7358750D02*
X1883750Y7283750D01*
X2083750Y7358750D02*
X2158750Y7283750D01*
X2158750Y7358750D02*
X2083750Y7283750D01*
X566250Y5161250D02*
G75*
G02*
X476250Y5161250I-45000J0D01*
G01*
X476250Y5161250D02*
G75*
G02*
X566250Y5161250I45000J0D01*
G01*
X726250Y5361250D02*
G75*
G02*
X636250Y5361250I-45000J0D01*
G01*
X636250Y5361250D02*
G75*
G02*
X726250Y5361250I45000J0D01*
G01*
X786250Y6321250D02*
G75*
G02*
X696250Y6321250I-45000J0D01*
G01*
X696250Y6321250D02*
G75*
G02*
X786250Y6321250I45000J0D01*
G01*
X1161250Y6242500D02*
G75*
G02*
X1071250Y6242500I-45000J0D01*
G01*
X1071250Y6242500D02*
G75*
G02*
X1161250Y6242500I45000J0D01*
G01*
X1261250Y5642500D02*
G75*
G02*
X1171250Y5642500I-45000J0D01*
G01*
X1171250Y5642500D02*
G75*
G02*
X1261250Y5642500I45000J0D01*
G01*
X2186250Y5541250D02*
G75*
G02*
X2096250Y5541250I-45000J0D01*
G01*
X2096250Y5541250D02*
G75*
G02*
X2186250Y5541250I45000J0D01*
G01*
X2366250Y4681250D02*
G75*
G02*
X2276250Y4681250I-45000J0D01*
G01*
X2276250Y4681250D02*
G75*
G02*
X2366250Y4681250I45000J0D01*
G01*
X2906250Y3321250D02*
G75*
G02*
X2816250Y3321250I-45000J0D01*
G01*
X2816250Y3321250D02*
G75*
G02*
X2906250Y3321250I45000J0D01*
G01*
X3871250Y2986250D02*
G75*
G02*
X3781250Y2986250I-45000J0D01*
G01*
X3781250Y2986250D02*
G75*
G02*
X3871250Y2986250I45000J0D01*
G01*
X3986250Y3281250D02*
G75*
G02*
X3896250Y3281250I-45000J0D01*
G01*
X3896250Y3281250D02*
G75*
G02*
X3986250Y3281250I45000J0D01*
G01*
X3986250Y1641250D02*
G75*
G02*
X3896250Y1641250I-45000J0D01*
G01*
X3896250Y1641250D02*
G75*
G02*
X3986250Y1641250I45000J0D01*
G01*
X4006250Y5421250D02*
G75*
G02*
X3916250Y5421250I-45000J0D01*
G01*
X3916250Y5421250D02*
G75*
G02*
X4006250Y5421250I45000J0D01*
G01*
X4346250Y4181250D02*
G75*
G02*
X4256250Y4181250I-45000J0D01*
G01*
X4256250Y4181250D02*
G75*
G02*
X4346250Y4181250I45000J0D01*
G01*
X4511828Y1366828D02*
G75*
G02*
X4421828Y1366828I-45000J0D01*
G01*
X4421828Y1366828D02*
G75*
G02*
X4511828Y1366828I45000J0D01*
G01*
X4546250Y3481250D02*
G75*
G02*
X4456250Y3481250I-45000J0D01*
G01*
X4456250Y3481250D02*
G75*
G02*
X4546250Y3481250I45000J0D01*
G01*
X4592567Y2947567D02*
G75*
G02*
X4502567Y2947567I-45000J0D01*
G01*
X4502567Y2947567D02*
G75*
G02*
X4592567Y2947567I45000J0D01*
G01*
X4706250Y3821250D02*
G75*
G02*
X4616250Y3821250I-45000J0D01*
G01*
X4616250Y3821250D02*
G75*
G02*
X4706250Y3821250I45000J0D01*
G01*
X4766250Y1361250D02*
G75*
G02*
X4676250Y1361250I-45000J0D01*
G01*
X4676250Y1361250D02*
G75*
G02*
X4766250Y1361250I45000J0D01*
G01*
X4813750Y1681250D02*
G75*
G02*
X4723750Y1681250I-45000J0D01*
G01*
X4723750Y1681250D02*
G75*
G02*
X4813750Y1681250I45000J0D01*
G01*
X5056250Y3171250D02*
G75*
G02*
X4966250Y3171250I-45000J0D01*
G01*
X4966250Y3171250D02*
G75*
G02*
X5056250Y3171250I45000J0D01*
G01*
X5166250Y841250D02*
G75*
G02*
X5076250Y841250I-45000J0D01*
G01*
X5076250Y841250D02*
G75*
G02*
X5166250Y841250I45000J0D01*
G01*
X5226250Y3361250D02*
G75*
G02*
X5136250Y3361250I-45000J0D01*
G01*
X5136250Y3361250D02*
G75*
G02*
X5226250Y3361250I45000J0D01*
G01*
X5326250Y3671249D02*
G75*
G02*
X5236250Y3671249I-45000J0D01*
G01*
X5236250Y3671249D02*
G75*
G02*
X5326250Y3671249I45000J0D01*
G01*
X5584308Y2043192D02*
G75*
G02*
X5494308Y2043192I-45000J0D01*
G01*
X5494308Y2043192D02*
G75*
G02*
X5584308Y2043192I45000J0D01*
G01*
X5586250Y2322500D02*
G75*
G02*
X5496250Y2322500I-45000J0D01*
G01*
X5496250Y2322500D02*
G75*
G02*
X5586250Y2322500I45000J0D01*
G01*
X5886250Y2741250D02*
G75*
G02*
X5796250Y2741250I-45000J0D01*
G01*
X5796250Y2741250D02*
G75*
G02*
X5886250Y2741250I45000J0D01*
G01*
X5926250Y2041250D02*
G75*
G02*
X5836250Y2041250I-45000J0D01*
G01*
X5836250Y2041250D02*
G75*
G02*
X5926250Y2041250I45000J0D01*
G01*
X5986250Y2909933D02*
G75*
G02*
X5896250Y2909933I-45000J0D01*
G01*
X5896250Y2909933D02*
G75*
G02*
X5986250Y2909933I45000J0D01*
G01*
X6186250Y1061250D02*
G75*
G02*
X6096250Y1061250I-45000J0D01*
G01*
X6096250Y1061250D02*
G75*
G02*
X6186250Y1061250I45000J0D01*
G01*
X6556250Y3731250D02*
G75*
G02*
X6466250Y3731250I-45000J0D01*
G01*
X6466250Y3731250D02*
G75*
G02*
X6556250Y3731250I45000J0D01*
G01*
X7036250Y3251250D02*
G75*
G02*
X6946250Y3251250I-45000J0D01*
G01*
X6946250Y3251250D02*
G75*
G02*
X7036250Y3251250I45000J0D01*
G01*
X7060625Y3575625D02*
G75*
G02*
X6970625Y3575625I-45000J0D01*
G01*
X6970625Y3575625D02*
G75*
G02*
X7060625Y3575625I45000J0D01*
G01*
X7306250Y641250D02*
G75*
G02*
X7216250Y641250I-45000J0D01*
G01*
X7216250Y641250D02*
G75*
G02*
X7306250Y641250I45000J0D01*
G01*
X7380625Y3255625D02*
G75*
G02*
X7290625Y3255625I-45000J0D01*
G01*
X7290625Y3255625D02*
G75*
G02*
X7380625Y3255625I45000J0D01*
G01*
X7596250Y531250D02*
G75*
G02*
X7506250Y531250I-45000J0D01*
G01*
X7506250Y531250D02*
G75*
G02*
X7596250Y531250I45000J0D01*
G01*
X3246000Y2904000D02*
X3246000Y2804000D01*
X3196000Y2854000D02*
X3296000Y2854000D01*
X3246000Y2650000D02*
X3246000Y2550000D01*
X3196000Y2600000D02*
X3296000Y2600000D01*
X3246000Y1904000D02*
X3246000Y1804000D01*
X3196000Y1854000D02*
X3296000Y1854000D01*
X3246000Y1650000D02*
X3246000Y1550000D01*
X3196000Y1600000D02*
X3296000Y1600000D01*
X3500000Y2904000D02*
X3500000Y2804000D01*
X3450000Y2854000D02*
X3550000Y2854000D01*
X3500000Y2650000D02*
X3500000Y2550000D01*
X3450000Y2600000D02*
X3550000Y2600000D01*
X3500000Y1904000D02*
X3500000Y1804000D01*
X3450000Y1854000D02*
X3550000Y1854000D01*
X3500000Y1650000D02*
X3500000Y1550000D01*
X3450000Y1600000D02*
X3550000Y1600000D01*
D13*
X2777313Y6704187D02*
X2777313Y6776313D01*
X2705187Y6776313D01*
X2705187Y6704187D01*
X2777313Y6704187D01*
X2777313Y5205187D02*
X2777313Y5277313D01*
X2705187Y5277313D01*
X2705187Y5205187D01*
X2777313Y5205187D01*
D14*
X996250Y4956250D02*
X1051250Y5011250D01*
X996250Y5066250D01*
X941250Y5011250D01*
X996250Y4956250D01*
X996250Y4506250D02*
X1051250Y4561250D01*
X996250Y4616250D01*
X941250Y4561250D01*
X996250Y4506250D01*
X1646250Y4956250D02*
X1701250Y5011250D01*
X1646250Y5066250D01*
X1591250Y5011250D01*
X1646250Y4956250D01*
X1646250Y4506250D02*
X1701250Y4561250D01*
X1646250Y4616250D01*
X1591250Y4561250D01*
X1646250Y4506250D01*
D15*
X350000Y7450000D02*
X650000Y7150000D01*
X650000Y7450000D02*
X350000Y7150000D01*
X650000Y7300000D02*
G75*
G02*
X350000Y7300000I-150000J0D01*
G01*
X350000Y7300000D02*
G75*
G02*
X650000Y7300000I150000J0D01*
G01*
X7950000Y7450000D02*
X8250000Y7150000D01*
X8250000Y7450000D02*
X7950000Y7150000D01*
X8250000Y7300000D02*
G75*
G02*
X7950000Y7300000I-150000J0D01*
G01*
X7950000Y7300000D02*
G75*
G02*
X8250000Y7300000I150000J0D01*
G01*
X7950000Y650000D02*
X8250000Y350000D01*
X8250000Y650000D02*
X7950000Y350000D01*
X8250000Y500000D02*
G75*
G02*
X7950000Y500000I-150000J0D01*
G01*
X7950000Y500000D02*
G75*
G02*
X8250000Y500000I150000J0D01*
G01*
D16*
X5292750Y6905250D02*
X5622750Y6575250D01*
X5622750Y6905250D02*
X5292750Y6575250D01*
X5457750Y6905250D02*
X5457750Y6575250D01*
X5292750Y6740250D02*
X5622750Y6740250D01*
X5292750Y5406250D02*
X5622750Y5076250D01*
X5622750Y5406250D02*
X5292750Y5076250D01*
X5457750Y5406250D02*
X5457750Y5076250D01*
X5292750Y5241250D02*
X5622750Y5241250D01*
D11*
X258277Y-313984D02*
X258277Y-113984D01*
X258277Y-113984D02*
X305896Y-113984D01*
X305896Y-113984D02*
X334467Y-123508D01*
X334467Y-123508D02*
X353515Y-142555D01*
X353515Y-142555D02*
X363039Y-161603D01*
X363039Y-161603D02*
X372562Y-199698D01*
X372562Y-199698D02*
X372562Y-228269D01*
X372562Y-228269D02*
X363039Y-266365D01*
X363039Y-266365D02*
X353515Y-285412D01*
X353515Y-285412D02*
X334467Y-304460D01*
X334467Y-304460D02*
X305896Y-313984D01*
X305896Y-313984D02*
X258277Y-313984D01*
X458277Y-313984D02*
X458277Y-180650D01*
X458277Y-218746D02*
X467801Y-199698D01*
X467801Y-199698D02*
X477324Y-190174D01*
X477324Y-190174D02*
X496372Y-180650D01*
X496372Y-180650D02*
X515420Y-180650D01*
X582086Y-313984D02*
X582086Y-180650D01*
X582086Y-113984D02*
X572563Y-123508D01*
X572563Y-123508D02*
X582086Y-133031D01*
X582086Y-133031D02*
X591610Y-123508D01*
X591610Y-123508D02*
X582086Y-113984D01*
X582086Y-113984D02*
X582086Y-133031D01*
X705896Y-313984D02*
X686848Y-304460D01*
X686848Y-304460D02*
X677324Y-285412D01*
X677324Y-285412D02*
X677324Y-113984D01*
X810658Y-313984D02*
X791610Y-304460D01*
X791610Y-304460D02*
X782086Y-285412D01*
X782086Y-285412D02*
X782086Y-113984D01*
X1039229Y-313984D02*
X1039229Y-113984D01*
X1039229Y-113984D02*
X1105896Y-256841D01*
X1105896Y-256841D02*
X1172563Y-113984D01*
X1172563Y-113984D02*
X1172563Y-313984D01*
X1353515Y-313984D02*
X1353515Y-209222D01*
X1353515Y-209222D02*
X1343991Y-190174D01*
X1343991Y-190174D02*
X1324944Y-180650D01*
X1324944Y-180650D02*
X1286848Y-180650D01*
X1286848Y-180650D02*
X1267801Y-190174D01*
X1353515Y-304460D02*
X1334467Y-313984D01*
X1334467Y-313984D02*
X1286848Y-313984D01*
X1286848Y-313984D02*
X1267801Y-304460D01*
X1267801Y-304460D02*
X1258277Y-285412D01*
X1258277Y-285412D02*
X1258277Y-266365D01*
X1258277Y-266365D02*
X1267801Y-247317D01*
X1267801Y-247317D02*
X1286848Y-237793D01*
X1286848Y-237793D02*
X1334467Y-237793D01*
X1334467Y-237793D02*
X1353515Y-228269D01*
X1448753Y-180650D02*
X1448753Y-380650D01*
X1448753Y-190174D02*
X1467801Y-180650D01*
X1467801Y-180650D02*
X1505896Y-180650D01*
X1505896Y-180650D02*
X1524943Y-190174D01*
X1524943Y-190174D02*
X1534467Y-199698D01*
X1534467Y-199698D02*
X1543991Y-218746D01*
X1543991Y-218746D02*
X1543991Y-275889D01*
X1543991Y-275889D02*
X1534467Y-294936D01*
X1534467Y-294936D02*
X1524943Y-304460D01*
X1524943Y-304460D02*
X1505896Y-313984D01*
X1505896Y-313984D02*
X1467801Y-313984D01*
X1467801Y-313984D02*
X1448753Y-304460D01*
X1629705Y-294936D02*
X1639229Y-304460D01*
X1639229Y-304460D02*
X1629705Y-313984D01*
X1629705Y-313984D02*
X1620182Y-304460D01*
X1620182Y-304460D02*
X1629705Y-294936D01*
X1629705Y-294936D02*
X1629705Y-313984D01*
X1629705Y-190174D02*
X1639229Y-199698D01*
X1639229Y-199698D02*
X1629705Y-209222D01*
X1629705Y-209222D02*
X1620182Y-199698D01*
X1620182Y-199698D02*
X1629705Y-190174D01*
X1629705Y-190174D02*
X1629705Y-209222D01*
D12*
X-77500Y-605000D02*
X-2500Y-680000D01*
X-2500Y-605000D02*
X-77500Y-680000D01*
D11*
X296372Y-533984D02*
X315420Y-533984D01*
X315420Y-533984D02*
X334467Y-543508D01*
X334467Y-543508D02*
X343991Y-553031D01*
X343991Y-553031D02*
X353515Y-572079D01*
X353515Y-572079D02*
X363039Y-610174D01*
X363039Y-610174D02*
X363039Y-657793D01*
X363039Y-657793D02*
X353515Y-695889D01*
X353515Y-695889D02*
X343991Y-714936D01*
X343991Y-714936D02*
X334467Y-724460D01*
X334467Y-724460D02*
X315420Y-733984D01*
X315420Y-733984D02*
X296372Y-733984D01*
X296372Y-733984D02*
X277324Y-724460D01*
X277324Y-724460D02*
X267801Y-714936D01*
X267801Y-714936D02*
X258277Y-695889D01*
X258277Y-695889D02*
X248753Y-657793D01*
X248753Y-657793D02*
X248753Y-610174D01*
X248753Y-610174D02*
X258277Y-572079D01*
X258277Y-572079D02*
X267801Y-553031D01*
X267801Y-553031D02*
X277324Y-543508D01*
X277324Y-543508D02*
X296372Y-533984D01*
X448753Y-714936D02*
X458277Y-724460D01*
X458277Y-724460D02*
X448753Y-733984D01*
X448753Y-733984D02*
X439229Y-724460D01*
X439229Y-724460D02*
X448753Y-714936D01*
X448753Y-714936D02*
X448753Y-733984D01*
X524944Y-533984D02*
X658277Y-533984D01*
X658277Y-533984D02*
X572563Y-733984D01*
X829705Y-533984D02*
X734467Y-533984D01*
X734467Y-533984D02*
X724943Y-629222D01*
X724943Y-629222D02*
X734467Y-619698D01*
X734467Y-619698D02*
X753515Y-610174D01*
X753515Y-610174D02*
X801134Y-610174D01*
X801134Y-610174D02*
X820182Y-619698D01*
X820182Y-619698D02*
X829705Y-629222D01*
X829705Y-629222D02*
X839229Y-648270D01*
X839229Y-648270D02*
X839229Y-695889D01*
X839229Y-695889D02*
X829705Y-714936D01*
X829705Y-714936D02*
X820182Y-724460D01*
X820182Y-724460D02*
X801134Y-733984D01*
X801134Y-733984D02*
X753515Y-733984D01*
X753515Y-733984D02*
X734467Y-724460D01*
X734467Y-724460D02*
X724943Y-714936D01*
X963039Y-533984D02*
X982086Y-533984D01*
X982086Y-533984D02*
X1001134Y-543508D01*
X1001134Y-543508D02*
X1010658Y-553031D01*
X1010658Y-553031D02*
X1020182Y-572079D01*
X1020182Y-572079D02*
X1029705Y-610174D01*
X1029705Y-610174D02*
X1029705Y-657793D01*
X1029705Y-657793D02*
X1020182Y-695889D01*
X1020182Y-695889D02*
X1010658Y-714936D01*
X1010658Y-714936D02*
X1001134Y-724460D01*
X1001134Y-724460D02*
X982086Y-733984D01*
X982086Y-733984D02*
X963039Y-733984D01*
X963039Y-733984D02*
X943991Y-724460D01*
X943991Y-724460D02*
X934467Y-714936D01*
X934467Y-714936D02*
X924943Y-695889D01*
X924943Y-695889D02*
X915420Y-657793D01*
X915420Y-657793D02*
X915420Y-610174D01*
X915420Y-610174D02*
X924943Y-572079D01*
X924943Y-572079D02*
X934467Y-553031D01*
X934467Y-553031D02*
X943991Y-543508D01*
X943991Y-543508D02*
X963039Y-533984D01*
X1115420Y-733984D02*
X1115420Y-600650D01*
X1115420Y-619698D02*
X1124944Y-610174D01*
X1124944Y-610174D02*
X1143991Y-600650D01*
X1143991Y-600650D02*
X1172563Y-600650D01*
X1172563Y-600650D02*
X1191610Y-610174D01*
X1191610Y-610174D02*
X1201134Y-629222D01*
X1201134Y-629222D02*
X1201134Y-733984D01*
X1201134Y-629222D02*
X1210658Y-610174D01*
X1210658Y-610174D02*
X1229705Y-600650D01*
X1229705Y-600650D02*
X1258277Y-600650D01*
X1258277Y-600650D02*
X1277325Y-610174D01*
X1277325Y-610174D02*
X1286848Y-629222D01*
X1286848Y-629222D02*
X1286848Y-733984D01*
X1382086Y-733984D02*
X1382086Y-600650D01*
X1382086Y-619698D02*
X1391610Y-610174D01*
X1391610Y-610174D02*
X1410658Y-600650D01*
X1410658Y-600650D02*
X1439229Y-600650D01*
X1439229Y-600650D02*
X1458277Y-610174D01*
X1458277Y-610174D02*
X1467801Y-629222D01*
X1467801Y-629222D02*
X1467801Y-733984D01*
X1467801Y-629222D02*
X1477324Y-610174D01*
X1477324Y-610174D02*
X1496372Y-600650D01*
X1496372Y-600650D02*
X1524943Y-600650D01*
X1524943Y-600650D02*
X1543991Y-610174D01*
X1543991Y-610174D02*
X1553515Y-629222D01*
X1553515Y-629222D02*
X1553515Y-733984D01*
X1943991Y-524460D02*
X1772563Y-781603D01*
X2201134Y-533984D02*
X2220182Y-533984D01*
X2220182Y-533984D02*
X2239229Y-543508D01*
X2239229Y-543508D02*
X2248753Y-553031D01*
X2248753Y-553031D02*
X2258277Y-572079D01*
X2258277Y-572079D02*
X2267801Y-610174D01*
X2267801Y-610174D02*
X2267801Y-657793D01*
X2267801Y-657793D02*
X2258277Y-695889D01*
X2258277Y-695889D02*
X2248753Y-714936D01*
X2248753Y-714936D02*
X2239229Y-724460D01*
X2239229Y-724460D02*
X2220182Y-733984D01*
X2220182Y-733984D02*
X2201134Y-733984D01*
X2201134Y-733984D02*
X2182087Y-724460D01*
X2182087Y-724460D02*
X2172563Y-714936D01*
X2172563Y-714936D02*
X2163039Y-695889D01*
X2163039Y-695889D02*
X2153515Y-657793D01*
X2153515Y-657793D02*
X2153515Y-610174D01*
X2153515Y-610174D02*
X2163039Y-572079D01*
X2163039Y-572079D02*
X2172563Y-553031D01*
X2172563Y-553031D02*
X2182087Y-543508D01*
X2182087Y-543508D02*
X2201134Y-533984D01*
X2353515Y-714936D02*
X2363039Y-724460D01*
X2363039Y-724460D02*
X2353515Y-733984D01*
X2353515Y-733984D02*
X2343991Y-724460D01*
X2343991Y-724460D02*
X2353515Y-714936D01*
X2353515Y-714936D02*
X2353515Y-733984D01*
X2486848Y-533984D02*
X2505896Y-533984D01*
X2505896Y-533984D02*
X2524944Y-543508D01*
X2524944Y-543508D02*
X2534468Y-553031D01*
X2534468Y-553031D02*
X2543991Y-572079D01*
X2543991Y-572079D02*
X2553515Y-610174D01*
X2553515Y-610174D02*
X2553515Y-657793D01*
X2553515Y-657793D02*
X2543991Y-695889D01*
X2543991Y-695889D02*
X2534468Y-714936D01*
X2534468Y-714936D02*
X2524944Y-724460D01*
X2524944Y-724460D02*
X2505896Y-733984D01*
X2505896Y-733984D02*
X2486848Y-733984D01*
X2486848Y-733984D02*
X2467801Y-724460D01*
X2467801Y-724460D02*
X2458277Y-714936D01*
X2458277Y-714936D02*
X2448753Y-695889D01*
X2448753Y-695889D02*
X2439229Y-657793D01*
X2439229Y-657793D02*
X2439229Y-610174D01*
X2439229Y-610174D02*
X2448753Y-572079D01*
X2448753Y-572079D02*
X2458277Y-553031D01*
X2458277Y-553031D02*
X2467801Y-543508D01*
X2467801Y-543508D02*
X2486848Y-533984D01*
X2629706Y-553031D02*
X2639229Y-543508D01*
X2639229Y-543508D02*
X2658277Y-533984D01*
X2658277Y-533984D02*
X2705896Y-533984D01*
X2705896Y-533984D02*
X2724944Y-543508D01*
X2724944Y-543508D02*
X2734468Y-553031D01*
X2734468Y-553031D02*
X2743991Y-572079D01*
X2743991Y-572079D02*
X2743991Y-591127D01*
X2743991Y-591127D02*
X2734468Y-619698D01*
X2734468Y-619698D02*
X2620182Y-733984D01*
X2620182Y-733984D02*
X2743991Y-733984D01*
X2839229Y-733984D02*
X2877325Y-733984D01*
X2877325Y-733984D02*
X2896372Y-724460D01*
X2896372Y-724460D02*
X2905896Y-714936D01*
X2905896Y-714936D02*
X2924944Y-686365D01*
X2924944Y-686365D02*
X2934467Y-648270D01*
X2934467Y-648270D02*
X2934467Y-572079D01*
X2934467Y-572079D02*
X2924944Y-553031D01*
X2924944Y-553031D02*
X2915420Y-543508D01*
X2915420Y-543508D02*
X2896372Y-533984D01*
X2896372Y-533984D02*
X2858277Y-533984D01*
X2858277Y-533984D02*
X2839229Y-543508D01*
X2839229Y-543508D02*
X2829706Y-553031D01*
X2829706Y-553031D02*
X2820182Y-572079D01*
X2820182Y-572079D02*
X2820182Y-619698D01*
X2820182Y-619698D02*
X2829706Y-638746D01*
X2829706Y-638746D02*
X2839229Y-648270D01*
X2839229Y-648270D02*
X2858277Y-657793D01*
X2858277Y-657793D02*
X2896372Y-657793D01*
X2896372Y-657793D02*
X2915420Y-648270D01*
X2915420Y-648270D02*
X2924944Y-638746D01*
X2924944Y-638746D02*
X2934467Y-619698D01*
X3115420Y-533984D02*
X3020182Y-533984D01*
X3020182Y-533984D02*
X3010658Y-629222D01*
X3010658Y-629222D02*
X3020182Y-619698D01*
X3020182Y-619698D02*
X3039229Y-610174D01*
X3039229Y-610174D02*
X3086848Y-610174D01*
X3086848Y-610174D02*
X3105896Y-619698D01*
X3105896Y-619698D02*
X3115420Y-629222D01*
X3115420Y-629222D02*
X3124944Y-648270D01*
X3124944Y-648270D02*
X3124944Y-695889D01*
X3124944Y-695889D02*
X3115420Y-714936D01*
X3115420Y-714936D02*
X3105896Y-724460D01*
X3105896Y-724460D02*
X3086848Y-733984D01*
X3086848Y-733984D02*
X3039229Y-733984D01*
X3039229Y-733984D02*
X3020182Y-724460D01*
X3020182Y-724460D02*
X3010658Y-714936D01*
X3201134Y-533984D02*
X3201134Y-572079D01*
X3277325Y-533984D02*
X3277325Y-572079D01*
X3572563Y-810174D02*
X3563039Y-800650D01*
X3563039Y-800650D02*
X3543991Y-772079D01*
X3543991Y-772079D02*
X3534468Y-753031D01*
X3534468Y-753031D02*
X3524944Y-724460D01*
X3524944Y-724460D02*
X3515420Y-676841D01*
X3515420Y-676841D02*
X3515420Y-638746D01*
X3515420Y-638746D02*
X3524944Y-591127D01*
X3524944Y-591127D02*
X3534468Y-562555D01*
X3534468Y-562555D02*
X3543991Y-543508D01*
X3543991Y-543508D02*
X3563039Y-514936D01*
X3563039Y-514936D02*
X3572563Y-505412D01*
X3734468Y-533984D02*
X3696372Y-533984D01*
X3696372Y-533984D02*
X3677325Y-543508D01*
X3677325Y-543508D02*
X3667801Y-553031D01*
X3667801Y-553031D02*
X3648753Y-581603D01*
X3648753Y-581603D02*
X3639229Y-619698D01*
X3639229Y-619698D02*
X3639229Y-695889D01*
X3639229Y-695889D02*
X3648753Y-714936D01*
X3648753Y-714936D02*
X3658277Y-724460D01*
X3658277Y-724460D02*
X3677325Y-733984D01*
X3677325Y-733984D02*
X3715420Y-733984D01*
X3715420Y-733984D02*
X3734468Y-724460D01*
X3734468Y-724460D02*
X3743991Y-714936D01*
X3743991Y-714936D02*
X3753515Y-695889D01*
X3753515Y-695889D02*
X3753515Y-648270D01*
X3753515Y-648270D02*
X3743991Y-629222D01*
X3743991Y-629222D02*
X3734468Y-619698D01*
X3734468Y-619698D02*
X3715420Y-610174D01*
X3715420Y-610174D02*
X3677325Y-610174D01*
X3677325Y-610174D02*
X3658277Y-619698D01*
X3658277Y-619698D02*
X3648753Y-629222D01*
X3648753Y-629222D02*
X3639229Y-648270D01*
X3991610Y-733984D02*
X3991610Y-533984D01*
X4077325Y-733984D02*
X4077325Y-629222D01*
X4077325Y-629222D02*
X4067801Y-610174D01*
X4067801Y-610174D02*
X4048753Y-600650D01*
X4048753Y-600650D02*
X4020182Y-600650D01*
X4020182Y-600650D02*
X4001134Y-610174D01*
X4001134Y-610174D02*
X3991610Y-619698D01*
X4201134Y-733984D02*
X4182087Y-724460D01*
X4182087Y-724460D02*
X4172563Y-714936D01*
X4172563Y-714936D02*
X4163039Y-695889D01*
X4163039Y-695889D02*
X4163039Y-638746D01*
X4163039Y-638746D02*
X4172563Y-619698D01*
X4172563Y-619698D02*
X4182087Y-610174D01*
X4182087Y-610174D02*
X4201134Y-600650D01*
X4201134Y-600650D02*
X4229706Y-600650D01*
X4229706Y-600650D02*
X4248753Y-610174D01*
X4248753Y-610174D02*
X4258277Y-619698D01*
X4258277Y-619698D02*
X4267801Y-638746D01*
X4267801Y-638746D02*
X4267801Y-695889D01*
X4267801Y-695889D02*
X4258277Y-714936D01*
X4258277Y-714936D02*
X4248753Y-724460D01*
X4248753Y-724460D02*
X4229706Y-733984D01*
X4229706Y-733984D02*
X4201134Y-733984D01*
X4382087Y-733984D02*
X4363039Y-724460D01*
X4363039Y-724460D02*
X4353515Y-705412D01*
X4353515Y-705412D02*
X4353515Y-533984D01*
X4534468Y-724460D02*
X4515420Y-733984D01*
X4515420Y-733984D02*
X4477325Y-733984D01*
X4477325Y-733984D02*
X4458277Y-724460D01*
X4458277Y-724460D02*
X4448753Y-705412D01*
X4448753Y-705412D02*
X4448753Y-629222D01*
X4448753Y-629222D02*
X4458277Y-610174D01*
X4458277Y-610174D02*
X4477325Y-600650D01*
X4477325Y-600650D02*
X4515420Y-600650D01*
X4515420Y-600650D02*
X4534468Y-610174D01*
X4534468Y-610174D02*
X4543992Y-629222D01*
X4543992Y-629222D02*
X4543992Y-648270D01*
X4543992Y-648270D02*
X4448753Y-667317D01*
X4620182Y-724460D02*
X4639230Y-733984D01*
X4639230Y-733984D02*
X4677325Y-733984D01*
X4677325Y-733984D02*
X4696373Y-724460D01*
X4696373Y-724460D02*
X4705896Y-705412D01*
X4705896Y-705412D02*
X4705896Y-695889D01*
X4705896Y-695889D02*
X4696373Y-676841D01*
X4696373Y-676841D02*
X4677325Y-667317D01*
X4677325Y-667317D02*
X4648753Y-667317D01*
X4648753Y-667317D02*
X4629706Y-657793D01*
X4629706Y-657793D02*
X4620182Y-638746D01*
X4620182Y-638746D02*
X4620182Y-629222D01*
X4620182Y-629222D02*
X4629706Y-610174D01*
X4629706Y-610174D02*
X4648753Y-600650D01*
X4648753Y-600650D02*
X4677325Y-600650D01*
X4677325Y-600650D02*
X4696373Y-610174D01*
X4772563Y-810174D02*
X4782087Y-800650D01*
X4782087Y-800650D02*
X4801134Y-772079D01*
X4801134Y-772079D02*
X4810658Y-753031D01*
X4810658Y-753031D02*
X4820182Y-724460D01*
X4820182Y-724460D02*
X4829706Y-676841D01*
X4829706Y-676841D02*
X4829706Y-638746D01*
X4829706Y-638746D02*
X4820182Y-591127D01*
X4820182Y-591127D02*
X4810658Y-562555D01*
X4810658Y-562555D02*
X4801134Y-543508D01*
X4801134Y-543508D02*
X4782087Y-514936D01*
X4782087Y-514936D02*
X4772563Y-505412D01*
D12*
X-2500Y-906500D02*
G75*
G02*
X-92500Y-906500I-45000J0D01*
G01*
X-92500Y-906500D02*
G75*
G02*
X-2500Y-906500I45000J0D01*
G01*
D11*
X296372Y-797984D02*
X315420Y-797984D01*
X315420Y-797984D02*
X334467Y-807508D01*
X334467Y-807508D02*
X343991Y-817031D01*
X343991Y-817031D02*
X353515Y-836079D01*
X353515Y-836079D02*
X363039Y-874174D01*
X363039Y-874174D02*
X363039Y-921793D01*
X363039Y-921793D02*
X353515Y-959888D01*
X353515Y-959888D02*
X343991Y-978936D01*
X343991Y-978936D02*
X334467Y-988460D01*
X334467Y-988460D02*
X315420Y-997984D01*
X315420Y-997984D02*
X296372Y-997984D01*
X296372Y-997984D02*
X277324Y-988460D01*
X277324Y-988460D02*
X267801Y-978936D01*
X267801Y-978936D02*
X258277Y-959888D01*
X258277Y-959888D02*
X248753Y-921793D01*
X248753Y-921793D02*
X248753Y-874174D01*
X248753Y-874174D02*
X258277Y-836079D01*
X258277Y-836079D02*
X267801Y-817031D01*
X267801Y-817031D02*
X277324Y-807508D01*
X277324Y-807508D02*
X296372Y-797984D01*
X448753Y-978936D02*
X458277Y-988460D01*
X458277Y-988460D02*
X448753Y-997984D01*
X448753Y-997984D02*
X439229Y-988460D01*
X439229Y-988460D02*
X448753Y-978936D01*
X448753Y-978936D02*
X448753Y-997984D01*
X553515Y-997984D02*
X591610Y-997984D01*
X591610Y-997984D02*
X610658Y-988460D01*
X610658Y-988460D02*
X620182Y-978936D01*
X620182Y-978936D02*
X639229Y-950365D01*
X639229Y-950365D02*
X648753Y-912269D01*
X648753Y-912269D02*
X648753Y-836079D01*
X648753Y-836079D02*
X639229Y-817031D01*
X639229Y-817031D02*
X629705Y-807508D01*
X629705Y-807508D02*
X610658Y-797984D01*
X610658Y-797984D02*
X572563Y-797984D01*
X572563Y-797984D02*
X553515Y-807508D01*
X553515Y-807508D02*
X543991Y-817031D01*
X543991Y-817031D02*
X534467Y-836079D01*
X534467Y-836079D02*
X534467Y-883698D01*
X534467Y-883698D02*
X543991Y-902746D01*
X543991Y-902746D02*
X553515Y-912269D01*
X553515Y-912269D02*
X572563Y-921793D01*
X572563Y-921793D02*
X610658Y-921793D01*
X610658Y-921793D02*
X629705Y-912269D01*
X629705Y-912269D02*
X639229Y-902746D01*
X639229Y-902746D02*
X648753Y-883698D01*
X772562Y-797984D02*
X791610Y-797984D01*
X791610Y-797984D02*
X810658Y-807508D01*
X810658Y-807508D02*
X820182Y-817031D01*
X820182Y-817031D02*
X829705Y-836079D01*
X829705Y-836079D02*
X839229Y-874174D01*
X839229Y-874174D02*
X839229Y-921793D01*
X839229Y-921793D02*
X829705Y-959888D01*
X829705Y-959888D02*
X820182Y-978936D01*
X820182Y-978936D02*
X810658Y-988460D01*
X810658Y-988460D02*
X791610Y-997984D01*
X791610Y-997984D02*
X772562Y-997984D01*
X772562Y-997984D02*
X753515Y-988460D01*
X753515Y-988460D02*
X743991Y-978936D01*
X743991Y-978936D02*
X734467Y-959888D01*
X734467Y-959888D02*
X724943Y-921793D01*
X724943Y-921793D02*
X724943Y-874174D01*
X724943Y-874174D02*
X734467Y-836079D01*
X734467Y-836079D02*
X743991Y-817031D01*
X743991Y-817031D02*
X753515Y-807508D01*
X753515Y-807508D02*
X772562Y-797984D01*
X963039Y-797984D02*
X982086Y-797984D01*
X982086Y-797984D02*
X1001134Y-807508D01*
X1001134Y-807508D02*
X1010658Y-817031D01*
X1010658Y-817031D02*
X1020182Y-836079D01*
X1020182Y-836079D02*
X1029705Y-874174D01*
X1029705Y-874174D02*
X1029705Y-921793D01*
X1029705Y-921793D02*
X1020182Y-959888D01*
X1020182Y-959888D02*
X1010658Y-978936D01*
X1010658Y-978936D02*
X1001134Y-988460D01*
X1001134Y-988460D02*
X982086Y-997984D01*
X982086Y-997984D02*
X963039Y-997984D01*
X963039Y-997984D02*
X943991Y-988460D01*
X943991Y-988460D02*
X934467Y-978936D01*
X934467Y-978936D02*
X924943Y-959888D01*
X924943Y-959888D02*
X915420Y-921793D01*
X915420Y-921793D02*
X915420Y-874174D01*
X915420Y-874174D02*
X924943Y-836079D01*
X924943Y-836079D02*
X934467Y-817031D01*
X934467Y-817031D02*
X943991Y-807508D01*
X943991Y-807508D02*
X963039Y-797984D01*
X1115420Y-997984D02*
X1115420Y-864650D01*
X1115420Y-883698D02*
X1124944Y-874174D01*
X1124944Y-874174D02*
X1143991Y-864650D01*
X1143991Y-864650D02*
X1172563Y-864650D01*
X1172563Y-864650D02*
X1191610Y-874174D01*
X1191610Y-874174D02*
X1201134Y-893222D01*
X1201134Y-893222D02*
X1201134Y-997984D01*
X1201134Y-893222D02*
X1210658Y-874174D01*
X1210658Y-874174D02*
X1229705Y-864650D01*
X1229705Y-864650D02*
X1258277Y-864650D01*
X1258277Y-864650D02*
X1277325Y-874174D01*
X1277325Y-874174D02*
X1286848Y-893222D01*
X1286848Y-893222D02*
X1286848Y-997984D01*
X1382086Y-997984D02*
X1382086Y-864650D01*
X1382086Y-883698D02*
X1391610Y-874174D01*
X1391610Y-874174D02*
X1410658Y-864650D01*
X1410658Y-864650D02*
X1439229Y-864650D01*
X1439229Y-864650D02*
X1458277Y-874174D01*
X1458277Y-874174D02*
X1467801Y-893222D01*
X1467801Y-893222D02*
X1467801Y-997984D01*
X1467801Y-893222D02*
X1477324Y-874174D01*
X1477324Y-874174D02*
X1496372Y-864650D01*
X1496372Y-864650D02*
X1524943Y-864650D01*
X1524943Y-864650D02*
X1543991Y-874174D01*
X1543991Y-874174D02*
X1553515Y-893222D01*
X1553515Y-893222D02*
X1553515Y-997984D01*
X1943991Y-788460D02*
X1772563Y-1045603D01*
X2201134Y-797984D02*
X2220182Y-797984D01*
X2220182Y-797984D02*
X2239229Y-807508D01*
X2239229Y-807508D02*
X2248753Y-817031D01*
X2248753Y-817031D02*
X2258277Y-836079D01*
X2258277Y-836079D02*
X2267801Y-874174D01*
X2267801Y-874174D02*
X2267801Y-921793D01*
X2267801Y-921793D02*
X2258277Y-959888D01*
X2258277Y-959888D02*
X2248753Y-978936D01*
X2248753Y-978936D02*
X2239229Y-988460D01*
X2239229Y-988460D02*
X2220182Y-997984D01*
X2220182Y-997984D02*
X2201134Y-997984D01*
X2201134Y-997984D02*
X2182087Y-988460D01*
X2182087Y-988460D02*
X2172563Y-978936D01*
X2172563Y-978936D02*
X2163039Y-959888D01*
X2163039Y-959888D02*
X2153515Y-921793D01*
X2153515Y-921793D02*
X2153515Y-874174D01*
X2153515Y-874174D02*
X2163039Y-836079D01*
X2163039Y-836079D02*
X2172563Y-817031D01*
X2172563Y-817031D02*
X2182087Y-807508D01*
X2182087Y-807508D02*
X2201134Y-797984D01*
X2353515Y-978936D02*
X2363039Y-988460D01*
X2363039Y-988460D02*
X2353515Y-997984D01*
X2353515Y-997984D02*
X2343991Y-988460D01*
X2343991Y-988460D02*
X2353515Y-978936D01*
X2353515Y-978936D02*
X2353515Y-997984D01*
X2486848Y-797984D02*
X2505896Y-797984D01*
X2505896Y-797984D02*
X2524944Y-807508D01*
X2524944Y-807508D02*
X2534468Y-817031D01*
X2534468Y-817031D02*
X2543991Y-836079D01*
X2543991Y-836079D02*
X2553515Y-874174D01*
X2553515Y-874174D02*
X2553515Y-921793D01*
X2553515Y-921793D02*
X2543991Y-959888D01*
X2543991Y-959888D02*
X2534468Y-978936D01*
X2534468Y-978936D02*
X2524944Y-988460D01*
X2524944Y-988460D02*
X2505896Y-997984D01*
X2505896Y-997984D02*
X2486848Y-997984D01*
X2486848Y-997984D02*
X2467801Y-988460D01*
X2467801Y-988460D02*
X2458277Y-978936D01*
X2458277Y-978936D02*
X2448753Y-959888D01*
X2448753Y-959888D02*
X2439229Y-921793D01*
X2439229Y-921793D02*
X2439229Y-874174D01*
X2439229Y-874174D02*
X2448753Y-836079D01*
X2448753Y-836079D02*
X2458277Y-817031D01*
X2458277Y-817031D02*
X2467801Y-807508D01*
X2467801Y-807508D02*
X2486848Y-797984D01*
X2620182Y-797984D02*
X2743991Y-797984D01*
X2743991Y-797984D02*
X2677325Y-874174D01*
X2677325Y-874174D02*
X2705896Y-874174D01*
X2705896Y-874174D02*
X2724944Y-883698D01*
X2724944Y-883698D02*
X2734468Y-893222D01*
X2734468Y-893222D02*
X2743991Y-912269D01*
X2743991Y-912269D02*
X2743991Y-959888D01*
X2743991Y-959888D02*
X2734468Y-978936D01*
X2734468Y-978936D02*
X2724944Y-988460D01*
X2724944Y-988460D02*
X2705896Y-997984D01*
X2705896Y-997984D02*
X2648753Y-997984D01*
X2648753Y-997984D02*
X2629706Y-988460D01*
X2629706Y-988460D02*
X2620182Y-978936D01*
X2924944Y-797984D02*
X2829706Y-797984D01*
X2829706Y-797984D02*
X2820182Y-893222D01*
X2820182Y-893222D02*
X2829706Y-883698D01*
X2829706Y-883698D02*
X2848753Y-874174D01*
X2848753Y-874174D02*
X2896372Y-874174D01*
X2896372Y-874174D02*
X2915420Y-883698D01*
X2915420Y-883698D02*
X2924944Y-893222D01*
X2924944Y-893222D02*
X2934467Y-912269D01*
X2934467Y-912269D02*
X2934467Y-959888D01*
X2934467Y-959888D02*
X2924944Y-978936D01*
X2924944Y-978936D02*
X2915420Y-988460D01*
X2915420Y-988460D02*
X2896372Y-997984D01*
X2896372Y-997984D02*
X2848753Y-997984D01*
X2848753Y-997984D02*
X2829706Y-988460D01*
X2829706Y-988460D02*
X2820182Y-978936D01*
X3105896Y-864650D02*
X3105896Y-997984D01*
X3058277Y-788460D02*
X3010658Y-931317D01*
X3010658Y-931317D02*
X3134467Y-931317D01*
X3201134Y-797984D02*
X3201134Y-836079D01*
X3277325Y-797984D02*
X3277325Y-836079D01*
X3572563Y-1074174D02*
X3563039Y-1064650D01*
X3563039Y-1064650D02*
X3543991Y-1036079D01*
X3543991Y-1036079D02*
X3534468Y-1017031D01*
X3534468Y-1017031D02*
X3524944Y-988460D01*
X3524944Y-988460D02*
X3515420Y-940841D01*
X3515420Y-940841D02*
X3515420Y-902746D01*
X3515420Y-902746D02*
X3524944Y-855127D01*
X3524944Y-855127D02*
X3534468Y-826555D01*
X3534468Y-826555D02*
X3543991Y-807508D01*
X3543991Y-807508D02*
X3563039Y-778936D01*
X3563039Y-778936D02*
X3572563Y-769412D01*
X3629706Y-797984D02*
X3753515Y-797984D01*
X3753515Y-797984D02*
X3686848Y-874174D01*
X3686848Y-874174D02*
X3715420Y-874174D01*
X3715420Y-874174D02*
X3734468Y-883698D01*
X3734468Y-883698D02*
X3743991Y-893222D01*
X3743991Y-893222D02*
X3753515Y-912269D01*
X3753515Y-912269D02*
X3753515Y-959888D01*
X3753515Y-959888D02*
X3743991Y-978936D01*
X3743991Y-978936D02*
X3734468Y-988460D01*
X3734468Y-988460D02*
X3715420Y-997984D01*
X3715420Y-997984D02*
X3658277Y-997984D01*
X3658277Y-997984D02*
X3639229Y-988460D01*
X3639229Y-988460D02*
X3629706Y-978936D01*
X3934468Y-797984D02*
X3839229Y-797984D01*
X3839229Y-797984D02*
X3829706Y-893222D01*
X3829706Y-893222D02*
X3839229Y-883698D01*
X3839229Y-883698D02*
X3858277Y-874174D01*
X3858277Y-874174D02*
X3905896Y-874174D01*
X3905896Y-874174D02*
X3924944Y-883698D01*
X3924944Y-883698D02*
X3934468Y-893222D01*
X3934468Y-893222D02*
X3943991Y-912269D01*
X3943991Y-912269D02*
X3943991Y-959888D01*
X3943991Y-959888D02*
X3934468Y-978936D01*
X3934468Y-978936D02*
X3924944Y-988460D01*
X3924944Y-988460D02*
X3905896Y-997984D01*
X3905896Y-997984D02*
X3858277Y-997984D01*
X3858277Y-997984D02*
X3839229Y-988460D01*
X3839229Y-988460D02*
X3829706Y-978936D01*
X4182087Y-997984D02*
X4182087Y-797984D01*
X4267801Y-997984D02*
X4267801Y-893222D01*
X4267801Y-893222D02*
X4258277Y-874174D01*
X4258277Y-874174D02*
X4239230Y-864650D01*
X4239230Y-864650D02*
X4210658Y-864650D01*
X4210658Y-864650D02*
X4191610Y-874174D01*
X4191610Y-874174D02*
X4182087Y-883698D01*
X4391611Y-997984D02*
X4372563Y-988460D01*
X4372563Y-988460D02*
X4363039Y-978936D01*
X4363039Y-978936D02*
X4353515Y-959888D01*
X4353515Y-959888D02*
X4353515Y-902746D01*
X4353515Y-902746D02*
X4363039Y-883698D01*
X4363039Y-883698D02*
X4372563Y-874174D01*
X4372563Y-874174D02*
X4391611Y-864650D01*
X4391611Y-864650D02*
X4420182Y-864650D01*
X4420182Y-864650D02*
X4439230Y-874174D01*
X4439230Y-874174D02*
X4448753Y-883698D01*
X4448753Y-883698D02*
X4458277Y-902746D01*
X4458277Y-902746D02*
X4458277Y-959888D01*
X4458277Y-959888D02*
X4448753Y-978936D01*
X4448753Y-978936D02*
X4439230Y-988460D01*
X4439230Y-988460D02*
X4420182Y-997984D01*
X4420182Y-997984D02*
X4391611Y-997984D01*
X4572563Y-997984D02*
X4553515Y-988460D01*
X4553515Y-988460D02*
X4543992Y-969412D01*
X4543992Y-969412D02*
X4543992Y-797984D01*
X4724944Y-988460D02*
X4705896Y-997984D01*
X4705896Y-997984D02*
X4667801Y-997984D01*
X4667801Y-997984D02*
X4648753Y-988460D01*
X4648753Y-988460D02*
X4639230Y-969412D01*
X4639230Y-969412D02*
X4639230Y-893222D01*
X4639230Y-893222D02*
X4648753Y-874174D01*
X4648753Y-874174D02*
X4667801Y-864650D01*
X4667801Y-864650D02*
X4705896Y-864650D01*
X4705896Y-864650D02*
X4724944Y-874174D01*
X4724944Y-874174D02*
X4734468Y-893222D01*
X4734468Y-893222D02*
X4734468Y-912269D01*
X4734468Y-912269D02*
X4639230Y-931317D01*
X4810658Y-988460D02*
X4829706Y-997984D01*
X4829706Y-997984D02*
X4867801Y-997984D01*
X4867801Y-997984D02*
X4886849Y-988460D01*
X4886849Y-988460D02*
X4896373Y-969412D01*
X4896373Y-969412D02*
X4896373Y-959888D01*
X4896373Y-959888D02*
X4886849Y-940841D01*
X4886849Y-940841D02*
X4867801Y-931317D01*
X4867801Y-931317D02*
X4839230Y-931317D01*
X4839230Y-931317D02*
X4820182Y-921793D01*
X4820182Y-921793D02*
X4810658Y-902746D01*
X4810658Y-902746D02*
X4810658Y-893222D01*
X4810658Y-893222D02*
X4820182Y-874174D01*
X4820182Y-874174D02*
X4839230Y-864650D01*
X4839230Y-864650D02*
X4867801Y-864650D01*
X4867801Y-864650D02*
X4886849Y-874174D01*
X4963039Y-1074174D02*
X4972563Y-1064650D01*
X4972563Y-1064650D02*
X4991611Y-1036079D01*
X4991611Y-1036079D02*
X5001134Y-1017031D01*
X5001134Y-1017031D02*
X5010658Y-988460D01*
X5010658Y-988460D02*
X5020182Y-940841D01*
X5020182Y-940841D02*
X5020182Y-902746D01*
X5020182Y-902746D02*
X5010658Y-855127D01*
X5010658Y-855127D02*
X5001134Y-826555D01*
X5001134Y-826555D02*
X4991611Y-807508D01*
X4991611Y-807508D02*
X4972563Y-778936D01*
X4972563Y-778936D02*
X4963039Y-769412D01*
D12*
X-52500Y-1120500D02*
X-52500Y-1220500D01*
X-102500Y-1170500D02*
X-2500Y-1170500D01*
D11*
X363039Y-1261984D02*
X248753Y-1261984D01*
X305896Y-1261984D02*
X305896Y-1061984D01*
X305896Y-1061984D02*
X286848Y-1090555D01*
X286848Y-1090555D02*
X267801Y-1109603D01*
X267801Y-1109603D02*
X248753Y-1119127D01*
X448753Y-1242936D02*
X458277Y-1252460D01*
X458277Y-1252460D02*
X448753Y-1261984D01*
X448753Y-1261984D02*
X439229Y-1252460D01*
X439229Y-1252460D02*
X448753Y-1242936D01*
X448753Y-1242936D02*
X448753Y-1261984D01*
X582086Y-1061984D02*
X601134Y-1061984D01*
X601134Y-1061984D02*
X620182Y-1071508D01*
X620182Y-1071508D02*
X629705Y-1081031D01*
X629705Y-1081031D02*
X639229Y-1100079D01*
X639229Y-1100079D02*
X648753Y-1138174D01*
X648753Y-1138174D02*
X648753Y-1185793D01*
X648753Y-1185793D02*
X639229Y-1223889D01*
X639229Y-1223889D02*
X629705Y-1242936D01*
X629705Y-1242936D02*
X620182Y-1252460D01*
X620182Y-1252460D02*
X601134Y-1261984D01*
X601134Y-1261984D02*
X582086Y-1261984D01*
X582086Y-1261984D02*
X563039Y-1252460D01*
X563039Y-1252460D02*
X553515Y-1242936D01*
X553515Y-1242936D02*
X543991Y-1223889D01*
X543991Y-1223889D02*
X534467Y-1185793D01*
X534467Y-1185793D02*
X534467Y-1138174D01*
X534467Y-1138174D02*
X543991Y-1100079D01*
X543991Y-1100079D02*
X553515Y-1081031D01*
X553515Y-1081031D02*
X563039Y-1071508D01*
X563039Y-1071508D02*
X582086Y-1061984D01*
X772562Y-1061984D02*
X791610Y-1061984D01*
X791610Y-1061984D02*
X810658Y-1071508D01*
X810658Y-1071508D02*
X820182Y-1081031D01*
X820182Y-1081031D02*
X829705Y-1100079D01*
X829705Y-1100079D02*
X839229Y-1138174D01*
X839229Y-1138174D02*
X839229Y-1185793D01*
X839229Y-1185793D02*
X829705Y-1223889D01*
X829705Y-1223889D02*
X820182Y-1242936D01*
X820182Y-1242936D02*
X810658Y-1252460D01*
X810658Y-1252460D02*
X791610Y-1261984D01*
X791610Y-1261984D02*
X772562Y-1261984D01*
X772562Y-1261984D02*
X753515Y-1252460D01*
X753515Y-1252460D02*
X743991Y-1242936D01*
X743991Y-1242936D02*
X734467Y-1223889D01*
X734467Y-1223889D02*
X724943Y-1185793D01*
X724943Y-1185793D02*
X724943Y-1138174D01*
X724943Y-1138174D02*
X734467Y-1100079D01*
X734467Y-1100079D02*
X743991Y-1081031D01*
X743991Y-1081031D02*
X753515Y-1071508D01*
X753515Y-1071508D02*
X772562Y-1061984D01*
X963039Y-1061984D02*
X982086Y-1061984D01*
X982086Y-1061984D02*
X1001134Y-1071508D01*
X1001134Y-1071508D02*
X1010658Y-1081031D01*
X1010658Y-1081031D02*
X1020182Y-1100079D01*
X1020182Y-1100079D02*
X1029705Y-1138174D01*
X1029705Y-1138174D02*
X1029705Y-1185793D01*
X1029705Y-1185793D02*
X1020182Y-1223889D01*
X1020182Y-1223889D02*
X1010658Y-1242936D01*
X1010658Y-1242936D02*
X1001134Y-1252460D01*
X1001134Y-1252460D02*
X982086Y-1261984D01*
X982086Y-1261984D02*
X963039Y-1261984D01*
X963039Y-1261984D02*
X943991Y-1252460D01*
X943991Y-1252460D02*
X934467Y-1242936D01*
X934467Y-1242936D02*
X924943Y-1223889D01*
X924943Y-1223889D02*
X915420Y-1185793D01*
X915420Y-1185793D02*
X915420Y-1138174D01*
X915420Y-1138174D02*
X924943Y-1100079D01*
X924943Y-1100079D02*
X934467Y-1081031D01*
X934467Y-1081031D02*
X943991Y-1071508D01*
X943991Y-1071508D02*
X963039Y-1061984D01*
X1115420Y-1261984D02*
X1115420Y-1128650D01*
X1115420Y-1147698D02*
X1124944Y-1138174D01*
X1124944Y-1138174D02*
X1143991Y-1128650D01*
X1143991Y-1128650D02*
X1172563Y-1128650D01*
X1172563Y-1128650D02*
X1191610Y-1138174D01*
X1191610Y-1138174D02*
X1201134Y-1157222D01*
X1201134Y-1157222D02*
X1201134Y-1261984D01*
X1201134Y-1157222D02*
X1210658Y-1138174D01*
X1210658Y-1138174D02*
X1229705Y-1128650D01*
X1229705Y-1128650D02*
X1258277Y-1128650D01*
X1258277Y-1128650D02*
X1277325Y-1138174D01*
X1277325Y-1138174D02*
X1286848Y-1157222D01*
X1286848Y-1157222D02*
X1286848Y-1261984D01*
X1382086Y-1261984D02*
X1382086Y-1128650D01*
X1382086Y-1147698D02*
X1391610Y-1138174D01*
X1391610Y-1138174D02*
X1410658Y-1128650D01*
X1410658Y-1128650D02*
X1439229Y-1128650D01*
X1439229Y-1128650D02*
X1458277Y-1138174D01*
X1458277Y-1138174D02*
X1467801Y-1157222D01*
X1467801Y-1157222D02*
X1467801Y-1261984D01*
X1467801Y-1157222D02*
X1477324Y-1138174D01*
X1477324Y-1138174D02*
X1496372Y-1128650D01*
X1496372Y-1128650D02*
X1524943Y-1128650D01*
X1524943Y-1128650D02*
X1543991Y-1138174D01*
X1543991Y-1138174D02*
X1553515Y-1157222D01*
X1553515Y-1157222D02*
X1553515Y-1261984D01*
X1943991Y-1052460D02*
X1772563Y-1309603D01*
X2201134Y-1061984D02*
X2220182Y-1061984D01*
X2220182Y-1061984D02*
X2239229Y-1071508D01*
X2239229Y-1071508D02*
X2248753Y-1081031D01*
X2248753Y-1081031D02*
X2258277Y-1100079D01*
X2258277Y-1100079D02*
X2267801Y-1138174D01*
X2267801Y-1138174D02*
X2267801Y-1185793D01*
X2267801Y-1185793D02*
X2258277Y-1223889D01*
X2258277Y-1223889D02*
X2248753Y-1242936D01*
X2248753Y-1242936D02*
X2239229Y-1252460D01*
X2239229Y-1252460D02*
X2220182Y-1261984D01*
X2220182Y-1261984D02*
X2201134Y-1261984D01*
X2201134Y-1261984D02*
X2182087Y-1252460D01*
X2182087Y-1252460D02*
X2172563Y-1242936D01*
X2172563Y-1242936D02*
X2163039Y-1223889D01*
X2163039Y-1223889D02*
X2153515Y-1185793D01*
X2153515Y-1185793D02*
X2153515Y-1138174D01*
X2153515Y-1138174D02*
X2163039Y-1100079D01*
X2163039Y-1100079D02*
X2172563Y-1081031D01*
X2172563Y-1081031D02*
X2182087Y-1071508D01*
X2182087Y-1071508D02*
X2201134Y-1061984D01*
X2353515Y-1242936D02*
X2363039Y-1252460D01*
X2363039Y-1252460D02*
X2353515Y-1261984D01*
X2353515Y-1261984D02*
X2343991Y-1252460D01*
X2343991Y-1252460D02*
X2353515Y-1242936D01*
X2353515Y-1242936D02*
X2353515Y-1261984D01*
X2486848Y-1061984D02*
X2505896Y-1061984D01*
X2505896Y-1061984D02*
X2524944Y-1071508D01*
X2524944Y-1071508D02*
X2534468Y-1081031D01*
X2534468Y-1081031D02*
X2543991Y-1100079D01*
X2543991Y-1100079D02*
X2553515Y-1138174D01*
X2553515Y-1138174D02*
X2553515Y-1185793D01*
X2553515Y-1185793D02*
X2543991Y-1223889D01*
X2543991Y-1223889D02*
X2534468Y-1242936D01*
X2534468Y-1242936D02*
X2524944Y-1252460D01*
X2524944Y-1252460D02*
X2505896Y-1261984D01*
X2505896Y-1261984D02*
X2486848Y-1261984D01*
X2486848Y-1261984D02*
X2467801Y-1252460D01*
X2467801Y-1252460D02*
X2458277Y-1242936D01*
X2458277Y-1242936D02*
X2448753Y-1223889D01*
X2448753Y-1223889D02*
X2439229Y-1185793D01*
X2439229Y-1185793D02*
X2439229Y-1138174D01*
X2439229Y-1138174D02*
X2448753Y-1100079D01*
X2448753Y-1100079D02*
X2458277Y-1081031D01*
X2458277Y-1081031D02*
X2467801Y-1071508D01*
X2467801Y-1071508D02*
X2486848Y-1061984D01*
X2620182Y-1061984D02*
X2743991Y-1061984D01*
X2743991Y-1061984D02*
X2677325Y-1138174D01*
X2677325Y-1138174D02*
X2705896Y-1138174D01*
X2705896Y-1138174D02*
X2724944Y-1147698D01*
X2724944Y-1147698D02*
X2734468Y-1157222D01*
X2734468Y-1157222D02*
X2743991Y-1176270D01*
X2743991Y-1176270D02*
X2743991Y-1223889D01*
X2743991Y-1223889D02*
X2734468Y-1242936D01*
X2734468Y-1242936D02*
X2724944Y-1252460D01*
X2724944Y-1252460D02*
X2705896Y-1261984D01*
X2705896Y-1261984D02*
X2648753Y-1261984D01*
X2648753Y-1261984D02*
X2629706Y-1252460D01*
X2629706Y-1252460D02*
X2620182Y-1242936D01*
X2839229Y-1261984D02*
X2877325Y-1261984D01*
X2877325Y-1261984D02*
X2896372Y-1252460D01*
X2896372Y-1252460D02*
X2905896Y-1242936D01*
X2905896Y-1242936D02*
X2924944Y-1214365D01*
X2924944Y-1214365D02*
X2934467Y-1176270D01*
X2934467Y-1176270D02*
X2934467Y-1100079D01*
X2934467Y-1100079D02*
X2924944Y-1081031D01*
X2924944Y-1081031D02*
X2915420Y-1071508D01*
X2915420Y-1071508D02*
X2896372Y-1061984D01*
X2896372Y-1061984D02*
X2858277Y-1061984D01*
X2858277Y-1061984D02*
X2839229Y-1071508D01*
X2839229Y-1071508D02*
X2829706Y-1081031D01*
X2829706Y-1081031D02*
X2820182Y-1100079D01*
X2820182Y-1100079D02*
X2820182Y-1147698D01*
X2820182Y-1147698D02*
X2829706Y-1166746D01*
X2829706Y-1166746D02*
X2839229Y-1176270D01*
X2839229Y-1176270D02*
X2858277Y-1185793D01*
X2858277Y-1185793D02*
X2896372Y-1185793D01*
X2896372Y-1185793D02*
X2915420Y-1176270D01*
X2915420Y-1176270D02*
X2924944Y-1166746D01*
X2924944Y-1166746D02*
X2934467Y-1147698D01*
X3105896Y-1128650D02*
X3105896Y-1261984D01*
X3058277Y-1052460D02*
X3010658Y-1195317D01*
X3010658Y-1195317D02*
X3134467Y-1195317D01*
X3201134Y-1061984D02*
X3201134Y-1100079D01*
X3277325Y-1061984D02*
X3277325Y-1100079D01*
X3572563Y-1338174D02*
X3563039Y-1328650D01*
X3563039Y-1328650D02*
X3543991Y-1300079D01*
X3543991Y-1300079D02*
X3534468Y-1281031D01*
X3534468Y-1281031D02*
X3524944Y-1252460D01*
X3524944Y-1252460D02*
X3515420Y-1204841D01*
X3515420Y-1204841D02*
X3515420Y-1166746D01*
X3515420Y-1166746D02*
X3524944Y-1119127D01*
X3524944Y-1119127D02*
X3534468Y-1090555D01*
X3534468Y-1090555D02*
X3543991Y-1071508D01*
X3543991Y-1071508D02*
X3563039Y-1042936D01*
X3563039Y-1042936D02*
X3572563Y-1033412D01*
X3677325Y-1147698D02*
X3658277Y-1138174D01*
X3658277Y-1138174D02*
X3648753Y-1128650D01*
X3648753Y-1128650D02*
X3639229Y-1109603D01*
X3639229Y-1109603D02*
X3639229Y-1100079D01*
X3639229Y-1100079D02*
X3648753Y-1081031D01*
X3648753Y-1081031D02*
X3658277Y-1071508D01*
X3658277Y-1071508D02*
X3677325Y-1061984D01*
X3677325Y-1061984D02*
X3715420Y-1061984D01*
X3715420Y-1061984D02*
X3734468Y-1071508D01*
X3734468Y-1071508D02*
X3743991Y-1081031D01*
X3743991Y-1081031D02*
X3753515Y-1100079D01*
X3753515Y-1100079D02*
X3753515Y-1109603D01*
X3753515Y-1109603D02*
X3743991Y-1128650D01*
X3743991Y-1128650D02*
X3734468Y-1138174D01*
X3734468Y-1138174D02*
X3715420Y-1147698D01*
X3715420Y-1147698D02*
X3677325Y-1147698D01*
X3677325Y-1147698D02*
X3658277Y-1157222D01*
X3658277Y-1157222D02*
X3648753Y-1166746D01*
X3648753Y-1166746D02*
X3639229Y-1185793D01*
X3639229Y-1185793D02*
X3639229Y-1223889D01*
X3639229Y-1223889D02*
X3648753Y-1242936D01*
X3648753Y-1242936D02*
X3658277Y-1252460D01*
X3658277Y-1252460D02*
X3677325Y-1261984D01*
X3677325Y-1261984D02*
X3715420Y-1261984D01*
X3715420Y-1261984D02*
X3734468Y-1252460D01*
X3734468Y-1252460D02*
X3743991Y-1242936D01*
X3743991Y-1242936D02*
X3753515Y-1223889D01*
X3753515Y-1223889D02*
X3753515Y-1185793D01*
X3753515Y-1185793D02*
X3743991Y-1166746D01*
X3743991Y-1166746D02*
X3734468Y-1157222D01*
X3734468Y-1157222D02*
X3715420Y-1147698D01*
X3991610Y-1261984D02*
X3991610Y-1061984D01*
X4077325Y-1261984D02*
X4077325Y-1157222D01*
X4077325Y-1157222D02*
X4067801Y-1138174D01*
X4067801Y-1138174D02*
X4048753Y-1128650D01*
X4048753Y-1128650D02*
X4020182Y-1128650D01*
X4020182Y-1128650D02*
X4001134Y-1138174D01*
X4001134Y-1138174D02*
X3991610Y-1147698D01*
X4201134Y-1261984D02*
X4182087Y-1252460D01*
X4182087Y-1252460D02*
X4172563Y-1242936D01*
X4172563Y-1242936D02*
X4163039Y-1223889D01*
X4163039Y-1223889D02*
X4163039Y-1166746D01*
X4163039Y-1166746D02*
X4172563Y-1147698D01*
X4172563Y-1147698D02*
X4182087Y-1138174D01*
X4182087Y-1138174D02*
X4201134Y-1128650D01*
X4201134Y-1128650D02*
X4229706Y-1128650D01*
X4229706Y-1128650D02*
X4248753Y-1138174D01*
X4248753Y-1138174D02*
X4258277Y-1147698D01*
X4258277Y-1147698D02*
X4267801Y-1166746D01*
X4267801Y-1166746D02*
X4267801Y-1223889D01*
X4267801Y-1223889D02*
X4258277Y-1242936D01*
X4258277Y-1242936D02*
X4248753Y-1252460D01*
X4248753Y-1252460D02*
X4229706Y-1261984D01*
X4229706Y-1261984D02*
X4201134Y-1261984D01*
X4382087Y-1261984D02*
X4363039Y-1252460D01*
X4363039Y-1252460D02*
X4353515Y-1233412D01*
X4353515Y-1233412D02*
X4353515Y-1061984D01*
X4534468Y-1252460D02*
X4515420Y-1261984D01*
X4515420Y-1261984D02*
X4477325Y-1261984D01*
X4477325Y-1261984D02*
X4458277Y-1252460D01*
X4458277Y-1252460D02*
X4448753Y-1233412D01*
X4448753Y-1233412D02*
X4448753Y-1157222D01*
X4448753Y-1157222D02*
X4458277Y-1138174D01*
X4458277Y-1138174D02*
X4477325Y-1128650D01*
X4477325Y-1128650D02*
X4515420Y-1128650D01*
X4515420Y-1128650D02*
X4534468Y-1138174D01*
X4534468Y-1138174D02*
X4543992Y-1157222D01*
X4543992Y-1157222D02*
X4543992Y-1176270D01*
X4543992Y-1176270D02*
X4448753Y-1195317D01*
X4620182Y-1252460D02*
X4639230Y-1261984D01*
X4639230Y-1261984D02*
X4677325Y-1261984D01*
X4677325Y-1261984D02*
X4696373Y-1252460D01*
X4696373Y-1252460D02*
X4705896Y-1233412D01*
X4705896Y-1233412D02*
X4705896Y-1223889D01*
X4705896Y-1223889D02*
X4696373Y-1204841D01*
X4696373Y-1204841D02*
X4677325Y-1195317D01*
X4677325Y-1195317D02*
X4648753Y-1195317D01*
X4648753Y-1195317D02*
X4629706Y-1185793D01*
X4629706Y-1185793D02*
X4620182Y-1166746D01*
X4620182Y-1166746D02*
X4620182Y-1157222D01*
X4620182Y-1157222D02*
X4629706Y-1138174D01*
X4629706Y-1138174D02*
X4648753Y-1128650D01*
X4648753Y-1128650D02*
X4677325Y-1128650D01*
X4677325Y-1128650D02*
X4696373Y-1138174D01*
X4772563Y-1338174D02*
X4782087Y-1328650D01*
X4782087Y-1328650D02*
X4801134Y-1300079D01*
X4801134Y-1300079D02*
X4810658Y-1281031D01*
X4810658Y-1281031D02*
X4820182Y-1252460D01*
X4820182Y-1252460D02*
X4829706Y-1204841D01*
X4829706Y-1204841D02*
X4829706Y-1166746D01*
X4829706Y-1166746D02*
X4820182Y-1119127D01*
X4820182Y-1119127D02*
X4810658Y-1090555D01*
X4810658Y-1090555D02*
X4801134Y-1071508D01*
X4801134Y-1071508D02*
X4782087Y-1042936D01*
X4782087Y-1042936D02*
X4772563Y-1033412D01*
D13*
X-17437Y-1470563D02*
X-17437Y-1398437D01*
X-89563Y-1398437D01*
X-89563Y-1470563D01*
X-17437Y-1470563D01*
D11*
X363039Y-1525984D02*
X248753Y-1525984D01*
X305896Y-1525984D02*
X305896Y-1325984D01*
X305896Y-1325984D02*
X286848Y-1354555D01*
X286848Y-1354555D02*
X267801Y-1373603D01*
X267801Y-1373603D02*
X248753Y-1383127D01*
X448753Y-1506936D02*
X458277Y-1516460D01*
X458277Y-1516460D02*
X448753Y-1525984D01*
X448753Y-1525984D02*
X439229Y-1516460D01*
X439229Y-1516460D02*
X448753Y-1506936D01*
X448753Y-1506936D02*
X448753Y-1525984D01*
X582086Y-1325984D02*
X601134Y-1325984D01*
X601134Y-1325984D02*
X620182Y-1335508D01*
X620182Y-1335508D02*
X629705Y-1345031D01*
X629705Y-1345031D02*
X639229Y-1364079D01*
X639229Y-1364079D02*
X648753Y-1402174D01*
X648753Y-1402174D02*
X648753Y-1449793D01*
X648753Y-1449793D02*
X639229Y-1487888D01*
X639229Y-1487888D02*
X629705Y-1506936D01*
X629705Y-1506936D02*
X620182Y-1516460D01*
X620182Y-1516460D02*
X601134Y-1525984D01*
X601134Y-1525984D02*
X582086Y-1525984D01*
X582086Y-1525984D02*
X563039Y-1516460D01*
X563039Y-1516460D02*
X553515Y-1506936D01*
X553515Y-1506936D02*
X543991Y-1487888D01*
X543991Y-1487888D02*
X534467Y-1449793D01*
X534467Y-1449793D02*
X534467Y-1402174D01*
X534467Y-1402174D02*
X543991Y-1364079D01*
X543991Y-1364079D02*
X553515Y-1345031D01*
X553515Y-1345031D02*
X563039Y-1335508D01*
X563039Y-1335508D02*
X582086Y-1325984D01*
X724943Y-1345031D02*
X734467Y-1335508D01*
X734467Y-1335508D02*
X753515Y-1325984D01*
X753515Y-1325984D02*
X801134Y-1325984D01*
X801134Y-1325984D02*
X820182Y-1335508D01*
X820182Y-1335508D02*
X829705Y-1345031D01*
X829705Y-1345031D02*
X839229Y-1364079D01*
X839229Y-1364079D02*
X839229Y-1383127D01*
X839229Y-1383127D02*
X829705Y-1411698D01*
X829705Y-1411698D02*
X715420Y-1525984D01*
X715420Y-1525984D02*
X839229Y-1525984D01*
X963039Y-1325984D02*
X982086Y-1325984D01*
X982086Y-1325984D02*
X1001134Y-1335508D01*
X1001134Y-1335508D02*
X1010658Y-1345031D01*
X1010658Y-1345031D02*
X1020182Y-1364079D01*
X1020182Y-1364079D02*
X1029705Y-1402174D01*
X1029705Y-1402174D02*
X1029705Y-1449793D01*
X1029705Y-1449793D02*
X1020182Y-1487888D01*
X1020182Y-1487888D02*
X1010658Y-1506936D01*
X1010658Y-1506936D02*
X1001134Y-1516460D01*
X1001134Y-1516460D02*
X982086Y-1525984D01*
X982086Y-1525984D02*
X963039Y-1525984D01*
X963039Y-1525984D02*
X943991Y-1516460D01*
X943991Y-1516460D02*
X934467Y-1506936D01*
X934467Y-1506936D02*
X924943Y-1487888D01*
X924943Y-1487888D02*
X915420Y-1449793D01*
X915420Y-1449793D02*
X915420Y-1402174D01*
X915420Y-1402174D02*
X924943Y-1364079D01*
X924943Y-1364079D02*
X934467Y-1345031D01*
X934467Y-1345031D02*
X943991Y-1335508D01*
X943991Y-1335508D02*
X963039Y-1325984D01*
X1115420Y-1525984D02*
X1115420Y-1392650D01*
X1115420Y-1411698D02*
X1124944Y-1402174D01*
X1124944Y-1402174D02*
X1143991Y-1392650D01*
X1143991Y-1392650D02*
X1172563Y-1392650D01*
X1172563Y-1392650D02*
X1191610Y-1402174D01*
X1191610Y-1402174D02*
X1201134Y-1421222D01*
X1201134Y-1421222D02*
X1201134Y-1525984D01*
X1201134Y-1421222D02*
X1210658Y-1402174D01*
X1210658Y-1402174D02*
X1229705Y-1392650D01*
X1229705Y-1392650D02*
X1258277Y-1392650D01*
X1258277Y-1392650D02*
X1277325Y-1402174D01*
X1277325Y-1402174D02*
X1286848Y-1421222D01*
X1286848Y-1421222D02*
X1286848Y-1525984D01*
X1382086Y-1525984D02*
X1382086Y-1392650D01*
X1382086Y-1411698D02*
X1391610Y-1402174D01*
X1391610Y-1402174D02*
X1410658Y-1392650D01*
X1410658Y-1392650D02*
X1439229Y-1392650D01*
X1439229Y-1392650D02*
X1458277Y-1402174D01*
X1458277Y-1402174D02*
X1467801Y-1421222D01*
X1467801Y-1421222D02*
X1467801Y-1525984D01*
X1467801Y-1421222D02*
X1477324Y-1402174D01*
X1477324Y-1402174D02*
X1496372Y-1392650D01*
X1496372Y-1392650D02*
X1524943Y-1392650D01*
X1524943Y-1392650D02*
X1543991Y-1402174D01*
X1543991Y-1402174D02*
X1553515Y-1421222D01*
X1553515Y-1421222D02*
X1553515Y-1525984D01*
X1943991Y-1316460D02*
X1772563Y-1573603D01*
X2201134Y-1325984D02*
X2220182Y-1325984D01*
X2220182Y-1325984D02*
X2239229Y-1335508D01*
X2239229Y-1335508D02*
X2248753Y-1345031D01*
X2248753Y-1345031D02*
X2258277Y-1364079D01*
X2258277Y-1364079D02*
X2267801Y-1402174D01*
X2267801Y-1402174D02*
X2267801Y-1449793D01*
X2267801Y-1449793D02*
X2258277Y-1487888D01*
X2258277Y-1487888D02*
X2248753Y-1506936D01*
X2248753Y-1506936D02*
X2239229Y-1516460D01*
X2239229Y-1516460D02*
X2220182Y-1525984D01*
X2220182Y-1525984D02*
X2201134Y-1525984D01*
X2201134Y-1525984D02*
X2182087Y-1516460D01*
X2182087Y-1516460D02*
X2172563Y-1506936D01*
X2172563Y-1506936D02*
X2163039Y-1487888D01*
X2163039Y-1487888D02*
X2153515Y-1449793D01*
X2153515Y-1449793D02*
X2153515Y-1402174D01*
X2153515Y-1402174D02*
X2163039Y-1364079D01*
X2163039Y-1364079D02*
X2172563Y-1345031D01*
X2172563Y-1345031D02*
X2182087Y-1335508D01*
X2182087Y-1335508D02*
X2201134Y-1325984D01*
X2353515Y-1506936D02*
X2363039Y-1516460D01*
X2363039Y-1516460D02*
X2353515Y-1525984D01*
X2353515Y-1525984D02*
X2343991Y-1516460D01*
X2343991Y-1516460D02*
X2353515Y-1506936D01*
X2353515Y-1506936D02*
X2353515Y-1525984D01*
X2486848Y-1325984D02*
X2505896Y-1325984D01*
X2505896Y-1325984D02*
X2524944Y-1335508D01*
X2524944Y-1335508D02*
X2534468Y-1345031D01*
X2534468Y-1345031D02*
X2543991Y-1364079D01*
X2543991Y-1364079D02*
X2553515Y-1402174D01*
X2553515Y-1402174D02*
X2553515Y-1449793D01*
X2553515Y-1449793D02*
X2543991Y-1487888D01*
X2543991Y-1487888D02*
X2534468Y-1506936D01*
X2534468Y-1506936D02*
X2524944Y-1516460D01*
X2524944Y-1516460D02*
X2505896Y-1525984D01*
X2505896Y-1525984D02*
X2486848Y-1525984D01*
X2486848Y-1525984D02*
X2467801Y-1516460D01*
X2467801Y-1516460D02*
X2458277Y-1506936D01*
X2458277Y-1506936D02*
X2448753Y-1487888D01*
X2448753Y-1487888D02*
X2439229Y-1449793D01*
X2439229Y-1449793D02*
X2439229Y-1402174D01*
X2439229Y-1402174D02*
X2448753Y-1364079D01*
X2448753Y-1364079D02*
X2458277Y-1345031D01*
X2458277Y-1345031D02*
X2467801Y-1335508D01*
X2467801Y-1335508D02*
X2486848Y-1325984D01*
X2724944Y-1392650D02*
X2724944Y-1525984D01*
X2677325Y-1316460D02*
X2629706Y-1459317D01*
X2629706Y-1459317D02*
X2753515Y-1459317D01*
X2867801Y-1325984D02*
X2886848Y-1325984D01*
X2886848Y-1325984D02*
X2905896Y-1335508D01*
X2905896Y-1335508D02*
X2915420Y-1345031D01*
X2915420Y-1345031D02*
X2924944Y-1364079D01*
X2924944Y-1364079D02*
X2934467Y-1402174D01*
X2934467Y-1402174D02*
X2934467Y-1449793D01*
X2934467Y-1449793D02*
X2924944Y-1487888D01*
X2924944Y-1487888D02*
X2915420Y-1506936D01*
X2915420Y-1506936D02*
X2905896Y-1516460D01*
X2905896Y-1516460D02*
X2886848Y-1525984D01*
X2886848Y-1525984D02*
X2867801Y-1525984D01*
X2867801Y-1525984D02*
X2848753Y-1516460D01*
X2848753Y-1516460D02*
X2839229Y-1506936D01*
X2839229Y-1506936D02*
X2829706Y-1487888D01*
X2829706Y-1487888D02*
X2820182Y-1449793D01*
X2820182Y-1449793D02*
X2820182Y-1402174D01*
X2820182Y-1402174D02*
X2829706Y-1364079D01*
X2829706Y-1364079D02*
X2839229Y-1345031D01*
X2839229Y-1345031D02*
X2848753Y-1335508D01*
X2848753Y-1335508D02*
X2867801Y-1325984D01*
X3010658Y-1345031D02*
X3020182Y-1335508D01*
X3020182Y-1335508D02*
X3039229Y-1325984D01*
X3039229Y-1325984D02*
X3086848Y-1325984D01*
X3086848Y-1325984D02*
X3105896Y-1335508D01*
X3105896Y-1335508D02*
X3115420Y-1345031D01*
X3115420Y-1345031D02*
X3124944Y-1364079D01*
X3124944Y-1364079D02*
X3124944Y-1383127D01*
X3124944Y-1383127D02*
X3115420Y-1411698D01*
X3115420Y-1411698D02*
X3001134Y-1525984D01*
X3001134Y-1525984D02*
X3124944Y-1525984D01*
X3201134Y-1325984D02*
X3201134Y-1364079D01*
X3277325Y-1325984D02*
X3277325Y-1364079D01*
X3572563Y-1602174D02*
X3563039Y-1592650D01*
X3563039Y-1592650D02*
X3543991Y-1564079D01*
X3543991Y-1564079D02*
X3534468Y-1545031D01*
X3534468Y-1545031D02*
X3524944Y-1516460D01*
X3524944Y-1516460D02*
X3515420Y-1468841D01*
X3515420Y-1468841D02*
X3515420Y-1430746D01*
X3515420Y-1430746D02*
X3524944Y-1383127D01*
X3524944Y-1383127D02*
X3534468Y-1354555D01*
X3534468Y-1354555D02*
X3543991Y-1335508D01*
X3543991Y-1335508D02*
X3563039Y-1306936D01*
X3563039Y-1306936D02*
X3572563Y-1297412D01*
X3639229Y-1345031D02*
X3648753Y-1335508D01*
X3648753Y-1335508D02*
X3667801Y-1325984D01*
X3667801Y-1325984D02*
X3715420Y-1325984D01*
X3715420Y-1325984D02*
X3734468Y-1335508D01*
X3734468Y-1335508D02*
X3743991Y-1345031D01*
X3743991Y-1345031D02*
X3753515Y-1364079D01*
X3753515Y-1364079D02*
X3753515Y-1383127D01*
X3753515Y-1383127D02*
X3743991Y-1411698D01*
X3743991Y-1411698D02*
X3629706Y-1525984D01*
X3629706Y-1525984D02*
X3753515Y-1525984D01*
X3991610Y-1525984D02*
X3991610Y-1325984D01*
X4077325Y-1525984D02*
X4077325Y-1421222D01*
X4077325Y-1421222D02*
X4067801Y-1402174D01*
X4067801Y-1402174D02*
X4048753Y-1392650D01*
X4048753Y-1392650D02*
X4020182Y-1392650D01*
X4020182Y-1392650D02*
X4001134Y-1402174D01*
X4001134Y-1402174D02*
X3991610Y-1411698D01*
X4201134Y-1525984D02*
X4182087Y-1516460D01*
X4182087Y-1516460D02*
X4172563Y-1506936D01*
X4172563Y-1506936D02*
X4163039Y-1487888D01*
X4163039Y-1487888D02*
X4163039Y-1430746D01*
X4163039Y-1430746D02*
X4172563Y-1411698D01*
X4172563Y-1411698D02*
X4182087Y-1402174D01*
X4182087Y-1402174D02*
X4201134Y-1392650D01*
X4201134Y-1392650D02*
X4229706Y-1392650D01*
X4229706Y-1392650D02*
X4248753Y-1402174D01*
X4248753Y-1402174D02*
X4258277Y-1411698D01*
X4258277Y-1411698D02*
X4267801Y-1430746D01*
X4267801Y-1430746D02*
X4267801Y-1487888D01*
X4267801Y-1487888D02*
X4258277Y-1506936D01*
X4258277Y-1506936D02*
X4248753Y-1516460D01*
X4248753Y-1516460D02*
X4229706Y-1525984D01*
X4229706Y-1525984D02*
X4201134Y-1525984D01*
X4382087Y-1525984D02*
X4363039Y-1516460D01*
X4363039Y-1516460D02*
X4353515Y-1497412D01*
X4353515Y-1497412D02*
X4353515Y-1325984D01*
X4534468Y-1516460D02*
X4515420Y-1525984D01*
X4515420Y-1525984D02*
X4477325Y-1525984D01*
X4477325Y-1525984D02*
X4458277Y-1516460D01*
X4458277Y-1516460D02*
X4448753Y-1497412D01*
X4448753Y-1497412D02*
X4448753Y-1421222D01*
X4448753Y-1421222D02*
X4458277Y-1402174D01*
X4458277Y-1402174D02*
X4477325Y-1392650D01*
X4477325Y-1392650D02*
X4515420Y-1392650D01*
X4515420Y-1392650D02*
X4534468Y-1402174D01*
X4534468Y-1402174D02*
X4543992Y-1421222D01*
X4543992Y-1421222D02*
X4543992Y-1440269D01*
X4543992Y-1440269D02*
X4448753Y-1459317D01*
X4620182Y-1516460D02*
X4639230Y-1525984D01*
X4639230Y-1525984D02*
X4677325Y-1525984D01*
X4677325Y-1525984D02*
X4696373Y-1516460D01*
X4696373Y-1516460D02*
X4705896Y-1497412D01*
X4705896Y-1497412D02*
X4705896Y-1487888D01*
X4705896Y-1487888D02*
X4696373Y-1468841D01*
X4696373Y-1468841D02*
X4677325Y-1459317D01*
X4677325Y-1459317D02*
X4648753Y-1459317D01*
X4648753Y-1459317D02*
X4629706Y-1449793D01*
X4629706Y-1449793D02*
X4620182Y-1430746D01*
X4620182Y-1430746D02*
X4620182Y-1421222D01*
X4620182Y-1421222D02*
X4629706Y-1402174D01*
X4629706Y-1402174D02*
X4648753Y-1392650D01*
X4648753Y-1392650D02*
X4677325Y-1392650D01*
X4677325Y-1392650D02*
X4696373Y-1402174D01*
X4772563Y-1602174D02*
X4782087Y-1592650D01*
X4782087Y-1592650D02*
X4801134Y-1564079D01*
X4801134Y-1564079D02*
X4810658Y-1545031D01*
X4810658Y-1545031D02*
X4820182Y-1516460D01*
X4820182Y-1516460D02*
X4829706Y-1468841D01*
X4829706Y-1468841D02*
X4829706Y-1430746D01*
X4829706Y-1430746D02*
X4820182Y-1383127D01*
X4820182Y-1383127D02*
X4810658Y-1354555D01*
X4810658Y-1354555D02*
X4801134Y-1335508D01*
X4801134Y-1335508D02*
X4782087Y-1306936D01*
X4782087Y-1306936D02*
X4772563Y-1297412D01*
D14*
X-57500Y-1753500D02*
X-2500Y-1698500D01*
X-57500Y-1643500D01*
X-112500Y-1698500D01*
X-57500Y-1753500D01*
D11*
X363039Y-1789984D02*
X248753Y-1789984D01*
X305896Y-1789984D02*
X305896Y-1589984D01*
X305896Y-1589984D02*
X286848Y-1618555D01*
X286848Y-1618555D02*
X267801Y-1637603D01*
X267801Y-1637603D02*
X248753Y-1647127D01*
X448753Y-1770936D02*
X458277Y-1780460D01*
X458277Y-1780460D02*
X448753Y-1789984D01*
X448753Y-1789984D02*
X439229Y-1780460D01*
X439229Y-1780460D02*
X448753Y-1770936D01*
X448753Y-1770936D02*
X448753Y-1789984D01*
X648753Y-1789984D02*
X534467Y-1789984D01*
X591610Y-1789984D02*
X591610Y-1589984D01*
X591610Y-1589984D02*
X572563Y-1618555D01*
X572563Y-1618555D02*
X553515Y-1637603D01*
X553515Y-1637603D02*
X534467Y-1647127D01*
X772562Y-1589984D02*
X791610Y-1589984D01*
X791610Y-1589984D02*
X810658Y-1599508D01*
X810658Y-1599508D02*
X820182Y-1609031D01*
X820182Y-1609031D02*
X829705Y-1628079D01*
X829705Y-1628079D02*
X839229Y-1666174D01*
X839229Y-1666174D02*
X839229Y-1713793D01*
X839229Y-1713793D02*
X829705Y-1751888D01*
X829705Y-1751888D02*
X820182Y-1770936D01*
X820182Y-1770936D02*
X810658Y-1780460D01*
X810658Y-1780460D02*
X791610Y-1789984D01*
X791610Y-1789984D02*
X772562Y-1789984D01*
X772562Y-1789984D02*
X753515Y-1780460D01*
X753515Y-1780460D02*
X743991Y-1770936D01*
X743991Y-1770936D02*
X734467Y-1751888D01*
X734467Y-1751888D02*
X724943Y-1713793D01*
X724943Y-1713793D02*
X724943Y-1666174D01*
X724943Y-1666174D02*
X734467Y-1628079D01*
X734467Y-1628079D02*
X743991Y-1609031D01*
X743991Y-1609031D02*
X753515Y-1599508D01*
X753515Y-1599508D02*
X772562Y-1589984D01*
X963039Y-1589984D02*
X982086Y-1589984D01*
X982086Y-1589984D02*
X1001134Y-1599508D01*
X1001134Y-1599508D02*
X1010658Y-1609031D01*
X1010658Y-1609031D02*
X1020182Y-1628079D01*
X1020182Y-1628079D02*
X1029705Y-1666174D01*
X1029705Y-1666174D02*
X1029705Y-1713793D01*
X1029705Y-1713793D02*
X1020182Y-1751888D01*
X1020182Y-1751888D02*
X1010658Y-1770936D01*
X1010658Y-1770936D02*
X1001134Y-1780460D01*
X1001134Y-1780460D02*
X982086Y-1789984D01*
X982086Y-1789984D02*
X963039Y-1789984D01*
X963039Y-1789984D02*
X943991Y-1780460D01*
X943991Y-1780460D02*
X934467Y-1770936D01*
X934467Y-1770936D02*
X924943Y-1751888D01*
X924943Y-1751888D02*
X915420Y-1713793D01*
X915420Y-1713793D02*
X915420Y-1666174D01*
X915420Y-1666174D02*
X924943Y-1628079D01*
X924943Y-1628079D02*
X934467Y-1609031D01*
X934467Y-1609031D02*
X943991Y-1599508D01*
X943991Y-1599508D02*
X963039Y-1589984D01*
X1115420Y-1789984D02*
X1115420Y-1656650D01*
X1115420Y-1675698D02*
X1124944Y-1666174D01*
X1124944Y-1666174D02*
X1143991Y-1656650D01*
X1143991Y-1656650D02*
X1172563Y-1656650D01*
X1172563Y-1656650D02*
X1191610Y-1666174D01*
X1191610Y-1666174D02*
X1201134Y-1685222D01*
X1201134Y-1685222D02*
X1201134Y-1789984D01*
X1201134Y-1685222D02*
X1210658Y-1666174D01*
X1210658Y-1666174D02*
X1229705Y-1656650D01*
X1229705Y-1656650D02*
X1258277Y-1656650D01*
X1258277Y-1656650D02*
X1277325Y-1666174D01*
X1277325Y-1666174D02*
X1286848Y-1685222D01*
X1286848Y-1685222D02*
X1286848Y-1789984D01*
X1382086Y-1789984D02*
X1382086Y-1656650D01*
X1382086Y-1675698D02*
X1391610Y-1666174D01*
X1391610Y-1666174D02*
X1410658Y-1656650D01*
X1410658Y-1656650D02*
X1439229Y-1656650D01*
X1439229Y-1656650D02*
X1458277Y-1666174D01*
X1458277Y-1666174D02*
X1467801Y-1685222D01*
X1467801Y-1685222D02*
X1467801Y-1789984D01*
X1467801Y-1685222D02*
X1477324Y-1666174D01*
X1477324Y-1666174D02*
X1496372Y-1656650D01*
X1496372Y-1656650D02*
X1524943Y-1656650D01*
X1524943Y-1656650D02*
X1543991Y-1666174D01*
X1543991Y-1666174D02*
X1553515Y-1685222D01*
X1553515Y-1685222D02*
X1553515Y-1789984D01*
X1943991Y-1580460D02*
X1772563Y-1837603D01*
X2201134Y-1589984D02*
X2220182Y-1589984D01*
X2220182Y-1589984D02*
X2239229Y-1599508D01*
X2239229Y-1599508D02*
X2248753Y-1609031D01*
X2248753Y-1609031D02*
X2258277Y-1628079D01*
X2258277Y-1628079D02*
X2267801Y-1666174D01*
X2267801Y-1666174D02*
X2267801Y-1713793D01*
X2267801Y-1713793D02*
X2258277Y-1751888D01*
X2258277Y-1751888D02*
X2248753Y-1770936D01*
X2248753Y-1770936D02*
X2239229Y-1780460D01*
X2239229Y-1780460D02*
X2220182Y-1789984D01*
X2220182Y-1789984D02*
X2201134Y-1789984D01*
X2201134Y-1789984D02*
X2182087Y-1780460D01*
X2182087Y-1780460D02*
X2172563Y-1770936D01*
X2172563Y-1770936D02*
X2163039Y-1751888D01*
X2163039Y-1751888D02*
X2153515Y-1713793D01*
X2153515Y-1713793D02*
X2153515Y-1666174D01*
X2153515Y-1666174D02*
X2163039Y-1628079D01*
X2163039Y-1628079D02*
X2172563Y-1609031D01*
X2172563Y-1609031D02*
X2182087Y-1599508D01*
X2182087Y-1599508D02*
X2201134Y-1589984D01*
X2353515Y-1770936D02*
X2363039Y-1780460D01*
X2363039Y-1780460D02*
X2353515Y-1789984D01*
X2353515Y-1789984D02*
X2343991Y-1780460D01*
X2343991Y-1780460D02*
X2353515Y-1770936D01*
X2353515Y-1770936D02*
X2353515Y-1789984D01*
X2486848Y-1589984D02*
X2505896Y-1589984D01*
X2505896Y-1589984D02*
X2524944Y-1599508D01*
X2524944Y-1599508D02*
X2534468Y-1609031D01*
X2534468Y-1609031D02*
X2543991Y-1628079D01*
X2543991Y-1628079D02*
X2553515Y-1666174D01*
X2553515Y-1666174D02*
X2553515Y-1713793D01*
X2553515Y-1713793D02*
X2543991Y-1751888D01*
X2543991Y-1751888D02*
X2534468Y-1770936D01*
X2534468Y-1770936D02*
X2524944Y-1780460D01*
X2524944Y-1780460D02*
X2505896Y-1789984D01*
X2505896Y-1789984D02*
X2486848Y-1789984D01*
X2486848Y-1789984D02*
X2467801Y-1780460D01*
X2467801Y-1780460D02*
X2458277Y-1770936D01*
X2458277Y-1770936D02*
X2448753Y-1751888D01*
X2448753Y-1751888D02*
X2439229Y-1713793D01*
X2439229Y-1713793D02*
X2439229Y-1666174D01*
X2439229Y-1666174D02*
X2448753Y-1628079D01*
X2448753Y-1628079D02*
X2458277Y-1609031D01*
X2458277Y-1609031D02*
X2467801Y-1599508D01*
X2467801Y-1599508D02*
X2486848Y-1589984D01*
X2724944Y-1656650D02*
X2724944Y-1789984D01*
X2677325Y-1580460D02*
X2629706Y-1723317D01*
X2629706Y-1723317D02*
X2753515Y-1723317D01*
X2810658Y-1589984D02*
X2934467Y-1589984D01*
X2934467Y-1589984D02*
X2867801Y-1666174D01*
X2867801Y-1666174D02*
X2896372Y-1666174D01*
X2896372Y-1666174D02*
X2915420Y-1675698D01*
X2915420Y-1675698D02*
X2924944Y-1685222D01*
X2924944Y-1685222D02*
X2934467Y-1704269D01*
X2934467Y-1704269D02*
X2934467Y-1751888D01*
X2934467Y-1751888D02*
X2924944Y-1770936D01*
X2924944Y-1770936D02*
X2915420Y-1780460D01*
X2915420Y-1780460D02*
X2896372Y-1789984D01*
X2896372Y-1789984D02*
X2839229Y-1789984D01*
X2839229Y-1789984D02*
X2820182Y-1780460D01*
X2820182Y-1780460D02*
X2810658Y-1770936D01*
X3001134Y-1589984D02*
X3124944Y-1589984D01*
X3124944Y-1589984D02*
X3058277Y-1666174D01*
X3058277Y-1666174D02*
X3086848Y-1666174D01*
X3086848Y-1666174D02*
X3105896Y-1675698D01*
X3105896Y-1675698D02*
X3115420Y-1685222D01*
X3115420Y-1685222D02*
X3124944Y-1704269D01*
X3124944Y-1704269D02*
X3124944Y-1751888D01*
X3124944Y-1751888D02*
X3115420Y-1770936D01*
X3115420Y-1770936D02*
X3105896Y-1780460D01*
X3105896Y-1780460D02*
X3086848Y-1789984D01*
X3086848Y-1789984D02*
X3029706Y-1789984D01*
X3029706Y-1789984D02*
X3010658Y-1780460D01*
X3010658Y-1780460D02*
X3001134Y-1770936D01*
X3201134Y-1589984D02*
X3201134Y-1628079D01*
X3277325Y-1589984D02*
X3277325Y-1628079D01*
X3572563Y-1866174D02*
X3563039Y-1856650D01*
X3563039Y-1856650D02*
X3543991Y-1828079D01*
X3543991Y-1828079D02*
X3534468Y-1809031D01*
X3534468Y-1809031D02*
X3524944Y-1780460D01*
X3524944Y-1780460D02*
X3515420Y-1732841D01*
X3515420Y-1732841D02*
X3515420Y-1694746D01*
X3515420Y-1694746D02*
X3524944Y-1647127D01*
X3524944Y-1647127D02*
X3534468Y-1618555D01*
X3534468Y-1618555D02*
X3543991Y-1599508D01*
X3543991Y-1599508D02*
X3563039Y-1570936D01*
X3563039Y-1570936D02*
X3572563Y-1561412D01*
X3734468Y-1656650D02*
X3734468Y-1789984D01*
X3686848Y-1580460D02*
X3639229Y-1723317D01*
X3639229Y-1723317D02*
X3763039Y-1723317D01*
X3991610Y-1789984D02*
X3991610Y-1589984D01*
X4077325Y-1789984D02*
X4077325Y-1685222D01*
X4077325Y-1685222D02*
X4067801Y-1666174D01*
X4067801Y-1666174D02*
X4048753Y-1656650D01*
X4048753Y-1656650D02*
X4020182Y-1656650D01*
X4020182Y-1656650D02*
X4001134Y-1666174D01*
X4001134Y-1666174D02*
X3991610Y-1675698D01*
X4201134Y-1789984D02*
X4182087Y-1780460D01*
X4182087Y-1780460D02*
X4172563Y-1770936D01*
X4172563Y-1770936D02*
X4163039Y-1751888D01*
X4163039Y-1751888D02*
X4163039Y-1694746D01*
X4163039Y-1694746D02*
X4172563Y-1675698D01*
X4172563Y-1675698D02*
X4182087Y-1666174D01*
X4182087Y-1666174D02*
X4201134Y-1656650D01*
X4201134Y-1656650D02*
X4229706Y-1656650D01*
X4229706Y-1656650D02*
X4248753Y-1666174D01*
X4248753Y-1666174D02*
X4258277Y-1675698D01*
X4258277Y-1675698D02*
X4267801Y-1694746D01*
X4267801Y-1694746D02*
X4267801Y-1751888D01*
X4267801Y-1751888D02*
X4258277Y-1770936D01*
X4258277Y-1770936D02*
X4248753Y-1780460D01*
X4248753Y-1780460D02*
X4229706Y-1789984D01*
X4229706Y-1789984D02*
X4201134Y-1789984D01*
X4382087Y-1789984D02*
X4363039Y-1780460D01*
X4363039Y-1780460D02*
X4353515Y-1761412D01*
X4353515Y-1761412D02*
X4353515Y-1589984D01*
X4534468Y-1780460D02*
X4515420Y-1789984D01*
X4515420Y-1789984D02*
X4477325Y-1789984D01*
X4477325Y-1789984D02*
X4458277Y-1780460D01*
X4458277Y-1780460D02*
X4448753Y-1761412D01*
X4448753Y-1761412D02*
X4448753Y-1685222D01*
X4448753Y-1685222D02*
X4458277Y-1666174D01*
X4458277Y-1666174D02*
X4477325Y-1656650D01*
X4477325Y-1656650D02*
X4515420Y-1656650D01*
X4515420Y-1656650D02*
X4534468Y-1666174D01*
X4534468Y-1666174D02*
X4543992Y-1685222D01*
X4543992Y-1685222D02*
X4543992Y-1704269D01*
X4543992Y-1704269D02*
X4448753Y-1723317D01*
X4620182Y-1780460D02*
X4639230Y-1789984D01*
X4639230Y-1789984D02*
X4677325Y-1789984D01*
X4677325Y-1789984D02*
X4696373Y-1780460D01*
X4696373Y-1780460D02*
X4705896Y-1761412D01*
X4705896Y-1761412D02*
X4705896Y-1751888D01*
X4705896Y-1751888D02*
X4696373Y-1732841D01*
X4696373Y-1732841D02*
X4677325Y-1723317D01*
X4677325Y-1723317D02*
X4648753Y-1723317D01*
X4648753Y-1723317D02*
X4629706Y-1713793D01*
X4629706Y-1713793D02*
X4620182Y-1694746D01*
X4620182Y-1694746D02*
X4620182Y-1685222D01*
X4620182Y-1685222D02*
X4629706Y-1666174D01*
X4629706Y-1666174D02*
X4648753Y-1656650D01*
X4648753Y-1656650D02*
X4677325Y-1656650D01*
X4677325Y-1656650D02*
X4696373Y-1666174D01*
X4772563Y-1866174D02*
X4782087Y-1856650D01*
X4782087Y-1856650D02*
X4801134Y-1828079D01*
X4801134Y-1828079D02*
X4810658Y-1809031D01*
X4810658Y-1809031D02*
X4820182Y-1780460D01*
X4820182Y-1780460D02*
X4829706Y-1732841D01*
X4829706Y-1732841D02*
X4829706Y-1694746D01*
X4829706Y-1694746D02*
X4820182Y-1647127D01*
X4820182Y-1647127D02*
X4810658Y-1618555D01*
X4810658Y-1618555D02*
X4801134Y-1599508D01*
X4801134Y-1599508D02*
X4782087Y-1570936D01*
X4782087Y-1570936D02*
X4772563Y-1561412D01*
X-202500Y-1862500D02*
X-2500Y-2062500D01*
X-2500Y-1862500D02*
X-202500Y-2062500D01*
X-2500Y-1962500D02*
G75*
G02*
X-202500Y-1962500I-100000J0D01*
G01*
X-202500Y-1962500D02*
G75*
G02*
X-2500Y-1962500I100000J0D01*
G01*
X239229Y-1853984D02*
X363039Y-1853984D01*
X363039Y-1853984D02*
X296372Y-1930174D01*
X296372Y-1930174D02*
X324944Y-1930174D01*
X324944Y-1930174D02*
X343991Y-1939698D01*
X343991Y-1939698D02*
X353515Y-1949222D01*
X353515Y-1949222D02*
X363039Y-1968269D01*
X363039Y-1968269D02*
X363039Y-2015888D01*
X363039Y-2015888D02*
X353515Y-2034936D01*
X353515Y-2034936D02*
X343991Y-2044460D01*
X343991Y-2044460D02*
X324944Y-2053984D01*
X324944Y-2053984D02*
X267801Y-2053984D01*
X267801Y-2053984D02*
X248753Y-2044460D01*
X248753Y-2044460D02*
X239229Y-2034936D01*
X448753Y-2034936D02*
X458277Y-2044460D01*
X458277Y-2044460D02*
X448753Y-2053984D01*
X448753Y-2053984D02*
X439229Y-2044460D01*
X439229Y-2044460D02*
X448753Y-2034936D01*
X448753Y-2034936D02*
X448753Y-2053984D01*
X582086Y-1853984D02*
X601134Y-1853984D01*
X601134Y-1853984D02*
X620182Y-1863508D01*
X620182Y-1863508D02*
X629705Y-1873031D01*
X629705Y-1873031D02*
X639229Y-1892079D01*
X639229Y-1892079D02*
X648753Y-1930174D01*
X648753Y-1930174D02*
X648753Y-1977793D01*
X648753Y-1977793D02*
X639229Y-2015888D01*
X639229Y-2015888D02*
X629705Y-2034936D01*
X629705Y-2034936D02*
X620182Y-2044460D01*
X620182Y-2044460D02*
X601134Y-2053984D01*
X601134Y-2053984D02*
X582086Y-2053984D01*
X582086Y-2053984D02*
X563039Y-2044460D01*
X563039Y-2044460D02*
X553515Y-2034936D01*
X553515Y-2034936D02*
X543991Y-2015888D01*
X543991Y-2015888D02*
X534467Y-1977793D01*
X534467Y-1977793D02*
X534467Y-1930174D01*
X534467Y-1930174D02*
X543991Y-1892079D01*
X543991Y-1892079D02*
X553515Y-1873031D01*
X553515Y-1873031D02*
X563039Y-1863508D01*
X563039Y-1863508D02*
X582086Y-1853984D01*
X772562Y-1853984D02*
X791610Y-1853984D01*
X791610Y-1853984D02*
X810658Y-1863508D01*
X810658Y-1863508D02*
X820182Y-1873031D01*
X820182Y-1873031D02*
X829705Y-1892079D01*
X829705Y-1892079D02*
X839229Y-1930174D01*
X839229Y-1930174D02*
X839229Y-1977793D01*
X839229Y-1977793D02*
X829705Y-2015888D01*
X829705Y-2015888D02*
X820182Y-2034936D01*
X820182Y-2034936D02*
X810658Y-2044460D01*
X810658Y-2044460D02*
X791610Y-2053984D01*
X791610Y-2053984D02*
X772562Y-2053984D01*
X772562Y-2053984D02*
X753515Y-2044460D01*
X753515Y-2044460D02*
X743991Y-2034936D01*
X743991Y-2034936D02*
X734467Y-2015888D01*
X734467Y-2015888D02*
X724943Y-1977793D01*
X724943Y-1977793D02*
X724943Y-1930174D01*
X724943Y-1930174D02*
X734467Y-1892079D01*
X734467Y-1892079D02*
X743991Y-1873031D01*
X743991Y-1873031D02*
X753515Y-1863508D01*
X753515Y-1863508D02*
X772562Y-1853984D01*
X963039Y-1853984D02*
X982086Y-1853984D01*
X982086Y-1853984D02*
X1001134Y-1863508D01*
X1001134Y-1863508D02*
X1010658Y-1873031D01*
X1010658Y-1873031D02*
X1020182Y-1892079D01*
X1020182Y-1892079D02*
X1029705Y-1930174D01*
X1029705Y-1930174D02*
X1029705Y-1977793D01*
X1029705Y-1977793D02*
X1020182Y-2015888D01*
X1020182Y-2015888D02*
X1010658Y-2034936D01*
X1010658Y-2034936D02*
X1001134Y-2044460D01*
X1001134Y-2044460D02*
X982086Y-2053984D01*
X982086Y-2053984D02*
X963039Y-2053984D01*
X963039Y-2053984D02*
X943991Y-2044460D01*
X943991Y-2044460D02*
X934467Y-2034936D01*
X934467Y-2034936D02*
X924943Y-2015888D01*
X924943Y-2015888D02*
X915420Y-1977793D01*
X915420Y-1977793D02*
X915420Y-1930174D01*
X915420Y-1930174D02*
X924943Y-1892079D01*
X924943Y-1892079D02*
X934467Y-1873031D01*
X934467Y-1873031D02*
X943991Y-1863508D01*
X943991Y-1863508D02*
X963039Y-1853984D01*
X1115420Y-2053984D02*
X1115420Y-1920650D01*
X1115420Y-1939698D02*
X1124944Y-1930174D01*
X1124944Y-1930174D02*
X1143991Y-1920650D01*
X1143991Y-1920650D02*
X1172563Y-1920650D01*
X1172563Y-1920650D02*
X1191610Y-1930174D01*
X1191610Y-1930174D02*
X1201134Y-1949222D01*
X1201134Y-1949222D02*
X1201134Y-2053984D01*
X1201134Y-1949222D02*
X1210658Y-1930174D01*
X1210658Y-1930174D02*
X1229705Y-1920650D01*
X1229705Y-1920650D02*
X1258277Y-1920650D01*
X1258277Y-1920650D02*
X1277325Y-1930174D01*
X1277325Y-1930174D02*
X1286848Y-1949222D01*
X1286848Y-1949222D02*
X1286848Y-2053984D01*
X1382086Y-2053984D02*
X1382086Y-1920650D01*
X1382086Y-1939698D02*
X1391610Y-1930174D01*
X1391610Y-1930174D02*
X1410658Y-1920650D01*
X1410658Y-1920650D02*
X1439229Y-1920650D01*
X1439229Y-1920650D02*
X1458277Y-1930174D01*
X1458277Y-1930174D02*
X1467801Y-1949222D01*
X1467801Y-1949222D02*
X1467801Y-2053984D01*
X1467801Y-1949222D02*
X1477324Y-1930174D01*
X1477324Y-1930174D02*
X1496372Y-1920650D01*
X1496372Y-1920650D02*
X1524943Y-1920650D01*
X1524943Y-1920650D02*
X1543991Y-1930174D01*
X1543991Y-1930174D02*
X1553515Y-1949222D01*
X1553515Y-1949222D02*
X1553515Y-2053984D01*
X1943991Y-1844460D02*
X1772563Y-2101603D01*
X2201134Y-1853984D02*
X2220182Y-1853984D01*
X2220182Y-1853984D02*
X2239229Y-1863508D01*
X2239229Y-1863508D02*
X2248753Y-1873031D01*
X2248753Y-1873031D02*
X2258277Y-1892079D01*
X2258277Y-1892079D02*
X2267801Y-1930174D01*
X2267801Y-1930174D02*
X2267801Y-1977793D01*
X2267801Y-1977793D02*
X2258277Y-2015888D01*
X2258277Y-2015888D02*
X2248753Y-2034936D01*
X2248753Y-2034936D02*
X2239229Y-2044460D01*
X2239229Y-2044460D02*
X2220182Y-2053984D01*
X2220182Y-2053984D02*
X2201134Y-2053984D01*
X2201134Y-2053984D02*
X2182087Y-2044460D01*
X2182087Y-2044460D02*
X2172563Y-2034936D01*
X2172563Y-2034936D02*
X2163039Y-2015888D01*
X2163039Y-2015888D02*
X2153515Y-1977793D01*
X2153515Y-1977793D02*
X2153515Y-1930174D01*
X2153515Y-1930174D02*
X2163039Y-1892079D01*
X2163039Y-1892079D02*
X2172563Y-1873031D01*
X2172563Y-1873031D02*
X2182087Y-1863508D01*
X2182087Y-1863508D02*
X2201134Y-1853984D01*
X2353515Y-2034936D02*
X2363039Y-2044460D01*
X2363039Y-2044460D02*
X2353515Y-2053984D01*
X2353515Y-2053984D02*
X2343991Y-2044460D01*
X2343991Y-2044460D02*
X2353515Y-2034936D01*
X2353515Y-2034936D02*
X2353515Y-2053984D01*
X2553515Y-2053984D02*
X2439229Y-2053984D01*
X2496372Y-2053984D02*
X2496372Y-1853984D01*
X2496372Y-1853984D02*
X2477325Y-1882555D01*
X2477325Y-1882555D02*
X2458277Y-1901603D01*
X2458277Y-1901603D02*
X2439229Y-1911127D01*
X2743991Y-2053984D02*
X2629706Y-2053984D01*
X2686848Y-2053984D02*
X2686848Y-1853984D01*
X2686848Y-1853984D02*
X2667801Y-1882555D01*
X2667801Y-1882555D02*
X2648753Y-1901603D01*
X2648753Y-1901603D02*
X2629706Y-1911127D01*
X2858277Y-1939698D02*
X2839229Y-1930174D01*
X2839229Y-1930174D02*
X2829706Y-1920650D01*
X2829706Y-1920650D02*
X2820182Y-1901603D01*
X2820182Y-1901603D02*
X2820182Y-1892079D01*
X2820182Y-1892079D02*
X2829706Y-1873031D01*
X2829706Y-1873031D02*
X2839229Y-1863508D01*
X2839229Y-1863508D02*
X2858277Y-1853984D01*
X2858277Y-1853984D02*
X2896372Y-1853984D01*
X2896372Y-1853984D02*
X2915420Y-1863508D01*
X2915420Y-1863508D02*
X2924944Y-1873031D01*
X2924944Y-1873031D02*
X2934467Y-1892079D01*
X2934467Y-1892079D02*
X2934467Y-1901603D01*
X2934467Y-1901603D02*
X2924944Y-1920650D01*
X2924944Y-1920650D02*
X2915420Y-1930174D01*
X2915420Y-1930174D02*
X2896372Y-1939698D01*
X2896372Y-1939698D02*
X2858277Y-1939698D01*
X2858277Y-1939698D02*
X2839229Y-1949222D01*
X2839229Y-1949222D02*
X2829706Y-1958746D01*
X2829706Y-1958746D02*
X2820182Y-1977793D01*
X2820182Y-1977793D02*
X2820182Y-2015888D01*
X2820182Y-2015888D02*
X2829706Y-2034936D01*
X2829706Y-2034936D02*
X2839229Y-2044460D01*
X2839229Y-2044460D02*
X2858277Y-2053984D01*
X2858277Y-2053984D02*
X2896372Y-2053984D01*
X2896372Y-2053984D02*
X2915420Y-2044460D01*
X2915420Y-2044460D02*
X2924944Y-2034936D01*
X2924944Y-2034936D02*
X2934467Y-2015888D01*
X2934467Y-2015888D02*
X2934467Y-1977793D01*
X2934467Y-1977793D02*
X2924944Y-1958746D01*
X2924944Y-1958746D02*
X2915420Y-1949222D01*
X2915420Y-1949222D02*
X2896372Y-1939698D01*
X3124944Y-2053984D02*
X3010658Y-2053984D01*
X3067801Y-2053984D02*
X3067801Y-1853984D01*
X3067801Y-1853984D02*
X3048753Y-1882555D01*
X3048753Y-1882555D02*
X3029706Y-1901603D01*
X3029706Y-1901603D02*
X3010658Y-1911127D01*
X3201134Y-1853984D02*
X3201134Y-1892079D01*
X3277325Y-1853984D02*
X3277325Y-1892079D01*
X3572563Y-2130174D02*
X3563039Y-2120650D01*
X3563039Y-2120650D02*
X3543991Y-2092079D01*
X3543991Y-2092079D02*
X3534468Y-2073031D01*
X3534468Y-2073031D02*
X3524944Y-2044460D01*
X3524944Y-2044460D02*
X3515420Y-1996841D01*
X3515420Y-1996841D02*
X3515420Y-1958746D01*
X3515420Y-1958746D02*
X3524944Y-1911127D01*
X3524944Y-1911127D02*
X3534468Y-1882555D01*
X3534468Y-1882555D02*
X3543991Y-1863508D01*
X3543991Y-1863508D02*
X3563039Y-1834936D01*
X3563039Y-1834936D02*
X3572563Y-1825412D01*
X3629706Y-1853984D02*
X3753515Y-1853984D01*
X3753515Y-1853984D02*
X3686848Y-1930174D01*
X3686848Y-1930174D02*
X3715420Y-1930174D01*
X3715420Y-1930174D02*
X3734468Y-1939698D01*
X3734468Y-1939698D02*
X3743991Y-1949222D01*
X3743991Y-1949222D02*
X3753515Y-1968269D01*
X3753515Y-1968269D02*
X3753515Y-2015888D01*
X3753515Y-2015888D02*
X3743991Y-2034936D01*
X3743991Y-2034936D02*
X3734468Y-2044460D01*
X3734468Y-2044460D02*
X3715420Y-2053984D01*
X3715420Y-2053984D02*
X3658277Y-2053984D01*
X3658277Y-2053984D02*
X3639229Y-2044460D01*
X3639229Y-2044460D02*
X3629706Y-2034936D01*
X3991610Y-2053984D02*
X3991610Y-1853984D01*
X4077325Y-2053984D02*
X4077325Y-1949222D01*
X4077325Y-1949222D02*
X4067801Y-1930174D01*
X4067801Y-1930174D02*
X4048753Y-1920650D01*
X4048753Y-1920650D02*
X4020182Y-1920650D01*
X4020182Y-1920650D02*
X4001134Y-1930174D01*
X4001134Y-1930174D02*
X3991610Y-1939698D01*
X4201134Y-2053984D02*
X4182087Y-2044460D01*
X4182087Y-2044460D02*
X4172563Y-2034936D01*
X4172563Y-2034936D02*
X4163039Y-2015888D01*
X4163039Y-2015888D02*
X4163039Y-1958746D01*
X4163039Y-1958746D02*
X4172563Y-1939698D01*
X4172563Y-1939698D02*
X4182087Y-1930174D01*
X4182087Y-1930174D02*
X4201134Y-1920650D01*
X4201134Y-1920650D02*
X4229706Y-1920650D01*
X4229706Y-1920650D02*
X4248753Y-1930174D01*
X4248753Y-1930174D02*
X4258277Y-1939698D01*
X4258277Y-1939698D02*
X4267801Y-1958746D01*
X4267801Y-1958746D02*
X4267801Y-2015888D01*
X4267801Y-2015888D02*
X4258277Y-2034936D01*
X4258277Y-2034936D02*
X4248753Y-2044460D01*
X4248753Y-2044460D02*
X4229706Y-2053984D01*
X4229706Y-2053984D02*
X4201134Y-2053984D01*
X4382087Y-2053984D02*
X4363039Y-2044460D01*
X4363039Y-2044460D02*
X4353515Y-2025412D01*
X4353515Y-2025412D02*
X4353515Y-1853984D01*
X4534468Y-2044460D02*
X4515420Y-2053984D01*
X4515420Y-2053984D02*
X4477325Y-2053984D01*
X4477325Y-2053984D02*
X4458277Y-2044460D01*
X4458277Y-2044460D02*
X4448753Y-2025412D01*
X4448753Y-2025412D02*
X4448753Y-1949222D01*
X4448753Y-1949222D02*
X4458277Y-1930174D01*
X4458277Y-1930174D02*
X4477325Y-1920650D01*
X4477325Y-1920650D02*
X4515420Y-1920650D01*
X4515420Y-1920650D02*
X4534468Y-1930174D01*
X4534468Y-1930174D02*
X4543992Y-1949222D01*
X4543992Y-1949222D02*
X4543992Y-1968269D01*
X4543992Y-1968269D02*
X4448753Y-1987317D01*
X4620182Y-2044460D02*
X4639230Y-2053984D01*
X4639230Y-2053984D02*
X4677325Y-2053984D01*
X4677325Y-2053984D02*
X4696373Y-2044460D01*
X4696373Y-2044460D02*
X4705896Y-2025412D01*
X4705896Y-2025412D02*
X4705896Y-2015888D01*
X4705896Y-2015888D02*
X4696373Y-1996841D01*
X4696373Y-1996841D02*
X4677325Y-1987317D01*
X4677325Y-1987317D02*
X4648753Y-1987317D01*
X4648753Y-1987317D02*
X4629706Y-1977793D01*
X4629706Y-1977793D02*
X4620182Y-1958746D01*
X4620182Y-1958746D02*
X4620182Y-1949222D01*
X4620182Y-1949222D02*
X4629706Y-1930174D01*
X4629706Y-1930174D02*
X4648753Y-1920650D01*
X4648753Y-1920650D02*
X4677325Y-1920650D01*
X4677325Y-1920650D02*
X4696373Y-1930174D01*
X4772563Y-2130174D02*
X4782087Y-2120650D01*
X4782087Y-2120650D02*
X4801134Y-2092079D01*
X4801134Y-2092079D02*
X4810658Y-2073031D01*
X4810658Y-2073031D02*
X4820182Y-2044460D01*
X4820182Y-2044460D02*
X4829706Y-1996841D01*
X4829706Y-1996841D02*
X4829706Y-1958746D01*
X4829706Y-1958746D02*
X4820182Y-1911127D01*
X4820182Y-1911127D02*
X4810658Y-1882555D01*
X4810658Y-1882555D02*
X4801134Y-1863508D01*
X4801134Y-1863508D02*
X4782087Y-1834936D01*
X4782087Y-1834936D02*
X4772563Y-1825412D01*
X5134468Y-2130174D02*
X5124944Y-2120650D01*
X5124944Y-2120650D02*
X5105896Y-2092079D01*
X5105896Y-2092079D02*
X5096373Y-2073031D01*
X5096373Y-2073031D02*
X5086849Y-2044460D01*
X5086849Y-2044460D02*
X5077325Y-1996841D01*
X5077325Y-1996841D02*
X5077325Y-1958746D01*
X5077325Y-1958746D02*
X5086849Y-1911127D01*
X5086849Y-1911127D02*
X5096373Y-1882555D01*
X5096373Y-1882555D02*
X5105896Y-1863508D01*
X5105896Y-1863508D02*
X5124944Y-1834936D01*
X5124944Y-1834936D02*
X5134468Y-1825412D01*
X5210658Y-1920650D02*
X5210658Y-2053984D01*
X5210658Y-1939698D02*
X5220182Y-1930174D01*
X5220182Y-1930174D02*
X5239230Y-1920650D01*
X5239230Y-1920650D02*
X5267801Y-1920650D01*
X5267801Y-1920650D02*
X5286849Y-1930174D01*
X5286849Y-1930174D02*
X5296373Y-1949222D01*
X5296373Y-1949222D02*
X5296373Y-2053984D01*
X5420182Y-2053984D02*
X5401134Y-2044460D01*
X5401134Y-2044460D02*
X5391611Y-2034936D01*
X5391611Y-2034936D02*
X5382087Y-2015888D01*
X5382087Y-2015888D02*
X5382087Y-1958746D01*
X5382087Y-1958746D02*
X5391611Y-1939698D01*
X5391611Y-1939698D02*
X5401134Y-1930174D01*
X5401134Y-1930174D02*
X5420182Y-1920650D01*
X5420182Y-1920650D02*
X5448754Y-1920650D01*
X5448754Y-1920650D02*
X5467801Y-1930174D01*
X5467801Y-1930174D02*
X5477325Y-1939698D01*
X5477325Y-1939698D02*
X5486849Y-1958746D01*
X5486849Y-1958746D02*
X5486849Y-2015888D01*
X5486849Y-2015888D02*
X5477325Y-2034936D01*
X5477325Y-2034936D02*
X5467801Y-2044460D01*
X5467801Y-2044460D02*
X5448754Y-2053984D01*
X5448754Y-2053984D02*
X5420182Y-2053984D01*
X5543992Y-1920650D02*
X5620182Y-1920650D01*
X5572563Y-1853984D02*
X5572563Y-2025412D01*
X5572563Y-2025412D02*
X5582087Y-2044460D01*
X5582087Y-2044460D02*
X5601134Y-2053984D01*
X5601134Y-2053984D02*
X5620182Y-2053984D01*
X5839230Y-1920650D02*
X5839230Y-2120650D01*
X5839230Y-1930174D02*
X5858277Y-1920650D01*
X5858277Y-1920650D02*
X5896373Y-1920650D01*
X5896373Y-1920650D02*
X5915420Y-1930174D01*
X5915420Y-1930174D02*
X5924944Y-1939698D01*
X5924944Y-1939698D02*
X5934468Y-1958746D01*
X5934468Y-1958746D02*
X5934468Y-2015888D01*
X5934468Y-2015888D02*
X5924944Y-2034936D01*
X5924944Y-2034936D02*
X5915420Y-2044460D01*
X5915420Y-2044460D02*
X5896373Y-2053984D01*
X5896373Y-2053984D02*
X5858277Y-2053984D01*
X5858277Y-2053984D02*
X5839230Y-2044460D01*
X6048753Y-2053984D02*
X6029706Y-2044460D01*
X6029706Y-2044460D02*
X6020182Y-2025412D01*
X6020182Y-2025412D02*
X6020182Y-1853984D01*
X6210658Y-2053984D02*
X6210658Y-1949222D01*
X6210658Y-1949222D02*
X6201134Y-1930174D01*
X6201134Y-1930174D02*
X6182087Y-1920650D01*
X6182087Y-1920650D02*
X6143992Y-1920650D01*
X6143992Y-1920650D02*
X6124944Y-1930174D01*
X6210658Y-2044460D02*
X6191611Y-2053984D01*
X6191611Y-2053984D02*
X6143992Y-2053984D01*
X6143992Y-2053984D02*
X6124944Y-2044460D01*
X6124944Y-2044460D02*
X6115420Y-2025412D01*
X6115420Y-2025412D02*
X6115420Y-2006365D01*
X6115420Y-2006365D02*
X6124944Y-1987317D01*
X6124944Y-1987317D02*
X6143992Y-1977793D01*
X6143992Y-1977793D02*
X6191611Y-1977793D01*
X6191611Y-1977793D02*
X6210658Y-1968269D01*
X6277325Y-1920650D02*
X6353515Y-1920650D01*
X6305896Y-1853984D02*
X6305896Y-2025412D01*
X6305896Y-2025412D02*
X6315420Y-2044460D01*
X6315420Y-2044460D02*
X6334468Y-2053984D01*
X6334468Y-2053984D02*
X6353515Y-2053984D01*
X6496373Y-2044460D02*
X6477325Y-2053984D01*
X6477325Y-2053984D02*
X6439230Y-2053984D01*
X6439230Y-2053984D02*
X6420182Y-2044460D01*
X6420182Y-2044460D02*
X6410658Y-2025412D01*
X6410658Y-2025412D02*
X6410658Y-1949222D01*
X6410658Y-1949222D02*
X6420182Y-1930174D01*
X6420182Y-1930174D02*
X6439230Y-1920650D01*
X6439230Y-1920650D02*
X6477325Y-1920650D01*
X6477325Y-1920650D02*
X6496373Y-1930174D01*
X6496373Y-1930174D02*
X6505896Y-1949222D01*
X6505896Y-1949222D02*
X6505896Y-1968269D01*
X6505896Y-1968269D02*
X6410658Y-1987317D01*
X6677325Y-2053984D02*
X6677325Y-1853984D01*
X6677325Y-2044460D02*
X6658277Y-2053984D01*
X6658277Y-2053984D02*
X6620182Y-2053984D01*
X6620182Y-2053984D02*
X6601134Y-2044460D01*
X6601134Y-2044460D02*
X6591611Y-2034936D01*
X6591611Y-2034936D02*
X6582087Y-2015888D01*
X6582087Y-2015888D02*
X6582087Y-1958746D01*
X6582087Y-1958746D02*
X6591611Y-1939698D01*
X6591611Y-1939698D02*
X6601134Y-1930174D01*
X6601134Y-1930174D02*
X6620182Y-1920650D01*
X6620182Y-1920650D02*
X6658277Y-1920650D01*
X6658277Y-1920650D02*
X6677325Y-1930174D01*
X6753515Y-2130174D02*
X6763039Y-2120650D01*
X6763039Y-2120650D02*
X6782087Y-2092079D01*
X6782087Y-2092079D02*
X6791611Y-2073031D01*
X6791611Y-2073031D02*
X6801134Y-2044460D01*
X6801134Y-2044460D02*
X6810658Y-1996841D01*
X6810658Y-1996841D02*
X6810658Y-1958746D01*
X6810658Y-1958746D02*
X6801134Y-1911127D01*
X6801134Y-1911127D02*
X6791611Y-1882555D01*
X6791611Y-1882555D02*
X6782087Y-1863508D01*
X6782087Y-1863508D02*
X6763039Y-1834936D01*
X6763039Y-1834936D02*
X6753515Y-1825412D01*
X-202500Y-2182500D02*
X-2500Y-2382500D01*
X-2500Y-2182500D02*
X-202500Y-2382500D01*
X-102500Y-2182500D02*
X-102500Y-2382500D01*
X-202500Y-2282500D02*
X-2500Y-2282500D01*
X239229Y-2173984D02*
X363039Y-2173984D01*
X363039Y-2173984D02*
X296372Y-2250174D01*
X296372Y-2250174D02*
X324944Y-2250174D01*
X324944Y-2250174D02*
X343991Y-2259698D01*
X343991Y-2259698D02*
X353515Y-2269222D01*
X353515Y-2269222D02*
X363039Y-2288270D01*
X363039Y-2288270D02*
X363039Y-2335889D01*
X363039Y-2335889D02*
X353515Y-2354936D01*
X353515Y-2354936D02*
X343991Y-2364460D01*
X343991Y-2364460D02*
X324944Y-2373984D01*
X324944Y-2373984D02*
X267801Y-2373984D01*
X267801Y-2373984D02*
X248753Y-2364460D01*
X248753Y-2364460D02*
X239229Y-2354936D01*
X448753Y-2354936D02*
X458277Y-2364460D01*
X458277Y-2364460D02*
X448753Y-2373984D01*
X448753Y-2373984D02*
X439229Y-2364460D01*
X439229Y-2364460D02*
X448753Y-2354936D01*
X448753Y-2354936D02*
X448753Y-2373984D01*
X524944Y-2173984D02*
X648753Y-2173984D01*
X648753Y-2173984D02*
X582086Y-2250174D01*
X582086Y-2250174D02*
X610658Y-2250174D01*
X610658Y-2250174D02*
X629705Y-2259698D01*
X629705Y-2259698D02*
X639229Y-2269222D01*
X639229Y-2269222D02*
X648753Y-2288270D01*
X648753Y-2288270D02*
X648753Y-2335889D01*
X648753Y-2335889D02*
X639229Y-2354936D01*
X639229Y-2354936D02*
X629705Y-2364460D01*
X629705Y-2364460D02*
X610658Y-2373984D01*
X610658Y-2373984D02*
X553515Y-2373984D01*
X553515Y-2373984D02*
X534467Y-2364460D01*
X534467Y-2364460D02*
X524944Y-2354936D01*
X772562Y-2173984D02*
X791610Y-2173984D01*
X791610Y-2173984D02*
X810658Y-2183508D01*
X810658Y-2183508D02*
X820182Y-2193031D01*
X820182Y-2193031D02*
X829705Y-2212079D01*
X829705Y-2212079D02*
X839229Y-2250174D01*
X839229Y-2250174D02*
X839229Y-2297793D01*
X839229Y-2297793D02*
X829705Y-2335889D01*
X829705Y-2335889D02*
X820182Y-2354936D01*
X820182Y-2354936D02*
X810658Y-2364460D01*
X810658Y-2364460D02*
X791610Y-2373984D01*
X791610Y-2373984D02*
X772562Y-2373984D01*
X772562Y-2373984D02*
X753515Y-2364460D01*
X753515Y-2364460D02*
X743991Y-2354936D01*
X743991Y-2354936D02*
X734467Y-2335889D01*
X734467Y-2335889D02*
X724943Y-2297793D01*
X724943Y-2297793D02*
X724943Y-2250174D01*
X724943Y-2250174D02*
X734467Y-2212079D01*
X734467Y-2212079D02*
X743991Y-2193031D01*
X743991Y-2193031D02*
X753515Y-2183508D01*
X753515Y-2183508D02*
X772562Y-2173984D01*
X963039Y-2173984D02*
X982086Y-2173984D01*
X982086Y-2173984D02*
X1001134Y-2183508D01*
X1001134Y-2183508D02*
X1010658Y-2193031D01*
X1010658Y-2193031D02*
X1020182Y-2212079D01*
X1020182Y-2212079D02*
X1029705Y-2250174D01*
X1029705Y-2250174D02*
X1029705Y-2297793D01*
X1029705Y-2297793D02*
X1020182Y-2335889D01*
X1020182Y-2335889D02*
X1010658Y-2354936D01*
X1010658Y-2354936D02*
X1001134Y-2364460D01*
X1001134Y-2364460D02*
X982086Y-2373984D01*
X982086Y-2373984D02*
X963039Y-2373984D01*
X963039Y-2373984D02*
X943991Y-2364460D01*
X943991Y-2364460D02*
X934467Y-2354936D01*
X934467Y-2354936D02*
X924943Y-2335889D01*
X924943Y-2335889D02*
X915420Y-2297793D01*
X915420Y-2297793D02*
X915420Y-2250174D01*
X915420Y-2250174D02*
X924943Y-2212079D01*
X924943Y-2212079D02*
X934467Y-2193031D01*
X934467Y-2193031D02*
X943991Y-2183508D01*
X943991Y-2183508D02*
X963039Y-2173984D01*
X1115420Y-2373984D02*
X1115420Y-2240650D01*
X1115420Y-2259698D02*
X1124944Y-2250174D01*
X1124944Y-2250174D02*
X1143991Y-2240650D01*
X1143991Y-2240650D02*
X1172563Y-2240650D01*
X1172563Y-2240650D02*
X1191610Y-2250174D01*
X1191610Y-2250174D02*
X1201134Y-2269222D01*
X1201134Y-2269222D02*
X1201134Y-2373984D01*
X1201134Y-2269222D02*
X1210658Y-2250174D01*
X1210658Y-2250174D02*
X1229705Y-2240650D01*
X1229705Y-2240650D02*
X1258277Y-2240650D01*
X1258277Y-2240650D02*
X1277325Y-2250174D01*
X1277325Y-2250174D02*
X1286848Y-2269222D01*
X1286848Y-2269222D02*
X1286848Y-2373984D01*
X1382086Y-2373984D02*
X1382086Y-2240650D01*
X1382086Y-2259698D02*
X1391610Y-2250174D01*
X1391610Y-2250174D02*
X1410658Y-2240650D01*
X1410658Y-2240650D02*
X1439229Y-2240650D01*
X1439229Y-2240650D02*
X1458277Y-2250174D01*
X1458277Y-2250174D02*
X1467801Y-2269222D01*
X1467801Y-2269222D02*
X1467801Y-2373984D01*
X1467801Y-2269222D02*
X1477324Y-2250174D01*
X1477324Y-2250174D02*
X1496372Y-2240650D01*
X1496372Y-2240650D02*
X1524943Y-2240650D01*
X1524943Y-2240650D02*
X1543991Y-2250174D01*
X1543991Y-2250174D02*
X1553515Y-2269222D01*
X1553515Y-2269222D02*
X1553515Y-2373984D01*
X1943991Y-2164460D02*
X1772563Y-2421603D01*
X2201134Y-2173984D02*
X2220182Y-2173984D01*
X2220182Y-2173984D02*
X2239229Y-2183508D01*
X2239229Y-2183508D02*
X2248753Y-2193031D01*
X2248753Y-2193031D02*
X2258277Y-2212079D01*
X2258277Y-2212079D02*
X2267801Y-2250174D01*
X2267801Y-2250174D02*
X2267801Y-2297793D01*
X2267801Y-2297793D02*
X2258277Y-2335889D01*
X2258277Y-2335889D02*
X2248753Y-2354936D01*
X2248753Y-2354936D02*
X2239229Y-2364460D01*
X2239229Y-2364460D02*
X2220182Y-2373984D01*
X2220182Y-2373984D02*
X2201134Y-2373984D01*
X2201134Y-2373984D02*
X2182087Y-2364460D01*
X2182087Y-2364460D02*
X2172563Y-2354936D01*
X2172563Y-2354936D02*
X2163039Y-2335889D01*
X2163039Y-2335889D02*
X2153515Y-2297793D01*
X2153515Y-2297793D02*
X2153515Y-2250174D01*
X2153515Y-2250174D02*
X2163039Y-2212079D01*
X2163039Y-2212079D02*
X2172563Y-2193031D01*
X2172563Y-2193031D02*
X2182087Y-2183508D01*
X2182087Y-2183508D02*
X2201134Y-2173984D01*
X2353515Y-2354936D02*
X2363039Y-2364460D01*
X2363039Y-2364460D02*
X2353515Y-2373984D01*
X2353515Y-2373984D02*
X2343991Y-2364460D01*
X2343991Y-2364460D02*
X2353515Y-2354936D01*
X2353515Y-2354936D02*
X2353515Y-2373984D01*
X2553515Y-2373984D02*
X2439229Y-2373984D01*
X2496372Y-2373984D02*
X2496372Y-2173984D01*
X2496372Y-2173984D02*
X2477325Y-2202555D01*
X2477325Y-2202555D02*
X2458277Y-2221603D01*
X2458277Y-2221603D02*
X2439229Y-2231127D01*
X2629706Y-2193031D02*
X2639229Y-2183508D01*
X2639229Y-2183508D02*
X2658277Y-2173984D01*
X2658277Y-2173984D02*
X2705896Y-2173984D01*
X2705896Y-2173984D02*
X2724944Y-2183508D01*
X2724944Y-2183508D02*
X2734468Y-2193031D01*
X2734468Y-2193031D02*
X2743991Y-2212079D01*
X2743991Y-2212079D02*
X2743991Y-2231127D01*
X2743991Y-2231127D02*
X2734468Y-2259698D01*
X2734468Y-2259698D02*
X2620182Y-2373984D01*
X2620182Y-2373984D02*
X2743991Y-2373984D01*
X2839229Y-2373984D02*
X2877325Y-2373984D01*
X2877325Y-2373984D02*
X2896372Y-2364460D01*
X2896372Y-2364460D02*
X2905896Y-2354936D01*
X2905896Y-2354936D02*
X2924944Y-2326365D01*
X2924944Y-2326365D02*
X2934467Y-2288270D01*
X2934467Y-2288270D02*
X2934467Y-2212079D01*
X2934467Y-2212079D02*
X2924944Y-2193031D01*
X2924944Y-2193031D02*
X2915420Y-2183508D01*
X2915420Y-2183508D02*
X2896372Y-2173984D01*
X2896372Y-2173984D02*
X2858277Y-2173984D01*
X2858277Y-2173984D02*
X2839229Y-2183508D01*
X2839229Y-2183508D02*
X2829706Y-2193031D01*
X2829706Y-2193031D02*
X2820182Y-2212079D01*
X2820182Y-2212079D02*
X2820182Y-2259698D01*
X2820182Y-2259698D02*
X2829706Y-2278746D01*
X2829706Y-2278746D02*
X2839229Y-2288270D01*
X2839229Y-2288270D02*
X2858277Y-2297793D01*
X2858277Y-2297793D02*
X2896372Y-2297793D01*
X2896372Y-2297793D02*
X2915420Y-2288270D01*
X2915420Y-2288270D02*
X2924944Y-2278746D01*
X2924944Y-2278746D02*
X2934467Y-2259698D01*
X3029706Y-2373984D02*
X3067801Y-2373984D01*
X3067801Y-2373984D02*
X3086848Y-2364460D01*
X3086848Y-2364460D02*
X3096372Y-2354936D01*
X3096372Y-2354936D02*
X3115420Y-2326365D01*
X3115420Y-2326365D02*
X3124944Y-2288270D01*
X3124944Y-2288270D02*
X3124944Y-2212079D01*
X3124944Y-2212079D02*
X3115420Y-2193031D01*
X3115420Y-2193031D02*
X3105896Y-2183508D01*
X3105896Y-2183508D02*
X3086848Y-2173984D01*
X3086848Y-2173984D02*
X3048753Y-2173984D01*
X3048753Y-2173984D02*
X3029706Y-2183508D01*
X3029706Y-2183508D02*
X3020182Y-2193031D01*
X3020182Y-2193031D02*
X3010658Y-2212079D01*
X3010658Y-2212079D02*
X3010658Y-2259698D01*
X3010658Y-2259698D02*
X3020182Y-2278746D01*
X3020182Y-2278746D02*
X3029706Y-2288270D01*
X3029706Y-2288270D02*
X3048753Y-2297793D01*
X3048753Y-2297793D02*
X3086848Y-2297793D01*
X3086848Y-2297793D02*
X3105896Y-2288270D01*
X3105896Y-2288270D02*
X3115420Y-2278746D01*
X3115420Y-2278746D02*
X3124944Y-2259698D01*
X3201134Y-2173984D02*
X3201134Y-2212079D01*
X3277325Y-2173984D02*
X3277325Y-2212079D01*
X3572563Y-2450174D02*
X3563039Y-2440650D01*
X3563039Y-2440650D02*
X3543991Y-2412079D01*
X3543991Y-2412079D02*
X3534468Y-2393031D01*
X3534468Y-2393031D02*
X3524944Y-2364460D01*
X3524944Y-2364460D02*
X3515420Y-2316841D01*
X3515420Y-2316841D02*
X3515420Y-2278746D01*
X3515420Y-2278746D02*
X3524944Y-2231127D01*
X3524944Y-2231127D02*
X3534468Y-2202555D01*
X3534468Y-2202555D02*
X3543991Y-2183508D01*
X3543991Y-2183508D02*
X3563039Y-2154936D01*
X3563039Y-2154936D02*
X3572563Y-2145412D01*
X3639229Y-2193031D02*
X3648753Y-2183508D01*
X3648753Y-2183508D02*
X3667801Y-2173984D01*
X3667801Y-2173984D02*
X3715420Y-2173984D01*
X3715420Y-2173984D02*
X3734468Y-2183508D01*
X3734468Y-2183508D02*
X3743991Y-2193031D01*
X3743991Y-2193031D02*
X3753515Y-2212079D01*
X3753515Y-2212079D02*
X3753515Y-2231127D01*
X3753515Y-2231127D02*
X3743991Y-2259698D01*
X3743991Y-2259698D02*
X3629706Y-2373984D01*
X3629706Y-2373984D02*
X3753515Y-2373984D01*
X3991610Y-2373984D02*
X3991610Y-2173984D01*
X4077325Y-2373984D02*
X4077325Y-2269222D01*
X4077325Y-2269222D02*
X4067801Y-2250174D01*
X4067801Y-2250174D02*
X4048753Y-2240650D01*
X4048753Y-2240650D02*
X4020182Y-2240650D01*
X4020182Y-2240650D02*
X4001134Y-2250174D01*
X4001134Y-2250174D02*
X3991610Y-2259698D01*
X4201134Y-2373984D02*
X4182087Y-2364460D01*
X4182087Y-2364460D02*
X4172563Y-2354936D01*
X4172563Y-2354936D02*
X4163039Y-2335889D01*
X4163039Y-2335889D02*
X4163039Y-2278746D01*
X4163039Y-2278746D02*
X4172563Y-2259698D01*
X4172563Y-2259698D02*
X4182087Y-2250174D01*
X4182087Y-2250174D02*
X4201134Y-2240650D01*
X4201134Y-2240650D02*
X4229706Y-2240650D01*
X4229706Y-2240650D02*
X4248753Y-2250174D01*
X4248753Y-2250174D02*
X4258277Y-2259698D01*
X4258277Y-2259698D02*
X4267801Y-2278746D01*
X4267801Y-2278746D02*
X4267801Y-2335889D01*
X4267801Y-2335889D02*
X4258277Y-2354936D01*
X4258277Y-2354936D02*
X4248753Y-2364460D01*
X4248753Y-2364460D02*
X4229706Y-2373984D01*
X4229706Y-2373984D02*
X4201134Y-2373984D01*
X4382087Y-2373984D02*
X4363039Y-2364460D01*
X4363039Y-2364460D02*
X4353515Y-2345412D01*
X4353515Y-2345412D02*
X4353515Y-2173984D01*
X4534468Y-2364460D02*
X4515420Y-2373984D01*
X4515420Y-2373984D02*
X4477325Y-2373984D01*
X4477325Y-2373984D02*
X4458277Y-2364460D01*
X4458277Y-2364460D02*
X4448753Y-2345412D01*
X4448753Y-2345412D02*
X4448753Y-2269222D01*
X4448753Y-2269222D02*
X4458277Y-2250174D01*
X4458277Y-2250174D02*
X4477325Y-2240650D01*
X4477325Y-2240650D02*
X4515420Y-2240650D01*
X4515420Y-2240650D02*
X4534468Y-2250174D01*
X4534468Y-2250174D02*
X4543992Y-2269222D01*
X4543992Y-2269222D02*
X4543992Y-2288270D01*
X4543992Y-2288270D02*
X4448753Y-2307317D01*
X4620182Y-2364460D02*
X4639230Y-2373984D01*
X4639230Y-2373984D02*
X4677325Y-2373984D01*
X4677325Y-2373984D02*
X4696373Y-2364460D01*
X4696373Y-2364460D02*
X4705896Y-2345412D01*
X4705896Y-2345412D02*
X4705896Y-2335889D01*
X4705896Y-2335889D02*
X4696373Y-2316841D01*
X4696373Y-2316841D02*
X4677325Y-2307317D01*
X4677325Y-2307317D02*
X4648753Y-2307317D01*
X4648753Y-2307317D02*
X4629706Y-2297793D01*
X4629706Y-2297793D02*
X4620182Y-2278746D01*
X4620182Y-2278746D02*
X4620182Y-2269222D01*
X4620182Y-2269222D02*
X4629706Y-2250174D01*
X4629706Y-2250174D02*
X4648753Y-2240650D01*
X4648753Y-2240650D02*
X4677325Y-2240650D01*
X4677325Y-2240650D02*
X4696373Y-2250174D01*
X4772563Y-2450174D02*
X4782087Y-2440650D01*
X4782087Y-2440650D02*
X4801134Y-2412079D01*
X4801134Y-2412079D02*
X4810658Y-2393031D01*
X4810658Y-2393031D02*
X4820182Y-2364460D01*
X4820182Y-2364460D02*
X4829706Y-2316841D01*
X4829706Y-2316841D02*
X4829706Y-2278746D01*
X4829706Y-2278746D02*
X4820182Y-2231127D01*
X4820182Y-2231127D02*
X4810658Y-2202555D01*
X4810658Y-2202555D02*
X4801134Y-2183508D01*
X4801134Y-2183508D02*
X4782087Y-2154936D01*
X4782087Y-2154936D02*
X4772563Y-2145412D01*
X5134468Y-2450174D02*
X5124944Y-2440650D01*
X5124944Y-2440650D02*
X5105896Y-2412079D01*
X5105896Y-2412079D02*
X5096373Y-2393031D01*
X5096373Y-2393031D02*
X5086849Y-2364460D01*
X5086849Y-2364460D02*
X5077325Y-2316841D01*
X5077325Y-2316841D02*
X5077325Y-2278746D01*
X5077325Y-2278746D02*
X5086849Y-2231127D01*
X5086849Y-2231127D02*
X5096373Y-2202555D01*
X5096373Y-2202555D02*
X5105896Y-2183508D01*
X5105896Y-2183508D02*
X5124944Y-2154936D01*
X5124944Y-2154936D02*
X5134468Y-2145412D01*
X5210658Y-2240650D02*
X5210658Y-2373984D01*
X5210658Y-2259698D02*
X5220182Y-2250174D01*
X5220182Y-2250174D02*
X5239230Y-2240650D01*
X5239230Y-2240650D02*
X5267801Y-2240650D01*
X5267801Y-2240650D02*
X5286849Y-2250174D01*
X5286849Y-2250174D02*
X5296373Y-2269222D01*
X5296373Y-2269222D02*
X5296373Y-2373984D01*
X5420182Y-2373984D02*
X5401134Y-2364460D01*
X5401134Y-2364460D02*
X5391611Y-2354936D01*
X5391611Y-2354936D02*
X5382087Y-2335889D01*
X5382087Y-2335889D02*
X5382087Y-2278746D01*
X5382087Y-2278746D02*
X5391611Y-2259698D01*
X5391611Y-2259698D02*
X5401134Y-2250174D01*
X5401134Y-2250174D02*
X5420182Y-2240650D01*
X5420182Y-2240650D02*
X5448754Y-2240650D01*
X5448754Y-2240650D02*
X5467801Y-2250174D01*
X5467801Y-2250174D02*
X5477325Y-2259698D01*
X5477325Y-2259698D02*
X5486849Y-2278746D01*
X5486849Y-2278746D02*
X5486849Y-2335889D01*
X5486849Y-2335889D02*
X5477325Y-2354936D01*
X5477325Y-2354936D02*
X5467801Y-2364460D01*
X5467801Y-2364460D02*
X5448754Y-2373984D01*
X5448754Y-2373984D02*
X5420182Y-2373984D01*
X5543992Y-2240650D02*
X5620182Y-2240650D01*
X5572563Y-2173984D02*
X5572563Y-2345412D01*
X5572563Y-2345412D02*
X5582087Y-2364460D01*
X5582087Y-2364460D02*
X5601134Y-2373984D01*
X5601134Y-2373984D02*
X5620182Y-2373984D01*
X5839230Y-2240650D02*
X5839230Y-2440650D01*
X5839230Y-2250174D02*
X5858277Y-2240650D01*
X5858277Y-2240650D02*
X5896373Y-2240650D01*
X5896373Y-2240650D02*
X5915420Y-2250174D01*
X5915420Y-2250174D02*
X5924944Y-2259698D01*
X5924944Y-2259698D02*
X5934468Y-2278746D01*
X5934468Y-2278746D02*
X5934468Y-2335889D01*
X5934468Y-2335889D02*
X5924944Y-2354936D01*
X5924944Y-2354936D02*
X5915420Y-2364460D01*
X5915420Y-2364460D02*
X5896373Y-2373984D01*
X5896373Y-2373984D02*
X5858277Y-2373984D01*
X5858277Y-2373984D02*
X5839230Y-2364460D01*
X6048753Y-2373984D02*
X6029706Y-2364460D01*
X6029706Y-2364460D02*
X6020182Y-2345412D01*
X6020182Y-2345412D02*
X6020182Y-2173984D01*
X6210658Y-2373984D02*
X6210658Y-2269222D01*
X6210658Y-2269222D02*
X6201134Y-2250174D01*
X6201134Y-2250174D02*
X6182087Y-2240650D01*
X6182087Y-2240650D02*
X6143992Y-2240650D01*
X6143992Y-2240650D02*
X6124944Y-2250174D01*
X6210658Y-2364460D02*
X6191611Y-2373984D01*
X6191611Y-2373984D02*
X6143992Y-2373984D01*
X6143992Y-2373984D02*
X6124944Y-2364460D01*
X6124944Y-2364460D02*
X6115420Y-2345412D01*
X6115420Y-2345412D02*
X6115420Y-2326365D01*
X6115420Y-2326365D02*
X6124944Y-2307317D01*
X6124944Y-2307317D02*
X6143992Y-2297793D01*
X6143992Y-2297793D02*
X6191611Y-2297793D01*
X6191611Y-2297793D02*
X6210658Y-2288270D01*
X6277325Y-2240650D02*
X6353515Y-2240650D01*
X6305896Y-2173984D02*
X6305896Y-2345412D01*
X6305896Y-2345412D02*
X6315420Y-2364460D01*
X6315420Y-2364460D02*
X6334468Y-2373984D01*
X6334468Y-2373984D02*
X6353515Y-2373984D01*
X6496373Y-2364460D02*
X6477325Y-2373984D01*
X6477325Y-2373984D02*
X6439230Y-2373984D01*
X6439230Y-2373984D02*
X6420182Y-2364460D01*
X6420182Y-2364460D02*
X6410658Y-2345412D01*
X6410658Y-2345412D02*
X6410658Y-2269222D01*
X6410658Y-2269222D02*
X6420182Y-2250174D01*
X6420182Y-2250174D02*
X6439230Y-2240650D01*
X6439230Y-2240650D02*
X6477325Y-2240650D01*
X6477325Y-2240650D02*
X6496373Y-2250174D01*
X6496373Y-2250174D02*
X6505896Y-2269222D01*
X6505896Y-2269222D02*
X6505896Y-2288270D01*
X6505896Y-2288270D02*
X6410658Y-2307317D01*
X6677325Y-2373984D02*
X6677325Y-2173984D01*
X6677325Y-2364460D02*
X6658277Y-2373984D01*
X6658277Y-2373984D02*
X6620182Y-2373984D01*
X6620182Y-2373984D02*
X6601134Y-2364460D01*
X6601134Y-2364460D02*
X6591611Y-2354936D01*
X6591611Y-2354936D02*
X6582087Y-2335889D01*
X6582087Y-2335889D02*
X6582087Y-2278746D01*
X6582087Y-2278746D02*
X6591611Y-2259698D01*
X6591611Y-2259698D02*
X6601134Y-2250174D01*
X6601134Y-2250174D02*
X6620182Y-2240650D01*
X6620182Y-2240650D02*
X6658277Y-2240650D01*
X6658277Y-2240650D02*
X6677325Y-2250174D01*
X6753515Y-2450174D02*
X6763039Y-2440650D01*
X6763039Y-2440650D02*
X6782087Y-2412079D01*
X6782087Y-2412079D02*
X6791611Y-2393031D01*
X6791611Y-2393031D02*
X6801134Y-2364460D01*
X6801134Y-2364460D02*
X6810658Y-2316841D01*
X6810658Y-2316841D02*
X6810658Y-2278746D01*
X6810658Y-2278746D02*
X6801134Y-2231127D01*
X6801134Y-2231127D02*
X6791611Y-2202555D01*
X6791611Y-2202555D02*
X6782087Y-2183508D01*
X6782087Y-2183508D02*
X6763039Y-2154936D01*
X6763039Y-2154936D02*
X6753515Y-2145412D01*
M02*
