%TF.GenerationSoftware,KiCad,Pcbnew,9.0.4*%
%TF.CreationDate,2025-12-12T13:11:14+03:00*%
%TF.ProjectId,FlameSensorSender,466c616d-6553-4656-9e73-6f7253656e64,1*%
%TF.SameCoordinates,PX3abc02cPY73c9b94*%
%TF.FileFunction,Paste,Top*%
%TF.FilePolarity,Positive*%
%FSLAX46Y46*%
G04 Gerber Fmt 4.6, Leading zero omitted, Abs format (unit mm)*
G04 Created by KiCad (PCBNEW 9.0.4) date 2025-12-12 13:11:14*
%MOMM*%
%LPD*%
G01*
G04 APERTURE LIST*
G04 Aperture macros list*
%AMRoundRect*
0 Rectangle with rounded corners*
0 $1 Rounding radius*
0 $2 $3 $4 $5 $6 $7 $8 $9 X,Y pos of 4 corners*
0 Add a 4 corners polygon primitive as box body*
4,1,4,$2,$3,$4,$5,$6,$7,$8,$9,$2,$3,0*
0 Add four circle primitives for the rounded corners*
1,1,$1+$1,$2,$3*
1,1,$1+$1,$4,$5*
1,1,$1+$1,$6,$7*
1,1,$1+$1,$8,$9*
0 Add four rect primitives between the rounded corners*
20,1,$1+$1,$2,$3,$4,$5,0*
20,1,$1+$1,$4,$5,$6,$7,0*
20,1,$1+$1,$6,$7,$8,$9,0*
20,1,$1+$1,$8,$9,$2,$3,0*%
G04 Aperture macros list end*
%ADD10RoundRect,0.150000X0.512500X0.150000X-0.512500X0.150000X-0.512500X-0.150000X0.512500X-0.150000X0*%
%ADD11RoundRect,0.237500X-0.237500X0.300000X-0.237500X-0.300000X0.237500X-0.300000X0.237500X0.300000X0*%
%ADD12RoundRect,0.237500X-0.300000X-0.237500X0.300000X-0.237500X0.300000X0.237500X-0.300000X0.237500X0*%
%ADD13RoundRect,0.500000X-0.500000X0.500000X-0.500000X-0.500000X0.500000X-0.500000X0.500000X0.500000X0*%
%ADD14R,2.625000X5.160000*%
%ADD15RoundRect,0.237500X0.250000X0.237500X-0.250000X0.237500X-0.250000X-0.237500X0.250000X-0.237500X0*%
%ADD16RoundRect,0.237500X0.237500X-0.250000X0.237500X0.250000X-0.237500X0.250000X-0.237500X-0.250000X0*%
%ADD17RoundRect,0.250001X0.624999X-0.462499X0.624999X0.462499X-0.624999X0.462499X-0.624999X-0.462499X0*%
%ADD18RoundRect,0.237500X-0.237500X0.250000X-0.237500X-0.250000X0.237500X-0.250000X0.237500X0.250000X0*%
%ADD19R,0.229400X0.806399*%
%ADD20RoundRect,0.237500X0.300000X0.237500X-0.300000X0.237500X-0.300000X-0.237500X0.300000X-0.237500X0*%
%ADD21RoundRect,0.237500X-0.287500X-0.237500X0.287500X-0.237500X0.287500X0.237500X-0.287500X0.237500X0*%
%ADD22R,1.500000X2.000000*%
%ADD23R,0.711200X3.403600*%
%ADD24R,1.600200X2.387600*%
%ADD25RoundRect,0.075000X0.662500X0.075000X-0.662500X0.075000X-0.662500X-0.075000X0.662500X-0.075000X0*%
%ADD26RoundRect,0.075000X0.075000X0.662500X-0.075000X0.662500X-0.075000X-0.662500X0.075000X-0.662500X0*%
%ADD27RoundRect,0.150000X0.150000X-0.512500X0.150000X0.512500X-0.150000X0.512500X-0.150000X-0.512500X0*%
%ADD28RoundRect,0.250000X0.550000X-1.500000X0.550000X1.500000X-0.550000X1.500000X-0.550000X-1.500000X0*%
%ADD29RoundRect,0.237500X0.237500X-0.300000X0.237500X0.300000X-0.237500X0.300000X-0.237500X-0.300000X0*%
%ADD30RoundRect,0.160000X0.245000X0.160000X-0.245000X0.160000X-0.245000X-0.160000X0.245000X-0.160000X0*%
%ADD31RoundRect,0.093750X0.093750X0.106250X-0.093750X0.106250X-0.093750X-0.106250X0.093750X-0.106250X0*%
G04 APERTURE END LIST*
D10*
%TO.C,U4*%
X49318750Y5000000D03*
X49318750Y5950000D03*
X49318750Y6900000D03*
X47043750Y6900000D03*
X47043750Y5950000D03*
X47043750Y5000000D03*
%TD*%
D11*
%TO.C,C9*%
X44456250Y6762500D03*
X44456250Y5037500D03*
%TD*%
%TO.C,C2*%
X53012500Y16612500D03*
X53012500Y14887500D03*
%TD*%
D12*
%TO.C,C7*%
X19550000Y51012500D03*
X21275000Y51012500D03*
%TD*%
D13*
%TO.C,SW2*%
X63412500Y28812500D03*
X63412500Y22812500D03*
%TD*%
D14*
%TO.C,P1*%
X3800000Y12900000D03*
X3800000Y5100000D03*
X27000000Y12900000D03*
X27000000Y5100000D03*
%TD*%
D15*
%TO.C,R6*%
X25812500Y32412500D03*
X23987500Y32412500D03*
%TD*%
D12*
%TO.C,C5*%
X57550000Y23412500D03*
X59275000Y23412500D03*
%TD*%
D16*
%TO.C,R7*%
X40612500Y5100000D03*
X40612500Y6925000D03*
%TD*%
D17*
%TO.C,D1*%
X62612500Y14725000D03*
X62612500Y17700000D03*
%TD*%
D16*
%TO.C,R8*%
X21612500Y58900000D03*
X21612500Y60725000D03*
%TD*%
D14*
%TO.C,P2*%
X3800000Y27512500D03*
X3800000Y19712500D03*
X27000000Y27512500D03*
X27000000Y19712500D03*
%TD*%
D18*
%TO.C,R11*%
X17212500Y68525000D03*
X17212500Y66700000D03*
%TD*%
D19*
%TO.C,IC1*%
X14259811Y61729600D03*
X14759937Y61729600D03*
X15260063Y61729600D03*
X15760189Y61729600D03*
X15760189Y63425000D03*
X15260063Y63425000D03*
X14759937Y63425000D03*
X14259811Y63425000D03*
%TD*%
D20*
%TO.C,C11*%
X4937500Y60812500D03*
X3212500Y60812500D03*
%TD*%
D18*
%TO.C,R12*%
X14012500Y68525000D03*
X14012500Y66700000D03*
%TD*%
D21*
%TO.C,FB1*%
X68537500Y8212500D03*
X70287500Y8212500D03*
%TD*%
D10*
%TO.C,U3*%
X61350000Y5862500D03*
X61350000Y6812500D03*
X61350000Y7762500D03*
X59075000Y7762500D03*
X59075000Y6812500D03*
X59075000Y5862500D03*
%TD*%
D11*
%TO.C,C8*%
X56212500Y6675000D03*
X56212500Y4950000D03*
%TD*%
D22*
%TO.C,U2*%
X69012500Y11812500D03*
X71012500Y11812500D03*
X73012500Y11812500D03*
X75012500Y11812500D03*
X77012500Y11812500D03*
X79012500Y11812500D03*
X81012500Y11812500D03*
X83012500Y11812500D03*
X83012500Y27812500D03*
X81012500Y27812500D03*
X79012500Y27812500D03*
X77012500Y27812500D03*
X75012500Y27812500D03*
X73012500Y27812500D03*
X71012500Y27812500D03*
X69012500Y27812500D03*
%TD*%
D18*
%TO.C,R2*%
X59612500Y17925000D03*
X59612500Y16100000D03*
%TD*%
D20*
%TO.C,C1*%
X43137500Y19000000D03*
X41412500Y19000000D03*
%TD*%
D16*
%TO.C,R4*%
X41412500Y36700000D03*
X41412500Y38525000D03*
%TD*%
D18*
%TO.C,R5*%
X53012500Y6725000D03*
X53012500Y4900000D03*
%TD*%
%TO.C,R10*%
X18412500Y60725000D03*
X18412500Y58900000D03*
%TD*%
D23*
%TO.C,J3*%
X31530600Y38211600D03*
X30030601Y38211600D03*
X28530601Y38211600D03*
X27030599Y38211600D03*
X25530599Y38211600D03*
X24030600Y38211600D03*
D24*
X33580601Y36261599D03*
X21980599Y36261599D03*
%TD*%
D25*
%TO.C,U1*%
X53000000Y20325000D03*
X53000000Y20825000D03*
X53000000Y21325000D03*
X53000000Y21825000D03*
X53000000Y22325000D03*
X53000000Y22825000D03*
X53000000Y23325000D03*
X53000000Y23825000D03*
X53000000Y24325000D03*
X53000000Y24825000D03*
X53000000Y25325000D03*
X53000000Y25825000D03*
D26*
X51587500Y27237500D03*
X51087500Y27237500D03*
X50587500Y27237500D03*
X50087500Y27237500D03*
X49587500Y27237500D03*
X49087500Y27237500D03*
X48587500Y27237500D03*
X48087500Y27237500D03*
X47587500Y27237500D03*
X47087500Y27237500D03*
X46587500Y27237500D03*
X46087500Y27237500D03*
D25*
X44675000Y25825000D03*
X44675000Y25325000D03*
X44675000Y24825000D03*
X44675000Y24325000D03*
X44675000Y23825000D03*
X44675000Y23325000D03*
X44675000Y22825000D03*
X44675000Y22325000D03*
X44675000Y21825000D03*
X44675000Y21325000D03*
X44675000Y20825000D03*
X44675000Y20325000D03*
D26*
X46087500Y18912500D03*
X46587500Y18912500D03*
X47087500Y18912500D03*
X47587500Y18912500D03*
X48087500Y18912500D03*
X48587500Y18912500D03*
X49087500Y18912500D03*
X49587500Y18912500D03*
X50087500Y18912500D03*
X50587500Y18912500D03*
X51087500Y18912500D03*
X51587500Y18912500D03*
%TD*%
D12*
%TO.C,C3*%
X55000000Y18412500D03*
X56725000Y18412500D03*
%TD*%
D27*
%TO.C,U6*%
X2912500Y53612500D03*
X3862500Y53612500D03*
X4812500Y53612500D03*
X4812500Y55887500D03*
X3862500Y55887500D03*
X2912500Y55887500D03*
%TD*%
D28*
%TO.C,C10*%
X16212500Y34012500D03*
X16212500Y39412500D03*
%TD*%
D18*
%TO.C,R9*%
X21612500Y64925000D03*
X21612500Y63100000D03*
%TD*%
D29*
%TO.C,C4*%
X19412500Y45062500D03*
X19412500Y46787500D03*
%TD*%
D16*
%TO.C,R3*%
X38412500Y36700000D03*
X38412500Y38525000D03*
%TD*%
D18*
%TO.C,R1*%
X21412500Y46837500D03*
X21412500Y45012500D03*
%TD*%
D30*
%TO.C,U5*%
X8212500Y67012500D03*
X8212500Y67812500D03*
D31*
X9100000Y66762500D03*
X9100000Y67412500D03*
X9100000Y68062500D03*
X7325000Y68062500D03*
X7325000Y67412500D03*
X7325000Y66762500D03*
%TD*%
D29*
%TO.C,C6*%
X43412500Y29550000D03*
X43412500Y31275000D03*
%TD*%
M02*
