M48
; DRILL file {KiCad 9.0.4} date 2025-12-12T13:11:34+0300
; FORMAT={-:-/ absolute / metric / decimal}
; #@! TF.CreationDate,2025-12-12T13:11:34+03:00
; #@! TF.GenerationSoftware,Kicad,Pcbnew,9.0.4
; #@! TF.FileFunction,MixedPlating,1,2
FMAT,2
METRIC
; #@! TA.AperFunction,Plated,PTH,ComponentDrill
T1C0.750
; #@! TA.AperFunction,Plated,PTH,ViaDrill
T2C0.900
; #@! TA.AperFunction,Plated,PTH,ComponentDrill
T3C1.000
; #@! TA.AperFunction,Plated,PTH,ComponentDrill
T4C1.020
; #@! TA.AperFunction,Plated,PTH,ComponentDrill
T5C1.100
; #@! TA.AperFunction,NonPlated,NPTH,ComponentDrill
T6C3.000
; #@! TA.AperFunction,NonPlated,NPTH,ComponentDrill
T7C3.300
%
G90
G05
T1
X11.213Y73.212
X13.212Y73.212
X15.212Y73.212
X17.212Y73.212
X19.212Y73.212
X21.212Y73.212
T2
X5.212Y51.612
X6.812Y53.612
X7.412Y63.212
X11.162Y62.425
X12.162Y56.425
X21.412Y55.412
X23.212Y46.812
X28.612Y33.212
X38.262Y29.862
X39.413Y32.812
X39.413Y16.412
X39.612Y54.212
X43.012Y41.812
X44.668Y13.668
X45.012Y34.812
X45.476Y29.476
X46.612Y38.212
X47.212Y13.612
X47.688Y16.812
X50.112Y31.712
X51.212Y8.412
X51.812Y33.612
X52.812Y36.712
X55.393Y20.432
X55.412Y23.225
X58.412Y27.412
X58.812Y20.412
X59.412Y29.099
X61.412Y10.612
X65.112Y37.312
X69.912Y32.512
X70.156Y35.756
X72.612Y6.412
X73.356Y32.556
X75.513Y5.312
T3
X32.46Y28.54
X32.46Y26.0
X32.46Y18.54
X32.46Y16.0
X35.0Y28.54
X35.0Y26.0
X35.0Y18.54
X35.0Y16.0
T4
X27.412Y67.403
X27.412Y52.412
T5
X9.963Y50.112
X9.963Y45.612
X16.462Y50.112
X16.462Y45.612
T6
X5.0Y73.0
X81.0Y73.0
X81.0Y5.0
T7
X54.578Y67.403
X54.578Y52.412
M30
