%TF.GenerationSoftware,KiCad,Pcbnew,9.0.1*%
%TF.CreationDate,2025-07-28T02:39:42+03:00*%
%TF.ProjectId,FlameSensorSender,466c616d-6553-4656-9e73-6f7253656e64,1*%
%TF.SameCoordinates,Original*%
%TF.FileFunction,Copper,L1,Top*%
%TF.FilePolarity,Positive*%
%FSLAX46Y46*%
G04 Gerber Fmt 4.6, Leading zero omitted, Abs format (unit mm)*
G04 Created by KiCad (PCBNEW 9.0.1) date 2025-07-28 02:39:42*
%MOMM*%
%LPD*%
G01*
G04 APERTURE LIST*
G04 Aperture macros list*
%AMRoundRect*
0 Rectangle with rounded corners*
0 $1 Rounding radius*
0 $2 $3 $4 $5 $6 $7 $8 $9 X,Y pos of 4 corners*
0 Add a 4 corners polygon primitive as box body*
4,1,4,$2,$3,$4,$5,$6,$7,$8,$9,$2,$3,0*
0 Add four circle primitives for the rounded corners*
1,1,$1+$1,$2,$3*
1,1,$1+$1,$4,$5*
1,1,$1+$1,$6,$7*
1,1,$1+$1,$8,$9*
0 Add four rect primitives between the rounded corners*
20,1,$1+$1,$2,$3,$4,$5,0*
20,1,$1+$1,$4,$5,$6,$7,0*
20,1,$1+$1,$6,$7,$8,$9,0*
20,1,$1+$1,$8,$9,$2,$3,0*%
G04 Aperture macros list end*
%ADD10C,0.100000*%
%ADD11C,0.150000*%
%ADD12C,0.300000*%
%ADD13C,0.400000*%
%TA.AperFunction,ComponentPad*%
%ADD14C,2.000000*%
%TD*%
%TA.AperFunction,ComponentPad*%
%ADD15R,2.000000X2.000000*%
%TD*%
%TA.AperFunction,SMDPad,CuDef*%
%ADD16RoundRect,0.237500X0.237500X-0.300000X0.237500X0.300000X-0.237500X0.300000X-0.237500X-0.300000X0*%
%TD*%
%TA.AperFunction,ComponentPad*%
%ADD17R,1.700000X1.700000*%
%TD*%
%TA.AperFunction,ComponentPad*%
%ADD18C,1.700000*%
%TD*%
%TA.AperFunction,SMDPad,CuDef*%
%ADD19RoundRect,0.237500X-0.300000X-0.237500X0.300000X-0.237500X0.300000X0.237500X-0.300000X0.237500X0*%
%TD*%
%TA.AperFunction,SMDPad,CuDef*%
%ADD20RoundRect,0.237500X0.250000X0.237500X-0.250000X0.237500X-0.250000X-0.237500X0.250000X-0.237500X0*%
%TD*%
%TA.AperFunction,SMDPad,CuDef*%
%ADD21RoundRect,0.250001X-0.462499X-0.624999X0.462499X-0.624999X0.462499X0.624999X-0.462499X0.624999X0*%
%TD*%
%TA.AperFunction,SMDPad,CuDef*%
%ADD22RoundRect,0.237500X0.237500X-0.287500X0.237500X0.287500X-0.237500X0.287500X-0.237500X-0.287500X0*%
%TD*%
%TA.AperFunction,SMDPad,CuDef*%
%ADD23RoundRect,0.150000X-0.150000X0.587500X-0.150000X-0.587500X0.150000X-0.587500X0.150000X0.587500X0*%
%TD*%
%TA.AperFunction,SMDPad,CuDef*%
%ADD24RoundRect,0.237500X-0.237500X0.250000X-0.237500X-0.250000X0.237500X-0.250000X0.237500X0.250000X0*%
%TD*%
%TA.AperFunction,SMDPad,CuDef*%
%ADD25RoundRect,0.237500X-0.237500X0.300000X-0.237500X-0.300000X0.237500X-0.300000X0.237500X0.300000X0*%
%TD*%
%TA.AperFunction,SMDPad,CuDef*%
%ADD26RoundRect,0.050000X-0.075000X0.250000X-0.075000X-0.250000X0.075000X-0.250000X0.075000X0.250000X0*%
%TD*%
%TA.AperFunction,SMDPad,CuDef*%
%ADD27RoundRect,0.050000X-0.075000X0.400000X-0.075000X-0.400000X0.075000X-0.400000X0.075000X0.400000X0*%
%TD*%
%TA.AperFunction,SMDPad,CuDef*%
%ADD28RoundRect,0.050000X-0.075000X0.600000X-0.075000X-0.600000X0.075000X-0.600000X0.075000X0.600000X0*%
%TD*%
%TA.AperFunction,SMDPad,CuDef*%
%ADD29RoundRect,0.150000X-0.150000X0.512500X-0.150000X-0.512500X0.150000X-0.512500X0.150000X0.512500X0*%
%TD*%
%TA.AperFunction,ComponentPad*%
%ADD30RoundRect,0.250000X0.625000X-0.350000X0.625000X0.350000X-0.625000X0.350000X-0.625000X-0.350000X0*%
%TD*%
%TA.AperFunction,ComponentPad*%
%ADD31O,1.750000X1.200000*%
%TD*%
%TA.AperFunction,SMDPad,CuDef*%
%ADD32R,0.980000X3.400000*%
%TD*%
%TA.AperFunction,SMDPad,CuDef*%
%ADD33RoundRect,0.050000X0.075000X-0.250000X0.075000X0.250000X-0.075000X0.250000X-0.075000X-0.250000X0*%
%TD*%
%TA.AperFunction,SMDPad,CuDef*%
%ADD34RoundRect,0.050000X0.075000X-0.400000X0.075000X0.400000X-0.075000X0.400000X-0.075000X-0.400000X0*%
%TD*%
%TA.AperFunction,SMDPad,CuDef*%
%ADD35RoundRect,0.050000X0.075000X-0.600000X0.075000X0.600000X-0.075000X0.600000X-0.075000X-0.600000X0*%
%TD*%
%TA.AperFunction,SMDPad,CuDef*%
%ADD36RoundRect,0.237500X0.237500X-0.250000X0.237500X0.250000X-0.237500X0.250000X-0.237500X-0.250000X0*%
%TD*%
%TA.AperFunction,ComponentPad*%
%ADD37RoundRect,0.250000X0.350000X0.625000X-0.350000X0.625000X-0.350000X-0.625000X0.350000X-0.625000X0*%
%TD*%
%TA.AperFunction,ComponentPad*%
%ADD38O,1.200000X1.750000*%
%TD*%
%TA.AperFunction,SMDPad,CuDef*%
%ADD39RoundRect,0.237500X0.300000X0.237500X-0.300000X0.237500X-0.300000X-0.237500X0.300000X-0.237500X0*%
%TD*%
%TA.AperFunction,SMDPad,CuDef*%
%ADD40RoundRect,0.075000X0.662500X0.075000X-0.662500X0.075000X-0.662500X-0.075000X0.662500X-0.075000X0*%
%TD*%
%TA.AperFunction,SMDPad,CuDef*%
%ADD41RoundRect,0.075000X0.075000X0.662500X-0.075000X0.662500X-0.075000X-0.662500X0.075000X-0.662500X0*%
%TD*%
%TA.AperFunction,SMDPad,CuDef*%
%ADD42RoundRect,0.237500X-0.250000X-0.237500X0.250000X-0.237500X0.250000X0.237500X-0.250000X0.237500X0*%
%TD*%
%TA.AperFunction,SMDPad,CuDef*%
%ADD43R,1.500000X2.000000*%
%TD*%
%TA.AperFunction,ViaPad*%
%ADD44C,0.600000*%
%TD*%
%TA.AperFunction,ViaPad*%
%ADD45C,0.800000*%
%TD*%
%TA.AperFunction,ViaPad*%
%ADD46C,1.000000*%
%TD*%
%TA.AperFunction,ViaPad*%
%ADD47C,1.400000*%
%TD*%
%TA.AperFunction,Conductor*%
%ADD48C,0.250000*%
%TD*%
%TA.AperFunction,Conductor*%
%ADD49C,0.200000*%
%TD*%
%TA.AperFunction,Conductor*%
%ADD50C,1.000000*%
%TD*%
%TA.AperFunction,Conductor*%
%ADD51C,0.500000*%
%TD*%
G04 APERTURE END LIST*
D10*
D11*
X90007200Y-253002200D02*
X198007200Y-253002200D01*
X198007200Y-285002200D01*
X90007200Y-285002200D01*
X90007200Y-253002200D01*
D10*
D11*
X10000000Y-10000000D02*
X200007200Y-10000000D01*
X200007200Y-287002200D01*
X10000000Y-287002200D01*
X10000000Y-10000000D01*
D10*
D11*
X12000000Y-12000000D02*
X198007200Y-12000000D01*
X198007200Y-285002200D01*
X12000000Y-285002200D01*
X12000000Y-12000000D01*
D10*
D11*
X60000000Y-12000000D02*
X60000000Y-10000000D01*
D10*
D11*
X110000000Y-12000000D02*
X110000000Y-10000000D01*
D10*
D11*
X160000000Y-12000000D02*
X160000000Y-10000000D01*
D10*
D11*
X36089160Y-11593604D02*
X35346303Y-11593604D01*
X35717731Y-11593604D02*
X35717731Y-10293604D01*
X35717731Y-10293604D02*
X35593922Y-10479319D01*
X35593922Y-10479319D02*
X35470112Y-10603128D01*
X35470112Y-10603128D02*
X35346303Y-10665033D01*
D10*
D11*
X85346303Y-10417414D02*
X85408207Y-10355509D01*
X85408207Y-10355509D02*
X85532017Y-10293604D01*
X85532017Y-10293604D02*
X85841541Y-10293604D01*
X85841541Y-10293604D02*
X85965350Y-10355509D01*
X85965350Y-10355509D02*
X86027255Y-10417414D01*
X86027255Y-10417414D02*
X86089160Y-10541223D01*
X86089160Y-10541223D02*
X86089160Y-10665033D01*
X86089160Y-10665033D02*
X86027255Y-10850747D01*
X86027255Y-10850747D02*
X85284398Y-11593604D01*
X85284398Y-11593604D02*
X86089160Y-11593604D01*
D10*
D11*
X135284398Y-10293604D02*
X136089160Y-10293604D01*
X136089160Y-10293604D02*
X135655826Y-10788842D01*
X135655826Y-10788842D02*
X135841541Y-10788842D01*
X135841541Y-10788842D02*
X135965350Y-10850747D01*
X135965350Y-10850747D02*
X136027255Y-10912652D01*
X136027255Y-10912652D02*
X136089160Y-11036461D01*
X136089160Y-11036461D02*
X136089160Y-11345985D01*
X136089160Y-11345985D02*
X136027255Y-11469795D01*
X136027255Y-11469795D02*
X135965350Y-11531700D01*
X135965350Y-11531700D02*
X135841541Y-11593604D01*
X135841541Y-11593604D02*
X135470112Y-11593604D01*
X135470112Y-11593604D02*
X135346303Y-11531700D01*
X135346303Y-11531700D02*
X135284398Y-11469795D01*
D10*
D11*
X185965350Y-10726938D02*
X185965350Y-11593604D01*
X185655826Y-10231700D02*
X185346303Y-11160271D01*
X185346303Y-11160271D02*
X186151064Y-11160271D01*
D10*
D11*
X60000000Y-285002200D02*
X60000000Y-287002200D01*
D10*
D11*
X110000000Y-285002200D02*
X110000000Y-287002200D01*
D10*
D11*
X160000000Y-285002200D02*
X160000000Y-287002200D01*
D10*
D11*
X36089160Y-286595804D02*
X35346303Y-286595804D01*
X35717731Y-286595804D02*
X35717731Y-285295804D01*
X35717731Y-285295804D02*
X35593922Y-285481519D01*
X35593922Y-285481519D02*
X35470112Y-285605328D01*
X35470112Y-285605328D02*
X35346303Y-285667233D01*
D10*
D11*
X85346303Y-285419614D02*
X85408207Y-285357709D01*
X85408207Y-285357709D02*
X85532017Y-285295804D01*
X85532017Y-285295804D02*
X85841541Y-285295804D01*
X85841541Y-285295804D02*
X85965350Y-285357709D01*
X85965350Y-285357709D02*
X86027255Y-285419614D01*
X86027255Y-285419614D02*
X86089160Y-285543423D01*
X86089160Y-285543423D02*
X86089160Y-285667233D01*
X86089160Y-285667233D02*
X86027255Y-285852947D01*
X86027255Y-285852947D02*
X85284398Y-286595804D01*
X85284398Y-286595804D02*
X86089160Y-286595804D01*
D10*
D11*
X135284398Y-285295804D02*
X136089160Y-285295804D01*
X136089160Y-285295804D02*
X135655826Y-285791042D01*
X135655826Y-285791042D02*
X135841541Y-285791042D01*
X135841541Y-285791042D02*
X135965350Y-285852947D01*
X135965350Y-285852947D02*
X136027255Y-285914852D01*
X136027255Y-285914852D02*
X136089160Y-286038661D01*
X136089160Y-286038661D02*
X136089160Y-286348185D01*
X136089160Y-286348185D02*
X136027255Y-286471995D01*
X136027255Y-286471995D02*
X135965350Y-286533900D01*
X135965350Y-286533900D02*
X135841541Y-286595804D01*
X135841541Y-286595804D02*
X135470112Y-286595804D01*
X135470112Y-286595804D02*
X135346303Y-286533900D01*
X135346303Y-286533900D02*
X135284398Y-286471995D01*
D10*
D11*
X185965350Y-285729138D02*
X185965350Y-286595804D01*
X185655826Y-285233900D02*
X185346303Y-286162471D01*
X185346303Y-286162471D02*
X186151064Y-286162471D01*
D10*
D11*
X10000000Y-60000000D02*
X12000000Y-60000000D01*
D10*
D11*
X10000000Y-110000000D02*
X12000000Y-110000000D01*
D10*
D11*
X10000000Y-160000000D02*
X12000000Y-160000000D01*
D10*
D11*
X10000000Y-210000000D02*
X12000000Y-210000000D01*
D10*
D11*
X10000000Y-260000000D02*
X12000000Y-260000000D01*
D10*
D11*
X10690476Y-35222176D02*
X11309523Y-35222176D01*
X10566666Y-35593604D02*
X10999999Y-34293604D01*
X10999999Y-34293604D02*
X11433333Y-35593604D01*
D10*
D11*
X11092857Y-84912652D02*
X11278571Y-84974557D01*
X11278571Y-84974557D02*
X11340476Y-85036461D01*
X11340476Y-85036461D02*
X11402380Y-85160271D01*
X11402380Y-85160271D02*
X11402380Y-85345985D01*
X11402380Y-85345985D02*
X11340476Y-85469795D01*
X11340476Y-85469795D02*
X11278571Y-85531700D01*
X11278571Y-85531700D02*
X11154761Y-85593604D01*
X11154761Y-85593604D02*
X10659523Y-85593604D01*
X10659523Y-85593604D02*
X10659523Y-84293604D01*
X10659523Y-84293604D02*
X11092857Y-84293604D01*
X11092857Y-84293604D02*
X11216666Y-84355509D01*
X11216666Y-84355509D02*
X11278571Y-84417414D01*
X11278571Y-84417414D02*
X11340476Y-84541223D01*
X11340476Y-84541223D02*
X11340476Y-84665033D01*
X11340476Y-84665033D02*
X11278571Y-84788842D01*
X11278571Y-84788842D02*
X11216666Y-84850747D01*
X11216666Y-84850747D02*
X11092857Y-84912652D01*
X11092857Y-84912652D02*
X10659523Y-84912652D01*
D10*
D11*
X11402380Y-135469795D02*
X11340476Y-135531700D01*
X11340476Y-135531700D02*
X11154761Y-135593604D01*
X11154761Y-135593604D02*
X11030952Y-135593604D01*
X11030952Y-135593604D02*
X10845238Y-135531700D01*
X10845238Y-135531700D02*
X10721428Y-135407890D01*
X10721428Y-135407890D02*
X10659523Y-135284080D01*
X10659523Y-135284080D02*
X10597619Y-135036461D01*
X10597619Y-135036461D02*
X10597619Y-134850747D01*
X10597619Y-134850747D02*
X10659523Y-134603128D01*
X10659523Y-134603128D02*
X10721428Y-134479319D01*
X10721428Y-134479319D02*
X10845238Y-134355509D01*
X10845238Y-134355509D02*
X11030952Y-134293604D01*
X11030952Y-134293604D02*
X11154761Y-134293604D01*
X11154761Y-134293604D02*
X11340476Y-134355509D01*
X11340476Y-134355509D02*
X11402380Y-134417414D01*
D10*
D11*
X10659523Y-185593604D02*
X10659523Y-184293604D01*
X10659523Y-184293604D02*
X10969047Y-184293604D01*
X10969047Y-184293604D02*
X11154761Y-184355509D01*
X11154761Y-184355509D02*
X11278571Y-184479319D01*
X11278571Y-184479319D02*
X11340476Y-184603128D01*
X11340476Y-184603128D02*
X11402380Y-184850747D01*
X11402380Y-184850747D02*
X11402380Y-185036461D01*
X11402380Y-185036461D02*
X11340476Y-185284080D01*
X11340476Y-185284080D02*
X11278571Y-185407890D01*
X11278571Y-185407890D02*
X11154761Y-185531700D01*
X11154761Y-185531700D02*
X10969047Y-185593604D01*
X10969047Y-185593604D02*
X10659523Y-185593604D01*
D10*
D11*
X10721428Y-234912652D02*
X11154762Y-234912652D01*
X11340476Y-235593604D02*
X10721428Y-235593604D01*
X10721428Y-235593604D02*
X10721428Y-234293604D01*
X10721428Y-234293604D02*
X11340476Y-234293604D01*
D10*
D11*
X11185714Y-284912652D02*
X10752380Y-284912652D01*
X10752380Y-285593604D02*
X10752380Y-284293604D01*
X10752380Y-284293604D02*
X11371428Y-284293604D01*
D10*
D11*
X200007200Y-60000000D02*
X198007200Y-60000000D01*
D10*
D11*
X200007200Y-110000000D02*
X198007200Y-110000000D01*
D10*
D11*
X200007200Y-160000000D02*
X198007200Y-160000000D01*
D10*
D11*
X200007200Y-210000000D02*
X198007200Y-210000000D01*
D10*
D11*
X200007200Y-260000000D02*
X198007200Y-260000000D01*
D10*
D11*
X198697676Y-35222176D02*
X199316723Y-35222176D01*
X198573866Y-35593604D02*
X199007199Y-34293604D01*
X199007199Y-34293604D02*
X199440533Y-35593604D01*
D10*
D11*
X199100057Y-84912652D02*
X199285771Y-84974557D01*
X199285771Y-84974557D02*
X199347676Y-85036461D01*
X199347676Y-85036461D02*
X199409580Y-85160271D01*
X199409580Y-85160271D02*
X199409580Y-85345985D01*
X199409580Y-85345985D02*
X199347676Y-85469795D01*
X199347676Y-85469795D02*
X199285771Y-85531700D01*
X199285771Y-85531700D02*
X199161961Y-85593604D01*
X199161961Y-85593604D02*
X198666723Y-85593604D01*
X198666723Y-85593604D02*
X198666723Y-84293604D01*
X198666723Y-84293604D02*
X199100057Y-84293604D01*
X199100057Y-84293604D02*
X199223866Y-84355509D01*
X199223866Y-84355509D02*
X199285771Y-84417414D01*
X199285771Y-84417414D02*
X199347676Y-84541223D01*
X199347676Y-84541223D02*
X199347676Y-84665033D01*
X199347676Y-84665033D02*
X199285771Y-84788842D01*
X199285771Y-84788842D02*
X199223866Y-84850747D01*
X199223866Y-84850747D02*
X199100057Y-84912652D01*
X199100057Y-84912652D02*
X198666723Y-84912652D01*
D10*
D11*
X199409580Y-135469795D02*
X199347676Y-135531700D01*
X199347676Y-135531700D02*
X199161961Y-135593604D01*
X199161961Y-135593604D02*
X199038152Y-135593604D01*
X199038152Y-135593604D02*
X198852438Y-135531700D01*
X198852438Y-135531700D02*
X198728628Y-135407890D01*
X198728628Y-135407890D02*
X198666723Y-135284080D01*
X198666723Y-135284080D02*
X198604819Y-135036461D01*
X198604819Y-135036461D02*
X198604819Y-134850747D01*
X198604819Y-134850747D02*
X198666723Y-134603128D01*
X198666723Y-134603128D02*
X198728628Y-134479319D01*
X198728628Y-134479319D02*
X198852438Y-134355509D01*
X198852438Y-134355509D02*
X199038152Y-134293604D01*
X199038152Y-134293604D02*
X199161961Y-134293604D01*
X199161961Y-134293604D02*
X199347676Y-134355509D01*
X199347676Y-134355509D02*
X199409580Y-134417414D01*
D10*
D11*
X198666723Y-185593604D02*
X198666723Y-184293604D01*
X198666723Y-184293604D02*
X198976247Y-184293604D01*
X198976247Y-184293604D02*
X199161961Y-184355509D01*
X199161961Y-184355509D02*
X199285771Y-184479319D01*
X199285771Y-184479319D02*
X199347676Y-184603128D01*
X199347676Y-184603128D02*
X199409580Y-184850747D01*
X199409580Y-184850747D02*
X199409580Y-185036461D01*
X199409580Y-185036461D02*
X199347676Y-185284080D01*
X199347676Y-185284080D02*
X199285771Y-185407890D01*
X199285771Y-185407890D02*
X199161961Y-185531700D01*
X199161961Y-185531700D02*
X198976247Y-185593604D01*
X198976247Y-185593604D02*
X198666723Y-185593604D01*
D10*
D11*
X198728628Y-234912652D02*
X199161962Y-234912652D01*
X199347676Y-235593604D02*
X198728628Y-235593604D01*
X198728628Y-235593604D02*
X198728628Y-234293604D01*
X198728628Y-234293604D02*
X199347676Y-234293604D01*
D10*
D11*
X199192914Y-284912652D02*
X198759580Y-284912652D01*
X198759580Y-285593604D02*
X198759580Y-284293604D01*
X198759580Y-284293604D02*
X199378628Y-284293604D01*
D10*
D11*
X113463026Y-280788328D02*
X113463026Y-279288328D01*
X113463026Y-279288328D02*
X113820169Y-279288328D01*
X113820169Y-279288328D02*
X114034455Y-279359757D01*
X114034455Y-279359757D02*
X114177312Y-279502614D01*
X114177312Y-279502614D02*
X114248741Y-279645471D01*
X114248741Y-279645471D02*
X114320169Y-279931185D01*
X114320169Y-279931185D02*
X114320169Y-280145471D01*
X114320169Y-280145471D02*
X114248741Y-280431185D01*
X114248741Y-280431185D02*
X114177312Y-280574042D01*
X114177312Y-280574042D02*
X114034455Y-280716900D01*
X114034455Y-280716900D02*
X113820169Y-280788328D01*
X113820169Y-280788328D02*
X113463026Y-280788328D01*
X115605884Y-280788328D02*
X115605884Y-280002614D01*
X115605884Y-280002614D02*
X115534455Y-279859757D01*
X115534455Y-279859757D02*
X115391598Y-279788328D01*
X115391598Y-279788328D02*
X115105884Y-279788328D01*
X115105884Y-279788328D02*
X114963026Y-279859757D01*
X115605884Y-280716900D02*
X115463026Y-280788328D01*
X115463026Y-280788328D02*
X115105884Y-280788328D01*
X115105884Y-280788328D02*
X114963026Y-280716900D01*
X114963026Y-280716900D02*
X114891598Y-280574042D01*
X114891598Y-280574042D02*
X114891598Y-280431185D01*
X114891598Y-280431185D02*
X114963026Y-280288328D01*
X114963026Y-280288328D02*
X115105884Y-280216900D01*
X115105884Y-280216900D02*
X115463026Y-280216900D01*
X115463026Y-280216900D02*
X115605884Y-280145471D01*
X116105884Y-279788328D02*
X116677312Y-279788328D01*
X116320169Y-279288328D02*
X116320169Y-280574042D01*
X116320169Y-280574042D02*
X116391598Y-280716900D01*
X116391598Y-280716900D02*
X116534455Y-280788328D01*
X116534455Y-280788328D02*
X116677312Y-280788328D01*
X117748741Y-280716900D02*
X117605884Y-280788328D01*
X117605884Y-280788328D02*
X117320170Y-280788328D01*
X117320170Y-280788328D02*
X117177312Y-280716900D01*
X117177312Y-280716900D02*
X117105884Y-280574042D01*
X117105884Y-280574042D02*
X117105884Y-280002614D01*
X117105884Y-280002614D02*
X117177312Y-279859757D01*
X117177312Y-279859757D02*
X117320170Y-279788328D01*
X117320170Y-279788328D02*
X117605884Y-279788328D01*
X117605884Y-279788328D02*
X117748741Y-279859757D01*
X117748741Y-279859757D02*
X117820170Y-280002614D01*
X117820170Y-280002614D02*
X117820170Y-280145471D01*
X117820170Y-280145471D02*
X117105884Y-280288328D01*
X118463026Y-280645471D02*
X118534455Y-280716900D01*
X118534455Y-280716900D02*
X118463026Y-280788328D01*
X118463026Y-280788328D02*
X118391598Y-280716900D01*
X118391598Y-280716900D02*
X118463026Y-280645471D01*
X118463026Y-280645471D02*
X118463026Y-280788328D01*
X118463026Y-279859757D02*
X118534455Y-279931185D01*
X118534455Y-279931185D02*
X118463026Y-280002614D01*
X118463026Y-280002614D02*
X118391598Y-279931185D01*
X118391598Y-279931185D02*
X118463026Y-279859757D01*
X118463026Y-279859757D02*
X118463026Y-280002614D01*
X120248741Y-279431185D02*
X120320169Y-279359757D01*
X120320169Y-279359757D02*
X120463027Y-279288328D01*
X120463027Y-279288328D02*
X120820169Y-279288328D01*
X120820169Y-279288328D02*
X120963027Y-279359757D01*
X120963027Y-279359757D02*
X121034455Y-279431185D01*
X121034455Y-279431185D02*
X121105884Y-279574042D01*
X121105884Y-279574042D02*
X121105884Y-279716900D01*
X121105884Y-279716900D02*
X121034455Y-279931185D01*
X121034455Y-279931185D02*
X120177312Y-280788328D01*
X120177312Y-280788328D02*
X121105884Y-280788328D01*
X122034455Y-279288328D02*
X122177312Y-279288328D01*
X122177312Y-279288328D02*
X122320169Y-279359757D01*
X122320169Y-279359757D02*
X122391598Y-279431185D01*
X122391598Y-279431185D02*
X122463026Y-279574042D01*
X122463026Y-279574042D02*
X122534455Y-279859757D01*
X122534455Y-279859757D02*
X122534455Y-280216900D01*
X122534455Y-280216900D02*
X122463026Y-280502614D01*
X122463026Y-280502614D02*
X122391598Y-280645471D01*
X122391598Y-280645471D02*
X122320169Y-280716900D01*
X122320169Y-280716900D02*
X122177312Y-280788328D01*
X122177312Y-280788328D02*
X122034455Y-280788328D01*
X122034455Y-280788328D02*
X121891598Y-280716900D01*
X121891598Y-280716900D02*
X121820169Y-280645471D01*
X121820169Y-280645471D02*
X121748740Y-280502614D01*
X121748740Y-280502614D02*
X121677312Y-280216900D01*
X121677312Y-280216900D02*
X121677312Y-279859757D01*
X121677312Y-279859757D02*
X121748740Y-279574042D01*
X121748740Y-279574042D02*
X121820169Y-279431185D01*
X121820169Y-279431185D02*
X121891598Y-279359757D01*
X121891598Y-279359757D02*
X122034455Y-279288328D01*
X123105883Y-279431185D02*
X123177311Y-279359757D01*
X123177311Y-279359757D02*
X123320169Y-279288328D01*
X123320169Y-279288328D02*
X123677311Y-279288328D01*
X123677311Y-279288328D02*
X123820169Y-279359757D01*
X123820169Y-279359757D02*
X123891597Y-279431185D01*
X123891597Y-279431185D02*
X123963026Y-279574042D01*
X123963026Y-279574042D02*
X123963026Y-279716900D01*
X123963026Y-279716900D02*
X123891597Y-279931185D01*
X123891597Y-279931185D02*
X123034454Y-280788328D01*
X123034454Y-280788328D02*
X123963026Y-280788328D01*
X125320168Y-279288328D02*
X124605882Y-279288328D01*
X124605882Y-279288328D02*
X124534454Y-280002614D01*
X124534454Y-280002614D02*
X124605882Y-279931185D01*
X124605882Y-279931185D02*
X124748740Y-279859757D01*
X124748740Y-279859757D02*
X125105882Y-279859757D01*
X125105882Y-279859757D02*
X125248740Y-279931185D01*
X125248740Y-279931185D02*
X125320168Y-280002614D01*
X125320168Y-280002614D02*
X125391597Y-280145471D01*
X125391597Y-280145471D02*
X125391597Y-280502614D01*
X125391597Y-280502614D02*
X125320168Y-280645471D01*
X125320168Y-280645471D02*
X125248740Y-280716900D01*
X125248740Y-280716900D02*
X125105882Y-280788328D01*
X125105882Y-280788328D02*
X124748740Y-280788328D01*
X124748740Y-280788328D02*
X124605882Y-280716900D01*
X124605882Y-280716900D02*
X124534454Y-280645471D01*
X126034453Y-280216900D02*
X127177311Y-280216900D01*
X128177311Y-279288328D02*
X128320168Y-279288328D01*
X128320168Y-279288328D02*
X128463025Y-279359757D01*
X128463025Y-279359757D02*
X128534454Y-279431185D01*
X128534454Y-279431185D02*
X128605882Y-279574042D01*
X128605882Y-279574042D02*
X128677311Y-279859757D01*
X128677311Y-279859757D02*
X128677311Y-280216900D01*
X128677311Y-280216900D02*
X128605882Y-280502614D01*
X128605882Y-280502614D02*
X128534454Y-280645471D01*
X128534454Y-280645471D02*
X128463025Y-280716900D01*
X128463025Y-280716900D02*
X128320168Y-280788328D01*
X128320168Y-280788328D02*
X128177311Y-280788328D01*
X128177311Y-280788328D02*
X128034454Y-280716900D01*
X128034454Y-280716900D02*
X127963025Y-280645471D01*
X127963025Y-280645471D02*
X127891596Y-280502614D01*
X127891596Y-280502614D02*
X127820168Y-280216900D01*
X127820168Y-280216900D02*
X127820168Y-279859757D01*
X127820168Y-279859757D02*
X127891596Y-279574042D01*
X127891596Y-279574042D02*
X127963025Y-279431185D01*
X127963025Y-279431185D02*
X128034454Y-279359757D01*
X128034454Y-279359757D02*
X128177311Y-279288328D01*
X130034453Y-279288328D02*
X129320167Y-279288328D01*
X129320167Y-279288328D02*
X129248739Y-280002614D01*
X129248739Y-280002614D02*
X129320167Y-279931185D01*
X129320167Y-279931185D02*
X129463025Y-279859757D01*
X129463025Y-279859757D02*
X129820167Y-279859757D01*
X129820167Y-279859757D02*
X129963025Y-279931185D01*
X129963025Y-279931185D02*
X130034453Y-280002614D01*
X130034453Y-280002614D02*
X130105882Y-280145471D01*
X130105882Y-280145471D02*
X130105882Y-280502614D01*
X130105882Y-280502614D02*
X130034453Y-280645471D01*
X130034453Y-280645471D02*
X129963025Y-280716900D01*
X129963025Y-280716900D02*
X129820167Y-280788328D01*
X129820167Y-280788328D02*
X129463025Y-280788328D01*
X129463025Y-280788328D02*
X129320167Y-280716900D01*
X129320167Y-280716900D02*
X129248739Y-280645471D01*
X130748738Y-280216900D02*
X131891596Y-280216900D01*
X132891596Y-279288328D02*
X133034453Y-279288328D01*
X133034453Y-279288328D02*
X133177310Y-279359757D01*
X133177310Y-279359757D02*
X133248739Y-279431185D01*
X133248739Y-279431185D02*
X133320167Y-279574042D01*
X133320167Y-279574042D02*
X133391596Y-279859757D01*
X133391596Y-279859757D02*
X133391596Y-280216900D01*
X133391596Y-280216900D02*
X133320167Y-280502614D01*
X133320167Y-280502614D02*
X133248739Y-280645471D01*
X133248739Y-280645471D02*
X133177310Y-280716900D01*
X133177310Y-280716900D02*
X133034453Y-280788328D01*
X133034453Y-280788328D02*
X132891596Y-280788328D01*
X132891596Y-280788328D02*
X132748739Y-280716900D01*
X132748739Y-280716900D02*
X132677310Y-280645471D01*
X132677310Y-280645471D02*
X132605881Y-280502614D01*
X132605881Y-280502614D02*
X132534453Y-280216900D01*
X132534453Y-280216900D02*
X132534453Y-279859757D01*
X132534453Y-279859757D02*
X132605881Y-279574042D01*
X132605881Y-279574042D02*
X132677310Y-279431185D01*
X132677310Y-279431185D02*
X132748739Y-279359757D01*
X132748739Y-279359757D02*
X132891596Y-279288328D01*
X134105881Y-280788328D02*
X134391595Y-280788328D01*
X134391595Y-280788328D02*
X134534452Y-280716900D01*
X134534452Y-280716900D02*
X134605881Y-280645471D01*
X134605881Y-280645471D02*
X134748738Y-280431185D01*
X134748738Y-280431185D02*
X134820167Y-280145471D01*
X134820167Y-280145471D02*
X134820167Y-279574042D01*
X134820167Y-279574042D02*
X134748738Y-279431185D01*
X134748738Y-279431185D02*
X134677310Y-279359757D01*
X134677310Y-279359757D02*
X134534452Y-279288328D01*
X134534452Y-279288328D02*
X134248738Y-279288328D01*
X134248738Y-279288328D02*
X134105881Y-279359757D01*
X134105881Y-279359757D02*
X134034452Y-279431185D01*
X134034452Y-279431185D02*
X133963024Y-279574042D01*
X133963024Y-279574042D02*
X133963024Y-279931185D01*
X133963024Y-279931185D02*
X134034452Y-280074042D01*
X134034452Y-280074042D02*
X134105881Y-280145471D01*
X134105881Y-280145471D02*
X134248738Y-280216900D01*
X134248738Y-280216900D02*
X134534452Y-280216900D01*
X134534452Y-280216900D02*
X134677310Y-280145471D01*
X134677310Y-280145471D02*
X134748738Y-280074042D01*
X134748738Y-280074042D02*
X134820167Y-279931185D01*
D10*
D11*
X90007200Y-281502200D02*
X198007200Y-281502200D01*
D10*
D11*
X91463026Y-283588328D02*
X91463026Y-282088328D01*
X92320169Y-283588328D02*
X91677312Y-282731185D01*
X92320169Y-282088328D02*
X91463026Y-282945471D01*
X92963026Y-283588328D02*
X92963026Y-282588328D01*
X92963026Y-282088328D02*
X92891598Y-282159757D01*
X92891598Y-282159757D02*
X92963026Y-282231185D01*
X92963026Y-282231185D02*
X93034455Y-282159757D01*
X93034455Y-282159757D02*
X92963026Y-282088328D01*
X92963026Y-282088328D02*
X92963026Y-282231185D01*
X94534455Y-283445471D02*
X94463027Y-283516900D01*
X94463027Y-283516900D02*
X94248741Y-283588328D01*
X94248741Y-283588328D02*
X94105884Y-283588328D01*
X94105884Y-283588328D02*
X93891598Y-283516900D01*
X93891598Y-283516900D02*
X93748741Y-283374042D01*
X93748741Y-283374042D02*
X93677312Y-283231185D01*
X93677312Y-283231185D02*
X93605884Y-282945471D01*
X93605884Y-282945471D02*
X93605884Y-282731185D01*
X93605884Y-282731185D02*
X93677312Y-282445471D01*
X93677312Y-282445471D02*
X93748741Y-282302614D01*
X93748741Y-282302614D02*
X93891598Y-282159757D01*
X93891598Y-282159757D02*
X94105884Y-282088328D01*
X94105884Y-282088328D02*
X94248741Y-282088328D01*
X94248741Y-282088328D02*
X94463027Y-282159757D01*
X94463027Y-282159757D02*
X94534455Y-282231185D01*
X95820170Y-283588328D02*
X95820170Y-282802614D01*
X95820170Y-282802614D02*
X95748741Y-282659757D01*
X95748741Y-282659757D02*
X95605884Y-282588328D01*
X95605884Y-282588328D02*
X95320170Y-282588328D01*
X95320170Y-282588328D02*
X95177312Y-282659757D01*
X95820170Y-283516900D02*
X95677312Y-283588328D01*
X95677312Y-283588328D02*
X95320170Y-283588328D01*
X95320170Y-283588328D02*
X95177312Y-283516900D01*
X95177312Y-283516900D02*
X95105884Y-283374042D01*
X95105884Y-283374042D02*
X95105884Y-283231185D01*
X95105884Y-283231185D02*
X95177312Y-283088328D01*
X95177312Y-283088328D02*
X95320170Y-283016900D01*
X95320170Y-283016900D02*
X95677312Y-283016900D01*
X95677312Y-283016900D02*
X95820170Y-282945471D01*
X97177313Y-283588328D02*
X97177313Y-282088328D01*
X97177313Y-283516900D02*
X97034455Y-283588328D01*
X97034455Y-283588328D02*
X96748741Y-283588328D01*
X96748741Y-283588328D02*
X96605884Y-283516900D01*
X96605884Y-283516900D02*
X96534455Y-283445471D01*
X96534455Y-283445471D02*
X96463027Y-283302614D01*
X96463027Y-283302614D02*
X96463027Y-282874042D01*
X96463027Y-282874042D02*
X96534455Y-282731185D01*
X96534455Y-282731185D02*
X96605884Y-282659757D01*
X96605884Y-282659757D02*
X96748741Y-282588328D01*
X96748741Y-282588328D02*
X97034455Y-282588328D01*
X97034455Y-282588328D02*
X97177313Y-282659757D01*
X99034455Y-282802614D02*
X99534455Y-282802614D01*
X99748741Y-283588328D02*
X99034455Y-283588328D01*
X99034455Y-283588328D02*
X99034455Y-282088328D01*
X99034455Y-282088328D02*
X99748741Y-282088328D01*
X100391598Y-283445471D02*
X100463027Y-283516900D01*
X100463027Y-283516900D02*
X100391598Y-283588328D01*
X100391598Y-283588328D02*
X100320170Y-283516900D01*
X100320170Y-283516900D02*
X100391598Y-283445471D01*
X100391598Y-283445471D02*
X100391598Y-283588328D01*
X101105884Y-283588328D02*
X101105884Y-282088328D01*
X101105884Y-282088328D02*
X101463027Y-282088328D01*
X101463027Y-282088328D02*
X101677313Y-282159757D01*
X101677313Y-282159757D02*
X101820170Y-282302614D01*
X101820170Y-282302614D02*
X101891599Y-282445471D01*
X101891599Y-282445471D02*
X101963027Y-282731185D01*
X101963027Y-282731185D02*
X101963027Y-282945471D01*
X101963027Y-282945471D02*
X101891599Y-283231185D01*
X101891599Y-283231185D02*
X101820170Y-283374042D01*
X101820170Y-283374042D02*
X101677313Y-283516900D01*
X101677313Y-283516900D02*
X101463027Y-283588328D01*
X101463027Y-283588328D02*
X101105884Y-283588328D01*
X102605884Y-283445471D02*
X102677313Y-283516900D01*
X102677313Y-283516900D02*
X102605884Y-283588328D01*
X102605884Y-283588328D02*
X102534456Y-283516900D01*
X102534456Y-283516900D02*
X102605884Y-283445471D01*
X102605884Y-283445471D02*
X102605884Y-283588328D01*
X103248742Y-283159757D02*
X103963028Y-283159757D01*
X103105885Y-283588328D02*
X103605885Y-282088328D01*
X103605885Y-282088328D02*
X104105885Y-283588328D01*
X104605884Y-283445471D02*
X104677313Y-283516900D01*
X104677313Y-283516900D02*
X104605884Y-283588328D01*
X104605884Y-283588328D02*
X104534456Y-283516900D01*
X104534456Y-283516900D02*
X104605884Y-283445471D01*
X104605884Y-283445471D02*
X104605884Y-283588328D01*
X106534456Y-283588328D02*
X106820170Y-283588328D01*
X106820170Y-283588328D02*
X106963027Y-283516900D01*
X106963027Y-283516900D02*
X107034456Y-283445471D01*
X107034456Y-283445471D02*
X107177313Y-283231185D01*
X107177313Y-283231185D02*
X107248742Y-282945471D01*
X107248742Y-282945471D02*
X107248742Y-282374042D01*
X107248742Y-282374042D02*
X107177313Y-282231185D01*
X107177313Y-282231185D02*
X107105885Y-282159757D01*
X107105885Y-282159757D02*
X106963027Y-282088328D01*
X106963027Y-282088328D02*
X106677313Y-282088328D01*
X106677313Y-282088328D02*
X106534456Y-282159757D01*
X106534456Y-282159757D02*
X106463027Y-282231185D01*
X106463027Y-282231185D02*
X106391599Y-282374042D01*
X106391599Y-282374042D02*
X106391599Y-282731185D01*
X106391599Y-282731185D02*
X106463027Y-282874042D01*
X106463027Y-282874042D02*
X106534456Y-282945471D01*
X106534456Y-282945471D02*
X106677313Y-283016900D01*
X106677313Y-283016900D02*
X106963027Y-283016900D01*
X106963027Y-283016900D02*
X107105885Y-282945471D01*
X107105885Y-282945471D02*
X107177313Y-282874042D01*
X107177313Y-282874042D02*
X107248742Y-282731185D01*
X107891598Y-283445471D02*
X107963027Y-283516900D01*
X107963027Y-283516900D02*
X107891598Y-283588328D01*
X107891598Y-283588328D02*
X107820170Y-283516900D01*
X107820170Y-283516900D02*
X107891598Y-283445471D01*
X107891598Y-283445471D02*
X107891598Y-283588328D01*
X108891599Y-282088328D02*
X109034456Y-282088328D01*
X109034456Y-282088328D02*
X109177313Y-282159757D01*
X109177313Y-282159757D02*
X109248742Y-282231185D01*
X109248742Y-282231185D02*
X109320170Y-282374042D01*
X109320170Y-282374042D02*
X109391599Y-282659757D01*
X109391599Y-282659757D02*
X109391599Y-283016900D01*
X109391599Y-283016900D02*
X109320170Y-283302614D01*
X109320170Y-283302614D02*
X109248742Y-283445471D01*
X109248742Y-283445471D02*
X109177313Y-283516900D01*
X109177313Y-283516900D02*
X109034456Y-283588328D01*
X109034456Y-283588328D02*
X108891599Y-283588328D01*
X108891599Y-283588328D02*
X108748742Y-283516900D01*
X108748742Y-283516900D02*
X108677313Y-283445471D01*
X108677313Y-283445471D02*
X108605884Y-283302614D01*
X108605884Y-283302614D02*
X108534456Y-283016900D01*
X108534456Y-283016900D02*
X108534456Y-282659757D01*
X108534456Y-282659757D02*
X108605884Y-282374042D01*
X108605884Y-282374042D02*
X108677313Y-282231185D01*
X108677313Y-282231185D02*
X108748742Y-282159757D01*
X108748742Y-282159757D02*
X108891599Y-282088328D01*
X110034455Y-283445471D02*
X110105884Y-283516900D01*
X110105884Y-283516900D02*
X110034455Y-283588328D01*
X110034455Y-283588328D02*
X109963027Y-283516900D01*
X109963027Y-283516900D02*
X110034455Y-283445471D01*
X110034455Y-283445471D02*
X110034455Y-283588328D01*
X111534456Y-283588328D02*
X110677313Y-283588328D01*
X111105884Y-283588328D02*
X111105884Y-282088328D01*
X111105884Y-282088328D02*
X110963027Y-282302614D01*
X110963027Y-282302614D02*
X110820170Y-282445471D01*
X110820170Y-282445471D02*
X110677313Y-282516900D01*
D10*
D11*
X90007200Y-278502200D02*
X198007200Y-278502200D01*
D10*
D12*
X177418853Y-280780528D02*
X176918853Y-280066242D01*
X176561710Y-280780528D02*
X176561710Y-279280528D01*
X176561710Y-279280528D02*
X177133139Y-279280528D01*
X177133139Y-279280528D02*
X177275996Y-279351957D01*
X177275996Y-279351957D02*
X177347425Y-279423385D01*
X177347425Y-279423385D02*
X177418853Y-279566242D01*
X177418853Y-279566242D02*
X177418853Y-279780528D01*
X177418853Y-279780528D02*
X177347425Y-279923385D01*
X177347425Y-279923385D02*
X177275996Y-279994814D01*
X177275996Y-279994814D02*
X177133139Y-280066242D01*
X177133139Y-280066242D02*
X176561710Y-280066242D01*
X178633139Y-280709100D02*
X178490282Y-280780528D01*
X178490282Y-280780528D02*
X178204568Y-280780528D01*
X178204568Y-280780528D02*
X178061710Y-280709100D01*
X178061710Y-280709100D02*
X177990282Y-280566242D01*
X177990282Y-280566242D02*
X177990282Y-279994814D01*
X177990282Y-279994814D02*
X178061710Y-279851957D01*
X178061710Y-279851957D02*
X178204568Y-279780528D01*
X178204568Y-279780528D02*
X178490282Y-279780528D01*
X178490282Y-279780528D02*
X178633139Y-279851957D01*
X178633139Y-279851957D02*
X178704568Y-279994814D01*
X178704568Y-279994814D02*
X178704568Y-280137671D01*
X178704568Y-280137671D02*
X177990282Y-280280528D01*
X179204567Y-279780528D02*
X179561710Y-280780528D01*
X179561710Y-280780528D02*
X179918853Y-279780528D01*
X180490281Y-280637671D02*
X180561710Y-280709100D01*
X180561710Y-280709100D02*
X180490281Y-280780528D01*
X180490281Y-280780528D02*
X180418853Y-280709100D01*
X180418853Y-280709100D02*
X180490281Y-280637671D01*
X180490281Y-280637671D02*
X180490281Y-280780528D01*
X180490281Y-279851957D02*
X180561710Y-279923385D01*
X180561710Y-279923385D02*
X180490281Y-279994814D01*
X180490281Y-279994814D02*
X180418853Y-279923385D01*
X180418853Y-279923385D02*
X180490281Y-279851957D01*
X180490281Y-279851957D02*
X180490281Y-279994814D01*
X183133139Y-280780528D02*
X182275996Y-280780528D01*
X182704567Y-280780528D02*
X182704567Y-279280528D01*
X182704567Y-279280528D02*
X182561710Y-279494814D01*
X182561710Y-279494814D02*
X182418853Y-279637671D01*
X182418853Y-279637671D02*
X182275996Y-279709100D01*
D10*
D11*
X91391598Y-280716900D02*
X91605884Y-280788328D01*
X91605884Y-280788328D02*
X91963026Y-280788328D01*
X91963026Y-280788328D02*
X92105884Y-280716900D01*
X92105884Y-280716900D02*
X92177312Y-280645471D01*
X92177312Y-280645471D02*
X92248741Y-280502614D01*
X92248741Y-280502614D02*
X92248741Y-280359757D01*
X92248741Y-280359757D02*
X92177312Y-280216900D01*
X92177312Y-280216900D02*
X92105884Y-280145471D01*
X92105884Y-280145471D02*
X91963026Y-280074042D01*
X91963026Y-280074042D02*
X91677312Y-280002614D01*
X91677312Y-280002614D02*
X91534455Y-279931185D01*
X91534455Y-279931185D02*
X91463026Y-279859757D01*
X91463026Y-279859757D02*
X91391598Y-279716900D01*
X91391598Y-279716900D02*
X91391598Y-279574042D01*
X91391598Y-279574042D02*
X91463026Y-279431185D01*
X91463026Y-279431185D02*
X91534455Y-279359757D01*
X91534455Y-279359757D02*
X91677312Y-279288328D01*
X91677312Y-279288328D02*
X92034455Y-279288328D01*
X92034455Y-279288328D02*
X92248741Y-279359757D01*
X92891597Y-280788328D02*
X92891597Y-279788328D01*
X92891597Y-279288328D02*
X92820169Y-279359757D01*
X92820169Y-279359757D02*
X92891597Y-279431185D01*
X92891597Y-279431185D02*
X92963026Y-279359757D01*
X92963026Y-279359757D02*
X92891597Y-279288328D01*
X92891597Y-279288328D02*
X92891597Y-279431185D01*
X93463026Y-279788328D02*
X94248741Y-279788328D01*
X94248741Y-279788328D02*
X93463026Y-280788328D01*
X93463026Y-280788328D02*
X94248741Y-280788328D01*
X95391598Y-280716900D02*
X95248741Y-280788328D01*
X95248741Y-280788328D02*
X94963027Y-280788328D01*
X94963027Y-280788328D02*
X94820169Y-280716900D01*
X94820169Y-280716900D02*
X94748741Y-280574042D01*
X94748741Y-280574042D02*
X94748741Y-280002614D01*
X94748741Y-280002614D02*
X94820169Y-279859757D01*
X94820169Y-279859757D02*
X94963027Y-279788328D01*
X94963027Y-279788328D02*
X95248741Y-279788328D01*
X95248741Y-279788328D02*
X95391598Y-279859757D01*
X95391598Y-279859757D02*
X95463027Y-280002614D01*
X95463027Y-280002614D02*
X95463027Y-280145471D01*
X95463027Y-280145471D02*
X94748741Y-280288328D01*
X96105883Y-280645471D02*
X96177312Y-280716900D01*
X96177312Y-280716900D02*
X96105883Y-280788328D01*
X96105883Y-280788328D02*
X96034455Y-280716900D01*
X96034455Y-280716900D02*
X96105883Y-280645471D01*
X96105883Y-280645471D02*
X96105883Y-280788328D01*
X96105883Y-279859757D02*
X96177312Y-279931185D01*
X96177312Y-279931185D02*
X96105883Y-280002614D01*
X96105883Y-280002614D02*
X96034455Y-279931185D01*
X96034455Y-279931185D02*
X96105883Y-279859757D01*
X96105883Y-279859757D02*
X96105883Y-280002614D01*
X97891598Y-280359757D02*
X98605884Y-280359757D01*
X97748741Y-280788328D02*
X98248741Y-279288328D01*
X98248741Y-279288328D02*
X98748741Y-280788328D01*
X99891598Y-279788328D02*
X99891598Y-280788328D01*
X99534455Y-279216900D02*
X99177312Y-280288328D01*
X99177312Y-280288328D02*
X100105883Y-280288328D01*
D10*
D11*
X176463026Y-283588328D02*
X176463026Y-282088328D01*
X177820170Y-283588328D02*
X177820170Y-282088328D01*
X177820170Y-283516900D02*
X177677312Y-283588328D01*
X177677312Y-283588328D02*
X177391598Y-283588328D01*
X177391598Y-283588328D02*
X177248741Y-283516900D01*
X177248741Y-283516900D02*
X177177312Y-283445471D01*
X177177312Y-283445471D02*
X177105884Y-283302614D01*
X177105884Y-283302614D02*
X177105884Y-282874042D01*
X177105884Y-282874042D02*
X177177312Y-282731185D01*
X177177312Y-282731185D02*
X177248741Y-282659757D01*
X177248741Y-282659757D02*
X177391598Y-282588328D01*
X177391598Y-282588328D02*
X177677312Y-282588328D01*
X177677312Y-282588328D02*
X177820170Y-282659757D01*
X178534455Y-283445471D02*
X178605884Y-283516900D01*
X178605884Y-283516900D02*
X178534455Y-283588328D01*
X178534455Y-283588328D02*
X178463027Y-283516900D01*
X178463027Y-283516900D02*
X178534455Y-283445471D01*
X178534455Y-283445471D02*
X178534455Y-283588328D01*
X178534455Y-282659757D02*
X178605884Y-282731185D01*
X178605884Y-282731185D02*
X178534455Y-282802614D01*
X178534455Y-282802614D02*
X178463027Y-282731185D01*
X178463027Y-282731185D02*
X178534455Y-282659757D01*
X178534455Y-282659757D02*
X178534455Y-282802614D01*
X181177313Y-283588328D02*
X180320170Y-283588328D01*
X180748741Y-283588328D02*
X180748741Y-282088328D01*
X180748741Y-282088328D02*
X180605884Y-282302614D01*
X180605884Y-282302614D02*
X180463027Y-282445471D01*
X180463027Y-282445471D02*
X180320170Y-282516900D01*
X182891598Y-282016900D02*
X181605884Y-283945471D01*
X183463027Y-283588328D02*
X183748741Y-283588328D01*
X183748741Y-283588328D02*
X183891598Y-283516900D01*
X183891598Y-283516900D02*
X183963027Y-283445471D01*
X183963027Y-283445471D02*
X184105884Y-283231185D01*
X184105884Y-283231185D02*
X184177313Y-282945471D01*
X184177313Y-282945471D02*
X184177313Y-282374042D01*
X184177313Y-282374042D02*
X184105884Y-282231185D01*
X184105884Y-282231185D02*
X184034456Y-282159757D01*
X184034456Y-282159757D02*
X183891598Y-282088328D01*
X183891598Y-282088328D02*
X183605884Y-282088328D01*
X183605884Y-282088328D02*
X183463027Y-282159757D01*
X183463027Y-282159757D02*
X183391598Y-282231185D01*
X183391598Y-282231185D02*
X183320170Y-282374042D01*
X183320170Y-282374042D02*
X183320170Y-282731185D01*
X183320170Y-282731185D02*
X183391598Y-282874042D01*
X183391598Y-282874042D02*
X183463027Y-282945471D01*
X183463027Y-282945471D02*
X183605884Y-283016900D01*
X183605884Y-283016900D02*
X183891598Y-283016900D01*
X183891598Y-283016900D02*
X184034456Y-282945471D01*
X184034456Y-282945471D02*
X184105884Y-282874042D01*
X184105884Y-282874042D02*
X184177313Y-282731185D01*
D10*
D11*
X90007200Y-274502200D02*
X198007200Y-274502200D01*
D10*
D13*
X91698928Y-275206638D02*
X92841785Y-275206638D01*
X92020357Y-277206638D02*
X92270357Y-275206638D01*
X93258452Y-277206638D02*
X93425119Y-275873304D01*
X93508452Y-275206638D02*
X93401309Y-275301876D01*
X93401309Y-275301876D02*
X93484643Y-275397114D01*
X93484643Y-275397114D02*
X93591786Y-275301876D01*
X93591786Y-275301876D02*
X93508452Y-275206638D01*
X93508452Y-275206638D02*
X93484643Y-275397114D01*
X94091786Y-275873304D02*
X94853690Y-275873304D01*
X94460833Y-275206638D02*
X94246548Y-276920923D01*
X94246548Y-276920923D02*
X94317976Y-277111400D01*
X94317976Y-277111400D02*
X94496548Y-277206638D01*
X94496548Y-277206638D02*
X94687024Y-277206638D01*
X95639405Y-277206638D02*
X95460833Y-277111400D01*
X95460833Y-277111400D02*
X95389405Y-276920923D01*
X95389405Y-276920923D02*
X95603690Y-275206638D01*
X97175119Y-277111400D02*
X96972738Y-277206638D01*
X96972738Y-277206638D02*
X96591785Y-277206638D01*
X96591785Y-277206638D02*
X96413214Y-277111400D01*
X96413214Y-277111400D02*
X96341785Y-276920923D01*
X96341785Y-276920923D02*
X96437024Y-276159019D01*
X96437024Y-276159019D02*
X96556071Y-275968542D01*
X96556071Y-275968542D02*
X96758452Y-275873304D01*
X96758452Y-275873304D02*
X97139404Y-275873304D01*
X97139404Y-275873304D02*
X97317976Y-275968542D01*
X97317976Y-275968542D02*
X97389404Y-276159019D01*
X97389404Y-276159019D02*
X97365595Y-276349495D01*
X97365595Y-276349495D02*
X96389404Y-276539971D01*
X98139405Y-277016161D02*
X98222738Y-277111400D01*
X98222738Y-277111400D02*
X98115595Y-277206638D01*
X98115595Y-277206638D02*
X98032262Y-277111400D01*
X98032262Y-277111400D02*
X98139405Y-277016161D01*
X98139405Y-277016161D02*
X98115595Y-277206638D01*
X98270357Y-275968542D02*
X98353690Y-276063780D01*
X98353690Y-276063780D02*
X98246548Y-276159019D01*
X98246548Y-276159019D02*
X98163214Y-276063780D01*
X98163214Y-276063780D02*
X98270357Y-275968542D01*
X98270357Y-275968542D02*
X98246548Y-276159019D01*
X102056072Y-277682828D02*
X102115596Y-277206638D01*
X102115596Y-277206638D02*
X100401310Y-277206638D01*
X100401310Y-277206638D02*
X100341786Y-277682828D01*
X101734643Y-277206638D02*
X101984643Y-275206638D01*
X101984643Y-275206638D02*
X101508453Y-275206638D01*
X101508453Y-275206638D02*
X101306072Y-275301876D01*
X101306072Y-275301876D02*
X101198929Y-275397114D01*
X101198929Y-275397114D02*
X101079881Y-275587590D01*
X101079881Y-275587590D02*
X100687024Y-277206638D01*
X103734643Y-277206638D02*
X103865595Y-276159019D01*
X103865595Y-276159019D02*
X103794167Y-275968542D01*
X103794167Y-275968542D02*
X103615595Y-275873304D01*
X103615595Y-275873304D02*
X103234643Y-275873304D01*
X103234643Y-275873304D02*
X103032262Y-275968542D01*
X103746548Y-277111400D02*
X103544167Y-277206638D01*
X103544167Y-277206638D02*
X103067976Y-277206638D01*
X103067976Y-277206638D02*
X102889405Y-277111400D01*
X102889405Y-277111400D02*
X102817976Y-276920923D01*
X102817976Y-276920923D02*
X102841786Y-276730447D01*
X102841786Y-276730447D02*
X102960834Y-276539971D01*
X102960834Y-276539971D02*
X103163215Y-276444733D01*
X103163215Y-276444733D02*
X103639405Y-276444733D01*
X103639405Y-276444733D02*
X103841786Y-276349495D01*
X104567977Y-275873304D02*
X105520358Y-275873304D01*
X105044167Y-275873304D02*
X104877500Y-277206638D01*
X106853691Y-275873304D02*
X106687024Y-277206638D01*
X106091786Y-275873304D02*
X106032262Y-276349495D01*
X106032262Y-276349495D02*
X106103691Y-276539971D01*
X106103691Y-276539971D02*
X106282262Y-276635209D01*
X106282262Y-276635209D02*
X106758452Y-276635209D01*
X107901310Y-275873304D02*
X107734643Y-277206638D01*
X107734643Y-277206638D02*
X108853691Y-275873304D01*
X108853691Y-275873304D02*
X108687024Y-277206638D01*
X109806072Y-275873304D02*
X109639405Y-277206638D01*
X109925120Y-276444733D02*
X110401310Y-277206638D01*
X110567977Y-275873304D02*
X109710834Y-276635209D01*
X113877501Y-276063780D02*
X113794168Y-275968542D01*
X113794168Y-275968542D02*
X113615597Y-275873304D01*
X113615597Y-275873304D02*
X113234644Y-275873304D01*
X113234644Y-275873304D02*
X113032263Y-275968542D01*
X113032263Y-275968542D02*
X112925120Y-276063780D01*
X112925120Y-276063780D02*
X112806073Y-276254257D01*
X112806073Y-276254257D02*
X112734644Y-276825685D01*
X112734644Y-276825685D02*
X112806073Y-277016161D01*
X112806073Y-277016161D02*
X112889406Y-277111400D01*
X112889406Y-277111400D02*
X113067978Y-277206638D01*
X113067978Y-277206638D02*
X113353692Y-277206638D01*
X113353692Y-277206638D02*
X113556073Y-277111400D01*
X113556073Y-277111400D02*
X113663216Y-277016161D01*
X113663216Y-277016161D02*
X113782263Y-276825685D01*
X113782263Y-276825685D02*
X113937025Y-275587590D01*
X113937025Y-275587590D02*
X113865597Y-275397114D01*
X113865597Y-275397114D02*
X113782263Y-275301876D01*
X113782263Y-275301876D02*
X113603692Y-275206638D01*
X113603692Y-275206638D02*
X113222739Y-275206638D01*
X113222739Y-275206638D02*
X113020358Y-275301876D01*
X116091787Y-275873304D02*
X115925121Y-277206638D01*
X114758454Y-275873304D02*
X114591787Y-277206638D01*
X114591787Y-277206638D02*
X115067978Y-277206638D01*
X115067978Y-277206638D02*
X115270359Y-277111400D01*
X115270359Y-277111400D02*
X115389406Y-276920923D01*
X115389406Y-276920923D02*
X115425121Y-276635209D01*
X115425121Y-276635209D02*
X115353692Y-276444733D01*
X115353692Y-276444733D02*
X115175121Y-276349495D01*
X115175121Y-276349495D02*
X114698930Y-276349495D01*
X116877501Y-277206638D02*
X117044168Y-275873304D01*
X117044168Y-275873304D02*
X117484644Y-276920923D01*
X117484644Y-276920923D02*
X118187025Y-275873304D01*
X118187025Y-275873304D02*
X118020358Y-277206638D01*
X119829882Y-277206638D02*
X119960834Y-276159019D01*
X119960834Y-276159019D02*
X119889406Y-275968542D01*
X119889406Y-275968542D02*
X119710834Y-275873304D01*
X119710834Y-275873304D02*
X119329882Y-275873304D01*
X119329882Y-275873304D02*
X119127501Y-275968542D01*
X119841787Y-277111400D02*
X119639406Y-277206638D01*
X119639406Y-277206638D02*
X119163215Y-277206638D01*
X119163215Y-277206638D02*
X118984644Y-277111400D01*
X118984644Y-277111400D02*
X118913215Y-276920923D01*
X118913215Y-276920923D02*
X118937025Y-276730447D01*
X118937025Y-276730447D02*
X119056073Y-276539971D01*
X119056073Y-276539971D02*
X119258454Y-276444733D01*
X119258454Y-276444733D02*
X119734644Y-276444733D01*
X119734644Y-276444733D02*
X119937025Y-276349495D01*
D10*
D11*
X91963026Y-272602614D02*
X91463026Y-272602614D01*
X91463026Y-273388328D02*
X91463026Y-271888328D01*
X91463026Y-271888328D02*
X92177312Y-271888328D01*
X92748740Y-273388328D02*
X92748740Y-272388328D01*
X92748740Y-271888328D02*
X92677312Y-271959757D01*
X92677312Y-271959757D02*
X92748740Y-272031185D01*
X92748740Y-272031185D02*
X92820169Y-271959757D01*
X92820169Y-271959757D02*
X92748740Y-271888328D01*
X92748740Y-271888328D02*
X92748740Y-272031185D01*
X93677312Y-273388328D02*
X93534455Y-273316900D01*
X93534455Y-273316900D02*
X93463026Y-273174042D01*
X93463026Y-273174042D02*
X93463026Y-271888328D01*
X94820169Y-273316900D02*
X94677312Y-273388328D01*
X94677312Y-273388328D02*
X94391598Y-273388328D01*
X94391598Y-273388328D02*
X94248740Y-273316900D01*
X94248740Y-273316900D02*
X94177312Y-273174042D01*
X94177312Y-273174042D02*
X94177312Y-272602614D01*
X94177312Y-272602614D02*
X94248740Y-272459757D01*
X94248740Y-272459757D02*
X94391598Y-272388328D01*
X94391598Y-272388328D02*
X94677312Y-272388328D01*
X94677312Y-272388328D02*
X94820169Y-272459757D01*
X94820169Y-272459757D02*
X94891598Y-272602614D01*
X94891598Y-272602614D02*
X94891598Y-272745471D01*
X94891598Y-272745471D02*
X94177312Y-272888328D01*
X95534454Y-273245471D02*
X95605883Y-273316900D01*
X95605883Y-273316900D02*
X95534454Y-273388328D01*
X95534454Y-273388328D02*
X95463026Y-273316900D01*
X95463026Y-273316900D02*
X95534454Y-273245471D01*
X95534454Y-273245471D02*
X95534454Y-273388328D01*
X95534454Y-272459757D02*
X95605883Y-272531185D01*
X95605883Y-272531185D02*
X95534454Y-272602614D01*
X95534454Y-272602614D02*
X95463026Y-272531185D01*
X95463026Y-272531185D02*
X95534454Y-272459757D01*
X95534454Y-272459757D02*
X95534454Y-272602614D01*
X97891597Y-272602614D02*
X97391597Y-272602614D01*
X97391597Y-273388328D02*
X97391597Y-271888328D01*
X97391597Y-271888328D02*
X98105883Y-271888328D01*
X98891597Y-273388328D02*
X98748740Y-273316900D01*
X98748740Y-273316900D02*
X98677311Y-273174042D01*
X98677311Y-273174042D02*
X98677311Y-271888328D01*
X100105883Y-273388328D02*
X100105883Y-272602614D01*
X100105883Y-272602614D02*
X100034454Y-272459757D01*
X100034454Y-272459757D02*
X99891597Y-272388328D01*
X99891597Y-272388328D02*
X99605883Y-272388328D01*
X99605883Y-272388328D02*
X99463025Y-272459757D01*
X100105883Y-273316900D02*
X99963025Y-273388328D01*
X99963025Y-273388328D02*
X99605883Y-273388328D01*
X99605883Y-273388328D02*
X99463025Y-273316900D01*
X99463025Y-273316900D02*
X99391597Y-273174042D01*
X99391597Y-273174042D02*
X99391597Y-273031185D01*
X99391597Y-273031185D02*
X99463025Y-272888328D01*
X99463025Y-272888328D02*
X99605883Y-272816900D01*
X99605883Y-272816900D02*
X99963025Y-272816900D01*
X99963025Y-272816900D02*
X100105883Y-272745471D01*
X100820168Y-273388328D02*
X100820168Y-272388328D01*
X100820168Y-272531185D02*
X100891597Y-272459757D01*
X100891597Y-272459757D02*
X101034454Y-272388328D01*
X101034454Y-272388328D02*
X101248740Y-272388328D01*
X101248740Y-272388328D02*
X101391597Y-272459757D01*
X101391597Y-272459757D02*
X101463026Y-272602614D01*
X101463026Y-272602614D02*
X101463026Y-273388328D01*
X101463026Y-272602614D02*
X101534454Y-272459757D01*
X101534454Y-272459757D02*
X101677311Y-272388328D01*
X101677311Y-272388328D02*
X101891597Y-272388328D01*
X101891597Y-272388328D02*
X102034454Y-272459757D01*
X102034454Y-272459757D02*
X102105883Y-272602614D01*
X102105883Y-272602614D02*
X102105883Y-273388328D01*
X103391597Y-273316900D02*
X103248740Y-273388328D01*
X103248740Y-273388328D02*
X102963026Y-273388328D01*
X102963026Y-273388328D02*
X102820168Y-273316900D01*
X102820168Y-273316900D02*
X102748740Y-273174042D01*
X102748740Y-273174042D02*
X102748740Y-272602614D01*
X102748740Y-272602614D02*
X102820168Y-272459757D01*
X102820168Y-272459757D02*
X102963026Y-272388328D01*
X102963026Y-272388328D02*
X103248740Y-272388328D01*
X103248740Y-272388328D02*
X103391597Y-272459757D01*
X103391597Y-272459757D02*
X103463026Y-272602614D01*
X103463026Y-272602614D02*
X103463026Y-272745471D01*
X103463026Y-272745471D02*
X102748740Y-272888328D01*
X104034454Y-273316900D02*
X104248740Y-273388328D01*
X104248740Y-273388328D02*
X104605882Y-273388328D01*
X104605882Y-273388328D02*
X104748740Y-273316900D01*
X104748740Y-273316900D02*
X104820168Y-273245471D01*
X104820168Y-273245471D02*
X104891597Y-273102614D01*
X104891597Y-273102614D02*
X104891597Y-272959757D01*
X104891597Y-272959757D02*
X104820168Y-272816900D01*
X104820168Y-272816900D02*
X104748740Y-272745471D01*
X104748740Y-272745471D02*
X104605882Y-272674042D01*
X104605882Y-272674042D02*
X104320168Y-272602614D01*
X104320168Y-272602614D02*
X104177311Y-272531185D01*
X104177311Y-272531185D02*
X104105882Y-272459757D01*
X104105882Y-272459757D02*
X104034454Y-272316900D01*
X104034454Y-272316900D02*
X104034454Y-272174042D01*
X104034454Y-272174042D02*
X104105882Y-272031185D01*
X104105882Y-272031185D02*
X104177311Y-271959757D01*
X104177311Y-271959757D02*
X104320168Y-271888328D01*
X104320168Y-271888328D02*
X104677311Y-271888328D01*
X104677311Y-271888328D02*
X104891597Y-271959757D01*
X106105882Y-273316900D02*
X105963025Y-273388328D01*
X105963025Y-273388328D02*
X105677311Y-273388328D01*
X105677311Y-273388328D02*
X105534453Y-273316900D01*
X105534453Y-273316900D02*
X105463025Y-273174042D01*
X105463025Y-273174042D02*
X105463025Y-272602614D01*
X105463025Y-272602614D02*
X105534453Y-272459757D01*
X105534453Y-272459757D02*
X105677311Y-272388328D01*
X105677311Y-272388328D02*
X105963025Y-272388328D01*
X105963025Y-272388328D02*
X106105882Y-272459757D01*
X106105882Y-272459757D02*
X106177311Y-272602614D01*
X106177311Y-272602614D02*
X106177311Y-272745471D01*
X106177311Y-272745471D02*
X105463025Y-272888328D01*
X106820167Y-272388328D02*
X106820167Y-273388328D01*
X106820167Y-272531185D02*
X106891596Y-272459757D01*
X106891596Y-272459757D02*
X107034453Y-272388328D01*
X107034453Y-272388328D02*
X107248739Y-272388328D01*
X107248739Y-272388328D02*
X107391596Y-272459757D01*
X107391596Y-272459757D02*
X107463025Y-272602614D01*
X107463025Y-272602614D02*
X107463025Y-273388328D01*
X108105882Y-273316900D02*
X108248739Y-273388328D01*
X108248739Y-273388328D02*
X108534453Y-273388328D01*
X108534453Y-273388328D02*
X108677310Y-273316900D01*
X108677310Y-273316900D02*
X108748739Y-273174042D01*
X108748739Y-273174042D02*
X108748739Y-273102614D01*
X108748739Y-273102614D02*
X108677310Y-272959757D01*
X108677310Y-272959757D02*
X108534453Y-272888328D01*
X108534453Y-272888328D02*
X108320168Y-272888328D01*
X108320168Y-272888328D02*
X108177310Y-272816900D01*
X108177310Y-272816900D02*
X108105882Y-272674042D01*
X108105882Y-272674042D02*
X108105882Y-272602614D01*
X108105882Y-272602614D02*
X108177310Y-272459757D01*
X108177310Y-272459757D02*
X108320168Y-272388328D01*
X108320168Y-272388328D02*
X108534453Y-272388328D01*
X108534453Y-272388328D02*
X108677310Y-272459757D01*
X109605882Y-273388328D02*
X109463025Y-273316900D01*
X109463025Y-273316900D02*
X109391596Y-273245471D01*
X109391596Y-273245471D02*
X109320168Y-273102614D01*
X109320168Y-273102614D02*
X109320168Y-272674042D01*
X109320168Y-272674042D02*
X109391596Y-272531185D01*
X109391596Y-272531185D02*
X109463025Y-272459757D01*
X109463025Y-272459757D02*
X109605882Y-272388328D01*
X109605882Y-272388328D02*
X109820168Y-272388328D01*
X109820168Y-272388328D02*
X109963025Y-272459757D01*
X109963025Y-272459757D02*
X110034454Y-272531185D01*
X110034454Y-272531185D02*
X110105882Y-272674042D01*
X110105882Y-272674042D02*
X110105882Y-273102614D01*
X110105882Y-273102614D02*
X110034454Y-273245471D01*
X110034454Y-273245471D02*
X109963025Y-273316900D01*
X109963025Y-273316900D02*
X109820168Y-273388328D01*
X109820168Y-273388328D02*
X109605882Y-273388328D01*
X110748739Y-273388328D02*
X110748739Y-272388328D01*
X110748739Y-272674042D02*
X110820168Y-272531185D01*
X110820168Y-272531185D02*
X110891597Y-272459757D01*
X110891597Y-272459757D02*
X111034454Y-272388328D01*
X111034454Y-272388328D02*
X111177311Y-272388328D01*
X111605882Y-273316900D02*
X111820168Y-273388328D01*
X111820168Y-273388328D02*
X112177310Y-273388328D01*
X112177310Y-273388328D02*
X112320168Y-273316900D01*
X112320168Y-273316900D02*
X112391596Y-273245471D01*
X112391596Y-273245471D02*
X112463025Y-273102614D01*
X112463025Y-273102614D02*
X112463025Y-272959757D01*
X112463025Y-272959757D02*
X112391596Y-272816900D01*
X112391596Y-272816900D02*
X112320168Y-272745471D01*
X112320168Y-272745471D02*
X112177310Y-272674042D01*
X112177310Y-272674042D02*
X111891596Y-272602614D01*
X111891596Y-272602614D02*
X111748739Y-272531185D01*
X111748739Y-272531185D02*
X111677310Y-272459757D01*
X111677310Y-272459757D02*
X111605882Y-272316900D01*
X111605882Y-272316900D02*
X111605882Y-272174042D01*
X111605882Y-272174042D02*
X111677310Y-272031185D01*
X111677310Y-272031185D02*
X111748739Y-271959757D01*
X111748739Y-271959757D02*
X111891596Y-271888328D01*
X111891596Y-271888328D02*
X112248739Y-271888328D01*
X112248739Y-271888328D02*
X112463025Y-271959757D01*
X113677310Y-273316900D02*
X113534453Y-273388328D01*
X113534453Y-273388328D02*
X113248739Y-273388328D01*
X113248739Y-273388328D02*
X113105881Y-273316900D01*
X113105881Y-273316900D02*
X113034453Y-273174042D01*
X113034453Y-273174042D02*
X113034453Y-272602614D01*
X113034453Y-272602614D02*
X113105881Y-272459757D01*
X113105881Y-272459757D02*
X113248739Y-272388328D01*
X113248739Y-272388328D02*
X113534453Y-272388328D01*
X113534453Y-272388328D02*
X113677310Y-272459757D01*
X113677310Y-272459757D02*
X113748739Y-272602614D01*
X113748739Y-272602614D02*
X113748739Y-272745471D01*
X113748739Y-272745471D02*
X113034453Y-272888328D01*
X114391595Y-272388328D02*
X114391595Y-273388328D01*
X114391595Y-272531185D02*
X114463024Y-272459757D01*
X114463024Y-272459757D02*
X114605881Y-272388328D01*
X114605881Y-272388328D02*
X114820167Y-272388328D01*
X114820167Y-272388328D02*
X114963024Y-272459757D01*
X114963024Y-272459757D02*
X115034453Y-272602614D01*
X115034453Y-272602614D02*
X115034453Y-273388328D01*
X116391596Y-273388328D02*
X116391596Y-271888328D01*
X116391596Y-273316900D02*
X116248738Y-273388328D01*
X116248738Y-273388328D02*
X115963024Y-273388328D01*
X115963024Y-273388328D02*
X115820167Y-273316900D01*
X115820167Y-273316900D02*
X115748738Y-273245471D01*
X115748738Y-273245471D02*
X115677310Y-273102614D01*
X115677310Y-273102614D02*
X115677310Y-272674042D01*
X115677310Y-272674042D02*
X115748738Y-272531185D01*
X115748738Y-272531185D02*
X115820167Y-272459757D01*
X115820167Y-272459757D02*
X115963024Y-272388328D01*
X115963024Y-272388328D02*
X116248738Y-272388328D01*
X116248738Y-272388328D02*
X116391596Y-272459757D01*
X117677310Y-273316900D02*
X117534453Y-273388328D01*
X117534453Y-273388328D02*
X117248739Y-273388328D01*
X117248739Y-273388328D02*
X117105881Y-273316900D01*
X117105881Y-273316900D02*
X117034453Y-273174042D01*
X117034453Y-273174042D02*
X117034453Y-272602614D01*
X117034453Y-272602614D02*
X117105881Y-272459757D01*
X117105881Y-272459757D02*
X117248739Y-272388328D01*
X117248739Y-272388328D02*
X117534453Y-272388328D01*
X117534453Y-272388328D02*
X117677310Y-272459757D01*
X117677310Y-272459757D02*
X117748739Y-272602614D01*
X117748739Y-272602614D02*
X117748739Y-272745471D01*
X117748739Y-272745471D02*
X117034453Y-272888328D01*
X118391595Y-273388328D02*
X118391595Y-272388328D01*
X118391595Y-272674042D02*
X118463024Y-272531185D01*
X118463024Y-272531185D02*
X118534453Y-272459757D01*
X118534453Y-272459757D02*
X118677310Y-272388328D01*
X118677310Y-272388328D02*
X118820167Y-272388328D01*
X119320166Y-273245471D02*
X119391595Y-273316900D01*
X119391595Y-273316900D02*
X119320166Y-273388328D01*
X119320166Y-273388328D02*
X119248738Y-273316900D01*
X119248738Y-273316900D02*
X119320166Y-273245471D01*
X119320166Y-273245471D02*
X119320166Y-273388328D01*
X120034452Y-273388328D02*
X120034452Y-271888328D01*
X120177310Y-272816900D02*
X120605881Y-273388328D01*
X120605881Y-272388328D02*
X120034452Y-272959757D01*
X121248738Y-273388328D02*
X121248738Y-272388328D01*
X121248738Y-271888328D02*
X121177310Y-271959757D01*
X121177310Y-271959757D02*
X121248738Y-272031185D01*
X121248738Y-272031185D02*
X121320167Y-271959757D01*
X121320167Y-271959757D02*
X121248738Y-271888328D01*
X121248738Y-271888328D02*
X121248738Y-272031185D01*
X122605882Y-273316900D02*
X122463024Y-273388328D01*
X122463024Y-273388328D02*
X122177310Y-273388328D01*
X122177310Y-273388328D02*
X122034453Y-273316900D01*
X122034453Y-273316900D02*
X121963024Y-273245471D01*
X121963024Y-273245471D02*
X121891596Y-273102614D01*
X121891596Y-273102614D02*
X121891596Y-272674042D01*
X121891596Y-272674042D02*
X121963024Y-272531185D01*
X121963024Y-272531185D02*
X122034453Y-272459757D01*
X122034453Y-272459757D02*
X122177310Y-272388328D01*
X122177310Y-272388328D02*
X122463024Y-272388328D01*
X122463024Y-272388328D02*
X122605882Y-272459757D01*
X123891596Y-273388328D02*
X123891596Y-272602614D01*
X123891596Y-272602614D02*
X123820167Y-272459757D01*
X123820167Y-272459757D02*
X123677310Y-272388328D01*
X123677310Y-272388328D02*
X123391596Y-272388328D01*
X123391596Y-272388328D02*
X123248738Y-272459757D01*
X123891596Y-273316900D02*
X123748738Y-273388328D01*
X123748738Y-273388328D02*
X123391596Y-273388328D01*
X123391596Y-273388328D02*
X123248738Y-273316900D01*
X123248738Y-273316900D02*
X123177310Y-273174042D01*
X123177310Y-273174042D02*
X123177310Y-273031185D01*
X123177310Y-273031185D02*
X123248738Y-272888328D01*
X123248738Y-272888328D02*
X123391596Y-272816900D01*
X123391596Y-272816900D02*
X123748738Y-272816900D01*
X123748738Y-272816900D02*
X123891596Y-272745471D01*
X125248739Y-273388328D02*
X125248739Y-271888328D01*
X125248739Y-273316900D02*
X125105881Y-273388328D01*
X125105881Y-273388328D02*
X124820167Y-273388328D01*
X124820167Y-273388328D02*
X124677310Y-273316900D01*
X124677310Y-273316900D02*
X124605881Y-273245471D01*
X124605881Y-273245471D02*
X124534453Y-273102614D01*
X124534453Y-273102614D02*
X124534453Y-272674042D01*
X124534453Y-272674042D02*
X124605881Y-272531185D01*
X124605881Y-272531185D02*
X124677310Y-272459757D01*
X124677310Y-272459757D02*
X124820167Y-272388328D01*
X124820167Y-272388328D02*
X125105881Y-272388328D01*
X125105881Y-272388328D02*
X125248739Y-272459757D01*
X125605882Y-273531185D02*
X126748739Y-273531185D01*
X127105881Y-272388328D02*
X127105881Y-273888328D01*
X127105881Y-272459757D02*
X127248739Y-272388328D01*
X127248739Y-272388328D02*
X127534453Y-272388328D01*
X127534453Y-272388328D02*
X127677310Y-272459757D01*
X127677310Y-272459757D02*
X127748739Y-272531185D01*
X127748739Y-272531185D02*
X127820167Y-272674042D01*
X127820167Y-272674042D02*
X127820167Y-273102614D01*
X127820167Y-273102614D02*
X127748739Y-273245471D01*
X127748739Y-273245471D02*
X127677310Y-273316900D01*
X127677310Y-273316900D02*
X127534453Y-273388328D01*
X127534453Y-273388328D02*
X127248739Y-273388328D01*
X127248739Y-273388328D02*
X127105881Y-273316900D01*
X129105882Y-273316900D02*
X128963024Y-273388328D01*
X128963024Y-273388328D02*
X128677310Y-273388328D01*
X128677310Y-273388328D02*
X128534453Y-273316900D01*
X128534453Y-273316900D02*
X128463024Y-273245471D01*
X128463024Y-273245471D02*
X128391596Y-273102614D01*
X128391596Y-273102614D02*
X128391596Y-272674042D01*
X128391596Y-272674042D02*
X128463024Y-272531185D01*
X128463024Y-272531185D02*
X128534453Y-272459757D01*
X128534453Y-272459757D02*
X128677310Y-272388328D01*
X128677310Y-272388328D02*
X128963024Y-272388328D01*
X128963024Y-272388328D02*
X129105882Y-272459757D01*
X129748738Y-273388328D02*
X129748738Y-271888328D01*
X129748738Y-272459757D02*
X129891596Y-272388328D01*
X129891596Y-272388328D02*
X130177310Y-272388328D01*
X130177310Y-272388328D02*
X130320167Y-272459757D01*
X130320167Y-272459757D02*
X130391596Y-272531185D01*
X130391596Y-272531185D02*
X130463024Y-272674042D01*
X130463024Y-272674042D02*
X130463024Y-273102614D01*
X130463024Y-273102614D02*
X130391596Y-273245471D01*
X130391596Y-273245471D02*
X130320167Y-273316900D01*
X130320167Y-273316900D02*
X130177310Y-273388328D01*
X130177310Y-273388328D02*
X129891596Y-273388328D01*
X129891596Y-273388328D02*
X129748738Y-273316900D01*
D10*
D11*
X90007200Y-268502200D02*
X198007200Y-268502200D01*
D10*
D11*
X91391598Y-270616900D02*
X91605884Y-270688328D01*
X91605884Y-270688328D02*
X91963026Y-270688328D01*
X91963026Y-270688328D02*
X92105884Y-270616900D01*
X92105884Y-270616900D02*
X92177312Y-270545471D01*
X92177312Y-270545471D02*
X92248741Y-270402614D01*
X92248741Y-270402614D02*
X92248741Y-270259757D01*
X92248741Y-270259757D02*
X92177312Y-270116900D01*
X92177312Y-270116900D02*
X92105884Y-270045471D01*
X92105884Y-270045471D02*
X91963026Y-269974042D01*
X91963026Y-269974042D02*
X91677312Y-269902614D01*
X91677312Y-269902614D02*
X91534455Y-269831185D01*
X91534455Y-269831185D02*
X91463026Y-269759757D01*
X91463026Y-269759757D02*
X91391598Y-269616900D01*
X91391598Y-269616900D02*
X91391598Y-269474042D01*
X91391598Y-269474042D02*
X91463026Y-269331185D01*
X91463026Y-269331185D02*
X91534455Y-269259757D01*
X91534455Y-269259757D02*
X91677312Y-269188328D01*
X91677312Y-269188328D02*
X92034455Y-269188328D01*
X92034455Y-269188328D02*
X92248741Y-269259757D01*
X92891597Y-270688328D02*
X92891597Y-269188328D01*
X93534455Y-270688328D02*
X93534455Y-269902614D01*
X93534455Y-269902614D02*
X93463026Y-269759757D01*
X93463026Y-269759757D02*
X93320169Y-269688328D01*
X93320169Y-269688328D02*
X93105883Y-269688328D01*
X93105883Y-269688328D02*
X92963026Y-269759757D01*
X92963026Y-269759757D02*
X92891597Y-269831185D01*
X94820169Y-270616900D02*
X94677312Y-270688328D01*
X94677312Y-270688328D02*
X94391598Y-270688328D01*
X94391598Y-270688328D02*
X94248740Y-270616900D01*
X94248740Y-270616900D02*
X94177312Y-270474042D01*
X94177312Y-270474042D02*
X94177312Y-269902614D01*
X94177312Y-269902614D02*
X94248740Y-269759757D01*
X94248740Y-269759757D02*
X94391598Y-269688328D01*
X94391598Y-269688328D02*
X94677312Y-269688328D01*
X94677312Y-269688328D02*
X94820169Y-269759757D01*
X94820169Y-269759757D02*
X94891598Y-269902614D01*
X94891598Y-269902614D02*
X94891598Y-270045471D01*
X94891598Y-270045471D02*
X94177312Y-270188328D01*
X96105883Y-270616900D02*
X95963026Y-270688328D01*
X95963026Y-270688328D02*
X95677312Y-270688328D01*
X95677312Y-270688328D02*
X95534454Y-270616900D01*
X95534454Y-270616900D02*
X95463026Y-270474042D01*
X95463026Y-270474042D02*
X95463026Y-269902614D01*
X95463026Y-269902614D02*
X95534454Y-269759757D01*
X95534454Y-269759757D02*
X95677312Y-269688328D01*
X95677312Y-269688328D02*
X95963026Y-269688328D01*
X95963026Y-269688328D02*
X96105883Y-269759757D01*
X96105883Y-269759757D02*
X96177312Y-269902614D01*
X96177312Y-269902614D02*
X96177312Y-270045471D01*
X96177312Y-270045471D02*
X95463026Y-270188328D01*
X96605883Y-269688328D02*
X97177311Y-269688328D01*
X96820168Y-269188328D02*
X96820168Y-270474042D01*
X96820168Y-270474042D02*
X96891597Y-270616900D01*
X96891597Y-270616900D02*
X97034454Y-270688328D01*
X97034454Y-270688328D02*
X97177311Y-270688328D01*
X97677311Y-270545471D02*
X97748740Y-270616900D01*
X97748740Y-270616900D02*
X97677311Y-270688328D01*
X97677311Y-270688328D02*
X97605883Y-270616900D01*
X97605883Y-270616900D02*
X97677311Y-270545471D01*
X97677311Y-270545471D02*
X97677311Y-270688328D01*
X97677311Y-269759757D02*
X97748740Y-269831185D01*
X97748740Y-269831185D02*
X97677311Y-269902614D01*
X97677311Y-269902614D02*
X97605883Y-269831185D01*
X97605883Y-269831185D02*
X97677311Y-269759757D01*
X97677311Y-269759757D02*
X97677311Y-269902614D01*
D10*
D11*
X92177312Y-260188328D02*
X91463026Y-260188328D01*
X91463026Y-260188328D02*
X91463026Y-261688328D01*
X91463026Y-261688328D02*
X91891598Y-261688328D01*
X91891598Y-261688328D02*
X92105884Y-261616900D01*
X92105884Y-261616900D02*
X92248741Y-261474042D01*
X92248741Y-261474042D02*
X92320169Y-261331185D01*
X92320169Y-261331185D02*
X92320169Y-261116900D01*
X92320169Y-261116900D02*
X92248741Y-260974042D01*
X92248741Y-260974042D02*
X92105884Y-260831185D01*
X92105884Y-260831185D02*
X91891598Y-260759757D01*
X91891598Y-260759757D02*
X91463026Y-260759757D01*
X92820169Y-260688328D02*
X93177312Y-261688328D01*
X93534455Y-260688328D02*
X93177312Y-261688328D01*
X93177312Y-261688328D02*
X93034455Y-262045471D01*
X93034455Y-262045471D02*
X92963026Y-262116900D01*
X92963026Y-262116900D02*
X92820169Y-262188328D01*
X94105883Y-260688328D02*
X94105883Y-262188328D01*
X94105883Y-260759757D02*
X94248741Y-260688328D01*
X94248741Y-260688328D02*
X94534455Y-260688328D01*
X94534455Y-260688328D02*
X94677312Y-260759757D01*
X94677312Y-260759757D02*
X94748741Y-260831185D01*
X94748741Y-260831185D02*
X94820169Y-260974042D01*
X94820169Y-260974042D02*
X94820169Y-261402614D01*
X94820169Y-261402614D02*
X94748741Y-261545471D01*
X94748741Y-261545471D02*
X94677312Y-261616900D01*
X94677312Y-261616900D02*
X94534455Y-261688328D01*
X94534455Y-261688328D02*
X94248741Y-261688328D01*
X94248741Y-261688328D02*
X94105883Y-261616900D01*
X96463026Y-260688328D02*
X96463026Y-261688328D01*
X95463026Y-260688328D02*
X95463026Y-261688328D01*
X95463026Y-261688328D02*
X95820169Y-261688328D01*
X95820169Y-261688328D02*
X95963026Y-261616900D01*
X95963026Y-261616900D02*
X96034455Y-261474042D01*
X96034455Y-261474042D02*
X96034455Y-261259757D01*
X96034455Y-261259757D02*
X95963026Y-261116900D01*
X95963026Y-261116900D02*
X95820169Y-261045471D01*
X95820169Y-261045471D02*
X95463026Y-261045471D01*
X97177312Y-260688328D02*
X97177312Y-261688328D01*
X97320170Y-261116900D02*
X97748741Y-261688328D01*
X97748741Y-260688328D02*
X97177312Y-261259757D01*
X98391598Y-260688328D02*
X98391598Y-261688328D01*
X98391598Y-261688328D02*
X99105884Y-260688328D01*
X99105884Y-260688328D02*
X99105884Y-261688328D01*
X99820169Y-261188328D02*
X100463027Y-261188328D01*
X99820169Y-260688328D02*
X99820169Y-261688328D01*
X100463027Y-260688328D02*
X100463027Y-261688328D01*
X102320169Y-260188328D02*
X102320169Y-261688328D01*
X102320169Y-261688328D02*
X103177312Y-260188328D01*
X103177312Y-260188328D02*
X103177312Y-261688328D01*
X103891598Y-261545471D02*
X103963027Y-261616900D01*
X103963027Y-261616900D02*
X103891598Y-261688328D01*
X103891598Y-261688328D02*
X103820170Y-261616900D01*
X103820170Y-261616900D02*
X103891598Y-261545471D01*
X103891598Y-261545471D02*
X103891598Y-261688328D01*
X104605884Y-260188328D02*
X104605884Y-261688328D01*
X105105884Y-260902614D02*
X104605884Y-260902614D01*
X105463027Y-260188328D02*
X105748742Y-260188328D01*
X105748742Y-260188328D02*
X105891599Y-260259757D01*
X105891599Y-260259757D02*
X106034456Y-260402614D01*
X106034456Y-260402614D02*
X106105884Y-260688328D01*
X106105884Y-260688328D02*
X106105884Y-261188328D01*
X106105884Y-261188328D02*
X106034456Y-261474042D01*
X106034456Y-261474042D02*
X105891599Y-261616900D01*
X105891599Y-261616900D02*
X105748742Y-261688328D01*
X105748742Y-261688328D02*
X105463027Y-261688328D01*
X105463027Y-261688328D02*
X105320170Y-261616900D01*
X105320170Y-261616900D02*
X105177313Y-261474042D01*
X105177313Y-261474042D02*
X105105884Y-261188328D01*
X105105884Y-261188328D02*
X105105884Y-260688328D01*
X105105884Y-260688328D02*
X105177313Y-260402614D01*
X105177313Y-260402614D02*
X105320170Y-260259757D01*
X105320170Y-260259757D02*
X105463027Y-260188328D01*
X106748741Y-261545471D02*
X106820170Y-261616900D01*
X106820170Y-261616900D02*
X106748741Y-261688328D01*
X106748741Y-261688328D02*
X106677313Y-261616900D01*
X106677313Y-261616900D02*
X106748741Y-261545471D01*
X106748741Y-261545471D02*
X106748741Y-261688328D01*
D10*
D11*
X110007200Y-278502200D02*
X110007200Y-281502200D01*
D10*
D11*
X174007200Y-278502200D02*
X174007200Y-285002200D01*
D14*
%TO.P,BT1,2,-*%
%TO.N,GNDD*%
X84252500Y-56510000D03*
D15*
%TO.P,BT1,1,+*%
%TO.N,Net-(BT1-+)*%
X84252500Y-71500000D03*
%TD*%
D16*
%TO.P,C6,2*%
%TO.N,GNDD*%
X95417500Y-56637500D03*
%TO.P,C6,1*%
%TO.N,+3V3*%
X95417500Y-58362500D03*
%TD*%
D17*
%TO.P,J2,1,Pin_1*%
%TO.N,GNDD*%
X75877500Y-65500000D03*
D18*
%TO.P,J2,2,Pin_2*%
%TO.N,/USART1_TX*%
X78417500Y-65500000D03*
%TO.P,J2,3,Pin_3*%
%TO.N,unconnected-(J2-Pin_3-Pad3)*%
X75877500Y-62960000D03*
%TO.P,J2,4,Pin_4*%
%TO.N,/USART1_RX*%
X78417500Y-62960000D03*
%TD*%
D19*
%TO.P,C3,2*%
%TO.N,GNDD*%
X108142500Y-67500000D03*
%TO.P,C3,1*%
%TO.N,+3V3*%
X106417500Y-67500000D03*
%TD*%
D20*
%TO.P,R11,1*%
%TO.N,Net-(BT1-+)*%
X83417500Y-67500000D03*
%TO.P,R11,2*%
%TO.N,VCC_BAT*%
X81592500Y-67500000D03*
%TD*%
%TO.P,R10,1*%
%TO.N,GNDD*%
X83330000Y-65500000D03*
%TO.P,R10,2*%
%TO.N,VCC_BAT*%
X81505000Y-65500000D03*
%TD*%
D21*
%TO.P,D1,2,A*%
%TO.N,Net-(D1-A)*%
X119905000Y-62500000D03*
%TO.P,D1,1,K*%
%TO.N,GNDD*%
X116930000Y-62500000D03*
%TD*%
D22*
%TO.P,FB1,1*%
%TO.N,Net-(Q1-D)*%
X128417500Y-76287500D03*
%TO.P,FB1,2*%
%TO.N,Net-(U2-VDD)*%
X128417500Y-74537500D03*
%TD*%
D23*
%TO.P,Q3,1,G*%
%TO.N,Net-(Q3-G)*%
X88317500Y-47612500D03*
%TO.P,Q3,2,S*%
%TO.N,GNDD*%
X86417500Y-47612500D03*
%TO.P,Q3,3,D*%
X87367500Y-49487500D03*
%TD*%
D24*
%TO.P,R12,1*%
%TO.N,VRAW*%
X83417500Y-79500000D03*
%TO.P,R12,2*%
%TO.N,Net-(U4-PG)*%
X83417500Y-81325000D03*
%TD*%
D25*
%TO.P,C2,1*%
%TO.N,+3V3*%
X102417500Y-69500000D03*
%TO.P,C2,2*%
%TO.N,GNDD*%
X102417500Y-71225000D03*
%TD*%
D26*
%TO.P,U6,1,EN*%
%TO.N,VRAW*%
X88417500Y-52850000D03*
%TO.P,U6,2,MODE*%
X87917500Y-52850000D03*
%TO.P,U6,3,AGND*%
%TO.N,GNDD*%
X87417500Y-52850000D03*
%TO.P,U6,4,FB*%
%TO.N,Net-(U6-FB)*%
X86917500Y-52850000D03*
%TO.P,U6,5,PG*%
%TO.N,Net-(U6-PG)*%
X86417500Y-52850000D03*
D27*
%TO.P,U6,6,VOUT*%
%TO.N,+5V0*%
X86417500Y-54500000D03*
%TO.P,U6,7,L2*%
%TO.N,Net-(U6-L2)*%
X86917500Y-54500000D03*
D28*
%TO.P,U6,8,GND*%
%TO.N,GNDD*%
X87417500Y-54300000D03*
D27*
%TO.P,U6,9,L1*%
%TO.N,Net-(U6-L1)*%
X87917500Y-54500000D03*
%TO.P,U6,10,VIN*%
%TO.N,VRAW*%
X88417500Y-54500000D03*
%TD*%
D25*
%TO.P,C7,1*%
%TO.N,GNDD*%
X82417500Y-47637500D03*
%TO.P,C7,2*%
%TO.N,+3V3*%
X82417500Y-49362500D03*
%TD*%
D29*
%TO.P,Q1,1,G*%
%TO.N,Net-(Q1-G)*%
X122367500Y-77300000D03*
%TO.P,Q1,2,S*%
%TO.N,+3V3*%
X120467500Y-77300000D03*
%TO.P,Q1,3,D*%
%TO.N,Net-(Q1-D)*%
X121417500Y-79575000D03*
%TD*%
D19*
%TO.P,C5,1*%
%TO.N,+3V3*%
X106555000Y-62500000D03*
%TO.P,C5,2*%
%TO.N,GNDD*%
X108280000Y-62500000D03*
%TD*%
D24*
%TO.P,R8,1*%
%TO.N,Net-(Q2-D)*%
X100417500Y-80587500D03*
%TO.P,R8,2*%
%TO.N,Net-(J4-Pin_2)*%
X100417500Y-82412500D03*
%TD*%
D30*
%TO.P,J6,1,Pin_1*%
%TO.N,GNDD*%
X62417500Y-82500000D03*
D31*
%TO.P,J6,2,Pin_2*%
%TO.N,unconnected-(J6-Pin_2-Pad2)*%
X62417500Y-80500000D03*
%TO.P,J6,3,Pin_3*%
%TO.N,Net-(J6-Pin_3)*%
X62417500Y-78500000D03*
%TO.P,J6,4,Pin_4*%
%TO.N,Net-(J6-Pin_4)*%
X62417500Y-76500000D03*
%TO.P,J6,5,Pin_5*%
%TO.N,unconnected-(J6-Pin_5-Pad5)*%
X62417500Y-74500000D03*
%TO.P,J6,6,Pin_6*%
%TO.N,Net-(J6-Pin_6)*%
X62417500Y-72500000D03*
%TD*%
D23*
%TO.P,Q2,1,G*%
%TO.N,Net-(Q2-G)*%
X106317500Y-80500000D03*
%TO.P,Q2,2,S*%
%TO.N,GNDD*%
X104417500Y-80500000D03*
%TO.P,Q2,3,D*%
%TO.N,Net-(Q2-D)*%
X105367500Y-82375000D03*
%TD*%
D32*
%TO.P,L1,1,1*%
%TO.N,Net-(U4-L2)*%
X81602500Y-73500000D03*
%TO.P,L1,2,2*%
%TO.N,Net-(U4-L1)*%
X79232500Y-73500000D03*
%TD*%
D33*
%TO.P,U4,1,EN*%
%TO.N,VRAW*%
X79505000Y-80150000D03*
%TO.P,U4,2,MODE*%
X80005000Y-80150000D03*
%TO.P,U4,3,AGND*%
%TO.N,GNDD*%
X80505000Y-80150000D03*
%TO.P,U4,4,FB*%
%TO.N,Net-(U4-FB)*%
X81005000Y-80150000D03*
%TO.P,U4,5,PG*%
%TO.N,Net-(U4-PG)*%
X81505000Y-80150000D03*
D34*
%TO.P,U4,6,VOUT*%
%TO.N,+3V3*%
X81505000Y-78500000D03*
%TO.P,U4,7,L2*%
%TO.N,Net-(U4-L2)*%
X81005000Y-78500000D03*
D35*
%TO.P,U4,8,GND*%
%TO.N,GNDD*%
X80505000Y-78700000D03*
D34*
%TO.P,U4,9,L1*%
%TO.N,Net-(U4-L1)*%
X80005000Y-78500000D03*
%TO.P,U4,10,VIN*%
%TO.N,VRAW*%
X79505000Y-78500000D03*
%TD*%
D24*
%TO.P,R18,1*%
%TO.N,Net-(Q3-G)*%
X91417500Y-48500000D03*
%TO.P,R18,2*%
%TO.N,GNDD*%
X91417500Y-50325000D03*
%TD*%
D36*
%TO.P,R3,1*%
%TO.N,Net-(Q1-G)*%
X124417500Y-76325000D03*
%TO.P,R3,2*%
%TO.N,+3V3*%
X124417500Y-74500000D03*
%TD*%
D30*
%TO.P,J5,1,Pin_1*%
%TO.N,Net-(J5-Pin_1)*%
X62417500Y-58500000D03*
D31*
%TO.P,J5,2,Pin_2*%
%TO.N,GNDD*%
X62417500Y-56500000D03*
%TO.P,J5,3,Pin_3*%
%TO.N,/V-LED*%
X62417500Y-54500000D03*
%TO.P,J5,4,Pin_4*%
%TO.N,GNDD*%
X62417500Y-52500000D03*
%TO.P,J5,5,Pin_5*%
%TO.N,Net-(J5-Pin_5)*%
X62417500Y-50500000D03*
%TO.P,J5,6,Pin_6*%
%TO.N,+5V0*%
X62417500Y-48500000D03*
%TD*%
D25*
%TO.P,C10,1*%
%TO.N,+3V3*%
X87417500Y-79500000D03*
%TO.P,C10,2*%
%TO.N,GNDD*%
X87417500Y-81225000D03*
%TD*%
D24*
%TO.P,R2,1*%
%TO.N,/MOSFET_GATE_LORA*%
X126417500Y-74500000D03*
%TO.P,R2,2*%
%TO.N,Net-(Q1-G)*%
X126417500Y-76325000D03*
%TD*%
D37*
%TO.P,J4,1,Pin_1*%
%TO.N,+5V0*%
X93417500Y-82950000D03*
D38*
%TO.P,J4,2,Pin_2*%
%TO.N,Net-(J4-Pin_2)*%
X91417500Y-82950000D03*
%TD*%
D24*
%TO.P,R17,1*%
%TO.N,Net-(Q3-G)*%
X93417500Y-48500000D03*
%TO.P,R17,2*%
%TO.N,MOSFET_GATE_SENSOR*%
X93417500Y-50325000D03*
%TD*%
D39*
%TO.P,C1,1*%
%TO.N,+3V3*%
X95417500Y-67500000D03*
%TO.P,C1,2*%
%TO.N,GNDD*%
X93692500Y-67500000D03*
%TD*%
D36*
%TO.P,R6,1*%
%TO.N,/SENSOR DATA*%
X101417500Y-50325000D03*
%TO.P,R6,2*%
%TO.N,GNDD*%
X101417500Y-48500000D03*
%TD*%
%TO.P,R9,1*%
%TO.N,Net-(Q2-G)*%
X110417500Y-81412500D03*
%TO.P,R9,2*%
%TO.N,/BUZZER*%
X110417500Y-79587500D03*
%TD*%
D32*
%TO.P,L2,1,1*%
%TO.N,Net-(U6-L2)*%
X88232500Y-59500000D03*
%TO.P,L2,2,2*%
%TO.N,Net-(U6-L1)*%
X90602500Y-59500000D03*
%TD*%
D24*
%TO.P,R13,1*%
%TO.N,+3V3*%
X85417500Y-79500000D03*
%TO.P,R13,2*%
%TO.N,Net-(U4-FB)*%
X85417500Y-81325000D03*
%TD*%
D20*
%TO.P,R14,1*%
%TO.N,Net-(U4-FB)*%
X79330000Y-82500000D03*
%TO.P,R14,2*%
%TO.N,GNDD*%
X77505000Y-82500000D03*
%TD*%
D40*
%TO.P,U1,1,VBAT*%
%TO.N,+3V3*%
X104417500Y-66175000D03*
%TO.P,U1,2,PC13*%
%TO.N,unconnected-(U1-PC13-Pad2)*%
X104417500Y-65675000D03*
%TO.P,U1,3,PC14*%
%TO.N,/INFO_LED*%
X104417500Y-65175000D03*
%TO.P,U1,4,PC15*%
%TO.N,unconnected-(U1-PC15-Pad4)*%
X104417500Y-64675000D03*
%TO.P,U1,5,PD0*%
%TO.N,unconnected-(U1-PD0-Pad5)*%
X104417500Y-64175000D03*
%TO.P,U1,6,PD1*%
%TO.N,unconnected-(U1-PD1-Pad6)*%
X104417500Y-63675000D03*
%TO.P,U1,7,NRST*%
%TO.N,/RESET_PIN*%
X104417500Y-63175000D03*
%TO.P,U1,8,VSSA*%
%TO.N,GNDD*%
X104417500Y-62675000D03*
%TO.P,U1,9,VDDA*%
%TO.N,+3V3*%
X104417500Y-62175000D03*
%TO.P,U1,10,PA0*%
%TO.N,/SENSOR DATA*%
X104417500Y-61675000D03*
%TO.P,U1,11,PA1*%
%TO.N,VCC_BAT*%
X104417500Y-61175000D03*
%TO.P,U1,12,PA2*%
%TO.N,/LINK_BUTTON*%
X104417500Y-60675000D03*
D41*
%TO.P,U1,13,PA3*%
%TO.N,/LORA_BUSY*%
X103005000Y-59262500D03*
%TO.P,U1,14,PA4*%
%TO.N,/LORA_NSS*%
X102505000Y-59262500D03*
%TO.P,U1,15,PA5*%
%TO.N,/LORA_SCK*%
X102005000Y-59262500D03*
%TO.P,U1,16,PA6*%
%TO.N,/LORA_MISO*%
X101505000Y-59262500D03*
%TO.P,U1,17,PA7*%
%TO.N,/LORA_MOSI*%
X101005000Y-59262500D03*
%TO.P,U1,18,PB0*%
%TO.N,/LORA_DIO1*%
X100505000Y-59262500D03*
%TO.P,U1,19,PB1*%
%TO.N,/LORA_NRST*%
X100005000Y-59262500D03*
%TO.P,U1,20,PB2*%
%TO.N,unconnected-(U1-PB2-Pad20)*%
X99505000Y-59262500D03*
%TO.P,U1,21,PB10*%
%TO.N,MOSFET_GATE_SENSOR*%
X99005000Y-59262500D03*
%TO.P,U1,22,PB11*%
%TO.N,/MOSFET_GATE_LORA*%
X98505000Y-59262500D03*
%TO.P,U1,23,VSS*%
%TO.N,GNDD*%
X98005000Y-59262500D03*
%TO.P,U1,24,VDD*%
%TO.N,+3V3*%
X97505000Y-59262500D03*
D40*
%TO.P,U1,25,PB12*%
%TO.N,/V-LED*%
X96092500Y-60675000D03*
%TO.P,U1,26,PB13*%
%TO.N,unconnected-(U1-PB13-Pad26)*%
X96092500Y-61175000D03*
%TO.P,U1,27,PB14*%
%TO.N,unconnected-(U1-PB14-Pad27)*%
X96092500Y-61675000D03*
%TO.P,U1,28,PB15*%
%TO.N,unconnected-(U1-PB15-Pad28)*%
X96092500Y-62175000D03*
%TO.P,U1,29,PA8*%
%TO.N,unconnected-(U1-PA8-Pad29)*%
X96092500Y-62675000D03*
%TO.P,U1,30,PA9*%
%TO.N,/USART1_TX*%
X96092500Y-63175000D03*
%TO.P,U1,31,PA10*%
%TO.N,/USART1_RX*%
X96092500Y-63675000D03*
%TO.P,U1,32,PA11*%
%TO.N,unconnected-(U1-PA11-Pad32)*%
X96092500Y-64175000D03*
%TO.P,U1,33,PA12*%
%TO.N,unconnected-(U1-PA12-Pad33)*%
X96092500Y-64675000D03*
%TO.P,U1,34,PA13*%
%TO.N,/SWDIO*%
X96092500Y-65175000D03*
%TO.P,U1,35,VSS*%
%TO.N,GNDD*%
X96092500Y-65675000D03*
%TO.P,U1,36,VDD*%
%TO.N,+3V3*%
X96092500Y-66175000D03*
D41*
%TO.P,U1,37,PA14*%
%TO.N,/SWCLK*%
X97505000Y-67587500D03*
%TO.P,U1,38,PA15*%
%TO.N,/BUZZER*%
X98005000Y-67587500D03*
%TO.P,U1,39,PB3*%
%TO.N,unconnected-(U1-PB3-Pad39)*%
X98505000Y-67587500D03*
%TO.P,U1,40,PB4*%
%TO.N,unconnected-(U1-PB4-Pad40)*%
X99005000Y-67587500D03*
%TO.P,U1,41,PB5*%
%TO.N,unconnected-(U1-PB5-Pad41)*%
X99505000Y-67587500D03*
%TO.P,U1,42,PB6*%
%TO.N,INFO_SUPPLY*%
X100005000Y-67587500D03*
%TO.P,U1,43,PB7*%
%TO.N,unconnected-(U1-PB7-Pad43)*%
X100505000Y-67587500D03*
%TO.P,U1,44,BOOT0*%
%TO.N,unconnected-(U1-BOOT0-Pad44)*%
X101005000Y-67587500D03*
%TO.P,U1,45,PB8*%
%TO.N,unconnected-(U1-PB8-Pad45)*%
X101505000Y-67587500D03*
%TO.P,U1,46,PB9*%
%TO.N,unconnected-(U1-PB9-Pad46)*%
X102005000Y-67587500D03*
%TO.P,U1,47,VSS*%
%TO.N,GNDD*%
X102505000Y-67587500D03*
%TO.P,U1,48,VDD*%
%TO.N,+3V3*%
X103005000Y-67587500D03*
%TD*%
D25*
%TO.P,C12,1*%
%TO.N,VRAW*%
X84417500Y-50637500D03*
%TO.P,C12,2*%
%TO.N,GNDD*%
X84417500Y-52362500D03*
%TD*%
D16*
%TO.P,C9,1*%
%TO.N,VRAW*%
X77417500Y-78362500D03*
%TO.P,C9,2*%
%TO.N,GNDD*%
X77417500Y-76637500D03*
%TD*%
%TO.P,C4,1*%
%TO.N,/RESET_PIN*%
X66417500Y-67275000D03*
%TO.P,C4,2*%
%TO.N,GNDD*%
X66417500Y-65550000D03*
%TD*%
D36*
%TO.P,R5,1*%
%TO.N,/SENSOR DATA*%
X99417500Y-50325000D03*
%TO.P,R5,2*%
%TO.N,Net-(J5-Pin_5)*%
X99417500Y-48500000D03*
%TD*%
D24*
%TO.P,R1,1*%
%TO.N,+3V3*%
X68417500Y-65500000D03*
%TO.P,R1,2*%
%TO.N,/RESET_PIN*%
X68417500Y-67325000D03*
%TD*%
D17*
%TO.P,J1,1,Pin_1*%
%TO.N,+3V3*%
X79417500Y-50040000D03*
D18*
%TO.P,J1,2,Pin_2*%
%TO.N,/SWDIO*%
X79417500Y-47500000D03*
%TO.P,J1,3,Pin_3*%
%TO.N,/SWCLK*%
X76877500Y-50040000D03*
%TO.P,J1,4,Pin_4*%
%TO.N,GNDD*%
X76877500Y-47500000D03*
%TD*%
D42*
%TO.P,R4,1*%
%TO.N,/INFO_LED*%
X119505000Y-66500000D03*
%TO.P,R4,2*%
%TO.N,Net-(D1-A)*%
X121330000Y-66500000D03*
%TD*%
D14*
%TO.P,SW1,1,1*%
%TO.N,GNDD*%
X70417500Y-63500000D03*
X63917500Y-63500000D03*
%TO.P,SW1,2,2*%
%TO.N,/RESET_PIN*%
X70417500Y-68000000D03*
X63917500Y-68000000D03*
%TD*%
D43*
%TO.P,U2,1,ANT*%
%TO.N,unconnected-(U2-ANT-Pad1)*%
X124417500Y-70500000D03*
%TO.P,U2,2,GND*%
%TO.N,GNDD*%
X126417500Y-70500000D03*
%TO.P,U2,3,VDD*%
%TO.N,Net-(U2-VDD)*%
X128417500Y-70500000D03*
%TO.P,U2,4,~{RESET}*%
%TO.N,/LORA_NRST*%
X130417500Y-70500000D03*
%TO.P,U2,5,VCCPA*%
%TO.N,unconnected-(U2-VCCPA-Pad5)*%
X132417500Y-70500000D03*
%TO.P,U2,6,DIO1*%
%TO.N,/LORA_DIO1*%
X134417500Y-70500000D03*
%TO.P,U2,7,DIO2*%
%TO.N,unconnected-(U2-DIO2-Pad7)*%
X136417500Y-70500000D03*
%TO.P,U2,8,DIO3*%
%TO.N,unconnected-(U2-DIO3-Pad8)*%
X138417500Y-70500000D03*
%TO.P,U2,9,GND*%
%TO.N,GNDD*%
X138417500Y-54500000D03*
%TO.P,U2,10,BUSY*%
%TO.N,/LORA_BUSY*%
X136417500Y-54500000D03*
%TO.P,U2,11,RF_EN*%
%TO.N,unconnected-(U2-RF_EN-Pad11)*%
X134417500Y-54500000D03*
%TO.P,U2,12,SCK*%
%TO.N,/LORA_SCK*%
X132417500Y-54500000D03*
%TO.P,U2,13,MISO*%
%TO.N,/LORA_MISO*%
X130417500Y-54500000D03*
%TO.P,U2,14,MOSI*%
%TO.N,/LORA_MOSI*%
X128417500Y-54500000D03*
%TO.P,U2,15,~{NSS}*%
%TO.N,/LORA_NSS*%
X126417500Y-54500000D03*
%TO.P,U2,16,GND*%
%TO.N,GNDD*%
X124417500Y-54500000D03*
%TD*%
D44*
%TO.N,GNDD*%
X80417500Y-60500000D03*
X82417500Y-60500000D03*
X97429265Y-53488235D03*
X99417500Y-52500000D03*
%TO.N,/SWDIO*%
X94417500Y-56500000D03*
X95417500Y-54500000D03*
%TO.N,VCC_BAT*%
X103417500Y-46500000D03*
%TO.N,GNDD*%
X85417500Y-65500000D03*
%TO.N,/USART1_RX*%
X84917500Y-64000000D03*
X93417500Y-63500000D03*
%TO.N,VCC_BAT*%
X81417500Y-64161000D03*
%TO.N,/RESET_PIN*%
X84417500Y-66500000D03*
X87417500Y-67500000D03*
%TO.N,/USART1_TX*%
X83417500Y-63561000D03*
X93417500Y-62500000D03*
%TO.N,VCC_BAT*%
X95993235Y-49075735D03*
X106606735Y-58537765D03*
%TO.N,+3V3*%
X82417500Y-68500000D03*
X84417500Y-68500000D03*
%TO.N,/INFO_LED*%
X110417500Y-65175000D03*
X106417500Y-65175000D03*
%TO.N,GNDD*%
X110417500Y-68500000D03*
X114417500Y-61500000D03*
%TO.N,/INFO_LED*%
X117417500Y-66500000D03*
X115417500Y-66500000D03*
%TO.N,/LINK_BUTTON*%
X70417500Y-45500000D03*
X106018500Y-48101000D03*
X105993235Y-57924265D03*
%TO.N,/LORA_DIO1*%
X101417500Y-61500000D03*
X110417500Y-61500000D03*
X122417500Y-72500000D03*
%TO.N,/LORA_NRST*%
X128983893Y-67933607D03*
X123483893Y-62433607D03*
X105417500Y-56500000D03*
X100405000Y-56500000D03*
%TO.N,/LORA_BUSY*%
X113417500Y-47500000D03*
X108417500Y-52500000D03*
%TO.N,VRAW*%
X84417500Y-78500000D03*
%TO.N,GNDD*%
X79417500Y-54500000D03*
X80417500Y-55500000D03*
X71417500Y-54500000D03*
X73417500Y-54500000D03*
X75417500Y-54500000D03*
X77417500Y-54500000D03*
%TO.N,VRAW*%
X79592500Y-57325000D03*
%TO.N,INFO_SUPPLY*%
X78417500Y-69500000D03*
X74417500Y-73500000D03*
X70417500Y-73500000D03*
%TO.N,+5V0*%
X90417500Y-73500000D03*
%TO.N,INFO_SUPPLY*%
X93699384Y-72727000D03*
%TO.N,GNDD*%
X87417500Y-82500000D03*
X76417500Y-75500000D03*
D45*
X99417500Y-65500000D03*
D46*
X131417500Y-58500000D03*
D44*
X67417500Y-63500000D03*
D45*
X100417500Y-65500000D03*
X102417500Y-62500000D03*
D46*
X136417500Y-66500000D03*
X136417500Y-58500000D03*
D44*
X91417500Y-52500000D03*
D45*
X101417500Y-63500000D03*
D44*
X93634392Y-65500000D03*
X75417500Y-83500000D03*
X84917500Y-48000000D03*
D46*
X128417500Y-60500000D03*
X136417500Y-62500000D03*
D45*
X102417500Y-64500000D03*
D46*
X126417500Y-58500000D03*
X128417500Y-64500000D03*
X131417500Y-62500000D03*
X134417500Y-64500000D03*
D45*
X99417500Y-64500000D03*
D46*
X126417500Y-62500000D03*
X134417500Y-60500000D03*
D44*
X110417500Y-63500000D03*
D46*
X126417500Y-66500000D03*
D45*
X101417500Y-62500000D03*
D44*
X101417500Y-74500000D03*
X80417500Y-76500000D03*
D46*
X131417500Y-66500000D03*
D45*
X100417500Y-62500000D03*
D44*
%TO.N,+3V3*%
X90417500Y-53500000D03*
X84417500Y-49500000D03*
%TO.N,/V-LED*%
X93417500Y-60500000D03*
X83417500Y-61500000D03*
%TO.N,/MOSFET_GATE_LORA*%
X98655000Y-60500000D03*
X107417500Y-71500000D03*
%TO.N,/RESET_PIN*%
X80417500Y-66500000D03*
X100417500Y-72101000D03*
X95417500Y-73500000D03*
X72417500Y-66500000D03*
X103180000Y-63621383D03*
D47*
%TO.N,VRAW*%
X88417500Y-75500000D03*
D44*
X86671116Y-50637500D03*
D47*
X77417500Y-80500000D03*
D44*
X87992499Y-51958883D03*
%TO.N,/SENSOR DATA*%
X102417500Y-60500000D03*
X99435187Y-55494242D03*
%TO.N,/SWDIO*%
X94417500Y-64500000D03*
%TO.N,+5V0*%
X79417500Y-53500000D03*
X72417500Y-53500000D03*
X92417500Y-79500000D03*
X75417500Y-53500000D03*
X84417500Y-54500000D03*
%TO.N,/SWCLK*%
X97505000Y-66331739D03*
%TO.N,Net-(U6-PG)*%
X82417500Y-54500000D03*
%TO.N,Net-(U6-FB)*%
X83417500Y-54500000D03*
%TO.N,/LORA_MOSI*%
X123417500Y-48500000D03*
X126417500Y-51500000D03*
%TO.N,/LORA_MISO*%
X126417500Y-49500000D03*
X128417500Y-51500000D03*
%TO.N,Net-(J5-Pin_5)*%
X95417500Y-50500000D03*
%TO.N,/BUZZER*%
X109373750Y-78543750D03*
X98005000Y-69087500D03*
%TO.N,GNDD*%
X87017500Y-56500000D03*
X102417500Y-79500000D03*
%TO.N,/LORA_DIO1*%
X134417500Y-72500000D03*
%TO.N,GNDD*%
X103417500Y-48500000D03*
X96417500Y-55500000D03*
%TD*%
D48*
%TO.N,GNDD*%
X82417500Y-60500000D02*
X80417500Y-60500000D01*
X98417500Y-52500000D02*
X97429265Y-53488235D01*
X99417500Y-52500000D02*
X98417500Y-52500000D01*
D49*
%TO.N,/SENSOR DATA*%
X100417500Y-51325000D02*
X100417500Y-54511929D01*
X100417500Y-54511929D02*
X99435187Y-55494242D01*
X99417500Y-50325000D02*
X100417500Y-51325000D01*
%TO.N,/SWDIO*%
X94417500Y-55500000D02*
X95417500Y-54500000D01*
X94417500Y-56500000D02*
X94417500Y-55500000D01*
D48*
%TO.N,VCC_BAT*%
X97417500Y-46500000D02*
X103417500Y-46500000D01*
%TO.N,GNDD*%
X95417500Y-56500000D02*
X95417500Y-56637500D01*
X83330000Y-65500000D02*
X85417500Y-65500000D01*
D49*
%TO.N,/RESET_PIN*%
X79417500Y-67500000D02*
X80417500Y-66500000D01*
X73417500Y-67500000D02*
X79417500Y-67500000D01*
X72417500Y-66500000D02*
X73417500Y-67500000D01*
%TO.N,/USART1_RX*%
X84917500Y-64000000D02*
X84917500Y-63828503D01*
X84048997Y-62960000D02*
X78417500Y-62960000D01*
X84048997Y-62960000D02*
X84917500Y-63828503D01*
%TO.N,/USART1_TX*%
X80356500Y-63561000D02*
X78417500Y-65500000D01*
X83417500Y-63561000D02*
X80356500Y-63561000D01*
D48*
%TO.N,+3V3*%
X86417500Y-75500000D02*
X84417500Y-77500000D01*
X86417500Y-70500000D02*
X86417500Y-75500000D01*
X84417500Y-68500000D02*
X86417500Y-70500000D01*
%TO.N,Net-(BT1-+)*%
X83417500Y-70665000D02*
X84252500Y-71500000D01*
X83417500Y-67500000D02*
X83417500Y-70665000D01*
%TO.N,+3V3*%
X73417500Y-68500000D02*
X70417500Y-65500000D01*
X70417500Y-65500000D02*
X68417500Y-65500000D01*
X82417500Y-68500000D02*
X73417500Y-68500000D01*
%TO.N,VCC_BAT*%
X81417500Y-64161000D02*
X81417500Y-65412500D01*
X81417500Y-65412500D02*
X81505000Y-65500000D01*
X81505000Y-67412500D02*
X81592500Y-67500000D01*
X81505000Y-65500000D02*
X81505000Y-67412500D01*
D49*
%TO.N,/RESET_PIN*%
X86417500Y-66500000D02*
X87417500Y-67500000D01*
X84417500Y-66500000D02*
X86417500Y-66500000D01*
%TO.N,/USART1_TX*%
X94092500Y-63175000D02*
X93417500Y-62500000D01*
X96092500Y-63175000D02*
X94092500Y-63175000D01*
%TO.N,/LINK_BUTTON*%
X105993235Y-57924265D02*
X104417500Y-59500000D01*
X104417500Y-59500000D02*
X104417500Y-60675000D01*
D48*
%TO.N,VCC_BAT*%
X105742500Y-61175000D02*
X104417500Y-61175000D01*
X106606735Y-58537765D02*
X106606735Y-60310765D01*
X106606735Y-60310765D02*
X105742500Y-61175000D01*
X97417500Y-46500000D02*
X95993235Y-47924265D01*
X95993235Y-47924265D02*
X95993235Y-49075735D01*
D49*
%TO.N,/V-LED*%
X71417500Y-59500000D02*
X71417500Y-58500000D01*
X67417500Y-54500000D02*
X62417500Y-54500000D01*
X73417500Y-61500000D02*
X71417500Y-59500000D01*
X71417500Y-58500000D02*
X67417500Y-54500000D01*
X83417500Y-61500000D02*
X73417500Y-61500000D01*
%TO.N,/INFO_LED*%
X110417500Y-65175000D02*
X114092500Y-65175000D01*
X104417500Y-65175000D02*
X106417500Y-65175000D01*
X114092500Y-65175000D02*
X115417500Y-66500000D01*
D48*
%TO.N,+3V3*%
X105555000Y-62500000D02*
X106555000Y-62500000D01*
X105230000Y-62175000D02*
X105555000Y-62500000D01*
%TO.N,GNDD*%
X109280000Y-63500000D02*
X110417500Y-63500000D01*
%TO.N,+3V3*%
X104417500Y-62175000D02*
X105230000Y-62175000D01*
%TO.N,GNDD*%
X108280000Y-62500000D02*
X109280000Y-63500000D01*
X109417500Y-67500000D02*
X110417500Y-68500000D01*
X108142500Y-67500000D02*
X109417500Y-67500000D01*
%TO.N,+3V3*%
X106092500Y-66175000D02*
X106417500Y-66500000D01*
X104417500Y-66175000D02*
X106092500Y-66175000D01*
%TO.N,GNDD*%
X115417500Y-62500000D02*
X114417500Y-61500000D01*
X116930000Y-62500000D02*
X115417500Y-62500000D01*
D49*
%TO.N,Net-(D1-A)*%
X121330000Y-63925000D02*
X119905000Y-62500000D01*
X121330000Y-66500000D02*
X121330000Y-63925000D01*
%TO.N,/INFO_LED*%
X117417500Y-66500000D02*
X119505000Y-66500000D01*
%TO.N,/LINK_BUTTON*%
X103417500Y-45500000D02*
X70417500Y-45500000D01*
X106018500Y-48101000D02*
X103417500Y-45500000D01*
%TO.N,/LORA_NRST*%
X100405000Y-56500000D02*
X100405000Y-56524265D01*
X100005000Y-56924265D02*
X100005000Y-59262500D01*
X100405000Y-56524265D02*
X100005000Y-56924265D01*
%TO.N,/LORA_DIO1*%
X134417500Y-72500000D02*
X134417500Y-70500000D01*
X100505000Y-59262500D02*
X100505000Y-60587500D01*
X100505000Y-60587500D02*
X101417500Y-61500000D01*
X111417500Y-61500000D02*
X110417500Y-61500000D01*
X122417500Y-72500000D02*
X111417500Y-61500000D01*
%TO.N,/LORA_NRST*%
X108417500Y-59500000D02*
X105417500Y-56500000D01*
X120550286Y-59500000D02*
X108417500Y-59500000D01*
X123483893Y-62433607D02*
X120550286Y-59500000D01*
X130417500Y-69367214D02*
X130417500Y-70500000D01*
X128983893Y-67933607D02*
X130417500Y-69367214D01*
%TO.N,/LORA_BUSY*%
X136417500Y-52500000D02*
X136417500Y-54500000D01*
X130417500Y-46500000D02*
X136417500Y-52500000D01*
X114417500Y-46500000D02*
X130417500Y-46500000D01*
X113417500Y-47500000D02*
X114417500Y-46500000D01*
X108417500Y-52500000D02*
X103005000Y-57912500D01*
X103005000Y-57912500D02*
X103005000Y-59262500D01*
D50*
%TO.N,GNDD*%
X138417500Y-56500000D02*
X137417500Y-57500000D01*
X138417500Y-54500000D02*
X138417500Y-56500000D01*
D48*
%TO.N,VRAW*%
X83417500Y-79500000D02*
X84417500Y-78500000D01*
%TO.N,GNDD*%
X80417500Y-55500000D02*
X79417500Y-54500000D01*
%TO.N,VRAW*%
X79592500Y-57325000D02*
X81417500Y-55500000D01*
%TO.N,GNDD*%
X73417500Y-54500000D02*
X71417500Y-54500000D01*
X77417500Y-54500000D02*
X75417500Y-54500000D01*
%TO.N,+5V0*%
X72417500Y-53500000D02*
X75417500Y-53500000D01*
D50*
%TO.N,VRAW*%
X81417500Y-57500000D02*
X81417500Y-55500000D01*
D48*
X79505000Y-80150000D02*
X80005000Y-80150000D01*
D51*
%TO.N,Net-(Q1-D)*%
X128417500Y-76287500D02*
X128417500Y-77500000D01*
%TO.N,Net-(U2-VDD)*%
X128417500Y-70500000D02*
X128417500Y-74537500D01*
D48*
%TO.N,VRAW*%
X87917500Y-52850000D02*
X88417500Y-52850000D01*
D50*
X81417500Y-55500000D02*
X81417500Y-52500000D01*
X88417500Y-64500000D02*
X81417500Y-57500000D01*
X88417500Y-75500000D02*
X88417500Y-64500000D01*
D48*
%TO.N,INFO_SUPPLY*%
X70417500Y-73500000D02*
X74417500Y-73500000D01*
X78417500Y-69500000D02*
X74417500Y-73500000D01*
X100005000Y-68394178D02*
X100005000Y-67587500D01*
X95672178Y-72727000D02*
X100005000Y-68394178D01*
X93699384Y-72727000D02*
X95672178Y-72727000D01*
D49*
%TO.N,/RESET_PIN*%
X98816500Y-72101000D02*
X100417500Y-72101000D01*
X97417500Y-73500000D02*
X98816500Y-72101000D01*
X95417500Y-73500000D02*
X97417500Y-73500000D01*
D48*
%TO.N,GNDD*%
X66417500Y-65550000D02*
X66417500Y-64500000D01*
X102505000Y-67587500D02*
X102505000Y-65587500D01*
X102417500Y-73500000D02*
X101417500Y-74500000D01*
X97242500Y-65675000D02*
X98417500Y-64500000D01*
X98005000Y-59262500D02*
X98005000Y-62087500D01*
D50*
X126417500Y-70500000D02*
X126417500Y-67500000D01*
D48*
X66417500Y-64500000D02*
X67417500Y-63500000D01*
X76505000Y-83500000D02*
X77505000Y-82500000D01*
X98005000Y-62087500D02*
X98417500Y-62500000D01*
X77417500Y-76500000D02*
X76417500Y-75500000D01*
X93692500Y-65558108D02*
X93692500Y-67500000D01*
X104417500Y-62675000D02*
X103242500Y-62675000D01*
D50*
X124417500Y-56500000D02*
X125417500Y-57500000D01*
D48*
X93634392Y-65500000D02*
X93692500Y-65558108D01*
X80417500Y-76500000D02*
X80505000Y-76587500D01*
X85305000Y-47612500D02*
X86417500Y-47612500D01*
X80505000Y-76587500D02*
X80505000Y-78700000D01*
X84917500Y-48000000D02*
X85305000Y-47612500D01*
D50*
X124417500Y-54500000D02*
X124417500Y-56500000D01*
D48*
X87417500Y-82500000D02*
X87417500Y-81225000D01*
X83917500Y-48000000D02*
X83555000Y-47637500D01*
X77417500Y-76637500D02*
X77417500Y-76500000D01*
X96092500Y-65675000D02*
X97242500Y-65675000D01*
X80505000Y-78700000D02*
X80505000Y-80150000D01*
X91417500Y-50325000D02*
X91417500Y-52500000D01*
X75417500Y-83500000D02*
X76505000Y-83500000D01*
X102417500Y-71225000D02*
X102417500Y-73500000D01*
X84917500Y-48000000D02*
X83917500Y-48000000D01*
X83555000Y-47637500D02*
X82417500Y-47637500D01*
X103242500Y-62675000D02*
X102417500Y-63500000D01*
D50*
%TO.N,+3V3*%
X82505000Y-77500000D02*
X84417500Y-77500000D01*
D48*
X103667500Y-67587500D02*
X103005000Y-67587500D01*
X104417500Y-66837500D02*
X103667500Y-67587500D01*
X82555000Y-49500000D02*
X82417500Y-49362500D01*
X81505000Y-78500000D02*
X82505000Y-77500000D01*
X92417500Y-64850000D02*
X92417500Y-62500000D01*
D50*
X105417500Y-74500000D02*
X105417500Y-69500000D01*
X86417500Y-77500000D02*
X89417500Y-77500000D01*
X92417500Y-74500000D02*
X89417500Y-77500000D01*
X102417500Y-77500000D02*
X105417500Y-74500000D01*
D48*
X87417500Y-78500000D02*
X86417500Y-77500000D01*
X87417500Y-79500000D02*
X87417500Y-78500000D01*
X123467500Y-74500000D02*
X120467500Y-77500000D01*
X103005000Y-68912500D02*
X102417500Y-69500000D01*
X85417500Y-78500000D02*
X84417500Y-77500000D01*
X92417500Y-55500000D02*
X90417500Y-53500000D01*
X92417500Y-56500000D02*
X92417500Y-57500000D01*
X103005000Y-67587500D02*
X103005000Y-68912500D01*
D50*
X92417500Y-74500000D02*
X92417500Y-62500000D01*
X120467500Y-77500000D02*
X89417500Y-77500000D01*
D48*
X104417500Y-66175000D02*
X104417500Y-66837500D01*
D50*
X92417500Y-62500000D02*
X92417500Y-56500000D01*
D48*
X124417500Y-74500000D02*
X123467500Y-74500000D01*
D50*
X84417500Y-77500000D02*
X86417500Y-77500000D01*
D48*
X96092500Y-66825000D02*
X95417500Y-67500000D01*
X96605000Y-58362500D02*
X97505000Y-59262500D01*
X80095000Y-49362500D02*
X79417500Y-50040000D01*
D50*
X92417500Y-56500000D02*
X92417500Y-55500000D01*
D48*
X82417500Y-49362500D02*
X80095000Y-49362500D01*
X96092500Y-66175000D02*
X96092500Y-66825000D01*
X85417500Y-79500000D02*
X85417500Y-78500000D01*
X84417500Y-49500000D02*
X82555000Y-49500000D01*
D49*
%TO.N,/V-LED*%
X94592500Y-60675000D02*
X96092500Y-60675000D01*
X94417500Y-60500000D02*
X94592500Y-60675000D01*
X93417500Y-60500000D02*
X94417500Y-60500000D01*
%TO.N,Net-(Q1-G)*%
X126417500Y-76325000D02*
X124417500Y-76325000D01*
X124417500Y-76325000D02*
X123542500Y-76325000D01*
X123542500Y-76325000D02*
X122367500Y-77500000D01*
%TO.N,Net-(Q2-G)*%
X110417500Y-81412500D02*
X107230000Y-81412500D01*
X107230000Y-81412500D02*
X106317500Y-80500000D01*
%TO.N,/MOSFET_GATE_LORA*%
X125417500Y-73500000D02*
X126417500Y-74500000D01*
X107417500Y-74500000D02*
X108417500Y-75500000D01*
X98505000Y-60350000D02*
X98505000Y-59262500D01*
X98655000Y-60500000D02*
X98505000Y-60350000D01*
X122417500Y-73500000D02*
X125417500Y-73500000D01*
X108417500Y-75500000D02*
X120417500Y-75500000D01*
X120417500Y-75500000D02*
X122417500Y-73500000D01*
X107417500Y-71500000D02*
X107417500Y-74500000D01*
%TO.N,/RESET_PIN*%
X66417500Y-67275000D02*
X64642500Y-67275000D01*
X66467500Y-67325000D02*
X66417500Y-67275000D01*
X68417500Y-67325000D02*
X69742500Y-67325000D01*
X103626383Y-63175000D02*
X103180000Y-63621383D01*
X104417500Y-63175000D02*
X103626383Y-63175000D01*
X68417500Y-67325000D02*
X66467500Y-67325000D01*
X64642500Y-67275000D02*
X63917500Y-68000000D01*
X69742500Y-67325000D02*
X70417500Y-68000000D01*
D51*
%TO.N,VRAW*%
X84417500Y-50637500D02*
X83280000Y-50637500D01*
D48*
X86671116Y-50637500D02*
X84417500Y-50637500D01*
X79505000Y-80150000D02*
X77767500Y-80150000D01*
X77555000Y-78500000D02*
X77417500Y-78362500D01*
X77767500Y-80150000D02*
X77417500Y-80500000D01*
X79505000Y-78500000D02*
X77555000Y-78500000D01*
X88417500Y-52383884D02*
X87992499Y-51958883D01*
D51*
X83280000Y-50637500D02*
X81417500Y-52500000D01*
D48*
X77417500Y-78362500D02*
X77417500Y-80500000D01*
D49*
%TO.N,Net-(Q2-D)*%
X102205000Y-82375000D02*
X105367500Y-82375000D01*
X100417500Y-80587500D02*
X102205000Y-82375000D01*
%TO.N,/SENSOR DATA*%
X104417500Y-61675000D02*
X103592500Y-61675000D01*
X101417500Y-50325000D02*
X99417500Y-50325000D01*
X103592500Y-61675000D02*
X102417500Y-60500000D01*
%TO.N,/SWDIO*%
X94417500Y-64500000D02*
X95092500Y-65175000D01*
X95092500Y-65175000D02*
X96092500Y-65175000D01*
D48*
%TO.N,+5V0*%
X72417500Y-53500000D02*
X67417500Y-48500000D01*
X67417500Y-48500000D02*
X62417500Y-48500000D01*
X93417500Y-82950000D02*
X93417500Y-80500000D01*
X84417500Y-54500000D02*
X86417500Y-54500000D01*
X93417500Y-80500000D02*
X92417500Y-79500000D01*
X75417500Y-53500000D02*
X79417500Y-53500000D01*
D49*
%TO.N,/SWCLK*%
X97505000Y-66331739D02*
X97505000Y-67587500D01*
D48*
%TO.N,Net-(U4-L1)*%
X79232500Y-77219370D02*
X80031000Y-78017870D01*
X80031000Y-78017870D02*
X80031000Y-78500000D01*
X79232500Y-73500000D02*
X79232500Y-77219370D01*
D49*
%TO.N,Net-(U4-L2)*%
X81602500Y-73500000D02*
X81602500Y-77429726D01*
X81005000Y-78027226D02*
X81005000Y-78500000D01*
X81602500Y-77429726D02*
X81005000Y-78027226D01*
D48*
%TO.N,Net-(U6-L1)*%
X87917500Y-56000000D02*
X90602500Y-58685000D01*
X90602500Y-58685000D02*
X90602500Y-59500000D01*
X87917500Y-54500000D02*
X87917500Y-56000000D01*
D49*
%TO.N,Net-(U6-L2)*%
X86917500Y-55000000D02*
X86417500Y-55500000D01*
X88232500Y-59315000D02*
X88232500Y-59500000D01*
X86417500Y-55500000D02*
X86417500Y-57500000D01*
X86417500Y-57500000D02*
X88232500Y-59315000D01*
X86917500Y-54500000D02*
X86917500Y-55000000D01*
D48*
%TO.N,Net-(U4-PG)*%
X83417500Y-81325000D02*
X82680000Y-81325000D01*
X82680000Y-81325000D02*
X81505000Y-80150000D01*
%TO.N,Net-(U4-FB)*%
X84242500Y-82500000D02*
X82680000Y-82500000D01*
X82680000Y-82500000D02*
X81005000Y-80825000D01*
X81005000Y-80825000D02*
X81005000Y-80150000D01*
X85417500Y-81325000D02*
X84242500Y-82500000D01*
X79330000Y-82500000D02*
X81005000Y-80825000D01*
%TO.N,Net-(U6-PG)*%
X86041500Y-53226000D02*
X86417500Y-52850000D01*
X82417500Y-54500000D02*
X83691500Y-53226000D01*
X83691500Y-53226000D02*
X86041500Y-53226000D01*
%TO.N,Net-(U6-FB)*%
X86917500Y-53208130D02*
X86917500Y-52850000D01*
X86448630Y-53677000D02*
X86917500Y-53208130D01*
X83417500Y-54500000D02*
X84240500Y-53677000D01*
X84240500Y-53677000D02*
X86448630Y-53677000D01*
D49*
%TO.N,Net-(J4-Pin_2)*%
X100417500Y-82412500D02*
X98704000Y-84126000D01*
X98704000Y-84126000D02*
X92593500Y-84126000D01*
X92593500Y-84126000D02*
X91417500Y-82950000D01*
%TO.N,/LORA_MOSI*%
X123417500Y-48500000D02*
X107417500Y-48500000D01*
X128417500Y-53500000D02*
X128417500Y-54500000D01*
X101005000Y-54912500D02*
X101005000Y-59262500D01*
X126417500Y-51500000D02*
X128417500Y-53500000D01*
X107417500Y-48500000D02*
X101005000Y-54912500D01*
%TO.N,/LORA_NSS*%
X126417500Y-54148000D02*
X126417500Y-54500000D01*
X102505000Y-56500000D02*
X102505000Y-59262500D01*
X119587500Y-52500000D02*
X119467500Y-52500000D01*
X121987500Y-52500000D02*
X121867500Y-52500000D01*
X123187500Y-52500000D02*
X123067500Y-52500000D01*
X119227500Y-52260000D02*
X119227500Y-51740000D01*
X122827500Y-52260000D02*
X122827500Y-51140000D01*
X120427500Y-52260000D02*
X120427500Y-51140000D01*
X122227500Y-51140000D02*
X122227500Y-52260000D01*
X120787500Y-52500000D02*
X120667500Y-52500000D01*
X121627500Y-52260000D02*
X121627500Y-51140000D01*
X120187500Y-50900000D02*
X120067500Y-50900000D01*
X122587500Y-50900000D02*
X122467500Y-50900000D01*
X107505000Y-51500000D02*
X102505000Y-56500000D01*
X119827500Y-51140000D02*
X119827500Y-52260000D01*
X107505000Y-51500000D02*
X118987500Y-51500000D01*
X126417500Y-54500000D02*
X126417500Y-54250000D01*
X121027500Y-51140000D02*
X121027500Y-52260000D01*
X123427500Y-51740000D02*
X123427500Y-52260000D01*
X121387500Y-50900000D02*
X121267500Y-50900000D01*
X126417500Y-54250000D02*
X123667500Y-51500000D01*
X123427500Y-52260000D02*
G75*
G02*
X123187500Y-52500000I-240000J0D01*
G01*
X121627500Y-51140000D02*
G75*
G03*
X121387500Y-50900000I-240000J0D01*
G01*
X119827500Y-52260000D02*
G75*
G02*
X119587500Y-52500000I-240000J0D01*
G01*
X120667500Y-52500000D02*
G75*
G02*
X120427500Y-52260000I0J240000D01*
G01*
X120067500Y-50900000D02*
G75*
G03*
X119827500Y-51140000I0J-240000D01*
G01*
X119467500Y-52500000D02*
G75*
G02*
X119227500Y-52260000I0J240000D01*
G01*
X122227500Y-52260000D02*
G75*
G02*
X121987500Y-52500000I-240000J0D01*
G01*
X121267500Y-50900000D02*
G75*
G03*
X121027500Y-51140000I0J-240000D01*
G01*
X120427500Y-51140000D02*
G75*
G03*
X120187500Y-50900000I-240000J0D01*
G01*
X123667500Y-51500000D02*
G75*
G03*
X123427500Y-51740000I0J-240000D01*
G01*
X122467500Y-50900000D02*
G75*
G03*
X122227500Y-51140000I0J-240000D01*
G01*
X122827500Y-51140000D02*
G75*
G03*
X122587500Y-50900000I-240000J0D01*
G01*
X119227500Y-51740000D02*
G75*
G03*
X118987500Y-51500000I-240000J0D01*
G01*
X123067500Y-52500000D02*
G75*
G02*
X122827500Y-52260000I0J240000D01*
G01*
X121027500Y-52260000D02*
G75*
G02*
X120787500Y-52500000I-240000J0D01*
G01*
X121867500Y-52500000D02*
G75*
G02*
X121627500Y-52260000I0J240000D01*
G01*
%TO.N,/LORA_SCK*%
X107417500Y-50500000D02*
X102005000Y-55912500D01*
X116119532Y-50140000D02*
X116119532Y-50860000D01*
X115879532Y-51100000D02*
X115759532Y-51100000D01*
X132417500Y-54500000D02*
X132417500Y-54250000D01*
X117319532Y-50740000D02*
X117319532Y-50860000D01*
X117079532Y-51100000D02*
X116959532Y-51100000D01*
X115519532Y-50860000D02*
X115519532Y-50740000D01*
X116719532Y-50860000D02*
X116719532Y-50140000D01*
X132417500Y-54250000D02*
X128667500Y-50500000D01*
X107417500Y-50500000D02*
X115279532Y-50500000D01*
X116479532Y-49900000D02*
X116359532Y-49900000D01*
X128667500Y-50500000D02*
X117559532Y-50500000D01*
X102005000Y-55912500D02*
X102005000Y-59262500D01*
X117559532Y-50500000D02*
G75*
G03*
X117319500Y-50740000I-32J-240000D01*
G01*
X115759532Y-51100000D02*
G75*
G02*
X115519500Y-50860000I-32J240000D01*
G01*
X116719532Y-50140000D02*
G75*
G03*
X116479532Y-49899968I-240032J0D01*
G01*
X117319532Y-50860000D02*
G75*
G02*
X117079532Y-51100032I-240032J0D01*
G01*
X116959532Y-51100000D02*
G75*
G02*
X116719500Y-50860000I-32J240000D01*
G01*
X115519532Y-50740000D02*
G75*
G03*
X115279532Y-50499968I-240032J0D01*
G01*
X116359532Y-49900000D02*
G75*
G03*
X116119500Y-50140000I-32J-240000D01*
G01*
X116119532Y-50860000D02*
G75*
G02*
X115879532Y-51100032I-240032J0D01*
G01*
%TO.N,/LORA_MISO*%
X101505000Y-55412500D02*
X107417500Y-49500000D01*
X128417500Y-51500000D02*
X130417500Y-53500000D01*
X107417500Y-49500000D02*
X126417500Y-49500000D01*
X130417500Y-53500000D02*
X130417500Y-54500000D01*
X101505000Y-59262500D02*
X101505000Y-55412500D01*
D51*
%TO.N,Net-(Q1-D)*%
X126342500Y-79575000D02*
X121417500Y-79575000D01*
X128417500Y-77500000D02*
X126342500Y-79575000D01*
D49*
%TO.N,Net-(J5-Pin_5)*%
X99417500Y-48500000D02*
X97417500Y-48500000D01*
X97417500Y-48500000D02*
X95417500Y-50500000D01*
%TO.N,/BUZZER*%
X110417500Y-79587500D02*
X109373750Y-78543750D01*
X98005000Y-69087500D02*
X98005000Y-67587500D01*
D48*
%TO.N,GNDD*%
X87149630Y-52224000D02*
X87367500Y-52441870D01*
X87417500Y-52491870D02*
X87417500Y-52850000D01*
X103417500Y-80500000D02*
X102417500Y-79500000D01*
X87367500Y-52441870D02*
X87417500Y-52491870D01*
X104417500Y-80500000D02*
X103417500Y-80500000D01*
X87367500Y-49487500D02*
X87367500Y-52441870D01*
X87417500Y-52850000D02*
X87417500Y-54300000D01*
X87417500Y-54300000D02*
X87417500Y-56100000D01*
X87417500Y-56100000D02*
X87017500Y-56500000D01*
X84417500Y-52362500D02*
X84556000Y-52224000D01*
X84556000Y-52224000D02*
X87149630Y-52224000D01*
D49*
%TO.N,Net-(Q3-G)*%
X91417500Y-48500000D02*
X89405000Y-48500000D01*
X93417500Y-48500000D02*
X91417500Y-48500000D01*
X89405000Y-48500000D02*
X88317500Y-47412500D01*
D48*
%TO.N,+5V0*%
X85578500Y-60161000D02*
X85578500Y-55339000D01*
X89417500Y-64000000D02*
X85578500Y-60161000D01*
X85578500Y-55339000D02*
X86417500Y-54500000D01*
X89417500Y-66500000D02*
X89417500Y-64000000D01*
X90417500Y-73500000D02*
X90417500Y-67500000D01*
X90417500Y-67500000D02*
X89417500Y-66500000D01*
%TO.N,VRAW*%
X88417500Y-52850000D02*
X88417500Y-52383884D01*
X88417500Y-52850000D02*
X88417500Y-54500000D01*
D49*
%TO.N,/USART1_RX*%
X96092500Y-63675000D02*
X93592500Y-63675000D01*
X93592500Y-63675000D02*
X93417500Y-63500000D01*
D48*
%TO.N,+3V3*%
X95417500Y-58362500D02*
X96605000Y-58362500D01*
%TO.N,GNDD*%
X101417500Y-48500000D02*
X103417500Y-48500000D01*
X95417500Y-56500000D02*
X96417500Y-55500000D01*
D49*
%TO.N,MOSFET_GATE_SENSOR*%
X99005000Y-59262500D02*
X99005000Y-55912500D01*
X99005000Y-55912500D02*
X93417500Y-50325000D01*
%TD*%
%TA.AperFunction,Conductor*%
%TO.N,+3V3*%
G36*
X96797539Y-66844685D02*
G01*
X96843294Y-66897489D01*
X96854500Y-66949000D01*
X96854500Y-68287727D01*
X96869313Y-68400235D01*
X96869313Y-68400236D01*
X96900488Y-68475500D01*
X96927302Y-68540233D01*
X97019549Y-68660451D01*
X97139767Y-68752698D01*
X97139768Y-68752698D01*
X97139769Y-68752699D01*
X97152591Y-68758010D01*
X97206995Y-68801850D01*
X97229060Y-68868144D01*
X97226757Y-68896761D01*
X97204500Y-69008658D01*
X97204500Y-69166346D01*
X97235261Y-69320989D01*
X97235264Y-69321001D01*
X97295602Y-69466672D01*
X97295609Y-69466685D01*
X97383210Y-69597788D01*
X97383213Y-69597792D01*
X97494707Y-69709286D01*
X97494711Y-69709289D01*
X97555263Y-69749749D01*
X97600068Y-69803361D01*
X97608775Y-69872686D01*
X97578621Y-69935714D01*
X97574053Y-69940532D01*
X97400786Y-70113800D01*
X97064760Y-70449827D01*
X97050906Y-70463681D01*
X96989583Y-70497166D01*
X96963225Y-70500000D01*
X92541500Y-70500000D01*
X92474461Y-70480315D01*
X92428706Y-70427511D01*
X92417500Y-70376000D01*
X92417500Y-67900667D01*
X92437185Y-67833628D01*
X92489989Y-67787873D01*
X92559147Y-67777929D01*
X92622703Y-67806954D01*
X92660477Y-67865732D01*
X92664473Y-67886106D01*
X92664825Y-67887752D01*
X92669105Y-67900667D01*
X92719092Y-68051516D01*
X92809660Y-68198350D01*
X92931650Y-68320340D01*
X93078484Y-68410908D01*
X93242247Y-68465174D01*
X93343323Y-68475500D01*
X94041676Y-68475499D01*
X94041684Y-68475498D01*
X94041687Y-68475498D01*
X94097030Y-68469844D01*
X94142753Y-68465174D01*
X94306516Y-68410908D01*
X94453350Y-68320340D01*
X94467671Y-68306018D01*
X94528989Y-68272533D01*
X94598681Y-68277514D01*
X94643034Y-68306017D01*
X94656961Y-68319944D01*
X94656965Y-68319947D01*
X94803688Y-68410448D01*
X94803699Y-68410453D01*
X94967347Y-68464680D01*
X95068351Y-68474999D01*
X95667500Y-68474999D01*
X95766640Y-68474999D01*
X95766654Y-68474998D01*
X95867652Y-68464680D01*
X96031300Y-68410453D01*
X96031311Y-68410448D01*
X96178034Y-68319947D01*
X96178038Y-68319944D01*
X96299944Y-68198038D01*
X96299947Y-68198034D01*
X96390448Y-68051311D01*
X96390453Y-68051300D01*
X96444680Y-67887652D01*
X96454999Y-67786654D01*
X96455000Y-67786641D01*
X96455000Y-67750000D01*
X95667500Y-67750000D01*
X95667500Y-68474999D01*
X95068351Y-68474999D01*
X95167500Y-68474998D01*
X95167500Y-67624000D01*
X95187185Y-67556961D01*
X95239989Y-67511206D01*
X95291500Y-67500000D01*
X95417500Y-67500000D01*
X95417500Y-67374000D01*
X95437185Y-67306961D01*
X95489989Y-67261206D01*
X95541500Y-67250000D01*
X96454999Y-67250000D01*
X96454999Y-67213360D01*
X96454998Y-67213345D01*
X96444680Y-67112346D01*
X96403478Y-66988003D01*
X96401076Y-66918175D01*
X96436808Y-66858133D01*
X96499329Y-66826941D01*
X96521184Y-66825000D01*
X96730500Y-66825000D01*
X96797539Y-66844685D01*
G37*
%TD.AperFunction*%
%TA.AperFunction,Conductor*%
G36*
X107356772Y-60504665D02*
G01*
X107404383Y-60555801D01*
X107417500Y-60611307D01*
X107417500Y-61520770D01*
X107397815Y-61587809D01*
X107345011Y-61633564D01*
X107275853Y-61643508D01*
X107228403Y-61626309D01*
X107168805Y-61589548D01*
X107168800Y-61589546D01*
X107005152Y-61535319D01*
X106904154Y-61525000D01*
X106805000Y-61525000D01*
X106805000Y-63474999D01*
X106904140Y-63474999D01*
X106904154Y-63474998D01*
X107005152Y-63464680D01*
X107168800Y-63410453D01*
X107168807Y-63410450D01*
X107228402Y-63373691D01*
X107295794Y-63355250D01*
X107362458Y-63376172D01*
X107407228Y-63429813D01*
X107417500Y-63479229D01*
X107417500Y-66499999D01*
X107417500Y-66592447D01*
X107408855Y-66621887D01*
X107402332Y-66651874D01*
X107398577Y-66656889D01*
X107397815Y-66659486D01*
X107381181Y-66680128D01*
X107367327Y-66693982D01*
X107306004Y-66727467D01*
X107236312Y-66722483D01*
X107191965Y-66693982D01*
X107178038Y-66680055D01*
X107178034Y-66680052D01*
X107031311Y-66589551D01*
X107031300Y-66589546D01*
X106867652Y-66535319D01*
X106766654Y-66525000D01*
X106667500Y-66525000D01*
X106667500Y-68474999D01*
X106766640Y-68474999D01*
X106766654Y-68474998D01*
X106867652Y-68464680D01*
X107031300Y-68410453D01*
X107031311Y-68410448D01*
X107178035Y-68319947D01*
X107191960Y-68306021D01*
X107199909Y-68301679D01*
X107205336Y-68294431D01*
X107230090Y-68285198D01*
X107253282Y-68272533D01*
X107262315Y-68273178D01*
X107270800Y-68270014D01*
X107296617Y-68275630D01*
X107322973Y-68277514D01*
X107332029Y-68283333D01*
X107339073Y-68284866D01*
X107367327Y-68306017D01*
X107381181Y-68319871D01*
X107414666Y-68381194D01*
X107417500Y-68407552D01*
X107417500Y-70376000D01*
X107397815Y-70443039D01*
X107345011Y-70488794D01*
X107293500Y-70500000D01*
X103325052Y-70500000D01*
X103258013Y-70480315D01*
X103237371Y-70463681D01*
X103223517Y-70449827D01*
X103190032Y-70388504D01*
X103195016Y-70318812D01*
X103223521Y-70274460D01*
X103237447Y-70260535D01*
X103327948Y-70113811D01*
X103327953Y-70113800D01*
X103382180Y-69950152D01*
X103392499Y-69849154D01*
X103392500Y-69849141D01*
X103392500Y-69750000D01*
X101442501Y-69750000D01*
X101442501Y-69849154D01*
X101452819Y-69950152D01*
X101507046Y-70113800D01*
X101507051Y-70113811D01*
X101597552Y-70260534D01*
X101597555Y-70260538D01*
X101611481Y-70274464D01*
X101615816Y-70282404D01*
X101623062Y-70287827D01*
X101632300Y-70312592D01*
X101644966Y-70335787D01*
X101644320Y-70344812D01*
X101647483Y-70353290D01*
X101641867Y-70379112D01*
X101639982Y-70405479D01*
X101634165Y-70414530D01*
X101632636Y-70421564D01*
X101611488Y-70449820D01*
X101597635Y-70463675D01*
X101536314Y-70497164D01*
X101509947Y-70500000D01*
X99083131Y-70500000D01*
X99016092Y-70480315D01*
X98970337Y-70427511D01*
X98960393Y-70358353D01*
X98989418Y-70294797D01*
X98995450Y-70288319D01*
X100421950Y-68861819D01*
X100483273Y-68828334D01*
X100509631Y-68825500D01*
X100617713Y-68825500D01*
X100617720Y-68825500D01*
X100730236Y-68810687D01*
X100730236Y-68810686D01*
X100738295Y-68809626D01*
X100738698Y-68812689D01*
X100771302Y-68812689D01*
X100771705Y-68809626D01*
X100779763Y-68810686D01*
X100779764Y-68810687D01*
X100892280Y-68825500D01*
X100892287Y-68825500D01*
X101117713Y-68825500D01*
X101117720Y-68825500D01*
X101230236Y-68810687D01*
X101230239Y-68810685D01*
X101235865Y-68809945D01*
X101235978Y-68809893D01*
X101236182Y-68809904D01*
X101238295Y-68809626D01*
X101238347Y-68810022D01*
X101251984Y-68810766D01*
X101271269Y-68809497D01*
X101279530Y-68810590D01*
X101279764Y-68810687D01*
X101372911Y-68822950D01*
X101405334Y-68837319D01*
X101436721Y-68851204D01*
X101436745Y-68851240D01*
X101436787Y-68851259D01*
X101456208Y-68880747D01*
X101475193Y-68909528D01*
X101475193Y-68909572D01*
X101475218Y-68909610D01*
X101475601Y-68943863D01*
X101476025Y-68979393D01*
X101476000Y-68979471D01*
X101476001Y-68979475D01*
X101475998Y-68979478D01*
X101474346Y-68984879D01*
X101452820Y-69049842D01*
X101452819Y-69049846D01*
X101442500Y-69150845D01*
X101442500Y-69250000D01*
X103392499Y-69250000D01*
X103392499Y-69150860D01*
X103392498Y-69150845D01*
X103382180Y-69049847D01*
X103328823Y-68888826D01*
X103326421Y-68818998D01*
X103362153Y-68758956D01*
X103371043Y-68751446D01*
X103490093Y-68660096D01*
X103582263Y-68539978D01*
X103640198Y-68400108D01*
X103640199Y-68400104D01*
X103654999Y-68287697D01*
X103655000Y-68287683D01*
X103655000Y-67786654D01*
X105380001Y-67786654D01*
X105390319Y-67887652D01*
X105444546Y-68051300D01*
X105444551Y-68051311D01*
X105535052Y-68198034D01*
X105535055Y-68198038D01*
X105656961Y-68319944D01*
X105656965Y-68319947D01*
X105803688Y-68410448D01*
X105803699Y-68410453D01*
X105967347Y-68464680D01*
X106068351Y-68474999D01*
X106167500Y-68474998D01*
X106167500Y-67750000D01*
X105380001Y-67750000D01*
X105380001Y-67786654D01*
X103655000Y-67786654D01*
X103655000Y-67737500D01*
X103279500Y-67737500D01*
X103270814Y-67734949D01*
X103261853Y-67736238D01*
X103237812Y-67725259D01*
X103212461Y-67717815D01*
X103206533Y-67710974D01*
X103198297Y-67707213D01*
X103184007Y-67684978D01*
X103166706Y-67665011D01*
X103164418Y-67654496D01*
X103160523Y-67648435D01*
X103155500Y-67613500D01*
X103155500Y-67561500D01*
X103175185Y-67494461D01*
X103227989Y-67448706D01*
X103279500Y-67437500D01*
X103655000Y-67437500D01*
X103655000Y-66949000D01*
X103674685Y-66881961D01*
X103727489Y-66836206D01*
X103779000Y-66825000D01*
X104267500Y-66825000D01*
X104267500Y-66449500D01*
X104270050Y-66440814D01*
X104268762Y-66431853D01*
X104279740Y-66407812D01*
X104287185Y-66382461D01*
X104294025Y-66376533D01*
X104297787Y-66368297D01*
X104320021Y-66354007D01*
X104339989Y-66336706D01*
X104350503Y-66334418D01*
X104356565Y-66330523D01*
X104391500Y-66325500D01*
X104443500Y-66325500D01*
X104510539Y-66345185D01*
X104556294Y-66397989D01*
X104567500Y-66449500D01*
X104567500Y-66825000D01*
X105117683Y-66825000D01*
X105117697Y-66824999D01*
X105230102Y-66810200D01*
X105281440Y-66788935D01*
X105350910Y-66781466D01*
X105413389Y-66812740D01*
X105449042Y-66872829D01*
X105446600Y-66942499D01*
X105390319Y-67112345D01*
X105390319Y-67112346D01*
X105380000Y-67213345D01*
X105380000Y-67250000D01*
X106167500Y-67250000D01*
X106167500Y-66524999D01*
X106068360Y-66525000D01*
X106068344Y-66525001D01*
X105967347Y-66535319D01*
X105803699Y-66589546D01*
X105797149Y-66592601D01*
X105796425Y-66591048D01*
X105737725Y-66607107D01*
X105671063Y-66586181D01*
X105626296Y-66532537D01*
X105617638Y-66463206D01*
X105625466Y-66435675D01*
X105640199Y-66400105D01*
X105640199Y-66400103D01*
X105650088Y-66325000D01*
X105615635Y-66325000D01*
X105602011Y-66320999D01*
X105587837Y-66321844D01*
X105569152Y-66311351D01*
X105548596Y-66305315D01*
X105539298Y-66294585D01*
X105526917Y-66287632D01*
X105516871Y-66268703D01*
X105502841Y-66252511D01*
X105500820Y-66238456D01*
X105494164Y-66225914D01*
X105495946Y-66204562D01*
X105492897Y-66183353D01*
X105498908Y-66169079D01*
X105499977Y-66156287D01*
X105517259Y-66125514D01*
X105557160Y-66073514D01*
X105613588Y-66032311D01*
X105649105Y-66026120D01*
X105650088Y-66024999D01*
X105639196Y-65942270D01*
X105639331Y-65908904D01*
X105640470Y-65900758D01*
X105640687Y-65900236D01*
X105642976Y-65882843D01*
X105643050Y-65882320D01*
X105657228Y-65850959D01*
X105671182Y-65819417D01*
X105671618Y-65819129D01*
X105671833Y-65818654D01*
X105700734Y-65799924D01*
X105729507Y-65780947D01*
X105730173Y-65780847D01*
X105730467Y-65780657D01*
X105731467Y-65780653D01*
X105765854Y-65775500D01*
X105837734Y-65775500D01*
X105904773Y-65795185D01*
X105906625Y-65796398D01*
X106038314Y-65884390D01*
X106038327Y-65884397D01*
X106118898Y-65917770D01*
X106184003Y-65944737D01*
X106338653Y-65975499D01*
X106338656Y-65975500D01*
X106338658Y-65975500D01*
X106496344Y-65975500D01*
X106496345Y-65975499D01*
X106650997Y-65944737D01*
X106763666Y-65898067D01*
X106796672Y-65884397D01*
X106796672Y-65884396D01*
X106796679Y-65884394D01*
X106927789Y-65796789D01*
X107039289Y-65685289D01*
X107126894Y-65554179D01*
X107187237Y-65408497D01*
X107218000Y-65253842D01*
X107218000Y-65096158D01*
X107218000Y-65096155D01*
X107217999Y-65096153D01*
X107187238Y-64941510D01*
X107187237Y-64941503D01*
X107161021Y-64878211D01*
X107126897Y-64795827D01*
X107126890Y-64795814D01*
X107039289Y-64664711D01*
X107039286Y-64664707D01*
X106927792Y-64553213D01*
X106927788Y-64553210D01*
X106796685Y-64465609D01*
X106796672Y-64465602D01*
X106651001Y-64405264D01*
X106650989Y-64405261D01*
X106496345Y-64374500D01*
X106496342Y-64374500D01*
X106338658Y-64374500D01*
X106338655Y-64374500D01*
X106184010Y-64405261D01*
X106183998Y-64405264D01*
X106038327Y-64465602D01*
X106038314Y-64465609D01*
X105906625Y-64553602D01*
X105888578Y-64559252D01*
X105872669Y-64569477D01*
X105841707Y-64573928D01*
X105839947Y-64574480D01*
X105837734Y-64574500D01*
X105765854Y-64574500D01*
X105698815Y-64554815D01*
X105653060Y-64502011D01*
X105642915Y-64466687D01*
X105639626Y-64441707D01*
X105642689Y-64441303D01*
X105642689Y-64408698D01*
X105639626Y-64408295D01*
X105646905Y-64353006D01*
X105655500Y-64287720D01*
X105655500Y-64062280D01*
X105640687Y-63949764D01*
X105640686Y-63949763D01*
X105639626Y-63941705D01*
X105642689Y-63941301D01*
X105642689Y-63908698D01*
X105639626Y-63908295D01*
X105643460Y-63879172D01*
X105655500Y-63787720D01*
X105655500Y-63562280D01*
X105642555Y-63463953D01*
X105653320Y-63394918D01*
X105699700Y-63342662D01*
X105766969Y-63323777D01*
X105830592Y-63342230D01*
X105941192Y-63410450D01*
X105941199Y-63410453D01*
X106104847Y-63464680D01*
X106205851Y-63474999D01*
X106305000Y-63474998D01*
X106305000Y-61548450D01*
X106324685Y-61481411D01*
X106341314Y-61460774D01*
X107005464Y-60796625D01*
X107005468Y-60796623D01*
X107092593Y-60709498D01*
X107143991Y-60632574D01*
X107161047Y-60607050D01*
X107178939Y-60563853D01*
X107222779Y-60509452D01*
X107289073Y-60487386D01*
X107356772Y-60504665D01*
G37*
%TD.AperFunction*%
%TA.AperFunction,Conductor*%
G36*
X92622703Y-63707270D02*
G01*
X92656061Y-63753531D01*
X92708102Y-63879172D01*
X92708109Y-63879185D01*
X92795710Y-64010288D01*
X92795713Y-64010292D01*
X92907207Y-64121786D01*
X92907211Y-64121789D01*
X93038314Y-64209390D01*
X93038327Y-64209397D01*
X93183998Y-64269735D01*
X93184003Y-64269737D01*
X93338653Y-64300499D01*
X93338656Y-64300500D01*
X93493000Y-64300500D01*
X93501665Y-64303044D01*
X93510605Y-64301756D01*
X93534668Y-64312735D01*
X93560039Y-64320185D01*
X93565951Y-64327008D01*
X93574171Y-64330759D01*
X93588478Y-64353006D01*
X93605794Y-64372989D01*
X93608078Y-64383481D01*
X93611965Y-64389525D01*
X93616982Y-64424376D01*
X93617000Y-64424458D01*
X93617000Y-64578842D01*
X93617052Y-64579107D01*
X93617055Y-64585459D01*
X93608839Y-64613473D01*
X93603356Y-64642156D01*
X93599121Y-64646610D01*
X93597393Y-64652505D01*
X93575334Y-64671632D01*
X93555216Y-64692795D01*
X93547626Y-64695657D01*
X93544605Y-64698278D01*
X93538254Y-64699193D01*
X93517247Y-64707118D01*
X93400900Y-64730261D01*
X93400890Y-64730264D01*
X93255219Y-64790602D01*
X93255206Y-64790609D01*
X93124103Y-64878210D01*
X93124099Y-64878213D01*
X93012605Y-64989707D01*
X93012602Y-64989711D01*
X92925001Y-65120814D01*
X92924994Y-65120827D01*
X92864656Y-65266498D01*
X92864653Y-65266510D01*
X92833892Y-65421153D01*
X92833892Y-65578846D01*
X92864653Y-65733489D01*
X92864656Y-65733501D01*
X92924994Y-65879172D01*
X92925001Y-65879185D01*
X93012602Y-66010288D01*
X93012604Y-66010291D01*
X93030679Y-66028365D01*
X93064166Y-66089687D01*
X93067000Y-66116048D01*
X93067000Y-66526968D01*
X93047315Y-66594007D01*
X93008097Y-66632506D01*
X92931653Y-66679657D01*
X92931649Y-66679660D01*
X92809661Y-66801648D01*
X92719093Y-66948481D01*
X92719091Y-66948486D01*
X92664826Y-67112248D01*
X92663408Y-67118871D01*
X92662138Y-67118599D01*
X92638462Y-67176625D01*
X92581281Y-67216777D01*
X92511470Y-67219640D01*
X92451193Y-67184306D01*
X92419588Y-67121993D01*
X92417500Y-67099331D01*
X92417500Y-63800983D01*
X92437185Y-63733944D01*
X92489989Y-63688189D01*
X92559147Y-63678245D01*
X92622703Y-63707270D01*
G37*
%TD.AperFunction*%
%TA.AperFunction,Conductor*%
G36*
X92622703Y-62707270D02*
G01*
X92656061Y-62753531D01*
X92708102Y-62879172D01*
X92708109Y-62879185D01*
X92742804Y-62931109D01*
X92746395Y-62942577D01*
X92753990Y-62951893D01*
X92756642Y-62975304D01*
X92763682Y-62997786D01*
X92760699Y-63011108D01*
X92761856Y-63021319D01*
X92754047Y-63040816D01*
X92750901Y-63054870D01*
X92747308Y-63062149D01*
X92708106Y-63120821D01*
X92654505Y-63250224D01*
X92652699Y-63253886D01*
X92631689Y-63276711D01*
X92612220Y-63300872D01*
X92608229Y-63302200D01*
X92605382Y-63305294D01*
X92575368Y-63313137D01*
X92545926Y-63322937D01*
X92541850Y-63321896D01*
X92537782Y-63322960D01*
X92508287Y-63313330D01*
X92478227Y-63305658D01*
X92475361Y-63302580D01*
X92471363Y-63301275D01*
X92451755Y-63277226D01*
X92430616Y-63254521D01*
X92429543Y-63249982D01*
X92427212Y-63247123D01*
X92425686Y-63233661D01*
X92417500Y-63199016D01*
X92417500Y-62800983D01*
X92437185Y-62733944D01*
X92489989Y-62688189D01*
X92559147Y-62678245D01*
X92622703Y-62707270D01*
G37*
%TD.AperFunction*%
%TA.AperFunction,Conductor*%
G36*
X92622703Y-60707270D02*
G01*
X92656061Y-60753531D01*
X92708102Y-60879172D01*
X92708109Y-60879185D01*
X92795710Y-61010288D01*
X92795713Y-61010292D01*
X92907207Y-61121786D01*
X92907211Y-61121789D01*
X93038314Y-61209390D01*
X93038327Y-61209397D01*
X93168960Y-61263506D01*
X93184003Y-61269737D01*
X93311938Y-61295185D01*
X93338653Y-61300499D01*
X93338656Y-61300500D01*
X93338658Y-61300500D01*
X93496344Y-61300500D01*
X93496345Y-61300499D01*
X93650997Y-61269737D01*
X93796679Y-61209394D01*
X93796685Y-61209390D01*
X93928375Y-61121398D01*
X93946421Y-61115747D01*
X93962331Y-61105523D01*
X93993292Y-61101071D01*
X93995053Y-61100520D01*
X93997266Y-61100500D01*
X94117402Y-61100500D01*
X94184441Y-61120185D01*
X94205083Y-61136819D01*
X94223784Y-61155520D01*
X94223786Y-61155521D01*
X94223790Y-61155524D01*
X94360709Y-61234573D01*
X94360716Y-61234577D01*
X94468681Y-61263506D01*
X94513442Y-61275500D01*
X94513443Y-61275500D01*
X94744146Y-61275500D01*
X94744713Y-61275666D01*
X94745283Y-61275505D01*
X94778209Y-61285502D01*
X94811185Y-61295185D01*
X94811572Y-61295631D01*
X94812139Y-61295804D01*
X94834451Y-61322035D01*
X94856940Y-61347989D01*
X94857152Y-61348724D01*
X94857408Y-61349025D01*
X94864802Y-61375226D01*
X94867041Y-61382979D01*
X94869313Y-61400236D01*
X94869383Y-61400407D01*
X94870469Y-61408479D01*
X94867399Y-61428523D01*
X94867399Y-61441316D01*
X94870374Y-61441708D01*
X94854500Y-61562272D01*
X94854500Y-61787727D01*
X94870374Y-61908292D01*
X94867399Y-61908683D01*
X94867399Y-61941316D01*
X94870374Y-61941708D01*
X94854500Y-62062272D01*
X94854500Y-62287727D01*
X94870085Y-62406100D01*
X94870145Y-62406228D01*
X94870132Y-62406457D01*
X94870374Y-62408292D01*
X94870030Y-62408337D01*
X94869263Y-62422500D01*
X94870469Y-62441521D01*
X94869383Y-62449592D01*
X94869313Y-62449764D01*
X94867044Y-62466994D01*
X94867041Y-62467021D01*
X94852849Y-62498865D01*
X94838817Y-62530584D01*
X94838671Y-62530680D01*
X94838600Y-62530840D01*
X94809494Y-62549924D01*
X94780491Y-62569054D01*
X94780268Y-62569087D01*
X94780170Y-62569152D01*
X94779815Y-62569155D01*
X94744146Y-62574500D01*
X94392597Y-62574500D01*
X94325558Y-62554815D01*
X94304916Y-62538181D01*
X94252074Y-62485339D01*
X94218589Y-62424016D01*
X94218138Y-62421849D01*
X94194073Y-62300872D01*
X94187237Y-62266503D01*
X94165210Y-62213324D01*
X94126897Y-62120827D01*
X94126890Y-62120814D01*
X94039289Y-61989711D01*
X94039286Y-61989707D01*
X93927792Y-61878213D01*
X93927788Y-61878210D01*
X93796685Y-61790609D01*
X93796672Y-61790602D01*
X93651001Y-61730264D01*
X93650989Y-61730261D01*
X93496345Y-61699500D01*
X93496342Y-61699500D01*
X93338658Y-61699500D01*
X93338655Y-61699500D01*
X93184010Y-61730261D01*
X93183998Y-61730264D01*
X93038327Y-61790602D01*
X93038314Y-61790609D01*
X92907211Y-61878210D01*
X92907207Y-61878213D01*
X92795713Y-61989707D01*
X92795710Y-61989711D01*
X92708109Y-62120814D01*
X92708104Y-62120823D01*
X92656061Y-62246469D01*
X92612220Y-62300872D01*
X92545926Y-62322937D01*
X92478227Y-62305658D01*
X92430616Y-62254521D01*
X92417500Y-62199016D01*
X92417500Y-60800983D01*
X92437185Y-60733944D01*
X92489989Y-60688189D01*
X92559147Y-60678245D01*
X92622703Y-60707270D01*
G37*
%TD.AperFunction*%
%TA.AperFunction,Conductor*%
G36*
X94505310Y-57519685D02*
G01*
X94551065Y-57572489D01*
X94561009Y-57641647D01*
X94543809Y-57689098D01*
X94507049Y-57748692D01*
X94507046Y-57748699D01*
X94452819Y-57912347D01*
X94442500Y-58013345D01*
X94442500Y-58112500D01*
X96392499Y-58112500D01*
X96392499Y-58013360D01*
X96392498Y-58013345D01*
X96382180Y-57912347D01*
X96327953Y-57748699D01*
X96327950Y-57748692D01*
X96291191Y-57689098D01*
X96272750Y-57621706D01*
X96293672Y-57555042D01*
X96347313Y-57510272D01*
X96396729Y-57500000D01*
X98280500Y-57500000D01*
X98347539Y-57519685D01*
X98393294Y-57572489D01*
X98404500Y-57624000D01*
X98404500Y-57914146D01*
X98404333Y-57914713D01*
X98404495Y-57915283D01*
X98394497Y-57948209D01*
X98384815Y-57981185D01*
X98384368Y-57981572D01*
X98384196Y-57982139D01*
X98357964Y-58004451D01*
X98332011Y-58026940D01*
X98331275Y-58027152D01*
X98330975Y-58027408D01*
X98304773Y-58034802D01*
X98297021Y-58037041D01*
X98296994Y-58037044D01*
X98279764Y-58039313D01*
X98279592Y-58039383D01*
X98271521Y-58040469D01*
X98251477Y-58037399D01*
X98238684Y-58037399D01*
X98238292Y-58040374D01*
X98230237Y-58039313D01*
X98230236Y-58039313D01*
X98195972Y-58034802D01*
X98117727Y-58024500D01*
X98117720Y-58024500D01*
X97892280Y-58024500D01*
X97892272Y-58024500D01*
X97790265Y-58037930D01*
X97790263Y-58037930D01*
X97779764Y-58039313D01*
X97639767Y-58097302D01*
X97596200Y-58130731D01*
X97596196Y-58130734D01*
X97554486Y-58162740D01*
X97489317Y-58187934D01*
X97420872Y-58173896D01*
X97370883Y-58125082D01*
X97355000Y-58064364D01*
X97355000Y-58029911D01*
X97354999Y-58029911D01*
X97279896Y-58039800D01*
X97279891Y-58039801D01*
X97140021Y-58097736D01*
X97019905Y-58189905D01*
X96927736Y-58310021D01*
X96869801Y-58449891D01*
X96869800Y-58449895D01*
X96855000Y-58562302D01*
X96855000Y-59112500D01*
X97230500Y-59112500D01*
X97239185Y-59115050D01*
X97248147Y-59113762D01*
X97272187Y-59124740D01*
X97297539Y-59132185D01*
X97303466Y-59139025D01*
X97311703Y-59142787D01*
X97325992Y-59165021D01*
X97343294Y-59184989D01*
X97345581Y-59195503D01*
X97349477Y-59201565D01*
X97354500Y-59236500D01*
X97354500Y-59288500D01*
X97334815Y-59355539D01*
X97282011Y-59401294D01*
X97230500Y-59412500D01*
X96855000Y-59412500D01*
X96855000Y-59900500D01*
X96835315Y-59967539D01*
X96782511Y-60013294D01*
X96731000Y-60024500D01*
X95392272Y-60024500D01*
X95279764Y-60039313D01*
X95279763Y-60039313D01*
X95217604Y-60065061D01*
X95170151Y-60074500D01*
X94892598Y-60074500D01*
X94825559Y-60054815D01*
X94823796Y-60053662D01*
X94813593Y-60046857D01*
X94786216Y-60019480D01*
X94687904Y-59962720D01*
X94649285Y-59940423D01*
X94496557Y-59899499D01*
X94338443Y-59899499D01*
X94330847Y-59899499D01*
X94330831Y-59899500D01*
X93997266Y-59899500D01*
X93930227Y-59879815D01*
X93928375Y-59878602D01*
X93796685Y-59790609D01*
X93796672Y-59790602D01*
X93651001Y-59730264D01*
X93650989Y-59730261D01*
X93496345Y-59699500D01*
X93496342Y-59699500D01*
X93338658Y-59699500D01*
X93338655Y-59699500D01*
X93184010Y-59730261D01*
X93183998Y-59730264D01*
X93038327Y-59790602D01*
X93038314Y-59790609D01*
X92907211Y-59878210D01*
X92907207Y-59878213D01*
X92795713Y-59989707D01*
X92795710Y-59989711D01*
X92708109Y-60120814D01*
X92708104Y-60120823D01*
X92656061Y-60246469D01*
X92612220Y-60300872D01*
X92545926Y-60322937D01*
X92478227Y-60305658D01*
X92430616Y-60254521D01*
X92417500Y-60199016D01*
X92417500Y-58711654D01*
X94442501Y-58711654D01*
X94452819Y-58812652D01*
X94507046Y-58976300D01*
X94507051Y-58976311D01*
X94597552Y-59123034D01*
X94597555Y-59123038D01*
X94719461Y-59244944D01*
X94719465Y-59244947D01*
X94866188Y-59335448D01*
X94866199Y-59335453D01*
X95029847Y-59389680D01*
X95130852Y-59399999D01*
X95167500Y-59399999D01*
X95667500Y-59399999D01*
X95704140Y-59399999D01*
X95704154Y-59399998D01*
X95805152Y-59389680D01*
X95968800Y-59335453D01*
X95968811Y-59335448D01*
X96115534Y-59244947D01*
X96115538Y-59244944D01*
X96237444Y-59123038D01*
X96237447Y-59123034D01*
X96327948Y-58976311D01*
X96327953Y-58976300D01*
X96382180Y-58812652D01*
X96392499Y-58711654D01*
X96392500Y-58711641D01*
X96392500Y-58612500D01*
X95667500Y-58612500D01*
X95667500Y-59399999D01*
X95167500Y-59399999D01*
X95167500Y-58612500D01*
X94442501Y-58612500D01*
X94442501Y-58711654D01*
X92417500Y-58711654D01*
X92417500Y-57624000D01*
X92437185Y-57556961D01*
X92489989Y-57511206D01*
X92541500Y-57500000D01*
X94438271Y-57500000D01*
X94505310Y-57519685D01*
G37*
%TD.AperFunction*%
%TD*%
%TA.AperFunction,Conductor*%
%TO.N,GNDD*%
G36*
X100506442Y-61442185D02*
G01*
X100527084Y-61458819D01*
X100582925Y-61514660D01*
X100616410Y-61575983D01*
X100616861Y-61578149D01*
X100647761Y-61733491D01*
X100647764Y-61733501D01*
X100708102Y-61879172D01*
X100708109Y-61879185D01*
X100795710Y-62010288D01*
X100795713Y-62010292D01*
X100907207Y-62121786D01*
X100907211Y-62121789D01*
X101038314Y-62209390D01*
X101038327Y-62209397D01*
X101183998Y-62269735D01*
X101184003Y-62269737D01*
X101338653Y-62300499D01*
X101338656Y-62300500D01*
X101338658Y-62300500D01*
X101496344Y-62300500D01*
X101496345Y-62300499D01*
X101650997Y-62269737D01*
X101796679Y-62209394D01*
X101927789Y-62121789D01*
X102039289Y-62010289D01*
X102126894Y-61879179D01*
X102187237Y-61733497D01*
X102218000Y-61578842D01*
X102218000Y-61546500D01*
X102220550Y-61537814D01*
X102219262Y-61528853D01*
X102230240Y-61504812D01*
X102237685Y-61479461D01*
X102244525Y-61473533D01*
X102248287Y-61465297D01*
X102270521Y-61451007D01*
X102290489Y-61433706D01*
X102301003Y-61431418D01*
X102307065Y-61427523D01*
X102342000Y-61422500D01*
X102439403Y-61422500D01*
X102506442Y-61442185D01*
X102527084Y-61458819D01*
X102968681Y-61900416D01*
X103002166Y-61961739D01*
X103005000Y-61988097D01*
X103005000Y-62744561D01*
X102985315Y-62811600D01*
X102932511Y-62857355D01*
X102928453Y-62859122D01*
X102800823Y-62911987D01*
X102800814Y-62911992D01*
X102669711Y-62999593D01*
X102669707Y-62999596D01*
X102558213Y-63111090D01*
X102558210Y-63111094D01*
X102470609Y-63242197D01*
X102470602Y-63242210D01*
X102410264Y-63387881D01*
X102410261Y-63387893D01*
X102379500Y-63542536D01*
X102379500Y-63700229D01*
X102410261Y-63854872D01*
X102410264Y-63854884D01*
X102470602Y-64000555D01*
X102470609Y-64000568D01*
X102558210Y-64131671D01*
X102558213Y-64131675D01*
X102669707Y-64243169D01*
X102669711Y-64243172D01*
X102800814Y-64330773D01*
X102800827Y-64330780D01*
X102928452Y-64383643D01*
X102982856Y-64427483D01*
X103004921Y-64493777D01*
X103005000Y-64498204D01*
X103005000Y-66225973D01*
X102985315Y-66293012D01*
X102932511Y-66338767D01*
X102896168Y-66347933D01*
X102896305Y-66348970D01*
X102779764Y-66364313D01*
X102779763Y-66364313D01*
X102662076Y-66413061D01*
X102653898Y-66414687D01*
X102649558Y-66417477D01*
X102614623Y-66422500D01*
X102395377Y-66422500D01*
X102347924Y-66413061D01*
X102232797Y-66365374D01*
X102230236Y-66364313D01*
X102215698Y-66362399D01*
X102117727Y-66349500D01*
X102117720Y-66349500D01*
X101892280Y-66349500D01*
X101892272Y-66349500D01*
X101805506Y-66360924D01*
X101779764Y-66364313D01*
X101779762Y-66364313D01*
X101771708Y-66365374D01*
X101771316Y-66362399D01*
X101738684Y-66362399D01*
X101738292Y-66365374D01*
X101730237Y-66364313D01*
X101730236Y-66364313D01*
X101701271Y-66360499D01*
X101617727Y-66349500D01*
X101617720Y-66349500D01*
X101392280Y-66349500D01*
X101392272Y-66349500D01*
X101305506Y-66360924D01*
X101279764Y-66364313D01*
X101279762Y-66364313D01*
X101271708Y-66365374D01*
X101271316Y-66362399D01*
X101238684Y-66362399D01*
X101238292Y-66365374D01*
X101230237Y-66364313D01*
X101230236Y-66364313D01*
X101201271Y-66360499D01*
X101117727Y-66349500D01*
X101117720Y-66349500D01*
X100892280Y-66349500D01*
X100892272Y-66349500D01*
X100805506Y-66360924D01*
X100779764Y-66364313D01*
X100779762Y-66364313D01*
X100771708Y-66365374D01*
X100771316Y-66362399D01*
X100738684Y-66362399D01*
X100738292Y-66365374D01*
X100730237Y-66364313D01*
X100730236Y-66364313D01*
X100701271Y-66360499D01*
X100617727Y-66349500D01*
X100617720Y-66349500D01*
X100392280Y-66349500D01*
X100392272Y-66349500D01*
X100305506Y-66360924D01*
X100279764Y-66364313D01*
X100279762Y-66364313D01*
X100271708Y-66365374D01*
X100271316Y-66362399D01*
X100238684Y-66362399D01*
X100238292Y-66365374D01*
X100230237Y-66364313D01*
X100230236Y-66364313D01*
X100201271Y-66360499D01*
X100117727Y-66349500D01*
X100117720Y-66349500D01*
X99892280Y-66349500D01*
X99892272Y-66349500D01*
X99805506Y-66360924D01*
X99779764Y-66364313D01*
X99779762Y-66364313D01*
X99771708Y-66365374D01*
X99771316Y-66362399D01*
X99738684Y-66362399D01*
X99738292Y-66365374D01*
X99730237Y-66364313D01*
X99730236Y-66364313D01*
X99701271Y-66360499D01*
X99617727Y-66349500D01*
X99617720Y-66349500D01*
X99392280Y-66349500D01*
X99392272Y-66349500D01*
X99305506Y-66360924D01*
X99279764Y-66364313D01*
X99279762Y-66364313D01*
X99271708Y-66365374D01*
X99271316Y-66362399D01*
X99238684Y-66362399D01*
X99238292Y-66365374D01*
X99230237Y-66364313D01*
X99230236Y-66364313D01*
X99201271Y-66360499D01*
X99117727Y-66349500D01*
X99117720Y-66349500D01*
X98892280Y-66349500D01*
X98892272Y-66349500D01*
X98805506Y-66360924D01*
X98779764Y-66364313D01*
X98779762Y-66364313D01*
X98771708Y-66365374D01*
X98771316Y-66362399D01*
X98738684Y-66362399D01*
X98738292Y-66365374D01*
X98730237Y-66364313D01*
X98730236Y-66364313D01*
X98701271Y-66360499D01*
X98617727Y-66349500D01*
X98617720Y-66349500D01*
X98426480Y-66349500D01*
X98359441Y-66329815D01*
X98313686Y-66277011D01*
X98304863Y-66249692D01*
X98274738Y-66098247D01*
X98274737Y-66098246D01*
X98274737Y-66098242D01*
X98274735Y-66098237D01*
X98214397Y-65952566D01*
X98214390Y-65952553D01*
X98126789Y-65821450D01*
X98126786Y-65821446D01*
X98041319Y-65735979D01*
X98007834Y-65674656D01*
X98005000Y-65648298D01*
X98005000Y-61546500D01*
X98024685Y-61479461D01*
X98077489Y-61433706D01*
X98129000Y-61422500D01*
X100439403Y-61422500D01*
X100506442Y-61442185D01*
G37*
%TD.AperFunction*%
%TD*%
%TA.AperFunction,Conductor*%
%TO.N,GNDD*%
G36*
X138360539Y-56519685D02*
G01*
X138406294Y-56572489D01*
X138417500Y-56624000D01*
X138417500Y-68376000D01*
X138397815Y-68443039D01*
X138345011Y-68488794D01*
X138293500Y-68500000D01*
X130450883Y-68500000D01*
X130383844Y-68480315D01*
X130363202Y-68463681D01*
X129818467Y-67918946D01*
X129784982Y-67857623D01*
X129784531Y-67855456D01*
X129753631Y-67700117D01*
X129753630Y-67700110D01*
X129753628Y-67700105D01*
X129693290Y-67554434D01*
X129693283Y-67554421D01*
X129605682Y-67423318D01*
X129605679Y-67423314D01*
X129494185Y-67311820D01*
X129494181Y-67311817D01*
X129363078Y-67224216D01*
X129363065Y-67224209D01*
X129217394Y-67163871D01*
X129217382Y-67163868D01*
X129062738Y-67133107D01*
X129062735Y-67133107D01*
X128905051Y-67133107D01*
X128905048Y-67133107D01*
X128750403Y-67163868D01*
X128750391Y-67163871D01*
X128604720Y-67224209D01*
X128604707Y-67224216D01*
X128473604Y-67311817D01*
X128473600Y-67311820D01*
X128362106Y-67423314D01*
X128362103Y-67423318D01*
X128274502Y-67554421D01*
X128274495Y-67554434D01*
X128214157Y-67700105D01*
X128214154Y-67700117D01*
X128183393Y-67854760D01*
X128183393Y-68012453D01*
X128214154Y-68167096D01*
X128214157Y-68167108D01*
X128274497Y-68312783D01*
X128277044Y-68317548D01*
X128291285Y-68385951D01*
X128266284Y-68451195D01*
X128209978Y-68492565D01*
X128167685Y-68500000D01*
X124541500Y-68500000D01*
X124474461Y-68480315D01*
X124428706Y-68427511D01*
X124417500Y-68376000D01*
X124417500Y-56624000D01*
X124437185Y-56556961D01*
X124489989Y-56511206D01*
X124541500Y-56500000D01*
X138293500Y-56500000D01*
X138360539Y-56519685D01*
G37*
%TD.AperFunction*%
%TD*%
%TA.AperFunction,Conductor*%
%TO.N,+3V3*%
G36*
X107417501Y-63500001D02*
G01*
X109348954Y-64465727D01*
X109400113Y-64513314D01*
X109417500Y-64576636D01*
X109417500Y-65423363D01*
X109397815Y-65490402D01*
X109348955Y-65534272D01*
X107417500Y-66499999D01*
X107417500Y-63500000D01*
X107417501Y-63500001D01*
G37*
%TD.AperFunction*%
%TD*%
M02*
