%TF.GenerationSoftware,KiCad,Pcbnew,9.0.1*%
%TF.CreationDate,2025-07-28T02:39:42+03:00*%
%TF.ProjectId,FlameSensorSender,466c616d-6553-4656-9e73-6f7253656e64,1*%
%TF.SameCoordinates,Original*%
%TF.FileFunction,Legend,Top*%
%TF.FilePolarity,Positive*%
%FSLAX46Y46*%
G04 Gerber Fmt 4.6, Leading zero omitted, Abs format (unit mm)*
G04 Created by KiCad (PCBNEW 9.0.1) date 2025-07-28 02:39:42*
%MOMM*%
%LPD*%
G01*
G04 APERTURE LIST*
%ADD10C,0.100000*%
%ADD11C,0.150000*%
%ADD12C,0.300000*%
%ADD13C,0.400000*%
%ADD14C,0.120000*%
%ADD15C,0.127000*%
%ADD16C,0.200000*%
G04 APERTURE END LIST*
D10*
D11*
X90007200Y-253002200D02*
X198007200Y-253002200D01*
X198007200Y-285002200D01*
X90007200Y-285002200D01*
X90007200Y-253002200D01*
D10*
D11*
X10000000Y-10000000D02*
X200007200Y-10000000D01*
X200007200Y-287002200D01*
X10000000Y-287002200D01*
X10000000Y-10000000D01*
D10*
D11*
X12000000Y-12000000D02*
X198007200Y-12000000D01*
X198007200Y-285002200D01*
X12000000Y-285002200D01*
X12000000Y-12000000D01*
D10*
D11*
X60000000Y-12000000D02*
X60000000Y-10000000D01*
D10*
D11*
X110000000Y-12000000D02*
X110000000Y-10000000D01*
D10*
D11*
X160000000Y-12000000D02*
X160000000Y-10000000D01*
D10*
D11*
X36089160Y-11593604D02*
X35346303Y-11593604D01*
X35717731Y-11593604D02*
X35717731Y-10293604D01*
X35717731Y-10293604D02*
X35593922Y-10479319D01*
X35593922Y-10479319D02*
X35470112Y-10603128D01*
X35470112Y-10603128D02*
X35346303Y-10665033D01*
D10*
D11*
X85346303Y-10417414D02*
X85408207Y-10355509D01*
X85408207Y-10355509D02*
X85532017Y-10293604D01*
X85532017Y-10293604D02*
X85841541Y-10293604D01*
X85841541Y-10293604D02*
X85965350Y-10355509D01*
X85965350Y-10355509D02*
X86027255Y-10417414D01*
X86027255Y-10417414D02*
X86089160Y-10541223D01*
X86089160Y-10541223D02*
X86089160Y-10665033D01*
X86089160Y-10665033D02*
X86027255Y-10850747D01*
X86027255Y-10850747D02*
X85284398Y-11593604D01*
X85284398Y-11593604D02*
X86089160Y-11593604D01*
D10*
D11*
X135284398Y-10293604D02*
X136089160Y-10293604D01*
X136089160Y-10293604D02*
X135655826Y-10788842D01*
X135655826Y-10788842D02*
X135841541Y-10788842D01*
X135841541Y-10788842D02*
X135965350Y-10850747D01*
X135965350Y-10850747D02*
X136027255Y-10912652D01*
X136027255Y-10912652D02*
X136089160Y-11036461D01*
X136089160Y-11036461D02*
X136089160Y-11345985D01*
X136089160Y-11345985D02*
X136027255Y-11469795D01*
X136027255Y-11469795D02*
X135965350Y-11531700D01*
X135965350Y-11531700D02*
X135841541Y-11593604D01*
X135841541Y-11593604D02*
X135470112Y-11593604D01*
X135470112Y-11593604D02*
X135346303Y-11531700D01*
X135346303Y-11531700D02*
X135284398Y-11469795D01*
D10*
D11*
X185965350Y-10726938D02*
X185965350Y-11593604D01*
X185655826Y-10231700D02*
X185346303Y-11160271D01*
X185346303Y-11160271D02*
X186151064Y-11160271D01*
D10*
D11*
X60000000Y-285002200D02*
X60000000Y-287002200D01*
D10*
D11*
X110000000Y-285002200D02*
X110000000Y-287002200D01*
D10*
D11*
X160000000Y-285002200D02*
X160000000Y-287002200D01*
D10*
D11*
X36089160Y-286595804D02*
X35346303Y-286595804D01*
X35717731Y-286595804D02*
X35717731Y-285295804D01*
X35717731Y-285295804D02*
X35593922Y-285481519D01*
X35593922Y-285481519D02*
X35470112Y-285605328D01*
X35470112Y-285605328D02*
X35346303Y-285667233D01*
D10*
D11*
X85346303Y-285419614D02*
X85408207Y-285357709D01*
X85408207Y-285357709D02*
X85532017Y-285295804D01*
X85532017Y-285295804D02*
X85841541Y-285295804D01*
X85841541Y-285295804D02*
X85965350Y-285357709D01*
X85965350Y-285357709D02*
X86027255Y-285419614D01*
X86027255Y-285419614D02*
X86089160Y-285543423D01*
X86089160Y-285543423D02*
X86089160Y-285667233D01*
X86089160Y-285667233D02*
X86027255Y-285852947D01*
X86027255Y-285852947D02*
X85284398Y-286595804D01*
X85284398Y-286595804D02*
X86089160Y-286595804D01*
D10*
D11*
X135284398Y-285295804D02*
X136089160Y-285295804D01*
X136089160Y-285295804D02*
X135655826Y-285791042D01*
X135655826Y-285791042D02*
X135841541Y-285791042D01*
X135841541Y-285791042D02*
X135965350Y-285852947D01*
X135965350Y-285852947D02*
X136027255Y-285914852D01*
X136027255Y-285914852D02*
X136089160Y-286038661D01*
X136089160Y-286038661D02*
X136089160Y-286348185D01*
X136089160Y-286348185D02*
X136027255Y-286471995D01*
X136027255Y-286471995D02*
X135965350Y-286533900D01*
X135965350Y-286533900D02*
X135841541Y-286595804D01*
X135841541Y-286595804D02*
X135470112Y-286595804D01*
X135470112Y-286595804D02*
X135346303Y-286533900D01*
X135346303Y-286533900D02*
X135284398Y-286471995D01*
D10*
D11*
X185965350Y-285729138D02*
X185965350Y-286595804D01*
X185655826Y-285233900D02*
X185346303Y-286162471D01*
X185346303Y-286162471D02*
X186151064Y-286162471D01*
D10*
D11*
X10000000Y-60000000D02*
X12000000Y-60000000D01*
D10*
D11*
X10000000Y-110000000D02*
X12000000Y-110000000D01*
D10*
D11*
X10000000Y-160000000D02*
X12000000Y-160000000D01*
D10*
D11*
X10000000Y-210000000D02*
X12000000Y-210000000D01*
D10*
D11*
X10000000Y-260000000D02*
X12000000Y-260000000D01*
D10*
D11*
X10690476Y-35222176D02*
X11309523Y-35222176D01*
X10566666Y-35593604D02*
X10999999Y-34293604D01*
X10999999Y-34293604D02*
X11433333Y-35593604D01*
D10*
D11*
X11092857Y-84912652D02*
X11278571Y-84974557D01*
X11278571Y-84974557D02*
X11340476Y-85036461D01*
X11340476Y-85036461D02*
X11402380Y-85160271D01*
X11402380Y-85160271D02*
X11402380Y-85345985D01*
X11402380Y-85345985D02*
X11340476Y-85469795D01*
X11340476Y-85469795D02*
X11278571Y-85531700D01*
X11278571Y-85531700D02*
X11154761Y-85593604D01*
X11154761Y-85593604D02*
X10659523Y-85593604D01*
X10659523Y-85593604D02*
X10659523Y-84293604D01*
X10659523Y-84293604D02*
X11092857Y-84293604D01*
X11092857Y-84293604D02*
X11216666Y-84355509D01*
X11216666Y-84355509D02*
X11278571Y-84417414D01*
X11278571Y-84417414D02*
X11340476Y-84541223D01*
X11340476Y-84541223D02*
X11340476Y-84665033D01*
X11340476Y-84665033D02*
X11278571Y-84788842D01*
X11278571Y-84788842D02*
X11216666Y-84850747D01*
X11216666Y-84850747D02*
X11092857Y-84912652D01*
X11092857Y-84912652D02*
X10659523Y-84912652D01*
D10*
D11*
X11402380Y-135469795D02*
X11340476Y-135531700D01*
X11340476Y-135531700D02*
X11154761Y-135593604D01*
X11154761Y-135593604D02*
X11030952Y-135593604D01*
X11030952Y-135593604D02*
X10845238Y-135531700D01*
X10845238Y-135531700D02*
X10721428Y-135407890D01*
X10721428Y-135407890D02*
X10659523Y-135284080D01*
X10659523Y-135284080D02*
X10597619Y-135036461D01*
X10597619Y-135036461D02*
X10597619Y-134850747D01*
X10597619Y-134850747D02*
X10659523Y-134603128D01*
X10659523Y-134603128D02*
X10721428Y-134479319D01*
X10721428Y-134479319D02*
X10845238Y-134355509D01*
X10845238Y-134355509D02*
X11030952Y-134293604D01*
X11030952Y-134293604D02*
X11154761Y-134293604D01*
X11154761Y-134293604D02*
X11340476Y-134355509D01*
X11340476Y-134355509D02*
X11402380Y-134417414D01*
D10*
D11*
X10659523Y-185593604D02*
X10659523Y-184293604D01*
X10659523Y-184293604D02*
X10969047Y-184293604D01*
X10969047Y-184293604D02*
X11154761Y-184355509D01*
X11154761Y-184355509D02*
X11278571Y-184479319D01*
X11278571Y-184479319D02*
X11340476Y-184603128D01*
X11340476Y-184603128D02*
X11402380Y-184850747D01*
X11402380Y-184850747D02*
X11402380Y-185036461D01*
X11402380Y-185036461D02*
X11340476Y-185284080D01*
X11340476Y-185284080D02*
X11278571Y-185407890D01*
X11278571Y-185407890D02*
X11154761Y-185531700D01*
X11154761Y-185531700D02*
X10969047Y-185593604D01*
X10969047Y-185593604D02*
X10659523Y-185593604D01*
D10*
D11*
X10721428Y-234912652D02*
X11154762Y-234912652D01*
X11340476Y-235593604D02*
X10721428Y-235593604D01*
X10721428Y-235593604D02*
X10721428Y-234293604D01*
X10721428Y-234293604D02*
X11340476Y-234293604D01*
D10*
D11*
X11185714Y-284912652D02*
X10752380Y-284912652D01*
X10752380Y-285593604D02*
X10752380Y-284293604D01*
X10752380Y-284293604D02*
X11371428Y-284293604D01*
D10*
D11*
X200007200Y-60000000D02*
X198007200Y-60000000D01*
D10*
D11*
X200007200Y-110000000D02*
X198007200Y-110000000D01*
D10*
D11*
X200007200Y-160000000D02*
X198007200Y-160000000D01*
D10*
D11*
X200007200Y-210000000D02*
X198007200Y-210000000D01*
D10*
D11*
X200007200Y-260000000D02*
X198007200Y-260000000D01*
D10*
D11*
X198697676Y-35222176D02*
X199316723Y-35222176D01*
X198573866Y-35593604D02*
X199007199Y-34293604D01*
X199007199Y-34293604D02*
X199440533Y-35593604D01*
D10*
D11*
X199100057Y-84912652D02*
X199285771Y-84974557D01*
X199285771Y-84974557D02*
X199347676Y-85036461D01*
X199347676Y-85036461D02*
X199409580Y-85160271D01*
X199409580Y-85160271D02*
X199409580Y-85345985D01*
X199409580Y-85345985D02*
X199347676Y-85469795D01*
X199347676Y-85469795D02*
X199285771Y-85531700D01*
X199285771Y-85531700D02*
X199161961Y-85593604D01*
X199161961Y-85593604D02*
X198666723Y-85593604D01*
X198666723Y-85593604D02*
X198666723Y-84293604D01*
X198666723Y-84293604D02*
X199100057Y-84293604D01*
X199100057Y-84293604D02*
X199223866Y-84355509D01*
X199223866Y-84355509D02*
X199285771Y-84417414D01*
X199285771Y-84417414D02*
X199347676Y-84541223D01*
X199347676Y-84541223D02*
X199347676Y-84665033D01*
X199347676Y-84665033D02*
X199285771Y-84788842D01*
X199285771Y-84788842D02*
X199223866Y-84850747D01*
X199223866Y-84850747D02*
X199100057Y-84912652D01*
X199100057Y-84912652D02*
X198666723Y-84912652D01*
D10*
D11*
X199409580Y-135469795D02*
X199347676Y-135531700D01*
X199347676Y-135531700D02*
X199161961Y-135593604D01*
X199161961Y-135593604D02*
X199038152Y-135593604D01*
X199038152Y-135593604D02*
X198852438Y-135531700D01*
X198852438Y-135531700D02*
X198728628Y-135407890D01*
X198728628Y-135407890D02*
X198666723Y-135284080D01*
X198666723Y-135284080D02*
X198604819Y-135036461D01*
X198604819Y-135036461D02*
X198604819Y-134850747D01*
X198604819Y-134850747D02*
X198666723Y-134603128D01*
X198666723Y-134603128D02*
X198728628Y-134479319D01*
X198728628Y-134479319D02*
X198852438Y-134355509D01*
X198852438Y-134355509D02*
X199038152Y-134293604D01*
X199038152Y-134293604D02*
X199161961Y-134293604D01*
X199161961Y-134293604D02*
X199347676Y-134355509D01*
X199347676Y-134355509D02*
X199409580Y-134417414D01*
D10*
D11*
X198666723Y-185593604D02*
X198666723Y-184293604D01*
X198666723Y-184293604D02*
X198976247Y-184293604D01*
X198976247Y-184293604D02*
X199161961Y-184355509D01*
X199161961Y-184355509D02*
X199285771Y-184479319D01*
X199285771Y-184479319D02*
X199347676Y-184603128D01*
X199347676Y-184603128D02*
X199409580Y-184850747D01*
X199409580Y-184850747D02*
X199409580Y-185036461D01*
X199409580Y-185036461D02*
X199347676Y-185284080D01*
X199347676Y-185284080D02*
X199285771Y-185407890D01*
X199285771Y-185407890D02*
X199161961Y-185531700D01*
X199161961Y-185531700D02*
X198976247Y-185593604D01*
X198976247Y-185593604D02*
X198666723Y-185593604D01*
D10*
D11*
X198728628Y-234912652D02*
X199161962Y-234912652D01*
X199347676Y-235593604D02*
X198728628Y-235593604D01*
X198728628Y-235593604D02*
X198728628Y-234293604D01*
X198728628Y-234293604D02*
X199347676Y-234293604D01*
D10*
D11*
X199192914Y-284912652D02*
X198759580Y-284912652D01*
X198759580Y-285593604D02*
X198759580Y-284293604D01*
X198759580Y-284293604D02*
X199378628Y-284293604D01*
D10*
D11*
X113463026Y-280788328D02*
X113463026Y-279288328D01*
X113463026Y-279288328D02*
X113820169Y-279288328D01*
X113820169Y-279288328D02*
X114034455Y-279359757D01*
X114034455Y-279359757D02*
X114177312Y-279502614D01*
X114177312Y-279502614D02*
X114248741Y-279645471D01*
X114248741Y-279645471D02*
X114320169Y-279931185D01*
X114320169Y-279931185D02*
X114320169Y-280145471D01*
X114320169Y-280145471D02*
X114248741Y-280431185D01*
X114248741Y-280431185D02*
X114177312Y-280574042D01*
X114177312Y-280574042D02*
X114034455Y-280716900D01*
X114034455Y-280716900D02*
X113820169Y-280788328D01*
X113820169Y-280788328D02*
X113463026Y-280788328D01*
X115605884Y-280788328D02*
X115605884Y-280002614D01*
X115605884Y-280002614D02*
X115534455Y-279859757D01*
X115534455Y-279859757D02*
X115391598Y-279788328D01*
X115391598Y-279788328D02*
X115105884Y-279788328D01*
X115105884Y-279788328D02*
X114963026Y-279859757D01*
X115605884Y-280716900D02*
X115463026Y-280788328D01*
X115463026Y-280788328D02*
X115105884Y-280788328D01*
X115105884Y-280788328D02*
X114963026Y-280716900D01*
X114963026Y-280716900D02*
X114891598Y-280574042D01*
X114891598Y-280574042D02*
X114891598Y-280431185D01*
X114891598Y-280431185D02*
X114963026Y-280288328D01*
X114963026Y-280288328D02*
X115105884Y-280216900D01*
X115105884Y-280216900D02*
X115463026Y-280216900D01*
X115463026Y-280216900D02*
X115605884Y-280145471D01*
X116105884Y-279788328D02*
X116677312Y-279788328D01*
X116320169Y-279288328D02*
X116320169Y-280574042D01*
X116320169Y-280574042D02*
X116391598Y-280716900D01*
X116391598Y-280716900D02*
X116534455Y-280788328D01*
X116534455Y-280788328D02*
X116677312Y-280788328D01*
X117748741Y-280716900D02*
X117605884Y-280788328D01*
X117605884Y-280788328D02*
X117320170Y-280788328D01*
X117320170Y-280788328D02*
X117177312Y-280716900D01*
X117177312Y-280716900D02*
X117105884Y-280574042D01*
X117105884Y-280574042D02*
X117105884Y-280002614D01*
X117105884Y-280002614D02*
X117177312Y-279859757D01*
X117177312Y-279859757D02*
X117320170Y-279788328D01*
X117320170Y-279788328D02*
X117605884Y-279788328D01*
X117605884Y-279788328D02*
X117748741Y-279859757D01*
X117748741Y-279859757D02*
X117820170Y-280002614D01*
X117820170Y-280002614D02*
X117820170Y-280145471D01*
X117820170Y-280145471D02*
X117105884Y-280288328D01*
X118463026Y-280645471D02*
X118534455Y-280716900D01*
X118534455Y-280716900D02*
X118463026Y-280788328D01*
X118463026Y-280788328D02*
X118391598Y-280716900D01*
X118391598Y-280716900D02*
X118463026Y-280645471D01*
X118463026Y-280645471D02*
X118463026Y-280788328D01*
X118463026Y-279859757D02*
X118534455Y-279931185D01*
X118534455Y-279931185D02*
X118463026Y-280002614D01*
X118463026Y-280002614D02*
X118391598Y-279931185D01*
X118391598Y-279931185D02*
X118463026Y-279859757D01*
X118463026Y-279859757D02*
X118463026Y-280002614D01*
X120248741Y-279431185D02*
X120320169Y-279359757D01*
X120320169Y-279359757D02*
X120463027Y-279288328D01*
X120463027Y-279288328D02*
X120820169Y-279288328D01*
X120820169Y-279288328D02*
X120963027Y-279359757D01*
X120963027Y-279359757D02*
X121034455Y-279431185D01*
X121034455Y-279431185D02*
X121105884Y-279574042D01*
X121105884Y-279574042D02*
X121105884Y-279716900D01*
X121105884Y-279716900D02*
X121034455Y-279931185D01*
X121034455Y-279931185D02*
X120177312Y-280788328D01*
X120177312Y-280788328D02*
X121105884Y-280788328D01*
X122034455Y-279288328D02*
X122177312Y-279288328D01*
X122177312Y-279288328D02*
X122320169Y-279359757D01*
X122320169Y-279359757D02*
X122391598Y-279431185D01*
X122391598Y-279431185D02*
X122463026Y-279574042D01*
X122463026Y-279574042D02*
X122534455Y-279859757D01*
X122534455Y-279859757D02*
X122534455Y-280216900D01*
X122534455Y-280216900D02*
X122463026Y-280502614D01*
X122463026Y-280502614D02*
X122391598Y-280645471D01*
X122391598Y-280645471D02*
X122320169Y-280716900D01*
X122320169Y-280716900D02*
X122177312Y-280788328D01*
X122177312Y-280788328D02*
X122034455Y-280788328D01*
X122034455Y-280788328D02*
X121891598Y-280716900D01*
X121891598Y-280716900D02*
X121820169Y-280645471D01*
X121820169Y-280645471D02*
X121748740Y-280502614D01*
X121748740Y-280502614D02*
X121677312Y-280216900D01*
X121677312Y-280216900D02*
X121677312Y-279859757D01*
X121677312Y-279859757D02*
X121748740Y-279574042D01*
X121748740Y-279574042D02*
X121820169Y-279431185D01*
X121820169Y-279431185D02*
X121891598Y-279359757D01*
X121891598Y-279359757D02*
X122034455Y-279288328D01*
X123105883Y-279431185D02*
X123177311Y-279359757D01*
X123177311Y-279359757D02*
X123320169Y-279288328D01*
X123320169Y-279288328D02*
X123677311Y-279288328D01*
X123677311Y-279288328D02*
X123820169Y-279359757D01*
X123820169Y-279359757D02*
X123891597Y-279431185D01*
X123891597Y-279431185D02*
X123963026Y-279574042D01*
X123963026Y-279574042D02*
X123963026Y-279716900D01*
X123963026Y-279716900D02*
X123891597Y-279931185D01*
X123891597Y-279931185D02*
X123034454Y-280788328D01*
X123034454Y-280788328D02*
X123963026Y-280788328D01*
X125320168Y-279288328D02*
X124605882Y-279288328D01*
X124605882Y-279288328D02*
X124534454Y-280002614D01*
X124534454Y-280002614D02*
X124605882Y-279931185D01*
X124605882Y-279931185D02*
X124748740Y-279859757D01*
X124748740Y-279859757D02*
X125105882Y-279859757D01*
X125105882Y-279859757D02*
X125248740Y-279931185D01*
X125248740Y-279931185D02*
X125320168Y-280002614D01*
X125320168Y-280002614D02*
X125391597Y-280145471D01*
X125391597Y-280145471D02*
X125391597Y-280502614D01*
X125391597Y-280502614D02*
X125320168Y-280645471D01*
X125320168Y-280645471D02*
X125248740Y-280716900D01*
X125248740Y-280716900D02*
X125105882Y-280788328D01*
X125105882Y-280788328D02*
X124748740Y-280788328D01*
X124748740Y-280788328D02*
X124605882Y-280716900D01*
X124605882Y-280716900D02*
X124534454Y-280645471D01*
X126034453Y-280216900D02*
X127177311Y-280216900D01*
X128177311Y-279288328D02*
X128320168Y-279288328D01*
X128320168Y-279288328D02*
X128463025Y-279359757D01*
X128463025Y-279359757D02*
X128534454Y-279431185D01*
X128534454Y-279431185D02*
X128605882Y-279574042D01*
X128605882Y-279574042D02*
X128677311Y-279859757D01*
X128677311Y-279859757D02*
X128677311Y-280216900D01*
X128677311Y-280216900D02*
X128605882Y-280502614D01*
X128605882Y-280502614D02*
X128534454Y-280645471D01*
X128534454Y-280645471D02*
X128463025Y-280716900D01*
X128463025Y-280716900D02*
X128320168Y-280788328D01*
X128320168Y-280788328D02*
X128177311Y-280788328D01*
X128177311Y-280788328D02*
X128034454Y-280716900D01*
X128034454Y-280716900D02*
X127963025Y-280645471D01*
X127963025Y-280645471D02*
X127891596Y-280502614D01*
X127891596Y-280502614D02*
X127820168Y-280216900D01*
X127820168Y-280216900D02*
X127820168Y-279859757D01*
X127820168Y-279859757D02*
X127891596Y-279574042D01*
X127891596Y-279574042D02*
X127963025Y-279431185D01*
X127963025Y-279431185D02*
X128034454Y-279359757D01*
X128034454Y-279359757D02*
X128177311Y-279288328D01*
X130034453Y-279288328D02*
X129320167Y-279288328D01*
X129320167Y-279288328D02*
X129248739Y-280002614D01*
X129248739Y-280002614D02*
X129320167Y-279931185D01*
X129320167Y-279931185D02*
X129463025Y-279859757D01*
X129463025Y-279859757D02*
X129820167Y-279859757D01*
X129820167Y-279859757D02*
X129963025Y-279931185D01*
X129963025Y-279931185D02*
X130034453Y-280002614D01*
X130034453Y-280002614D02*
X130105882Y-280145471D01*
X130105882Y-280145471D02*
X130105882Y-280502614D01*
X130105882Y-280502614D02*
X130034453Y-280645471D01*
X130034453Y-280645471D02*
X129963025Y-280716900D01*
X129963025Y-280716900D02*
X129820167Y-280788328D01*
X129820167Y-280788328D02*
X129463025Y-280788328D01*
X129463025Y-280788328D02*
X129320167Y-280716900D01*
X129320167Y-280716900D02*
X129248739Y-280645471D01*
X130748738Y-280216900D02*
X131891596Y-280216900D01*
X132891596Y-279288328D02*
X133034453Y-279288328D01*
X133034453Y-279288328D02*
X133177310Y-279359757D01*
X133177310Y-279359757D02*
X133248739Y-279431185D01*
X133248739Y-279431185D02*
X133320167Y-279574042D01*
X133320167Y-279574042D02*
X133391596Y-279859757D01*
X133391596Y-279859757D02*
X133391596Y-280216900D01*
X133391596Y-280216900D02*
X133320167Y-280502614D01*
X133320167Y-280502614D02*
X133248739Y-280645471D01*
X133248739Y-280645471D02*
X133177310Y-280716900D01*
X133177310Y-280716900D02*
X133034453Y-280788328D01*
X133034453Y-280788328D02*
X132891596Y-280788328D01*
X132891596Y-280788328D02*
X132748739Y-280716900D01*
X132748739Y-280716900D02*
X132677310Y-280645471D01*
X132677310Y-280645471D02*
X132605881Y-280502614D01*
X132605881Y-280502614D02*
X132534453Y-280216900D01*
X132534453Y-280216900D02*
X132534453Y-279859757D01*
X132534453Y-279859757D02*
X132605881Y-279574042D01*
X132605881Y-279574042D02*
X132677310Y-279431185D01*
X132677310Y-279431185D02*
X132748739Y-279359757D01*
X132748739Y-279359757D02*
X132891596Y-279288328D01*
X134105881Y-280788328D02*
X134391595Y-280788328D01*
X134391595Y-280788328D02*
X134534452Y-280716900D01*
X134534452Y-280716900D02*
X134605881Y-280645471D01*
X134605881Y-280645471D02*
X134748738Y-280431185D01*
X134748738Y-280431185D02*
X134820167Y-280145471D01*
X134820167Y-280145471D02*
X134820167Y-279574042D01*
X134820167Y-279574042D02*
X134748738Y-279431185D01*
X134748738Y-279431185D02*
X134677310Y-279359757D01*
X134677310Y-279359757D02*
X134534452Y-279288328D01*
X134534452Y-279288328D02*
X134248738Y-279288328D01*
X134248738Y-279288328D02*
X134105881Y-279359757D01*
X134105881Y-279359757D02*
X134034452Y-279431185D01*
X134034452Y-279431185D02*
X133963024Y-279574042D01*
X133963024Y-279574042D02*
X133963024Y-279931185D01*
X133963024Y-279931185D02*
X134034452Y-280074042D01*
X134034452Y-280074042D02*
X134105881Y-280145471D01*
X134105881Y-280145471D02*
X134248738Y-280216900D01*
X134248738Y-280216900D02*
X134534452Y-280216900D01*
X134534452Y-280216900D02*
X134677310Y-280145471D01*
X134677310Y-280145471D02*
X134748738Y-280074042D01*
X134748738Y-280074042D02*
X134820167Y-279931185D01*
D10*
D11*
X90007200Y-281502200D02*
X198007200Y-281502200D01*
D10*
D11*
X91463026Y-283588328D02*
X91463026Y-282088328D01*
X92320169Y-283588328D02*
X91677312Y-282731185D01*
X92320169Y-282088328D02*
X91463026Y-282945471D01*
X92963026Y-283588328D02*
X92963026Y-282588328D01*
X92963026Y-282088328D02*
X92891598Y-282159757D01*
X92891598Y-282159757D02*
X92963026Y-282231185D01*
X92963026Y-282231185D02*
X93034455Y-282159757D01*
X93034455Y-282159757D02*
X92963026Y-282088328D01*
X92963026Y-282088328D02*
X92963026Y-282231185D01*
X94534455Y-283445471D02*
X94463027Y-283516900D01*
X94463027Y-283516900D02*
X94248741Y-283588328D01*
X94248741Y-283588328D02*
X94105884Y-283588328D01*
X94105884Y-283588328D02*
X93891598Y-283516900D01*
X93891598Y-283516900D02*
X93748741Y-283374042D01*
X93748741Y-283374042D02*
X93677312Y-283231185D01*
X93677312Y-283231185D02*
X93605884Y-282945471D01*
X93605884Y-282945471D02*
X93605884Y-282731185D01*
X93605884Y-282731185D02*
X93677312Y-282445471D01*
X93677312Y-282445471D02*
X93748741Y-282302614D01*
X93748741Y-282302614D02*
X93891598Y-282159757D01*
X93891598Y-282159757D02*
X94105884Y-282088328D01*
X94105884Y-282088328D02*
X94248741Y-282088328D01*
X94248741Y-282088328D02*
X94463027Y-282159757D01*
X94463027Y-282159757D02*
X94534455Y-282231185D01*
X95820170Y-283588328D02*
X95820170Y-282802614D01*
X95820170Y-282802614D02*
X95748741Y-282659757D01*
X95748741Y-282659757D02*
X95605884Y-282588328D01*
X95605884Y-282588328D02*
X95320170Y-282588328D01*
X95320170Y-282588328D02*
X95177312Y-282659757D01*
X95820170Y-283516900D02*
X95677312Y-283588328D01*
X95677312Y-283588328D02*
X95320170Y-283588328D01*
X95320170Y-283588328D02*
X95177312Y-283516900D01*
X95177312Y-283516900D02*
X95105884Y-283374042D01*
X95105884Y-283374042D02*
X95105884Y-283231185D01*
X95105884Y-283231185D02*
X95177312Y-283088328D01*
X95177312Y-283088328D02*
X95320170Y-283016900D01*
X95320170Y-283016900D02*
X95677312Y-283016900D01*
X95677312Y-283016900D02*
X95820170Y-282945471D01*
X97177313Y-283588328D02*
X97177313Y-282088328D01*
X97177313Y-283516900D02*
X97034455Y-283588328D01*
X97034455Y-283588328D02*
X96748741Y-283588328D01*
X96748741Y-283588328D02*
X96605884Y-283516900D01*
X96605884Y-283516900D02*
X96534455Y-283445471D01*
X96534455Y-283445471D02*
X96463027Y-283302614D01*
X96463027Y-283302614D02*
X96463027Y-282874042D01*
X96463027Y-282874042D02*
X96534455Y-282731185D01*
X96534455Y-282731185D02*
X96605884Y-282659757D01*
X96605884Y-282659757D02*
X96748741Y-282588328D01*
X96748741Y-282588328D02*
X97034455Y-282588328D01*
X97034455Y-282588328D02*
X97177313Y-282659757D01*
X99034455Y-282802614D02*
X99534455Y-282802614D01*
X99748741Y-283588328D02*
X99034455Y-283588328D01*
X99034455Y-283588328D02*
X99034455Y-282088328D01*
X99034455Y-282088328D02*
X99748741Y-282088328D01*
X100391598Y-283445471D02*
X100463027Y-283516900D01*
X100463027Y-283516900D02*
X100391598Y-283588328D01*
X100391598Y-283588328D02*
X100320170Y-283516900D01*
X100320170Y-283516900D02*
X100391598Y-283445471D01*
X100391598Y-283445471D02*
X100391598Y-283588328D01*
X101105884Y-283588328D02*
X101105884Y-282088328D01*
X101105884Y-282088328D02*
X101463027Y-282088328D01*
X101463027Y-282088328D02*
X101677313Y-282159757D01*
X101677313Y-282159757D02*
X101820170Y-282302614D01*
X101820170Y-282302614D02*
X101891599Y-282445471D01*
X101891599Y-282445471D02*
X101963027Y-282731185D01*
X101963027Y-282731185D02*
X101963027Y-282945471D01*
X101963027Y-282945471D02*
X101891599Y-283231185D01*
X101891599Y-283231185D02*
X101820170Y-283374042D01*
X101820170Y-283374042D02*
X101677313Y-283516900D01*
X101677313Y-283516900D02*
X101463027Y-283588328D01*
X101463027Y-283588328D02*
X101105884Y-283588328D01*
X102605884Y-283445471D02*
X102677313Y-283516900D01*
X102677313Y-283516900D02*
X102605884Y-283588328D01*
X102605884Y-283588328D02*
X102534456Y-283516900D01*
X102534456Y-283516900D02*
X102605884Y-283445471D01*
X102605884Y-283445471D02*
X102605884Y-283588328D01*
X103248742Y-283159757D02*
X103963028Y-283159757D01*
X103105885Y-283588328D02*
X103605885Y-282088328D01*
X103605885Y-282088328D02*
X104105885Y-283588328D01*
X104605884Y-283445471D02*
X104677313Y-283516900D01*
X104677313Y-283516900D02*
X104605884Y-283588328D01*
X104605884Y-283588328D02*
X104534456Y-283516900D01*
X104534456Y-283516900D02*
X104605884Y-283445471D01*
X104605884Y-283445471D02*
X104605884Y-283588328D01*
X106534456Y-283588328D02*
X106820170Y-283588328D01*
X106820170Y-283588328D02*
X106963027Y-283516900D01*
X106963027Y-283516900D02*
X107034456Y-283445471D01*
X107034456Y-283445471D02*
X107177313Y-283231185D01*
X107177313Y-283231185D02*
X107248742Y-282945471D01*
X107248742Y-282945471D02*
X107248742Y-282374042D01*
X107248742Y-282374042D02*
X107177313Y-282231185D01*
X107177313Y-282231185D02*
X107105885Y-282159757D01*
X107105885Y-282159757D02*
X106963027Y-282088328D01*
X106963027Y-282088328D02*
X106677313Y-282088328D01*
X106677313Y-282088328D02*
X106534456Y-282159757D01*
X106534456Y-282159757D02*
X106463027Y-282231185D01*
X106463027Y-282231185D02*
X106391599Y-282374042D01*
X106391599Y-282374042D02*
X106391599Y-282731185D01*
X106391599Y-282731185D02*
X106463027Y-282874042D01*
X106463027Y-282874042D02*
X106534456Y-282945471D01*
X106534456Y-282945471D02*
X106677313Y-283016900D01*
X106677313Y-283016900D02*
X106963027Y-283016900D01*
X106963027Y-283016900D02*
X107105885Y-282945471D01*
X107105885Y-282945471D02*
X107177313Y-282874042D01*
X107177313Y-282874042D02*
X107248742Y-282731185D01*
X107891598Y-283445471D02*
X107963027Y-283516900D01*
X107963027Y-283516900D02*
X107891598Y-283588328D01*
X107891598Y-283588328D02*
X107820170Y-283516900D01*
X107820170Y-283516900D02*
X107891598Y-283445471D01*
X107891598Y-283445471D02*
X107891598Y-283588328D01*
X108891599Y-282088328D02*
X109034456Y-282088328D01*
X109034456Y-282088328D02*
X109177313Y-282159757D01*
X109177313Y-282159757D02*
X109248742Y-282231185D01*
X109248742Y-282231185D02*
X109320170Y-282374042D01*
X109320170Y-282374042D02*
X109391599Y-282659757D01*
X109391599Y-282659757D02*
X109391599Y-283016900D01*
X109391599Y-283016900D02*
X109320170Y-283302614D01*
X109320170Y-283302614D02*
X109248742Y-283445471D01*
X109248742Y-283445471D02*
X109177313Y-283516900D01*
X109177313Y-283516900D02*
X109034456Y-283588328D01*
X109034456Y-283588328D02*
X108891599Y-283588328D01*
X108891599Y-283588328D02*
X108748742Y-283516900D01*
X108748742Y-283516900D02*
X108677313Y-283445471D01*
X108677313Y-283445471D02*
X108605884Y-283302614D01*
X108605884Y-283302614D02*
X108534456Y-283016900D01*
X108534456Y-283016900D02*
X108534456Y-282659757D01*
X108534456Y-282659757D02*
X108605884Y-282374042D01*
X108605884Y-282374042D02*
X108677313Y-282231185D01*
X108677313Y-282231185D02*
X108748742Y-282159757D01*
X108748742Y-282159757D02*
X108891599Y-282088328D01*
X110034455Y-283445471D02*
X110105884Y-283516900D01*
X110105884Y-283516900D02*
X110034455Y-283588328D01*
X110034455Y-283588328D02*
X109963027Y-283516900D01*
X109963027Y-283516900D02*
X110034455Y-283445471D01*
X110034455Y-283445471D02*
X110034455Y-283588328D01*
X111534456Y-283588328D02*
X110677313Y-283588328D01*
X111105884Y-283588328D02*
X111105884Y-282088328D01*
X111105884Y-282088328D02*
X110963027Y-282302614D01*
X110963027Y-282302614D02*
X110820170Y-282445471D01*
X110820170Y-282445471D02*
X110677313Y-282516900D01*
D10*
D11*
X90007200Y-278502200D02*
X198007200Y-278502200D01*
D10*
D12*
X177418853Y-280780528D02*
X176918853Y-280066242D01*
X176561710Y-280780528D02*
X176561710Y-279280528D01*
X176561710Y-279280528D02*
X177133139Y-279280528D01*
X177133139Y-279280528D02*
X177275996Y-279351957D01*
X177275996Y-279351957D02*
X177347425Y-279423385D01*
X177347425Y-279423385D02*
X177418853Y-279566242D01*
X177418853Y-279566242D02*
X177418853Y-279780528D01*
X177418853Y-279780528D02*
X177347425Y-279923385D01*
X177347425Y-279923385D02*
X177275996Y-279994814D01*
X177275996Y-279994814D02*
X177133139Y-280066242D01*
X177133139Y-280066242D02*
X176561710Y-280066242D01*
X178633139Y-280709100D02*
X178490282Y-280780528D01*
X178490282Y-280780528D02*
X178204568Y-280780528D01*
X178204568Y-280780528D02*
X178061710Y-280709100D01*
X178061710Y-280709100D02*
X177990282Y-280566242D01*
X177990282Y-280566242D02*
X177990282Y-279994814D01*
X177990282Y-279994814D02*
X178061710Y-279851957D01*
X178061710Y-279851957D02*
X178204568Y-279780528D01*
X178204568Y-279780528D02*
X178490282Y-279780528D01*
X178490282Y-279780528D02*
X178633139Y-279851957D01*
X178633139Y-279851957D02*
X178704568Y-279994814D01*
X178704568Y-279994814D02*
X178704568Y-280137671D01*
X178704568Y-280137671D02*
X177990282Y-280280528D01*
X179204567Y-279780528D02*
X179561710Y-280780528D01*
X179561710Y-280780528D02*
X179918853Y-279780528D01*
X180490281Y-280637671D02*
X180561710Y-280709100D01*
X180561710Y-280709100D02*
X180490281Y-280780528D01*
X180490281Y-280780528D02*
X180418853Y-280709100D01*
X180418853Y-280709100D02*
X180490281Y-280637671D01*
X180490281Y-280637671D02*
X180490281Y-280780528D01*
X180490281Y-279851957D02*
X180561710Y-279923385D01*
X180561710Y-279923385D02*
X180490281Y-279994814D01*
X180490281Y-279994814D02*
X180418853Y-279923385D01*
X180418853Y-279923385D02*
X180490281Y-279851957D01*
X180490281Y-279851957D02*
X180490281Y-279994814D01*
X183133139Y-280780528D02*
X182275996Y-280780528D01*
X182704567Y-280780528D02*
X182704567Y-279280528D01*
X182704567Y-279280528D02*
X182561710Y-279494814D01*
X182561710Y-279494814D02*
X182418853Y-279637671D01*
X182418853Y-279637671D02*
X182275996Y-279709100D01*
D10*
D11*
X91391598Y-280716900D02*
X91605884Y-280788328D01*
X91605884Y-280788328D02*
X91963026Y-280788328D01*
X91963026Y-280788328D02*
X92105884Y-280716900D01*
X92105884Y-280716900D02*
X92177312Y-280645471D01*
X92177312Y-280645471D02*
X92248741Y-280502614D01*
X92248741Y-280502614D02*
X92248741Y-280359757D01*
X92248741Y-280359757D02*
X92177312Y-280216900D01*
X92177312Y-280216900D02*
X92105884Y-280145471D01*
X92105884Y-280145471D02*
X91963026Y-280074042D01*
X91963026Y-280074042D02*
X91677312Y-280002614D01*
X91677312Y-280002614D02*
X91534455Y-279931185D01*
X91534455Y-279931185D02*
X91463026Y-279859757D01*
X91463026Y-279859757D02*
X91391598Y-279716900D01*
X91391598Y-279716900D02*
X91391598Y-279574042D01*
X91391598Y-279574042D02*
X91463026Y-279431185D01*
X91463026Y-279431185D02*
X91534455Y-279359757D01*
X91534455Y-279359757D02*
X91677312Y-279288328D01*
X91677312Y-279288328D02*
X92034455Y-279288328D01*
X92034455Y-279288328D02*
X92248741Y-279359757D01*
X92891597Y-280788328D02*
X92891597Y-279788328D01*
X92891597Y-279288328D02*
X92820169Y-279359757D01*
X92820169Y-279359757D02*
X92891597Y-279431185D01*
X92891597Y-279431185D02*
X92963026Y-279359757D01*
X92963026Y-279359757D02*
X92891597Y-279288328D01*
X92891597Y-279288328D02*
X92891597Y-279431185D01*
X93463026Y-279788328D02*
X94248741Y-279788328D01*
X94248741Y-279788328D02*
X93463026Y-280788328D01*
X93463026Y-280788328D02*
X94248741Y-280788328D01*
X95391598Y-280716900D02*
X95248741Y-280788328D01*
X95248741Y-280788328D02*
X94963027Y-280788328D01*
X94963027Y-280788328D02*
X94820169Y-280716900D01*
X94820169Y-280716900D02*
X94748741Y-280574042D01*
X94748741Y-280574042D02*
X94748741Y-280002614D01*
X94748741Y-280002614D02*
X94820169Y-279859757D01*
X94820169Y-279859757D02*
X94963027Y-279788328D01*
X94963027Y-279788328D02*
X95248741Y-279788328D01*
X95248741Y-279788328D02*
X95391598Y-279859757D01*
X95391598Y-279859757D02*
X95463027Y-280002614D01*
X95463027Y-280002614D02*
X95463027Y-280145471D01*
X95463027Y-280145471D02*
X94748741Y-280288328D01*
X96105883Y-280645471D02*
X96177312Y-280716900D01*
X96177312Y-280716900D02*
X96105883Y-280788328D01*
X96105883Y-280788328D02*
X96034455Y-280716900D01*
X96034455Y-280716900D02*
X96105883Y-280645471D01*
X96105883Y-280645471D02*
X96105883Y-280788328D01*
X96105883Y-279859757D02*
X96177312Y-279931185D01*
X96177312Y-279931185D02*
X96105883Y-280002614D01*
X96105883Y-280002614D02*
X96034455Y-279931185D01*
X96034455Y-279931185D02*
X96105883Y-279859757D01*
X96105883Y-279859757D02*
X96105883Y-280002614D01*
X97891598Y-280359757D02*
X98605884Y-280359757D01*
X97748741Y-280788328D02*
X98248741Y-279288328D01*
X98248741Y-279288328D02*
X98748741Y-280788328D01*
X99891598Y-279788328D02*
X99891598Y-280788328D01*
X99534455Y-279216900D02*
X99177312Y-280288328D01*
X99177312Y-280288328D02*
X100105883Y-280288328D01*
D10*
D11*
X176463026Y-283588328D02*
X176463026Y-282088328D01*
X177820170Y-283588328D02*
X177820170Y-282088328D01*
X177820170Y-283516900D02*
X177677312Y-283588328D01*
X177677312Y-283588328D02*
X177391598Y-283588328D01*
X177391598Y-283588328D02*
X177248741Y-283516900D01*
X177248741Y-283516900D02*
X177177312Y-283445471D01*
X177177312Y-283445471D02*
X177105884Y-283302614D01*
X177105884Y-283302614D02*
X177105884Y-282874042D01*
X177105884Y-282874042D02*
X177177312Y-282731185D01*
X177177312Y-282731185D02*
X177248741Y-282659757D01*
X177248741Y-282659757D02*
X177391598Y-282588328D01*
X177391598Y-282588328D02*
X177677312Y-282588328D01*
X177677312Y-282588328D02*
X177820170Y-282659757D01*
X178534455Y-283445471D02*
X178605884Y-283516900D01*
X178605884Y-283516900D02*
X178534455Y-283588328D01*
X178534455Y-283588328D02*
X178463027Y-283516900D01*
X178463027Y-283516900D02*
X178534455Y-283445471D01*
X178534455Y-283445471D02*
X178534455Y-283588328D01*
X178534455Y-282659757D02*
X178605884Y-282731185D01*
X178605884Y-282731185D02*
X178534455Y-282802614D01*
X178534455Y-282802614D02*
X178463027Y-282731185D01*
X178463027Y-282731185D02*
X178534455Y-282659757D01*
X178534455Y-282659757D02*
X178534455Y-282802614D01*
X181105884Y-282088328D02*
X180391598Y-282088328D01*
X180391598Y-282088328D02*
X180320170Y-282802614D01*
X180320170Y-282802614D02*
X180391598Y-282731185D01*
X180391598Y-282731185D02*
X180534456Y-282659757D01*
X180534456Y-282659757D02*
X180891598Y-282659757D01*
X180891598Y-282659757D02*
X181034456Y-282731185D01*
X181034456Y-282731185D02*
X181105884Y-282802614D01*
X181105884Y-282802614D02*
X181177313Y-282945471D01*
X181177313Y-282945471D02*
X181177313Y-283302614D01*
X181177313Y-283302614D02*
X181105884Y-283445471D01*
X181105884Y-283445471D02*
X181034456Y-283516900D01*
X181034456Y-283516900D02*
X180891598Y-283588328D01*
X180891598Y-283588328D02*
X180534456Y-283588328D01*
X180534456Y-283588328D02*
X180391598Y-283516900D01*
X180391598Y-283516900D02*
X180320170Y-283445471D01*
X182891598Y-282016900D02*
X181605884Y-283945471D01*
X183463027Y-283588328D02*
X183748741Y-283588328D01*
X183748741Y-283588328D02*
X183891598Y-283516900D01*
X183891598Y-283516900D02*
X183963027Y-283445471D01*
X183963027Y-283445471D02*
X184105884Y-283231185D01*
X184105884Y-283231185D02*
X184177313Y-282945471D01*
X184177313Y-282945471D02*
X184177313Y-282374042D01*
X184177313Y-282374042D02*
X184105884Y-282231185D01*
X184105884Y-282231185D02*
X184034456Y-282159757D01*
X184034456Y-282159757D02*
X183891598Y-282088328D01*
X183891598Y-282088328D02*
X183605884Y-282088328D01*
X183605884Y-282088328D02*
X183463027Y-282159757D01*
X183463027Y-282159757D02*
X183391598Y-282231185D01*
X183391598Y-282231185D02*
X183320170Y-282374042D01*
X183320170Y-282374042D02*
X183320170Y-282731185D01*
X183320170Y-282731185D02*
X183391598Y-282874042D01*
X183391598Y-282874042D02*
X183463027Y-282945471D01*
X183463027Y-282945471D02*
X183605884Y-283016900D01*
X183605884Y-283016900D02*
X183891598Y-283016900D01*
X183891598Y-283016900D02*
X184034456Y-282945471D01*
X184034456Y-282945471D02*
X184105884Y-282874042D01*
X184105884Y-282874042D02*
X184177313Y-282731185D01*
D10*
D11*
X90007200Y-274502200D02*
X198007200Y-274502200D01*
D10*
D13*
X91698928Y-275206638D02*
X92841785Y-275206638D01*
X92020357Y-277206638D02*
X92270357Y-275206638D01*
X93258452Y-277206638D02*
X93425119Y-275873304D01*
X93508452Y-275206638D02*
X93401309Y-275301876D01*
X93401309Y-275301876D02*
X93484643Y-275397114D01*
X93484643Y-275397114D02*
X93591786Y-275301876D01*
X93591786Y-275301876D02*
X93508452Y-275206638D01*
X93508452Y-275206638D02*
X93484643Y-275397114D01*
X94091786Y-275873304D02*
X94853690Y-275873304D01*
X94460833Y-275206638D02*
X94246548Y-276920923D01*
X94246548Y-276920923D02*
X94317976Y-277111400D01*
X94317976Y-277111400D02*
X94496548Y-277206638D01*
X94496548Y-277206638D02*
X94687024Y-277206638D01*
X95639405Y-277206638D02*
X95460833Y-277111400D01*
X95460833Y-277111400D02*
X95389405Y-276920923D01*
X95389405Y-276920923D02*
X95603690Y-275206638D01*
X97175119Y-277111400D02*
X96972738Y-277206638D01*
X96972738Y-277206638D02*
X96591785Y-277206638D01*
X96591785Y-277206638D02*
X96413214Y-277111400D01*
X96413214Y-277111400D02*
X96341785Y-276920923D01*
X96341785Y-276920923D02*
X96437024Y-276159019D01*
X96437024Y-276159019D02*
X96556071Y-275968542D01*
X96556071Y-275968542D02*
X96758452Y-275873304D01*
X96758452Y-275873304D02*
X97139404Y-275873304D01*
X97139404Y-275873304D02*
X97317976Y-275968542D01*
X97317976Y-275968542D02*
X97389404Y-276159019D01*
X97389404Y-276159019D02*
X97365595Y-276349495D01*
X97365595Y-276349495D02*
X96389404Y-276539971D01*
X98139405Y-277016161D02*
X98222738Y-277111400D01*
X98222738Y-277111400D02*
X98115595Y-277206638D01*
X98115595Y-277206638D02*
X98032262Y-277111400D01*
X98032262Y-277111400D02*
X98139405Y-277016161D01*
X98139405Y-277016161D02*
X98115595Y-277206638D01*
X98270357Y-275968542D02*
X98353690Y-276063780D01*
X98353690Y-276063780D02*
X98246548Y-276159019D01*
X98246548Y-276159019D02*
X98163214Y-276063780D01*
X98163214Y-276063780D02*
X98270357Y-275968542D01*
X98270357Y-275968542D02*
X98246548Y-276159019D01*
X102056072Y-277682828D02*
X102115596Y-277206638D01*
X102115596Y-277206638D02*
X100401310Y-277206638D01*
X100401310Y-277206638D02*
X100341786Y-277682828D01*
X101734643Y-277206638D02*
X101984643Y-275206638D01*
X101984643Y-275206638D02*
X101508453Y-275206638D01*
X101508453Y-275206638D02*
X101306072Y-275301876D01*
X101306072Y-275301876D02*
X101198929Y-275397114D01*
X101198929Y-275397114D02*
X101079881Y-275587590D01*
X101079881Y-275587590D02*
X100687024Y-277206638D01*
X103734643Y-277206638D02*
X103865595Y-276159019D01*
X103865595Y-276159019D02*
X103794167Y-275968542D01*
X103794167Y-275968542D02*
X103615595Y-275873304D01*
X103615595Y-275873304D02*
X103234643Y-275873304D01*
X103234643Y-275873304D02*
X103032262Y-275968542D01*
X103746548Y-277111400D02*
X103544167Y-277206638D01*
X103544167Y-277206638D02*
X103067976Y-277206638D01*
X103067976Y-277206638D02*
X102889405Y-277111400D01*
X102889405Y-277111400D02*
X102817976Y-276920923D01*
X102817976Y-276920923D02*
X102841786Y-276730447D01*
X102841786Y-276730447D02*
X102960834Y-276539971D01*
X102960834Y-276539971D02*
X103163215Y-276444733D01*
X103163215Y-276444733D02*
X103639405Y-276444733D01*
X103639405Y-276444733D02*
X103841786Y-276349495D01*
X104567977Y-275873304D02*
X105520358Y-275873304D01*
X105044167Y-275873304D02*
X104877500Y-277206638D01*
X106853691Y-275873304D02*
X106687024Y-277206638D01*
X106091786Y-275873304D02*
X106032262Y-276349495D01*
X106032262Y-276349495D02*
X106103691Y-276539971D01*
X106103691Y-276539971D02*
X106282262Y-276635209D01*
X106282262Y-276635209D02*
X106758452Y-276635209D01*
X107901310Y-275873304D02*
X107734643Y-277206638D01*
X107734643Y-277206638D02*
X108853691Y-275873304D01*
X108853691Y-275873304D02*
X108687024Y-277206638D01*
X109806072Y-275873304D02*
X109639405Y-277206638D01*
X109925120Y-276444733D02*
X110401310Y-277206638D01*
X110567977Y-275873304D02*
X109710834Y-276635209D01*
X113877501Y-276063780D02*
X113794168Y-275968542D01*
X113794168Y-275968542D02*
X113615597Y-275873304D01*
X113615597Y-275873304D02*
X113234644Y-275873304D01*
X113234644Y-275873304D02*
X113032263Y-275968542D01*
X113032263Y-275968542D02*
X112925120Y-276063780D01*
X112925120Y-276063780D02*
X112806073Y-276254257D01*
X112806073Y-276254257D02*
X112734644Y-276825685D01*
X112734644Y-276825685D02*
X112806073Y-277016161D01*
X112806073Y-277016161D02*
X112889406Y-277111400D01*
X112889406Y-277111400D02*
X113067978Y-277206638D01*
X113067978Y-277206638D02*
X113353692Y-277206638D01*
X113353692Y-277206638D02*
X113556073Y-277111400D01*
X113556073Y-277111400D02*
X113663216Y-277016161D01*
X113663216Y-277016161D02*
X113782263Y-276825685D01*
X113782263Y-276825685D02*
X113937025Y-275587590D01*
X113937025Y-275587590D02*
X113865597Y-275397114D01*
X113865597Y-275397114D02*
X113782263Y-275301876D01*
X113782263Y-275301876D02*
X113603692Y-275206638D01*
X113603692Y-275206638D02*
X113222739Y-275206638D01*
X113222739Y-275206638D02*
X113020358Y-275301876D01*
X116091787Y-275873304D02*
X115925121Y-277206638D01*
X114758454Y-275873304D02*
X114591787Y-277206638D01*
X114591787Y-277206638D02*
X115067978Y-277206638D01*
X115067978Y-277206638D02*
X115270359Y-277111400D01*
X115270359Y-277111400D02*
X115389406Y-276920923D01*
X115389406Y-276920923D02*
X115425121Y-276635209D01*
X115425121Y-276635209D02*
X115353692Y-276444733D01*
X115353692Y-276444733D02*
X115175121Y-276349495D01*
X115175121Y-276349495D02*
X114698930Y-276349495D01*
X116877501Y-277206638D02*
X117044168Y-275873304D01*
X117044168Y-275873304D02*
X117484644Y-276920923D01*
X117484644Y-276920923D02*
X118187025Y-275873304D01*
X118187025Y-275873304D02*
X118020358Y-277206638D01*
X119829882Y-277206638D02*
X119960834Y-276159019D01*
X119960834Y-276159019D02*
X119889406Y-275968542D01*
X119889406Y-275968542D02*
X119710834Y-275873304D01*
X119710834Y-275873304D02*
X119329882Y-275873304D01*
X119329882Y-275873304D02*
X119127501Y-275968542D01*
X119841787Y-277111400D02*
X119639406Y-277206638D01*
X119639406Y-277206638D02*
X119163215Y-277206638D01*
X119163215Y-277206638D02*
X118984644Y-277111400D01*
X118984644Y-277111400D02*
X118913215Y-276920923D01*
X118913215Y-276920923D02*
X118937025Y-276730447D01*
X118937025Y-276730447D02*
X119056073Y-276539971D01*
X119056073Y-276539971D02*
X119258454Y-276444733D01*
X119258454Y-276444733D02*
X119734644Y-276444733D01*
X119734644Y-276444733D02*
X119937025Y-276349495D01*
D10*
D11*
X91963026Y-272602614D02*
X91463026Y-272602614D01*
X91463026Y-273388328D02*
X91463026Y-271888328D01*
X91463026Y-271888328D02*
X92177312Y-271888328D01*
X92748740Y-273388328D02*
X92748740Y-272388328D01*
X92748740Y-271888328D02*
X92677312Y-271959757D01*
X92677312Y-271959757D02*
X92748740Y-272031185D01*
X92748740Y-272031185D02*
X92820169Y-271959757D01*
X92820169Y-271959757D02*
X92748740Y-271888328D01*
X92748740Y-271888328D02*
X92748740Y-272031185D01*
X93677312Y-273388328D02*
X93534455Y-273316900D01*
X93534455Y-273316900D02*
X93463026Y-273174042D01*
X93463026Y-273174042D02*
X93463026Y-271888328D01*
X94820169Y-273316900D02*
X94677312Y-273388328D01*
X94677312Y-273388328D02*
X94391598Y-273388328D01*
X94391598Y-273388328D02*
X94248740Y-273316900D01*
X94248740Y-273316900D02*
X94177312Y-273174042D01*
X94177312Y-273174042D02*
X94177312Y-272602614D01*
X94177312Y-272602614D02*
X94248740Y-272459757D01*
X94248740Y-272459757D02*
X94391598Y-272388328D01*
X94391598Y-272388328D02*
X94677312Y-272388328D01*
X94677312Y-272388328D02*
X94820169Y-272459757D01*
X94820169Y-272459757D02*
X94891598Y-272602614D01*
X94891598Y-272602614D02*
X94891598Y-272745471D01*
X94891598Y-272745471D02*
X94177312Y-272888328D01*
X95534454Y-273245471D02*
X95605883Y-273316900D01*
X95605883Y-273316900D02*
X95534454Y-273388328D01*
X95534454Y-273388328D02*
X95463026Y-273316900D01*
X95463026Y-273316900D02*
X95534454Y-273245471D01*
X95534454Y-273245471D02*
X95534454Y-273388328D01*
X95534454Y-272459757D02*
X95605883Y-272531185D01*
X95605883Y-272531185D02*
X95534454Y-272602614D01*
X95534454Y-272602614D02*
X95463026Y-272531185D01*
X95463026Y-272531185D02*
X95534454Y-272459757D01*
X95534454Y-272459757D02*
X95534454Y-272602614D01*
X97891597Y-272602614D02*
X97391597Y-272602614D01*
X97391597Y-273388328D02*
X97391597Y-271888328D01*
X97391597Y-271888328D02*
X98105883Y-271888328D01*
X98891597Y-273388328D02*
X98748740Y-273316900D01*
X98748740Y-273316900D02*
X98677311Y-273174042D01*
X98677311Y-273174042D02*
X98677311Y-271888328D01*
X100105883Y-273388328D02*
X100105883Y-272602614D01*
X100105883Y-272602614D02*
X100034454Y-272459757D01*
X100034454Y-272459757D02*
X99891597Y-272388328D01*
X99891597Y-272388328D02*
X99605883Y-272388328D01*
X99605883Y-272388328D02*
X99463025Y-272459757D01*
X100105883Y-273316900D02*
X99963025Y-273388328D01*
X99963025Y-273388328D02*
X99605883Y-273388328D01*
X99605883Y-273388328D02*
X99463025Y-273316900D01*
X99463025Y-273316900D02*
X99391597Y-273174042D01*
X99391597Y-273174042D02*
X99391597Y-273031185D01*
X99391597Y-273031185D02*
X99463025Y-272888328D01*
X99463025Y-272888328D02*
X99605883Y-272816900D01*
X99605883Y-272816900D02*
X99963025Y-272816900D01*
X99963025Y-272816900D02*
X100105883Y-272745471D01*
X100820168Y-273388328D02*
X100820168Y-272388328D01*
X100820168Y-272531185D02*
X100891597Y-272459757D01*
X100891597Y-272459757D02*
X101034454Y-272388328D01*
X101034454Y-272388328D02*
X101248740Y-272388328D01*
X101248740Y-272388328D02*
X101391597Y-272459757D01*
X101391597Y-272459757D02*
X101463026Y-272602614D01*
X101463026Y-272602614D02*
X101463026Y-273388328D01*
X101463026Y-272602614D02*
X101534454Y-272459757D01*
X101534454Y-272459757D02*
X101677311Y-272388328D01*
X101677311Y-272388328D02*
X101891597Y-272388328D01*
X101891597Y-272388328D02*
X102034454Y-272459757D01*
X102034454Y-272459757D02*
X102105883Y-272602614D01*
X102105883Y-272602614D02*
X102105883Y-273388328D01*
X103391597Y-273316900D02*
X103248740Y-273388328D01*
X103248740Y-273388328D02*
X102963026Y-273388328D01*
X102963026Y-273388328D02*
X102820168Y-273316900D01*
X102820168Y-273316900D02*
X102748740Y-273174042D01*
X102748740Y-273174042D02*
X102748740Y-272602614D01*
X102748740Y-272602614D02*
X102820168Y-272459757D01*
X102820168Y-272459757D02*
X102963026Y-272388328D01*
X102963026Y-272388328D02*
X103248740Y-272388328D01*
X103248740Y-272388328D02*
X103391597Y-272459757D01*
X103391597Y-272459757D02*
X103463026Y-272602614D01*
X103463026Y-272602614D02*
X103463026Y-272745471D01*
X103463026Y-272745471D02*
X102748740Y-272888328D01*
X104034454Y-273316900D02*
X104248740Y-273388328D01*
X104248740Y-273388328D02*
X104605882Y-273388328D01*
X104605882Y-273388328D02*
X104748740Y-273316900D01*
X104748740Y-273316900D02*
X104820168Y-273245471D01*
X104820168Y-273245471D02*
X104891597Y-273102614D01*
X104891597Y-273102614D02*
X104891597Y-272959757D01*
X104891597Y-272959757D02*
X104820168Y-272816900D01*
X104820168Y-272816900D02*
X104748740Y-272745471D01*
X104748740Y-272745471D02*
X104605882Y-272674042D01*
X104605882Y-272674042D02*
X104320168Y-272602614D01*
X104320168Y-272602614D02*
X104177311Y-272531185D01*
X104177311Y-272531185D02*
X104105882Y-272459757D01*
X104105882Y-272459757D02*
X104034454Y-272316900D01*
X104034454Y-272316900D02*
X104034454Y-272174042D01*
X104034454Y-272174042D02*
X104105882Y-272031185D01*
X104105882Y-272031185D02*
X104177311Y-271959757D01*
X104177311Y-271959757D02*
X104320168Y-271888328D01*
X104320168Y-271888328D02*
X104677311Y-271888328D01*
X104677311Y-271888328D02*
X104891597Y-271959757D01*
X106105882Y-273316900D02*
X105963025Y-273388328D01*
X105963025Y-273388328D02*
X105677311Y-273388328D01*
X105677311Y-273388328D02*
X105534453Y-273316900D01*
X105534453Y-273316900D02*
X105463025Y-273174042D01*
X105463025Y-273174042D02*
X105463025Y-272602614D01*
X105463025Y-272602614D02*
X105534453Y-272459757D01*
X105534453Y-272459757D02*
X105677311Y-272388328D01*
X105677311Y-272388328D02*
X105963025Y-272388328D01*
X105963025Y-272388328D02*
X106105882Y-272459757D01*
X106105882Y-272459757D02*
X106177311Y-272602614D01*
X106177311Y-272602614D02*
X106177311Y-272745471D01*
X106177311Y-272745471D02*
X105463025Y-272888328D01*
X106820167Y-272388328D02*
X106820167Y-273388328D01*
X106820167Y-272531185D02*
X106891596Y-272459757D01*
X106891596Y-272459757D02*
X107034453Y-272388328D01*
X107034453Y-272388328D02*
X107248739Y-272388328D01*
X107248739Y-272388328D02*
X107391596Y-272459757D01*
X107391596Y-272459757D02*
X107463025Y-272602614D01*
X107463025Y-272602614D02*
X107463025Y-273388328D01*
X108105882Y-273316900D02*
X108248739Y-273388328D01*
X108248739Y-273388328D02*
X108534453Y-273388328D01*
X108534453Y-273388328D02*
X108677310Y-273316900D01*
X108677310Y-273316900D02*
X108748739Y-273174042D01*
X108748739Y-273174042D02*
X108748739Y-273102614D01*
X108748739Y-273102614D02*
X108677310Y-272959757D01*
X108677310Y-272959757D02*
X108534453Y-272888328D01*
X108534453Y-272888328D02*
X108320168Y-272888328D01*
X108320168Y-272888328D02*
X108177310Y-272816900D01*
X108177310Y-272816900D02*
X108105882Y-272674042D01*
X108105882Y-272674042D02*
X108105882Y-272602614D01*
X108105882Y-272602614D02*
X108177310Y-272459757D01*
X108177310Y-272459757D02*
X108320168Y-272388328D01*
X108320168Y-272388328D02*
X108534453Y-272388328D01*
X108534453Y-272388328D02*
X108677310Y-272459757D01*
X109605882Y-273388328D02*
X109463025Y-273316900D01*
X109463025Y-273316900D02*
X109391596Y-273245471D01*
X109391596Y-273245471D02*
X109320168Y-273102614D01*
X109320168Y-273102614D02*
X109320168Y-272674042D01*
X109320168Y-272674042D02*
X109391596Y-272531185D01*
X109391596Y-272531185D02*
X109463025Y-272459757D01*
X109463025Y-272459757D02*
X109605882Y-272388328D01*
X109605882Y-272388328D02*
X109820168Y-272388328D01*
X109820168Y-272388328D02*
X109963025Y-272459757D01*
X109963025Y-272459757D02*
X110034454Y-272531185D01*
X110034454Y-272531185D02*
X110105882Y-272674042D01*
X110105882Y-272674042D02*
X110105882Y-273102614D01*
X110105882Y-273102614D02*
X110034454Y-273245471D01*
X110034454Y-273245471D02*
X109963025Y-273316900D01*
X109963025Y-273316900D02*
X109820168Y-273388328D01*
X109820168Y-273388328D02*
X109605882Y-273388328D01*
X110748739Y-273388328D02*
X110748739Y-272388328D01*
X110748739Y-272674042D02*
X110820168Y-272531185D01*
X110820168Y-272531185D02*
X110891597Y-272459757D01*
X110891597Y-272459757D02*
X111034454Y-272388328D01*
X111034454Y-272388328D02*
X111177311Y-272388328D01*
X111605882Y-273316900D02*
X111820168Y-273388328D01*
X111820168Y-273388328D02*
X112177310Y-273388328D01*
X112177310Y-273388328D02*
X112320168Y-273316900D01*
X112320168Y-273316900D02*
X112391596Y-273245471D01*
X112391596Y-273245471D02*
X112463025Y-273102614D01*
X112463025Y-273102614D02*
X112463025Y-272959757D01*
X112463025Y-272959757D02*
X112391596Y-272816900D01*
X112391596Y-272816900D02*
X112320168Y-272745471D01*
X112320168Y-272745471D02*
X112177310Y-272674042D01*
X112177310Y-272674042D02*
X111891596Y-272602614D01*
X111891596Y-272602614D02*
X111748739Y-272531185D01*
X111748739Y-272531185D02*
X111677310Y-272459757D01*
X111677310Y-272459757D02*
X111605882Y-272316900D01*
X111605882Y-272316900D02*
X111605882Y-272174042D01*
X111605882Y-272174042D02*
X111677310Y-272031185D01*
X111677310Y-272031185D02*
X111748739Y-271959757D01*
X111748739Y-271959757D02*
X111891596Y-271888328D01*
X111891596Y-271888328D02*
X112248739Y-271888328D01*
X112248739Y-271888328D02*
X112463025Y-271959757D01*
X113677310Y-273316900D02*
X113534453Y-273388328D01*
X113534453Y-273388328D02*
X113248739Y-273388328D01*
X113248739Y-273388328D02*
X113105881Y-273316900D01*
X113105881Y-273316900D02*
X113034453Y-273174042D01*
X113034453Y-273174042D02*
X113034453Y-272602614D01*
X113034453Y-272602614D02*
X113105881Y-272459757D01*
X113105881Y-272459757D02*
X113248739Y-272388328D01*
X113248739Y-272388328D02*
X113534453Y-272388328D01*
X113534453Y-272388328D02*
X113677310Y-272459757D01*
X113677310Y-272459757D02*
X113748739Y-272602614D01*
X113748739Y-272602614D02*
X113748739Y-272745471D01*
X113748739Y-272745471D02*
X113034453Y-272888328D01*
X114391595Y-272388328D02*
X114391595Y-273388328D01*
X114391595Y-272531185D02*
X114463024Y-272459757D01*
X114463024Y-272459757D02*
X114605881Y-272388328D01*
X114605881Y-272388328D02*
X114820167Y-272388328D01*
X114820167Y-272388328D02*
X114963024Y-272459757D01*
X114963024Y-272459757D02*
X115034453Y-272602614D01*
X115034453Y-272602614D02*
X115034453Y-273388328D01*
X116391596Y-273388328D02*
X116391596Y-271888328D01*
X116391596Y-273316900D02*
X116248738Y-273388328D01*
X116248738Y-273388328D02*
X115963024Y-273388328D01*
X115963024Y-273388328D02*
X115820167Y-273316900D01*
X115820167Y-273316900D02*
X115748738Y-273245471D01*
X115748738Y-273245471D02*
X115677310Y-273102614D01*
X115677310Y-273102614D02*
X115677310Y-272674042D01*
X115677310Y-272674042D02*
X115748738Y-272531185D01*
X115748738Y-272531185D02*
X115820167Y-272459757D01*
X115820167Y-272459757D02*
X115963024Y-272388328D01*
X115963024Y-272388328D02*
X116248738Y-272388328D01*
X116248738Y-272388328D02*
X116391596Y-272459757D01*
X117677310Y-273316900D02*
X117534453Y-273388328D01*
X117534453Y-273388328D02*
X117248739Y-273388328D01*
X117248739Y-273388328D02*
X117105881Y-273316900D01*
X117105881Y-273316900D02*
X117034453Y-273174042D01*
X117034453Y-273174042D02*
X117034453Y-272602614D01*
X117034453Y-272602614D02*
X117105881Y-272459757D01*
X117105881Y-272459757D02*
X117248739Y-272388328D01*
X117248739Y-272388328D02*
X117534453Y-272388328D01*
X117534453Y-272388328D02*
X117677310Y-272459757D01*
X117677310Y-272459757D02*
X117748739Y-272602614D01*
X117748739Y-272602614D02*
X117748739Y-272745471D01*
X117748739Y-272745471D02*
X117034453Y-272888328D01*
X118391595Y-273388328D02*
X118391595Y-272388328D01*
X118391595Y-272674042D02*
X118463024Y-272531185D01*
X118463024Y-272531185D02*
X118534453Y-272459757D01*
X118534453Y-272459757D02*
X118677310Y-272388328D01*
X118677310Y-272388328D02*
X118820167Y-272388328D01*
X119320166Y-273245471D02*
X119391595Y-273316900D01*
X119391595Y-273316900D02*
X119320166Y-273388328D01*
X119320166Y-273388328D02*
X119248738Y-273316900D01*
X119248738Y-273316900D02*
X119320166Y-273245471D01*
X119320166Y-273245471D02*
X119320166Y-273388328D01*
X120034452Y-273388328D02*
X120034452Y-271888328D01*
X120177310Y-272816900D02*
X120605881Y-273388328D01*
X120605881Y-272388328D02*
X120034452Y-272959757D01*
X121248738Y-273388328D02*
X121248738Y-272388328D01*
X121248738Y-271888328D02*
X121177310Y-271959757D01*
X121177310Y-271959757D02*
X121248738Y-272031185D01*
X121248738Y-272031185D02*
X121320167Y-271959757D01*
X121320167Y-271959757D02*
X121248738Y-271888328D01*
X121248738Y-271888328D02*
X121248738Y-272031185D01*
X122605882Y-273316900D02*
X122463024Y-273388328D01*
X122463024Y-273388328D02*
X122177310Y-273388328D01*
X122177310Y-273388328D02*
X122034453Y-273316900D01*
X122034453Y-273316900D02*
X121963024Y-273245471D01*
X121963024Y-273245471D02*
X121891596Y-273102614D01*
X121891596Y-273102614D02*
X121891596Y-272674042D01*
X121891596Y-272674042D02*
X121963024Y-272531185D01*
X121963024Y-272531185D02*
X122034453Y-272459757D01*
X122034453Y-272459757D02*
X122177310Y-272388328D01*
X122177310Y-272388328D02*
X122463024Y-272388328D01*
X122463024Y-272388328D02*
X122605882Y-272459757D01*
X123891596Y-273388328D02*
X123891596Y-272602614D01*
X123891596Y-272602614D02*
X123820167Y-272459757D01*
X123820167Y-272459757D02*
X123677310Y-272388328D01*
X123677310Y-272388328D02*
X123391596Y-272388328D01*
X123391596Y-272388328D02*
X123248738Y-272459757D01*
X123891596Y-273316900D02*
X123748738Y-273388328D01*
X123748738Y-273388328D02*
X123391596Y-273388328D01*
X123391596Y-273388328D02*
X123248738Y-273316900D01*
X123248738Y-273316900D02*
X123177310Y-273174042D01*
X123177310Y-273174042D02*
X123177310Y-273031185D01*
X123177310Y-273031185D02*
X123248738Y-272888328D01*
X123248738Y-272888328D02*
X123391596Y-272816900D01*
X123391596Y-272816900D02*
X123748738Y-272816900D01*
X123748738Y-272816900D02*
X123891596Y-272745471D01*
X125248739Y-273388328D02*
X125248739Y-271888328D01*
X125248739Y-273316900D02*
X125105881Y-273388328D01*
X125105881Y-273388328D02*
X124820167Y-273388328D01*
X124820167Y-273388328D02*
X124677310Y-273316900D01*
X124677310Y-273316900D02*
X124605881Y-273245471D01*
X124605881Y-273245471D02*
X124534453Y-273102614D01*
X124534453Y-273102614D02*
X124534453Y-272674042D01*
X124534453Y-272674042D02*
X124605881Y-272531185D01*
X124605881Y-272531185D02*
X124677310Y-272459757D01*
X124677310Y-272459757D02*
X124820167Y-272388328D01*
X124820167Y-272388328D02*
X125105881Y-272388328D01*
X125105881Y-272388328D02*
X125248739Y-272459757D01*
X125605882Y-273531185D02*
X126748739Y-273531185D01*
X127105881Y-272388328D02*
X127105881Y-273888328D01*
X127105881Y-272459757D02*
X127248739Y-272388328D01*
X127248739Y-272388328D02*
X127534453Y-272388328D01*
X127534453Y-272388328D02*
X127677310Y-272459757D01*
X127677310Y-272459757D02*
X127748739Y-272531185D01*
X127748739Y-272531185D02*
X127820167Y-272674042D01*
X127820167Y-272674042D02*
X127820167Y-273102614D01*
X127820167Y-273102614D02*
X127748739Y-273245471D01*
X127748739Y-273245471D02*
X127677310Y-273316900D01*
X127677310Y-273316900D02*
X127534453Y-273388328D01*
X127534453Y-273388328D02*
X127248739Y-273388328D01*
X127248739Y-273388328D02*
X127105881Y-273316900D01*
X129105882Y-273316900D02*
X128963024Y-273388328D01*
X128963024Y-273388328D02*
X128677310Y-273388328D01*
X128677310Y-273388328D02*
X128534453Y-273316900D01*
X128534453Y-273316900D02*
X128463024Y-273245471D01*
X128463024Y-273245471D02*
X128391596Y-273102614D01*
X128391596Y-273102614D02*
X128391596Y-272674042D01*
X128391596Y-272674042D02*
X128463024Y-272531185D01*
X128463024Y-272531185D02*
X128534453Y-272459757D01*
X128534453Y-272459757D02*
X128677310Y-272388328D01*
X128677310Y-272388328D02*
X128963024Y-272388328D01*
X128963024Y-272388328D02*
X129105882Y-272459757D01*
X129748738Y-273388328D02*
X129748738Y-271888328D01*
X129748738Y-272459757D02*
X129891596Y-272388328D01*
X129891596Y-272388328D02*
X130177310Y-272388328D01*
X130177310Y-272388328D02*
X130320167Y-272459757D01*
X130320167Y-272459757D02*
X130391596Y-272531185D01*
X130391596Y-272531185D02*
X130463024Y-272674042D01*
X130463024Y-272674042D02*
X130463024Y-273102614D01*
X130463024Y-273102614D02*
X130391596Y-273245471D01*
X130391596Y-273245471D02*
X130320167Y-273316900D01*
X130320167Y-273316900D02*
X130177310Y-273388328D01*
X130177310Y-273388328D02*
X129891596Y-273388328D01*
X129891596Y-273388328D02*
X129748738Y-273316900D01*
D10*
D11*
X90007200Y-268502200D02*
X198007200Y-268502200D01*
D10*
D11*
X91391598Y-270616900D02*
X91605884Y-270688328D01*
X91605884Y-270688328D02*
X91963026Y-270688328D01*
X91963026Y-270688328D02*
X92105884Y-270616900D01*
X92105884Y-270616900D02*
X92177312Y-270545471D01*
X92177312Y-270545471D02*
X92248741Y-270402614D01*
X92248741Y-270402614D02*
X92248741Y-270259757D01*
X92248741Y-270259757D02*
X92177312Y-270116900D01*
X92177312Y-270116900D02*
X92105884Y-270045471D01*
X92105884Y-270045471D02*
X91963026Y-269974042D01*
X91963026Y-269974042D02*
X91677312Y-269902614D01*
X91677312Y-269902614D02*
X91534455Y-269831185D01*
X91534455Y-269831185D02*
X91463026Y-269759757D01*
X91463026Y-269759757D02*
X91391598Y-269616900D01*
X91391598Y-269616900D02*
X91391598Y-269474042D01*
X91391598Y-269474042D02*
X91463026Y-269331185D01*
X91463026Y-269331185D02*
X91534455Y-269259757D01*
X91534455Y-269259757D02*
X91677312Y-269188328D01*
X91677312Y-269188328D02*
X92034455Y-269188328D01*
X92034455Y-269188328D02*
X92248741Y-269259757D01*
X92891597Y-270688328D02*
X92891597Y-269188328D01*
X93534455Y-270688328D02*
X93534455Y-269902614D01*
X93534455Y-269902614D02*
X93463026Y-269759757D01*
X93463026Y-269759757D02*
X93320169Y-269688328D01*
X93320169Y-269688328D02*
X93105883Y-269688328D01*
X93105883Y-269688328D02*
X92963026Y-269759757D01*
X92963026Y-269759757D02*
X92891597Y-269831185D01*
X94820169Y-270616900D02*
X94677312Y-270688328D01*
X94677312Y-270688328D02*
X94391598Y-270688328D01*
X94391598Y-270688328D02*
X94248740Y-270616900D01*
X94248740Y-270616900D02*
X94177312Y-270474042D01*
X94177312Y-270474042D02*
X94177312Y-269902614D01*
X94177312Y-269902614D02*
X94248740Y-269759757D01*
X94248740Y-269759757D02*
X94391598Y-269688328D01*
X94391598Y-269688328D02*
X94677312Y-269688328D01*
X94677312Y-269688328D02*
X94820169Y-269759757D01*
X94820169Y-269759757D02*
X94891598Y-269902614D01*
X94891598Y-269902614D02*
X94891598Y-270045471D01*
X94891598Y-270045471D02*
X94177312Y-270188328D01*
X96105883Y-270616900D02*
X95963026Y-270688328D01*
X95963026Y-270688328D02*
X95677312Y-270688328D01*
X95677312Y-270688328D02*
X95534454Y-270616900D01*
X95534454Y-270616900D02*
X95463026Y-270474042D01*
X95463026Y-270474042D02*
X95463026Y-269902614D01*
X95463026Y-269902614D02*
X95534454Y-269759757D01*
X95534454Y-269759757D02*
X95677312Y-269688328D01*
X95677312Y-269688328D02*
X95963026Y-269688328D01*
X95963026Y-269688328D02*
X96105883Y-269759757D01*
X96105883Y-269759757D02*
X96177312Y-269902614D01*
X96177312Y-269902614D02*
X96177312Y-270045471D01*
X96177312Y-270045471D02*
X95463026Y-270188328D01*
X96605883Y-269688328D02*
X97177311Y-269688328D01*
X96820168Y-269188328D02*
X96820168Y-270474042D01*
X96820168Y-270474042D02*
X96891597Y-270616900D01*
X96891597Y-270616900D02*
X97034454Y-270688328D01*
X97034454Y-270688328D02*
X97177311Y-270688328D01*
X97677311Y-270545471D02*
X97748740Y-270616900D01*
X97748740Y-270616900D02*
X97677311Y-270688328D01*
X97677311Y-270688328D02*
X97605883Y-270616900D01*
X97605883Y-270616900D02*
X97677311Y-270545471D01*
X97677311Y-270545471D02*
X97677311Y-270688328D01*
X97677311Y-269759757D02*
X97748740Y-269831185D01*
X97748740Y-269831185D02*
X97677311Y-269902614D01*
X97677311Y-269902614D02*
X97605883Y-269831185D01*
X97605883Y-269831185D02*
X97677311Y-269759757D01*
X97677311Y-269759757D02*
X97677311Y-269902614D01*
D10*
D11*
X92177312Y-260188328D02*
X91463026Y-260188328D01*
X91463026Y-260188328D02*
X91463026Y-261688328D01*
X91463026Y-261688328D02*
X91891598Y-261688328D01*
X91891598Y-261688328D02*
X92105884Y-261616900D01*
X92105884Y-261616900D02*
X92248741Y-261474042D01*
X92248741Y-261474042D02*
X92320169Y-261331185D01*
X92320169Y-261331185D02*
X92320169Y-261116900D01*
X92320169Y-261116900D02*
X92248741Y-260974042D01*
X92248741Y-260974042D02*
X92105884Y-260831185D01*
X92105884Y-260831185D02*
X91891598Y-260759757D01*
X91891598Y-260759757D02*
X91463026Y-260759757D01*
X92820169Y-260688328D02*
X93177312Y-261688328D01*
X93534455Y-260688328D02*
X93177312Y-261688328D01*
X93177312Y-261688328D02*
X93034455Y-262045471D01*
X93034455Y-262045471D02*
X92963026Y-262116900D01*
X92963026Y-262116900D02*
X92820169Y-262188328D01*
X94105883Y-260688328D02*
X94105883Y-262188328D01*
X94105883Y-260759757D02*
X94248741Y-260688328D01*
X94248741Y-260688328D02*
X94534455Y-260688328D01*
X94534455Y-260688328D02*
X94677312Y-260759757D01*
X94677312Y-260759757D02*
X94748741Y-260831185D01*
X94748741Y-260831185D02*
X94820169Y-260974042D01*
X94820169Y-260974042D02*
X94820169Y-261402614D01*
X94820169Y-261402614D02*
X94748741Y-261545471D01*
X94748741Y-261545471D02*
X94677312Y-261616900D01*
X94677312Y-261616900D02*
X94534455Y-261688328D01*
X94534455Y-261688328D02*
X94248741Y-261688328D01*
X94248741Y-261688328D02*
X94105883Y-261616900D01*
X96463026Y-260688328D02*
X96463026Y-261688328D01*
X95463026Y-260688328D02*
X95463026Y-261688328D01*
X95463026Y-261688328D02*
X95820169Y-261688328D01*
X95820169Y-261688328D02*
X95963026Y-261616900D01*
X95963026Y-261616900D02*
X96034455Y-261474042D01*
X96034455Y-261474042D02*
X96034455Y-261259757D01*
X96034455Y-261259757D02*
X95963026Y-261116900D01*
X95963026Y-261116900D02*
X95820169Y-261045471D01*
X95820169Y-261045471D02*
X95463026Y-261045471D01*
X97177312Y-260688328D02*
X97177312Y-261688328D01*
X97320170Y-261116900D02*
X97748741Y-261688328D01*
X97748741Y-260688328D02*
X97177312Y-261259757D01*
X98391598Y-260688328D02*
X98391598Y-261688328D01*
X98391598Y-261688328D02*
X99105884Y-260688328D01*
X99105884Y-260688328D02*
X99105884Y-261688328D01*
X99820169Y-261188328D02*
X100463027Y-261188328D01*
X99820169Y-260688328D02*
X99820169Y-261688328D01*
X100463027Y-260688328D02*
X100463027Y-261688328D01*
X102320169Y-260188328D02*
X102320169Y-261688328D01*
X102320169Y-261688328D02*
X103177312Y-260188328D01*
X103177312Y-260188328D02*
X103177312Y-261688328D01*
X103891598Y-261545471D02*
X103963027Y-261616900D01*
X103963027Y-261616900D02*
X103891598Y-261688328D01*
X103891598Y-261688328D02*
X103820170Y-261616900D01*
X103820170Y-261616900D02*
X103891598Y-261545471D01*
X103891598Y-261545471D02*
X103891598Y-261688328D01*
X104605884Y-260188328D02*
X104605884Y-261688328D01*
X105105884Y-260902614D02*
X104605884Y-260902614D01*
X105463027Y-260188328D02*
X105748742Y-260188328D01*
X105748742Y-260188328D02*
X105891599Y-260259757D01*
X105891599Y-260259757D02*
X106034456Y-260402614D01*
X106034456Y-260402614D02*
X106105884Y-260688328D01*
X106105884Y-260688328D02*
X106105884Y-261188328D01*
X106105884Y-261188328D02*
X106034456Y-261474042D01*
X106034456Y-261474042D02*
X105891599Y-261616900D01*
X105891599Y-261616900D02*
X105748742Y-261688328D01*
X105748742Y-261688328D02*
X105463027Y-261688328D01*
X105463027Y-261688328D02*
X105320170Y-261616900D01*
X105320170Y-261616900D02*
X105177313Y-261474042D01*
X105177313Y-261474042D02*
X105105884Y-261188328D01*
X105105884Y-261188328D02*
X105105884Y-260688328D01*
X105105884Y-260688328D02*
X105177313Y-260402614D01*
X105177313Y-260402614D02*
X105320170Y-260259757D01*
X105320170Y-260259757D02*
X105463027Y-260188328D01*
X106748741Y-261545471D02*
X106820170Y-261616900D01*
X106820170Y-261616900D02*
X106748741Y-261688328D01*
X106748741Y-261688328D02*
X106677313Y-261616900D01*
X106677313Y-261616900D02*
X106748741Y-261545471D01*
X106748741Y-261545471D02*
X106748741Y-261688328D01*
D10*
D11*
X110007200Y-278502200D02*
X110007200Y-281502200D01*
D10*
D11*
X174007200Y-278502200D02*
X174007200Y-285002200D01*
D10*
G36*
X69641253Y-80761017D02*
G01*
X69677397Y-80797162D01*
X69716109Y-80874585D01*
X69716109Y-81146115D01*
X69339919Y-81146115D01*
X69339919Y-80874585D01*
X69378630Y-80797161D01*
X69414775Y-80761017D01*
X69492199Y-80722306D01*
X69563830Y-80722306D01*
X69641253Y-80761017D01*
G37*
G36*
X70165061Y-80713398D02*
G01*
X70201208Y-80749544D01*
X70239919Y-80826966D01*
X70239919Y-81146115D01*
X69816109Y-81146115D01*
X69816109Y-80870895D01*
X69857429Y-80746933D01*
X69890965Y-80713398D01*
X69968389Y-80674687D01*
X70087639Y-80674687D01*
X70165061Y-80713398D01*
G37*
G36*
X69688872Y-76713398D02*
G01*
X69725016Y-76749543D01*
X69763728Y-76826966D01*
X69763728Y-77146115D01*
X69339919Y-77146115D01*
X69339919Y-76826966D01*
X69378630Y-76749542D01*
X69414775Y-76713398D01*
X69492199Y-76674687D01*
X69611449Y-76674687D01*
X69688872Y-76713398D01*
G37*
G36*
X70165061Y-75808636D02*
G01*
X70201208Y-75844782D01*
X70239919Y-75922204D01*
X70239919Y-76041454D01*
X70201208Y-76118876D01*
X70165061Y-76155022D01*
X70087639Y-76193734D01*
X69825532Y-76193734D01*
X69748108Y-76155022D01*
X69711963Y-76118878D01*
X69673252Y-76041455D01*
X69673252Y-75922204D01*
X69711963Y-75844780D01*
X69748108Y-75808636D01*
X69825532Y-75769925D01*
X70087639Y-75769925D01*
X70165061Y-75808636D01*
G37*
G36*
X69895595Y-74241353D02*
G01*
X69777913Y-74241353D01*
X69708138Y-74206466D01*
X69673252Y-74136693D01*
X69673252Y-73969823D01*
X69708138Y-73900049D01*
X69777913Y-73865163D01*
X69820357Y-73865163D01*
X69895595Y-74241353D01*
G37*
G36*
X70451030Y-83357226D02*
G01*
X69128808Y-83357226D01*
X69128808Y-82605553D01*
X69243725Y-82605553D01*
X69243725Y-82643821D01*
X69270785Y-82670881D01*
X69289919Y-82674687D01*
X70087639Y-82674687D01*
X70165061Y-82713398D01*
X70201208Y-82749544D01*
X70239919Y-82826966D01*
X70239919Y-82993835D01*
X70201208Y-83071257D01*
X70165061Y-83107403D01*
X70087639Y-83146115D01*
X69289919Y-83146115D01*
X69270785Y-83149921D01*
X69243725Y-83176981D01*
X69243725Y-83215249D01*
X69270785Y-83242309D01*
X69289919Y-83246115D01*
X70099442Y-83246115D01*
X70101898Y-83245626D01*
X70102987Y-83245989D01*
X70110714Y-83243872D01*
X70118576Y-83242309D01*
X70119387Y-83241497D01*
X70121803Y-83240836D01*
X70217040Y-83193218D01*
X70223368Y-83188306D01*
X70230035Y-83183852D01*
X70277655Y-83136233D01*
X70282109Y-83129566D01*
X70287021Y-83123238D01*
X70334640Y-83028000D01*
X70335301Y-83025584D01*
X70336113Y-83024773D01*
X70337676Y-83016911D01*
X70339793Y-83009184D01*
X70339430Y-83008095D01*
X70339919Y-83005639D01*
X70339919Y-82815163D01*
X70339430Y-82812706D01*
X70339793Y-82811618D01*
X70337676Y-82803890D01*
X70336113Y-82796029D01*
X70335301Y-82795217D01*
X70334640Y-82792802D01*
X70287021Y-82697564D01*
X70282109Y-82691235D01*
X70277655Y-82684569D01*
X70230035Y-82636950D01*
X70223368Y-82632495D01*
X70217040Y-82627584D01*
X70121803Y-82579966D01*
X70119387Y-82579304D01*
X70118576Y-82578493D01*
X70110714Y-82576929D01*
X70102987Y-82574813D01*
X70101898Y-82575175D01*
X70099442Y-82574687D01*
X69289919Y-82574687D01*
X69270785Y-82578493D01*
X69243725Y-82605553D01*
X69128808Y-82605553D01*
X69128808Y-81767544D01*
X69239919Y-81767544D01*
X69239919Y-82005639D01*
X69240407Y-82008095D01*
X69240045Y-82009184D01*
X69242161Y-82016911D01*
X69243725Y-82024773D01*
X69244536Y-82025584D01*
X69245198Y-82028000D01*
X69292816Y-82123237D01*
X69297731Y-82129570D01*
X69302183Y-82136232D01*
X69349801Y-82183851D01*
X69356467Y-82188305D01*
X69362796Y-82193217D01*
X69458034Y-82240836D01*
X69460449Y-82241497D01*
X69461261Y-82242309D01*
X69469122Y-82243872D01*
X69476850Y-82245989D01*
X69477938Y-82245626D01*
X69480395Y-82246115D01*
X69575633Y-82246115D01*
X69578089Y-82245626D01*
X69579178Y-82245989D01*
X69586905Y-82243872D01*
X69594767Y-82242309D01*
X69595578Y-82241497D01*
X69597994Y-82240836D01*
X69693231Y-82193218D01*
X69699564Y-82188302D01*
X69706226Y-82183851D01*
X69753845Y-82136233D01*
X69758299Y-82129566D01*
X69763211Y-82123238D01*
X69810830Y-82028000D01*
X69812276Y-82022718D01*
X69814616Y-82017766D01*
X69860904Y-81832614D01*
X69902439Y-81749542D01*
X69938584Y-81713398D01*
X70016008Y-81674687D01*
X70087639Y-81674687D01*
X70165061Y-81713398D01*
X70201208Y-81749544D01*
X70239919Y-81826966D01*
X70239919Y-82045145D01*
X70194866Y-82180304D01*
X70192426Y-82199659D01*
X70209540Y-82233888D01*
X70245844Y-82245989D01*
X70280073Y-82228875D01*
X70289734Y-82211926D01*
X70337353Y-82069070D01*
X70338355Y-82061119D01*
X70339919Y-82053258D01*
X70339919Y-81815163D01*
X70339430Y-81812706D01*
X70339793Y-81811618D01*
X70337676Y-81803890D01*
X70336113Y-81796029D01*
X70335301Y-81795217D01*
X70334640Y-81792802D01*
X70287021Y-81697564D01*
X70282109Y-81691235D01*
X70277655Y-81684569D01*
X70230035Y-81636950D01*
X70223368Y-81632495D01*
X70217040Y-81627584D01*
X70121803Y-81579966D01*
X70119387Y-81579304D01*
X70118576Y-81578493D01*
X70110714Y-81576929D01*
X70102987Y-81574813D01*
X70101898Y-81575175D01*
X70099442Y-81574687D01*
X70004204Y-81574687D01*
X70001747Y-81575175D01*
X70000659Y-81574813D01*
X69992931Y-81576929D01*
X69985070Y-81578493D01*
X69984258Y-81579304D01*
X69981843Y-81579966D01*
X69886605Y-81627585D01*
X69880276Y-81632496D01*
X69873610Y-81636951D01*
X69825992Y-81684570D01*
X69821540Y-81691231D01*
X69816625Y-81697565D01*
X69769007Y-81792802D01*
X69767560Y-81798083D01*
X69765221Y-81803036D01*
X69718933Y-81988186D01*
X69677397Y-82071258D01*
X69641253Y-82107403D01*
X69563830Y-82146115D01*
X69492199Y-82146115D01*
X69414775Y-82107403D01*
X69378630Y-82071259D01*
X69339919Y-81993836D01*
X69339919Y-81775657D01*
X69384972Y-81640499D01*
X69387412Y-81621143D01*
X69370298Y-81586915D01*
X69333994Y-81574813D01*
X69299765Y-81591928D01*
X69290104Y-81608876D01*
X69242485Y-81751733D01*
X69241482Y-81759681D01*
X69239919Y-81767544D01*
X69128808Y-81767544D01*
X69128808Y-80862782D01*
X69239919Y-80862782D01*
X69239919Y-81196115D01*
X69243725Y-81215249D01*
X69270785Y-81242309D01*
X69289919Y-81246115D01*
X70289919Y-81246115D01*
X70309053Y-81242309D01*
X70336113Y-81215249D01*
X70339919Y-81196115D01*
X70339919Y-80815163D01*
X70339430Y-80812706D01*
X70339793Y-80811618D01*
X70337676Y-80803890D01*
X70336113Y-80796029D01*
X70335301Y-80795217D01*
X70334640Y-80792802D01*
X70287021Y-80697564D01*
X70282109Y-80691235D01*
X70277655Y-80684569D01*
X70230035Y-80636950D01*
X70223368Y-80632495D01*
X70217040Y-80627584D01*
X70121803Y-80579966D01*
X70119387Y-80579304D01*
X70118576Y-80578493D01*
X70110714Y-80576929D01*
X70102987Y-80574813D01*
X70101898Y-80575175D01*
X70099442Y-80574687D01*
X69956585Y-80574687D01*
X69954128Y-80575175D01*
X69953040Y-80574813D01*
X69945312Y-80576929D01*
X69937451Y-80578493D01*
X69936639Y-80579304D01*
X69934224Y-80579966D01*
X69838986Y-80627585D01*
X69832657Y-80632496D01*
X69825991Y-80636951D01*
X69778373Y-80684570D01*
X69776981Y-80686652D01*
X69775955Y-80687166D01*
X69771987Y-80694126D01*
X69767534Y-80700791D01*
X69767534Y-80701938D01*
X69766294Y-80704114D01*
X69755907Y-80735274D01*
X69753845Y-80732188D01*
X69706226Y-80684570D01*
X69699564Y-80680118D01*
X69693231Y-80675203D01*
X69597994Y-80627585D01*
X69595578Y-80626923D01*
X69594767Y-80626112D01*
X69586905Y-80624548D01*
X69579178Y-80622432D01*
X69578089Y-80622794D01*
X69575633Y-80622306D01*
X69480395Y-80622306D01*
X69477938Y-80622794D01*
X69476850Y-80622432D01*
X69469122Y-80624548D01*
X69461261Y-80626112D01*
X69460449Y-80626923D01*
X69458034Y-80627585D01*
X69362796Y-80675204D01*
X69356467Y-80680115D01*
X69349801Y-80684570D01*
X69302183Y-80732189D01*
X69297731Y-80738850D01*
X69292816Y-80745184D01*
X69245198Y-80840421D01*
X69244536Y-80842836D01*
X69243725Y-80843648D01*
X69242161Y-80851509D01*
X69240045Y-80859237D01*
X69240407Y-80860325D01*
X69239919Y-80862782D01*
X69128808Y-80862782D01*
X69128808Y-79434211D01*
X69858966Y-79434211D01*
X69858966Y-80196115D01*
X69862772Y-80215249D01*
X69889832Y-80242309D01*
X69928100Y-80242309D01*
X69955160Y-80215249D01*
X69958966Y-80196115D01*
X69958966Y-79434211D01*
X69955160Y-79415077D01*
X69928100Y-79388017D01*
X69889832Y-79388017D01*
X69862772Y-79415077D01*
X69858966Y-79434211D01*
X69128808Y-79434211D01*
X69128808Y-78577068D01*
X69239919Y-78577068D01*
X69239919Y-78672306D01*
X69241482Y-78680168D01*
X69242485Y-78688117D01*
X69290104Y-78830974D01*
X69291344Y-78833149D01*
X69291344Y-78834297D01*
X69295797Y-78840961D01*
X69299765Y-78847922D01*
X69300791Y-78848435D01*
X69302183Y-78850518D01*
X69397421Y-78945756D01*
X69404080Y-78950206D01*
X69410415Y-78955122D01*
X69505653Y-79002741D01*
X69510934Y-79004187D01*
X69515887Y-79006527D01*
X69706363Y-79054146D01*
X69712480Y-79054443D01*
X69718490Y-79055639D01*
X69861347Y-79055639D01*
X69867356Y-79054443D01*
X69873474Y-79054146D01*
X70063950Y-79006527D01*
X70068902Y-79004187D01*
X70074184Y-79002741D01*
X70169421Y-78955123D01*
X70175749Y-78950211D01*
X70182416Y-78945757D01*
X70277655Y-78850518D01*
X70279045Y-78848436D01*
X70280073Y-78847923D01*
X70284043Y-78840957D01*
X70288494Y-78834297D01*
X70288494Y-78833149D01*
X70289734Y-78830974D01*
X70337353Y-78688118D01*
X70338355Y-78680167D01*
X70339919Y-78672306D01*
X70339919Y-78577068D01*
X70338355Y-78569206D01*
X70337353Y-78561256D01*
X70289734Y-78418400D01*
X70288494Y-78416224D01*
X70288494Y-78415076D01*
X70284039Y-78408409D01*
X70280073Y-78401451D01*
X70279046Y-78400937D01*
X70277655Y-78398855D01*
X70230035Y-78351236D01*
X70213814Y-78340398D01*
X70175545Y-78340398D01*
X70148486Y-78367458D01*
X70148486Y-78405727D01*
X70159325Y-78421948D01*
X70198599Y-78461221D01*
X70239919Y-78585181D01*
X70239919Y-78664193D01*
X70198599Y-78788152D01*
X70117442Y-78869308D01*
X70034372Y-78910844D01*
X69855192Y-78955639D01*
X69724645Y-78955639D01*
X69545466Y-78910844D01*
X69462392Y-78869307D01*
X69381239Y-78788154D01*
X69339919Y-78664192D01*
X69339919Y-78585181D01*
X69381239Y-78461219D01*
X69420512Y-78421948D01*
X69431351Y-78405727D01*
X69431351Y-78367458D01*
X69404291Y-78340398D01*
X69366022Y-78340398D01*
X69349801Y-78351237D01*
X69302183Y-78398856D01*
X69300791Y-78400938D01*
X69299765Y-78401452D01*
X69295797Y-78408412D01*
X69291344Y-78415077D01*
X69291344Y-78416224D01*
X69290104Y-78418400D01*
X69242485Y-78561257D01*
X69241482Y-78569205D01*
X69239919Y-78577068D01*
X69128808Y-78577068D01*
X69128808Y-76815163D01*
X69239919Y-76815163D01*
X69239919Y-77196115D01*
X69243725Y-77215249D01*
X69270785Y-77242309D01*
X69289919Y-77246115D01*
X70289919Y-77246115D01*
X70309053Y-77242309D01*
X70336113Y-77215249D01*
X70336113Y-77176981D01*
X70309053Y-77149921D01*
X70289919Y-77146115D01*
X69863728Y-77146115D01*
X69863728Y-76815163D01*
X69863239Y-76812706D01*
X69863602Y-76811618D01*
X69861485Y-76803890D01*
X69859922Y-76796029D01*
X69859110Y-76795217D01*
X69858449Y-76792802D01*
X69810830Y-76697564D01*
X69805918Y-76691235D01*
X69801464Y-76684569D01*
X69753845Y-76636951D01*
X69747183Y-76632499D01*
X69740850Y-76627584D01*
X69645613Y-76579966D01*
X69643197Y-76579304D01*
X69642386Y-76578493D01*
X69634524Y-76576929D01*
X69626797Y-76574813D01*
X69625708Y-76575175D01*
X69623252Y-76574687D01*
X69480395Y-76574687D01*
X69477938Y-76575175D01*
X69476850Y-76574813D01*
X69469122Y-76576929D01*
X69461261Y-76578493D01*
X69460449Y-76579304D01*
X69458034Y-76579966D01*
X69362796Y-76627585D01*
X69356467Y-76632496D01*
X69349801Y-76636951D01*
X69302183Y-76684570D01*
X69297731Y-76691231D01*
X69292816Y-76697565D01*
X69245198Y-76792802D01*
X69244536Y-76795217D01*
X69243725Y-76796029D01*
X69242161Y-76803890D01*
X69240045Y-76811618D01*
X69240407Y-76812706D01*
X69239919Y-76815163D01*
X69128808Y-76815163D01*
X69128808Y-75910401D01*
X69573252Y-75910401D01*
X69573252Y-76053258D01*
X69573740Y-76055714D01*
X69573378Y-76056803D01*
X69575494Y-76064530D01*
X69577058Y-76072392D01*
X69577869Y-76073203D01*
X69578531Y-76075619D01*
X69626149Y-76170856D01*
X69631064Y-76177189D01*
X69635516Y-76183851D01*
X69683134Y-76231470D01*
X69689800Y-76235924D01*
X69696129Y-76240836D01*
X69791367Y-76288455D01*
X69793782Y-76289116D01*
X69794594Y-76289928D01*
X69802455Y-76291491D01*
X69810183Y-76293608D01*
X69811271Y-76293245D01*
X69813728Y-76293734D01*
X70099442Y-76293734D01*
X70101898Y-76293245D01*
X70102987Y-76293608D01*
X70110714Y-76291491D01*
X70118576Y-76289928D01*
X70119387Y-76289116D01*
X70121803Y-76288455D01*
X70217040Y-76240837D01*
X70223368Y-76235925D01*
X70230035Y-76231471D01*
X70277655Y-76183852D01*
X70282109Y-76177185D01*
X70287021Y-76170857D01*
X70334640Y-76075619D01*
X70335301Y-76073203D01*
X70336113Y-76072392D01*
X70337676Y-76064530D01*
X70339793Y-76056803D01*
X70339430Y-76055714D01*
X70339919Y-76053258D01*
X70339919Y-75910401D01*
X70339430Y-75907944D01*
X70339793Y-75906856D01*
X70337676Y-75899128D01*
X70336113Y-75891267D01*
X70335301Y-75890455D01*
X70334640Y-75888040D01*
X70287021Y-75792802D01*
X70282109Y-75786473D01*
X70277655Y-75779807D01*
X70230035Y-75732188D01*
X70223368Y-75727733D01*
X70217040Y-75722822D01*
X70121803Y-75675204D01*
X70119387Y-75674542D01*
X70118576Y-75673731D01*
X70110714Y-75672167D01*
X70102987Y-75670051D01*
X70101898Y-75670413D01*
X70099442Y-75669925D01*
X69813728Y-75669925D01*
X69811271Y-75670413D01*
X69810183Y-75670051D01*
X69802455Y-75672167D01*
X69794594Y-75673731D01*
X69793782Y-75674542D01*
X69791367Y-75675204D01*
X69696129Y-75722823D01*
X69689800Y-75727734D01*
X69683134Y-75732189D01*
X69635516Y-75779808D01*
X69631064Y-75786469D01*
X69626149Y-75792803D01*
X69578531Y-75888040D01*
X69577869Y-75890455D01*
X69577058Y-75891267D01*
X69575494Y-75899128D01*
X69573378Y-75906856D01*
X69573740Y-75907944D01*
X69573252Y-75910401D01*
X69128808Y-75910401D01*
X69128808Y-74630394D01*
X69573579Y-74630394D01*
X69592164Y-74663847D01*
X69609516Y-74672763D01*
X70135550Y-74823058D01*
X69795158Y-74959215D01*
X69778807Y-74969855D01*
X69778548Y-74970459D01*
X69777944Y-74970718D01*
X69771040Y-74987978D01*
X69763732Y-75005030D01*
X69763975Y-75005639D01*
X69763732Y-75006248D01*
X69771040Y-75023300D01*
X69777944Y-75040560D01*
X69778548Y-75040818D01*
X69778807Y-75041423D01*
X69795158Y-75052063D01*
X70135550Y-75188219D01*
X69609516Y-75338515D01*
X69592164Y-75347431D01*
X69573579Y-75380884D01*
X69584092Y-75417679D01*
X69617545Y-75436264D01*
X69636988Y-75434667D01*
X70303655Y-75244191D01*
X70321007Y-75235275D01*
X70322630Y-75232352D01*
X70325703Y-75231036D01*
X70331722Y-75215987D01*
X70339592Y-75201822D01*
X70338673Y-75198608D01*
X70339915Y-75195505D01*
X70333531Y-75180610D01*
X70329079Y-75165027D01*
X70326156Y-75163403D01*
X70324840Y-75160331D01*
X70308488Y-75149691D01*
X69948358Y-75005639D01*
X70308488Y-74861587D01*
X70324840Y-74850947D01*
X70326156Y-74847874D01*
X70329079Y-74846251D01*
X70333531Y-74830667D01*
X70339915Y-74815773D01*
X70338673Y-74812669D01*
X70339592Y-74809456D01*
X70331722Y-74795290D01*
X70325703Y-74780242D01*
X70322630Y-74778925D01*
X70321007Y-74776003D01*
X70303655Y-74767087D01*
X69636988Y-74576611D01*
X69617545Y-74575014D01*
X69584092Y-74593599D01*
X69573579Y-74630394D01*
X69128808Y-74630394D01*
X69128808Y-73958020D01*
X69573252Y-73958020D01*
X69573252Y-74148496D01*
X69573740Y-74150952D01*
X69573378Y-74152041D01*
X69575494Y-74159768D01*
X69577058Y-74167630D01*
X69577869Y-74168441D01*
X69578531Y-74170857D01*
X69626149Y-74266094D01*
X69632252Y-74273958D01*
X69633098Y-74276494D01*
X69635921Y-74278685D01*
X69638111Y-74281506D01*
X69640644Y-74282350D01*
X69648510Y-74288455D01*
X69743748Y-74336074D01*
X69746163Y-74336735D01*
X69746975Y-74337547D01*
X69754836Y-74339110D01*
X69762564Y-74341227D01*
X69763652Y-74340864D01*
X69766109Y-74341353D01*
X70147061Y-74341353D01*
X70149517Y-74340864D01*
X70150605Y-74341227D01*
X70158329Y-74339111D01*
X70166195Y-74337547D01*
X70167006Y-74336735D01*
X70169421Y-74336074D01*
X70264660Y-74288456D01*
X70272524Y-74282352D01*
X70275060Y-74281507D01*
X70277251Y-74278683D01*
X70280072Y-74276494D01*
X70280916Y-74273960D01*
X70287021Y-74266095D01*
X70334640Y-74170857D01*
X70335301Y-74168441D01*
X70336113Y-74167630D01*
X70337676Y-74159768D01*
X70339793Y-74152041D01*
X70339430Y-74150952D01*
X70339919Y-74148496D01*
X70339919Y-73958020D01*
X70339430Y-73955563D01*
X70339793Y-73954475D01*
X70337676Y-73946747D01*
X70336113Y-73938886D01*
X70335301Y-73938074D01*
X70334640Y-73935659D01*
X70287021Y-73840421D01*
X70275060Y-73825009D01*
X70238755Y-73812908D01*
X70204527Y-73830022D01*
X70192426Y-73866327D01*
X70197579Y-73885143D01*
X70239919Y-73969823D01*
X70239919Y-74136692D01*
X70205032Y-74206466D01*
X70135259Y-74241353D01*
X69997575Y-74241353D01*
X69910376Y-73805357D01*
X69907541Y-73798533D01*
X69907541Y-73796029D01*
X69905761Y-73794249D01*
X69902891Y-73787341D01*
X69890777Y-73779265D01*
X69880481Y-73768969D01*
X69873143Y-73767509D01*
X69871050Y-73766114D01*
X69868595Y-73766604D01*
X69861347Y-73765163D01*
X69766109Y-73765163D01*
X69763652Y-73765651D01*
X69762564Y-73765289D01*
X69754836Y-73767405D01*
X69746975Y-73768969D01*
X69746163Y-73769780D01*
X69743748Y-73770442D01*
X69648510Y-73818061D01*
X69640644Y-73824165D01*
X69638111Y-73825010D01*
X69635921Y-73827830D01*
X69633098Y-73830022D01*
X69632252Y-73832557D01*
X69626149Y-73840422D01*
X69578531Y-73935659D01*
X69577869Y-73938074D01*
X69577058Y-73938886D01*
X69575494Y-73946747D01*
X69573378Y-73954475D01*
X69573740Y-73955563D01*
X69573252Y-73958020D01*
X69128808Y-73958020D01*
X69128808Y-73100877D01*
X69573252Y-73100877D01*
X69573252Y-73196115D01*
X69573740Y-73198571D01*
X69573378Y-73199660D01*
X69575494Y-73207387D01*
X69577058Y-73215249D01*
X69577869Y-73216060D01*
X69578531Y-73218476D01*
X69626149Y-73313713D01*
X69631064Y-73320046D01*
X69635516Y-73326708D01*
X69645399Y-73336591D01*
X69623252Y-73336591D01*
X69604118Y-73340397D01*
X69577058Y-73367457D01*
X69577058Y-73405725D01*
X69604118Y-73432785D01*
X69623252Y-73436591D01*
X70289919Y-73436591D01*
X70309053Y-73432785D01*
X70336113Y-73405725D01*
X70336113Y-73367457D01*
X70309053Y-73340397D01*
X70289919Y-73336591D01*
X69825532Y-73336591D01*
X69748108Y-73297879D01*
X69711963Y-73261735D01*
X69673252Y-73184312D01*
X69673252Y-73100877D01*
X69669446Y-73081743D01*
X69642386Y-73054683D01*
X69604118Y-73054683D01*
X69577058Y-73081743D01*
X69573252Y-73100877D01*
X69128808Y-73100877D01*
X69128808Y-72943572D01*
X70451030Y-72943572D01*
X70451030Y-83357226D01*
G37*
G36*
X96641253Y-82761017D02*
G01*
X96677397Y-82797162D01*
X96716109Y-82874585D01*
X96716109Y-83146115D01*
X96339919Y-83146115D01*
X96339919Y-82874585D01*
X96378630Y-82797161D01*
X96414775Y-82761017D01*
X96492199Y-82722306D01*
X96563830Y-82722306D01*
X96641253Y-82761017D01*
G37*
G36*
X97165061Y-82713398D02*
G01*
X97201208Y-82749544D01*
X97239919Y-82826966D01*
X97239919Y-83146115D01*
X96816109Y-83146115D01*
X96816109Y-82870895D01*
X96857429Y-82746933D01*
X96890965Y-82713398D01*
X96968389Y-82674687D01*
X97087639Y-82674687D01*
X97165061Y-82713398D01*
G37*
G36*
X96688872Y-77856255D02*
G01*
X96725016Y-77892400D01*
X96763728Y-77969823D01*
X96763728Y-78288972D01*
X96339919Y-78288972D01*
X96339919Y-77969823D01*
X96378630Y-77892399D01*
X96414775Y-77856255D01*
X96492199Y-77817544D01*
X96611449Y-77817544D01*
X96688872Y-77856255D01*
G37*
G36*
X97451030Y-83357226D02*
G01*
X96128808Y-83357226D01*
X96128808Y-82862782D01*
X96239919Y-82862782D01*
X96239919Y-83196115D01*
X96243725Y-83215249D01*
X96270785Y-83242309D01*
X96289919Y-83246115D01*
X97289919Y-83246115D01*
X97309053Y-83242309D01*
X97336113Y-83215249D01*
X97339919Y-83196115D01*
X97339919Y-82815163D01*
X97339430Y-82812706D01*
X97339793Y-82811618D01*
X97337676Y-82803890D01*
X97336113Y-82796029D01*
X97335301Y-82795217D01*
X97334640Y-82792802D01*
X97287021Y-82697564D01*
X97282109Y-82691235D01*
X97277655Y-82684569D01*
X97230035Y-82636950D01*
X97223368Y-82632495D01*
X97217040Y-82627584D01*
X97121803Y-82579966D01*
X97119387Y-82579304D01*
X97118576Y-82578493D01*
X97110714Y-82576929D01*
X97102987Y-82574813D01*
X97101898Y-82575175D01*
X97099442Y-82574687D01*
X96956585Y-82574687D01*
X96954128Y-82575175D01*
X96953040Y-82574813D01*
X96945312Y-82576929D01*
X96937451Y-82578493D01*
X96936639Y-82579304D01*
X96934224Y-82579966D01*
X96838986Y-82627585D01*
X96832657Y-82632496D01*
X96825991Y-82636951D01*
X96778373Y-82684570D01*
X96776981Y-82686652D01*
X96775955Y-82687166D01*
X96771987Y-82694126D01*
X96767534Y-82700791D01*
X96767534Y-82701938D01*
X96766294Y-82704114D01*
X96755907Y-82735274D01*
X96753845Y-82732188D01*
X96706226Y-82684570D01*
X96699564Y-82680118D01*
X96693231Y-82675203D01*
X96597994Y-82627585D01*
X96595578Y-82626923D01*
X96594767Y-82626112D01*
X96586905Y-82624548D01*
X96579178Y-82622432D01*
X96578089Y-82622794D01*
X96575633Y-82622306D01*
X96480395Y-82622306D01*
X96477938Y-82622794D01*
X96476850Y-82622432D01*
X96469122Y-82624548D01*
X96461261Y-82626112D01*
X96460449Y-82626923D01*
X96458034Y-82627585D01*
X96362796Y-82675204D01*
X96356467Y-82680115D01*
X96349801Y-82684570D01*
X96302183Y-82732189D01*
X96297731Y-82738850D01*
X96292816Y-82745184D01*
X96245198Y-82840421D01*
X96244536Y-82842836D01*
X96243725Y-82843648D01*
X96242161Y-82851509D01*
X96240045Y-82859237D01*
X96240407Y-82860325D01*
X96239919Y-82862782D01*
X96128808Y-82862782D01*
X96128808Y-81605553D01*
X96243725Y-81605553D01*
X96243725Y-81643821D01*
X96270785Y-81670881D01*
X96289919Y-81674687D01*
X97087639Y-81674687D01*
X97165061Y-81713398D01*
X97201208Y-81749544D01*
X97239919Y-81826966D01*
X97239919Y-81993835D01*
X97201208Y-82071257D01*
X97165061Y-82107403D01*
X97087639Y-82146115D01*
X96289919Y-82146115D01*
X96270785Y-82149921D01*
X96243725Y-82176981D01*
X96243725Y-82215249D01*
X96270785Y-82242309D01*
X96289919Y-82246115D01*
X97099442Y-82246115D01*
X97101898Y-82245626D01*
X97102987Y-82245989D01*
X97110714Y-82243872D01*
X97118576Y-82242309D01*
X97119387Y-82241497D01*
X97121803Y-82240836D01*
X97217040Y-82193218D01*
X97223368Y-82188306D01*
X97230035Y-82183852D01*
X97277655Y-82136233D01*
X97282109Y-82129566D01*
X97287021Y-82123238D01*
X97334640Y-82028000D01*
X97335301Y-82025584D01*
X97336113Y-82024773D01*
X97337676Y-82016911D01*
X97339793Y-82009184D01*
X97339430Y-82008095D01*
X97339919Y-82005639D01*
X97339919Y-81815163D01*
X97339430Y-81812706D01*
X97339793Y-81811618D01*
X97337676Y-81803890D01*
X97336113Y-81796029D01*
X97335301Y-81795217D01*
X97334640Y-81792802D01*
X97287021Y-81697564D01*
X97282109Y-81691235D01*
X97277655Y-81684569D01*
X97230035Y-81636950D01*
X97223368Y-81632495D01*
X97217040Y-81627584D01*
X97121803Y-81579966D01*
X97119387Y-81579304D01*
X97118576Y-81578493D01*
X97110714Y-81576929D01*
X97102987Y-81574813D01*
X97101898Y-81575175D01*
X97099442Y-81574687D01*
X96289919Y-81574687D01*
X96270785Y-81578493D01*
X96243725Y-81605553D01*
X96128808Y-81605553D01*
X96128808Y-80577068D01*
X96239919Y-80577068D01*
X96239919Y-81243734D01*
X96243725Y-81262868D01*
X96270785Y-81289928D01*
X96309053Y-81289928D01*
X96336113Y-81262868D01*
X96339919Y-81243734D01*
X96339919Y-80670494D01*
X97262184Y-81285336D01*
X97269013Y-81288156D01*
X97270785Y-81289928D01*
X97273303Y-81289928D01*
X97280216Y-81292783D01*
X97294491Y-81289928D01*
X97309053Y-81289928D01*
X97312693Y-81286287D01*
X97317741Y-81285278D01*
X97325816Y-81273164D01*
X97336113Y-81262868D01*
X97337572Y-81255530D01*
X97338968Y-81253437D01*
X97338477Y-81250982D01*
X97339919Y-81243734D01*
X97339919Y-80577068D01*
X97336113Y-80557934D01*
X97309053Y-80530874D01*
X97270785Y-80530874D01*
X97243725Y-80557934D01*
X97239919Y-80577068D01*
X97239919Y-81150307D01*
X96317654Y-80535465D01*
X96310823Y-80532644D01*
X96309053Y-80530874D01*
X96306536Y-80530874D01*
X96299622Y-80528019D01*
X96285347Y-80530874D01*
X96270785Y-80530874D01*
X96267144Y-80534514D01*
X96262097Y-80535524D01*
X96254021Y-80547637D01*
X96243725Y-80557934D01*
X96242265Y-80565271D01*
X96240870Y-80567365D01*
X96241360Y-80569819D01*
X96239919Y-80577068D01*
X96128808Y-80577068D01*
X96128808Y-79624687D01*
X96239919Y-79624687D01*
X96239919Y-80291353D01*
X96243725Y-80310487D01*
X96270785Y-80337547D01*
X96309053Y-80337547D01*
X96336113Y-80310487D01*
X96339919Y-80291353D01*
X96339919Y-79718113D01*
X97262184Y-80332955D01*
X97269013Y-80335775D01*
X97270785Y-80337547D01*
X97273303Y-80337547D01*
X97280216Y-80340402D01*
X97294491Y-80337547D01*
X97309053Y-80337547D01*
X97312693Y-80333906D01*
X97317741Y-80332897D01*
X97325816Y-80320783D01*
X97336113Y-80310487D01*
X97337572Y-80303149D01*
X97338968Y-80301056D01*
X97338477Y-80298601D01*
X97339919Y-80291353D01*
X97339919Y-79624687D01*
X97336113Y-79605553D01*
X97309053Y-79578493D01*
X97270785Y-79578493D01*
X97243725Y-79605553D01*
X97239919Y-79624687D01*
X97239919Y-80197926D01*
X96317654Y-79583084D01*
X96310823Y-79580263D01*
X96309053Y-79578493D01*
X96306536Y-79578493D01*
X96299622Y-79575638D01*
X96285347Y-79578493D01*
X96270785Y-79578493D01*
X96267144Y-79582133D01*
X96262097Y-79583143D01*
X96254021Y-79595256D01*
X96243725Y-79605553D01*
X96242265Y-79612890D01*
X96240870Y-79614984D01*
X96241360Y-79617438D01*
X96239919Y-79624687D01*
X96128808Y-79624687D01*
X96128808Y-78767544D01*
X96239919Y-78767544D01*
X96239919Y-79243734D01*
X96243725Y-79262868D01*
X96270785Y-79289928D01*
X96289919Y-79293734D01*
X97289919Y-79293734D01*
X97309053Y-79289928D01*
X97336113Y-79262868D01*
X97339919Y-79243734D01*
X97339919Y-78767544D01*
X97336113Y-78748410D01*
X97309053Y-78721350D01*
X97270785Y-78721350D01*
X97243725Y-78748410D01*
X97239919Y-78767544D01*
X97239919Y-79193734D01*
X96816109Y-79193734D01*
X96816109Y-78910401D01*
X96812303Y-78891267D01*
X96785243Y-78864207D01*
X96746975Y-78864207D01*
X96719915Y-78891267D01*
X96716109Y-78910401D01*
X96716109Y-79193734D01*
X96339919Y-79193734D01*
X96339919Y-78767544D01*
X96336113Y-78748410D01*
X96309053Y-78721350D01*
X96270785Y-78721350D01*
X96243725Y-78748410D01*
X96239919Y-78767544D01*
X96128808Y-78767544D01*
X96128808Y-77958020D01*
X96239919Y-77958020D01*
X96239919Y-78338972D01*
X96243725Y-78358106D01*
X96270785Y-78385166D01*
X96289919Y-78388972D01*
X97289919Y-78388972D01*
X97309053Y-78385166D01*
X97336113Y-78358106D01*
X97336113Y-78319838D01*
X97309053Y-78292778D01*
X97289919Y-78288972D01*
X96863728Y-78288972D01*
X96863728Y-78126910D01*
X97318592Y-77808506D01*
X97332085Y-77794415D01*
X97338735Y-77756729D01*
X97316790Y-77725378D01*
X97279104Y-77718728D01*
X97261246Y-77726582D01*
X96863728Y-78004844D01*
X96863728Y-77958020D01*
X96863239Y-77955563D01*
X96863602Y-77954475D01*
X96861485Y-77946747D01*
X96859922Y-77938886D01*
X96859110Y-77938074D01*
X96858449Y-77935659D01*
X96810830Y-77840421D01*
X96805918Y-77834092D01*
X96801464Y-77827426D01*
X96753845Y-77779808D01*
X96747183Y-77775356D01*
X96740850Y-77770441D01*
X96645613Y-77722823D01*
X96643197Y-77722161D01*
X96642386Y-77721350D01*
X96634524Y-77719786D01*
X96626797Y-77717670D01*
X96625708Y-77718032D01*
X96623252Y-77717544D01*
X96480395Y-77717544D01*
X96477938Y-77718032D01*
X96476850Y-77717670D01*
X96469122Y-77719786D01*
X96461261Y-77721350D01*
X96460449Y-77722161D01*
X96458034Y-77722823D01*
X96362796Y-77770442D01*
X96356467Y-77775353D01*
X96349801Y-77779808D01*
X96302183Y-77827427D01*
X96297731Y-77834088D01*
X96292816Y-77840422D01*
X96245198Y-77935659D01*
X96244536Y-77938074D01*
X96243725Y-77938886D01*
X96242161Y-77946747D01*
X96240045Y-77954475D01*
X96240407Y-77955563D01*
X96239919Y-77958020D01*
X96128808Y-77958020D01*
X96128808Y-77606433D01*
X97451030Y-77606433D01*
X97451030Y-83357226D01*
G37*
G36*
X70034372Y-57719482D02*
G01*
X70117442Y-57761017D01*
X70198599Y-57842173D01*
X70239919Y-57966133D01*
X70239919Y-58146115D01*
X69339919Y-58146115D01*
X69339919Y-57966133D01*
X69381239Y-57842171D01*
X69462392Y-57761018D01*
X69545466Y-57719481D01*
X69724645Y-57674687D01*
X69855192Y-57674687D01*
X70034372Y-57719482D01*
G37*
G36*
X69895595Y-53193733D02*
G01*
X69777913Y-53193733D01*
X69708138Y-53158846D01*
X69673252Y-53089073D01*
X69673252Y-52922203D01*
X69708138Y-52852429D01*
X69777913Y-52817543D01*
X69820357Y-52817543D01*
X69895595Y-53193733D01*
G37*
G36*
X70165061Y-50237206D02*
G01*
X70201208Y-50273352D01*
X70239919Y-50350774D01*
X70239919Y-50470024D01*
X70201208Y-50547446D01*
X70165061Y-50583592D01*
X70087639Y-50622304D01*
X69825532Y-50622304D01*
X69748108Y-50583592D01*
X69711963Y-50547448D01*
X69673252Y-50470025D01*
X69673252Y-50350774D01*
X69711963Y-50273350D01*
X69748108Y-50237206D01*
X69825532Y-50198495D01*
X70087639Y-50198495D01*
X70165061Y-50237206D01*
G37*
G36*
X70451030Y-58357226D02*
G01*
X69128808Y-58357226D01*
X69128808Y-57958020D01*
X69239919Y-57958020D01*
X69239919Y-58196115D01*
X69243725Y-58215249D01*
X69270785Y-58242309D01*
X69289919Y-58246115D01*
X70289919Y-58246115D01*
X70309053Y-58242309D01*
X70336113Y-58215249D01*
X70339919Y-58196115D01*
X70339919Y-57958020D01*
X70338355Y-57950158D01*
X70337353Y-57942208D01*
X70289734Y-57799352D01*
X70288494Y-57797176D01*
X70288494Y-57796029D01*
X70284043Y-57789368D01*
X70280073Y-57782403D01*
X70279045Y-57781889D01*
X70277655Y-57779808D01*
X70182416Y-57684569D01*
X70175749Y-57680114D01*
X70169421Y-57675203D01*
X70074184Y-57627585D01*
X70068902Y-57626138D01*
X70063950Y-57623799D01*
X69873474Y-57576180D01*
X69867356Y-57575882D01*
X69861347Y-57574687D01*
X69718490Y-57574687D01*
X69712480Y-57575882D01*
X69706363Y-57576180D01*
X69515887Y-57623799D01*
X69510934Y-57626138D01*
X69505653Y-57627585D01*
X69410415Y-57675204D01*
X69404080Y-57680119D01*
X69397421Y-57684570D01*
X69302183Y-57779808D01*
X69300791Y-57781890D01*
X69299765Y-57782404D01*
X69295797Y-57789364D01*
X69291344Y-57796029D01*
X69291344Y-57797176D01*
X69290104Y-57799352D01*
X69242485Y-57942209D01*
X69241482Y-57950157D01*
X69239919Y-57958020D01*
X69128808Y-57958020D01*
X69128808Y-56748410D01*
X69577058Y-56748410D01*
X69577058Y-56786678D01*
X69604118Y-56813738D01*
X69623252Y-56817544D01*
X70173969Y-56817544D01*
X70201208Y-56844782D01*
X70239919Y-56922204D01*
X70239919Y-57041454D01*
X70205032Y-57111228D01*
X70135259Y-57146115D01*
X69623252Y-57146115D01*
X69604118Y-57149921D01*
X69577058Y-57176981D01*
X69577058Y-57215249D01*
X69604118Y-57242309D01*
X69623252Y-57246115D01*
X70147061Y-57246115D01*
X70149517Y-57245626D01*
X70150605Y-57245989D01*
X70158329Y-57243873D01*
X70166195Y-57242309D01*
X70167006Y-57241497D01*
X70169421Y-57240836D01*
X70264660Y-57193218D01*
X70272524Y-57187114D01*
X70275060Y-57186269D01*
X70277251Y-57183445D01*
X70280072Y-57181256D01*
X70280916Y-57178722D01*
X70287021Y-57170857D01*
X70334640Y-57075619D01*
X70335301Y-57073203D01*
X70336113Y-57072392D01*
X70337676Y-57064530D01*
X70339793Y-57056803D01*
X70339430Y-57055714D01*
X70339919Y-57053258D01*
X70339919Y-56910401D01*
X70339430Y-56907944D01*
X70339793Y-56906856D01*
X70337676Y-56899128D01*
X70336113Y-56891267D01*
X70335301Y-56890455D01*
X70334640Y-56888040D01*
X70298535Y-56815830D01*
X70309053Y-56813738D01*
X70336113Y-56786678D01*
X70336113Y-56748410D01*
X70309053Y-56721350D01*
X70289919Y-56717544D01*
X69623252Y-56717544D01*
X69604118Y-56721350D01*
X69577058Y-56748410D01*
X69128808Y-56748410D01*
X69128808Y-56053258D01*
X69573252Y-56053258D01*
X69573252Y-56196115D01*
X69573740Y-56198571D01*
X69573378Y-56199660D01*
X69575494Y-56207387D01*
X69577058Y-56215249D01*
X69577869Y-56216060D01*
X69578531Y-56218476D01*
X69626149Y-56313713D01*
X69632252Y-56321577D01*
X69633098Y-56324113D01*
X69635921Y-56326304D01*
X69638111Y-56329125D01*
X69640644Y-56329969D01*
X69648510Y-56336074D01*
X69743748Y-56383693D01*
X69746163Y-56384354D01*
X69746975Y-56385166D01*
X69754836Y-56386729D01*
X69762564Y-56388846D01*
X69763652Y-56388483D01*
X69766109Y-56388972D01*
X69813728Y-56388972D01*
X69816184Y-56388483D01*
X69817273Y-56388846D01*
X69825000Y-56386729D01*
X69832862Y-56385166D01*
X69833673Y-56384354D01*
X69836089Y-56383693D01*
X69931326Y-56336075D01*
X69939190Y-56329971D01*
X69941726Y-56329126D01*
X69943917Y-56326302D01*
X69946738Y-56324113D01*
X69947582Y-56321579D01*
X69953687Y-56313714D01*
X70001306Y-56218476D01*
X70001967Y-56216060D01*
X70002779Y-56215249D01*
X70004342Y-56207387D01*
X70006459Y-56199660D01*
X70006096Y-56198571D01*
X70006585Y-56196115D01*
X70006585Y-56065061D01*
X70041471Y-55995287D01*
X70111246Y-55960401D01*
X70135259Y-55960401D01*
X70205032Y-55995287D01*
X70239919Y-56065061D01*
X70239919Y-56231930D01*
X70197579Y-56316611D01*
X70192426Y-56335427D01*
X70204527Y-56371732D01*
X70238755Y-56388846D01*
X70275060Y-56376745D01*
X70287021Y-56361333D01*
X70334640Y-56266095D01*
X70335301Y-56263679D01*
X70336113Y-56262868D01*
X70337676Y-56255006D01*
X70339793Y-56247279D01*
X70339430Y-56246190D01*
X70339919Y-56243734D01*
X70339919Y-56053258D01*
X70339430Y-56050801D01*
X70339793Y-56049713D01*
X70337676Y-56041985D01*
X70336113Y-56034124D01*
X70335301Y-56033312D01*
X70334640Y-56030897D01*
X70287021Y-55935659D01*
X70280916Y-55927793D01*
X70280072Y-55925260D01*
X70277251Y-55923070D01*
X70275060Y-55920247D01*
X70272524Y-55919401D01*
X70264660Y-55913298D01*
X70169421Y-55865680D01*
X70167006Y-55865018D01*
X70166195Y-55864207D01*
X70158329Y-55862642D01*
X70150605Y-55860527D01*
X70149517Y-55860889D01*
X70147061Y-55860401D01*
X70099442Y-55860401D01*
X70096985Y-55860889D01*
X70095897Y-55860527D01*
X70088169Y-55862643D01*
X70080308Y-55864207D01*
X70079496Y-55865018D01*
X70077081Y-55865680D01*
X69981843Y-55913299D01*
X69973977Y-55919403D01*
X69971444Y-55920248D01*
X69969254Y-55923068D01*
X69966431Y-55925260D01*
X69965585Y-55927795D01*
X69959482Y-55935660D01*
X69911864Y-56030897D01*
X69911202Y-56033312D01*
X69910391Y-56034124D01*
X69908827Y-56041985D01*
X69906711Y-56049713D01*
X69907073Y-56050801D01*
X69906585Y-56053258D01*
X69906585Y-56184311D01*
X69871698Y-56254085D01*
X69801925Y-56288972D01*
X69777913Y-56288972D01*
X69708138Y-56254085D01*
X69673252Y-56184312D01*
X69673252Y-56065061D01*
X69715592Y-55980381D01*
X69720745Y-55961565D01*
X69708643Y-55925260D01*
X69674415Y-55908146D01*
X69638111Y-55920248D01*
X69626149Y-55935660D01*
X69578531Y-56030897D01*
X69577869Y-56033312D01*
X69577058Y-56034124D01*
X69575494Y-56041985D01*
X69573378Y-56049713D01*
X69573740Y-56050801D01*
X69573252Y-56053258D01*
X69128808Y-56053258D01*
X69128808Y-55462695D01*
X69243725Y-55462695D01*
X69243725Y-55500963D01*
X69270785Y-55528023D01*
X69289919Y-55531829D01*
X69573252Y-55531829D01*
X69573252Y-55624686D01*
X69577058Y-55643820D01*
X69604118Y-55670880D01*
X69642386Y-55670880D01*
X69669446Y-55643820D01*
X69673252Y-55624686D01*
X69673252Y-55531829D01*
X70147061Y-55531829D01*
X70149517Y-55531340D01*
X70150605Y-55531703D01*
X70158329Y-55529587D01*
X70166195Y-55528023D01*
X70167006Y-55527211D01*
X70169421Y-55526550D01*
X70264660Y-55478932D01*
X70272524Y-55472828D01*
X70275060Y-55471983D01*
X70277251Y-55469159D01*
X70280072Y-55466970D01*
X70280916Y-55464436D01*
X70287021Y-55456571D01*
X70334640Y-55361333D01*
X70335301Y-55358917D01*
X70336113Y-55358106D01*
X70337676Y-55350244D01*
X70339793Y-55342517D01*
X70339430Y-55341428D01*
X70339919Y-55338972D01*
X70339919Y-55243734D01*
X70336113Y-55224600D01*
X70309053Y-55197540D01*
X70270785Y-55197540D01*
X70243725Y-55224600D01*
X70239919Y-55243734D01*
X70239919Y-55327168D01*
X70205032Y-55396942D01*
X70135259Y-55431829D01*
X69673252Y-55431829D01*
X69673252Y-55243734D01*
X69669446Y-55224600D01*
X69642386Y-55197540D01*
X69604118Y-55197540D01*
X69577058Y-55224600D01*
X69573252Y-55243734D01*
X69573252Y-55431829D01*
X69289919Y-55431829D01*
X69270785Y-55435635D01*
X69243725Y-55462695D01*
X69128808Y-55462695D01*
X69128808Y-53767543D01*
X69239919Y-53767543D01*
X69239919Y-54005638D01*
X69240407Y-54008094D01*
X69240045Y-54009183D01*
X69242161Y-54016910D01*
X69243725Y-54024772D01*
X69244536Y-54025583D01*
X69245198Y-54027999D01*
X69292816Y-54123236D01*
X69297731Y-54129569D01*
X69302183Y-54136231D01*
X69349801Y-54183850D01*
X69356467Y-54188304D01*
X69362796Y-54193216D01*
X69458034Y-54240835D01*
X69460449Y-54241496D01*
X69461261Y-54242308D01*
X69469122Y-54243871D01*
X69476850Y-54245988D01*
X69477938Y-54245625D01*
X69480395Y-54246114D01*
X69575633Y-54246114D01*
X69578089Y-54245625D01*
X69579178Y-54245988D01*
X69586905Y-54243871D01*
X69594767Y-54242308D01*
X69595578Y-54241496D01*
X69597994Y-54240835D01*
X69693231Y-54193217D01*
X69699564Y-54188301D01*
X69706226Y-54183850D01*
X69753845Y-54136232D01*
X69758299Y-54129565D01*
X69763211Y-54123237D01*
X69810830Y-54027999D01*
X69812276Y-54022717D01*
X69814616Y-54017765D01*
X69860904Y-53832613D01*
X69902439Y-53749541D01*
X69938584Y-53713397D01*
X70016008Y-53674686D01*
X70087639Y-53674686D01*
X70165061Y-53713397D01*
X70201208Y-53749543D01*
X70239919Y-53826965D01*
X70239919Y-54045144D01*
X70194866Y-54180303D01*
X70192426Y-54199658D01*
X70209540Y-54233887D01*
X70245844Y-54245988D01*
X70280073Y-54228874D01*
X70289734Y-54211925D01*
X70337353Y-54069069D01*
X70338355Y-54061118D01*
X70339919Y-54053257D01*
X70339919Y-53815162D01*
X70339430Y-53812705D01*
X70339793Y-53811617D01*
X70337676Y-53803889D01*
X70336113Y-53796028D01*
X70335301Y-53795216D01*
X70334640Y-53792801D01*
X70287021Y-53697563D01*
X70282109Y-53691234D01*
X70277655Y-53684568D01*
X70230035Y-53636949D01*
X70223368Y-53632494D01*
X70217040Y-53627583D01*
X70121803Y-53579965D01*
X70119387Y-53579303D01*
X70118576Y-53578492D01*
X70110714Y-53576928D01*
X70102987Y-53574812D01*
X70101898Y-53575174D01*
X70099442Y-53574686D01*
X70004204Y-53574686D01*
X70001747Y-53575174D01*
X70000659Y-53574812D01*
X69992931Y-53576928D01*
X69985070Y-53578492D01*
X69984258Y-53579303D01*
X69981843Y-53579965D01*
X69886605Y-53627584D01*
X69880276Y-53632495D01*
X69873610Y-53636950D01*
X69825992Y-53684569D01*
X69821540Y-53691230D01*
X69816625Y-53697564D01*
X69769007Y-53792801D01*
X69767560Y-53798082D01*
X69765221Y-53803035D01*
X69718933Y-53988185D01*
X69677397Y-54071257D01*
X69641253Y-54107402D01*
X69563830Y-54146114D01*
X69492199Y-54146114D01*
X69414775Y-54107402D01*
X69378630Y-54071258D01*
X69339919Y-53993835D01*
X69339919Y-53775656D01*
X69384972Y-53640498D01*
X69387412Y-53621142D01*
X69370298Y-53586914D01*
X69333994Y-53574812D01*
X69299765Y-53591927D01*
X69290104Y-53608875D01*
X69242485Y-53751732D01*
X69241482Y-53759680D01*
X69239919Y-53767543D01*
X69128808Y-53767543D01*
X69128808Y-52910400D01*
X69573252Y-52910400D01*
X69573252Y-53100876D01*
X69573740Y-53103332D01*
X69573378Y-53104421D01*
X69575494Y-53112148D01*
X69577058Y-53120010D01*
X69577869Y-53120821D01*
X69578531Y-53123237D01*
X69626149Y-53218474D01*
X69632252Y-53226338D01*
X69633098Y-53228874D01*
X69635921Y-53231065D01*
X69638111Y-53233886D01*
X69640644Y-53234730D01*
X69648510Y-53240835D01*
X69743748Y-53288454D01*
X69746163Y-53289115D01*
X69746975Y-53289927D01*
X69754836Y-53291490D01*
X69762564Y-53293607D01*
X69763652Y-53293244D01*
X69766109Y-53293733D01*
X70147061Y-53293733D01*
X70149517Y-53293244D01*
X70150605Y-53293607D01*
X70158329Y-53291491D01*
X70166195Y-53289927D01*
X70167006Y-53289115D01*
X70169421Y-53288454D01*
X70264660Y-53240836D01*
X70272524Y-53234732D01*
X70275060Y-53233887D01*
X70277251Y-53231063D01*
X70280072Y-53228874D01*
X70280916Y-53226340D01*
X70287021Y-53218475D01*
X70334640Y-53123237D01*
X70335301Y-53120821D01*
X70336113Y-53120010D01*
X70337676Y-53112148D01*
X70339793Y-53104421D01*
X70339430Y-53103332D01*
X70339919Y-53100876D01*
X70339919Y-52910400D01*
X70339430Y-52907943D01*
X70339793Y-52906855D01*
X70337676Y-52899127D01*
X70336113Y-52891266D01*
X70335301Y-52890454D01*
X70334640Y-52888039D01*
X70287021Y-52792801D01*
X70275060Y-52777389D01*
X70238755Y-52765288D01*
X70204527Y-52782402D01*
X70192426Y-52818707D01*
X70197579Y-52837523D01*
X70239919Y-52922203D01*
X70239919Y-53089072D01*
X70205032Y-53158846D01*
X70135259Y-53193733D01*
X69997575Y-53193733D01*
X69910376Y-52757737D01*
X69907541Y-52750913D01*
X69907541Y-52748409D01*
X69905761Y-52746629D01*
X69902891Y-52739721D01*
X69890777Y-52731645D01*
X69880481Y-52721349D01*
X69873143Y-52719889D01*
X69871050Y-52718494D01*
X69868595Y-52718984D01*
X69861347Y-52717543D01*
X69766109Y-52717543D01*
X69763652Y-52718031D01*
X69762564Y-52717669D01*
X69754836Y-52719785D01*
X69746975Y-52721349D01*
X69746163Y-52722160D01*
X69743748Y-52722822D01*
X69648510Y-52770441D01*
X69640644Y-52776545D01*
X69638111Y-52777390D01*
X69635921Y-52780210D01*
X69633098Y-52782402D01*
X69632252Y-52784937D01*
X69626149Y-52792802D01*
X69578531Y-52888039D01*
X69577869Y-52890454D01*
X69577058Y-52891266D01*
X69575494Y-52899127D01*
X69573378Y-52906855D01*
X69573740Y-52907943D01*
X69573252Y-52910400D01*
X69128808Y-52910400D01*
X69128808Y-52053257D01*
X69573252Y-52053257D01*
X69573252Y-52196114D01*
X69573740Y-52198570D01*
X69573378Y-52199659D01*
X69575494Y-52207386D01*
X69577058Y-52215248D01*
X69577869Y-52216059D01*
X69578531Y-52218475D01*
X69614635Y-52290684D01*
X69604118Y-52292777D01*
X69577058Y-52319837D01*
X69577058Y-52358105D01*
X69604118Y-52385165D01*
X69623252Y-52388971D01*
X70289919Y-52388971D01*
X70309053Y-52385165D01*
X70336113Y-52358105D01*
X70336113Y-52319837D01*
X70309053Y-52292777D01*
X70289919Y-52288971D01*
X69739201Y-52288971D01*
X69711963Y-52261734D01*
X69673252Y-52184311D01*
X69673252Y-52065060D01*
X69708138Y-51995286D01*
X69777913Y-51960400D01*
X70289919Y-51960400D01*
X70309053Y-51956594D01*
X70336113Y-51929534D01*
X70336113Y-51891266D01*
X70309053Y-51864206D01*
X70289919Y-51860400D01*
X69766109Y-51860400D01*
X69763652Y-51860888D01*
X69762564Y-51860526D01*
X69754836Y-51862642D01*
X69746975Y-51864206D01*
X69746163Y-51865017D01*
X69743748Y-51865679D01*
X69648510Y-51913298D01*
X69640644Y-51919402D01*
X69638111Y-51920247D01*
X69635921Y-51923067D01*
X69633098Y-51925259D01*
X69632252Y-51927794D01*
X69626149Y-51935659D01*
X69578531Y-52030896D01*
X69577869Y-52033311D01*
X69577058Y-52034123D01*
X69575494Y-52041984D01*
X69573378Y-52049712D01*
X69573740Y-52050800D01*
X69573252Y-52053257D01*
X69128808Y-52053257D01*
X69128808Y-51196114D01*
X69573252Y-51196114D01*
X69573252Y-51338971D01*
X69573740Y-51341427D01*
X69573378Y-51342516D01*
X69575494Y-51350243D01*
X69577058Y-51358105D01*
X69577869Y-51358916D01*
X69578531Y-51361332D01*
X69626149Y-51456569D01*
X69632252Y-51464433D01*
X69633098Y-51466969D01*
X69635921Y-51469160D01*
X69638111Y-51471981D01*
X69640644Y-51472825D01*
X69648510Y-51478930D01*
X69743748Y-51526549D01*
X69746163Y-51527210D01*
X69746975Y-51528022D01*
X69754836Y-51529585D01*
X69762564Y-51531702D01*
X69763652Y-51531339D01*
X69766109Y-51531828D01*
X69813728Y-51531828D01*
X69816184Y-51531339D01*
X69817273Y-51531702D01*
X69825000Y-51529585D01*
X69832862Y-51528022D01*
X69833673Y-51527210D01*
X69836089Y-51526549D01*
X69931326Y-51478931D01*
X69939190Y-51472827D01*
X69941726Y-51471982D01*
X69943917Y-51469158D01*
X69946738Y-51466969D01*
X69947582Y-51464435D01*
X69953687Y-51456570D01*
X70001306Y-51361332D01*
X70001967Y-51358916D01*
X70002779Y-51358105D01*
X70004342Y-51350243D01*
X70006459Y-51342516D01*
X70006096Y-51341427D01*
X70006585Y-51338971D01*
X70006585Y-51207917D01*
X70041471Y-51138143D01*
X70111246Y-51103257D01*
X70135259Y-51103257D01*
X70205032Y-51138143D01*
X70239919Y-51207917D01*
X70239919Y-51374786D01*
X70197579Y-51459467D01*
X70192426Y-51478283D01*
X70204527Y-51514588D01*
X70238755Y-51531702D01*
X70275060Y-51519601D01*
X70287021Y-51504189D01*
X70334640Y-51408951D01*
X70335301Y-51406535D01*
X70336113Y-51405724D01*
X70337676Y-51397862D01*
X70339793Y-51390135D01*
X70339430Y-51389046D01*
X70339919Y-51386590D01*
X70339919Y-51196114D01*
X70339430Y-51193657D01*
X70339793Y-51192569D01*
X70337676Y-51184841D01*
X70336113Y-51176980D01*
X70335301Y-51176168D01*
X70334640Y-51173753D01*
X70287021Y-51078515D01*
X70280916Y-51070649D01*
X70280072Y-51068116D01*
X70277251Y-51065926D01*
X70275060Y-51063103D01*
X70272524Y-51062257D01*
X70264660Y-51056154D01*
X70169421Y-51008536D01*
X70167006Y-51007874D01*
X70166195Y-51007063D01*
X70158329Y-51005498D01*
X70150605Y-51003383D01*
X70149517Y-51003745D01*
X70147061Y-51003257D01*
X70099442Y-51003257D01*
X70096985Y-51003745D01*
X70095897Y-51003383D01*
X70088169Y-51005499D01*
X70080308Y-51007063D01*
X70079496Y-51007874D01*
X70077081Y-51008536D01*
X69981843Y-51056155D01*
X69973977Y-51062259D01*
X69971444Y-51063104D01*
X69969254Y-51065924D01*
X69966431Y-51068116D01*
X69965585Y-51070651D01*
X69959482Y-51078516D01*
X69911864Y-51173753D01*
X69911202Y-51176168D01*
X69910391Y-51176980D01*
X69908827Y-51184841D01*
X69906711Y-51192569D01*
X69907073Y-51193657D01*
X69906585Y-51196114D01*
X69906585Y-51327167D01*
X69871698Y-51396941D01*
X69801925Y-51431828D01*
X69777913Y-51431828D01*
X69708138Y-51396941D01*
X69673252Y-51327168D01*
X69673252Y-51207917D01*
X69715592Y-51123237D01*
X69720745Y-51104421D01*
X69708643Y-51068116D01*
X69674415Y-51051002D01*
X69638111Y-51063104D01*
X69626149Y-51078516D01*
X69578531Y-51173753D01*
X69577869Y-51176168D01*
X69577058Y-51176980D01*
X69575494Y-51184841D01*
X69573378Y-51192569D01*
X69573740Y-51193657D01*
X69573252Y-51196114D01*
X69128808Y-51196114D01*
X69128808Y-50338971D01*
X69573252Y-50338971D01*
X69573252Y-50481828D01*
X69573740Y-50484284D01*
X69573378Y-50485373D01*
X69575494Y-50493100D01*
X69577058Y-50500962D01*
X69577869Y-50501773D01*
X69578531Y-50504189D01*
X69626149Y-50599426D01*
X69631064Y-50605759D01*
X69635516Y-50612421D01*
X69683134Y-50660040D01*
X69689800Y-50664494D01*
X69696129Y-50669406D01*
X69791367Y-50717025D01*
X69793782Y-50717686D01*
X69794594Y-50718498D01*
X69802455Y-50720061D01*
X69810183Y-50722178D01*
X69811271Y-50721815D01*
X69813728Y-50722304D01*
X70099442Y-50722304D01*
X70101898Y-50721815D01*
X70102987Y-50722178D01*
X70110714Y-50720061D01*
X70118576Y-50718498D01*
X70119387Y-50717686D01*
X70121803Y-50717025D01*
X70217040Y-50669407D01*
X70223368Y-50664495D01*
X70230035Y-50660041D01*
X70277655Y-50612422D01*
X70282109Y-50605755D01*
X70287021Y-50599427D01*
X70334640Y-50504189D01*
X70335301Y-50501773D01*
X70336113Y-50500962D01*
X70337676Y-50493100D01*
X70339793Y-50485373D01*
X70339430Y-50484284D01*
X70339919Y-50481828D01*
X70339919Y-50338971D01*
X70339430Y-50336514D01*
X70339793Y-50335426D01*
X70337676Y-50327698D01*
X70336113Y-50319837D01*
X70335301Y-50319025D01*
X70334640Y-50316610D01*
X70287021Y-50221372D01*
X70282109Y-50215043D01*
X70277655Y-50208377D01*
X70230035Y-50160758D01*
X70223368Y-50156303D01*
X70217040Y-50151392D01*
X70121803Y-50103774D01*
X70119387Y-50103112D01*
X70118576Y-50102301D01*
X70110714Y-50100737D01*
X70102987Y-50098621D01*
X70101898Y-50098983D01*
X70099442Y-50098495D01*
X69813728Y-50098495D01*
X69811271Y-50098983D01*
X69810183Y-50098621D01*
X69802455Y-50100737D01*
X69794594Y-50102301D01*
X69793782Y-50103112D01*
X69791367Y-50103774D01*
X69696129Y-50151393D01*
X69689800Y-50156304D01*
X69683134Y-50160759D01*
X69635516Y-50208378D01*
X69631064Y-50215039D01*
X69626149Y-50221373D01*
X69578531Y-50316610D01*
X69577869Y-50319025D01*
X69577058Y-50319837D01*
X69575494Y-50327698D01*
X69573378Y-50335426D01*
X69573740Y-50336514D01*
X69573252Y-50338971D01*
X69128808Y-50338971D01*
X69128808Y-49434209D01*
X69573252Y-49434209D01*
X69573252Y-49529447D01*
X69573740Y-49531903D01*
X69573378Y-49532992D01*
X69575494Y-49540719D01*
X69577058Y-49548581D01*
X69577869Y-49549392D01*
X69578531Y-49551808D01*
X69626149Y-49647045D01*
X69631064Y-49653378D01*
X69635516Y-49660040D01*
X69645399Y-49669923D01*
X69623252Y-49669923D01*
X69604118Y-49673729D01*
X69577058Y-49700789D01*
X69577058Y-49739057D01*
X69604118Y-49766117D01*
X69623252Y-49769923D01*
X70289919Y-49769923D01*
X70309053Y-49766117D01*
X70336113Y-49739057D01*
X70336113Y-49700789D01*
X70309053Y-49673729D01*
X70289919Y-49669923D01*
X69825532Y-49669923D01*
X69748108Y-49631211D01*
X69711963Y-49595067D01*
X69673252Y-49517644D01*
X69673252Y-49434209D01*
X69669446Y-49415075D01*
X69642386Y-49388015D01*
X69604118Y-49388015D01*
X69577058Y-49415075D01*
X69573252Y-49434209D01*
X69128808Y-49434209D01*
X69128808Y-49276904D01*
X70451030Y-49276904D01*
X70451030Y-58357226D01*
G37*
G36*
X119266818Y-64213707D02*
G01*
X119347971Y-64294860D01*
X119389508Y-64377934D01*
X119434303Y-64557113D01*
X119434303Y-64687660D01*
X119389508Y-64866838D01*
X119347971Y-64949912D01*
X119266817Y-65031066D01*
X119142857Y-65072387D01*
X118962875Y-65072387D01*
X118962875Y-64172387D01*
X119142857Y-64172387D01*
X119266818Y-64213707D01*
G37*
G36*
X119645414Y-65283498D02*
G01*
X117037478Y-65283498D01*
X117037478Y-64122387D01*
X117148589Y-64122387D01*
X117148589Y-65122387D01*
X117152395Y-65141521D01*
X117179455Y-65168581D01*
X117198589Y-65172387D01*
X117674779Y-65172387D01*
X117693913Y-65168581D01*
X117720973Y-65141521D01*
X117720973Y-65103253D01*
X117693913Y-65076193D01*
X117674779Y-65072387D01*
X117248589Y-65072387D01*
X117248589Y-64122387D01*
X117958113Y-64122387D01*
X117958113Y-65122387D01*
X117961919Y-65141521D01*
X117988979Y-65168581D01*
X118008113Y-65172387D01*
X118484303Y-65172387D01*
X118503437Y-65168581D01*
X118530497Y-65141521D01*
X118530497Y-65103253D01*
X118503437Y-65076193D01*
X118484303Y-65072387D01*
X118058113Y-65072387D01*
X118058113Y-64648577D01*
X118341446Y-64648577D01*
X118360580Y-64644771D01*
X118387640Y-64617711D01*
X118387640Y-64579443D01*
X118360580Y-64552383D01*
X118341446Y-64548577D01*
X118058113Y-64548577D01*
X118058113Y-64172387D01*
X118484303Y-64172387D01*
X118503437Y-64168581D01*
X118530497Y-64141521D01*
X118530497Y-64122387D01*
X118862875Y-64122387D01*
X118862875Y-65122387D01*
X118866681Y-65141521D01*
X118893741Y-65168581D01*
X118912875Y-65172387D01*
X119150970Y-65172387D01*
X119158832Y-65170823D01*
X119166781Y-65169821D01*
X119309638Y-65122202D01*
X119311813Y-65120962D01*
X119312962Y-65120962D01*
X119319632Y-65116504D01*
X119326586Y-65112541D01*
X119327098Y-65111515D01*
X119329183Y-65110123D01*
X119424421Y-65014884D01*
X119428874Y-65008218D01*
X119433786Y-65001890D01*
X119481405Y-64906652D01*
X119482851Y-64901370D01*
X119485191Y-64896418D01*
X119532810Y-64705942D01*
X119533107Y-64699824D01*
X119534303Y-64693815D01*
X119534303Y-64550958D01*
X119533107Y-64544948D01*
X119532810Y-64538831D01*
X119485191Y-64348355D01*
X119482851Y-64343402D01*
X119481405Y-64338121D01*
X119433786Y-64242883D01*
X119428870Y-64236548D01*
X119424420Y-64229889D01*
X119329182Y-64134651D01*
X119327099Y-64133259D01*
X119326586Y-64132233D01*
X119319625Y-64128265D01*
X119312961Y-64123812D01*
X119311813Y-64123812D01*
X119309638Y-64122572D01*
X119166781Y-64074953D01*
X119158832Y-64073950D01*
X119150970Y-64072387D01*
X118912875Y-64072387D01*
X118893741Y-64076193D01*
X118866681Y-64103253D01*
X118862875Y-64122387D01*
X118530497Y-64122387D01*
X118530497Y-64103253D01*
X118503437Y-64076193D01*
X118484303Y-64072387D01*
X118008113Y-64072387D01*
X117988979Y-64076193D01*
X117961919Y-64103253D01*
X117958113Y-64122387D01*
X117248589Y-64122387D01*
X117244783Y-64103253D01*
X117217723Y-64076193D01*
X117179455Y-64076193D01*
X117152395Y-64103253D01*
X117148589Y-64122387D01*
X117037478Y-64122387D01*
X117037478Y-63961276D01*
X119645414Y-63961276D01*
X119645414Y-65283498D01*
G37*
D11*
X95777080Y-54778563D02*
X95824700Y-54826182D01*
X95824700Y-54826182D02*
X95872319Y-54969039D01*
X95872319Y-54969039D02*
X95872319Y-55064277D01*
X95872319Y-55064277D02*
X95824700Y-55207134D01*
X95824700Y-55207134D02*
X95729461Y-55302372D01*
X95729461Y-55302372D02*
X95634223Y-55349991D01*
X95634223Y-55349991D02*
X95443747Y-55397610D01*
X95443747Y-55397610D02*
X95300890Y-55397610D01*
X95300890Y-55397610D02*
X95110414Y-55349991D01*
X95110414Y-55349991D02*
X95015176Y-55302372D01*
X95015176Y-55302372D02*
X94919938Y-55207134D01*
X94919938Y-55207134D02*
X94872319Y-55064277D01*
X94872319Y-55064277D02*
X94872319Y-54969039D01*
X94872319Y-54969039D02*
X94919938Y-54826182D01*
X94919938Y-54826182D02*
X94967557Y-54778563D01*
X94872319Y-53921420D02*
X94872319Y-54111896D01*
X94872319Y-54111896D02*
X94919938Y-54207134D01*
X94919938Y-54207134D02*
X94967557Y-54254753D01*
X94967557Y-54254753D02*
X95110414Y-54349991D01*
X95110414Y-54349991D02*
X95300890Y-54397610D01*
X95300890Y-54397610D02*
X95681842Y-54397610D01*
X95681842Y-54397610D02*
X95777080Y-54349991D01*
X95777080Y-54349991D02*
X95824700Y-54302372D01*
X95824700Y-54302372D02*
X95872319Y-54207134D01*
X95872319Y-54207134D02*
X95872319Y-54016658D01*
X95872319Y-54016658D02*
X95824700Y-53921420D01*
X95824700Y-53921420D02*
X95777080Y-53873801D01*
X95777080Y-53873801D02*
X95681842Y-53826182D01*
X95681842Y-53826182D02*
X95443747Y-53826182D01*
X95443747Y-53826182D02*
X95348509Y-53873801D01*
X95348509Y-53873801D02*
X95300890Y-53921420D01*
X95300890Y-53921420D02*
X95253271Y-54016658D01*
X95253271Y-54016658D02*
X95253271Y-54207134D01*
X95253271Y-54207134D02*
X95300890Y-54302372D01*
X95300890Y-54302372D02*
X95348509Y-54349991D01*
X95348509Y-54349991D02*
X95443747Y-54397610D01*
X109803684Y-67928157D02*
X109756065Y-67975777D01*
X109756065Y-67975777D02*
X109613208Y-68023396D01*
X109613208Y-68023396D02*
X109517970Y-68023396D01*
X109517970Y-68023396D02*
X109375113Y-67975777D01*
X109375113Y-67975777D02*
X109279875Y-67880538D01*
X109279875Y-67880538D02*
X109232256Y-67785300D01*
X109232256Y-67785300D02*
X109184637Y-67594824D01*
X109184637Y-67594824D02*
X109184637Y-67451967D01*
X109184637Y-67451967D02*
X109232256Y-67261491D01*
X109232256Y-67261491D02*
X109279875Y-67166253D01*
X109279875Y-67166253D02*
X109375113Y-67071015D01*
X109375113Y-67071015D02*
X109517970Y-67023396D01*
X109517970Y-67023396D02*
X109613208Y-67023396D01*
X109613208Y-67023396D02*
X109756065Y-67071015D01*
X109756065Y-67071015D02*
X109803684Y-67118634D01*
X110137018Y-67023396D02*
X110756065Y-67023396D01*
X110756065Y-67023396D02*
X110422732Y-67404348D01*
X110422732Y-67404348D02*
X110565589Y-67404348D01*
X110565589Y-67404348D02*
X110660827Y-67451967D01*
X110660827Y-67451967D02*
X110708446Y-67499586D01*
X110708446Y-67499586D02*
X110756065Y-67594824D01*
X110756065Y-67594824D02*
X110756065Y-67832919D01*
X110756065Y-67832919D02*
X110708446Y-67928157D01*
X110708446Y-67928157D02*
X110660827Y-67975777D01*
X110660827Y-67975777D02*
X110565589Y-68023396D01*
X110565589Y-68023396D02*
X110279875Y-68023396D01*
X110279875Y-68023396D02*
X110184637Y-67975777D01*
X110184637Y-67975777D02*
X110137018Y-67928157D01*
X84949642Y-67954819D02*
X84616309Y-67478628D01*
X84378214Y-67954819D02*
X84378214Y-66954819D01*
X84378214Y-66954819D02*
X84759166Y-66954819D01*
X84759166Y-66954819D02*
X84854404Y-67002438D01*
X84854404Y-67002438D02*
X84902023Y-67050057D01*
X84902023Y-67050057D02*
X84949642Y-67145295D01*
X84949642Y-67145295D02*
X84949642Y-67288152D01*
X84949642Y-67288152D02*
X84902023Y-67383390D01*
X84902023Y-67383390D02*
X84854404Y-67431009D01*
X84854404Y-67431009D02*
X84759166Y-67478628D01*
X84759166Y-67478628D02*
X84378214Y-67478628D01*
X85902023Y-67954819D02*
X85330595Y-67954819D01*
X85616309Y-67954819D02*
X85616309Y-66954819D01*
X85616309Y-66954819D02*
X85521071Y-67097676D01*
X85521071Y-67097676D02*
X85425833Y-67192914D01*
X85425833Y-67192914D02*
X85330595Y-67240533D01*
X86854404Y-67954819D02*
X86282976Y-67954819D01*
X86568690Y-67954819D02*
X86568690Y-66954819D01*
X86568690Y-66954819D02*
X86473452Y-67097676D01*
X86473452Y-67097676D02*
X86378214Y-67192914D01*
X86378214Y-67192914D02*
X86282976Y-67240533D01*
X84862142Y-65954819D02*
X84528809Y-65478628D01*
X84290714Y-65954819D02*
X84290714Y-64954819D01*
X84290714Y-64954819D02*
X84671666Y-64954819D01*
X84671666Y-64954819D02*
X84766904Y-65002438D01*
X84766904Y-65002438D02*
X84814523Y-65050057D01*
X84814523Y-65050057D02*
X84862142Y-65145295D01*
X84862142Y-65145295D02*
X84862142Y-65288152D01*
X84862142Y-65288152D02*
X84814523Y-65383390D01*
X84814523Y-65383390D02*
X84766904Y-65431009D01*
X84766904Y-65431009D02*
X84671666Y-65478628D01*
X84671666Y-65478628D02*
X84290714Y-65478628D01*
X85814523Y-65954819D02*
X85243095Y-65954819D01*
X85528809Y-65954819D02*
X85528809Y-64954819D01*
X85528809Y-64954819D02*
X85433571Y-65097676D01*
X85433571Y-65097676D02*
X85338333Y-65192914D01*
X85338333Y-65192914D02*
X85243095Y-65240533D01*
X86433571Y-64954819D02*
X86528809Y-64954819D01*
X86528809Y-64954819D02*
X86624047Y-65002438D01*
X86624047Y-65002438D02*
X86671666Y-65050057D01*
X86671666Y-65050057D02*
X86719285Y-65145295D01*
X86719285Y-65145295D02*
X86766904Y-65335771D01*
X86766904Y-65335771D02*
X86766904Y-65573866D01*
X86766904Y-65573866D02*
X86719285Y-65764342D01*
X86719285Y-65764342D02*
X86671666Y-65859580D01*
X86671666Y-65859580D02*
X86624047Y-65907200D01*
X86624047Y-65907200D02*
X86528809Y-65954819D01*
X86528809Y-65954819D02*
X86433571Y-65954819D01*
X86433571Y-65954819D02*
X86338333Y-65907200D01*
X86338333Y-65907200D02*
X86290714Y-65859580D01*
X86290714Y-65859580D02*
X86243095Y-65764342D01*
X86243095Y-65764342D02*
X86195476Y-65573866D01*
X86195476Y-65573866D02*
X86195476Y-65335771D01*
X86195476Y-65335771D02*
X86243095Y-65145295D01*
X86243095Y-65145295D02*
X86290714Y-65050057D01*
X86290714Y-65050057D02*
X86338333Y-65002438D01*
X86338333Y-65002438D02*
X86433571Y-64954819D01*
X117679405Y-61124819D02*
X117679405Y-60124819D01*
X117679405Y-60124819D02*
X117917500Y-60124819D01*
X117917500Y-60124819D02*
X118060357Y-60172438D01*
X118060357Y-60172438D02*
X118155595Y-60267676D01*
X118155595Y-60267676D02*
X118203214Y-60362914D01*
X118203214Y-60362914D02*
X118250833Y-60553390D01*
X118250833Y-60553390D02*
X118250833Y-60696247D01*
X118250833Y-60696247D02*
X118203214Y-60886723D01*
X118203214Y-60886723D02*
X118155595Y-60981961D01*
X118155595Y-60981961D02*
X118060357Y-61077200D01*
X118060357Y-61077200D02*
X117917500Y-61124819D01*
X117917500Y-61124819D02*
X117679405Y-61124819D01*
X119203214Y-61124819D02*
X118631786Y-61124819D01*
X118917500Y-61124819D02*
X118917500Y-60124819D01*
X118917500Y-60124819D02*
X118822262Y-60267676D01*
X118822262Y-60267676D02*
X118727024Y-60362914D01*
X118727024Y-60362914D02*
X118631786Y-60410533D01*
X128348509Y-79333333D02*
X128348509Y-79666666D01*
X128872319Y-79666666D02*
X127872319Y-79666666D01*
X127872319Y-79666666D02*
X127872319Y-79190476D01*
X128348509Y-78476190D02*
X128396128Y-78333333D01*
X128396128Y-78333333D02*
X128443747Y-78285714D01*
X128443747Y-78285714D02*
X128538985Y-78238095D01*
X128538985Y-78238095D02*
X128681842Y-78238095D01*
X128681842Y-78238095D02*
X128777080Y-78285714D01*
X128777080Y-78285714D02*
X128824700Y-78333333D01*
X128824700Y-78333333D02*
X128872319Y-78428571D01*
X128872319Y-78428571D02*
X128872319Y-78809523D01*
X128872319Y-78809523D02*
X127872319Y-78809523D01*
X127872319Y-78809523D02*
X127872319Y-78476190D01*
X127872319Y-78476190D02*
X127919938Y-78380952D01*
X127919938Y-78380952D02*
X127967557Y-78333333D01*
X127967557Y-78333333D02*
X128062795Y-78285714D01*
X128062795Y-78285714D02*
X128158033Y-78285714D01*
X128158033Y-78285714D02*
X128253271Y-78333333D01*
X128253271Y-78333333D02*
X128300890Y-78380952D01*
X128300890Y-78380952D02*
X128348509Y-78476190D01*
X128348509Y-78476190D02*
X128348509Y-78809523D01*
X128872319Y-77285714D02*
X128872319Y-77857142D01*
X128872319Y-77571428D02*
X127872319Y-77571428D01*
X127872319Y-77571428D02*
X128015176Y-77666666D01*
X128015176Y-77666666D02*
X128110414Y-77761904D01*
X128110414Y-77761904D02*
X128158033Y-77857142D01*
X87301593Y-46290682D02*
X87206355Y-46243063D01*
X87206355Y-46243063D02*
X87111117Y-46147825D01*
X87111117Y-46147825D02*
X86968260Y-46004967D01*
X86968260Y-46004967D02*
X86873022Y-45957348D01*
X86873022Y-45957348D02*
X86777784Y-45957348D01*
X86825403Y-46195444D02*
X86730165Y-46147825D01*
X86730165Y-46147825D02*
X86634927Y-46052586D01*
X86634927Y-46052586D02*
X86587308Y-45862110D01*
X86587308Y-45862110D02*
X86587308Y-45528777D01*
X86587308Y-45528777D02*
X86634927Y-45338301D01*
X86634927Y-45338301D02*
X86730165Y-45243063D01*
X86730165Y-45243063D02*
X86825403Y-45195444D01*
X86825403Y-45195444D02*
X87015879Y-45195444D01*
X87015879Y-45195444D02*
X87111117Y-45243063D01*
X87111117Y-45243063D02*
X87206355Y-45338301D01*
X87206355Y-45338301D02*
X87253974Y-45528777D01*
X87253974Y-45528777D02*
X87253974Y-45862110D01*
X87253974Y-45862110D02*
X87206355Y-46052586D01*
X87206355Y-46052586D02*
X87111117Y-46147825D01*
X87111117Y-46147825D02*
X87015879Y-46195444D01*
X87015879Y-46195444D02*
X86825403Y-46195444D01*
X87587308Y-45195444D02*
X88206355Y-45195444D01*
X88206355Y-45195444D02*
X87873022Y-45576396D01*
X87873022Y-45576396D02*
X88015879Y-45576396D01*
X88015879Y-45576396D02*
X88111117Y-45624015D01*
X88111117Y-45624015D02*
X88158736Y-45671634D01*
X88158736Y-45671634D02*
X88206355Y-45766872D01*
X88206355Y-45766872D02*
X88206355Y-46004967D01*
X88206355Y-46004967D02*
X88158736Y-46100205D01*
X88158736Y-46100205D02*
X88111117Y-46147825D01*
X88111117Y-46147825D02*
X88015879Y-46195444D01*
X88015879Y-46195444D02*
X87730165Y-46195444D01*
X87730165Y-46195444D02*
X87634927Y-46147825D01*
X87634927Y-46147825D02*
X87587308Y-46100205D01*
X83872319Y-84142857D02*
X83396128Y-84476190D01*
X83872319Y-84714285D02*
X82872319Y-84714285D01*
X82872319Y-84714285D02*
X82872319Y-84333333D01*
X82872319Y-84333333D02*
X82919938Y-84238095D01*
X82919938Y-84238095D02*
X82967557Y-84190476D01*
X82967557Y-84190476D02*
X83062795Y-84142857D01*
X83062795Y-84142857D02*
X83205652Y-84142857D01*
X83205652Y-84142857D02*
X83300890Y-84190476D01*
X83300890Y-84190476D02*
X83348509Y-84238095D01*
X83348509Y-84238095D02*
X83396128Y-84333333D01*
X83396128Y-84333333D02*
X83396128Y-84714285D01*
X83872319Y-83190476D02*
X83872319Y-83761904D01*
X83872319Y-83476190D02*
X82872319Y-83476190D01*
X82872319Y-83476190D02*
X83015176Y-83571428D01*
X83015176Y-83571428D02*
X83110414Y-83666666D01*
X83110414Y-83666666D02*
X83158033Y-83761904D01*
X82967557Y-82809523D02*
X82919938Y-82761904D01*
X82919938Y-82761904D02*
X82872319Y-82666666D01*
X82872319Y-82666666D02*
X82872319Y-82428571D01*
X82872319Y-82428571D02*
X82919938Y-82333333D01*
X82919938Y-82333333D02*
X82967557Y-82285714D01*
X82967557Y-82285714D02*
X83062795Y-82238095D01*
X83062795Y-82238095D02*
X83158033Y-82238095D01*
X83158033Y-82238095D02*
X83300890Y-82285714D01*
X83300890Y-82285714D02*
X83872319Y-82857142D01*
X83872319Y-82857142D02*
X83872319Y-82238095D01*
X102777080Y-73666666D02*
X102824700Y-73714285D01*
X102824700Y-73714285D02*
X102872319Y-73857142D01*
X102872319Y-73857142D02*
X102872319Y-73952380D01*
X102872319Y-73952380D02*
X102824700Y-74095237D01*
X102824700Y-74095237D02*
X102729461Y-74190475D01*
X102729461Y-74190475D02*
X102634223Y-74238094D01*
X102634223Y-74238094D02*
X102443747Y-74285713D01*
X102443747Y-74285713D02*
X102300890Y-74285713D01*
X102300890Y-74285713D02*
X102110414Y-74238094D01*
X102110414Y-74238094D02*
X102015176Y-74190475D01*
X102015176Y-74190475D02*
X101919938Y-74095237D01*
X101919938Y-74095237D02*
X101872319Y-73952380D01*
X101872319Y-73952380D02*
X101872319Y-73857142D01*
X101872319Y-73857142D02*
X101919938Y-73714285D01*
X101919938Y-73714285D02*
X101967557Y-73666666D01*
X101967557Y-73285713D02*
X101919938Y-73238094D01*
X101919938Y-73238094D02*
X101872319Y-73142856D01*
X101872319Y-73142856D02*
X101872319Y-72904761D01*
X101872319Y-72904761D02*
X101919938Y-72809523D01*
X101919938Y-72809523D02*
X101967557Y-72761904D01*
X101967557Y-72761904D02*
X102062795Y-72714285D01*
X102062795Y-72714285D02*
X102158033Y-72714285D01*
X102158033Y-72714285D02*
X102300890Y-72761904D01*
X102300890Y-72761904D02*
X102872319Y-73333332D01*
X102872319Y-73333332D02*
X102872319Y-72714285D01*
X89507319Y-55686904D02*
X90316842Y-55686904D01*
X90316842Y-55686904D02*
X90412080Y-55639285D01*
X90412080Y-55639285D02*
X90459700Y-55591666D01*
X90459700Y-55591666D02*
X90507319Y-55496428D01*
X90507319Y-55496428D02*
X90507319Y-55305952D01*
X90507319Y-55305952D02*
X90459700Y-55210714D01*
X90459700Y-55210714D02*
X90412080Y-55163095D01*
X90412080Y-55163095D02*
X90316842Y-55115476D01*
X90316842Y-55115476D02*
X89507319Y-55115476D01*
X89507319Y-54210714D02*
X89507319Y-54401190D01*
X89507319Y-54401190D02*
X89554938Y-54496428D01*
X89554938Y-54496428D02*
X89602557Y-54544047D01*
X89602557Y-54544047D02*
X89745414Y-54639285D01*
X89745414Y-54639285D02*
X89935890Y-54686904D01*
X89935890Y-54686904D02*
X90316842Y-54686904D01*
X90316842Y-54686904D02*
X90412080Y-54639285D01*
X90412080Y-54639285D02*
X90459700Y-54591666D01*
X90459700Y-54591666D02*
X90507319Y-54496428D01*
X90507319Y-54496428D02*
X90507319Y-54305952D01*
X90507319Y-54305952D02*
X90459700Y-54210714D01*
X90459700Y-54210714D02*
X90412080Y-54163095D01*
X90412080Y-54163095D02*
X90316842Y-54115476D01*
X90316842Y-54115476D02*
X90078747Y-54115476D01*
X90078747Y-54115476D02*
X89983509Y-54163095D01*
X89983509Y-54163095D02*
X89935890Y-54210714D01*
X89935890Y-54210714D02*
X89888271Y-54305952D01*
X89888271Y-54305952D02*
X89888271Y-54496428D01*
X89888271Y-54496428D02*
X89935890Y-54591666D01*
X89935890Y-54591666D02*
X89983509Y-54639285D01*
X89983509Y-54639285D02*
X90078747Y-54686904D01*
X84207080Y-48666666D02*
X84254700Y-48714285D01*
X84254700Y-48714285D02*
X84302319Y-48857142D01*
X84302319Y-48857142D02*
X84302319Y-48952380D01*
X84302319Y-48952380D02*
X84254700Y-49095237D01*
X84254700Y-49095237D02*
X84159461Y-49190475D01*
X84159461Y-49190475D02*
X84064223Y-49238094D01*
X84064223Y-49238094D02*
X83873747Y-49285713D01*
X83873747Y-49285713D02*
X83730890Y-49285713D01*
X83730890Y-49285713D02*
X83540414Y-49238094D01*
X83540414Y-49238094D02*
X83445176Y-49190475D01*
X83445176Y-49190475D02*
X83349938Y-49095237D01*
X83349938Y-49095237D02*
X83302319Y-48952380D01*
X83302319Y-48952380D02*
X83302319Y-48857142D01*
X83302319Y-48857142D02*
X83349938Y-48714285D01*
X83349938Y-48714285D02*
X83397557Y-48666666D01*
X83302319Y-48333332D02*
X83302319Y-47666666D01*
X83302319Y-47666666D02*
X84302319Y-48095237D01*
X124367557Y-78532738D02*
X124319938Y-78627976D01*
X124319938Y-78627976D02*
X124224700Y-78723214D01*
X124224700Y-78723214D02*
X124081842Y-78866071D01*
X124081842Y-78866071D02*
X124034223Y-78961309D01*
X124034223Y-78961309D02*
X124034223Y-79056547D01*
X124272319Y-79008928D02*
X124224700Y-79104166D01*
X124224700Y-79104166D02*
X124129461Y-79199404D01*
X124129461Y-79199404D02*
X123938985Y-79247023D01*
X123938985Y-79247023D02*
X123605652Y-79247023D01*
X123605652Y-79247023D02*
X123415176Y-79199404D01*
X123415176Y-79199404D02*
X123319938Y-79104166D01*
X123319938Y-79104166D02*
X123272319Y-79008928D01*
X123272319Y-79008928D02*
X123272319Y-78818452D01*
X123272319Y-78818452D02*
X123319938Y-78723214D01*
X123319938Y-78723214D02*
X123415176Y-78627976D01*
X123415176Y-78627976D02*
X123605652Y-78580357D01*
X123605652Y-78580357D02*
X123938985Y-78580357D01*
X123938985Y-78580357D02*
X124129461Y-78627976D01*
X124129461Y-78627976D02*
X124224700Y-78723214D01*
X124224700Y-78723214D02*
X124272319Y-78818452D01*
X124272319Y-78818452D02*
X124272319Y-79008928D01*
X124272319Y-77627976D02*
X124272319Y-78199404D01*
X124272319Y-77913690D02*
X123272319Y-77913690D01*
X123272319Y-77913690D02*
X123415176Y-78008928D01*
X123415176Y-78008928D02*
X123510414Y-78104166D01*
X123510414Y-78104166D02*
X123558033Y-78199404D01*
X109971701Y-62830674D02*
X109924082Y-62878294D01*
X109924082Y-62878294D02*
X109781225Y-62925913D01*
X109781225Y-62925913D02*
X109685987Y-62925913D01*
X109685987Y-62925913D02*
X109543130Y-62878294D01*
X109543130Y-62878294D02*
X109447892Y-62783055D01*
X109447892Y-62783055D02*
X109400273Y-62687817D01*
X109400273Y-62687817D02*
X109352654Y-62497341D01*
X109352654Y-62497341D02*
X109352654Y-62354484D01*
X109352654Y-62354484D02*
X109400273Y-62164008D01*
X109400273Y-62164008D02*
X109447892Y-62068770D01*
X109447892Y-62068770D02*
X109543130Y-61973532D01*
X109543130Y-61973532D02*
X109685987Y-61925913D01*
X109685987Y-61925913D02*
X109781225Y-61925913D01*
X109781225Y-61925913D02*
X109924082Y-61973532D01*
X109924082Y-61973532D02*
X109971701Y-62021151D01*
X110876463Y-61925913D02*
X110400273Y-61925913D01*
X110400273Y-61925913D02*
X110352654Y-62402103D01*
X110352654Y-62402103D02*
X110400273Y-62354484D01*
X110400273Y-62354484D02*
X110495511Y-62306865D01*
X110495511Y-62306865D02*
X110733606Y-62306865D01*
X110733606Y-62306865D02*
X110828844Y-62354484D01*
X110828844Y-62354484D02*
X110876463Y-62402103D01*
X110876463Y-62402103D02*
X110924082Y-62497341D01*
X110924082Y-62497341D02*
X110924082Y-62735436D01*
X110924082Y-62735436D02*
X110876463Y-62830674D01*
X110876463Y-62830674D02*
X110828844Y-62878294D01*
X110828844Y-62878294D02*
X110733606Y-62925913D01*
X110733606Y-62925913D02*
X110495511Y-62925913D01*
X110495511Y-62925913D02*
X110400273Y-62878294D01*
X110400273Y-62878294D02*
X110352654Y-62830674D01*
X100306275Y-84616851D02*
X99972942Y-84140660D01*
X99734847Y-84616851D02*
X99734847Y-83616851D01*
X99734847Y-83616851D02*
X100115799Y-83616851D01*
X100115799Y-83616851D02*
X100211037Y-83664470D01*
X100211037Y-83664470D02*
X100258656Y-83712089D01*
X100258656Y-83712089D02*
X100306275Y-83807327D01*
X100306275Y-83807327D02*
X100306275Y-83950184D01*
X100306275Y-83950184D02*
X100258656Y-84045422D01*
X100258656Y-84045422D02*
X100211037Y-84093041D01*
X100211037Y-84093041D02*
X100115799Y-84140660D01*
X100115799Y-84140660D02*
X99734847Y-84140660D01*
X100877704Y-84045422D02*
X100782466Y-83997803D01*
X100782466Y-83997803D02*
X100734847Y-83950184D01*
X100734847Y-83950184D02*
X100687228Y-83854946D01*
X100687228Y-83854946D02*
X100687228Y-83807327D01*
X100687228Y-83807327D02*
X100734847Y-83712089D01*
X100734847Y-83712089D02*
X100782466Y-83664470D01*
X100782466Y-83664470D02*
X100877704Y-83616851D01*
X100877704Y-83616851D02*
X101068180Y-83616851D01*
X101068180Y-83616851D02*
X101163418Y-83664470D01*
X101163418Y-83664470D02*
X101211037Y-83712089D01*
X101211037Y-83712089D02*
X101258656Y-83807327D01*
X101258656Y-83807327D02*
X101258656Y-83854946D01*
X101258656Y-83854946D02*
X101211037Y-83950184D01*
X101211037Y-83950184D02*
X101163418Y-83997803D01*
X101163418Y-83997803D02*
X101068180Y-84045422D01*
X101068180Y-84045422D02*
X100877704Y-84045422D01*
X100877704Y-84045422D02*
X100782466Y-84093041D01*
X100782466Y-84093041D02*
X100734847Y-84140660D01*
X100734847Y-84140660D02*
X100687228Y-84235898D01*
X100687228Y-84235898D02*
X100687228Y-84426374D01*
X100687228Y-84426374D02*
X100734847Y-84521612D01*
X100734847Y-84521612D02*
X100782466Y-84569232D01*
X100782466Y-84569232D02*
X100877704Y-84616851D01*
X100877704Y-84616851D02*
X101068180Y-84616851D01*
X101068180Y-84616851D02*
X101163418Y-84569232D01*
X101163418Y-84569232D02*
X101211037Y-84521612D01*
X101211037Y-84521612D02*
X101258656Y-84426374D01*
X101258656Y-84426374D02*
X101258656Y-84235898D01*
X101258656Y-84235898D02*
X101211037Y-84140660D01*
X101211037Y-84140660D02*
X101163418Y-84093041D01*
X101163418Y-84093041D02*
X101068180Y-84045422D01*
X71084166Y-82954819D02*
X71084166Y-83669104D01*
X71084166Y-83669104D02*
X71036547Y-83811961D01*
X71036547Y-83811961D02*
X70941309Y-83907200D01*
X70941309Y-83907200D02*
X70798452Y-83954819D01*
X70798452Y-83954819D02*
X70703214Y-83954819D01*
X71988928Y-82954819D02*
X71798452Y-82954819D01*
X71798452Y-82954819D02*
X71703214Y-83002438D01*
X71703214Y-83002438D02*
X71655595Y-83050057D01*
X71655595Y-83050057D02*
X71560357Y-83192914D01*
X71560357Y-83192914D02*
X71512738Y-83383390D01*
X71512738Y-83383390D02*
X71512738Y-83764342D01*
X71512738Y-83764342D02*
X71560357Y-83859580D01*
X71560357Y-83859580D02*
X71607976Y-83907200D01*
X71607976Y-83907200D02*
X71703214Y-83954819D01*
X71703214Y-83954819D02*
X71893690Y-83954819D01*
X71893690Y-83954819D02*
X71988928Y-83907200D01*
X71988928Y-83907200D02*
X72036547Y-83859580D01*
X72036547Y-83859580D02*
X72084166Y-83764342D01*
X72084166Y-83764342D02*
X72084166Y-83526247D01*
X72084166Y-83526247D02*
X72036547Y-83431009D01*
X72036547Y-83431009D02*
X71988928Y-83383390D01*
X71988928Y-83383390D02*
X71893690Y-83335771D01*
X71893690Y-83335771D02*
X71703214Y-83335771D01*
X71703214Y-83335771D02*
X71607976Y-83383390D01*
X71607976Y-83383390D02*
X71560357Y-83431009D01*
X71560357Y-83431009D02*
X71512738Y-83526247D01*
X105280883Y-84691401D02*
X105185645Y-84643782D01*
X105185645Y-84643782D02*
X105090407Y-84548544D01*
X105090407Y-84548544D02*
X104947550Y-84405686D01*
X104947550Y-84405686D02*
X104852312Y-84358067D01*
X104852312Y-84358067D02*
X104757074Y-84358067D01*
X104804693Y-84596163D02*
X104709455Y-84548544D01*
X104709455Y-84548544D02*
X104614217Y-84453305D01*
X104614217Y-84453305D02*
X104566598Y-84262829D01*
X104566598Y-84262829D02*
X104566598Y-83929496D01*
X104566598Y-83929496D02*
X104614217Y-83739020D01*
X104614217Y-83739020D02*
X104709455Y-83643782D01*
X104709455Y-83643782D02*
X104804693Y-83596163D01*
X104804693Y-83596163D02*
X104995169Y-83596163D01*
X104995169Y-83596163D02*
X105090407Y-83643782D01*
X105090407Y-83643782D02*
X105185645Y-83739020D01*
X105185645Y-83739020D02*
X105233264Y-83929496D01*
X105233264Y-83929496D02*
X105233264Y-84262829D01*
X105233264Y-84262829D02*
X105185645Y-84453305D01*
X105185645Y-84453305D02*
X105090407Y-84548544D01*
X105090407Y-84548544D02*
X104995169Y-84596163D01*
X104995169Y-84596163D02*
X104804693Y-84596163D01*
X105614217Y-83691401D02*
X105661836Y-83643782D01*
X105661836Y-83643782D02*
X105757074Y-83596163D01*
X105757074Y-83596163D02*
X105995169Y-83596163D01*
X105995169Y-83596163D02*
X106090407Y-83643782D01*
X106090407Y-83643782D02*
X106138026Y-83691401D01*
X106138026Y-83691401D02*
X106185645Y-83786639D01*
X106185645Y-83786639D02*
X106185645Y-83881877D01*
X106185645Y-83881877D02*
X106138026Y-84024734D01*
X106138026Y-84024734D02*
X105566598Y-84596163D01*
X105566598Y-84596163D02*
X106185645Y-84596163D01*
X76872319Y-75261904D02*
X77681842Y-75261904D01*
X77681842Y-75261904D02*
X77777080Y-75214285D01*
X77777080Y-75214285D02*
X77824700Y-75166666D01*
X77824700Y-75166666D02*
X77872319Y-75071428D01*
X77872319Y-75071428D02*
X77872319Y-74880952D01*
X77872319Y-74880952D02*
X77824700Y-74785714D01*
X77824700Y-74785714D02*
X77777080Y-74738095D01*
X77777080Y-74738095D02*
X77681842Y-74690476D01*
X77681842Y-74690476D02*
X76872319Y-74690476D01*
X77205652Y-73785714D02*
X77872319Y-73785714D01*
X76824700Y-74023809D02*
X77538985Y-74261904D01*
X77538985Y-74261904D02*
X77538985Y-73642857D01*
X91872319Y-46856099D02*
X91396128Y-47189432D01*
X91872319Y-47427527D02*
X90872319Y-47427527D01*
X90872319Y-47427527D02*
X90872319Y-47046575D01*
X90872319Y-47046575D02*
X90919938Y-46951337D01*
X90919938Y-46951337D02*
X90967557Y-46903718D01*
X90967557Y-46903718D02*
X91062795Y-46856099D01*
X91062795Y-46856099D02*
X91205652Y-46856099D01*
X91205652Y-46856099D02*
X91300890Y-46903718D01*
X91300890Y-46903718D02*
X91348509Y-46951337D01*
X91348509Y-46951337D02*
X91396128Y-47046575D01*
X91396128Y-47046575D02*
X91396128Y-47427527D01*
X91872319Y-45903718D02*
X91872319Y-46475146D01*
X91872319Y-46189432D02*
X90872319Y-46189432D01*
X90872319Y-46189432D02*
X91015176Y-46284670D01*
X91015176Y-46284670D02*
X91110414Y-46379908D01*
X91110414Y-46379908D02*
X91158033Y-46475146D01*
X91300890Y-45332289D02*
X91253271Y-45427527D01*
X91253271Y-45427527D02*
X91205652Y-45475146D01*
X91205652Y-45475146D02*
X91110414Y-45522765D01*
X91110414Y-45522765D02*
X91062795Y-45522765D01*
X91062795Y-45522765D02*
X90967557Y-45475146D01*
X90967557Y-45475146D02*
X90919938Y-45427527D01*
X90919938Y-45427527D02*
X90872319Y-45332289D01*
X90872319Y-45332289D02*
X90872319Y-45141813D01*
X90872319Y-45141813D02*
X90919938Y-45046575D01*
X90919938Y-45046575D02*
X90967557Y-44998956D01*
X90967557Y-44998956D02*
X91062795Y-44951337D01*
X91062795Y-44951337D02*
X91110414Y-44951337D01*
X91110414Y-44951337D02*
X91205652Y-44998956D01*
X91205652Y-44998956D02*
X91253271Y-45046575D01*
X91253271Y-45046575D02*
X91300890Y-45141813D01*
X91300890Y-45141813D02*
X91300890Y-45332289D01*
X91300890Y-45332289D02*
X91348509Y-45427527D01*
X91348509Y-45427527D02*
X91396128Y-45475146D01*
X91396128Y-45475146D02*
X91491366Y-45522765D01*
X91491366Y-45522765D02*
X91681842Y-45522765D01*
X91681842Y-45522765D02*
X91777080Y-45475146D01*
X91777080Y-45475146D02*
X91824700Y-45427527D01*
X91824700Y-45427527D02*
X91872319Y-45332289D01*
X91872319Y-45332289D02*
X91872319Y-45141813D01*
X91872319Y-45141813D02*
X91824700Y-45046575D01*
X91824700Y-45046575D02*
X91777080Y-44998956D01*
X91777080Y-44998956D02*
X91681842Y-44951337D01*
X91681842Y-44951337D02*
X91491366Y-44951337D01*
X91491366Y-44951337D02*
X91396128Y-44998956D01*
X91396128Y-44998956D02*
X91348509Y-45046575D01*
X91348509Y-45046575D02*
X91300890Y-45141813D01*
X123442319Y-75579166D02*
X122966128Y-75912499D01*
X123442319Y-76150594D02*
X122442319Y-76150594D01*
X122442319Y-76150594D02*
X122442319Y-75769642D01*
X122442319Y-75769642D02*
X122489938Y-75674404D01*
X122489938Y-75674404D02*
X122537557Y-75626785D01*
X122537557Y-75626785D02*
X122632795Y-75579166D01*
X122632795Y-75579166D02*
X122775652Y-75579166D01*
X122775652Y-75579166D02*
X122870890Y-75626785D01*
X122870890Y-75626785D02*
X122918509Y-75674404D01*
X122918509Y-75674404D02*
X122966128Y-75769642D01*
X122966128Y-75769642D02*
X122966128Y-76150594D01*
X122442319Y-75245832D02*
X122442319Y-74626785D01*
X122442319Y-74626785D02*
X122823271Y-74960118D01*
X122823271Y-74960118D02*
X122823271Y-74817261D01*
X122823271Y-74817261D02*
X122870890Y-74722023D01*
X122870890Y-74722023D02*
X122918509Y-74674404D01*
X122918509Y-74674404D02*
X123013747Y-74626785D01*
X123013747Y-74626785D02*
X123251842Y-74626785D01*
X123251842Y-74626785D02*
X123347080Y-74674404D01*
X123347080Y-74674404D02*
X123394700Y-74722023D01*
X123394700Y-74722023D02*
X123442319Y-74817261D01*
X123442319Y-74817261D02*
X123442319Y-75102975D01*
X123442319Y-75102975D02*
X123394700Y-75198213D01*
X123394700Y-75198213D02*
X123347080Y-75245832D01*
X64883002Y-44954819D02*
X64883002Y-45669104D01*
X64883002Y-45669104D02*
X64835383Y-45811961D01*
X64835383Y-45811961D02*
X64740145Y-45907200D01*
X64740145Y-45907200D02*
X64597288Y-45954819D01*
X64597288Y-45954819D02*
X64502050Y-45954819D01*
X65835383Y-44954819D02*
X65359193Y-44954819D01*
X65359193Y-44954819D02*
X65311574Y-45431009D01*
X65311574Y-45431009D02*
X65359193Y-45383390D01*
X65359193Y-45383390D02*
X65454431Y-45335771D01*
X65454431Y-45335771D02*
X65692526Y-45335771D01*
X65692526Y-45335771D02*
X65787764Y-45383390D01*
X65787764Y-45383390D02*
X65835383Y-45431009D01*
X65835383Y-45431009D02*
X65883002Y-45526247D01*
X65883002Y-45526247D02*
X65883002Y-45764342D01*
X65883002Y-45764342D02*
X65835383Y-45859580D01*
X65835383Y-45859580D02*
X65787764Y-45907200D01*
X65787764Y-45907200D02*
X65692526Y-45954819D01*
X65692526Y-45954819D02*
X65454431Y-45954819D01*
X65454431Y-45954819D02*
X65359193Y-45907200D01*
X65359193Y-45907200D02*
X65311574Y-45859580D01*
X87777080Y-84142857D02*
X87824700Y-84190476D01*
X87824700Y-84190476D02*
X87872319Y-84333333D01*
X87872319Y-84333333D02*
X87872319Y-84428571D01*
X87872319Y-84428571D02*
X87824700Y-84571428D01*
X87824700Y-84571428D02*
X87729461Y-84666666D01*
X87729461Y-84666666D02*
X87634223Y-84714285D01*
X87634223Y-84714285D02*
X87443747Y-84761904D01*
X87443747Y-84761904D02*
X87300890Y-84761904D01*
X87300890Y-84761904D02*
X87110414Y-84714285D01*
X87110414Y-84714285D02*
X87015176Y-84666666D01*
X87015176Y-84666666D02*
X86919938Y-84571428D01*
X86919938Y-84571428D02*
X86872319Y-84428571D01*
X86872319Y-84428571D02*
X86872319Y-84333333D01*
X86872319Y-84333333D02*
X86919938Y-84190476D01*
X86919938Y-84190476D02*
X86967557Y-84142857D01*
X87872319Y-83190476D02*
X87872319Y-83761904D01*
X87872319Y-83476190D02*
X86872319Y-83476190D01*
X86872319Y-83476190D02*
X87015176Y-83571428D01*
X87015176Y-83571428D02*
X87110414Y-83666666D01*
X87110414Y-83666666D02*
X87158033Y-83761904D01*
X86872319Y-82571428D02*
X86872319Y-82476190D01*
X86872319Y-82476190D02*
X86919938Y-82380952D01*
X86919938Y-82380952D02*
X86967557Y-82333333D01*
X86967557Y-82333333D02*
X87062795Y-82285714D01*
X87062795Y-82285714D02*
X87253271Y-82238095D01*
X87253271Y-82238095D02*
X87491366Y-82238095D01*
X87491366Y-82238095D02*
X87681842Y-82285714D01*
X87681842Y-82285714D02*
X87777080Y-82333333D01*
X87777080Y-82333333D02*
X87824700Y-82380952D01*
X87824700Y-82380952D02*
X87872319Y-82476190D01*
X87872319Y-82476190D02*
X87872319Y-82571428D01*
X87872319Y-82571428D02*
X87824700Y-82666666D01*
X87824700Y-82666666D02*
X87777080Y-82714285D01*
X87777080Y-82714285D02*
X87681842Y-82761904D01*
X87681842Y-82761904D02*
X87491366Y-82809523D01*
X87491366Y-82809523D02*
X87253271Y-82809523D01*
X87253271Y-82809523D02*
X87062795Y-82761904D01*
X87062795Y-82761904D02*
X86967557Y-82714285D01*
X86967557Y-82714285D02*
X86919938Y-82666666D01*
X86919938Y-82666666D02*
X86872319Y-82571428D01*
X126823309Y-78385764D02*
X126347118Y-78719097D01*
X126823309Y-78957192D02*
X125823309Y-78957192D01*
X125823309Y-78957192D02*
X125823309Y-78576240D01*
X125823309Y-78576240D02*
X125870928Y-78481002D01*
X125870928Y-78481002D02*
X125918547Y-78433383D01*
X125918547Y-78433383D02*
X126013785Y-78385764D01*
X126013785Y-78385764D02*
X126156642Y-78385764D01*
X126156642Y-78385764D02*
X126251880Y-78433383D01*
X126251880Y-78433383D02*
X126299499Y-78481002D01*
X126299499Y-78481002D02*
X126347118Y-78576240D01*
X126347118Y-78576240D02*
X126347118Y-78957192D01*
X125918547Y-78004811D02*
X125870928Y-77957192D01*
X125870928Y-77957192D02*
X125823309Y-77861954D01*
X125823309Y-77861954D02*
X125823309Y-77623859D01*
X125823309Y-77623859D02*
X125870928Y-77528621D01*
X125870928Y-77528621D02*
X125918547Y-77481002D01*
X125918547Y-77481002D02*
X126013785Y-77433383D01*
X126013785Y-77433383D02*
X126109023Y-77433383D01*
X126109023Y-77433383D02*
X126251880Y-77481002D01*
X126251880Y-77481002D02*
X126823309Y-78052430D01*
X126823309Y-78052430D02*
X126823309Y-77433383D01*
X92084166Y-74954819D02*
X92084166Y-75669104D01*
X92084166Y-75669104D02*
X92036547Y-75811961D01*
X92036547Y-75811961D02*
X91941309Y-75907200D01*
X91941309Y-75907200D02*
X91798452Y-75954819D01*
X91798452Y-75954819D02*
X91703214Y-75954819D01*
X92988928Y-75288152D02*
X92988928Y-75954819D01*
X92750833Y-74907200D02*
X92512738Y-75621485D01*
X92512738Y-75621485D02*
X93131785Y-75621485D01*
X93872319Y-46910964D02*
X93396128Y-47244297D01*
X93872319Y-47482392D02*
X92872319Y-47482392D01*
X92872319Y-47482392D02*
X92872319Y-47101440D01*
X92872319Y-47101440D02*
X92919938Y-47006202D01*
X92919938Y-47006202D02*
X92967557Y-46958583D01*
X92967557Y-46958583D02*
X93062795Y-46910964D01*
X93062795Y-46910964D02*
X93205652Y-46910964D01*
X93205652Y-46910964D02*
X93300890Y-46958583D01*
X93300890Y-46958583D02*
X93348509Y-47006202D01*
X93348509Y-47006202D02*
X93396128Y-47101440D01*
X93396128Y-47101440D02*
X93396128Y-47482392D01*
X93872319Y-45958583D02*
X93872319Y-46530011D01*
X93872319Y-46244297D02*
X92872319Y-46244297D01*
X92872319Y-46244297D02*
X93015176Y-46339535D01*
X93015176Y-46339535D02*
X93110414Y-46434773D01*
X93110414Y-46434773D02*
X93158033Y-46530011D01*
X92872319Y-45625249D02*
X92872319Y-44958583D01*
X92872319Y-44958583D02*
X93872319Y-45387154D01*
X94250833Y-69859580D02*
X94203214Y-69907200D01*
X94203214Y-69907200D02*
X94060357Y-69954819D01*
X94060357Y-69954819D02*
X93965119Y-69954819D01*
X93965119Y-69954819D02*
X93822262Y-69907200D01*
X93822262Y-69907200D02*
X93727024Y-69811961D01*
X93727024Y-69811961D02*
X93679405Y-69716723D01*
X93679405Y-69716723D02*
X93631786Y-69526247D01*
X93631786Y-69526247D02*
X93631786Y-69383390D01*
X93631786Y-69383390D02*
X93679405Y-69192914D01*
X93679405Y-69192914D02*
X93727024Y-69097676D01*
X93727024Y-69097676D02*
X93822262Y-69002438D01*
X93822262Y-69002438D02*
X93965119Y-68954819D01*
X93965119Y-68954819D02*
X94060357Y-68954819D01*
X94060357Y-68954819D02*
X94203214Y-69002438D01*
X94203214Y-69002438D02*
X94250833Y-69050057D01*
X95203214Y-69954819D02*
X94631786Y-69954819D01*
X94917500Y-69954819D02*
X94917500Y-68954819D01*
X94917500Y-68954819D02*
X94822262Y-69097676D01*
X94822262Y-69097676D02*
X94727024Y-69192914D01*
X94727024Y-69192914D02*
X94631786Y-69240533D01*
X101872319Y-52491666D02*
X101396128Y-52824999D01*
X101872319Y-53063094D02*
X100872319Y-53063094D01*
X100872319Y-53063094D02*
X100872319Y-52682142D01*
X100872319Y-52682142D02*
X100919938Y-52586904D01*
X100919938Y-52586904D02*
X100967557Y-52539285D01*
X100967557Y-52539285D02*
X101062795Y-52491666D01*
X101062795Y-52491666D02*
X101205652Y-52491666D01*
X101205652Y-52491666D02*
X101300890Y-52539285D01*
X101300890Y-52539285D02*
X101348509Y-52586904D01*
X101348509Y-52586904D02*
X101396128Y-52682142D01*
X101396128Y-52682142D02*
X101396128Y-53063094D01*
X100872319Y-51634523D02*
X100872319Y-51824999D01*
X100872319Y-51824999D02*
X100919938Y-51920237D01*
X100919938Y-51920237D02*
X100967557Y-51967856D01*
X100967557Y-51967856D02*
X101110414Y-52063094D01*
X101110414Y-52063094D02*
X101300890Y-52110713D01*
X101300890Y-52110713D02*
X101681842Y-52110713D01*
X101681842Y-52110713D02*
X101777080Y-52063094D01*
X101777080Y-52063094D02*
X101824700Y-52015475D01*
X101824700Y-52015475D02*
X101872319Y-51920237D01*
X101872319Y-51920237D02*
X101872319Y-51729761D01*
X101872319Y-51729761D02*
X101824700Y-51634523D01*
X101824700Y-51634523D02*
X101777080Y-51586904D01*
X101777080Y-51586904D02*
X101681842Y-51539285D01*
X101681842Y-51539285D02*
X101443747Y-51539285D01*
X101443747Y-51539285D02*
X101348509Y-51586904D01*
X101348509Y-51586904D02*
X101300890Y-51634523D01*
X101300890Y-51634523D02*
X101253271Y-51729761D01*
X101253271Y-51729761D02*
X101253271Y-51920237D01*
X101253271Y-51920237D02*
X101300890Y-52015475D01*
X101300890Y-52015475D02*
X101348509Y-52063094D01*
X101348509Y-52063094D02*
X101443747Y-52110713D01*
X110250833Y-83954819D02*
X109917500Y-83478628D01*
X109679405Y-83954819D02*
X109679405Y-82954819D01*
X109679405Y-82954819D02*
X110060357Y-82954819D01*
X110060357Y-82954819D02*
X110155595Y-83002438D01*
X110155595Y-83002438D02*
X110203214Y-83050057D01*
X110203214Y-83050057D02*
X110250833Y-83145295D01*
X110250833Y-83145295D02*
X110250833Y-83288152D01*
X110250833Y-83288152D02*
X110203214Y-83383390D01*
X110203214Y-83383390D02*
X110155595Y-83431009D01*
X110155595Y-83431009D02*
X110060357Y-83478628D01*
X110060357Y-83478628D02*
X109679405Y-83478628D01*
X110727024Y-83954819D02*
X110917500Y-83954819D01*
X110917500Y-83954819D02*
X111012738Y-83907200D01*
X111012738Y-83907200D02*
X111060357Y-83859580D01*
X111060357Y-83859580D02*
X111155595Y-83716723D01*
X111155595Y-83716723D02*
X111203214Y-83526247D01*
X111203214Y-83526247D02*
X111203214Y-83145295D01*
X111203214Y-83145295D02*
X111155595Y-83050057D01*
X111155595Y-83050057D02*
X111107976Y-83002438D01*
X111107976Y-83002438D02*
X111012738Y-82954819D01*
X111012738Y-82954819D02*
X110822262Y-82954819D01*
X110822262Y-82954819D02*
X110727024Y-83002438D01*
X110727024Y-83002438D02*
X110679405Y-83050057D01*
X110679405Y-83050057D02*
X110631786Y-83145295D01*
X110631786Y-83145295D02*
X110631786Y-83383390D01*
X110631786Y-83383390D02*
X110679405Y-83478628D01*
X110679405Y-83478628D02*
X110727024Y-83526247D01*
X110727024Y-83526247D02*
X110822262Y-83573866D01*
X110822262Y-83573866D02*
X111012738Y-83573866D01*
X111012738Y-83573866D02*
X111107976Y-83526247D01*
X111107976Y-83526247D02*
X111155595Y-83478628D01*
X111155595Y-83478628D02*
X111203214Y-83383390D01*
X89250833Y-62954819D02*
X88774643Y-62954819D01*
X88774643Y-62954819D02*
X88774643Y-61954819D01*
X89536548Y-62050057D02*
X89584167Y-62002438D01*
X89584167Y-62002438D02*
X89679405Y-61954819D01*
X89679405Y-61954819D02*
X89917500Y-61954819D01*
X89917500Y-61954819D02*
X90012738Y-62002438D01*
X90012738Y-62002438D02*
X90060357Y-62050057D01*
X90060357Y-62050057D02*
X90107976Y-62145295D01*
X90107976Y-62145295D02*
X90107976Y-62240533D01*
X90107976Y-62240533D02*
X90060357Y-62383390D01*
X90060357Y-62383390D02*
X89488929Y-62954819D01*
X89488929Y-62954819D02*
X90107976Y-62954819D01*
X85872319Y-84142857D02*
X85396128Y-84476190D01*
X85872319Y-84714285D02*
X84872319Y-84714285D01*
X84872319Y-84714285D02*
X84872319Y-84333333D01*
X84872319Y-84333333D02*
X84919938Y-84238095D01*
X84919938Y-84238095D02*
X84967557Y-84190476D01*
X84967557Y-84190476D02*
X85062795Y-84142857D01*
X85062795Y-84142857D02*
X85205652Y-84142857D01*
X85205652Y-84142857D02*
X85300890Y-84190476D01*
X85300890Y-84190476D02*
X85348509Y-84238095D01*
X85348509Y-84238095D02*
X85396128Y-84333333D01*
X85396128Y-84333333D02*
X85396128Y-84714285D01*
X85872319Y-83190476D02*
X85872319Y-83761904D01*
X85872319Y-83476190D02*
X84872319Y-83476190D01*
X84872319Y-83476190D02*
X85015176Y-83571428D01*
X85015176Y-83571428D02*
X85110414Y-83666666D01*
X85110414Y-83666666D02*
X85158033Y-83761904D01*
X84872319Y-82857142D02*
X84872319Y-82238095D01*
X84872319Y-82238095D02*
X85253271Y-82571428D01*
X85253271Y-82571428D02*
X85253271Y-82428571D01*
X85253271Y-82428571D02*
X85300890Y-82333333D01*
X85300890Y-82333333D02*
X85348509Y-82285714D01*
X85348509Y-82285714D02*
X85443747Y-82238095D01*
X85443747Y-82238095D02*
X85681842Y-82238095D01*
X85681842Y-82238095D02*
X85777080Y-82285714D01*
X85777080Y-82285714D02*
X85824700Y-82333333D01*
X85824700Y-82333333D02*
X85872319Y-82428571D01*
X85872319Y-82428571D02*
X85872319Y-82714285D01*
X85872319Y-82714285D02*
X85824700Y-82809523D01*
X85824700Y-82809523D02*
X85777080Y-82857142D01*
X77842645Y-84672702D02*
X77509312Y-84196511D01*
X77271217Y-84672702D02*
X77271217Y-83672702D01*
X77271217Y-83672702D02*
X77652169Y-83672702D01*
X77652169Y-83672702D02*
X77747407Y-83720321D01*
X77747407Y-83720321D02*
X77795026Y-83767940D01*
X77795026Y-83767940D02*
X77842645Y-83863178D01*
X77842645Y-83863178D02*
X77842645Y-84006035D01*
X77842645Y-84006035D02*
X77795026Y-84101273D01*
X77795026Y-84101273D02*
X77747407Y-84148892D01*
X77747407Y-84148892D02*
X77652169Y-84196511D01*
X77652169Y-84196511D02*
X77271217Y-84196511D01*
X78795026Y-84672702D02*
X78223598Y-84672702D01*
X78509312Y-84672702D02*
X78509312Y-83672702D01*
X78509312Y-83672702D02*
X78414074Y-83815559D01*
X78414074Y-83815559D02*
X78318836Y-83910797D01*
X78318836Y-83910797D02*
X78223598Y-83958416D01*
X79652169Y-84006035D02*
X79652169Y-84672702D01*
X79414074Y-83625083D02*
X79175979Y-84339368D01*
X79175979Y-84339368D02*
X79795026Y-84339368D01*
X99493095Y-68729819D02*
X99493095Y-69539342D01*
X99493095Y-69539342D02*
X99540714Y-69634580D01*
X99540714Y-69634580D02*
X99588333Y-69682200D01*
X99588333Y-69682200D02*
X99683571Y-69729819D01*
X99683571Y-69729819D02*
X99874047Y-69729819D01*
X99874047Y-69729819D02*
X99969285Y-69682200D01*
X99969285Y-69682200D02*
X100016904Y-69634580D01*
X100016904Y-69634580D02*
X100064523Y-69539342D01*
X100064523Y-69539342D02*
X100064523Y-68729819D01*
X101064523Y-69729819D02*
X100493095Y-69729819D01*
X100778809Y-69729819D02*
X100778809Y-68729819D01*
X100778809Y-68729819D02*
X100683571Y-68872676D01*
X100683571Y-68872676D02*
X100588333Y-68967914D01*
X100588333Y-68967914D02*
X100493095Y-69015533D01*
X82777080Y-52142857D02*
X82824700Y-52190476D01*
X82824700Y-52190476D02*
X82872319Y-52333333D01*
X82872319Y-52333333D02*
X82872319Y-52428571D01*
X82872319Y-52428571D02*
X82824700Y-52571428D01*
X82824700Y-52571428D02*
X82729461Y-52666666D01*
X82729461Y-52666666D02*
X82634223Y-52714285D01*
X82634223Y-52714285D02*
X82443747Y-52761904D01*
X82443747Y-52761904D02*
X82300890Y-52761904D01*
X82300890Y-52761904D02*
X82110414Y-52714285D01*
X82110414Y-52714285D02*
X82015176Y-52666666D01*
X82015176Y-52666666D02*
X81919938Y-52571428D01*
X81919938Y-52571428D02*
X81872319Y-52428571D01*
X81872319Y-52428571D02*
X81872319Y-52333333D01*
X81872319Y-52333333D02*
X81919938Y-52190476D01*
X81919938Y-52190476D02*
X81967557Y-52142857D01*
X82872319Y-51190476D02*
X82872319Y-51761904D01*
X82872319Y-51476190D02*
X81872319Y-51476190D01*
X81872319Y-51476190D02*
X82015176Y-51571428D01*
X82015176Y-51571428D02*
X82110414Y-51666666D01*
X82110414Y-51666666D02*
X82158033Y-51761904D01*
X81967557Y-50809523D02*
X81919938Y-50761904D01*
X81919938Y-50761904D02*
X81872319Y-50666666D01*
X81872319Y-50666666D02*
X81872319Y-50428571D01*
X81872319Y-50428571D02*
X81919938Y-50333333D01*
X81919938Y-50333333D02*
X81967557Y-50285714D01*
X81967557Y-50285714D02*
X82062795Y-50238095D01*
X82062795Y-50238095D02*
X82158033Y-50238095D01*
X82158033Y-50238095D02*
X82300890Y-50285714D01*
X82300890Y-50285714D02*
X82872319Y-50857142D01*
X82872319Y-50857142D02*
X82872319Y-50238095D01*
X76347080Y-77666666D02*
X76394700Y-77714285D01*
X76394700Y-77714285D02*
X76442319Y-77857142D01*
X76442319Y-77857142D02*
X76442319Y-77952380D01*
X76442319Y-77952380D02*
X76394700Y-78095237D01*
X76394700Y-78095237D02*
X76299461Y-78190475D01*
X76299461Y-78190475D02*
X76204223Y-78238094D01*
X76204223Y-78238094D02*
X76013747Y-78285713D01*
X76013747Y-78285713D02*
X75870890Y-78285713D01*
X75870890Y-78285713D02*
X75680414Y-78238094D01*
X75680414Y-78238094D02*
X75585176Y-78190475D01*
X75585176Y-78190475D02*
X75489938Y-78095237D01*
X75489938Y-78095237D02*
X75442319Y-77952380D01*
X75442319Y-77952380D02*
X75442319Y-77857142D01*
X75442319Y-77857142D02*
X75489938Y-77714285D01*
X75489938Y-77714285D02*
X75537557Y-77666666D01*
X76442319Y-77190475D02*
X76442319Y-76999999D01*
X76442319Y-76999999D02*
X76394700Y-76904761D01*
X76394700Y-76904761D02*
X76347080Y-76857142D01*
X76347080Y-76857142D02*
X76204223Y-76761904D01*
X76204223Y-76761904D02*
X76013747Y-76714285D01*
X76013747Y-76714285D02*
X75632795Y-76714285D01*
X75632795Y-76714285D02*
X75537557Y-76761904D01*
X75537557Y-76761904D02*
X75489938Y-76809523D01*
X75489938Y-76809523D02*
X75442319Y-76904761D01*
X75442319Y-76904761D02*
X75442319Y-77095237D01*
X75442319Y-77095237D02*
X75489938Y-77190475D01*
X75489938Y-77190475D02*
X75537557Y-77238094D01*
X75537557Y-77238094D02*
X75632795Y-77285713D01*
X75632795Y-77285713D02*
X75870890Y-77285713D01*
X75870890Y-77285713D02*
X75966128Y-77238094D01*
X75966128Y-77238094D02*
X76013747Y-77190475D01*
X76013747Y-77190475D02*
X76061366Y-77095237D01*
X76061366Y-77095237D02*
X76061366Y-76904761D01*
X76061366Y-76904761D02*
X76013747Y-76809523D01*
X76013747Y-76809523D02*
X75966128Y-76761904D01*
X75966128Y-76761904D02*
X75870890Y-76714285D01*
X66796254Y-69295963D02*
X66843874Y-69343582D01*
X66843874Y-69343582D02*
X66891493Y-69486439D01*
X66891493Y-69486439D02*
X66891493Y-69581677D01*
X66891493Y-69581677D02*
X66843874Y-69724534D01*
X66843874Y-69724534D02*
X66748635Y-69819772D01*
X66748635Y-69819772D02*
X66653397Y-69867391D01*
X66653397Y-69867391D02*
X66462921Y-69915010D01*
X66462921Y-69915010D02*
X66320064Y-69915010D01*
X66320064Y-69915010D02*
X66129588Y-69867391D01*
X66129588Y-69867391D02*
X66034350Y-69819772D01*
X66034350Y-69819772D02*
X65939112Y-69724534D01*
X65939112Y-69724534D02*
X65891493Y-69581677D01*
X65891493Y-69581677D02*
X65891493Y-69486439D01*
X65891493Y-69486439D02*
X65939112Y-69343582D01*
X65939112Y-69343582D02*
X65986731Y-69295963D01*
X66224826Y-68438820D02*
X66891493Y-68438820D01*
X65843874Y-68676915D02*
X66558159Y-68915010D01*
X66558159Y-68915010D02*
X66558159Y-68295963D01*
X99872319Y-52491666D02*
X99396128Y-52824999D01*
X99872319Y-53063094D02*
X98872319Y-53063094D01*
X98872319Y-53063094D02*
X98872319Y-52682142D01*
X98872319Y-52682142D02*
X98919938Y-52586904D01*
X98919938Y-52586904D02*
X98967557Y-52539285D01*
X98967557Y-52539285D02*
X99062795Y-52491666D01*
X99062795Y-52491666D02*
X99205652Y-52491666D01*
X99205652Y-52491666D02*
X99300890Y-52539285D01*
X99300890Y-52539285D02*
X99348509Y-52586904D01*
X99348509Y-52586904D02*
X99396128Y-52682142D01*
X99396128Y-52682142D02*
X99396128Y-53063094D01*
X98872319Y-51586904D02*
X98872319Y-52063094D01*
X98872319Y-52063094D02*
X99348509Y-52110713D01*
X99348509Y-52110713D02*
X99300890Y-52063094D01*
X99300890Y-52063094D02*
X99253271Y-51967856D01*
X99253271Y-51967856D02*
X99253271Y-51729761D01*
X99253271Y-51729761D02*
X99300890Y-51634523D01*
X99300890Y-51634523D02*
X99348509Y-51586904D01*
X99348509Y-51586904D02*
X99443747Y-51539285D01*
X99443747Y-51539285D02*
X99681842Y-51539285D01*
X99681842Y-51539285D02*
X99777080Y-51586904D01*
X99777080Y-51586904D02*
X99824700Y-51634523D01*
X99824700Y-51634523D02*
X99872319Y-51729761D01*
X99872319Y-51729761D02*
X99872319Y-51967856D01*
X99872319Y-51967856D02*
X99824700Y-52063094D01*
X99824700Y-52063094D02*
X99777080Y-52110713D01*
X68819142Y-69163022D02*
X68342951Y-69496355D01*
X68819142Y-69734450D02*
X67819142Y-69734450D01*
X67819142Y-69734450D02*
X67819142Y-69353498D01*
X67819142Y-69353498D02*
X67866761Y-69258260D01*
X67866761Y-69258260D02*
X67914380Y-69210641D01*
X67914380Y-69210641D02*
X68009618Y-69163022D01*
X68009618Y-69163022D02*
X68152475Y-69163022D01*
X68152475Y-69163022D02*
X68247713Y-69210641D01*
X68247713Y-69210641D02*
X68295332Y-69258260D01*
X68295332Y-69258260D02*
X68342951Y-69353498D01*
X68342951Y-69353498D02*
X68342951Y-69734450D01*
X68819142Y-68210641D02*
X68819142Y-68782069D01*
X68819142Y-68496355D02*
X67819142Y-68496355D01*
X67819142Y-68496355D02*
X67961999Y-68591593D01*
X67961999Y-68591593D02*
X68057237Y-68686831D01*
X68057237Y-68686831D02*
X68104856Y-68782069D01*
X120491823Y-68510620D02*
X120158490Y-68034429D01*
X119920395Y-68510620D02*
X119920395Y-67510620D01*
X119920395Y-67510620D02*
X120301347Y-67510620D01*
X120301347Y-67510620D02*
X120396585Y-67558239D01*
X120396585Y-67558239D02*
X120444204Y-67605858D01*
X120444204Y-67605858D02*
X120491823Y-67701096D01*
X120491823Y-67701096D02*
X120491823Y-67843953D01*
X120491823Y-67843953D02*
X120444204Y-67939191D01*
X120444204Y-67939191D02*
X120396585Y-67986810D01*
X120396585Y-67986810D02*
X120301347Y-68034429D01*
X120301347Y-68034429D02*
X119920395Y-68034429D01*
X121348966Y-67843953D02*
X121348966Y-68510620D01*
X121110871Y-67463001D02*
X120872776Y-68177286D01*
X120872776Y-68177286D02*
X121491823Y-68177286D01*
X129872319Y-63261904D02*
X130681842Y-63261904D01*
X130681842Y-63261904D02*
X130777080Y-63214285D01*
X130777080Y-63214285D02*
X130824700Y-63166666D01*
X130824700Y-63166666D02*
X130872319Y-63071428D01*
X130872319Y-63071428D02*
X130872319Y-62880952D01*
X130872319Y-62880952D02*
X130824700Y-62785714D01*
X130824700Y-62785714D02*
X130777080Y-62738095D01*
X130777080Y-62738095D02*
X130681842Y-62690476D01*
X130681842Y-62690476D02*
X129872319Y-62690476D01*
X129967557Y-62261904D02*
X129919938Y-62214285D01*
X129919938Y-62214285D02*
X129872319Y-62119047D01*
X129872319Y-62119047D02*
X129872319Y-61880952D01*
X129872319Y-61880952D02*
X129919938Y-61785714D01*
X129919938Y-61785714D02*
X129967557Y-61738095D01*
X129967557Y-61738095D02*
X130062795Y-61690476D01*
X130062795Y-61690476D02*
X130158033Y-61690476D01*
X130158033Y-61690476D02*
X130300890Y-61738095D01*
X130300890Y-61738095D02*
X130872319Y-62309523D01*
X130872319Y-62309523D02*
X130872319Y-61690476D01*
D14*
%TO.C,C6*%
X95927500Y-57646267D02*
X95927500Y-57353733D01*
X94907500Y-57646267D02*
X94907500Y-57353733D01*
%TO.C,C3*%
X107133733Y-68010000D02*
X107426267Y-68010000D01*
X107133733Y-66990000D02*
X107426267Y-66990000D01*
%TO.C,R11*%
X82759724Y-68022500D02*
X82250276Y-68022500D01*
X82759724Y-66977500D02*
X82250276Y-66977500D01*
%TO.C,R10*%
X82672224Y-66022500D02*
X82162776Y-66022500D01*
X82672224Y-64977500D02*
X82162776Y-64977500D01*
%TO.C,D1*%
X120017500Y-61365000D02*
X115957500Y-61365000D01*
X115957500Y-61365000D02*
X115957500Y-63635000D01*
X115957500Y-63635000D02*
X120017500Y-63635000D01*
%TO.C,FB1*%
X127907500Y-75583767D02*
X127907500Y-75241233D01*
X128927500Y-75583767D02*
X128927500Y-75241233D01*
%TO.C,Q3*%
X85807500Y-48550000D02*
X85807500Y-47900000D01*
X85807500Y-48550000D02*
X85807500Y-49200000D01*
X88927500Y-48550000D02*
X88927500Y-47900000D01*
X88927500Y-48550000D02*
X88927500Y-49200000D01*
X89207500Y-47627500D02*
X88877500Y-47387500D01*
X89207500Y-47147500D01*
X89207500Y-47627500D01*
G36*
X89207500Y-47627500D02*
G01*
X88877500Y-47387500D01*
X89207500Y-47147500D01*
X89207500Y-47627500D01*
G37*
%TO.C,R12*%
X82895000Y-80157776D02*
X82895000Y-80667224D01*
X83940000Y-80157776D02*
X83940000Y-80667224D01*
%TO.C,C2*%
X101907500Y-70216233D02*
X101907500Y-70508767D01*
X102927500Y-70216233D02*
X102927500Y-70508767D01*
D15*
%TO.C,U6*%
X85917500Y-52750000D02*
X85917500Y-54750000D01*
X88917500Y-52750000D02*
X88917500Y-54750000D01*
D16*
X88767500Y-52000000D02*
G75*
G02*
X88567500Y-52000000I-100000J0D01*
G01*
X88567500Y-52000000D02*
G75*
G02*
X88767500Y-52000000I100000J0D01*
G01*
D14*
%TO.C,C7*%
X81907500Y-48353733D02*
X81907500Y-48646267D01*
X82927500Y-48353733D02*
X82927500Y-48646267D01*
%TO.C,Q1*%
X119857500Y-78437500D02*
X119857500Y-77637500D01*
X119857500Y-78437500D02*
X119857500Y-79237500D01*
X122977500Y-78437500D02*
X122977500Y-77637500D01*
X122977500Y-78437500D02*
X122977500Y-79237500D01*
X123257500Y-77377500D02*
X122927500Y-77137500D01*
X123257500Y-76897500D01*
X123257500Y-77377500D01*
G36*
X123257500Y-77377500D02*
G01*
X122927500Y-77137500D01*
X123257500Y-76897500D01*
X123257500Y-77377500D01*
G37*
%TO.C,C5*%
X107271233Y-61990000D02*
X107563767Y-61990000D01*
X107271233Y-63010000D02*
X107563767Y-63010000D01*
%TO.C,R8*%
X99895000Y-81245276D02*
X99895000Y-81754724D01*
X100940000Y-81245276D02*
X100940000Y-81754724D01*
%TO.C,J6*%
X60957500Y-70440000D02*
X60957500Y-71360000D01*
X60957500Y-71360000D02*
X62557500Y-71360000D01*
X60957500Y-83640000D02*
X60957500Y-84560000D01*
X60957500Y-84560000D02*
X68777500Y-84560000D01*
X62557500Y-70440000D02*
X62557500Y-71360000D01*
X62557500Y-71360000D02*
X62557500Y-71640000D01*
X62557500Y-83360000D02*
X61342500Y-83360000D01*
X62557500Y-83360000D02*
X62557500Y-83640000D01*
X62557500Y-83640000D02*
X60957500Y-83640000D01*
X62557500Y-84560000D02*
X62557500Y-83640000D01*
X64417500Y-73000000D02*
X68777500Y-73000000D01*
X64417500Y-82000000D02*
X64417500Y-73000000D01*
X64917500Y-71200000D02*
X66517500Y-71200000D01*
X64917500Y-72200000D02*
X64917500Y-71200000D01*
X64917500Y-82800000D02*
X64917500Y-83800000D01*
X64917500Y-83800000D02*
X66517500Y-83800000D01*
X66517500Y-71200000D02*
X66517500Y-72200000D01*
X66517500Y-72200000D02*
X64917500Y-72200000D01*
X66517500Y-82800000D02*
X64917500Y-82800000D01*
X66517500Y-82800000D02*
X68777500Y-82800000D01*
X66517500Y-83300000D02*
X68777500Y-83300000D01*
X66517500Y-83800000D02*
X66517500Y-82800000D01*
X68777500Y-70440000D02*
X60957500Y-70440000D01*
X68777500Y-82000000D02*
X64417500Y-82000000D01*
X68777500Y-84560000D02*
X68777500Y-70440000D01*
%TO.C,Q2*%
X103807500Y-81437500D02*
X103807500Y-80787500D01*
X103807500Y-81437500D02*
X103807500Y-82087500D01*
X106927500Y-81437500D02*
X106927500Y-80787500D01*
X106927500Y-81437500D02*
X106927500Y-82087500D01*
X107207500Y-80515000D02*
X106877500Y-80275000D01*
X107207500Y-80035000D01*
X107207500Y-80515000D01*
G36*
X107207500Y-80515000D02*
G01*
X106877500Y-80275000D01*
X107207500Y-80035000D01*
X107207500Y-80515000D01*
G37*
%TO.C,L1*%
X78263500Y-71346000D02*
X82571500Y-71346000D01*
X82571500Y-75654000D02*
X78263500Y-75654000D01*
D15*
%TO.C,U4*%
X79005000Y-80250000D02*
X79005000Y-78250000D01*
X82005000Y-80250000D02*
X82005000Y-78250000D01*
D16*
X79355000Y-81000000D02*
G75*
G02*
X79155000Y-81000000I-100000J0D01*
G01*
X79155000Y-81000000D02*
G75*
G02*
X79355000Y-81000000I100000J0D01*
G01*
D14*
%TO.C,R18*%
X90895000Y-49157776D02*
X90895000Y-49667224D01*
X91940000Y-49157776D02*
X91940000Y-49667224D01*
%TO.C,R3*%
X123895000Y-75667224D02*
X123895000Y-75157776D01*
X124940000Y-75667224D02*
X124940000Y-75157776D01*
%TO.C,J5*%
X60957500Y-46440000D02*
X60957500Y-47360000D01*
X60957500Y-47360000D02*
X62557500Y-47360000D01*
X60957500Y-59640000D02*
X60957500Y-60560000D01*
X60957500Y-60560000D02*
X68777500Y-60560000D01*
X62557500Y-46440000D02*
X62557500Y-47360000D01*
X62557500Y-47360000D02*
X62557500Y-47640000D01*
X62557500Y-59360000D02*
X61342500Y-59360000D01*
X62557500Y-59360000D02*
X62557500Y-59640000D01*
X62557500Y-59640000D02*
X60957500Y-59640000D01*
X62557500Y-60560000D02*
X62557500Y-59640000D01*
X64417500Y-49000000D02*
X68777500Y-49000000D01*
X64417500Y-58000000D02*
X64417500Y-49000000D01*
X64917500Y-47200000D02*
X66517500Y-47200000D01*
X64917500Y-48200000D02*
X64917500Y-47200000D01*
X64917500Y-58800000D02*
X64917500Y-59800000D01*
X64917500Y-59800000D02*
X66517500Y-59800000D01*
X66517500Y-47200000D02*
X66517500Y-48200000D01*
X66517500Y-48200000D02*
X64917500Y-48200000D01*
X66517500Y-58800000D02*
X64917500Y-58800000D01*
X66517500Y-58800000D02*
X68777500Y-58800000D01*
X66517500Y-59300000D02*
X68777500Y-59300000D01*
X66517500Y-59800000D02*
X66517500Y-58800000D01*
X68777500Y-46440000D02*
X60957500Y-46440000D01*
X68777500Y-58000000D02*
X64417500Y-58000000D01*
X68777500Y-60560000D02*
X68777500Y-46440000D01*
%TO.C,C10*%
X86907500Y-80216233D02*
X86907500Y-80508767D01*
X87927500Y-80216233D02*
X87927500Y-80508767D01*
%TO.C,R2*%
X125895000Y-75157776D02*
X125895000Y-75667224D01*
X126940000Y-75157776D02*
X126940000Y-75667224D01*
%TO.C,J4*%
X89357500Y-76590000D02*
X89357500Y-84410000D01*
X89357500Y-82810000D02*
X90277500Y-82810000D01*
X89357500Y-84410000D02*
X90277500Y-84410000D01*
X90117500Y-78850000D02*
X91117500Y-78850000D01*
X90117500Y-80450000D02*
X90117500Y-78850000D01*
X90277500Y-82810000D02*
X90557500Y-82810000D01*
X90277500Y-84410000D02*
X90277500Y-82810000D01*
X91117500Y-78850000D02*
X91117500Y-80450000D01*
X91117500Y-80450000D02*
X90117500Y-80450000D01*
X91917500Y-80950000D02*
X91917500Y-76590000D01*
X92917500Y-76590000D02*
X92917500Y-80950000D01*
X92917500Y-80950000D02*
X91917500Y-80950000D01*
X93717500Y-78850000D02*
X93717500Y-76590000D01*
X93717500Y-78850000D02*
X93717500Y-80450000D01*
X93717500Y-80450000D02*
X94717500Y-80450000D01*
X94217500Y-78850000D02*
X94217500Y-76590000D01*
X94277500Y-82810000D02*
X94277500Y-84025000D01*
X94277500Y-82810000D02*
X94557500Y-82810000D01*
X94557500Y-82810000D02*
X94557500Y-84410000D01*
X94557500Y-84410000D02*
X95477500Y-84410000D01*
X94717500Y-78850000D02*
X93717500Y-78850000D01*
X94717500Y-80450000D02*
X94717500Y-78850000D01*
X95477500Y-76590000D02*
X89357500Y-76590000D01*
X95477500Y-82810000D02*
X94557500Y-82810000D01*
X95477500Y-84410000D02*
X95477500Y-76590000D01*
%TO.C,R17*%
X92895000Y-49157776D02*
X92895000Y-49667224D01*
X93940000Y-49157776D02*
X93940000Y-49667224D01*
%TO.C,C1*%
X94701267Y-66990000D02*
X94408733Y-66990000D01*
X94701267Y-68010000D02*
X94408733Y-68010000D01*
%TO.C,R6*%
X100895000Y-49667224D02*
X100895000Y-49157776D01*
X101940000Y-49667224D02*
X101940000Y-49157776D01*
%TO.C,R9*%
X109895000Y-80754724D02*
X109895000Y-80245276D01*
X110940000Y-80754724D02*
X110940000Y-80245276D01*
%TO.C,L2*%
X87263500Y-57346000D02*
X91571500Y-57346000D01*
X91571500Y-61654000D02*
X87263500Y-61654000D01*
%TO.C,R13*%
X84895000Y-80157776D02*
X84895000Y-80667224D01*
X85940000Y-80157776D02*
X85940000Y-80667224D01*
%TO.C,R14*%
X78672224Y-81977500D02*
X78162776Y-81977500D01*
X78672224Y-83022500D02*
X78162776Y-83022500D01*
%TO.C,U1*%
X96645000Y-59815000D02*
X96645000Y-60265000D01*
X96645000Y-67035000D02*
X96645000Y-66585000D01*
X97095000Y-59815000D02*
X96645000Y-59815000D01*
X97095000Y-67035000D02*
X96645000Y-67035000D01*
X103415000Y-59815000D02*
X103865000Y-59815000D01*
X103415000Y-67035000D02*
X103865000Y-67035000D01*
X103865000Y-59815000D02*
X103865000Y-60265000D01*
X103865000Y-67035000D02*
X103865000Y-66585000D01*
X104795000Y-67055000D02*
X104115000Y-67055000D01*
X104455000Y-66585000D01*
X104795000Y-67055000D01*
G36*
X104795000Y-67055000D02*
G01*
X104115000Y-67055000D01*
X104455000Y-66585000D01*
X104795000Y-67055000D01*
G37*
%TO.C,C12*%
X83907500Y-51353733D02*
X83907500Y-51646267D01*
X84927500Y-51353733D02*
X84927500Y-51646267D01*
%TO.C,C9*%
X76907500Y-77646267D02*
X76907500Y-77353733D01*
X77927500Y-77646267D02*
X77927500Y-77353733D01*
%TO.C,C4*%
X65907500Y-66558767D02*
X65907500Y-66266233D01*
X66927500Y-66558767D02*
X66927500Y-66266233D01*
%TO.C,R5*%
X98895000Y-49667224D02*
X98895000Y-49157776D01*
X99940000Y-49667224D02*
X99940000Y-49157776D01*
%TO.C,R1*%
X67895000Y-66157776D02*
X67895000Y-66667224D01*
X68940000Y-66157776D02*
X68940000Y-66667224D01*
%TO.C,R4*%
X120162776Y-65977500D02*
X120672224Y-65977500D01*
X120162776Y-67022500D02*
X120672224Y-67022500D01*
D11*
%TO.C,U2*%
X122667500Y-54250000D02*
X123417500Y-54250000D01*
X122667500Y-70750000D02*
X122667500Y-54250000D01*
X123417500Y-70750000D02*
X122667500Y-70750000D01*
X139417500Y-70750000D02*
X140167500Y-70750000D01*
X140167500Y-54250000D02*
X139417500Y-54250000D01*
X140167500Y-70750000D02*
X140167500Y-54250000D01*
D14*
X123417500Y-71550000D02*
X122917500Y-71050000D01*
X123417500Y-71050000D01*
X123417500Y-71550000D01*
G36*
X123417500Y-71550000D02*
G01*
X122917500Y-71050000D01*
X123417500Y-71050000D01*
X123417500Y-71550000D01*
G37*
%TD*%
M02*
