%TF.GenerationSoftware,KiCad,Pcbnew,9.0.1*%
%TF.CreationDate,2025-07-28T02:39:42+03:00*%
%TF.ProjectId,FlameSensorSender,466c616d-6553-4656-9e73-6f7253656e64,1*%
%TF.SameCoordinates,Original*%
%TF.FileFunction,Profile,NP*%
%FSLAX46Y46*%
G04 Gerber Fmt 4.6, Leading zero omitted, Abs format (unit mm)*
G04 Created by KiCad (PCBNEW 9.0.1) date 2025-07-28 02:39:42*
%MOMM*%
%LPD*%
G01*
G04 APERTURE LIST*
%ADD10C,0.100000*%
%ADD11C,0.150000*%
%ADD12C,0.300000*%
%ADD13C,0.400000*%
%TA.AperFunction,Profile*%
%ADD14C,0.050000*%
%TD*%
G04 APERTURE END LIST*
D10*
D11*
X90007200Y-253002200D02*
X198007200Y-253002200D01*
X198007200Y-285002200D01*
X90007200Y-285002200D01*
X90007200Y-253002200D01*
D10*
D11*
X10000000Y-10000000D02*
X200007200Y-10000000D01*
X200007200Y-287002200D01*
X10000000Y-287002200D01*
X10000000Y-10000000D01*
D10*
D11*
X12000000Y-12000000D02*
X198007200Y-12000000D01*
X198007200Y-285002200D01*
X12000000Y-285002200D01*
X12000000Y-12000000D01*
D10*
D11*
X60000000Y-12000000D02*
X60000000Y-10000000D01*
D10*
D11*
X110000000Y-12000000D02*
X110000000Y-10000000D01*
D10*
D11*
X160000000Y-12000000D02*
X160000000Y-10000000D01*
D10*
D11*
X36089160Y-11593604D02*
X35346303Y-11593604D01*
X35717731Y-11593604D02*
X35717731Y-10293604D01*
X35717731Y-10293604D02*
X35593922Y-10479319D01*
X35593922Y-10479319D02*
X35470112Y-10603128D01*
X35470112Y-10603128D02*
X35346303Y-10665033D01*
D10*
D11*
X85346303Y-10417414D02*
X85408207Y-10355509D01*
X85408207Y-10355509D02*
X85532017Y-10293604D01*
X85532017Y-10293604D02*
X85841541Y-10293604D01*
X85841541Y-10293604D02*
X85965350Y-10355509D01*
X85965350Y-10355509D02*
X86027255Y-10417414D01*
X86027255Y-10417414D02*
X86089160Y-10541223D01*
X86089160Y-10541223D02*
X86089160Y-10665033D01*
X86089160Y-10665033D02*
X86027255Y-10850747D01*
X86027255Y-10850747D02*
X85284398Y-11593604D01*
X85284398Y-11593604D02*
X86089160Y-11593604D01*
D10*
D11*
X135284398Y-10293604D02*
X136089160Y-10293604D01*
X136089160Y-10293604D02*
X135655826Y-10788842D01*
X135655826Y-10788842D02*
X135841541Y-10788842D01*
X135841541Y-10788842D02*
X135965350Y-10850747D01*
X135965350Y-10850747D02*
X136027255Y-10912652D01*
X136027255Y-10912652D02*
X136089160Y-11036461D01*
X136089160Y-11036461D02*
X136089160Y-11345985D01*
X136089160Y-11345985D02*
X136027255Y-11469795D01*
X136027255Y-11469795D02*
X135965350Y-11531700D01*
X135965350Y-11531700D02*
X135841541Y-11593604D01*
X135841541Y-11593604D02*
X135470112Y-11593604D01*
X135470112Y-11593604D02*
X135346303Y-11531700D01*
X135346303Y-11531700D02*
X135284398Y-11469795D01*
D10*
D11*
X185965350Y-10726938D02*
X185965350Y-11593604D01*
X185655826Y-10231700D02*
X185346303Y-11160271D01*
X185346303Y-11160271D02*
X186151064Y-11160271D01*
D10*
D11*
X60000000Y-285002200D02*
X60000000Y-287002200D01*
D10*
D11*
X110000000Y-285002200D02*
X110000000Y-287002200D01*
D10*
D11*
X160000000Y-285002200D02*
X160000000Y-287002200D01*
D10*
D11*
X36089160Y-286595804D02*
X35346303Y-286595804D01*
X35717731Y-286595804D02*
X35717731Y-285295804D01*
X35717731Y-285295804D02*
X35593922Y-285481519D01*
X35593922Y-285481519D02*
X35470112Y-285605328D01*
X35470112Y-285605328D02*
X35346303Y-285667233D01*
D10*
D11*
X85346303Y-285419614D02*
X85408207Y-285357709D01*
X85408207Y-285357709D02*
X85532017Y-285295804D01*
X85532017Y-285295804D02*
X85841541Y-285295804D01*
X85841541Y-285295804D02*
X85965350Y-285357709D01*
X85965350Y-285357709D02*
X86027255Y-285419614D01*
X86027255Y-285419614D02*
X86089160Y-285543423D01*
X86089160Y-285543423D02*
X86089160Y-285667233D01*
X86089160Y-285667233D02*
X86027255Y-285852947D01*
X86027255Y-285852947D02*
X85284398Y-286595804D01*
X85284398Y-286595804D02*
X86089160Y-286595804D01*
D10*
D11*
X135284398Y-285295804D02*
X136089160Y-285295804D01*
X136089160Y-285295804D02*
X135655826Y-285791042D01*
X135655826Y-285791042D02*
X135841541Y-285791042D01*
X135841541Y-285791042D02*
X135965350Y-285852947D01*
X135965350Y-285852947D02*
X136027255Y-285914852D01*
X136027255Y-285914852D02*
X136089160Y-286038661D01*
X136089160Y-286038661D02*
X136089160Y-286348185D01*
X136089160Y-286348185D02*
X136027255Y-286471995D01*
X136027255Y-286471995D02*
X135965350Y-286533900D01*
X135965350Y-286533900D02*
X135841541Y-286595804D01*
X135841541Y-286595804D02*
X135470112Y-286595804D01*
X135470112Y-286595804D02*
X135346303Y-286533900D01*
X135346303Y-286533900D02*
X135284398Y-286471995D01*
D10*
D11*
X185965350Y-285729138D02*
X185965350Y-286595804D01*
X185655826Y-285233900D02*
X185346303Y-286162471D01*
X185346303Y-286162471D02*
X186151064Y-286162471D01*
D10*
D11*
X10000000Y-60000000D02*
X12000000Y-60000000D01*
D10*
D11*
X10000000Y-110000000D02*
X12000000Y-110000000D01*
D10*
D11*
X10000000Y-160000000D02*
X12000000Y-160000000D01*
D10*
D11*
X10000000Y-210000000D02*
X12000000Y-210000000D01*
D10*
D11*
X10000000Y-260000000D02*
X12000000Y-260000000D01*
D10*
D11*
X10690476Y-35222176D02*
X11309523Y-35222176D01*
X10566666Y-35593604D02*
X10999999Y-34293604D01*
X10999999Y-34293604D02*
X11433333Y-35593604D01*
D10*
D11*
X11092857Y-84912652D02*
X11278571Y-84974557D01*
X11278571Y-84974557D02*
X11340476Y-85036461D01*
X11340476Y-85036461D02*
X11402380Y-85160271D01*
X11402380Y-85160271D02*
X11402380Y-85345985D01*
X11402380Y-85345985D02*
X11340476Y-85469795D01*
X11340476Y-85469795D02*
X11278571Y-85531700D01*
X11278571Y-85531700D02*
X11154761Y-85593604D01*
X11154761Y-85593604D02*
X10659523Y-85593604D01*
X10659523Y-85593604D02*
X10659523Y-84293604D01*
X10659523Y-84293604D02*
X11092857Y-84293604D01*
X11092857Y-84293604D02*
X11216666Y-84355509D01*
X11216666Y-84355509D02*
X11278571Y-84417414D01*
X11278571Y-84417414D02*
X11340476Y-84541223D01*
X11340476Y-84541223D02*
X11340476Y-84665033D01*
X11340476Y-84665033D02*
X11278571Y-84788842D01*
X11278571Y-84788842D02*
X11216666Y-84850747D01*
X11216666Y-84850747D02*
X11092857Y-84912652D01*
X11092857Y-84912652D02*
X10659523Y-84912652D01*
D10*
D11*
X11402380Y-135469795D02*
X11340476Y-135531700D01*
X11340476Y-135531700D02*
X11154761Y-135593604D01*
X11154761Y-135593604D02*
X11030952Y-135593604D01*
X11030952Y-135593604D02*
X10845238Y-135531700D01*
X10845238Y-135531700D02*
X10721428Y-135407890D01*
X10721428Y-135407890D02*
X10659523Y-135284080D01*
X10659523Y-135284080D02*
X10597619Y-135036461D01*
X10597619Y-135036461D02*
X10597619Y-134850747D01*
X10597619Y-134850747D02*
X10659523Y-134603128D01*
X10659523Y-134603128D02*
X10721428Y-134479319D01*
X10721428Y-134479319D02*
X10845238Y-134355509D01*
X10845238Y-134355509D02*
X11030952Y-134293604D01*
X11030952Y-134293604D02*
X11154761Y-134293604D01*
X11154761Y-134293604D02*
X11340476Y-134355509D01*
X11340476Y-134355509D02*
X11402380Y-134417414D01*
D10*
D11*
X10659523Y-185593604D02*
X10659523Y-184293604D01*
X10659523Y-184293604D02*
X10969047Y-184293604D01*
X10969047Y-184293604D02*
X11154761Y-184355509D01*
X11154761Y-184355509D02*
X11278571Y-184479319D01*
X11278571Y-184479319D02*
X11340476Y-184603128D01*
X11340476Y-184603128D02*
X11402380Y-184850747D01*
X11402380Y-184850747D02*
X11402380Y-185036461D01*
X11402380Y-185036461D02*
X11340476Y-185284080D01*
X11340476Y-185284080D02*
X11278571Y-185407890D01*
X11278571Y-185407890D02*
X11154761Y-185531700D01*
X11154761Y-185531700D02*
X10969047Y-185593604D01*
X10969047Y-185593604D02*
X10659523Y-185593604D01*
D10*
D11*
X10721428Y-234912652D02*
X11154762Y-234912652D01*
X11340476Y-235593604D02*
X10721428Y-235593604D01*
X10721428Y-235593604D02*
X10721428Y-234293604D01*
X10721428Y-234293604D02*
X11340476Y-234293604D01*
D10*
D11*
X11185714Y-284912652D02*
X10752380Y-284912652D01*
X10752380Y-285593604D02*
X10752380Y-284293604D01*
X10752380Y-284293604D02*
X11371428Y-284293604D01*
D10*
D11*
X200007200Y-60000000D02*
X198007200Y-60000000D01*
D10*
D11*
X200007200Y-110000000D02*
X198007200Y-110000000D01*
D10*
D11*
X200007200Y-160000000D02*
X198007200Y-160000000D01*
D10*
D11*
X200007200Y-210000000D02*
X198007200Y-210000000D01*
D10*
D11*
X200007200Y-260000000D02*
X198007200Y-260000000D01*
D10*
D11*
X198697676Y-35222176D02*
X199316723Y-35222176D01*
X198573866Y-35593604D02*
X199007199Y-34293604D01*
X199007199Y-34293604D02*
X199440533Y-35593604D01*
D10*
D11*
X199100057Y-84912652D02*
X199285771Y-84974557D01*
X199285771Y-84974557D02*
X199347676Y-85036461D01*
X199347676Y-85036461D02*
X199409580Y-85160271D01*
X199409580Y-85160271D02*
X199409580Y-85345985D01*
X199409580Y-85345985D02*
X199347676Y-85469795D01*
X199347676Y-85469795D02*
X199285771Y-85531700D01*
X199285771Y-85531700D02*
X199161961Y-85593604D01*
X199161961Y-85593604D02*
X198666723Y-85593604D01*
X198666723Y-85593604D02*
X198666723Y-84293604D01*
X198666723Y-84293604D02*
X199100057Y-84293604D01*
X199100057Y-84293604D02*
X199223866Y-84355509D01*
X199223866Y-84355509D02*
X199285771Y-84417414D01*
X199285771Y-84417414D02*
X199347676Y-84541223D01*
X199347676Y-84541223D02*
X199347676Y-84665033D01*
X199347676Y-84665033D02*
X199285771Y-84788842D01*
X199285771Y-84788842D02*
X199223866Y-84850747D01*
X199223866Y-84850747D02*
X199100057Y-84912652D01*
X199100057Y-84912652D02*
X198666723Y-84912652D01*
D10*
D11*
X199409580Y-135469795D02*
X199347676Y-135531700D01*
X199347676Y-135531700D02*
X199161961Y-135593604D01*
X199161961Y-135593604D02*
X199038152Y-135593604D01*
X199038152Y-135593604D02*
X198852438Y-135531700D01*
X198852438Y-135531700D02*
X198728628Y-135407890D01*
X198728628Y-135407890D02*
X198666723Y-135284080D01*
X198666723Y-135284080D02*
X198604819Y-135036461D01*
X198604819Y-135036461D02*
X198604819Y-134850747D01*
X198604819Y-134850747D02*
X198666723Y-134603128D01*
X198666723Y-134603128D02*
X198728628Y-134479319D01*
X198728628Y-134479319D02*
X198852438Y-134355509D01*
X198852438Y-134355509D02*
X199038152Y-134293604D01*
X199038152Y-134293604D02*
X199161961Y-134293604D01*
X199161961Y-134293604D02*
X199347676Y-134355509D01*
X199347676Y-134355509D02*
X199409580Y-134417414D01*
D10*
D11*
X198666723Y-185593604D02*
X198666723Y-184293604D01*
X198666723Y-184293604D02*
X198976247Y-184293604D01*
X198976247Y-184293604D02*
X199161961Y-184355509D01*
X199161961Y-184355509D02*
X199285771Y-184479319D01*
X199285771Y-184479319D02*
X199347676Y-184603128D01*
X199347676Y-184603128D02*
X199409580Y-184850747D01*
X199409580Y-184850747D02*
X199409580Y-185036461D01*
X199409580Y-185036461D02*
X199347676Y-185284080D01*
X199347676Y-185284080D02*
X199285771Y-185407890D01*
X199285771Y-185407890D02*
X199161961Y-185531700D01*
X199161961Y-185531700D02*
X198976247Y-185593604D01*
X198976247Y-185593604D02*
X198666723Y-185593604D01*
D10*
D11*
X198728628Y-234912652D02*
X199161962Y-234912652D01*
X199347676Y-235593604D02*
X198728628Y-235593604D01*
X198728628Y-235593604D02*
X198728628Y-234293604D01*
X198728628Y-234293604D02*
X199347676Y-234293604D01*
D10*
D11*
X199192914Y-284912652D02*
X198759580Y-284912652D01*
X198759580Y-285593604D02*
X198759580Y-284293604D01*
X198759580Y-284293604D02*
X199378628Y-284293604D01*
D10*
D11*
X113463026Y-280788328D02*
X113463026Y-279288328D01*
X113463026Y-279288328D02*
X113820169Y-279288328D01*
X113820169Y-279288328D02*
X114034455Y-279359757D01*
X114034455Y-279359757D02*
X114177312Y-279502614D01*
X114177312Y-279502614D02*
X114248741Y-279645471D01*
X114248741Y-279645471D02*
X114320169Y-279931185D01*
X114320169Y-279931185D02*
X114320169Y-280145471D01*
X114320169Y-280145471D02*
X114248741Y-280431185D01*
X114248741Y-280431185D02*
X114177312Y-280574042D01*
X114177312Y-280574042D02*
X114034455Y-280716900D01*
X114034455Y-280716900D02*
X113820169Y-280788328D01*
X113820169Y-280788328D02*
X113463026Y-280788328D01*
X115605884Y-280788328D02*
X115605884Y-280002614D01*
X115605884Y-280002614D02*
X115534455Y-279859757D01*
X115534455Y-279859757D02*
X115391598Y-279788328D01*
X115391598Y-279788328D02*
X115105884Y-279788328D01*
X115105884Y-279788328D02*
X114963026Y-279859757D01*
X115605884Y-280716900D02*
X115463026Y-280788328D01*
X115463026Y-280788328D02*
X115105884Y-280788328D01*
X115105884Y-280788328D02*
X114963026Y-280716900D01*
X114963026Y-280716900D02*
X114891598Y-280574042D01*
X114891598Y-280574042D02*
X114891598Y-280431185D01*
X114891598Y-280431185D02*
X114963026Y-280288328D01*
X114963026Y-280288328D02*
X115105884Y-280216900D01*
X115105884Y-280216900D02*
X115463026Y-280216900D01*
X115463026Y-280216900D02*
X115605884Y-280145471D01*
X116105884Y-279788328D02*
X116677312Y-279788328D01*
X116320169Y-279288328D02*
X116320169Y-280574042D01*
X116320169Y-280574042D02*
X116391598Y-280716900D01*
X116391598Y-280716900D02*
X116534455Y-280788328D01*
X116534455Y-280788328D02*
X116677312Y-280788328D01*
X117748741Y-280716900D02*
X117605884Y-280788328D01*
X117605884Y-280788328D02*
X117320170Y-280788328D01*
X117320170Y-280788328D02*
X117177312Y-280716900D01*
X117177312Y-280716900D02*
X117105884Y-280574042D01*
X117105884Y-280574042D02*
X117105884Y-280002614D01*
X117105884Y-280002614D02*
X117177312Y-279859757D01*
X117177312Y-279859757D02*
X117320170Y-279788328D01*
X117320170Y-279788328D02*
X117605884Y-279788328D01*
X117605884Y-279788328D02*
X117748741Y-279859757D01*
X117748741Y-279859757D02*
X117820170Y-280002614D01*
X117820170Y-280002614D02*
X117820170Y-280145471D01*
X117820170Y-280145471D02*
X117105884Y-280288328D01*
X118463026Y-280645471D02*
X118534455Y-280716900D01*
X118534455Y-280716900D02*
X118463026Y-280788328D01*
X118463026Y-280788328D02*
X118391598Y-280716900D01*
X118391598Y-280716900D02*
X118463026Y-280645471D01*
X118463026Y-280645471D02*
X118463026Y-280788328D01*
X118463026Y-279859757D02*
X118534455Y-279931185D01*
X118534455Y-279931185D02*
X118463026Y-280002614D01*
X118463026Y-280002614D02*
X118391598Y-279931185D01*
X118391598Y-279931185D02*
X118463026Y-279859757D01*
X118463026Y-279859757D02*
X118463026Y-280002614D01*
X120248741Y-279431185D02*
X120320169Y-279359757D01*
X120320169Y-279359757D02*
X120463027Y-279288328D01*
X120463027Y-279288328D02*
X120820169Y-279288328D01*
X120820169Y-279288328D02*
X120963027Y-279359757D01*
X120963027Y-279359757D02*
X121034455Y-279431185D01*
X121034455Y-279431185D02*
X121105884Y-279574042D01*
X121105884Y-279574042D02*
X121105884Y-279716900D01*
X121105884Y-279716900D02*
X121034455Y-279931185D01*
X121034455Y-279931185D02*
X120177312Y-280788328D01*
X120177312Y-280788328D02*
X121105884Y-280788328D01*
X122034455Y-279288328D02*
X122177312Y-279288328D01*
X122177312Y-279288328D02*
X122320169Y-279359757D01*
X122320169Y-279359757D02*
X122391598Y-279431185D01*
X122391598Y-279431185D02*
X122463026Y-279574042D01*
X122463026Y-279574042D02*
X122534455Y-279859757D01*
X122534455Y-279859757D02*
X122534455Y-280216900D01*
X122534455Y-280216900D02*
X122463026Y-280502614D01*
X122463026Y-280502614D02*
X122391598Y-280645471D01*
X122391598Y-280645471D02*
X122320169Y-280716900D01*
X122320169Y-280716900D02*
X122177312Y-280788328D01*
X122177312Y-280788328D02*
X122034455Y-280788328D01*
X122034455Y-280788328D02*
X121891598Y-280716900D01*
X121891598Y-280716900D02*
X121820169Y-280645471D01*
X121820169Y-280645471D02*
X121748740Y-280502614D01*
X121748740Y-280502614D02*
X121677312Y-280216900D01*
X121677312Y-280216900D02*
X121677312Y-279859757D01*
X121677312Y-279859757D02*
X121748740Y-279574042D01*
X121748740Y-279574042D02*
X121820169Y-279431185D01*
X121820169Y-279431185D02*
X121891598Y-279359757D01*
X121891598Y-279359757D02*
X122034455Y-279288328D01*
X123105883Y-279431185D02*
X123177311Y-279359757D01*
X123177311Y-279359757D02*
X123320169Y-279288328D01*
X123320169Y-279288328D02*
X123677311Y-279288328D01*
X123677311Y-279288328D02*
X123820169Y-279359757D01*
X123820169Y-279359757D02*
X123891597Y-279431185D01*
X123891597Y-279431185D02*
X123963026Y-279574042D01*
X123963026Y-279574042D02*
X123963026Y-279716900D01*
X123963026Y-279716900D02*
X123891597Y-279931185D01*
X123891597Y-279931185D02*
X123034454Y-280788328D01*
X123034454Y-280788328D02*
X123963026Y-280788328D01*
X125320168Y-279288328D02*
X124605882Y-279288328D01*
X124605882Y-279288328D02*
X124534454Y-280002614D01*
X124534454Y-280002614D02*
X124605882Y-279931185D01*
X124605882Y-279931185D02*
X124748740Y-279859757D01*
X124748740Y-279859757D02*
X125105882Y-279859757D01*
X125105882Y-279859757D02*
X125248740Y-279931185D01*
X125248740Y-279931185D02*
X125320168Y-280002614D01*
X125320168Y-280002614D02*
X125391597Y-280145471D01*
X125391597Y-280145471D02*
X125391597Y-280502614D01*
X125391597Y-280502614D02*
X125320168Y-280645471D01*
X125320168Y-280645471D02*
X125248740Y-280716900D01*
X125248740Y-280716900D02*
X125105882Y-280788328D01*
X125105882Y-280788328D02*
X124748740Y-280788328D01*
X124748740Y-280788328D02*
X124605882Y-280716900D01*
X124605882Y-280716900D02*
X124534454Y-280645471D01*
X126034453Y-280216900D02*
X127177311Y-280216900D01*
X128177311Y-279288328D02*
X128320168Y-279288328D01*
X128320168Y-279288328D02*
X128463025Y-279359757D01*
X128463025Y-279359757D02*
X128534454Y-279431185D01*
X128534454Y-279431185D02*
X128605882Y-279574042D01*
X128605882Y-279574042D02*
X128677311Y-279859757D01*
X128677311Y-279859757D02*
X128677311Y-280216900D01*
X128677311Y-280216900D02*
X128605882Y-280502614D01*
X128605882Y-280502614D02*
X128534454Y-280645471D01*
X128534454Y-280645471D02*
X128463025Y-280716900D01*
X128463025Y-280716900D02*
X128320168Y-280788328D01*
X128320168Y-280788328D02*
X128177311Y-280788328D01*
X128177311Y-280788328D02*
X128034454Y-280716900D01*
X128034454Y-280716900D02*
X127963025Y-280645471D01*
X127963025Y-280645471D02*
X127891596Y-280502614D01*
X127891596Y-280502614D02*
X127820168Y-280216900D01*
X127820168Y-280216900D02*
X127820168Y-279859757D01*
X127820168Y-279859757D02*
X127891596Y-279574042D01*
X127891596Y-279574042D02*
X127963025Y-279431185D01*
X127963025Y-279431185D02*
X128034454Y-279359757D01*
X128034454Y-279359757D02*
X128177311Y-279288328D01*
X130034453Y-279288328D02*
X129320167Y-279288328D01*
X129320167Y-279288328D02*
X129248739Y-280002614D01*
X129248739Y-280002614D02*
X129320167Y-279931185D01*
X129320167Y-279931185D02*
X129463025Y-279859757D01*
X129463025Y-279859757D02*
X129820167Y-279859757D01*
X129820167Y-279859757D02*
X129963025Y-279931185D01*
X129963025Y-279931185D02*
X130034453Y-280002614D01*
X130034453Y-280002614D02*
X130105882Y-280145471D01*
X130105882Y-280145471D02*
X130105882Y-280502614D01*
X130105882Y-280502614D02*
X130034453Y-280645471D01*
X130034453Y-280645471D02*
X129963025Y-280716900D01*
X129963025Y-280716900D02*
X129820167Y-280788328D01*
X129820167Y-280788328D02*
X129463025Y-280788328D01*
X129463025Y-280788328D02*
X129320167Y-280716900D01*
X129320167Y-280716900D02*
X129248739Y-280645471D01*
X130748738Y-280216900D02*
X131891596Y-280216900D01*
X132891596Y-279288328D02*
X133034453Y-279288328D01*
X133034453Y-279288328D02*
X133177310Y-279359757D01*
X133177310Y-279359757D02*
X133248739Y-279431185D01*
X133248739Y-279431185D02*
X133320167Y-279574042D01*
X133320167Y-279574042D02*
X133391596Y-279859757D01*
X133391596Y-279859757D02*
X133391596Y-280216900D01*
X133391596Y-280216900D02*
X133320167Y-280502614D01*
X133320167Y-280502614D02*
X133248739Y-280645471D01*
X133248739Y-280645471D02*
X133177310Y-280716900D01*
X133177310Y-280716900D02*
X133034453Y-280788328D01*
X133034453Y-280788328D02*
X132891596Y-280788328D01*
X132891596Y-280788328D02*
X132748739Y-280716900D01*
X132748739Y-280716900D02*
X132677310Y-280645471D01*
X132677310Y-280645471D02*
X132605881Y-280502614D01*
X132605881Y-280502614D02*
X132534453Y-280216900D01*
X132534453Y-280216900D02*
X132534453Y-279859757D01*
X132534453Y-279859757D02*
X132605881Y-279574042D01*
X132605881Y-279574042D02*
X132677310Y-279431185D01*
X132677310Y-279431185D02*
X132748739Y-279359757D01*
X132748739Y-279359757D02*
X132891596Y-279288328D01*
X134105881Y-280788328D02*
X134391595Y-280788328D01*
X134391595Y-280788328D02*
X134534452Y-280716900D01*
X134534452Y-280716900D02*
X134605881Y-280645471D01*
X134605881Y-280645471D02*
X134748738Y-280431185D01*
X134748738Y-280431185D02*
X134820167Y-280145471D01*
X134820167Y-280145471D02*
X134820167Y-279574042D01*
X134820167Y-279574042D02*
X134748738Y-279431185D01*
X134748738Y-279431185D02*
X134677310Y-279359757D01*
X134677310Y-279359757D02*
X134534452Y-279288328D01*
X134534452Y-279288328D02*
X134248738Y-279288328D01*
X134248738Y-279288328D02*
X134105881Y-279359757D01*
X134105881Y-279359757D02*
X134034452Y-279431185D01*
X134034452Y-279431185D02*
X133963024Y-279574042D01*
X133963024Y-279574042D02*
X133963024Y-279931185D01*
X133963024Y-279931185D02*
X134034452Y-280074042D01*
X134034452Y-280074042D02*
X134105881Y-280145471D01*
X134105881Y-280145471D02*
X134248738Y-280216900D01*
X134248738Y-280216900D02*
X134534452Y-280216900D01*
X134534452Y-280216900D02*
X134677310Y-280145471D01*
X134677310Y-280145471D02*
X134748738Y-280074042D01*
X134748738Y-280074042D02*
X134820167Y-279931185D01*
D10*
D11*
X90007200Y-281502200D02*
X198007200Y-281502200D01*
D10*
D11*
X91463026Y-283588328D02*
X91463026Y-282088328D01*
X92320169Y-283588328D02*
X91677312Y-282731185D01*
X92320169Y-282088328D02*
X91463026Y-282945471D01*
X92963026Y-283588328D02*
X92963026Y-282588328D01*
X92963026Y-282088328D02*
X92891598Y-282159757D01*
X92891598Y-282159757D02*
X92963026Y-282231185D01*
X92963026Y-282231185D02*
X93034455Y-282159757D01*
X93034455Y-282159757D02*
X92963026Y-282088328D01*
X92963026Y-282088328D02*
X92963026Y-282231185D01*
X94534455Y-283445471D02*
X94463027Y-283516900D01*
X94463027Y-283516900D02*
X94248741Y-283588328D01*
X94248741Y-283588328D02*
X94105884Y-283588328D01*
X94105884Y-283588328D02*
X93891598Y-283516900D01*
X93891598Y-283516900D02*
X93748741Y-283374042D01*
X93748741Y-283374042D02*
X93677312Y-283231185D01*
X93677312Y-283231185D02*
X93605884Y-282945471D01*
X93605884Y-282945471D02*
X93605884Y-282731185D01*
X93605884Y-282731185D02*
X93677312Y-282445471D01*
X93677312Y-282445471D02*
X93748741Y-282302614D01*
X93748741Y-282302614D02*
X93891598Y-282159757D01*
X93891598Y-282159757D02*
X94105884Y-282088328D01*
X94105884Y-282088328D02*
X94248741Y-282088328D01*
X94248741Y-282088328D02*
X94463027Y-282159757D01*
X94463027Y-282159757D02*
X94534455Y-282231185D01*
X95820170Y-283588328D02*
X95820170Y-282802614D01*
X95820170Y-282802614D02*
X95748741Y-282659757D01*
X95748741Y-282659757D02*
X95605884Y-282588328D01*
X95605884Y-282588328D02*
X95320170Y-282588328D01*
X95320170Y-282588328D02*
X95177312Y-282659757D01*
X95820170Y-283516900D02*
X95677312Y-283588328D01*
X95677312Y-283588328D02*
X95320170Y-283588328D01*
X95320170Y-283588328D02*
X95177312Y-283516900D01*
X95177312Y-283516900D02*
X95105884Y-283374042D01*
X95105884Y-283374042D02*
X95105884Y-283231185D01*
X95105884Y-283231185D02*
X95177312Y-283088328D01*
X95177312Y-283088328D02*
X95320170Y-283016900D01*
X95320170Y-283016900D02*
X95677312Y-283016900D01*
X95677312Y-283016900D02*
X95820170Y-282945471D01*
X97177313Y-283588328D02*
X97177313Y-282088328D01*
X97177313Y-283516900D02*
X97034455Y-283588328D01*
X97034455Y-283588328D02*
X96748741Y-283588328D01*
X96748741Y-283588328D02*
X96605884Y-283516900D01*
X96605884Y-283516900D02*
X96534455Y-283445471D01*
X96534455Y-283445471D02*
X96463027Y-283302614D01*
X96463027Y-283302614D02*
X96463027Y-282874042D01*
X96463027Y-282874042D02*
X96534455Y-282731185D01*
X96534455Y-282731185D02*
X96605884Y-282659757D01*
X96605884Y-282659757D02*
X96748741Y-282588328D01*
X96748741Y-282588328D02*
X97034455Y-282588328D01*
X97034455Y-282588328D02*
X97177313Y-282659757D01*
X99034455Y-282802614D02*
X99534455Y-282802614D01*
X99748741Y-283588328D02*
X99034455Y-283588328D01*
X99034455Y-283588328D02*
X99034455Y-282088328D01*
X99034455Y-282088328D02*
X99748741Y-282088328D01*
X100391598Y-283445471D02*
X100463027Y-283516900D01*
X100463027Y-283516900D02*
X100391598Y-283588328D01*
X100391598Y-283588328D02*
X100320170Y-283516900D01*
X100320170Y-283516900D02*
X100391598Y-283445471D01*
X100391598Y-283445471D02*
X100391598Y-283588328D01*
X101105884Y-283588328D02*
X101105884Y-282088328D01*
X101105884Y-282088328D02*
X101463027Y-282088328D01*
X101463027Y-282088328D02*
X101677313Y-282159757D01*
X101677313Y-282159757D02*
X101820170Y-282302614D01*
X101820170Y-282302614D02*
X101891599Y-282445471D01*
X101891599Y-282445471D02*
X101963027Y-282731185D01*
X101963027Y-282731185D02*
X101963027Y-282945471D01*
X101963027Y-282945471D02*
X101891599Y-283231185D01*
X101891599Y-283231185D02*
X101820170Y-283374042D01*
X101820170Y-283374042D02*
X101677313Y-283516900D01*
X101677313Y-283516900D02*
X101463027Y-283588328D01*
X101463027Y-283588328D02*
X101105884Y-283588328D01*
X102605884Y-283445471D02*
X102677313Y-283516900D01*
X102677313Y-283516900D02*
X102605884Y-283588328D01*
X102605884Y-283588328D02*
X102534456Y-283516900D01*
X102534456Y-283516900D02*
X102605884Y-283445471D01*
X102605884Y-283445471D02*
X102605884Y-283588328D01*
X103248742Y-283159757D02*
X103963028Y-283159757D01*
X103105885Y-283588328D02*
X103605885Y-282088328D01*
X103605885Y-282088328D02*
X104105885Y-283588328D01*
X104605884Y-283445471D02*
X104677313Y-283516900D01*
X104677313Y-283516900D02*
X104605884Y-283588328D01*
X104605884Y-283588328D02*
X104534456Y-283516900D01*
X104534456Y-283516900D02*
X104605884Y-283445471D01*
X104605884Y-283445471D02*
X104605884Y-283588328D01*
X106534456Y-283588328D02*
X106820170Y-283588328D01*
X106820170Y-283588328D02*
X106963027Y-283516900D01*
X106963027Y-283516900D02*
X107034456Y-283445471D01*
X107034456Y-283445471D02*
X107177313Y-283231185D01*
X107177313Y-283231185D02*
X107248742Y-282945471D01*
X107248742Y-282945471D02*
X107248742Y-282374042D01*
X107248742Y-282374042D02*
X107177313Y-282231185D01*
X107177313Y-282231185D02*
X107105885Y-282159757D01*
X107105885Y-282159757D02*
X106963027Y-282088328D01*
X106963027Y-282088328D02*
X106677313Y-282088328D01*
X106677313Y-282088328D02*
X106534456Y-282159757D01*
X106534456Y-282159757D02*
X106463027Y-282231185D01*
X106463027Y-282231185D02*
X106391599Y-282374042D01*
X106391599Y-282374042D02*
X106391599Y-282731185D01*
X106391599Y-282731185D02*
X106463027Y-282874042D01*
X106463027Y-282874042D02*
X106534456Y-282945471D01*
X106534456Y-282945471D02*
X106677313Y-283016900D01*
X106677313Y-283016900D02*
X106963027Y-283016900D01*
X106963027Y-283016900D02*
X107105885Y-282945471D01*
X107105885Y-282945471D02*
X107177313Y-282874042D01*
X107177313Y-282874042D02*
X107248742Y-282731185D01*
X107891598Y-283445471D02*
X107963027Y-283516900D01*
X107963027Y-283516900D02*
X107891598Y-283588328D01*
X107891598Y-283588328D02*
X107820170Y-283516900D01*
X107820170Y-283516900D02*
X107891598Y-283445471D01*
X107891598Y-283445471D02*
X107891598Y-283588328D01*
X108891599Y-282088328D02*
X109034456Y-282088328D01*
X109034456Y-282088328D02*
X109177313Y-282159757D01*
X109177313Y-282159757D02*
X109248742Y-282231185D01*
X109248742Y-282231185D02*
X109320170Y-282374042D01*
X109320170Y-282374042D02*
X109391599Y-282659757D01*
X109391599Y-282659757D02*
X109391599Y-283016900D01*
X109391599Y-283016900D02*
X109320170Y-283302614D01*
X109320170Y-283302614D02*
X109248742Y-283445471D01*
X109248742Y-283445471D02*
X109177313Y-283516900D01*
X109177313Y-283516900D02*
X109034456Y-283588328D01*
X109034456Y-283588328D02*
X108891599Y-283588328D01*
X108891599Y-283588328D02*
X108748742Y-283516900D01*
X108748742Y-283516900D02*
X108677313Y-283445471D01*
X108677313Y-283445471D02*
X108605884Y-283302614D01*
X108605884Y-283302614D02*
X108534456Y-283016900D01*
X108534456Y-283016900D02*
X108534456Y-282659757D01*
X108534456Y-282659757D02*
X108605884Y-282374042D01*
X108605884Y-282374042D02*
X108677313Y-282231185D01*
X108677313Y-282231185D02*
X108748742Y-282159757D01*
X108748742Y-282159757D02*
X108891599Y-282088328D01*
X110034455Y-283445471D02*
X110105884Y-283516900D01*
X110105884Y-283516900D02*
X110034455Y-283588328D01*
X110034455Y-283588328D02*
X109963027Y-283516900D01*
X109963027Y-283516900D02*
X110034455Y-283445471D01*
X110034455Y-283445471D02*
X110034455Y-283588328D01*
X111534456Y-283588328D02*
X110677313Y-283588328D01*
X111105884Y-283588328D02*
X111105884Y-282088328D01*
X111105884Y-282088328D02*
X110963027Y-282302614D01*
X110963027Y-282302614D02*
X110820170Y-282445471D01*
X110820170Y-282445471D02*
X110677313Y-282516900D01*
D10*
D11*
X90007200Y-278502200D02*
X198007200Y-278502200D01*
D10*
D12*
X177418853Y-280780528D02*
X176918853Y-280066242D01*
X176561710Y-280780528D02*
X176561710Y-279280528D01*
X176561710Y-279280528D02*
X177133139Y-279280528D01*
X177133139Y-279280528D02*
X177275996Y-279351957D01*
X177275996Y-279351957D02*
X177347425Y-279423385D01*
X177347425Y-279423385D02*
X177418853Y-279566242D01*
X177418853Y-279566242D02*
X177418853Y-279780528D01*
X177418853Y-279780528D02*
X177347425Y-279923385D01*
X177347425Y-279923385D02*
X177275996Y-279994814D01*
X177275996Y-279994814D02*
X177133139Y-280066242D01*
X177133139Y-280066242D02*
X176561710Y-280066242D01*
X178633139Y-280709100D02*
X178490282Y-280780528D01*
X178490282Y-280780528D02*
X178204568Y-280780528D01*
X178204568Y-280780528D02*
X178061710Y-280709100D01*
X178061710Y-280709100D02*
X177990282Y-280566242D01*
X177990282Y-280566242D02*
X177990282Y-279994814D01*
X177990282Y-279994814D02*
X178061710Y-279851957D01*
X178061710Y-279851957D02*
X178204568Y-279780528D01*
X178204568Y-279780528D02*
X178490282Y-279780528D01*
X178490282Y-279780528D02*
X178633139Y-279851957D01*
X178633139Y-279851957D02*
X178704568Y-279994814D01*
X178704568Y-279994814D02*
X178704568Y-280137671D01*
X178704568Y-280137671D02*
X177990282Y-280280528D01*
X179204567Y-279780528D02*
X179561710Y-280780528D01*
X179561710Y-280780528D02*
X179918853Y-279780528D01*
X180490281Y-280637671D02*
X180561710Y-280709100D01*
X180561710Y-280709100D02*
X180490281Y-280780528D01*
X180490281Y-280780528D02*
X180418853Y-280709100D01*
X180418853Y-280709100D02*
X180490281Y-280637671D01*
X180490281Y-280637671D02*
X180490281Y-280780528D01*
X180490281Y-279851957D02*
X180561710Y-279923385D01*
X180561710Y-279923385D02*
X180490281Y-279994814D01*
X180490281Y-279994814D02*
X180418853Y-279923385D01*
X180418853Y-279923385D02*
X180490281Y-279851957D01*
X180490281Y-279851957D02*
X180490281Y-279994814D01*
X183133139Y-280780528D02*
X182275996Y-280780528D01*
X182704567Y-280780528D02*
X182704567Y-279280528D01*
X182704567Y-279280528D02*
X182561710Y-279494814D01*
X182561710Y-279494814D02*
X182418853Y-279637671D01*
X182418853Y-279637671D02*
X182275996Y-279709100D01*
D10*
D11*
X91391598Y-280716900D02*
X91605884Y-280788328D01*
X91605884Y-280788328D02*
X91963026Y-280788328D01*
X91963026Y-280788328D02*
X92105884Y-280716900D01*
X92105884Y-280716900D02*
X92177312Y-280645471D01*
X92177312Y-280645471D02*
X92248741Y-280502614D01*
X92248741Y-280502614D02*
X92248741Y-280359757D01*
X92248741Y-280359757D02*
X92177312Y-280216900D01*
X92177312Y-280216900D02*
X92105884Y-280145471D01*
X92105884Y-280145471D02*
X91963026Y-280074042D01*
X91963026Y-280074042D02*
X91677312Y-280002614D01*
X91677312Y-280002614D02*
X91534455Y-279931185D01*
X91534455Y-279931185D02*
X91463026Y-279859757D01*
X91463026Y-279859757D02*
X91391598Y-279716900D01*
X91391598Y-279716900D02*
X91391598Y-279574042D01*
X91391598Y-279574042D02*
X91463026Y-279431185D01*
X91463026Y-279431185D02*
X91534455Y-279359757D01*
X91534455Y-279359757D02*
X91677312Y-279288328D01*
X91677312Y-279288328D02*
X92034455Y-279288328D01*
X92034455Y-279288328D02*
X92248741Y-279359757D01*
X92891597Y-280788328D02*
X92891597Y-279788328D01*
X92891597Y-279288328D02*
X92820169Y-279359757D01*
X92820169Y-279359757D02*
X92891597Y-279431185D01*
X92891597Y-279431185D02*
X92963026Y-279359757D01*
X92963026Y-279359757D02*
X92891597Y-279288328D01*
X92891597Y-279288328D02*
X92891597Y-279431185D01*
X93463026Y-279788328D02*
X94248741Y-279788328D01*
X94248741Y-279788328D02*
X93463026Y-280788328D01*
X93463026Y-280788328D02*
X94248741Y-280788328D01*
X95391598Y-280716900D02*
X95248741Y-280788328D01*
X95248741Y-280788328D02*
X94963027Y-280788328D01*
X94963027Y-280788328D02*
X94820169Y-280716900D01*
X94820169Y-280716900D02*
X94748741Y-280574042D01*
X94748741Y-280574042D02*
X94748741Y-280002614D01*
X94748741Y-280002614D02*
X94820169Y-279859757D01*
X94820169Y-279859757D02*
X94963027Y-279788328D01*
X94963027Y-279788328D02*
X95248741Y-279788328D01*
X95248741Y-279788328D02*
X95391598Y-279859757D01*
X95391598Y-279859757D02*
X95463027Y-280002614D01*
X95463027Y-280002614D02*
X95463027Y-280145471D01*
X95463027Y-280145471D02*
X94748741Y-280288328D01*
X96105883Y-280645471D02*
X96177312Y-280716900D01*
X96177312Y-280716900D02*
X96105883Y-280788328D01*
X96105883Y-280788328D02*
X96034455Y-280716900D01*
X96034455Y-280716900D02*
X96105883Y-280645471D01*
X96105883Y-280645471D02*
X96105883Y-280788328D01*
X96105883Y-279859757D02*
X96177312Y-279931185D01*
X96177312Y-279931185D02*
X96105883Y-280002614D01*
X96105883Y-280002614D02*
X96034455Y-279931185D01*
X96034455Y-279931185D02*
X96105883Y-279859757D01*
X96105883Y-279859757D02*
X96105883Y-280002614D01*
X97891598Y-280359757D02*
X98605884Y-280359757D01*
X97748741Y-280788328D02*
X98248741Y-279288328D01*
X98248741Y-279288328D02*
X98748741Y-280788328D01*
X99891598Y-279788328D02*
X99891598Y-280788328D01*
X99534455Y-279216900D02*
X99177312Y-280288328D01*
X99177312Y-280288328D02*
X100105883Y-280288328D01*
D10*
D11*
X176463026Y-283588328D02*
X176463026Y-282088328D01*
X177820170Y-283588328D02*
X177820170Y-282088328D01*
X177820170Y-283516900D02*
X177677312Y-283588328D01*
X177677312Y-283588328D02*
X177391598Y-283588328D01*
X177391598Y-283588328D02*
X177248741Y-283516900D01*
X177248741Y-283516900D02*
X177177312Y-283445471D01*
X177177312Y-283445471D02*
X177105884Y-283302614D01*
X177105884Y-283302614D02*
X177105884Y-282874042D01*
X177105884Y-282874042D02*
X177177312Y-282731185D01*
X177177312Y-282731185D02*
X177248741Y-282659757D01*
X177248741Y-282659757D02*
X177391598Y-282588328D01*
X177391598Y-282588328D02*
X177677312Y-282588328D01*
X177677312Y-282588328D02*
X177820170Y-282659757D01*
X178534455Y-283445471D02*
X178605884Y-283516900D01*
X178605884Y-283516900D02*
X178534455Y-283588328D01*
X178534455Y-283588328D02*
X178463027Y-283516900D01*
X178463027Y-283516900D02*
X178534455Y-283445471D01*
X178534455Y-283445471D02*
X178534455Y-283588328D01*
X178534455Y-282659757D02*
X178605884Y-282731185D01*
X178605884Y-282731185D02*
X178534455Y-282802614D01*
X178534455Y-282802614D02*
X178463027Y-282731185D01*
X178463027Y-282731185D02*
X178534455Y-282659757D01*
X178534455Y-282659757D02*
X178534455Y-282802614D01*
X180463027Y-283588328D02*
X180748741Y-283588328D01*
X180748741Y-283588328D02*
X180891598Y-283516900D01*
X180891598Y-283516900D02*
X180963027Y-283445471D01*
X180963027Y-283445471D02*
X181105884Y-283231185D01*
X181105884Y-283231185D02*
X181177313Y-282945471D01*
X181177313Y-282945471D02*
X181177313Y-282374042D01*
X181177313Y-282374042D02*
X181105884Y-282231185D01*
X181105884Y-282231185D02*
X181034456Y-282159757D01*
X181034456Y-282159757D02*
X180891598Y-282088328D01*
X180891598Y-282088328D02*
X180605884Y-282088328D01*
X180605884Y-282088328D02*
X180463027Y-282159757D01*
X180463027Y-282159757D02*
X180391598Y-282231185D01*
X180391598Y-282231185D02*
X180320170Y-282374042D01*
X180320170Y-282374042D02*
X180320170Y-282731185D01*
X180320170Y-282731185D02*
X180391598Y-282874042D01*
X180391598Y-282874042D02*
X180463027Y-282945471D01*
X180463027Y-282945471D02*
X180605884Y-283016900D01*
X180605884Y-283016900D02*
X180891598Y-283016900D01*
X180891598Y-283016900D02*
X181034456Y-282945471D01*
X181034456Y-282945471D02*
X181105884Y-282874042D01*
X181105884Y-282874042D02*
X181177313Y-282731185D01*
X182891598Y-282016900D02*
X181605884Y-283945471D01*
X183463027Y-283588328D02*
X183748741Y-283588328D01*
X183748741Y-283588328D02*
X183891598Y-283516900D01*
X183891598Y-283516900D02*
X183963027Y-283445471D01*
X183963027Y-283445471D02*
X184105884Y-283231185D01*
X184105884Y-283231185D02*
X184177313Y-282945471D01*
X184177313Y-282945471D02*
X184177313Y-282374042D01*
X184177313Y-282374042D02*
X184105884Y-282231185D01*
X184105884Y-282231185D02*
X184034456Y-282159757D01*
X184034456Y-282159757D02*
X183891598Y-282088328D01*
X183891598Y-282088328D02*
X183605884Y-282088328D01*
X183605884Y-282088328D02*
X183463027Y-282159757D01*
X183463027Y-282159757D02*
X183391598Y-282231185D01*
X183391598Y-282231185D02*
X183320170Y-282374042D01*
X183320170Y-282374042D02*
X183320170Y-282731185D01*
X183320170Y-282731185D02*
X183391598Y-282874042D01*
X183391598Y-282874042D02*
X183463027Y-282945471D01*
X183463027Y-282945471D02*
X183605884Y-283016900D01*
X183605884Y-283016900D02*
X183891598Y-283016900D01*
X183891598Y-283016900D02*
X184034456Y-282945471D01*
X184034456Y-282945471D02*
X184105884Y-282874042D01*
X184105884Y-282874042D02*
X184177313Y-282731185D01*
D10*
D11*
X90007200Y-274502200D02*
X198007200Y-274502200D01*
D10*
D13*
X91698928Y-275206638D02*
X92841785Y-275206638D01*
X92020357Y-277206638D02*
X92270357Y-275206638D01*
X93258452Y-277206638D02*
X93425119Y-275873304D01*
X93508452Y-275206638D02*
X93401309Y-275301876D01*
X93401309Y-275301876D02*
X93484643Y-275397114D01*
X93484643Y-275397114D02*
X93591786Y-275301876D01*
X93591786Y-275301876D02*
X93508452Y-275206638D01*
X93508452Y-275206638D02*
X93484643Y-275397114D01*
X94091786Y-275873304D02*
X94853690Y-275873304D01*
X94460833Y-275206638D02*
X94246548Y-276920923D01*
X94246548Y-276920923D02*
X94317976Y-277111400D01*
X94317976Y-277111400D02*
X94496548Y-277206638D01*
X94496548Y-277206638D02*
X94687024Y-277206638D01*
X95639405Y-277206638D02*
X95460833Y-277111400D01*
X95460833Y-277111400D02*
X95389405Y-276920923D01*
X95389405Y-276920923D02*
X95603690Y-275206638D01*
X97175119Y-277111400D02*
X96972738Y-277206638D01*
X96972738Y-277206638D02*
X96591785Y-277206638D01*
X96591785Y-277206638D02*
X96413214Y-277111400D01*
X96413214Y-277111400D02*
X96341785Y-276920923D01*
X96341785Y-276920923D02*
X96437024Y-276159019D01*
X96437024Y-276159019D02*
X96556071Y-275968542D01*
X96556071Y-275968542D02*
X96758452Y-275873304D01*
X96758452Y-275873304D02*
X97139404Y-275873304D01*
X97139404Y-275873304D02*
X97317976Y-275968542D01*
X97317976Y-275968542D02*
X97389404Y-276159019D01*
X97389404Y-276159019D02*
X97365595Y-276349495D01*
X97365595Y-276349495D02*
X96389404Y-276539971D01*
X98139405Y-277016161D02*
X98222738Y-277111400D01*
X98222738Y-277111400D02*
X98115595Y-277206638D01*
X98115595Y-277206638D02*
X98032262Y-277111400D01*
X98032262Y-277111400D02*
X98139405Y-277016161D01*
X98139405Y-277016161D02*
X98115595Y-277206638D01*
X98270357Y-275968542D02*
X98353690Y-276063780D01*
X98353690Y-276063780D02*
X98246548Y-276159019D01*
X98246548Y-276159019D02*
X98163214Y-276063780D01*
X98163214Y-276063780D02*
X98270357Y-275968542D01*
X98270357Y-275968542D02*
X98246548Y-276159019D01*
X102056072Y-277682828D02*
X102115596Y-277206638D01*
X102115596Y-277206638D02*
X100401310Y-277206638D01*
X100401310Y-277206638D02*
X100341786Y-277682828D01*
X101734643Y-277206638D02*
X101984643Y-275206638D01*
X101984643Y-275206638D02*
X101508453Y-275206638D01*
X101508453Y-275206638D02*
X101306072Y-275301876D01*
X101306072Y-275301876D02*
X101198929Y-275397114D01*
X101198929Y-275397114D02*
X101079881Y-275587590D01*
X101079881Y-275587590D02*
X100687024Y-277206638D01*
X103734643Y-277206638D02*
X103865595Y-276159019D01*
X103865595Y-276159019D02*
X103794167Y-275968542D01*
X103794167Y-275968542D02*
X103615595Y-275873304D01*
X103615595Y-275873304D02*
X103234643Y-275873304D01*
X103234643Y-275873304D02*
X103032262Y-275968542D01*
X103746548Y-277111400D02*
X103544167Y-277206638D01*
X103544167Y-277206638D02*
X103067976Y-277206638D01*
X103067976Y-277206638D02*
X102889405Y-277111400D01*
X102889405Y-277111400D02*
X102817976Y-276920923D01*
X102817976Y-276920923D02*
X102841786Y-276730447D01*
X102841786Y-276730447D02*
X102960834Y-276539971D01*
X102960834Y-276539971D02*
X103163215Y-276444733D01*
X103163215Y-276444733D02*
X103639405Y-276444733D01*
X103639405Y-276444733D02*
X103841786Y-276349495D01*
X104567977Y-275873304D02*
X105520358Y-275873304D01*
X105044167Y-275873304D02*
X104877500Y-277206638D01*
X106853691Y-275873304D02*
X106687024Y-277206638D01*
X106091786Y-275873304D02*
X106032262Y-276349495D01*
X106032262Y-276349495D02*
X106103691Y-276539971D01*
X106103691Y-276539971D02*
X106282262Y-276635209D01*
X106282262Y-276635209D02*
X106758452Y-276635209D01*
X107901310Y-275873304D02*
X107734643Y-277206638D01*
X107734643Y-277206638D02*
X108853691Y-275873304D01*
X108853691Y-275873304D02*
X108687024Y-277206638D01*
X109806072Y-275873304D02*
X109639405Y-277206638D01*
X109925120Y-276444733D02*
X110401310Y-277206638D01*
X110567977Y-275873304D02*
X109710834Y-276635209D01*
X113877501Y-276063780D02*
X113794168Y-275968542D01*
X113794168Y-275968542D02*
X113615597Y-275873304D01*
X113615597Y-275873304D02*
X113234644Y-275873304D01*
X113234644Y-275873304D02*
X113032263Y-275968542D01*
X113032263Y-275968542D02*
X112925120Y-276063780D01*
X112925120Y-276063780D02*
X112806073Y-276254257D01*
X112806073Y-276254257D02*
X112734644Y-276825685D01*
X112734644Y-276825685D02*
X112806073Y-277016161D01*
X112806073Y-277016161D02*
X112889406Y-277111400D01*
X112889406Y-277111400D02*
X113067978Y-277206638D01*
X113067978Y-277206638D02*
X113353692Y-277206638D01*
X113353692Y-277206638D02*
X113556073Y-277111400D01*
X113556073Y-277111400D02*
X113663216Y-277016161D01*
X113663216Y-277016161D02*
X113782263Y-276825685D01*
X113782263Y-276825685D02*
X113937025Y-275587590D01*
X113937025Y-275587590D02*
X113865597Y-275397114D01*
X113865597Y-275397114D02*
X113782263Y-275301876D01*
X113782263Y-275301876D02*
X113603692Y-275206638D01*
X113603692Y-275206638D02*
X113222739Y-275206638D01*
X113222739Y-275206638D02*
X113020358Y-275301876D01*
X116091787Y-275873304D02*
X115925121Y-277206638D01*
X114758454Y-275873304D02*
X114591787Y-277206638D01*
X114591787Y-277206638D02*
X115067978Y-277206638D01*
X115067978Y-277206638D02*
X115270359Y-277111400D01*
X115270359Y-277111400D02*
X115389406Y-276920923D01*
X115389406Y-276920923D02*
X115425121Y-276635209D01*
X115425121Y-276635209D02*
X115353692Y-276444733D01*
X115353692Y-276444733D02*
X115175121Y-276349495D01*
X115175121Y-276349495D02*
X114698930Y-276349495D01*
X116877501Y-277206638D02*
X117044168Y-275873304D01*
X117044168Y-275873304D02*
X117484644Y-276920923D01*
X117484644Y-276920923D02*
X118187025Y-275873304D01*
X118187025Y-275873304D02*
X118020358Y-277206638D01*
X119829882Y-277206638D02*
X119960834Y-276159019D01*
X119960834Y-276159019D02*
X119889406Y-275968542D01*
X119889406Y-275968542D02*
X119710834Y-275873304D01*
X119710834Y-275873304D02*
X119329882Y-275873304D01*
X119329882Y-275873304D02*
X119127501Y-275968542D01*
X119841787Y-277111400D02*
X119639406Y-277206638D01*
X119639406Y-277206638D02*
X119163215Y-277206638D01*
X119163215Y-277206638D02*
X118984644Y-277111400D01*
X118984644Y-277111400D02*
X118913215Y-276920923D01*
X118913215Y-276920923D02*
X118937025Y-276730447D01*
X118937025Y-276730447D02*
X119056073Y-276539971D01*
X119056073Y-276539971D02*
X119258454Y-276444733D01*
X119258454Y-276444733D02*
X119734644Y-276444733D01*
X119734644Y-276444733D02*
X119937025Y-276349495D01*
D10*
D11*
X91963026Y-272602614D02*
X91463026Y-272602614D01*
X91463026Y-273388328D02*
X91463026Y-271888328D01*
X91463026Y-271888328D02*
X92177312Y-271888328D01*
X92748740Y-273388328D02*
X92748740Y-272388328D01*
X92748740Y-271888328D02*
X92677312Y-271959757D01*
X92677312Y-271959757D02*
X92748740Y-272031185D01*
X92748740Y-272031185D02*
X92820169Y-271959757D01*
X92820169Y-271959757D02*
X92748740Y-271888328D01*
X92748740Y-271888328D02*
X92748740Y-272031185D01*
X93677312Y-273388328D02*
X93534455Y-273316900D01*
X93534455Y-273316900D02*
X93463026Y-273174042D01*
X93463026Y-273174042D02*
X93463026Y-271888328D01*
X94820169Y-273316900D02*
X94677312Y-273388328D01*
X94677312Y-273388328D02*
X94391598Y-273388328D01*
X94391598Y-273388328D02*
X94248740Y-273316900D01*
X94248740Y-273316900D02*
X94177312Y-273174042D01*
X94177312Y-273174042D02*
X94177312Y-272602614D01*
X94177312Y-272602614D02*
X94248740Y-272459757D01*
X94248740Y-272459757D02*
X94391598Y-272388328D01*
X94391598Y-272388328D02*
X94677312Y-272388328D01*
X94677312Y-272388328D02*
X94820169Y-272459757D01*
X94820169Y-272459757D02*
X94891598Y-272602614D01*
X94891598Y-272602614D02*
X94891598Y-272745471D01*
X94891598Y-272745471D02*
X94177312Y-272888328D01*
X95534454Y-273245471D02*
X95605883Y-273316900D01*
X95605883Y-273316900D02*
X95534454Y-273388328D01*
X95534454Y-273388328D02*
X95463026Y-273316900D01*
X95463026Y-273316900D02*
X95534454Y-273245471D01*
X95534454Y-273245471D02*
X95534454Y-273388328D01*
X95534454Y-272459757D02*
X95605883Y-272531185D01*
X95605883Y-272531185D02*
X95534454Y-272602614D01*
X95534454Y-272602614D02*
X95463026Y-272531185D01*
X95463026Y-272531185D02*
X95534454Y-272459757D01*
X95534454Y-272459757D02*
X95534454Y-272602614D01*
X97891597Y-272602614D02*
X97391597Y-272602614D01*
X97391597Y-273388328D02*
X97391597Y-271888328D01*
X97391597Y-271888328D02*
X98105883Y-271888328D01*
X98891597Y-273388328D02*
X98748740Y-273316900D01*
X98748740Y-273316900D02*
X98677311Y-273174042D01*
X98677311Y-273174042D02*
X98677311Y-271888328D01*
X100105883Y-273388328D02*
X100105883Y-272602614D01*
X100105883Y-272602614D02*
X100034454Y-272459757D01*
X100034454Y-272459757D02*
X99891597Y-272388328D01*
X99891597Y-272388328D02*
X99605883Y-272388328D01*
X99605883Y-272388328D02*
X99463025Y-272459757D01*
X100105883Y-273316900D02*
X99963025Y-273388328D01*
X99963025Y-273388328D02*
X99605883Y-273388328D01*
X99605883Y-273388328D02*
X99463025Y-273316900D01*
X99463025Y-273316900D02*
X99391597Y-273174042D01*
X99391597Y-273174042D02*
X99391597Y-273031185D01*
X99391597Y-273031185D02*
X99463025Y-272888328D01*
X99463025Y-272888328D02*
X99605883Y-272816900D01*
X99605883Y-272816900D02*
X99963025Y-272816900D01*
X99963025Y-272816900D02*
X100105883Y-272745471D01*
X100820168Y-273388328D02*
X100820168Y-272388328D01*
X100820168Y-272531185D02*
X100891597Y-272459757D01*
X100891597Y-272459757D02*
X101034454Y-272388328D01*
X101034454Y-272388328D02*
X101248740Y-272388328D01*
X101248740Y-272388328D02*
X101391597Y-272459757D01*
X101391597Y-272459757D02*
X101463026Y-272602614D01*
X101463026Y-272602614D02*
X101463026Y-273388328D01*
X101463026Y-272602614D02*
X101534454Y-272459757D01*
X101534454Y-272459757D02*
X101677311Y-272388328D01*
X101677311Y-272388328D02*
X101891597Y-272388328D01*
X101891597Y-272388328D02*
X102034454Y-272459757D01*
X102034454Y-272459757D02*
X102105883Y-272602614D01*
X102105883Y-272602614D02*
X102105883Y-273388328D01*
X103391597Y-273316900D02*
X103248740Y-273388328D01*
X103248740Y-273388328D02*
X102963026Y-273388328D01*
X102963026Y-273388328D02*
X102820168Y-273316900D01*
X102820168Y-273316900D02*
X102748740Y-273174042D01*
X102748740Y-273174042D02*
X102748740Y-272602614D01*
X102748740Y-272602614D02*
X102820168Y-272459757D01*
X102820168Y-272459757D02*
X102963026Y-272388328D01*
X102963026Y-272388328D02*
X103248740Y-272388328D01*
X103248740Y-272388328D02*
X103391597Y-272459757D01*
X103391597Y-272459757D02*
X103463026Y-272602614D01*
X103463026Y-272602614D02*
X103463026Y-272745471D01*
X103463026Y-272745471D02*
X102748740Y-272888328D01*
X104034454Y-273316900D02*
X104248740Y-273388328D01*
X104248740Y-273388328D02*
X104605882Y-273388328D01*
X104605882Y-273388328D02*
X104748740Y-273316900D01*
X104748740Y-273316900D02*
X104820168Y-273245471D01*
X104820168Y-273245471D02*
X104891597Y-273102614D01*
X104891597Y-273102614D02*
X104891597Y-272959757D01*
X104891597Y-272959757D02*
X104820168Y-272816900D01*
X104820168Y-272816900D02*
X104748740Y-272745471D01*
X104748740Y-272745471D02*
X104605882Y-272674042D01*
X104605882Y-272674042D02*
X104320168Y-272602614D01*
X104320168Y-272602614D02*
X104177311Y-272531185D01*
X104177311Y-272531185D02*
X104105882Y-272459757D01*
X104105882Y-272459757D02*
X104034454Y-272316900D01*
X104034454Y-272316900D02*
X104034454Y-272174042D01*
X104034454Y-272174042D02*
X104105882Y-272031185D01*
X104105882Y-272031185D02*
X104177311Y-271959757D01*
X104177311Y-271959757D02*
X104320168Y-271888328D01*
X104320168Y-271888328D02*
X104677311Y-271888328D01*
X104677311Y-271888328D02*
X104891597Y-271959757D01*
X106105882Y-273316900D02*
X105963025Y-273388328D01*
X105963025Y-273388328D02*
X105677311Y-273388328D01*
X105677311Y-273388328D02*
X105534453Y-273316900D01*
X105534453Y-273316900D02*
X105463025Y-273174042D01*
X105463025Y-273174042D02*
X105463025Y-272602614D01*
X105463025Y-272602614D02*
X105534453Y-272459757D01*
X105534453Y-272459757D02*
X105677311Y-272388328D01*
X105677311Y-272388328D02*
X105963025Y-272388328D01*
X105963025Y-272388328D02*
X106105882Y-272459757D01*
X106105882Y-272459757D02*
X106177311Y-272602614D01*
X106177311Y-272602614D02*
X106177311Y-272745471D01*
X106177311Y-272745471D02*
X105463025Y-272888328D01*
X106820167Y-272388328D02*
X106820167Y-273388328D01*
X106820167Y-272531185D02*
X106891596Y-272459757D01*
X106891596Y-272459757D02*
X107034453Y-272388328D01*
X107034453Y-272388328D02*
X107248739Y-272388328D01*
X107248739Y-272388328D02*
X107391596Y-272459757D01*
X107391596Y-272459757D02*
X107463025Y-272602614D01*
X107463025Y-272602614D02*
X107463025Y-273388328D01*
X108105882Y-273316900D02*
X108248739Y-273388328D01*
X108248739Y-273388328D02*
X108534453Y-273388328D01*
X108534453Y-273388328D02*
X108677310Y-273316900D01*
X108677310Y-273316900D02*
X108748739Y-273174042D01*
X108748739Y-273174042D02*
X108748739Y-273102614D01*
X108748739Y-273102614D02*
X108677310Y-272959757D01*
X108677310Y-272959757D02*
X108534453Y-272888328D01*
X108534453Y-272888328D02*
X108320168Y-272888328D01*
X108320168Y-272888328D02*
X108177310Y-272816900D01*
X108177310Y-272816900D02*
X108105882Y-272674042D01*
X108105882Y-272674042D02*
X108105882Y-272602614D01*
X108105882Y-272602614D02*
X108177310Y-272459757D01*
X108177310Y-272459757D02*
X108320168Y-272388328D01*
X108320168Y-272388328D02*
X108534453Y-272388328D01*
X108534453Y-272388328D02*
X108677310Y-272459757D01*
X109605882Y-273388328D02*
X109463025Y-273316900D01*
X109463025Y-273316900D02*
X109391596Y-273245471D01*
X109391596Y-273245471D02*
X109320168Y-273102614D01*
X109320168Y-273102614D02*
X109320168Y-272674042D01*
X109320168Y-272674042D02*
X109391596Y-272531185D01*
X109391596Y-272531185D02*
X109463025Y-272459757D01*
X109463025Y-272459757D02*
X109605882Y-272388328D01*
X109605882Y-272388328D02*
X109820168Y-272388328D01*
X109820168Y-272388328D02*
X109963025Y-272459757D01*
X109963025Y-272459757D02*
X110034454Y-272531185D01*
X110034454Y-272531185D02*
X110105882Y-272674042D01*
X110105882Y-272674042D02*
X110105882Y-273102614D01*
X110105882Y-273102614D02*
X110034454Y-273245471D01*
X110034454Y-273245471D02*
X109963025Y-273316900D01*
X109963025Y-273316900D02*
X109820168Y-273388328D01*
X109820168Y-273388328D02*
X109605882Y-273388328D01*
X110748739Y-273388328D02*
X110748739Y-272388328D01*
X110748739Y-272674042D02*
X110820168Y-272531185D01*
X110820168Y-272531185D02*
X110891597Y-272459757D01*
X110891597Y-272459757D02*
X111034454Y-272388328D01*
X111034454Y-272388328D02*
X111177311Y-272388328D01*
X111605882Y-273316900D02*
X111820168Y-273388328D01*
X111820168Y-273388328D02*
X112177310Y-273388328D01*
X112177310Y-273388328D02*
X112320168Y-273316900D01*
X112320168Y-273316900D02*
X112391596Y-273245471D01*
X112391596Y-273245471D02*
X112463025Y-273102614D01*
X112463025Y-273102614D02*
X112463025Y-272959757D01*
X112463025Y-272959757D02*
X112391596Y-272816900D01*
X112391596Y-272816900D02*
X112320168Y-272745471D01*
X112320168Y-272745471D02*
X112177310Y-272674042D01*
X112177310Y-272674042D02*
X111891596Y-272602614D01*
X111891596Y-272602614D02*
X111748739Y-272531185D01*
X111748739Y-272531185D02*
X111677310Y-272459757D01*
X111677310Y-272459757D02*
X111605882Y-272316900D01*
X111605882Y-272316900D02*
X111605882Y-272174042D01*
X111605882Y-272174042D02*
X111677310Y-272031185D01*
X111677310Y-272031185D02*
X111748739Y-271959757D01*
X111748739Y-271959757D02*
X111891596Y-271888328D01*
X111891596Y-271888328D02*
X112248739Y-271888328D01*
X112248739Y-271888328D02*
X112463025Y-271959757D01*
X113677310Y-273316900D02*
X113534453Y-273388328D01*
X113534453Y-273388328D02*
X113248739Y-273388328D01*
X113248739Y-273388328D02*
X113105881Y-273316900D01*
X113105881Y-273316900D02*
X113034453Y-273174042D01*
X113034453Y-273174042D02*
X113034453Y-272602614D01*
X113034453Y-272602614D02*
X113105881Y-272459757D01*
X113105881Y-272459757D02*
X113248739Y-272388328D01*
X113248739Y-272388328D02*
X113534453Y-272388328D01*
X113534453Y-272388328D02*
X113677310Y-272459757D01*
X113677310Y-272459757D02*
X113748739Y-272602614D01*
X113748739Y-272602614D02*
X113748739Y-272745471D01*
X113748739Y-272745471D02*
X113034453Y-272888328D01*
X114391595Y-272388328D02*
X114391595Y-273388328D01*
X114391595Y-272531185D02*
X114463024Y-272459757D01*
X114463024Y-272459757D02*
X114605881Y-272388328D01*
X114605881Y-272388328D02*
X114820167Y-272388328D01*
X114820167Y-272388328D02*
X114963024Y-272459757D01*
X114963024Y-272459757D02*
X115034453Y-272602614D01*
X115034453Y-272602614D02*
X115034453Y-273388328D01*
X116391596Y-273388328D02*
X116391596Y-271888328D01*
X116391596Y-273316900D02*
X116248738Y-273388328D01*
X116248738Y-273388328D02*
X115963024Y-273388328D01*
X115963024Y-273388328D02*
X115820167Y-273316900D01*
X115820167Y-273316900D02*
X115748738Y-273245471D01*
X115748738Y-273245471D02*
X115677310Y-273102614D01*
X115677310Y-273102614D02*
X115677310Y-272674042D01*
X115677310Y-272674042D02*
X115748738Y-272531185D01*
X115748738Y-272531185D02*
X115820167Y-272459757D01*
X115820167Y-272459757D02*
X115963024Y-272388328D01*
X115963024Y-272388328D02*
X116248738Y-272388328D01*
X116248738Y-272388328D02*
X116391596Y-272459757D01*
X117677310Y-273316900D02*
X117534453Y-273388328D01*
X117534453Y-273388328D02*
X117248739Y-273388328D01*
X117248739Y-273388328D02*
X117105881Y-273316900D01*
X117105881Y-273316900D02*
X117034453Y-273174042D01*
X117034453Y-273174042D02*
X117034453Y-272602614D01*
X117034453Y-272602614D02*
X117105881Y-272459757D01*
X117105881Y-272459757D02*
X117248739Y-272388328D01*
X117248739Y-272388328D02*
X117534453Y-272388328D01*
X117534453Y-272388328D02*
X117677310Y-272459757D01*
X117677310Y-272459757D02*
X117748739Y-272602614D01*
X117748739Y-272602614D02*
X117748739Y-272745471D01*
X117748739Y-272745471D02*
X117034453Y-272888328D01*
X118391595Y-273388328D02*
X118391595Y-272388328D01*
X118391595Y-272674042D02*
X118463024Y-272531185D01*
X118463024Y-272531185D02*
X118534453Y-272459757D01*
X118534453Y-272459757D02*
X118677310Y-272388328D01*
X118677310Y-272388328D02*
X118820167Y-272388328D01*
X119320166Y-273245471D02*
X119391595Y-273316900D01*
X119391595Y-273316900D02*
X119320166Y-273388328D01*
X119320166Y-273388328D02*
X119248738Y-273316900D01*
X119248738Y-273316900D02*
X119320166Y-273245471D01*
X119320166Y-273245471D02*
X119320166Y-273388328D01*
X120034452Y-273388328D02*
X120034452Y-271888328D01*
X120177310Y-272816900D02*
X120605881Y-273388328D01*
X120605881Y-272388328D02*
X120034452Y-272959757D01*
X121248738Y-273388328D02*
X121248738Y-272388328D01*
X121248738Y-271888328D02*
X121177310Y-271959757D01*
X121177310Y-271959757D02*
X121248738Y-272031185D01*
X121248738Y-272031185D02*
X121320167Y-271959757D01*
X121320167Y-271959757D02*
X121248738Y-271888328D01*
X121248738Y-271888328D02*
X121248738Y-272031185D01*
X122605882Y-273316900D02*
X122463024Y-273388328D01*
X122463024Y-273388328D02*
X122177310Y-273388328D01*
X122177310Y-273388328D02*
X122034453Y-273316900D01*
X122034453Y-273316900D02*
X121963024Y-273245471D01*
X121963024Y-273245471D02*
X121891596Y-273102614D01*
X121891596Y-273102614D02*
X121891596Y-272674042D01*
X121891596Y-272674042D02*
X121963024Y-272531185D01*
X121963024Y-272531185D02*
X122034453Y-272459757D01*
X122034453Y-272459757D02*
X122177310Y-272388328D01*
X122177310Y-272388328D02*
X122463024Y-272388328D01*
X122463024Y-272388328D02*
X122605882Y-272459757D01*
X123891596Y-273388328D02*
X123891596Y-272602614D01*
X123891596Y-272602614D02*
X123820167Y-272459757D01*
X123820167Y-272459757D02*
X123677310Y-272388328D01*
X123677310Y-272388328D02*
X123391596Y-272388328D01*
X123391596Y-272388328D02*
X123248738Y-272459757D01*
X123891596Y-273316900D02*
X123748738Y-273388328D01*
X123748738Y-273388328D02*
X123391596Y-273388328D01*
X123391596Y-273388328D02*
X123248738Y-273316900D01*
X123248738Y-273316900D02*
X123177310Y-273174042D01*
X123177310Y-273174042D02*
X123177310Y-273031185D01*
X123177310Y-273031185D02*
X123248738Y-272888328D01*
X123248738Y-272888328D02*
X123391596Y-272816900D01*
X123391596Y-272816900D02*
X123748738Y-272816900D01*
X123748738Y-272816900D02*
X123891596Y-272745471D01*
X125248739Y-273388328D02*
X125248739Y-271888328D01*
X125248739Y-273316900D02*
X125105881Y-273388328D01*
X125105881Y-273388328D02*
X124820167Y-273388328D01*
X124820167Y-273388328D02*
X124677310Y-273316900D01*
X124677310Y-273316900D02*
X124605881Y-273245471D01*
X124605881Y-273245471D02*
X124534453Y-273102614D01*
X124534453Y-273102614D02*
X124534453Y-272674042D01*
X124534453Y-272674042D02*
X124605881Y-272531185D01*
X124605881Y-272531185D02*
X124677310Y-272459757D01*
X124677310Y-272459757D02*
X124820167Y-272388328D01*
X124820167Y-272388328D02*
X125105881Y-272388328D01*
X125105881Y-272388328D02*
X125248739Y-272459757D01*
X125605882Y-273531185D02*
X126748739Y-273531185D01*
X127105881Y-272388328D02*
X127105881Y-273888328D01*
X127105881Y-272459757D02*
X127248739Y-272388328D01*
X127248739Y-272388328D02*
X127534453Y-272388328D01*
X127534453Y-272388328D02*
X127677310Y-272459757D01*
X127677310Y-272459757D02*
X127748739Y-272531185D01*
X127748739Y-272531185D02*
X127820167Y-272674042D01*
X127820167Y-272674042D02*
X127820167Y-273102614D01*
X127820167Y-273102614D02*
X127748739Y-273245471D01*
X127748739Y-273245471D02*
X127677310Y-273316900D01*
X127677310Y-273316900D02*
X127534453Y-273388328D01*
X127534453Y-273388328D02*
X127248739Y-273388328D01*
X127248739Y-273388328D02*
X127105881Y-273316900D01*
X129105882Y-273316900D02*
X128963024Y-273388328D01*
X128963024Y-273388328D02*
X128677310Y-273388328D01*
X128677310Y-273388328D02*
X128534453Y-273316900D01*
X128534453Y-273316900D02*
X128463024Y-273245471D01*
X128463024Y-273245471D02*
X128391596Y-273102614D01*
X128391596Y-273102614D02*
X128391596Y-272674042D01*
X128391596Y-272674042D02*
X128463024Y-272531185D01*
X128463024Y-272531185D02*
X128534453Y-272459757D01*
X128534453Y-272459757D02*
X128677310Y-272388328D01*
X128677310Y-272388328D02*
X128963024Y-272388328D01*
X128963024Y-272388328D02*
X129105882Y-272459757D01*
X129748738Y-273388328D02*
X129748738Y-271888328D01*
X129748738Y-272459757D02*
X129891596Y-272388328D01*
X129891596Y-272388328D02*
X130177310Y-272388328D01*
X130177310Y-272388328D02*
X130320167Y-272459757D01*
X130320167Y-272459757D02*
X130391596Y-272531185D01*
X130391596Y-272531185D02*
X130463024Y-272674042D01*
X130463024Y-272674042D02*
X130463024Y-273102614D01*
X130463024Y-273102614D02*
X130391596Y-273245471D01*
X130391596Y-273245471D02*
X130320167Y-273316900D01*
X130320167Y-273316900D02*
X130177310Y-273388328D01*
X130177310Y-273388328D02*
X129891596Y-273388328D01*
X129891596Y-273388328D02*
X129748738Y-273316900D01*
D10*
D11*
X90007200Y-268502200D02*
X198007200Y-268502200D01*
D10*
D11*
X91391598Y-270616900D02*
X91605884Y-270688328D01*
X91605884Y-270688328D02*
X91963026Y-270688328D01*
X91963026Y-270688328D02*
X92105884Y-270616900D01*
X92105884Y-270616900D02*
X92177312Y-270545471D01*
X92177312Y-270545471D02*
X92248741Y-270402614D01*
X92248741Y-270402614D02*
X92248741Y-270259757D01*
X92248741Y-270259757D02*
X92177312Y-270116900D01*
X92177312Y-270116900D02*
X92105884Y-270045471D01*
X92105884Y-270045471D02*
X91963026Y-269974042D01*
X91963026Y-269974042D02*
X91677312Y-269902614D01*
X91677312Y-269902614D02*
X91534455Y-269831185D01*
X91534455Y-269831185D02*
X91463026Y-269759757D01*
X91463026Y-269759757D02*
X91391598Y-269616900D01*
X91391598Y-269616900D02*
X91391598Y-269474042D01*
X91391598Y-269474042D02*
X91463026Y-269331185D01*
X91463026Y-269331185D02*
X91534455Y-269259757D01*
X91534455Y-269259757D02*
X91677312Y-269188328D01*
X91677312Y-269188328D02*
X92034455Y-269188328D01*
X92034455Y-269188328D02*
X92248741Y-269259757D01*
X92891597Y-270688328D02*
X92891597Y-269188328D01*
X93534455Y-270688328D02*
X93534455Y-269902614D01*
X93534455Y-269902614D02*
X93463026Y-269759757D01*
X93463026Y-269759757D02*
X93320169Y-269688328D01*
X93320169Y-269688328D02*
X93105883Y-269688328D01*
X93105883Y-269688328D02*
X92963026Y-269759757D01*
X92963026Y-269759757D02*
X92891597Y-269831185D01*
X94820169Y-270616900D02*
X94677312Y-270688328D01*
X94677312Y-270688328D02*
X94391598Y-270688328D01*
X94391598Y-270688328D02*
X94248740Y-270616900D01*
X94248740Y-270616900D02*
X94177312Y-270474042D01*
X94177312Y-270474042D02*
X94177312Y-269902614D01*
X94177312Y-269902614D02*
X94248740Y-269759757D01*
X94248740Y-269759757D02*
X94391598Y-269688328D01*
X94391598Y-269688328D02*
X94677312Y-269688328D01*
X94677312Y-269688328D02*
X94820169Y-269759757D01*
X94820169Y-269759757D02*
X94891598Y-269902614D01*
X94891598Y-269902614D02*
X94891598Y-270045471D01*
X94891598Y-270045471D02*
X94177312Y-270188328D01*
X96105883Y-270616900D02*
X95963026Y-270688328D01*
X95963026Y-270688328D02*
X95677312Y-270688328D01*
X95677312Y-270688328D02*
X95534454Y-270616900D01*
X95534454Y-270616900D02*
X95463026Y-270474042D01*
X95463026Y-270474042D02*
X95463026Y-269902614D01*
X95463026Y-269902614D02*
X95534454Y-269759757D01*
X95534454Y-269759757D02*
X95677312Y-269688328D01*
X95677312Y-269688328D02*
X95963026Y-269688328D01*
X95963026Y-269688328D02*
X96105883Y-269759757D01*
X96105883Y-269759757D02*
X96177312Y-269902614D01*
X96177312Y-269902614D02*
X96177312Y-270045471D01*
X96177312Y-270045471D02*
X95463026Y-270188328D01*
X96605883Y-269688328D02*
X97177311Y-269688328D01*
X96820168Y-269188328D02*
X96820168Y-270474042D01*
X96820168Y-270474042D02*
X96891597Y-270616900D01*
X96891597Y-270616900D02*
X97034454Y-270688328D01*
X97034454Y-270688328D02*
X97177311Y-270688328D01*
X97677311Y-270545471D02*
X97748740Y-270616900D01*
X97748740Y-270616900D02*
X97677311Y-270688328D01*
X97677311Y-270688328D02*
X97605883Y-270616900D01*
X97605883Y-270616900D02*
X97677311Y-270545471D01*
X97677311Y-270545471D02*
X97677311Y-270688328D01*
X97677311Y-269759757D02*
X97748740Y-269831185D01*
X97748740Y-269831185D02*
X97677311Y-269902614D01*
X97677311Y-269902614D02*
X97605883Y-269831185D01*
X97605883Y-269831185D02*
X97677311Y-269759757D01*
X97677311Y-269759757D02*
X97677311Y-269902614D01*
D10*
D11*
X92177312Y-260188328D02*
X91463026Y-260188328D01*
X91463026Y-260188328D02*
X91463026Y-261688328D01*
X91463026Y-261688328D02*
X91891598Y-261688328D01*
X91891598Y-261688328D02*
X92105884Y-261616900D01*
X92105884Y-261616900D02*
X92248741Y-261474042D01*
X92248741Y-261474042D02*
X92320169Y-261331185D01*
X92320169Y-261331185D02*
X92320169Y-261116900D01*
X92320169Y-261116900D02*
X92248741Y-260974042D01*
X92248741Y-260974042D02*
X92105884Y-260831185D01*
X92105884Y-260831185D02*
X91891598Y-260759757D01*
X91891598Y-260759757D02*
X91463026Y-260759757D01*
X92820169Y-260688328D02*
X93177312Y-261688328D01*
X93534455Y-260688328D02*
X93177312Y-261688328D01*
X93177312Y-261688328D02*
X93034455Y-262045471D01*
X93034455Y-262045471D02*
X92963026Y-262116900D01*
X92963026Y-262116900D02*
X92820169Y-262188328D01*
X94105883Y-260688328D02*
X94105883Y-262188328D01*
X94105883Y-260759757D02*
X94248741Y-260688328D01*
X94248741Y-260688328D02*
X94534455Y-260688328D01*
X94534455Y-260688328D02*
X94677312Y-260759757D01*
X94677312Y-260759757D02*
X94748741Y-260831185D01*
X94748741Y-260831185D02*
X94820169Y-260974042D01*
X94820169Y-260974042D02*
X94820169Y-261402614D01*
X94820169Y-261402614D02*
X94748741Y-261545471D01*
X94748741Y-261545471D02*
X94677312Y-261616900D01*
X94677312Y-261616900D02*
X94534455Y-261688328D01*
X94534455Y-261688328D02*
X94248741Y-261688328D01*
X94248741Y-261688328D02*
X94105883Y-261616900D01*
X96463026Y-260688328D02*
X96463026Y-261688328D01*
X95463026Y-260688328D02*
X95463026Y-261688328D01*
X95463026Y-261688328D02*
X95820169Y-261688328D01*
X95820169Y-261688328D02*
X95963026Y-261616900D01*
X95963026Y-261616900D02*
X96034455Y-261474042D01*
X96034455Y-261474042D02*
X96034455Y-261259757D01*
X96034455Y-261259757D02*
X95963026Y-261116900D01*
X95963026Y-261116900D02*
X95820169Y-261045471D01*
X95820169Y-261045471D02*
X95463026Y-261045471D01*
X97177312Y-260688328D02*
X97177312Y-261688328D01*
X97320170Y-261116900D02*
X97748741Y-261688328D01*
X97748741Y-260688328D02*
X97177312Y-261259757D01*
X98391598Y-260688328D02*
X98391598Y-261688328D01*
X98391598Y-261688328D02*
X99105884Y-260688328D01*
X99105884Y-260688328D02*
X99105884Y-261688328D01*
X99820169Y-261188328D02*
X100463027Y-261188328D01*
X99820169Y-260688328D02*
X99820169Y-261688328D01*
X100463027Y-260688328D02*
X100463027Y-261688328D01*
X102320169Y-260188328D02*
X102320169Y-261688328D01*
X102320169Y-261688328D02*
X103177312Y-260188328D01*
X103177312Y-260188328D02*
X103177312Y-261688328D01*
X103891598Y-261545471D02*
X103963027Y-261616900D01*
X103963027Y-261616900D02*
X103891598Y-261688328D01*
X103891598Y-261688328D02*
X103820170Y-261616900D01*
X103820170Y-261616900D02*
X103891598Y-261545471D01*
X103891598Y-261545471D02*
X103891598Y-261688328D01*
X104605884Y-260188328D02*
X104605884Y-261688328D01*
X105105884Y-260902614D02*
X104605884Y-260902614D01*
X105463027Y-260188328D02*
X105748742Y-260188328D01*
X105748742Y-260188328D02*
X105891599Y-260259757D01*
X105891599Y-260259757D02*
X106034456Y-260402614D01*
X106034456Y-260402614D02*
X106105884Y-260688328D01*
X106105884Y-260688328D02*
X106105884Y-261188328D01*
X106105884Y-261188328D02*
X106034456Y-261474042D01*
X106034456Y-261474042D02*
X105891599Y-261616900D01*
X105891599Y-261616900D02*
X105748742Y-261688328D01*
X105748742Y-261688328D02*
X105463027Y-261688328D01*
X105463027Y-261688328D02*
X105320170Y-261616900D01*
X105320170Y-261616900D02*
X105177313Y-261474042D01*
X105177313Y-261474042D02*
X105105884Y-261188328D01*
X105105884Y-261188328D02*
X105105884Y-260688328D01*
X105105884Y-260688328D02*
X105177313Y-260402614D01*
X105177313Y-260402614D02*
X105320170Y-260259757D01*
X105320170Y-260259757D02*
X105463027Y-260188328D01*
X106748741Y-261545471D02*
X106820170Y-261616900D01*
X106820170Y-261616900D02*
X106748741Y-261688328D01*
X106748741Y-261688328D02*
X106677313Y-261616900D01*
X106677313Y-261616900D02*
X106748741Y-261545471D01*
X106748741Y-261545471D02*
X106748741Y-261688328D01*
D10*
D11*
X110007200Y-278502200D02*
X110007200Y-281502200D01*
D10*
D11*
X174007200Y-278502200D02*
X174007200Y-285002200D01*
D14*
X59417500Y-43500000D02*
X142417500Y-43500000D01*
X142417500Y-85500000D01*
X59417500Y-85500000D01*
X59417500Y-43500000D01*
M02*
